<?xml version="1.0" encoding="utf-8" standalone="no"?>
<!DOCTYPE svg PUBLIC "-//W3C//DTD SVG 1.1//EN"
  "http://www.w3.org/Graphics/SVG/1.1/DTD/svg11.dtd">
<svg xmlns:xlink="http://www.w3.org/1999/xlink" width="576pt" height="432pt" viewBox="0 0 576 432" xmlns="http://www.w3.org/2000/svg" version="1.1">
 <metadata>
  <rdf:RDF xmlns:dc="http://purl.org/dc/elements/1.1/" xmlns:cc="http://creativecommons.org/ns#" xmlns:rdf="http://www.w3.org/1999/02/22-rdf-syntax-ns#">
   <cc:Work>
    <dc:type rdf:resource="http://purl.org/dc/dcmitype/StillImage"/>
    <dc:date>2023-05-10T12:35:43.529353</dc:date>
    <dc:format>image/svg+xml</dc:format>
    <dc:creator>
     <cc:Agent>
      <dc:title>Matplotlib v3.5.2, https://matplotlib.org/</dc:title>
     </cc:Agent>
    </dc:creator>
   </cc:Work>
  </rdf:RDF>
 </metadata>
 <defs>
  <style type="text/css">*{stroke-linejoin: round; stroke-linecap: butt}</style>
 </defs>
 <g id="figure_1">
  <g id="patch_1">
   <path d="M 0 432 
L 576 432 
L 576 0 
L 0 0 
z
" style="fill: #ffffff"/>
  </g>
  <g id="axes_1">
   <g id="patch_2">
    <path d="M 54.93024 385.87476 
L 572.99976 385.87476 
L 572.99976 22.68024 
L 54.93024 22.68024 
z
" style="fill: #ffffff"/>
   </g>
   <g id="patch_3">
    <path d="M 78.478855 385.87476 
L 80.311432 385.87476 
L 80.311432 376.266439 
L 78.478855 376.266439 
z
" clip-path="url(#pa61b49e073)" style="fill: #7f7f7f; opacity: 0.5; stroke: #000000; stroke-linejoin: miter"/>
   </g>
   <g id="patch_4">
    <path d="M 80.311432 385.87476 
L 82.144009 385.87476 
L 82.144009 376.266439 
L 80.311432 376.266439 
z
" clip-path="url(#pa61b49e073)" style="fill: #7f7f7f; opacity: 0.5; stroke: #000000; stroke-linejoin: miter"/>
   </g>
   <g id="patch_5">
    <path d="M 82.144009 385.87476 
L 83.976586 385.87476 
L 83.976586 366.658119 
L 82.144009 366.658119 
z
" clip-path="url(#pa61b49e073)" style="fill: #7f7f7f; opacity: 0.5; stroke: #000000; stroke-linejoin: miter"/>
   </g>
   <g id="patch_6">
    <path d="M 83.976586 385.87476 
L 85.809163 385.87476 
L 85.809163 376.266439 
L 83.976586 376.266439 
z
" clip-path="url(#pa61b49e073)" style="fill: #7f7f7f; opacity: 0.5; stroke: #000000; stroke-linejoin: miter"/>
   </g>
   <g id="patch_7">
    <path d="M 85.809163 385.87476 
L 87.64174 385.87476 
L 87.64174 376.266439 
L 85.809163 376.266439 
z
" clip-path="url(#pa61b49e073)" style="fill: #7f7f7f; opacity: 0.5; stroke: #000000; stroke-linejoin: miter"/>
   </g>
   <g id="patch_8">
    <path d="M 87.64174 385.87476 
L 89.474317 385.87476 
L 89.474317 366.658119 
L 87.64174 366.658119 
z
" clip-path="url(#pa61b49e073)" style="fill: #7f7f7f; opacity: 0.5; stroke: #000000; stroke-linejoin: miter"/>
   </g>
   <g id="patch_9">
    <path d="M 89.474317 385.87476 
L 91.306894 385.87476 
L 91.306894 385.87476 
L 89.474317 385.87476 
z
" clip-path="url(#pa61b49e073)" style="fill: #7f7f7f; opacity: 0.5; stroke: #000000; stroke-linejoin: miter"/>
   </g>
   <g id="patch_10">
    <path d="M 91.306894 385.87476 
L 93.139471 385.87476 
L 93.139471 366.658119 
L 91.306894 366.658119 
z
" clip-path="url(#pa61b49e073)" style="fill: #7f7f7f; opacity: 0.5; stroke: #000000; stroke-linejoin: miter"/>
   </g>
   <g id="patch_11">
    <path d="M 93.139471 385.87476 
L 94.972048 385.87476 
L 94.972048 385.87476 
L 93.139471 385.87476 
z
" clip-path="url(#pa61b49e073)" style="fill: #7f7f7f; opacity: 0.5; stroke: #000000; stroke-linejoin: miter"/>
   </g>
   <g id="patch_12">
    <path d="M 94.972048 385.87476 
L 96.804625 385.87476 
L 96.804625 376.266439 
L 94.972048 376.266439 
z
" clip-path="url(#pa61b49e073)" style="fill: #7f7f7f; opacity: 0.5; stroke: #000000; stroke-linejoin: miter"/>
   </g>
   <g id="patch_13">
    <path d="M 96.804625 385.87476 
L 98.637202 385.87476 
L 98.637202 385.87476 
L 96.804625 385.87476 
z
" clip-path="url(#pa61b49e073)" style="fill: #7f7f7f; opacity: 0.5; stroke: #000000; stroke-linejoin: miter"/>
   </g>
   <g id="patch_14">
    <path d="M 98.637202 385.87476 
L 100.469779 385.87476 
L 100.469779 376.266439 
L 98.637202 376.266439 
z
" clip-path="url(#pa61b49e073)" style="fill: #7f7f7f; opacity: 0.5; stroke: #000000; stroke-linejoin: miter"/>
   </g>
   <g id="patch_15">
    <path d="M 100.469779 385.87476 
L 102.302356 385.87476 
L 102.302356 376.266439 
L 100.469779 376.266439 
z
" clip-path="url(#pa61b49e073)" style="fill: #7f7f7f; opacity: 0.5; stroke: #000000; stroke-linejoin: miter"/>
   </g>
   <g id="patch_16">
    <path d="M 102.302356 385.87476 
L 104.134933 385.87476 
L 104.134933 385.87476 
L 102.302356 385.87476 
z
" clip-path="url(#pa61b49e073)" style="fill: #7f7f7f; opacity: 0.5; stroke: #000000; stroke-linejoin: miter"/>
   </g>
   <g id="patch_17">
    <path d="M 104.134933 385.87476 
L 105.96751 385.87476 
L 105.96751 385.87476 
L 104.134933 385.87476 
z
" clip-path="url(#pa61b49e073)" style="fill: #7f7f7f; opacity: 0.5; stroke: #000000; stroke-linejoin: miter"/>
   </g>
   <g id="patch_18">
    <path d="M 105.96751 385.87476 
L 107.800087 385.87476 
L 107.800087 376.266439 
L 105.96751 376.266439 
z
" clip-path="url(#pa61b49e073)" style="fill: #7f7f7f; opacity: 0.5; stroke: #000000; stroke-linejoin: miter"/>
   </g>
   <g id="patch_19">
    <path d="M 107.800087 385.87476 
L 109.632664 385.87476 
L 109.632664 385.87476 
L 107.800087 385.87476 
z
" clip-path="url(#pa61b49e073)" style="fill: #7f7f7f; opacity: 0.5; stroke: #000000; stroke-linejoin: miter"/>
   </g>
   <g id="patch_20">
    <path d="M 109.632664 385.87476 
L 111.465241 385.87476 
L 111.465241 376.266439 
L 109.632664 376.266439 
z
" clip-path="url(#pa61b49e073)" style="fill: #7f7f7f; opacity: 0.5; stroke: #000000; stroke-linejoin: miter"/>
   </g>
   <g id="patch_21">
    <path d="M 111.465241 385.87476 
L 113.297818 385.87476 
L 113.297818 376.266439 
L 111.465241 376.266439 
z
" clip-path="url(#pa61b49e073)" style="fill: #7f7f7f; opacity: 0.5; stroke: #000000; stroke-linejoin: miter"/>
   </g>
   <g id="patch_22">
    <path d="M 113.297818 385.87476 
L 115.130395 385.87476 
L 115.130395 385.87476 
L 113.297818 385.87476 
z
" clip-path="url(#pa61b49e073)" style="fill: #7f7f7f; opacity: 0.5; stroke: #000000; stroke-linejoin: miter"/>
   </g>
   <g id="patch_23">
    <path d="M 115.130395 385.87476 
L 116.962972 385.87476 
L 116.962972 385.87476 
L 115.130395 385.87476 
z
" clip-path="url(#pa61b49e073)" style="fill: #7f7f7f; opacity: 0.5; stroke: #000000; stroke-linejoin: miter"/>
   </g>
   <g id="patch_24">
    <path d="M 116.962972 385.87476 
L 118.795549 385.87476 
L 118.795549 376.266439 
L 116.962972 376.266439 
z
" clip-path="url(#pa61b49e073)" style="fill: #7f7f7f; opacity: 0.5; stroke: #000000; stroke-linejoin: miter"/>
   </g>
   <g id="patch_25">
    <path d="M 118.795549 385.87476 
L 120.628126 385.87476 
L 120.628126 385.87476 
L 118.795549 385.87476 
z
" clip-path="url(#pa61b49e073)" style="fill: #7f7f7f; opacity: 0.5; stroke: #000000; stroke-linejoin: miter"/>
   </g>
   <g id="patch_26">
    <path d="M 120.628126 385.87476 
L 122.460703 385.87476 
L 122.460703 385.87476 
L 120.628126 385.87476 
z
" clip-path="url(#pa61b49e073)" style="fill: #7f7f7f; opacity: 0.5; stroke: #000000; stroke-linejoin: miter"/>
   </g>
   <g id="patch_27">
    <path d="M 122.460703 385.87476 
L 124.29328 385.87476 
L 124.29328 385.87476 
L 122.460703 385.87476 
z
" clip-path="url(#pa61b49e073)" style="fill: #7f7f7f; opacity: 0.5; stroke: #000000; stroke-linejoin: miter"/>
   </g>
   <g id="patch_28">
    <path d="M 124.29328 385.87476 
L 126.125857 385.87476 
L 126.125857 357.049798 
L 124.29328 357.049798 
z
" clip-path="url(#pa61b49e073)" style="fill: #7f7f7f; opacity: 0.5; stroke: #000000; stroke-linejoin: miter"/>
   </g>
   <g id="patch_29">
    <path d="M 126.125857 385.87476 
L 127.958434 385.87476 
L 127.958434 385.87476 
L 126.125857 385.87476 
z
" clip-path="url(#pa61b49e073)" style="fill: #7f7f7f; opacity: 0.5; stroke: #000000; stroke-linejoin: miter"/>
   </g>
   <g id="patch_30">
    <path d="M 127.958434 385.87476 
L 129.791011 385.87476 
L 129.791011 385.87476 
L 127.958434 385.87476 
z
" clip-path="url(#pa61b49e073)" style="fill: #7f7f7f; opacity: 0.5; stroke: #000000; stroke-linejoin: miter"/>
   </g>
   <g id="patch_31">
    <path d="M 129.791011 385.87476 
L 131.623588 385.87476 
L 131.623588 385.87476 
L 129.791011 385.87476 
z
" clip-path="url(#pa61b49e073)" style="fill: #7f7f7f; opacity: 0.5; stroke: #000000; stroke-linejoin: miter"/>
   </g>
   <g id="patch_32">
    <path d="M 131.623588 385.87476 
L 133.456165 385.87476 
L 133.456165 376.266439 
L 131.623588 376.266439 
z
" clip-path="url(#pa61b49e073)" style="fill: #7f7f7f; opacity: 0.5; stroke: #000000; stroke-linejoin: miter"/>
   </g>
   <g id="patch_33">
    <path d="M 133.456165 385.87476 
L 135.288742 385.87476 
L 135.288742 385.87476 
L 133.456165 385.87476 
z
" clip-path="url(#pa61b49e073)" style="fill: #7f7f7f; opacity: 0.5; stroke: #000000; stroke-linejoin: miter"/>
   </g>
   <g id="patch_34">
    <path d="M 135.288742 385.87476 
L 137.121319 385.87476 
L 137.121319 376.266439 
L 135.288742 376.266439 
z
" clip-path="url(#pa61b49e073)" style="fill: #7f7f7f; opacity: 0.5; stroke: #000000; stroke-linejoin: miter"/>
   </g>
   <g id="patch_35">
    <path d="M 137.121319 385.87476 
L 138.953896 385.87476 
L 138.953896 385.87476 
L 137.121319 385.87476 
z
" clip-path="url(#pa61b49e073)" style="fill: #7f7f7f; opacity: 0.5; stroke: #000000; stroke-linejoin: miter"/>
   </g>
   <g id="patch_36">
    <path d="M 138.953896 385.87476 
L 140.786473 385.87476 
L 140.786473 385.87476 
L 138.953896 385.87476 
z
" clip-path="url(#pa61b49e073)" style="fill: #7f7f7f; opacity: 0.5; stroke: #000000; stroke-linejoin: miter"/>
   </g>
   <g id="patch_37">
    <path d="M 140.786473 385.87476 
L 142.61905 385.87476 
L 142.61905 385.87476 
L 140.786473 385.87476 
z
" clip-path="url(#pa61b49e073)" style="fill: #7f7f7f; opacity: 0.5; stroke: #000000; stroke-linejoin: miter"/>
   </g>
   <g id="patch_38">
    <path d="M 142.61905 385.87476 
L 144.451627 385.87476 
L 144.451627 366.658119 
L 142.61905 366.658119 
z
" clip-path="url(#pa61b49e073)" style="fill: #7f7f7f; opacity: 0.5; stroke: #000000; stroke-linejoin: miter"/>
   </g>
   <g id="patch_39">
    <path d="M 144.451627 385.87476 
L 146.284204 385.87476 
L 146.284204 366.658119 
L 144.451627 366.658119 
z
" clip-path="url(#pa61b49e073)" style="fill: #7f7f7f; opacity: 0.5; stroke: #000000; stroke-linejoin: miter"/>
   </g>
   <g id="patch_40">
    <path d="M 146.284204 385.87476 
L 148.116781 385.87476 
L 148.116781 366.658119 
L 146.284204 366.658119 
z
" clip-path="url(#pa61b49e073)" style="fill: #7f7f7f; opacity: 0.5; stroke: #000000; stroke-linejoin: miter"/>
   </g>
   <g id="patch_41">
    <path d="M 148.116781 385.87476 
L 149.949358 385.87476 
L 149.949358 385.87476 
L 148.116781 385.87476 
z
" clip-path="url(#pa61b49e073)" style="fill: #7f7f7f; opacity: 0.5; stroke: #000000; stroke-linejoin: miter"/>
   </g>
   <g id="patch_42">
    <path d="M 149.949358 385.87476 
L 151.781935 385.87476 
L 151.781935 376.266439 
L 149.949358 376.266439 
z
" clip-path="url(#pa61b49e073)" style="fill: #7f7f7f; opacity: 0.5; stroke: #000000; stroke-linejoin: miter"/>
   </g>
   <g id="patch_43">
    <path d="M 151.781935 385.87476 
L 153.614512 385.87476 
L 153.614512 385.87476 
L 151.781935 385.87476 
z
" clip-path="url(#pa61b49e073)" style="fill: #7f7f7f; opacity: 0.5; stroke: #000000; stroke-linejoin: miter"/>
   </g>
   <g id="patch_44">
    <path d="M 153.614512 385.87476 
L 155.447089 385.87476 
L 155.447089 385.87476 
L 153.614512 385.87476 
z
" clip-path="url(#pa61b49e073)" style="fill: #7f7f7f; opacity: 0.5; stroke: #000000; stroke-linejoin: miter"/>
   </g>
   <g id="patch_45">
    <path d="M 155.447089 385.87476 
L 157.279666 385.87476 
L 157.279666 376.266439 
L 155.447089 376.266439 
z
" clip-path="url(#pa61b49e073)" style="fill: #7f7f7f; opacity: 0.5; stroke: #000000; stroke-linejoin: miter"/>
   </g>
   <g id="patch_46">
    <path d="M 157.279666 385.87476 
L 159.112243 385.87476 
L 159.112243 366.658119 
L 157.279666 366.658119 
z
" clip-path="url(#pa61b49e073)" style="fill: #7f7f7f; opacity: 0.5; stroke: #000000; stroke-linejoin: miter"/>
   </g>
   <g id="patch_47">
    <path d="M 159.112243 385.87476 
L 160.94482 385.87476 
L 160.94482 376.266439 
L 159.112243 376.266439 
z
" clip-path="url(#pa61b49e073)" style="fill: #7f7f7f; opacity: 0.5; stroke: #000000; stroke-linejoin: miter"/>
   </g>
   <g id="patch_48">
    <path d="M 160.94482 385.87476 
L 162.777397 385.87476 
L 162.777397 385.87476 
L 160.94482 385.87476 
z
" clip-path="url(#pa61b49e073)" style="fill: #7f7f7f; opacity: 0.5; stroke: #000000; stroke-linejoin: miter"/>
   </g>
   <g id="patch_49">
    <path d="M 162.777397 385.87476 
L 164.609974 385.87476 
L 164.609974 376.266439 
L 162.777397 376.266439 
z
" clip-path="url(#pa61b49e073)" style="fill: #7f7f7f; opacity: 0.5; stroke: #000000; stroke-linejoin: miter"/>
   </g>
   <g id="patch_50">
    <path d="M 164.609974 385.87476 
L 166.442551 385.87476 
L 166.442551 366.658119 
L 164.609974 366.658119 
z
" clip-path="url(#pa61b49e073)" style="fill: #7f7f7f; opacity: 0.5; stroke: #000000; stroke-linejoin: miter"/>
   </g>
   <g id="patch_51">
    <path d="M 166.442551 385.87476 
L 168.275128 385.87476 
L 168.275128 376.266439 
L 166.442551 376.266439 
z
" clip-path="url(#pa61b49e073)" style="fill: #7f7f7f; opacity: 0.5; stroke: #000000; stroke-linejoin: miter"/>
   </g>
   <g id="patch_52">
    <path d="M 168.275128 385.87476 
L 170.107705 385.87476 
L 170.107705 376.266439 
L 168.275128 376.266439 
z
" clip-path="url(#pa61b49e073)" style="fill: #7f7f7f; opacity: 0.5; stroke: #000000; stroke-linejoin: miter"/>
   </g>
   <g id="patch_53">
    <path d="M 170.107705 385.87476 
L 171.940282 385.87476 
L 171.940282 376.266439 
L 170.107705 376.266439 
z
" clip-path="url(#pa61b49e073)" style="fill: #7f7f7f; opacity: 0.5; stroke: #000000; stroke-linejoin: miter"/>
   </g>
   <g id="patch_54">
    <path d="M 171.940282 385.87476 
L 173.772859 385.87476 
L 173.772859 385.87476 
L 171.940282 385.87476 
z
" clip-path="url(#pa61b49e073)" style="fill: #7f7f7f; opacity: 0.5; stroke: #000000; stroke-linejoin: miter"/>
   </g>
   <g id="patch_55">
    <path d="M 173.772859 385.87476 
L 175.605436 385.87476 
L 175.605436 385.87476 
L 173.772859 385.87476 
z
" clip-path="url(#pa61b49e073)" style="fill: #7f7f7f; opacity: 0.5; stroke: #000000; stroke-linejoin: miter"/>
   </g>
   <g id="patch_56">
    <path d="M 175.605436 385.87476 
L 177.438013 385.87476 
L 177.438013 385.87476 
L 175.605436 385.87476 
z
" clip-path="url(#pa61b49e073)" style="fill: #7f7f7f; opacity: 0.5; stroke: #000000; stroke-linejoin: miter"/>
   </g>
   <g id="patch_57">
    <path d="M 177.438013 385.87476 
L 179.27059 385.87476 
L 179.27059 385.87476 
L 177.438013 385.87476 
z
" clip-path="url(#pa61b49e073)" style="fill: #7f7f7f; opacity: 0.5; stroke: #000000; stroke-linejoin: miter"/>
   </g>
   <g id="patch_58">
    <path d="M 179.27059 385.87476 
L 181.103167 385.87476 
L 181.103167 385.87476 
L 179.27059 385.87476 
z
" clip-path="url(#pa61b49e073)" style="fill: #7f7f7f; opacity: 0.5; stroke: #000000; stroke-linejoin: miter"/>
   </g>
   <g id="patch_59">
    <path d="M 181.103167 385.87476 
L 182.935744 385.87476 
L 182.935744 385.87476 
L 181.103167 385.87476 
z
" clip-path="url(#pa61b49e073)" style="fill: #7f7f7f; opacity: 0.5; stroke: #000000; stroke-linejoin: miter"/>
   </g>
   <g id="patch_60">
    <path d="M 182.935744 385.87476 
L 184.768321 385.87476 
L 184.768321 385.87476 
L 182.935744 385.87476 
z
" clip-path="url(#pa61b49e073)" style="fill: #7f7f7f; opacity: 0.5; stroke: #000000; stroke-linejoin: miter"/>
   </g>
   <g id="patch_61">
    <path d="M 184.768321 385.87476 
L 186.600898 385.87476 
L 186.600898 376.266439 
L 184.768321 376.266439 
z
" clip-path="url(#pa61b49e073)" style="fill: #7f7f7f; opacity: 0.5; stroke: #000000; stroke-linejoin: miter"/>
   </g>
   <g id="patch_62">
    <path d="M 186.600898 385.87476 
L 188.433475 385.87476 
L 188.433475 376.266439 
L 186.600898 376.266439 
z
" clip-path="url(#pa61b49e073)" style="fill: #7f7f7f; opacity: 0.5; stroke: #000000; stroke-linejoin: miter"/>
   </g>
   <g id="patch_63">
    <path d="M 188.433475 385.87476 
L 190.266052 385.87476 
L 190.266052 385.87476 
L 188.433475 385.87476 
z
" clip-path="url(#pa61b49e073)" style="fill: #7f7f7f; opacity: 0.5; stroke: #000000; stroke-linejoin: miter"/>
   </g>
   <g id="patch_64">
    <path d="M 190.266052 385.87476 
L 192.098629 385.87476 
L 192.098629 376.266439 
L 190.266052 376.266439 
z
" clip-path="url(#pa61b49e073)" style="fill: #7f7f7f; opacity: 0.5; stroke: #000000; stroke-linejoin: miter"/>
   </g>
   <g id="patch_65">
    <path d="M 192.098629 385.87476 
L 193.931206 385.87476 
L 193.931206 366.658119 
L 192.098629 366.658119 
z
" clip-path="url(#pa61b49e073)" style="fill: #7f7f7f; opacity: 0.5; stroke: #000000; stroke-linejoin: miter"/>
   </g>
   <g id="patch_66">
    <path d="M 193.931206 385.87476 
L 195.763783 385.87476 
L 195.763783 385.87476 
L 193.931206 385.87476 
z
" clip-path="url(#pa61b49e073)" style="fill: #7f7f7f; opacity: 0.5; stroke: #000000; stroke-linejoin: miter"/>
   </g>
   <g id="patch_67">
    <path d="M 195.763783 385.87476 
L 197.59636 385.87476 
L 197.59636 385.87476 
L 195.763783 385.87476 
z
" clip-path="url(#pa61b49e073)" style="fill: #7f7f7f; opacity: 0.5; stroke: #000000; stroke-linejoin: miter"/>
   </g>
   <g id="patch_68">
    <path d="M 197.59636 385.87476 
L 199.428937 385.87476 
L 199.428937 376.266439 
L 197.59636 376.266439 
z
" clip-path="url(#pa61b49e073)" style="fill: #7f7f7f; opacity: 0.5; stroke: #000000; stroke-linejoin: miter"/>
   </g>
   <g id="patch_69">
    <path d="M 199.428937 385.87476 
L 201.261514 385.87476 
L 201.261514 385.87476 
L 199.428937 385.87476 
z
" clip-path="url(#pa61b49e073)" style="fill: #7f7f7f; opacity: 0.5; stroke: #000000; stroke-linejoin: miter"/>
   </g>
   <g id="patch_70">
    <path d="M 201.261514 385.87476 
L 203.094091 385.87476 
L 203.094091 366.658119 
L 201.261514 366.658119 
z
" clip-path="url(#pa61b49e073)" style="fill: #7f7f7f; opacity: 0.5; stroke: #000000; stroke-linejoin: miter"/>
   </g>
   <g id="patch_71">
    <path d="M 203.094091 385.87476 
L 204.926668 385.87476 
L 204.926668 385.87476 
L 203.094091 385.87476 
z
" clip-path="url(#pa61b49e073)" style="fill: #7f7f7f; opacity: 0.5; stroke: #000000; stroke-linejoin: miter"/>
   </g>
   <g id="patch_72">
    <path d="M 204.926668 385.87476 
L 206.759245 385.87476 
L 206.759245 376.266439 
L 204.926668 376.266439 
z
" clip-path="url(#pa61b49e073)" style="fill: #7f7f7f; opacity: 0.5; stroke: #000000; stroke-linejoin: miter"/>
   </g>
   <g id="patch_73">
    <path d="M 206.759245 385.87476 
L 208.591822 385.87476 
L 208.591822 385.87476 
L 206.759245 385.87476 
z
" clip-path="url(#pa61b49e073)" style="fill: #7f7f7f; opacity: 0.5; stroke: #000000; stroke-linejoin: miter"/>
   </g>
   <g id="patch_74">
    <path d="M 208.591822 385.87476 
L 210.424399 385.87476 
L 210.424399 385.87476 
L 208.591822 385.87476 
z
" clip-path="url(#pa61b49e073)" style="fill: #7f7f7f; opacity: 0.5; stroke: #000000; stroke-linejoin: miter"/>
   </g>
   <g id="patch_75">
    <path d="M 210.424399 385.87476 
L 212.256976 385.87476 
L 212.256976 385.87476 
L 210.424399 385.87476 
z
" clip-path="url(#pa61b49e073)" style="fill: #7f7f7f; opacity: 0.5; stroke: #000000; stroke-linejoin: miter"/>
   </g>
   <g id="patch_76">
    <path d="M 212.256976 385.87476 
L 214.089553 385.87476 
L 214.089553 376.266439 
L 212.256976 376.266439 
z
" clip-path="url(#pa61b49e073)" style="fill: #7f7f7f; opacity: 0.5; stroke: #000000; stroke-linejoin: miter"/>
   </g>
   <g id="patch_77">
    <path d="M 214.089553 385.87476 
L 215.92213 385.87476 
L 215.92213 376.266439 
L 214.089553 376.266439 
z
" clip-path="url(#pa61b49e073)" style="fill: #7f7f7f; opacity: 0.5; stroke: #000000; stroke-linejoin: miter"/>
   </g>
   <g id="patch_78">
    <path d="M 215.92213 385.87476 
L 217.754707 385.87476 
L 217.754707 376.266439 
L 215.92213 376.266439 
z
" clip-path="url(#pa61b49e073)" style="fill: #7f7f7f; opacity: 0.5; stroke: #000000; stroke-linejoin: miter"/>
   </g>
   <g id="patch_79">
    <path d="M 217.754707 385.87476 
L 219.587284 385.87476 
L 219.587284 385.87476 
L 217.754707 385.87476 
z
" clip-path="url(#pa61b49e073)" style="fill: #7f7f7f; opacity: 0.5; stroke: #000000; stroke-linejoin: miter"/>
   </g>
   <g id="patch_80">
    <path d="M 219.587284 385.87476 
L 221.419861 385.87476 
L 221.419861 366.658119 
L 219.587284 366.658119 
z
" clip-path="url(#pa61b49e073)" style="fill: #7f7f7f; opacity: 0.5; stroke: #000000; stroke-linejoin: miter"/>
   </g>
   <g id="patch_81">
    <path d="M 221.419861 385.87476 
L 223.252438 385.87476 
L 223.252438 376.266439 
L 221.419861 376.266439 
z
" clip-path="url(#pa61b49e073)" style="fill: #7f7f7f; opacity: 0.5; stroke: #000000; stroke-linejoin: miter"/>
   </g>
   <g id="patch_82">
    <path d="M 223.252438 385.87476 
L 225.085015 385.87476 
L 225.085015 376.266439 
L 223.252438 376.266439 
z
" clip-path="url(#pa61b49e073)" style="fill: #7f7f7f; opacity: 0.5; stroke: #000000; stroke-linejoin: miter"/>
   </g>
   <g id="patch_83">
    <path d="M 225.085015 385.87476 
L 226.917592 385.87476 
L 226.917592 366.658119 
L 225.085015 366.658119 
z
" clip-path="url(#pa61b49e073)" style="fill: #7f7f7f; opacity: 0.5; stroke: #000000; stroke-linejoin: miter"/>
   </g>
   <g id="patch_84">
    <path d="M 226.917592 385.87476 
L 228.750169 385.87476 
L 228.750169 385.87476 
L 226.917592 385.87476 
z
" clip-path="url(#pa61b49e073)" style="fill: #7f7f7f; opacity: 0.5; stroke: #000000; stroke-linejoin: miter"/>
   </g>
   <g id="patch_85">
    <path d="M 228.750169 385.87476 
L 230.582746 385.87476 
L 230.582746 347.441477 
L 228.750169 347.441477 
z
" clip-path="url(#pa61b49e073)" style="fill: #7f7f7f; opacity: 0.5; stroke: #000000; stroke-linejoin: miter"/>
   </g>
   <g id="patch_86">
    <path d="M 230.582746 385.87476 
L 232.415323 385.87476 
L 232.415323 376.266439 
L 230.582746 376.266439 
z
" clip-path="url(#pa61b49e073)" style="fill: #7f7f7f; opacity: 0.5; stroke: #000000; stroke-linejoin: miter"/>
   </g>
   <g id="patch_87">
    <path d="M 232.415323 385.87476 
L 234.2479 385.87476 
L 234.2479 366.658119 
L 232.415323 366.658119 
z
" clip-path="url(#pa61b49e073)" style="fill: #7f7f7f; opacity: 0.5; stroke: #000000; stroke-linejoin: miter"/>
   </g>
   <g id="patch_88">
    <path d="M 234.2479 385.87476 
L 236.080477 385.87476 
L 236.080477 385.87476 
L 234.2479 385.87476 
z
" clip-path="url(#pa61b49e073)" style="fill: #7f7f7f; opacity: 0.5; stroke: #000000; stroke-linejoin: miter"/>
   </g>
   <g id="patch_89">
    <path d="M 236.080477 385.87476 
L 237.913054 385.87476 
L 237.913054 366.658119 
L 236.080477 366.658119 
z
" clip-path="url(#pa61b49e073)" style="fill: #7f7f7f; opacity: 0.5; stroke: #000000; stroke-linejoin: miter"/>
   </g>
   <g id="patch_90">
    <path d="M 237.913054 385.87476 
L 239.745631 385.87476 
L 239.745631 376.266439 
L 237.913054 376.266439 
z
" clip-path="url(#pa61b49e073)" style="fill: #7f7f7f; opacity: 0.5; stroke: #000000; stroke-linejoin: miter"/>
   </g>
   <g id="patch_91">
    <path d="M 239.745631 385.87476 
L 241.578208 385.87476 
L 241.578208 385.87476 
L 239.745631 385.87476 
z
" clip-path="url(#pa61b49e073)" style="fill: #7f7f7f; opacity: 0.5; stroke: #000000; stroke-linejoin: miter"/>
   </g>
   <g id="patch_92">
    <path d="M 241.578208 385.87476 
L 243.410785 385.87476 
L 243.410785 376.266439 
L 241.578208 376.266439 
z
" clip-path="url(#pa61b49e073)" style="fill: #7f7f7f; opacity: 0.5; stroke: #000000; stroke-linejoin: miter"/>
   </g>
   <g id="patch_93">
    <path d="M 243.410785 385.87476 
L 245.243362 385.87476 
L 245.243362 376.266439 
L 243.410785 376.266439 
z
" clip-path="url(#pa61b49e073)" style="fill: #7f7f7f; opacity: 0.5; stroke: #000000; stroke-linejoin: miter"/>
   </g>
   <g id="patch_94">
    <path d="M 245.243362 385.87476 
L 247.075939 385.87476 
L 247.075939 366.658119 
L 245.243362 366.658119 
z
" clip-path="url(#pa61b49e073)" style="fill: #7f7f7f; opacity: 0.5; stroke: #000000; stroke-linejoin: miter"/>
   </g>
   <g id="patch_95">
    <path d="M 247.075939 385.87476 
L 248.908516 385.87476 
L 248.908516 337.833157 
L 247.075939 337.833157 
z
" clip-path="url(#pa61b49e073)" style="fill: #7f7f7f; opacity: 0.5; stroke: #000000; stroke-linejoin: miter"/>
   </g>
   <g id="patch_96">
    <path d="M 248.908516 385.87476 
L 250.741093 385.87476 
L 250.741093 376.266439 
L 248.908516 376.266439 
z
" clip-path="url(#pa61b49e073)" style="fill: #7f7f7f; opacity: 0.5; stroke: #000000; stroke-linejoin: miter"/>
   </g>
   <g id="patch_97">
    <path d="M 250.741093 385.87476 
L 252.57367 385.87476 
L 252.57367 357.049798 
L 250.741093 357.049798 
z
" clip-path="url(#pa61b49e073)" style="fill: #7f7f7f; opacity: 0.5; stroke: #000000; stroke-linejoin: miter"/>
   </g>
   <g id="patch_98">
    <path d="M 252.57367 385.87476 
L 254.406247 385.87476 
L 254.406247 376.266439 
L 252.57367 376.266439 
z
" clip-path="url(#pa61b49e073)" style="fill: #7f7f7f; opacity: 0.5; stroke: #000000; stroke-linejoin: miter"/>
   </g>
   <g id="patch_99">
    <path d="M 254.406247 385.87476 
L 256.238824 385.87476 
L 256.238824 376.266439 
L 254.406247 376.266439 
z
" clip-path="url(#pa61b49e073)" style="fill: #7f7f7f; opacity: 0.5; stroke: #000000; stroke-linejoin: miter"/>
   </g>
   <g id="patch_100">
    <path d="M 256.238824 385.87476 
L 258.071401 385.87476 
L 258.071401 357.049798 
L 256.238824 357.049798 
z
" clip-path="url(#pa61b49e073)" style="fill: #7f7f7f; opacity: 0.5; stroke: #000000; stroke-linejoin: miter"/>
   </g>
   <g id="patch_101">
    <path d="M 258.071401 385.87476 
L 259.903978 385.87476 
L 259.903978 376.266439 
L 258.071401 376.266439 
z
" clip-path="url(#pa61b49e073)" style="fill: #7f7f7f; opacity: 0.5; stroke: #000000; stroke-linejoin: miter"/>
   </g>
   <g id="patch_102">
    <path d="M 259.903978 385.87476 
L 261.736555 385.87476 
L 261.736555 347.441477 
L 259.903978 347.441477 
z
" clip-path="url(#pa61b49e073)" style="fill: #7f7f7f; opacity: 0.5; stroke: #000000; stroke-linejoin: miter"/>
   </g>
   <g id="patch_103">
    <path d="M 261.736555 385.87476 
L 263.569132 385.87476 
L 263.569132 385.87476 
L 261.736555 385.87476 
z
" clip-path="url(#pa61b49e073)" style="fill: #7f7f7f; opacity: 0.5; stroke: #000000; stroke-linejoin: miter"/>
   </g>
   <g id="patch_104">
    <path d="M 263.569132 385.87476 
L 265.401709 385.87476 
L 265.401709 385.87476 
L 263.569132 385.87476 
z
" clip-path="url(#pa61b49e073)" style="fill: #7f7f7f; opacity: 0.5; stroke: #000000; stroke-linejoin: miter"/>
   </g>
   <g id="patch_105">
    <path d="M 265.401709 385.87476 
L 267.234286 385.87476 
L 267.234286 366.658119 
L 265.401709 366.658119 
z
" clip-path="url(#pa61b49e073)" style="fill: #7f7f7f; opacity: 0.5; stroke: #000000; stroke-linejoin: miter"/>
   </g>
   <g id="patch_106">
    <path d="M 267.234286 385.87476 
L 269.066863 385.87476 
L 269.066863 385.87476 
L 267.234286 385.87476 
z
" clip-path="url(#pa61b49e073)" style="fill: #7f7f7f; opacity: 0.5; stroke: #000000; stroke-linejoin: miter"/>
   </g>
   <g id="patch_107">
    <path d="M 269.066863 385.87476 
L 270.89944 385.87476 
L 270.89944 366.658119 
L 269.066863 366.658119 
z
" clip-path="url(#pa61b49e073)" style="fill: #7f7f7f; opacity: 0.5; stroke: #000000; stroke-linejoin: miter"/>
   </g>
   <g id="patch_108">
    <path d="M 270.89944 385.87476 
L 272.732017 385.87476 
L 272.732017 385.87476 
L 270.89944 385.87476 
z
" clip-path="url(#pa61b49e073)" style="fill: #7f7f7f; opacity: 0.5; stroke: #000000; stroke-linejoin: miter"/>
   </g>
   <g id="patch_109">
    <path d="M 272.732017 385.87476 
L 274.564594 385.87476 
L 274.564594 366.658119 
L 272.732017 366.658119 
z
" clip-path="url(#pa61b49e073)" style="fill: #7f7f7f; opacity: 0.5; stroke: #000000; stroke-linejoin: miter"/>
   </g>
   <g id="patch_110">
    <path d="M 274.564594 385.87476 
L 276.397171 385.87476 
L 276.397171 366.658119 
L 274.564594 366.658119 
z
" clip-path="url(#pa61b49e073)" style="fill: #7f7f7f; opacity: 0.5; stroke: #000000; stroke-linejoin: miter"/>
   </g>
   <g id="patch_111">
    <path d="M 276.397171 385.87476 
L 278.229748 385.87476 
L 278.229748 357.049798 
L 276.397171 357.049798 
z
" clip-path="url(#pa61b49e073)" style="fill: #7f7f7f; opacity: 0.5; stroke: #000000; stroke-linejoin: miter"/>
   </g>
   <g id="patch_112">
    <path d="M 278.229748 385.87476 
L 280.062325 385.87476 
L 280.062325 376.266439 
L 278.229748 376.266439 
z
" clip-path="url(#pa61b49e073)" style="fill: #7f7f7f; opacity: 0.5; stroke: #000000; stroke-linejoin: miter"/>
   </g>
   <g id="patch_113">
    <path d="M 280.062325 385.87476 
L 281.894902 385.87476 
L 281.894902 376.266439 
L 280.062325 376.266439 
z
" clip-path="url(#pa61b49e073)" style="fill: #7f7f7f; opacity: 0.5; stroke: #000000; stroke-linejoin: miter"/>
   </g>
   <g id="patch_114">
    <path d="M 281.894902 385.87476 
L 283.727479 385.87476 
L 283.727479 376.266439 
L 281.894902 376.266439 
z
" clip-path="url(#pa61b49e073)" style="fill: #7f7f7f; opacity: 0.5; stroke: #000000; stroke-linejoin: miter"/>
   </g>
   <g id="patch_115">
    <path d="M 283.727479 385.87476 
L 285.560056 385.87476 
L 285.560056 347.441477 
L 283.727479 347.441477 
z
" clip-path="url(#pa61b49e073)" style="fill: #7f7f7f; opacity: 0.5; stroke: #000000; stroke-linejoin: miter"/>
   </g>
   <g id="patch_116">
    <path d="M 285.560056 385.87476 
L 287.392633 385.87476 
L 287.392633 347.441477 
L 285.560056 347.441477 
z
" clip-path="url(#pa61b49e073)" style="fill: #7f7f7f; opacity: 0.5; stroke: #000000; stroke-linejoin: miter"/>
   </g>
   <g id="patch_117">
    <path d="M 287.392633 385.87476 
L 289.22521 385.87476 
L 289.22521 366.658119 
L 287.392633 366.658119 
z
" clip-path="url(#pa61b49e073)" style="fill: #7f7f7f; opacity: 0.5; stroke: #000000; stroke-linejoin: miter"/>
   </g>
   <g id="patch_118">
    <path d="M 289.22521 385.87476 
L 291.057787 385.87476 
L 291.057787 376.266439 
L 289.22521 376.266439 
z
" clip-path="url(#pa61b49e073)" style="fill: #7f7f7f; opacity: 0.5; stroke: #000000; stroke-linejoin: miter"/>
   </g>
   <g id="patch_119">
    <path d="M 291.057787 385.87476 
L 292.890364 385.87476 
L 292.890364 366.658119 
L 291.057787 366.658119 
z
" clip-path="url(#pa61b49e073)" style="fill: #7f7f7f; opacity: 0.5; stroke: #000000; stroke-linejoin: miter"/>
   </g>
   <g id="patch_120">
    <path d="M 292.890364 385.87476 
L 294.722941 385.87476 
L 294.722941 347.441477 
L 292.890364 347.441477 
z
" clip-path="url(#pa61b49e073)" style="fill: #7f7f7f; opacity: 0.5; stroke: #000000; stroke-linejoin: miter"/>
   </g>
   <g id="patch_121">
    <path d="M 294.722941 385.87476 
L 296.555518 385.87476 
L 296.555518 376.266439 
L 294.722941 376.266439 
z
" clip-path="url(#pa61b49e073)" style="fill: #7f7f7f; opacity: 0.5; stroke: #000000; stroke-linejoin: miter"/>
   </g>
   <g id="patch_122">
    <path d="M 296.555518 385.87476 
L 298.388095 385.87476 
L 298.388095 337.833157 
L 296.555518 337.833157 
z
" clip-path="url(#pa61b49e073)" style="fill: #7f7f7f; opacity: 0.5; stroke: #000000; stroke-linejoin: miter"/>
   </g>
   <g id="patch_123">
    <path d="M 298.388095 385.87476 
L 300.220672 385.87476 
L 300.220672 318.616516 
L 298.388095 318.616516 
z
" clip-path="url(#pa61b49e073)" style="fill: #7f7f7f; opacity: 0.5; stroke: #000000; stroke-linejoin: miter"/>
   </g>
   <g id="patch_124">
    <path d="M 300.220672 385.87476 
L 302.053249 385.87476 
L 302.053249 328.224836 
L 300.220672 328.224836 
z
" clip-path="url(#pa61b49e073)" style="fill: #7f7f7f; opacity: 0.5; stroke: #000000; stroke-linejoin: miter"/>
   </g>
   <g id="patch_125">
    <path d="M 302.053249 385.87476 
L 303.885826 385.87476 
L 303.885826 376.266439 
L 302.053249 376.266439 
z
" clip-path="url(#pa61b49e073)" style="fill: #7f7f7f; opacity: 0.5; stroke: #000000; stroke-linejoin: miter"/>
   </g>
   <g id="patch_126">
    <path d="M 303.885826 385.87476 
L 305.718403 385.87476 
L 305.718403 366.658119 
L 303.885826 366.658119 
z
" clip-path="url(#pa61b49e073)" style="fill: #7f7f7f; opacity: 0.5; stroke: #000000; stroke-linejoin: miter"/>
   </g>
   <g id="patch_127">
    <path d="M 305.718403 385.87476 
L 307.55098 385.87476 
L 307.55098 289.791554 
L 305.718403 289.791554 
z
" clip-path="url(#pa61b49e073)" style="fill: #7f7f7f; opacity: 0.5; stroke: #000000; stroke-linejoin: miter"/>
   </g>
   <g id="patch_128">
    <path d="M 307.55098 385.87476 
L 309.383557 385.87476 
L 309.383557 357.049798 
L 307.55098 357.049798 
z
" clip-path="url(#pa61b49e073)" style="fill: #7f7f7f; opacity: 0.5; stroke: #000000; stroke-linejoin: miter"/>
   </g>
   <g id="patch_129">
    <path d="M 309.383557 385.87476 
L 311.216134 385.87476 
L 311.216134 328.224836 
L 309.383557 328.224836 
z
" clip-path="url(#pa61b49e073)" style="fill: #7f7f7f; opacity: 0.5; stroke: #000000; stroke-linejoin: miter"/>
   </g>
   <g id="patch_130">
    <path d="M 311.216134 385.87476 
L 313.048711 385.87476 
L 313.048711 357.049798 
L 311.216134 357.049798 
z
" clip-path="url(#pa61b49e073)" style="fill: #7f7f7f; opacity: 0.5; stroke: #000000; stroke-linejoin: miter"/>
   </g>
   <g id="patch_131">
    <path d="M 313.048711 385.87476 
L 314.881289 385.87476 
L 314.881289 280.183233 
L 313.048711 280.183233 
z
" clip-path="url(#pa61b49e073)" style="fill: #7f7f7f; opacity: 0.5; stroke: #000000; stroke-linejoin: miter"/>
   </g>
   <g id="patch_132">
    <path d="M 314.881289 385.87476 
L 316.713866 385.87476 
L 316.713866 299.399874 
L 314.881289 299.399874 
z
" clip-path="url(#pa61b49e073)" style="fill: #7f7f7f; opacity: 0.5; stroke: #000000; stroke-linejoin: miter"/>
   </g>
   <g id="patch_133">
    <path d="M 316.713866 385.87476 
L 318.546443 385.87476 
L 318.546443 357.049798 
L 316.713866 357.049798 
z
" clip-path="url(#pa61b49e073)" style="fill: #7f7f7f; opacity: 0.5; stroke: #000000; stroke-linejoin: miter"/>
   </g>
   <g id="patch_134">
    <path d="M 318.546443 385.87476 
L 320.37902 385.87476 
L 320.37902 241.74995 
L 318.546443 241.74995 
z
" clip-path="url(#pa61b49e073)" style="fill: #7f7f7f; opacity: 0.5; stroke: #000000; stroke-linejoin: miter"/>
   </g>
   <g id="patch_135">
    <path d="M 320.37902 385.87476 
L 322.211597 385.87476 
L 322.211597 280.183233 
L 320.37902 280.183233 
z
" clip-path="url(#pa61b49e073)" style="fill: #7f7f7f; opacity: 0.5; stroke: #000000; stroke-linejoin: miter"/>
   </g>
   <g id="patch_136">
    <path d="M 322.211597 385.87476 
L 324.044174 385.87476 
L 324.044174 347.441477 
L 322.211597 347.441477 
z
" clip-path="url(#pa61b49e073)" style="fill: #7f7f7f; opacity: 0.5; stroke: #000000; stroke-linejoin: miter"/>
   </g>
   <g id="patch_137">
    <path d="M 324.044174 385.87476 
L 325.876751 385.87476 
L 325.876751 299.399874 
L 324.044174 299.399874 
z
" clip-path="url(#pa61b49e073)" style="fill: #7f7f7f; opacity: 0.5; stroke: #000000; stroke-linejoin: miter"/>
   </g>
   <g id="patch_138">
    <path d="M 325.876751 385.87476 
L 327.709328 385.87476 
L 327.709328 260.966592 
L 325.876751 260.966592 
z
" clip-path="url(#pa61b49e073)" style="fill: #7f7f7f; opacity: 0.5; stroke: #000000; stroke-linejoin: miter"/>
   </g>
   <g id="patch_139">
    <path d="M 327.709328 385.87476 
L 329.541905 385.87476 
L 329.541905 289.791554 
L 327.709328 289.791554 
z
" clip-path="url(#pa61b49e073)" style="fill: #7f7f7f; opacity: 0.5; stroke: #000000; stroke-linejoin: miter"/>
   </g>
   <g id="patch_140">
    <path d="M 329.541905 385.87476 
L 331.374482 385.87476 
L 331.374482 270.574912 
L 329.541905 270.574912 
z
" clip-path="url(#pa61b49e073)" style="fill: #7f7f7f; opacity: 0.5; stroke: #000000; stroke-linejoin: miter"/>
   </g>
   <g id="patch_141">
    <path d="M 331.374482 385.87476 
L 333.207059 385.87476 
L 333.207059 337.833157 
L 331.374482 337.833157 
z
" clip-path="url(#pa61b49e073)" style="fill: #7f7f7f; opacity: 0.5; stroke: #000000; stroke-linejoin: miter"/>
   </g>
   <g id="patch_142">
    <path d="M 333.207059 385.87476 
L 335.039636 385.87476 
L 335.039636 212.924989 
L 333.207059 212.924989 
z
" clip-path="url(#pa61b49e073)" style="fill: #7f7f7f; opacity: 0.5; stroke: #000000; stroke-linejoin: miter"/>
   </g>
   <g id="patch_143">
    <path d="M 335.039636 385.87476 
L 336.872213 385.87476 
L 336.872213 260.966592 
L 335.039636 260.966592 
z
" clip-path="url(#pa61b49e073)" style="fill: #7f7f7f; opacity: 0.5; stroke: #000000; stroke-linejoin: miter"/>
   </g>
   <g id="patch_144">
    <path d="M 336.872213 385.87476 
L 338.70479 385.87476 
L 338.70479 280.183233 
L 336.872213 280.183233 
z
" clip-path="url(#pa61b49e073)" style="fill: #7f7f7f; opacity: 0.5; stroke: #000000; stroke-linejoin: miter"/>
   </g>
   <g id="patch_145">
    <path d="M 338.70479 385.87476 
L 340.537367 385.87476 
L 340.537367 260.966592 
L 338.70479 260.966592 
z
" clip-path="url(#pa61b49e073)" style="fill: #7f7f7f; opacity: 0.5; stroke: #000000; stroke-linejoin: miter"/>
   </g>
   <g id="patch_146">
    <path d="M 340.537367 385.87476 
L 342.369944 385.87476 
L 342.369944 193.708347 
L 340.537367 193.708347 
z
" clip-path="url(#pa61b49e073)" style="fill: #7f7f7f; opacity: 0.5; stroke: #000000; stroke-linejoin: miter"/>
   </g>
   <g id="patch_147">
    <path d="M 342.369944 385.87476 
L 344.202521 385.87476 
L 344.202521 203.316668 
L 342.369944 203.316668 
z
" clip-path="url(#pa61b49e073)" style="fill: #7f7f7f; opacity: 0.5; stroke: #000000; stroke-linejoin: miter"/>
   </g>
   <g id="patch_148">
    <path d="M 344.202521 385.87476 
L 346.035098 385.87476 
L 346.035098 251.358271 
L 344.202521 251.358271 
z
" clip-path="url(#pa61b49e073)" style="fill: #7f7f7f; opacity: 0.5; stroke: #000000; stroke-linejoin: miter"/>
   </g>
   <g id="patch_149">
    <path d="M 346.035098 385.87476 
L 347.867675 385.87476 
L 347.867675 203.316668 
L 346.035098 203.316668 
z
" clip-path="url(#pa61b49e073)" style="fill: #7f7f7f; opacity: 0.5; stroke: #000000; stroke-linejoin: miter"/>
   </g>
   <g id="patch_150">
    <path d="M 347.867675 385.87476 
L 349.700252 385.87476 
L 349.700252 155.275065 
L 347.867675 155.275065 
z
" clip-path="url(#pa61b49e073)" style="fill: #7f7f7f; opacity: 0.5; stroke: #000000; stroke-linejoin: miter"/>
   </g>
   <g id="patch_151">
    <path d="M 349.700252 385.87476 
L 351.532829 385.87476 
L 351.532829 164.883385 
L 349.700252 164.883385 
z
" clip-path="url(#pa61b49e073)" style="fill: #7f7f7f; opacity: 0.5; stroke: #000000; stroke-linejoin: miter"/>
   </g>
   <g id="patch_152">
    <path d="M 351.532829 385.87476 
L 353.365406 385.87476 
L 353.365406 155.275065 
L 351.532829 155.275065 
z
" clip-path="url(#pa61b49e073)" style="fill: #7f7f7f; opacity: 0.5; stroke: #000000; stroke-linejoin: miter"/>
   </g>
   <g id="patch_153">
    <path d="M 353.365406 385.87476 
L 355.197983 385.87476 
L 355.197983 145.666744 
L 353.365406 145.666744 
z
" clip-path="url(#pa61b49e073)" style="fill: #7f7f7f; opacity: 0.5; stroke: #000000; stroke-linejoin: miter"/>
   </g>
   <g id="patch_154">
    <path d="M 355.197983 385.87476 
L 357.03056 385.87476 
L 357.03056 39.975217 
L 355.197983 39.975217 
z
" clip-path="url(#pa61b49e073)" style="fill: #7f7f7f; opacity: 0.5; stroke: #000000; stroke-linejoin: miter"/>
   </g>
   <g id="patch_155">
    <path d="M 357.03056 385.87476 
L 358.863137 385.87476 
L 358.863137 136.058423 
L 357.03056 136.058423 
z
" clip-path="url(#pa61b49e073)" style="fill: #7f7f7f; opacity: 0.5; stroke: #000000; stroke-linejoin: miter"/>
   </g>
   <g id="patch_156">
    <path d="M 358.863137 385.87476 
L 360.695714 385.87476 
L 360.695714 155.275065 
L 358.863137 155.275065 
z
" clip-path="url(#pa61b49e073)" style="fill: #7f7f7f; opacity: 0.5; stroke: #000000; stroke-linejoin: miter"/>
   </g>
   <g id="patch_157">
    <path d="M 360.695714 385.87476 
L 362.528291 385.87476 
L 362.528291 164.883385 
L 360.695714 164.883385 
z
" clip-path="url(#pa61b49e073)" style="fill: #7f7f7f; opacity: 0.5; stroke: #000000; stroke-linejoin: miter"/>
   </g>
   <g id="patch_158">
    <path d="M 362.528291 385.87476 
L 364.360868 385.87476 
L 364.360868 203.316668 
L 362.528291 203.316668 
z
" clip-path="url(#pa61b49e073)" style="fill: #7f7f7f; opacity: 0.5; stroke: #000000; stroke-linejoin: miter"/>
   </g>
   <g id="patch_159">
    <path d="M 364.360868 385.87476 
L 366.193445 385.87476 
L 366.193445 251.358271 
L 364.360868 251.358271 
z
" clip-path="url(#pa61b49e073)" style="fill: #7f7f7f; opacity: 0.5; stroke: #000000; stroke-linejoin: miter"/>
   </g>
   <g id="patch_160">
    <path d="M 366.193445 385.87476 
L 368.026022 385.87476 
L 368.026022 164.883385 
L 366.193445 164.883385 
z
" clip-path="url(#pa61b49e073)" style="fill: #7f7f7f; opacity: 0.5; stroke: #000000; stroke-linejoin: miter"/>
   </g>
   <g id="patch_161">
    <path d="M 368.026022 385.87476 
L 369.858599 385.87476 
L 369.858599 222.533309 
L 368.026022 222.533309 
z
" clip-path="url(#pa61b49e073)" style="fill: #7f7f7f; opacity: 0.5; stroke: #000000; stroke-linejoin: miter"/>
   </g>
   <g id="patch_162">
    <path d="M 369.858599 385.87476 
L 371.691176 385.87476 
L 371.691176 251.358271 
L 369.858599 251.358271 
z
" clip-path="url(#pa61b49e073)" style="fill: #7f7f7f; opacity: 0.5; stroke: #000000; stroke-linejoin: miter"/>
   </g>
   <g id="patch_163">
    <path d="M 371.691176 385.87476 
L 373.523753 385.87476 
L 373.523753 289.791554 
L 371.691176 289.791554 
z
" clip-path="url(#pa61b49e073)" style="fill: #7f7f7f; opacity: 0.5; stroke: #000000; stroke-linejoin: miter"/>
   </g>
   <g id="patch_164">
    <path d="M 373.523753 385.87476 
L 375.35633 385.87476 
L 375.35633 289.791554 
L 373.523753 289.791554 
z
" clip-path="url(#pa61b49e073)" style="fill: #7f7f7f; opacity: 0.5; stroke: #000000; stroke-linejoin: miter"/>
   </g>
   <g id="patch_165">
    <path d="M 375.35633 385.87476 
L 377.188907 385.87476 
L 377.188907 299.399874 
L 375.35633 299.399874 
z
" clip-path="url(#pa61b49e073)" style="fill: #7f7f7f; opacity: 0.5; stroke: #000000; stroke-linejoin: miter"/>
   </g>
   <g id="patch_166">
    <path d="M 377.188907 385.87476 
L 379.021484 385.87476 
L 379.021484 222.533309 
L 377.188907 222.533309 
z
" clip-path="url(#pa61b49e073)" style="fill: #7f7f7f; opacity: 0.5; stroke: #000000; stroke-linejoin: miter"/>
   </g>
   <g id="patch_167">
    <path d="M 379.021484 385.87476 
L 380.854061 385.87476 
L 380.854061 318.616516 
L 379.021484 318.616516 
z
" clip-path="url(#pa61b49e073)" style="fill: #7f7f7f; opacity: 0.5; stroke: #000000; stroke-linejoin: miter"/>
   </g>
   <g id="patch_168">
    <path d="M 380.854061 385.87476 
L 382.686638 385.87476 
L 382.686638 289.791554 
L 380.854061 289.791554 
z
" clip-path="url(#pa61b49e073)" style="fill: #7f7f7f; opacity: 0.5; stroke: #000000; stroke-linejoin: miter"/>
   </g>
   <g id="patch_169">
    <path d="M 382.686638 385.87476 
L 384.519215 385.87476 
L 384.519215 241.74995 
L 382.686638 241.74995 
z
" clip-path="url(#pa61b49e073)" style="fill: #7f7f7f; opacity: 0.5; stroke: #000000; stroke-linejoin: miter"/>
   </g>
   <g id="patch_170">
    <path d="M 384.519215 385.87476 
L 386.351792 385.87476 
L 386.351792 309.008195 
L 384.519215 309.008195 
z
" clip-path="url(#pa61b49e073)" style="fill: #7f7f7f; opacity: 0.5; stroke: #000000; stroke-linejoin: miter"/>
   </g>
   <g id="patch_171">
    <path d="M 386.351792 385.87476 
L 388.184369 385.87476 
L 388.184369 299.399874 
L 386.351792 299.399874 
z
" clip-path="url(#pa61b49e073)" style="fill: #7f7f7f; opacity: 0.5; stroke: #000000; stroke-linejoin: miter"/>
   </g>
   <g id="patch_172">
    <path d="M 388.184369 385.87476 
L 390.016946 385.87476 
L 390.016946 270.574912 
L 388.184369 270.574912 
z
" clip-path="url(#pa61b49e073)" style="fill: #7f7f7f; opacity: 0.5; stroke: #000000; stroke-linejoin: miter"/>
   </g>
   <g id="patch_173">
    <path d="M 390.016946 385.87476 
L 391.849523 385.87476 
L 391.849523 251.358271 
L 390.016946 251.358271 
z
" clip-path="url(#pa61b49e073)" style="fill: #7f7f7f; opacity: 0.5; stroke: #000000; stroke-linejoin: miter"/>
   </g>
   <g id="patch_174">
    <path d="M 391.849523 385.87476 
L 393.6821 385.87476 
L 393.6821 289.791554 
L 391.849523 289.791554 
z
" clip-path="url(#pa61b49e073)" style="fill: #7f7f7f; opacity: 0.5; stroke: #000000; stroke-linejoin: miter"/>
   </g>
   <g id="patch_175">
    <path d="M 393.6821 385.87476 
L 395.514677 385.87476 
L 395.514677 270.574912 
L 393.6821 270.574912 
z
" clip-path="url(#pa61b49e073)" style="fill: #7f7f7f; opacity: 0.5; stroke: #000000; stroke-linejoin: miter"/>
   </g>
   <g id="patch_176">
    <path d="M 395.514677 385.87476 
L 397.347254 385.87476 
L 397.347254 299.399874 
L 395.514677 299.399874 
z
" clip-path="url(#pa61b49e073)" style="fill: #7f7f7f; opacity: 0.5; stroke: #000000; stroke-linejoin: miter"/>
   </g>
   <g id="patch_177">
    <path d="M 397.347254 385.87476 
L 399.179831 385.87476 
L 399.179831 299.399874 
L 397.347254 299.399874 
z
" clip-path="url(#pa61b49e073)" style="fill: #7f7f7f; opacity: 0.5; stroke: #000000; stroke-linejoin: miter"/>
   </g>
   <g id="patch_178">
    <path d="M 399.179831 385.87476 
L 401.012408 385.87476 
L 401.012408 309.008195 
L 399.179831 309.008195 
z
" clip-path="url(#pa61b49e073)" style="fill: #7f7f7f; opacity: 0.5; stroke: #000000; stroke-linejoin: miter"/>
   </g>
   <g id="patch_179">
    <path d="M 401.012408 385.87476 
L 402.844985 385.87476 
L 402.844985 366.658119 
L 401.012408 366.658119 
z
" clip-path="url(#pa61b49e073)" style="fill: #7f7f7f; opacity: 0.5; stroke: #000000; stroke-linejoin: miter"/>
   </g>
   <g id="patch_180">
    <path d="M 402.844985 385.87476 
L 404.677562 385.87476 
L 404.677562 337.833157 
L 402.844985 337.833157 
z
" clip-path="url(#pa61b49e073)" style="fill: #7f7f7f; opacity: 0.5; stroke: #000000; stroke-linejoin: miter"/>
   </g>
   <g id="patch_181">
    <path d="M 404.677562 385.87476 
L 406.510139 385.87476 
L 406.510139 347.441477 
L 404.677562 347.441477 
z
" clip-path="url(#pa61b49e073)" style="fill: #7f7f7f; opacity: 0.5; stroke: #000000; stroke-linejoin: miter"/>
   </g>
   <g id="patch_182">
    <path d="M 406.510139 385.87476 
L 408.342716 385.87476 
L 408.342716 337.833157 
L 406.510139 337.833157 
z
" clip-path="url(#pa61b49e073)" style="fill: #7f7f7f; opacity: 0.5; stroke: #000000; stroke-linejoin: miter"/>
   </g>
   <g id="patch_183">
    <path d="M 408.342716 385.87476 
L 410.175293 385.87476 
L 410.175293 289.791554 
L 408.342716 289.791554 
z
" clip-path="url(#pa61b49e073)" style="fill: #7f7f7f; opacity: 0.5; stroke: #000000; stroke-linejoin: miter"/>
   </g>
   <g id="patch_184">
    <path d="M 410.175293 385.87476 
L 412.00787 385.87476 
L 412.00787 299.399874 
L 410.175293 299.399874 
z
" clip-path="url(#pa61b49e073)" style="fill: #7f7f7f; opacity: 0.5; stroke: #000000; stroke-linejoin: miter"/>
   </g>
   <g id="patch_185">
    <path d="M 412.00787 385.87476 
L 413.840447 385.87476 
L 413.840447 309.008195 
L 412.00787 309.008195 
z
" clip-path="url(#pa61b49e073)" style="fill: #7f7f7f; opacity: 0.5; stroke: #000000; stroke-linejoin: miter"/>
   </g>
   <g id="patch_186">
    <path d="M 413.840447 385.87476 
L 415.673024 385.87476 
L 415.673024 376.266439 
L 413.840447 376.266439 
z
" clip-path="url(#pa61b49e073)" style="fill: #7f7f7f; opacity: 0.5; stroke: #000000; stroke-linejoin: miter"/>
   </g>
   <g id="patch_187">
    <path d="M 415.673024 385.87476 
L 417.505601 385.87476 
L 417.505601 337.833157 
L 415.673024 337.833157 
z
" clip-path="url(#pa61b49e073)" style="fill: #7f7f7f; opacity: 0.5; stroke: #000000; stroke-linejoin: miter"/>
   </g>
   <g id="patch_188">
    <path d="M 417.505601 385.87476 
L 419.338178 385.87476 
L 419.338178 357.049798 
L 417.505601 357.049798 
z
" clip-path="url(#pa61b49e073)" style="fill: #7f7f7f; opacity: 0.5; stroke: #000000; stroke-linejoin: miter"/>
   </g>
   <g id="patch_189">
    <path d="M 419.338178 385.87476 
L 421.170755 385.87476 
L 421.170755 337.833157 
L 419.338178 337.833157 
z
" clip-path="url(#pa61b49e073)" style="fill: #7f7f7f; opacity: 0.5; stroke: #000000; stroke-linejoin: miter"/>
   </g>
   <g id="patch_190">
    <path d="M 421.170755 385.87476 
L 423.003332 385.87476 
L 423.003332 376.266439 
L 421.170755 376.266439 
z
" clip-path="url(#pa61b49e073)" style="fill: #7f7f7f; opacity: 0.5; stroke: #000000; stroke-linejoin: miter"/>
   </g>
   <g id="patch_191">
    <path d="M 423.003332 385.87476 
L 424.835909 385.87476 
L 424.835909 347.441477 
L 423.003332 347.441477 
z
" clip-path="url(#pa61b49e073)" style="fill: #7f7f7f; opacity: 0.5; stroke: #000000; stroke-linejoin: miter"/>
   </g>
   <g id="patch_192">
    <path d="M 424.835909 385.87476 
L 426.668486 385.87476 
L 426.668486 337.833157 
L 424.835909 337.833157 
z
" clip-path="url(#pa61b49e073)" style="fill: #7f7f7f; opacity: 0.5; stroke: #000000; stroke-linejoin: miter"/>
   </g>
   <g id="patch_193">
    <path d="M 426.668486 385.87476 
L 428.501063 385.87476 
L 428.501063 309.008195 
L 426.668486 309.008195 
z
" clip-path="url(#pa61b49e073)" style="fill: #7f7f7f; opacity: 0.5; stroke: #000000; stroke-linejoin: miter"/>
   </g>
   <g id="patch_194">
    <path d="M 428.501063 385.87476 
L 430.33364 385.87476 
L 430.33364 337.833157 
L 428.501063 337.833157 
z
" clip-path="url(#pa61b49e073)" style="fill: #7f7f7f; opacity: 0.5; stroke: #000000; stroke-linejoin: miter"/>
   </g>
   <g id="patch_195">
    <path d="M 430.33364 385.87476 
L 432.166217 385.87476 
L 432.166217 337.833157 
L 430.33364 337.833157 
z
" clip-path="url(#pa61b49e073)" style="fill: #7f7f7f; opacity: 0.5; stroke: #000000; stroke-linejoin: miter"/>
   </g>
   <g id="patch_196">
    <path d="M 432.166217 385.87476 
L 433.998794 385.87476 
L 433.998794 337.833157 
L 432.166217 337.833157 
z
" clip-path="url(#pa61b49e073)" style="fill: #7f7f7f; opacity: 0.5; stroke: #000000; stroke-linejoin: miter"/>
   </g>
   <g id="patch_197">
    <path d="M 433.998794 385.87476 
L 435.831371 385.87476 
L 435.831371 385.87476 
L 433.998794 385.87476 
z
" clip-path="url(#pa61b49e073)" style="fill: #7f7f7f; opacity: 0.5; stroke: #000000; stroke-linejoin: miter"/>
   </g>
   <g id="patch_198">
    <path d="M 435.831371 385.87476 
L 437.663948 385.87476 
L 437.663948 376.266439 
L 435.831371 376.266439 
z
" clip-path="url(#pa61b49e073)" style="fill: #7f7f7f; opacity: 0.5; stroke: #000000; stroke-linejoin: miter"/>
   </g>
   <g id="patch_199">
    <path d="M 437.663948 385.87476 
L 439.496525 385.87476 
L 439.496525 366.658119 
L 437.663948 366.658119 
z
" clip-path="url(#pa61b49e073)" style="fill: #7f7f7f; opacity: 0.5; stroke: #000000; stroke-linejoin: miter"/>
   </g>
   <g id="patch_200">
    <path d="M 439.496525 385.87476 
L 441.329102 385.87476 
L 441.329102 366.658119 
L 439.496525 366.658119 
z
" clip-path="url(#pa61b49e073)" style="fill: #7f7f7f; opacity: 0.5; stroke: #000000; stroke-linejoin: miter"/>
   </g>
   <g id="patch_201">
    <path d="M 441.329102 385.87476 
L 443.161679 385.87476 
L 443.161679 385.87476 
L 441.329102 385.87476 
z
" clip-path="url(#pa61b49e073)" style="fill: #7f7f7f; opacity: 0.5; stroke: #000000; stroke-linejoin: miter"/>
   </g>
   <g id="patch_202">
    <path d="M 443.161679 385.87476 
L 444.994256 385.87476 
L 444.994256 347.441477 
L 443.161679 347.441477 
z
" clip-path="url(#pa61b49e073)" style="fill: #7f7f7f; opacity: 0.5; stroke: #000000; stroke-linejoin: miter"/>
   </g>
   <g id="patch_203">
    <path d="M 444.994256 385.87476 
L 446.826833 385.87476 
L 446.826833 366.658119 
L 444.994256 366.658119 
z
" clip-path="url(#pa61b49e073)" style="fill: #7f7f7f; opacity: 0.5; stroke: #000000; stroke-linejoin: miter"/>
   </g>
   <g id="patch_204">
    <path d="M 446.826833 385.87476 
L 448.65941 385.87476 
L 448.65941 357.049798 
L 446.826833 357.049798 
z
" clip-path="url(#pa61b49e073)" style="fill: #7f7f7f; opacity: 0.5; stroke: #000000; stroke-linejoin: miter"/>
   </g>
   <g id="patch_205">
    <path d="M 448.65941 385.87476 
L 450.491987 385.87476 
L 450.491987 376.266439 
L 448.65941 376.266439 
z
" clip-path="url(#pa61b49e073)" style="fill: #7f7f7f; opacity: 0.5; stroke: #000000; stroke-linejoin: miter"/>
   </g>
   <g id="patch_206">
    <path d="M 450.491987 385.87476 
L 452.324564 385.87476 
L 452.324564 337.833157 
L 450.491987 337.833157 
z
" clip-path="url(#pa61b49e073)" style="fill: #7f7f7f; opacity: 0.5; stroke: #000000; stroke-linejoin: miter"/>
   </g>
   <g id="patch_207">
    <path d="M 452.324564 385.87476 
L 454.157141 385.87476 
L 454.157141 357.049798 
L 452.324564 357.049798 
z
" clip-path="url(#pa61b49e073)" style="fill: #7f7f7f; opacity: 0.5; stroke: #000000; stroke-linejoin: miter"/>
   </g>
   <g id="patch_208">
    <path d="M 454.157141 385.87476 
L 455.989718 385.87476 
L 455.989718 357.049798 
L 454.157141 357.049798 
z
" clip-path="url(#pa61b49e073)" style="fill: #7f7f7f; opacity: 0.5; stroke: #000000; stroke-linejoin: miter"/>
   </g>
   <g id="patch_209">
    <path d="M 455.989718 385.87476 
L 457.822295 385.87476 
L 457.822295 357.049798 
L 455.989718 357.049798 
z
" clip-path="url(#pa61b49e073)" style="fill: #7f7f7f; opacity: 0.5; stroke: #000000; stroke-linejoin: miter"/>
   </g>
   <g id="patch_210">
    <path d="M 457.822295 385.87476 
L 459.654872 385.87476 
L 459.654872 357.049798 
L 457.822295 357.049798 
z
" clip-path="url(#pa61b49e073)" style="fill: #7f7f7f; opacity: 0.5; stroke: #000000; stroke-linejoin: miter"/>
   </g>
   <g id="patch_211">
    <path d="M 459.654872 385.87476 
L 461.487449 385.87476 
L 461.487449 366.658119 
L 459.654872 366.658119 
z
" clip-path="url(#pa61b49e073)" style="fill: #7f7f7f; opacity: 0.5; stroke: #000000; stroke-linejoin: miter"/>
   </g>
   <g id="patch_212">
    <path d="M 461.487449 385.87476 
L 463.320026 385.87476 
L 463.320026 366.658119 
L 461.487449 366.658119 
z
" clip-path="url(#pa61b49e073)" style="fill: #7f7f7f; opacity: 0.5; stroke: #000000; stroke-linejoin: miter"/>
   </g>
   <g id="patch_213">
    <path d="M 463.320026 385.87476 
L 465.152603 385.87476 
L 465.152603 347.441477 
L 463.320026 347.441477 
z
" clip-path="url(#pa61b49e073)" style="fill: #7f7f7f; opacity: 0.5; stroke: #000000; stroke-linejoin: miter"/>
   </g>
   <g id="patch_214">
    <path d="M 465.152603 385.87476 
L 466.98518 385.87476 
L 466.98518 385.87476 
L 465.152603 385.87476 
z
" clip-path="url(#pa61b49e073)" style="fill: #7f7f7f; opacity: 0.5; stroke: #000000; stroke-linejoin: miter"/>
   </g>
   <g id="patch_215">
    <path d="M 466.98518 385.87476 
L 468.817757 385.87476 
L 468.817757 366.658119 
L 466.98518 366.658119 
z
" clip-path="url(#pa61b49e073)" style="fill: #7f7f7f; opacity: 0.5; stroke: #000000; stroke-linejoin: miter"/>
   </g>
   <g id="patch_216">
    <path d="M 468.817757 385.87476 
L 470.650334 385.87476 
L 470.650334 376.266439 
L 468.817757 376.266439 
z
" clip-path="url(#pa61b49e073)" style="fill: #7f7f7f; opacity: 0.5; stroke: #000000; stroke-linejoin: miter"/>
   </g>
   <g id="patch_217">
    <path d="M 470.650334 385.87476 
L 472.482911 385.87476 
L 472.482911 376.266439 
L 470.650334 376.266439 
z
" clip-path="url(#pa61b49e073)" style="fill: #7f7f7f; opacity: 0.5; stroke: #000000; stroke-linejoin: miter"/>
   </g>
   <g id="patch_218">
    <path d="M 472.482911 385.87476 
L 474.315488 385.87476 
L 474.315488 357.049798 
L 472.482911 357.049798 
z
" clip-path="url(#pa61b49e073)" style="fill: #7f7f7f; opacity: 0.5; stroke: #000000; stroke-linejoin: miter"/>
   </g>
   <g id="patch_219">
    <path d="M 474.315488 385.87476 
L 476.148065 385.87476 
L 476.148065 366.658119 
L 474.315488 366.658119 
z
" clip-path="url(#pa61b49e073)" style="fill: #7f7f7f; opacity: 0.5; stroke: #000000; stroke-linejoin: miter"/>
   </g>
   <g id="patch_220">
    <path d="M 476.148065 385.87476 
L 477.980642 385.87476 
L 477.980642 357.049798 
L 476.148065 357.049798 
z
" clip-path="url(#pa61b49e073)" style="fill: #7f7f7f; opacity: 0.5; stroke: #000000; stroke-linejoin: miter"/>
   </g>
   <g id="patch_221">
    <path d="M 477.980642 385.87476 
L 479.813219 385.87476 
L 479.813219 376.266439 
L 477.980642 376.266439 
z
" clip-path="url(#pa61b49e073)" style="fill: #7f7f7f; opacity: 0.5; stroke: #000000; stroke-linejoin: miter"/>
   </g>
   <g id="patch_222">
    <path d="M 479.813219 385.87476 
L 481.645796 385.87476 
L 481.645796 366.658119 
L 479.813219 366.658119 
z
" clip-path="url(#pa61b49e073)" style="fill: #7f7f7f; opacity: 0.5; stroke: #000000; stroke-linejoin: miter"/>
   </g>
   <g id="patch_223">
    <path d="M 481.645796 385.87476 
L 483.478373 385.87476 
L 483.478373 357.049798 
L 481.645796 357.049798 
z
" clip-path="url(#pa61b49e073)" style="fill: #7f7f7f; opacity: 0.5; stroke: #000000; stroke-linejoin: miter"/>
   </g>
   <g id="patch_224">
    <path d="M 483.478373 385.87476 
L 485.31095 385.87476 
L 485.31095 366.658119 
L 483.478373 366.658119 
z
" clip-path="url(#pa61b49e073)" style="fill: #7f7f7f; opacity: 0.5; stroke: #000000; stroke-linejoin: miter"/>
   </g>
   <g id="patch_225">
    <path d="M 485.31095 385.87476 
L 487.143527 385.87476 
L 487.143527 357.049798 
L 485.31095 357.049798 
z
" clip-path="url(#pa61b49e073)" style="fill: #7f7f7f; opacity: 0.5; stroke: #000000; stroke-linejoin: miter"/>
   </g>
   <g id="patch_226">
    <path d="M 487.143527 385.87476 
L 488.976104 385.87476 
L 488.976104 366.658119 
L 487.143527 366.658119 
z
" clip-path="url(#pa61b49e073)" style="fill: #7f7f7f; opacity: 0.5; stroke: #000000; stroke-linejoin: miter"/>
   </g>
   <g id="patch_227">
    <path d="M 488.976104 385.87476 
L 490.808681 385.87476 
L 490.808681 376.266439 
L 488.976104 376.266439 
z
" clip-path="url(#pa61b49e073)" style="fill: #7f7f7f; opacity: 0.5; stroke: #000000; stroke-linejoin: miter"/>
   </g>
   <g id="patch_228">
    <path d="M 490.808681 385.87476 
L 492.641258 385.87476 
L 492.641258 385.87476 
L 490.808681 385.87476 
z
" clip-path="url(#pa61b49e073)" style="fill: #7f7f7f; opacity: 0.5; stroke: #000000; stroke-linejoin: miter"/>
   </g>
   <g id="patch_229">
    <path d="M 492.641258 385.87476 
L 494.473835 385.87476 
L 494.473835 376.266439 
L 492.641258 376.266439 
z
" clip-path="url(#pa61b49e073)" style="fill: #7f7f7f; opacity: 0.5; stroke: #000000; stroke-linejoin: miter"/>
   </g>
   <g id="patch_230">
    <path d="M 494.473835 385.87476 
L 496.306412 385.87476 
L 496.306412 385.87476 
L 494.473835 385.87476 
z
" clip-path="url(#pa61b49e073)" style="fill: #7f7f7f; opacity: 0.5; stroke: #000000; stroke-linejoin: miter"/>
   </g>
   <g id="patch_231">
    <path d="M 496.306412 385.87476 
L 498.138989 385.87476 
L 498.138989 366.658119 
L 496.306412 366.658119 
z
" clip-path="url(#pa61b49e073)" style="fill: #7f7f7f; opacity: 0.5; stroke: #000000; stroke-linejoin: miter"/>
   </g>
   <g id="patch_232">
    <path d="M 498.138989 385.87476 
L 499.971566 385.87476 
L 499.971566 385.87476 
L 498.138989 385.87476 
z
" clip-path="url(#pa61b49e073)" style="fill: #7f7f7f; opacity: 0.5; stroke: #000000; stroke-linejoin: miter"/>
   </g>
   <g id="patch_233">
    <path d="M 499.971566 385.87476 
L 501.804143 385.87476 
L 501.804143 376.266439 
L 499.971566 376.266439 
z
" clip-path="url(#pa61b49e073)" style="fill: #7f7f7f; opacity: 0.5; stroke: #000000; stroke-linejoin: miter"/>
   </g>
   <g id="patch_234">
    <path d="M 501.804143 385.87476 
L 503.63672 385.87476 
L 503.63672 385.87476 
L 501.804143 385.87476 
z
" clip-path="url(#pa61b49e073)" style="fill: #7f7f7f; opacity: 0.5; stroke: #000000; stroke-linejoin: miter"/>
   </g>
   <g id="patch_235">
    <path d="M 503.63672 385.87476 
L 505.469297 385.87476 
L 505.469297 376.266439 
L 503.63672 376.266439 
z
" clip-path="url(#pa61b49e073)" style="fill: #7f7f7f; opacity: 0.5; stroke: #000000; stroke-linejoin: miter"/>
   </g>
   <g id="patch_236">
    <path d="M 505.469297 385.87476 
L 507.301874 385.87476 
L 507.301874 376.266439 
L 505.469297 376.266439 
z
" clip-path="url(#pa61b49e073)" style="fill: #7f7f7f; opacity: 0.5; stroke: #000000; stroke-linejoin: miter"/>
   </g>
   <g id="patch_237">
    <path d="M 507.301874 385.87476 
L 509.134451 385.87476 
L 509.134451 385.87476 
L 507.301874 385.87476 
z
" clip-path="url(#pa61b49e073)" style="fill: #7f7f7f; opacity: 0.5; stroke: #000000; stroke-linejoin: miter"/>
   </g>
   <g id="patch_238">
    <path d="M 509.134451 385.87476 
L 510.967028 385.87476 
L 510.967028 366.658119 
L 509.134451 366.658119 
z
" clip-path="url(#pa61b49e073)" style="fill: #7f7f7f; opacity: 0.5; stroke: #000000; stroke-linejoin: miter"/>
   </g>
   <g id="patch_239">
    <path d="M 510.967028 385.87476 
L 512.799605 385.87476 
L 512.799605 385.87476 
L 510.967028 385.87476 
z
" clip-path="url(#pa61b49e073)" style="fill: #7f7f7f; opacity: 0.5; stroke: #000000; stroke-linejoin: miter"/>
   </g>
   <g id="patch_240">
    <path d="M 512.799605 385.87476 
L 514.632182 385.87476 
L 514.632182 385.87476 
L 512.799605 385.87476 
z
" clip-path="url(#pa61b49e073)" style="fill: #7f7f7f; opacity: 0.5; stroke: #000000; stroke-linejoin: miter"/>
   </g>
   <g id="patch_241">
    <path d="M 514.632182 385.87476 
L 516.464759 385.87476 
L 516.464759 385.87476 
L 514.632182 385.87476 
z
" clip-path="url(#pa61b49e073)" style="fill: #7f7f7f; opacity: 0.5; stroke: #000000; stroke-linejoin: miter"/>
   </g>
   <g id="patch_242">
    <path d="M 516.464759 385.87476 
L 518.297336 385.87476 
L 518.297336 376.266439 
L 516.464759 376.266439 
z
" clip-path="url(#pa61b49e073)" style="fill: #7f7f7f; opacity: 0.5; stroke: #000000; stroke-linejoin: miter"/>
   </g>
   <g id="patch_243">
    <path d="M 518.297336 385.87476 
L 520.129913 385.87476 
L 520.129913 385.87476 
L 518.297336 385.87476 
z
" clip-path="url(#pa61b49e073)" style="fill: #7f7f7f; opacity: 0.5; stroke: #000000; stroke-linejoin: miter"/>
   </g>
   <g id="patch_244">
    <path d="M 520.129913 385.87476 
L 521.96249 385.87476 
L 521.96249 385.87476 
L 520.129913 385.87476 
z
" clip-path="url(#pa61b49e073)" style="fill: #7f7f7f; opacity: 0.5; stroke: #000000; stroke-linejoin: miter"/>
   </g>
   <g id="patch_245">
    <path d="M 521.96249 385.87476 
L 523.795067 385.87476 
L 523.795067 385.87476 
L 521.96249 385.87476 
z
" clip-path="url(#pa61b49e073)" style="fill: #7f7f7f; opacity: 0.5; stroke: #000000; stroke-linejoin: miter"/>
   </g>
   <g id="patch_246">
    <path d="M 523.795067 385.87476 
L 525.627644 385.87476 
L 525.627644 385.87476 
L 523.795067 385.87476 
z
" clip-path="url(#pa61b49e073)" style="fill: #7f7f7f; opacity: 0.5; stroke: #000000; stroke-linejoin: miter"/>
   </g>
   <g id="patch_247">
    <path d="M 525.627644 385.87476 
L 527.460221 385.87476 
L 527.460221 385.87476 
L 525.627644 385.87476 
z
" clip-path="url(#pa61b49e073)" style="fill: #7f7f7f; opacity: 0.5; stroke: #000000; stroke-linejoin: miter"/>
   </g>
   <g id="patch_248">
    <path d="M 527.460221 385.87476 
L 529.292798 385.87476 
L 529.292798 385.87476 
L 527.460221 385.87476 
z
" clip-path="url(#pa61b49e073)" style="fill: #7f7f7f; opacity: 0.5; stroke: #000000; stroke-linejoin: miter"/>
   </g>
   <g id="patch_249">
    <path d="M 529.292798 385.87476 
L 531.125375 385.87476 
L 531.125375 385.87476 
L 529.292798 385.87476 
z
" clip-path="url(#pa61b49e073)" style="fill: #7f7f7f; opacity: 0.5; stroke: #000000; stroke-linejoin: miter"/>
   </g>
   <g id="patch_250">
    <path d="M 531.125375 385.87476 
L 532.957952 385.87476 
L 532.957952 385.87476 
L 531.125375 385.87476 
z
" clip-path="url(#pa61b49e073)" style="fill: #7f7f7f; opacity: 0.5; stroke: #000000; stroke-linejoin: miter"/>
   </g>
   <g id="patch_251">
    <path d="M 532.957952 385.87476 
L 534.790529 385.87476 
L 534.790529 376.266439 
L 532.957952 376.266439 
z
" clip-path="url(#pa61b49e073)" style="fill: #7f7f7f; opacity: 0.5; stroke: #000000; stroke-linejoin: miter"/>
   </g>
   <g id="patch_252">
    <path d="M 534.790529 385.87476 
L 536.623106 385.87476 
L 536.623106 376.266439 
L 534.790529 376.266439 
z
" clip-path="url(#pa61b49e073)" style="fill: #7f7f7f; opacity: 0.5; stroke: #000000; stroke-linejoin: miter"/>
   </g>
   <g id="patch_253">
    <path d="M 536.623106 385.87476 
L 538.455683 385.87476 
L 538.455683 385.87476 
L 536.623106 385.87476 
z
" clip-path="url(#pa61b49e073)" style="fill: #7f7f7f; opacity: 0.5; stroke: #000000; stroke-linejoin: miter"/>
   </g>
   <g id="patch_254">
    <path d="M 538.455683 385.87476 
L 540.28826 385.87476 
L 540.28826 385.87476 
L 538.455683 385.87476 
z
" clip-path="url(#pa61b49e073)" style="fill: #7f7f7f; opacity: 0.5; stroke: #000000; stroke-linejoin: miter"/>
   </g>
   <g id="patch_255">
    <path d="M 540.28826 385.87476 
L 542.120837 385.87476 
L 542.120837 385.87476 
L 540.28826 385.87476 
z
" clip-path="url(#pa61b49e073)" style="fill: #7f7f7f; opacity: 0.5; stroke: #000000; stroke-linejoin: miter"/>
   </g>
   <g id="patch_256">
    <path d="M 542.120837 385.87476 
L 543.953414 385.87476 
L 543.953414 385.87476 
L 542.120837 385.87476 
z
" clip-path="url(#pa61b49e073)" style="fill: #7f7f7f; opacity: 0.5; stroke: #000000; stroke-linejoin: miter"/>
   </g>
   <g id="patch_257">
    <path d="M 543.953414 385.87476 
L 545.785991 385.87476 
L 545.785991 376.266439 
L 543.953414 376.266439 
z
" clip-path="url(#pa61b49e073)" style="fill: #7f7f7f; opacity: 0.5; stroke: #000000; stroke-linejoin: miter"/>
   </g>
   <g id="patch_258">
    <path d="M 545.785991 385.87476 
L 547.618568 385.87476 
L 547.618568 385.87476 
L 545.785991 385.87476 
z
" clip-path="url(#pa61b49e073)" style="fill: #7f7f7f; opacity: 0.5; stroke: #000000; stroke-linejoin: miter"/>
   </g>
   <g id="patch_259">
    <path d="M 547.618568 385.87476 
L 549.451145 385.87476 
L 549.451145 376.266439 
L 547.618568 376.266439 
z
" clip-path="url(#pa61b49e073)" style="fill: #7f7f7f; opacity: 0.5; stroke: #000000; stroke-linejoin: miter"/>
   </g>
   <g id="matplotlib.axis_1">
    <g id="xtick_1">
     <g id="line2d_1">
      <defs>
       <path id="mc505a54280" d="M 0 0 
L 0 3.5 
" style="stroke: #000000; stroke-width: 0.8"/>
      </defs>
      <g>
       <use xlink:href="#mc505a54280" x="62.301803" y="385.87476" style="stroke: #000000; stroke-width: 0.8"/>
      </g>
     </g>
     <g id="text_1">
      <!-- 0.0 -->
      <g transform="translate(49.579303 405.03226)scale(0.16 -0.16)">
       <defs>
        <path id="DejaVuSans-30" d="M 2034 4250 
Q 1547 4250 1301 3770 
Q 1056 3291 1056 2328 
Q 1056 1369 1301 889 
Q 1547 409 2034 409 
Q 2525 409 2770 889 
Q 3016 1369 3016 2328 
Q 3016 3291 2770 3770 
Q 2525 4250 2034 4250 
z
M 2034 4750 
Q 2819 4750 3233 4129 
Q 3647 3509 3647 2328 
Q 3647 1150 3233 529 
Q 2819 -91 2034 -91 
Q 1250 -91 836 529 
Q 422 1150 422 2328 
Q 422 3509 836 4129 
Q 1250 4750 2034 4750 
z
" transform="scale(0.015625)"/>
        <path id="DejaVuSans-2e" d="M 684 794 
L 1344 794 
L 1344 0 
L 684 0 
L 684 794 
z
" transform="scale(0.015625)"/>
       </defs>
       <use xlink:href="#DejaVuSans-30"/>
       <use xlink:href="#DejaVuSans-2e" x="63.623047"/>
       <use xlink:href="#DejaVuSans-30" x="95.410156"/>
      </g>
     </g>
    </g>
    <g id="xtick_2">
     <g id="line2d_2">
      <g>
       <use xlink:href="#mc505a54280" x="138.659178" y="385.87476" style="stroke: #000000; stroke-width: 0.8"/>
      </g>
     </g>
     <g id="text_2">
      <!-- 0.5 -->
      <g transform="translate(125.936678 405.03226)scale(0.16 -0.16)">
       <defs>
        <path id="DejaVuSans-35" d="M 691 4666 
L 3169 4666 
L 3169 4134 
L 1269 4134 
L 1269 2991 
Q 1406 3038 1543 3061 
Q 1681 3084 1819 3084 
Q 2600 3084 3056 2656 
Q 3513 2228 3513 1497 
Q 3513 744 3044 326 
Q 2575 -91 1722 -91 
Q 1428 -91 1123 -41 
Q 819 9 494 109 
L 494 744 
Q 775 591 1075 516 
Q 1375 441 1709 441 
Q 2250 441 2565 725 
Q 2881 1009 2881 1497 
Q 2881 1984 2565 2268 
Q 2250 2553 1709 2553 
Q 1456 2553 1204 2497 
Q 953 2441 691 2322 
L 691 4666 
z
" transform="scale(0.015625)"/>
       </defs>
       <use xlink:href="#DejaVuSans-30"/>
       <use xlink:href="#DejaVuSans-2e" x="63.623047"/>
       <use xlink:href="#DejaVuSans-35" x="95.410156"/>
      </g>
     </g>
    </g>
    <g id="xtick_3">
     <g id="line2d_3">
      <g>
       <use xlink:href="#mc505a54280" x="215.016553" y="385.87476" style="stroke: #000000; stroke-width: 0.8"/>
      </g>
     </g>
     <g id="text_3">
      <!-- 1.0 -->
      <g transform="translate(202.294053 405.03226)scale(0.16 -0.16)">
       <defs>
        <path id="DejaVuSans-31" d="M 794 531 
L 1825 531 
L 1825 4091 
L 703 3866 
L 703 4441 
L 1819 4666 
L 2450 4666 
L 2450 531 
L 3481 531 
L 3481 0 
L 794 0 
L 794 531 
z
" transform="scale(0.015625)"/>
       </defs>
       <use xlink:href="#DejaVuSans-31"/>
       <use xlink:href="#DejaVuSans-2e" x="63.623047"/>
       <use xlink:href="#DejaVuSans-30" x="95.410156"/>
      </g>
     </g>
    </g>
    <g id="xtick_4">
     <g id="line2d_4">
      <g>
       <use xlink:href="#mc505a54280" x="291.373929" y="385.87476" style="stroke: #000000; stroke-width: 0.8"/>
      </g>
     </g>
     <g id="text_4">
      <!-- 1.5 -->
      <g transform="translate(278.651429 405.03226)scale(0.16 -0.16)">
       <use xlink:href="#DejaVuSans-31"/>
       <use xlink:href="#DejaVuSans-2e" x="63.623047"/>
       <use xlink:href="#DejaVuSans-35" x="95.410156"/>
      </g>
     </g>
    </g>
    <g id="xtick_5">
     <g id="line2d_5">
      <g>
       <use xlink:href="#mc505a54280" x="367.731304" y="385.87476" style="stroke: #000000; stroke-width: 0.8"/>
      </g>
     </g>
     <g id="text_5">
      <!-- 2.0 -->
      <g transform="translate(355.008804 405.03226)scale(0.16 -0.16)">
       <defs>
        <path id="DejaVuSans-32" d="M 1228 531 
L 3431 531 
L 3431 0 
L 469 0 
L 469 531 
Q 828 903 1448 1529 
Q 2069 2156 2228 2338 
Q 2531 2678 2651 2914 
Q 2772 3150 2772 3378 
Q 2772 3750 2511 3984 
Q 2250 4219 1831 4219 
Q 1534 4219 1204 4116 
Q 875 4013 500 3803 
L 500 4441 
Q 881 4594 1212 4672 
Q 1544 4750 1819 4750 
Q 2544 4750 2975 4387 
Q 3406 4025 3406 3419 
Q 3406 3131 3298 2873 
Q 3191 2616 2906 2266 
Q 2828 2175 2409 1742 
Q 1991 1309 1228 531 
z
" transform="scale(0.015625)"/>
       </defs>
       <use xlink:href="#DejaVuSans-32"/>
       <use xlink:href="#DejaVuSans-2e" x="63.623047"/>
       <use xlink:href="#DejaVuSans-30" x="95.410156"/>
      </g>
     </g>
    </g>
    <g id="xtick_6">
     <g id="line2d_6">
      <g>
       <use xlink:href="#mc505a54280" x="444.088679" y="385.87476" style="stroke: #000000; stroke-width: 0.8"/>
      </g>
     </g>
     <g id="text_6">
      <!-- 2.5 -->
      <g transform="translate(431.366179 405.03226)scale(0.16 -0.16)">
       <use xlink:href="#DejaVuSans-32"/>
       <use xlink:href="#DejaVuSans-2e" x="63.623047"/>
       <use xlink:href="#DejaVuSans-35" x="95.410156"/>
      </g>
     </g>
    </g>
    <g id="xtick_7">
     <g id="line2d_7">
      <g>
       <use xlink:href="#mc505a54280" x="520.446055" y="385.87476" style="stroke: #000000; stroke-width: 0.8"/>
      </g>
     </g>
     <g id="text_7">
      <!-- 3.0 -->
      <g transform="translate(507.723555 405.03226)scale(0.16 -0.16)">
       <defs>
        <path id="DejaVuSans-33" d="M 2597 2516 
Q 3050 2419 3304 2112 
Q 3559 1806 3559 1356 
Q 3559 666 3084 287 
Q 2609 -91 1734 -91 
Q 1441 -91 1130 -33 
Q 819 25 488 141 
L 488 750 
Q 750 597 1062 519 
Q 1375 441 1716 441 
Q 2309 441 2620 675 
Q 2931 909 2931 1356 
Q 2931 1769 2642 2001 
Q 2353 2234 1838 2234 
L 1294 2234 
L 1294 2753 
L 1863 2753 
Q 2328 2753 2575 2939 
Q 2822 3125 2822 3475 
Q 2822 3834 2567 4026 
Q 2313 4219 1838 4219 
Q 1578 4219 1281 4162 
Q 984 4106 628 3988 
L 628 4550 
Q 988 4650 1302 4700 
Q 1616 4750 1894 4750 
Q 2613 4750 3031 4423 
Q 3450 4097 3450 3541 
Q 3450 3153 3228 2886 
Q 3006 2619 2597 2516 
z
" transform="scale(0.015625)"/>
       </defs>
       <use xlink:href="#DejaVuSans-33"/>
       <use xlink:href="#DejaVuSans-2e" x="63.623047"/>
       <use xlink:href="#DejaVuSans-30" x="95.410156"/>
      </g>
     </g>
    </g>
    <g id="text_8">
     <!-- $I_{d}/I_{g}$ -->
     <g transform="translate(298.925 424.03976)scale(0.16 -0.16)">
      <defs>
       <path id="DejaVuSans-Oblique-49" d="M 1081 4666 
L 1716 4666 
L 806 0 
L 172 0 
L 1081 4666 
z
" transform="scale(0.015625)"/>
       <path id="DejaVuSans-Oblique-64" d="M 2675 525 
Q 2444 222 2128 65 
Q 1813 -91 1428 -91 
Q 903 -91 598 267 
Q 294 625 294 1247 
Q 294 1766 478 2236 
Q 663 2706 1013 3078 
Q 1244 3325 1534 3454 
Q 1825 3584 2144 3584 
Q 2481 3584 2739 3421 
Q 2997 3259 3138 2956 
L 3513 4863 
L 4091 4863 
L 3144 0 
L 2566 0 
L 2675 525 
z
M 891 1350 
Q 891 897 1095 644 
Q 1300 391 1663 391 
Q 1931 391 2161 520 
Q 2391 650 2566 903 
Q 2750 1166 2856 1509 
Q 2963 1853 2963 2188 
Q 2963 2622 2758 2865 
Q 2553 3109 2194 3109 
Q 1922 3109 1687 2981 
Q 1453 2853 1288 2613 
Q 1106 2353 998 2009 
Q 891 1666 891 1350 
z
" transform="scale(0.015625)"/>
       <path id="DejaVuSans-2f" d="M 1625 4666 
L 2156 4666 
L 531 -594 
L 0 -594 
L 1625 4666 
z
" transform="scale(0.015625)"/>
       <path id="DejaVuSans-Oblique-67" d="M 3816 3500 
L 3219 434 
Q 3047 -456 2561 -893 
Q 2075 -1331 1253 -1331 
Q 950 -1331 690 -1286 
Q 431 -1241 206 -1147 
L 313 -588 
Q 525 -725 762 -790 
Q 1000 -856 1269 -856 
Q 1816 -856 2167 -557 
Q 2519 -259 2631 300 
L 2681 563 
Q 2441 288 2122 144 
Q 1803 0 1434 0 
Q 903 0 598 351 
Q 294 703 294 1319 
Q 294 1803 478 2267 
Q 663 2731 997 3091 
Q 1219 3328 1514 3456 
Q 1809 3584 2131 3584 
Q 2484 3584 2746 3420 
Q 3009 3256 3138 2956 
L 3238 3500 
L 3816 3500 
z
M 2950 2216 
Q 2950 2641 2750 2872 
Q 2550 3103 2181 3103 
Q 1953 3103 1747 3012 
Q 1541 2922 1394 2759 
Q 1156 2491 1023 2127 
Q 891 1763 891 1375 
Q 891 944 1092 712 
Q 1294 481 1672 481 
Q 2219 481 2584 976 
Q 2950 1472 2950 2216 
z
" transform="scale(0.015625)"/>
      </defs>
      <use xlink:href="#DejaVuSans-Oblique-49" transform="translate(0 0.09375)"/>
      <use xlink:href="#DejaVuSans-Oblique-64" transform="translate(29.492188 -16.3125)scale(0.7)"/>
      <use xlink:href="#DejaVuSans-2f" transform="translate(76.660156 0.09375)"/>
      <use xlink:href="#DejaVuSans-Oblique-49" transform="translate(110.351562 0.09375)"/>
      <use xlink:href="#DejaVuSans-Oblique-67" transform="translate(139.84375 -16.3125)scale(0.7)"/>
     </g>
    </g>
   </g>
   <g id="matplotlib.axis_2">
    <g id="ytick_1">
     <g id="line2d_8">
      <defs>
       <path id="m133d389e04" d="M 0 0 
L -3.5 0 
" style="stroke: #000000; stroke-width: 0.8"/>
      </defs>
      <g>
       <use xlink:href="#m133d389e04" x="54.93024" y="385.87476" style="stroke: #000000; stroke-width: 0.8"/>
      </g>
     </g>
     <g id="text_9">
      <!-- 0.0 -->
      <g transform="translate(22.48524 391.95351)scale(0.16 -0.16)">
       <use xlink:href="#DejaVuSans-30"/>
       <use xlink:href="#DejaVuSans-2e" x="63.623047"/>
       <use xlink:href="#DejaVuSans-30" x="95.410156"/>
      </g>
     </g>
    </g>
    <g id="ytick_2">
     <g id="line2d_9">
      <g>
       <use xlink:href="#m133d389e04" x="54.93024" y="326.841238" style="stroke: #000000; stroke-width: 0.8"/>
      </g>
     </g>
     <g id="text_10">
      <!-- 0.5 -->
      <g transform="translate(22.48524 332.919988)scale(0.16 -0.16)">
       <use xlink:href="#DejaVuSans-30"/>
       <use xlink:href="#DejaVuSans-2e" x="63.623047"/>
       <use xlink:href="#DejaVuSans-35" x="95.410156"/>
      </g>
     </g>
    </g>
    <g id="ytick_3">
     <g id="line2d_10">
      <g>
       <use xlink:href="#m133d389e04" x="54.93024" y="267.807716" style="stroke: #000000; stroke-width: 0.8"/>
      </g>
     </g>
     <g id="text_11">
      <!-- 1.0 -->
      <g transform="translate(22.48524 273.886466)scale(0.16 -0.16)">
       <use xlink:href="#DejaVuSans-31"/>
       <use xlink:href="#DejaVuSans-2e" x="63.623047"/>
       <use xlink:href="#DejaVuSans-30" x="95.410156"/>
      </g>
     </g>
    </g>
    <g id="ytick_4">
     <g id="line2d_11">
      <g>
       <use xlink:href="#m133d389e04" x="54.93024" y="208.774194" style="stroke: #000000; stroke-width: 0.8"/>
      </g>
     </g>
     <g id="text_12">
      <!-- 1.5 -->
      <g transform="translate(22.48524 214.852944)scale(0.16 -0.16)">
       <use xlink:href="#DejaVuSans-31"/>
       <use xlink:href="#DejaVuSans-2e" x="63.623047"/>
       <use xlink:href="#DejaVuSans-35" x="95.410156"/>
      </g>
     </g>
    </g>
    <g id="ytick_5">
     <g id="line2d_12">
      <g>
       <use xlink:href="#m133d389e04" x="54.93024" y="149.740672" style="stroke: #000000; stroke-width: 0.8"/>
      </g>
     </g>
     <g id="text_13">
      <!-- 2.0 -->
      <g transform="translate(22.48524 155.819422)scale(0.16 -0.16)">
       <use xlink:href="#DejaVuSans-32"/>
       <use xlink:href="#DejaVuSans-2e" x="63.623047"/>
       <use xlink:href="#DejaVuSans-30" x="95.410156"/>
      </g>
     </g>
    </g>
    <g id="ytick_6">
     <g id="line2d_13">
      <g>
       <use xlink:href="#m133d389e04" x="54.93024" y="90.70715" style="stroke: #000000; stroke-width: 0.8"/>
      </g>
     </g>
     <g id="text_14">
      <!-- 2.5 -->
      <g transform="translate(22.48524 96.7859)scale(0.16 -0.16)">
       <use xlink:href="#DejaVuSans-32"/>
       <use xlink:href="#DejaVuSans-2e" x="63.623047"/>
       <use xlink:href="#DejaVuSans-35" x="95.410156"/>
      </g>
     </g>
    </g>
    <g id="ytick_7">
     <g id="line2d_14">
      <g>
       <use xlink:href="#m133d389e04" x="54.93024" y="31.673628" style="stroke: #000000; stroke-width: 0.8"/>
      </g>
     </g>
     <g id="text_15">
      <!-- 3.0 -->
      <g transform="translate(22.48524 37.752378)scale(0.16 -0.16)">
       <use xlink:href="#DejaVuSans-33"/>
       <use xlink:href="#DejaVuSans-2e" x="63.623047"/>
       <use xlink:href="#DejaVuSans-30" x="95.410156"/>
      </g>
     </g>
    </g>
    <g id="text_16">
     <!-- counts -->
     <g transform="translate(15.15774 231.015)rotate(-90)scale(0.16 -0.16)">
      <defs>
       <path id="DejaVuSans-63" d="M 3122 3366 
L 3122 2828 
Q 2878 2963 2633 3030 
Q 2388 3097 2138 3097 
Q 1578 3097 1268 2742 
Q 959 2388 959 1747 
Q 959 1106 1268 751 
Q 1578 397 2138 397 
Q 2388 397 2633 464 
Q 2878 531 3122 666 
L 3122 134 
Q 2881 22 2623 -34 
Q 2366 -91 2075 -91 
Q 1284 -91 818 406 
Q 353 903 353 1747 
Q 353 2603 823 3093 
Q 1294 3584 2113 3584 
Q 2378 3584 2631 3529 
Q 2884 3475 3122 3366 
z
" transform="scale(0.015625)"/>
       <path id="DejaVuSans-6f" d="M 1959 3097 
Q 1497 3097 1228 2736 
Q 959 2375 959 1747 
Q 959 1119 1226 758 
Q 1494 397 1959 397 
Q 2419 397 2687 759 
Q 2956 1122 2956 1747 
Q 2956 2369 2687 2733 
Q 2419 3097 1959 3097 
z
M 1959 3584 
Q 2709 3584 3137 3096 
Q 3566 2609 3566 1747 
Q 3566 888 3137 398 
Q 2709 -91 1959 -91 
Q 1206 -91 779 398 
Q 353 888 353 1747 
Q 353 2609 779 3096 
Q 1206 3584 1959 3584 
z
" transform="scale(0.015625)"/>
       <path id="DejaVuSans-75" d="M 544 1381 
L 544 3500 
L 1119 3500 
L 1119 1403 
Q 1119 906 1312 657 
Q 1506 409 1894 409 
Q 2359 409 2629 706 
Q 2900 1003 2900 1516 
L 2900 3500 
L 3475 3500 
L 3475 0 
L 2900 0 
L 2900 538 
Q 2691 219 2414 64 
Q 2138 -91 1772 -91 
Q 1169 -91 856 284 
Q 544 659 544 1381 
z
M 1991 3584 
L 1991 3584 
z
" transform="scale(0.015625)"/>
       <path id="DejaVuSans-6e" d="M 3513 2113 
L 3513 0 
L 2938 0 
L 2938 2094 
Q 2938 2591 2744 2837 
Q 2550 3084 2163 3084 
Q 1697 3084 1428 2787 
Q 1159 2491 1159 1978 
L 1159 0 
L 581 0 
L 581 3500 
L 1159 3500 
L 1159 2956 
Q 1366 3272 1645 3428 
Q 1925 3584 2291 3584 
Q 2894 3584 3203 3211 
Q 3513 2838 3513 2113 
z
" transform="scale(0.015625)"/>
       <path id="DejaVuSans-74" d="M 1172 4494 
L 1172 3500 
L 2356 3500 
L 2356 3053 
L 1172 3053 
L 1172 1153 
Q 1172 725 1289 603 
Q 1406 481 1766 481 
L 2356 481 
L 2356 0 
L 1766 0 
Q 1100 0 847 248 
Q 594 497 594 1153 
L 594 3053 
L 172 3053 
L 172 3500 
L 594 3500 
L 594 4494 
L 1172 4494 
z
" transform="scale(0.015625)"/>
       <path id="DejaVuSans-73" d="M 2834 3397 
L 2834 2853 
Q 2591 2978 2328 3040 
Q 2066 3103 1784 3103 
Q 1356 3103 1142 2972 
Q 928 2841 928 2578 
Q 928 2378 1081 2264 
Q 1234 2150 1697 2047 
L 1894 2003 
Q 2506 1872 2764 1633 
Q 3022 1394 3022 966 
Q 3022 478 2636 193 
Q 2250 -91 1575 -91 
Q 1294 -91 989 -36 
Q 684 19 347 128 
L 347 722 
Q 666 556 975 473 
Q 1284 391 1588 391 
Q 1994 391 2212 530 
Q 2431 669 2431 922 
Q 2431 1156 2273 1281 
Q 2116 1406 1581 1522 
L 1381 1569 
Q 847 1681 609 1914 
Q 372 2147 372 2553 
Q 372 3047 722 3315 
Q 1072 3584 1716 3584 
Q 2034 3584 2315 3537 
Q 2597 3491 2834 3397 
z
" transform="scale(0.015625)"/>
      </defs>
      <use xlink:href="#DejaVuSans-63"/>
      <use xlink:href="#DejaVuSans-6f" x="54.980469"/>
      <use xlink:href="#DejaVuSans-75" x="116.162109"/>
      <use xlink:href="#DejaVuSans-6e" x="179.541016"/>
      <use xlink:href="#DejaVuSans-74" x="242.919922"/>
      <use xlink:href="#DejaVuSans-73" x="282.128906"/>
     </g>
    </g>
   </g>
   <g id="patch_260">
    <path d="M 54.93024 385.87476 
L 54.93024 22.68024 
" style="fill: none; stroke: #000000; stroke-width: 0.8; stroke-linejoin: miter; stroke-linecap: square"/>
   </g>
   <g id="patch_261">
    <path d="M 572.99976 385.87476 
L 572.99976 22.68024 
" style="fill: none; stroke: #000000; stroke-width: 0.8; stroke-linejoin: miter; stroke-linecap: square"/>
   </g>
   <g id="patch_262">
    <path d="M 54.93024 385.87476 
L 572.99976 385.87476 
" style="fill: none; stroke: #000000; stroke-width: 0.8; stroke-linejoin: miter; stroke-linecap: square"/>
   </g>
   <g id="patch_263">
    <path d="M 54.93024 22.68024 
L 572.99976 22.68024 
" style="fill: none; stroke: #000000; stroke-width: 0.8; stroke-linejoin: miter; stroke-linecap: square"/>
   </g>
   <g id="text_17">
    <!-- Intensity ratio: $I_{d}/I_{g}$ -->
    <g transform="translate(228.375 16.68024)scale(0.18 -0.18)">
     <defs>
      <path id="DejaVuSans-49" d="M 628 4666 
L 1259 4666 
L 1259 0 
L 628 0 
L 628 4666 
z
" transform="scale(0.015625)"/>
      <path id="DejaVuSans-65" d="M 3597 1894 
L 3597 1613 
L 953 1613 
Q 991 1019 1311 708 
Q 1631 397 2203 397 
Q 2534 397 2845 478 
Q 3156 559 3463 722 
L 3463 178 
Q 3153 47 2828 -22 
Q 2503 -91 2169 -91 
Q 1331 -91 842 396 
Q 353 884 353 1716 
Q 353 2575 817 3079 
Q 1281 3584 2069 3584 
Q 2775 3584 3186 3129 
Q 3597 2675 3597 1894 
z
M 3022 2063 
Q 3016 2534 2758 2815 
Q 2500 3097 2075 3097 
Q 1594 3097 1305 2825 
Q 1016 2553 972 2059 
L 3022 2063 
z
" transform="scale(0.015625)"/>
      <path id="DejaVuSans-69" d="M 603 3500 
L 1178 3500 
L 1178 0 
L 603 0 
L 603 3500 
z
M 603 4863 
L 1178 4863 
L 1178 4134 
L 603 4134 
L 603 4863 
z
" transform="scale(0.015625)"/>
      <path id="DejaVuSans-79" d="M 2059 -325 
Q 1816 -950 1584 -1140 
Q 1353 -1331 966 -1331 
L 506 -1331 
L 506 -850 
L 844 -850 
Q 1081 -850 1212 -737 
Q 1344 -625 1503 -206 
L 1606 56 
L 191 3500 
L 800 3500 
L 1894 763 
L 2988 3500 
L 3597 3500 
L 2059 -325 
z
" transform="scale(0.015625)"/>
      <path id="DejaVuSans-20" transform="scale(0.015625)"/>
      <path id="DejaVuSans-72" d="M 2631 2963 
Q 2534 3019 2420 3045 
Q 2306 3072 2169 3072 
Q 1681 3072 1420 2755 
Q 1159 2438 1159 1844 
L 1159 0 
L 581 0 
L 581 3500 
L 1159 3500 
L 1159 2956 
Q 1341 3275 1631 3429 
Q 1922 3584 2338 3584 
Q 2397 3584 2469 3576 
Q 2541 3569 2628 3553 
L 2631 2963 
z
" transform="scale(0.015625)"/>
      <path id="DejaVuSans-61" d="M 2194 1759 
Q 1497 1759 1228 1600 
Q 959 1441 959 1056 
Q 959 750 1161 570 
Q 1363 391 1709 391 
Q 2188 391 2477 730 
Q 2766 1069 2766 1631 
L 2766 1759 
L 2194 1759 
z
M 3341 1997 
L 3341 0 
L 2766 0 
L 2766 531 
Q 2569 213 2275 61 
Q 1981 -91 1556 -91 
Q 1019 -91 701 211 
Q 384 513 384 1019 
Q 384 1609 779 1909 
Q 1175 2209 1959 2209 
L 2766 2209 
L 2766 2266 
Q 2766 2663 2505 2880 
Q 2244 3097 1772 3097 
Q 1472 3097 1187 3025 
Q 903 2953 641 2809 
L 641 3341 
Q 956 3463 1253 3523 
Q 1550 3584 1831 3584 
Q 2591 3584 2966 3190 
Q 3341 2797 3341 1997 
z
" transform="scale(0.015625)"/>
      <path id="DejaVuSans-3a" d="M 750 794 
L 1409 794 
L 1409 0 
L 750 0 
L 750 794 
z
M 750 3309 
L 1409 3309 
L 1409 2516 
L 750 2516 
L 750 3309 
z
" transform="scale(0.015625)"/>
     </defs>
     <use xlink:href="#DejaVuSans-49" transform="translate(0 0.015625)"/>
     <use xlink:href="#DejaVuSans-6e" transform="translate(29.492188 0.015625)"/>
     <use xlink:href="#DejaVuSans-74" transform="translate(92.871094 0.015625)"/>
     <use xlink:href="#DejaVuSans-65" transform="translate(132.080078 0.015625)"/>
     <use xlink:href="#DejaVuSans-6e" transform="translate(193.603516 0.015625)"/>
     <use xlink:href="#DejaVuSans-73" transform="translate(256.982422 0.015625)"/>
     <use xlink:href="#DejaVuSans-69" transform="translate(309.082031 0.015625)"/>
     <use xlink:href="#DejaVuSans-74" transform="translate(336.865234 0.015625)"/>
     <use xlink:href="#DejaVuSans-79" transform="translate(376.074219 0.015625)"/>
     <use xlink:href="#DejaVuSans-20" transform="translate(435.253906 0.015625)"/>
     <use xlink:href="#DejaVuSans-72" transform="translate(467.041016 0.015625)"/>
     <use xlink:href="#DejaVuSans-61" transform="translate(508.154297 0.015625)"/>
     <use xlink:href="#DejaVuSans-74" transform="translate(569.433594 0.015625)"/>
     <use xlink:href="#DejaVuSans-69" transform="translate(608.642578 0.015625)"/>
     <use xlink:href="#DejaVuSans-6f" transform="translate(636.425781 0.015625)"/>
     <use xlink:href="#DejaVuSans-3a" transform="translate(697.607422 0.015625)"/>
     <use xlink:href="#DejaVuSans-20" transform="translate(731.298828 0.015625)"/>
     <use xlink:href="#DejaVuSans-Oblique-49" transform="translate(763.085938 0.015625)"/>
     <use xlink:href="#DejaVuSans-Oblique-64" transform="translate(792.578125 -16.390625)scale(0.7)"/>
     <use xlink:href="#DejaVuSans-2f" transform="translate(839.746094 0.015625)"/>
     <use xlink:href="#DejaVuSans-Oblique-49" transform="translate(873.4375 0.015625)"/>
     <use xlink:href="#DejaVuSans-Oblique-67" transform="translate(902.929688 -16.390625)scale(0.7)"/>
    </g>
   </g>
   <g id="legend_1">
    <g id="patch_264">
     <path d="M 220.89976 55.86024 
L 563.19976 55.86024 
Q 565.99976 55.86024 565.99976 53.06024 
L 565.99976 32.48024 
Q 565.99976 29.68024 563.19976 29.68024 
L 220.89976 29.68024 
Q 218.09976 29.68024 218.09976 32.48024 
L 218.09976 53.06024 
Q 218.09976 55.86024 220.89976 55.86024 
z
" style="fill: #ffffff; opacity: 0.8; stroke: #cccccc; stroke-linejoin: miter"/>
    </g>
    <g id="patch_265">
     <path d="M 223.69976 45.92024 
L 251.69976 45.92024 
L 251.69976 36.12024 
L 223.69976 36.12024 
z
" style="fill: #7f7f7f; opacity: 0.5; stroke: #000000; stroke-linejoin: miter"/>
    </g>
    <g id="text_18">
     <!-- patterned graphene: $I_{d}/I_{g}$=1.9001$\pm$0.4549 -->
     <g transform="translate(262.89976 45.92024)scale(0.14 -0.14)">
      <defs>
       <path id="DejaVuSans-70" d="M 1159 525 
L 1159 -1331 
L 581 -1331 
L 581 3500 
L 1159 3500 
L 1159 2969 
Q 1341 3281 1617 3432 
Q 1894 3584 2278 3584 
Q 2916 3584 3314 3078 
Q 3713 2572 3713 1747 
Q 3713 922 3314 415 
Q 2916 -91 2278 -91 
Q 1894 -91 1617 61 
Q 1341 213 1159 525 
z
M 3116 1747 
Q 3116 2381 2855 2742 
Q 2594 3103 2138 3103 
Q 1681 3103 1420 2742 
Q 1159 2381 1159 1747 
Q 1159 1113 1420 752 
Q 1681 391 2138 391 
Q 2594 391 2855 752 
Q 3116 1113 3116 1747 
z
" transform="scale(0.015625)"/>
       <path id="DejaVuSans-64" d="M 2906 2969 
L 2906 4863 
L 3481 4863 
L 3481 0 
L 2906 0 
L 2906 525 
Q 2725 213 2448 61 
Q 2172 -91 1784 -91 
Q 1150 -91 751 415 
Q 353 922 353 1747 
Q 353 2572 751 3078 
Q 1150 3584 1784 3584 
Q 2172 3584 2448 3432 
Q 2725 3281 2906 2969 
z
M 947 1747 
Q 947 1113 1208 752 
Q 1469 391 1925 391 
Q 2381 391 2643 752 
Q 2906 1113 2906 1747 
Q 2906 2381 2643 2742 
Q 2381 3103 1925 3103 
Q 1469 3103 1208 2742 
Q 947 2381 947 1747 
z
" transform="scale(0.015625)"/>
       <path id="DejaVuSans-67" d="M 2906 1791 
Q 2906 2416 2648 2759 
Q 2391 3103 1925 3103 
Q 1463 3103 1205 2759 
Q 947 2416 947 1791 
Q 947 1169 1205 825 
Q 1463 481 1925 481 
Q 2391 481 2648 825 
Q 2906 1169 2906 1791 
z
M 3481 434 
Q 3481 -459 3084 -895 
Q 2688 -1331 1869 -1331 
Q 1566 -1331 1297 -1286 
Q 1028 -1241 775 -1147 
L 775 -588 
Q 1028 -725 1275 -790 
Q 1522 -856 1778 -856 
Q 2344 -856 2625 -561 
Q 2906 -266 2906 331 
L 2906 616 
Q 2728 306 2450 153 
Q 2172 0 1784 0 
Q 1141 0 747 490 
Q 353 981 353 1791 
Q 353 2603 747 3093 
Q 1141 3584 1784 3584 
Q 2172 3584 2450 3431 
Q 2728 3278 2906 2969 
L 2906 3500 
L 3481 3500 
L 3481 434 
z
" transform="scale(0.015625)"/>
       <path id="DejaVuSans-68" d="M 3513 2113 
L 3513 0 
L 2938 0 
L 2938 2094 
Q 2938 2591 2744 2837 
Q 2550 3084 2163 3084 
Q 1697 3084 1428 2787 
Q 1159 2491 1159 1978 
L 1159 0 
L 581 0 
L 581 4863 
L 1159 4863 
L 1159 2956 
Q 1366 3272 1645 3428 
Q 1925 3584 2291 3584 
Q 2894 3584 3203 3211 
Q 3513 2838 3513 2113 
z
" transform="scale(0.015625)"/>
       <path id="DejaVuSans-3d" d="M 678 2906 
L 4684 2906 
L 4684 2381 
L 678 2381 
L 678 2906 
z
M 678 1631 
L 4684 1631 
L 4684 1100 
L 678 1100 
L 678 1631 
z
" transform="scale(0.015625)"/>
       <path id="DejaVuSans-39" d="M 703 97 
L 703 672 
Q 941 559 1184 500 
Q 1428 441 1663 441 
Q 2288 441 2617 861 
Q 2947 1281 2994 2138 
Q 2813 1869 2534 1725 
Q 2256 1581 1919 1581 
Q 1219 1581 811 2004 
Q 403 2428 403 3163 
Q 403 3881 828 4315 
Q 1253 4750 1959 4750 
Q 2769 4750 3195 4129 
Q 3622 3509 3622 2328 
Q 3622 1225 3098 567 
Q 2575 -91 1691 -91 
Q 1453 -91 1209 -44 
Q 966 3 703 97 
z
M 1959 2075 
Q 2384 2075 2632 2365 
Q 2881 2656 2881 3163 
Q 2881 3666 2632 3958 
Q 2384 4250 1959 4250 
Q 1534 4250 1286 3958 
Q 1038 3666 1038 3163 
Q 1038 2656 1286 2365 
Q 1534 2075 1959 2075 
z
" transform="scale(0.015625)"/>
       <path id="DejaVuSans-b1" d="M 2944 4013 
L 2944 2803 
L 4684 2803 
L 4684 2272 
L 2944 2272 
L 2944 1063 
L 2419 1063 
L 2419 2272 
L 678 2272 
L 678 2803 
L 2419 2803 
L 2419 4013 
L 2944 4013 
z
M 678 531 
L 4684 531 
L 4684 0 
L 678 0 
L 678 531 
z
" transform="scale(0.015625)"/>
       <path id="DejaVuSans-34" d="M 2419 4116 
L 825 1625 
L 2419 1625 
L 2419 4116 
z
M 2253 4666 
L 3047 4666 
L 3047 1625 
L 3713 1625 
L 3713 1100 
L 3047 1100 
L 3047 0 
L 2419 0 
L 2419 1100 
L 313 1100 
L 313 1709 
L 2253 4666 
z
" transform="scale(0.015625)"/>
      </defs>
      <use xlink:href="#DejaVuSans-70" transform="translate(0 0.015625)"/>
      <use xlink:href="#DejaVuSans-61" transform="translate(63.476562 0.015625)"/>
      <use xlink:href="#DejaVuSans-74" transform="translate(124.755859 0.015625)"/>
      <use xlink:href="#DejaVuSans-74" transform="translate(163.964844 0.015625)"/>
      <use xlink:href="#DejaVuSans-65" transform="translate(203.173828 0.015625)"/>
      <use xlink:href="#DejaVuSans-72" transform="translate(264.697266 0.015625)"/>
      <use xlink:href="#DejaVuSans-6e" transform="translate(305.810547 0.015625)"/>
      <use xlink:href="#DejaVuSans-65" transform="translate(369.189453 0.015625)"/>
      <use xlink:href="#DejaVuSans-64" transform="translate(430.712891 0.015625)"/>
      <use xlink:href="#DejaVuSans-20" transform="translate(494.189453 0.015625)"/>
      <use xlink:href="#DejaVuSans-67" transform="translate(525.976562 0.015625)"/>
      <use xlink:href="#DejaVuSans-72" transform="translate(589.453125 0.015625)"/>
      <use xlink:href="#DejaVuSans-61" transform="translate(630.566406 0.015625)"/>
      <use xlink:href="#DejaVuSans-70" transform="translate(691.845703 0.015625)"/>
      <use xlink:href="#DejaVuSans-68" transform="translate(755.322266 0.015625)"/>
      <use xlink:href="#DejaVuSans-65" transform="translate(818.701172 0.015625)"/>
      <use xlink:href="#DejaVuSans-6e" transform="translate(880.224609 0.015625)"/>
      <use xlink:href="#DejaVuSans-65" transform="translate(943.603516 0.015625)"/>
      <use xlink:href="#DejaVuSans-3a" transform="translate(1005.126953 0.015625)"/>
      <use xlink:href="#DejaVuSans-20" transform="translate(1038.818359 0.015625)"/>
      <use xlink:href="#DejaVuSans-Oblique-49" transform="translate(1070.605469 0.015625)"/>
      <use xlink:href="#DejaVuSans-Oblique-64" transform="translate(1100.097656 -16.390625)scale(0.7)"/>
      <use xlink:href="#DejaVuSans-2f" transform="translate(1147.265625 0.015625)"/>
      <use xlink:href="#DejaVuSans-Oblique-49" transform="translate(1180.957031 0.015625)"/>
      <use xlink:href="#DejaVuSans-Oblique-67" transform="translate(1210.449219 -16.390625)scale(0.7)"/>
      <use xlink:href="#DejaVuSans-3d" transform="translate(1257.617188 0.015625)"/>
      <use xlink:href="#DejaVuSans-31" transform="translate(1341.40625 0.015625)"/>
      <use xlink:href="#DejaVuSans-2e" transform="translate(1405.029297 0.015625)"/>
      <use xlink:href="#DejaVuSans-39" transform="translate(1436.816406 0.015625)"/>
      <use xlink:href="#DejaVuSans-30" transform="translate(1500.439453 0.015625)"/>
      <use xlink:href="#DejaVuSans-30" transform="translate(1564.0625 0.015625)"/>
      <use xlink:href="#DejaVuSans-31" transform="translate(1627.685547 0.015625)"/>
      <use xlink:href="#DejaVuSans-b1" transform="translate(1691.308594 0.015625)"/>
      <use xlink:href="#DejaVuSans-30" transform="translate(1775.097656 0.015625)"/>
      <use xlink:href="#DejaVuSans-2e" transform="translate(1838.720703 0.015625)"/>
      <use xlink:href="#DejaVuSans-34" transform="translate(1870.507812 0.015625)"/>
      <use xlink:href="#DejaVuSans-35" transform="translate(1934.130859 0.015625)"/>
      <use xlink:href="#DejaVuSans-34" transform="translate(1997.753906 0.015625)"/>
      <use xlink:href="#DejaVuSans-39" transform="translate(2061.376953 0.015625)"/>
     </g>
    </g>
   </g>
  </g>
 </g>
 <defs>
  <clipPath id="pa61b49e073">
   <rect x="54.93024" y="22.68024" width="518.06952" height="363.19452"/>
  </clipPath>
 </defs>
</svg>
