<?xml version="1.0" encoding="utf-8" standalone="no"?>
<!DOCTYPE svg PUBLIC "-//W3C//DTD SVG 1.1//EN"
  "http://www.w3.org/Graphics/SVG/1.1/DTD/svg11.dtd">
<svg xmlns:xlink="http://www.w3.org/1999/xlink" width="1080pt" height="540pt" viewBox="0 0 1080 540" xmlns="http://www.w3.org/2000/svg" version="1.1">
 <metadata>
  <rdf:RDF xmlns:dc="http://purl.org/dc/elements/1.1/" xmlns:cc="http://creativecommons.org/ns#" xmlns:rdf="http://www.w3.org/1999/02/22-rdf-syntax-ns#">
   <cc:Work>
    <dc:type rdf:resource="http://purl.org/dc/dcmitype/StillImage"/>
    <dc:date>2023-05-10T12:36:01.612538</dc:date>
    <dc:format>image/svg+xml</dc:format>
    <dc:creator>
     <cc:Agent>
      <dc:title>Matplotlib v3.5.2, https://matplotlib.org/</dc:title>
     </cc:Agent>
    </dc:creator>
   </cc:Work>
  </rdf:RDF>
 </metadata>
 <defs>
  <style type="text/css">*{stroke-linejoin: round; stroke-linecap: butt}</style>
 </defs>
 <g id="figure_1">
  <g id="patch_1">
   <path d="M 0 540 
L 1080 540 
L 1080 0 
L 0 0 
z
" style="fill: #ffffff"/>
  </g>
  <g id="axes_1">
   <g id="patch_2">
    <path d="M 135 480.6 
L 972 480.6 
L 972 64.8 
L 135 64.8 
z
" style="fill: #ffffff"/>
   </g>
   <g id="matplotlib.axis_1">
    <g id="xtick_1">
     <g id="line2d_1">
      <defs>
       <path id="m95326746fa" d="M 0 0 
L 0 3.5 
" style="stroke: #000000; stroke-width: 0.8"/>
      </defs>
      <g>
       <use xlink:href="#m95326746fa" x="162.622042" y="480.6" style="stroke: #000000; stroke-width: 0.8"/>
      </g>
     </g>
     <g id="text_1">
      <!-- 0 -->
      <g transform="translate(157.532042 499.7575)scale(0.16 -0.16)">
       <defs>
        <path id="DejaVuSans-30" d="M 2034 4250 
Q 1547 4250 1301 3770 
Q 1056 3291 1056 2328 
Q 1056 1369 1301 889 
Q 1547 409 2034 409 
Q 2525 409 2770 889 
Q 3016 1369 3016 2328 
Q 3016 3291 2770 3770 
Q 2525 4250 2034 4250 
z
M 2034 4750 
Q 2819 4750 3233 4129 
Q 3647 3509 3647 2328 
Q 3647 1150 3233 529 
Q 2819 -91 2034 -91 
Q 1250 -91 836 529 
Q 422 1150 422 2328 
Q 422 3509 836 4129 
Q 1250 4750 2034 4750 
z
" transform="scale(0.015625)"/>
       </defs>
       <use xlink:href="#DejaVuSans-30"/>
      </g>
     </g>
    </g>
    <g id="xtick_2">
     <g id="line2d_2">
      <g>
       <use xlink:href="#m95326746fa" x="266.856164" y="480.6" style="stroke: #000000; stroke-width: 0.8"/>
      </g>
     </g>
     <g id="text_2">
      <!-- 500 -->
      <g transform="translate(251.586164 499.7575)scale(0.16 -0.16)">
       <defs>
        <path id="DejaVuSans-35" d="M 691 4666 
L 3169 4666 
L 3169 4134 
L 1269 4134 
L 1269 2991 
Q 1406 3038 1543 3061 
Q 1681 3084 1819 3084 
Q 2600 3084 3056 2656 
Q 3513 2228 3513 1497 
Q 3513 744 3044 326 
Q 2575 -91 1722 -91 
Q 1428 -91 1123 -41 
Q 819 9 494 109 
L 494 744 
Q 775 591 1075 516 
Q 1375 441 1709 441 
Q 2250 441 2565 725 
Q 2881 1009 2881 1497 
Q 2881 1984 2565 2268 
Q 2250 2553 1709 2553 
Q 1456 2553 1204 2497 
Q 953 2441 691 2322 
L 691 4666 
z
" transform="scale(0.015625)"/>
       </defs>
       <use xlink:href="#DejaVuSans-35"/>
       <use xlink:href="#DejaVuSans-30" x="63.623047"/>
       <use xlink:href="#DejaVuSans-30" x="127.246094"/>
      </g>
     </g>
    </g>
    <g id="xtick_3">
     <g id="line2d_3">
      <g>
       <use xlink:href="#m95326746fa" x="371.090286" y="480.6" style="stroke: #000000; stroke-width: 0.8"/>
      </g>
     </g>
     <g id="text_3">
      <!-- 1000 -->
      <g transform="translate(350.730286 499.7575)scale(0.16 -0.16)">
       <defs>
        <path id="DejaVuSans-31" d="M 794 531 
L 1825 531 
L 1825 4091 
L 703 3866 
L 703 4441 
L 1819 4666 
L 2450 4666 
L 2450 531 
L 3481 531 
L 3481 0 
L 794 0 
L 794 531 
z
" transform="scale(0.015625)"/>
       </defs>
       <use xlink:href="#DejaVuSans-31"/>
       <use xlink:href="#DejaVuSans-30" x="63.623047"/>
       <use xlink:href="#DejaVuSans-30" x="127.246094"/>
       <use xlink:href="#DejaVuSans-30" x="190.869141"/>
      </g>
     </g>
    </g>
    <g id="xtick_4">
     <g id="line2d_4">
      <g>
       <use xlink:href="#m95326746fa" x="475.324408" y="480.6" style="stroke: #000000; stroke-width: 0.8"/>
      </g>
     </g>
     <g id="text_4">
      <!-- 1500 -->
      <g transform="translate(454.964408 499.7575)scale(0.16 -0.16)">
       <use xlink:href="#DejaVuSans-31"/>
       <use xlink:href="#DejaVuSans-35" x="63.623047"/>
       <use xlink:href="#DejaVuSans-30" x="127.246094"/>
       <use xlink:href="#DejaVuSans-30" x="190.869141"/>
      </g>
     </g>
    </g>
    <g id="xtick_5">
     <g id="line2d_5">
      <g>
       <use xlink:href="#m95326746fa" x="579.558531" y="480.6" style="stroke: #000000; stroke-width: 0.8"/>
      </g>
     </g>
     <g id="text_5">
      <!-- 2000 -->
      <g transform="translate(559.198531 499.7575)scale(0.16 -0.16)">
       <defs>
        <path id="DejaVuSans-32" d="M 1228 531 
L 3431 531 
L 3431 0 
L 469 0 
L 469 531 
Q 828 903 1448 1529 
Q 2069 2156 2228 2338 
Q 2531 2678 2651 2914 
Q 2772 3150 2772 3378 
Q 2772 3750 2511 3984 
Q 2250 4219 1831 4219 
Q 1534 4219 1204 4116 
Q 875 4013 500 3803 
L 500 4441 
Q 881 4594 1212 4672 
Q 1544 4750 1819 4750 
Q 2544 4750 2975 4387 
Q 3406 4025 3406 3419 
Q 3406 3131 3298 2873 
Q 3191 2616 2906 2266 
Q 2828 2175 2409 1742 
Q 1991 1309 1228 531 
z
" transform="scale(0.015625)"/>
       </defs>
       <use xlink:href="#DejaVuSans-32"/>
       <use xlink:href="#DejaVuSans-30" x="63.623047"/>
       <use xlink:href="#DejaVuSans-30" x="127.246094"/>
       <use xlink:href="#DejaVuSans-30" x="190.869141"/>
      </g>
     </g>
    </g>
    <g id="xtick_6">
     <g id="line2d_6">
      <g>
       <use xlink:href="#m95326746fa" x="683.792653" y="480.6" style="stroke: #000000; stroke-width: 0.8"/>
      </g>
     </g>
     <g id="text_6">
      <!-- 2500 -->
      <g transform="translate(663.432653 499.7575)scale(0.16 -0.16)">
       <use xlink:href="#DejaVuSans-32"/>
       <use xlink:href="#DejaVuSans-35" x="63.623047"/>
       <use xlink:href="#DejaVuSans-30" x="127.246094"/>
       <use xlink:href="#DejaVuSans-30" x="190.869141"/>
      </g>
     </g>
    </g>
    <g id="xtick_7">
     <g id="line2d_7">
      <g>
       <use xlink:href="#m95326746fa" x="788.026775" y="480.6" style="stroke: #000000; stroke-width: 0.8"/>
      </g>
     </g>
     <g id="text_7">
      <!-- 3000 -->
      <g transform="translate(767.666775 499.7575)scale(0.16 -0.16)">
       <defs>
        <path id="DejaVuSans-33" d="M 2597 2516 
Q 3050 2419 3304 2112 
Q 3559 1806 3559 1356 
Q 3559 666 3084 287 
Q 2609 -91 1734 -91 
Q 1441 -91 1130 -33 
Q 819 25 488 141 
L 488 750 
Q 750 597 1062 519 
Q 1375 441 1716 441 
Q 2309 441 2620 675 
Q 2931 909 2931 1356 
Q 2931 1769 2642 2001 
Q 2353 2234 1838 2234 
L 1294 2234 
L 1294 2753 
L 1863 2753 
Q 2328 2753 2575 2939 
Q 2822 3125 2822 3475 
Q 2822 3834 2567 4026 
Q 2313 4219 1838 4219 
Q 1578 4219 1281 4162 
Q 984 4106 628 3988 
L 628 4550 
Q 988 4650 1302 4700 
Q 1616 4750 1894 4750 
Q 2613 4750 3031 4423 
Q 3450 4097 3450 3541 
Q 3450 3153 3228 2886 
Q 3006 2619 2597 2516 
z
" transform="scale(0.015625)"/>
       </defs>
       <use xlink:href="#DejaVuSans-33"/>
       <use xlink:href="#DejaVuSans-30" x="63.623047"/>
       <use xlink:href="#DejaVuSans-30" x="127.246094"/>
       <use xlink:href="#DejaVuSans-30" x="190.869141"/>
      </g>
     </g>
    </g>
    <g id="xtick_8">
     <g id="line2d_8">
      <g>
       <use xlink:href="#m95326746fa" x="892.260897" y="480.6" style="stroke: #000000; stroke-width: 0.8"/>
      </g>
     </g>
     <g id="text_8">
      <!-- 3500 -->
      <g transform="translate(871.900897 499.7575)scale(0.16 -0.16)">
       <use xlink:href="#DejaVuSans-33"/>
       <use xlink:href="#DejaVuSans-35" x="63.623047"/>
       <use xlink:href="#DejaVuSans-30" x="127.246094"/>
       <use xlink:href="#DejaVuSans-30" x="190.869141"/>
      </g>
     </g>
    </g>
    <g id="text_9">
     <!-- Raman shift / $cm^{-1}$ -->
     <g transform="translate(476.46 519.7575)scale(0.16 -0.16)">
      <defs>
       <path id="DejaVuSans-52" d="M 2841 2188 
Q 3044 2119 3236 1894 
Q 3428 1669 3622 1275 
L 4263 0 
L 3584 0 
L 2988 1197 
Q 2756 1666 2539 1819 
Q 2322 1972 1947 1972 
L 1259 1972 
L 1259 0 
L 628 0 
L 628 4666 
L 2053 4666 
Q 2853 4666 3247 4331 
Q 3641 3997 3641 3322 
Q 3641 2881 3436 2590 
Q 3231 2300 2841 2188 
z
M 1259 4147 
L 1259 2491 
L 2053 2491 
Q 2509 2491 2742 2702 
Q 2975 2913 2975 3322 
Q 2975 3731 2742 3939 
Q 2509 4147 2053 4147 
L 1259 4147 
z
" transform="scale(0.015625)"/>
       <path id="DejaVuSans-61" d="M 2194 1759 
Q 1497 1759 1228 1600 
Q 959 1441 959 1056 
Q 959 750 1161 570 
Q 1363 391 1709 391 
Q 2188 391 2477 730 
Q 2766 1069 2766 1631 
L 2766 1759 
L 2194 1759 
z
M 3341 1997 
L 3341 0 
L 2766 0 
L 2766 531 
Q 2569 213 2275 61 
Q 1981 -91 1556 -91 
Q 1019 -91 701 211 
Q 384 513 384 1019 
Q 384 1609 779 1909 
Q 1175 2209 1959 2209 
L 2766 2209 
L 2766 2266 
Q 2766 2663 2505 2880 
Q 2244 3097 1772 3097 
Q 1472 3097 1187 3025 
Q 903 2953 641 2809 
L 641 3341 
Q 956 3463 1253 3523 
Q 1550 3584 1831 3584 
Q 2591 3584 2966 3190 
Q 3341 2797 3341 1997 
z
" transform="scale(0.015625)"/>
       <path id="DejaVuSans-6d" d="M 3328 2828 
Q 3544 3216 3844 3400 
Q 4144 3584 4550 3584 
Q 5097 3584 5394 3201 
Q 5691 2819 5691 2113 
L 5691 0 
L 5113 0 
L 5113 2094 
Q 5113 2597 4934 2840 
Q 4756 3084 4391 3084 
Q 3944 3084 3684 2787 
Q 3425 2491 3425 1978 
L 3425 0 
L 2847 0 
L 2847 2094 
Q 2847 2600 2669 2842 
Q 2491 3084 2119 3084 
Q 1678 3084 1418 2786 
Q 1159 2488 1159 1978 
L 1159 0 
L 581 0 
L 581 3500 
L 1159 3500 
L 1159 2956 
Q 1356 3278 1631 3431 
Q 1906 3584 2284 3584 
Q 2666 3584 2933 3390 
Q 3200 3197 3328 2828 
z
" transform="scale(0.015625)"/>
       <path id="DejaVuSans-6e" d="M 3513 2113 
L 3513 0 
L 2938 0 
L 2938 2094 
Q 2938 2591 2744 2837 
Q 2550 3084 2163 3084 
Q 1697 3084 1428 2787 
Q 1159 2491 1159 1978 
L 1159 0 
L 581 0 
L 581 3500 
L 1159 3500 
L 1159 2956 
Q 1366 3272 1645 3428 
Q 1925 3584 2291 3584 
Q 2894 3584 3203 3211 
Q 3513 2838 3513 2113 
z
" transform="scale(0.015625)"/>
       <path id="DejaVuSans-20" transform="scale(0.015625)"/>
       <path id="DejaVuSans-73" d="M 2834 3397 
L 2834 2853 
Q 2591 2978 2328 3040 
Q 2066 3103 1784 3103 
Q 1356 3103 1142 2972 
Q 928 2841 928 2578 
Q 928 2378 1081 2264 
Q 1234 2150 1697 2047 
L 1894 2003 
Q 2506 1872 2764 1633 
Q 3022 1394 3022 966 
Q 3022 478 2636 193 
Q 2250 -91 1575 -91 
Q 1294 -91 989 -36 
Q 684 19 347 128 
L 347 722 
Q 666 556 975 473 
Q 1284 391 1588 391 
Q 1994 391 2212 530 
Q 2431 669 2431 922 
Q 2431 1156 2273 1281 
Q 2116 1406 1581 1522 
L 1381 1569 
Q 847 1681 609 1914 
Q 372 2147 372 2553 
Q 372 3047 722 3315 
Q 1072 3584 1716 3584 
Q 2034 3584 2315 3537 
Q 2597 3491 2834 3397 
z
" transform="scale(0.015625)"/>
       <path id="DejaVuSans-68" d="M 3513 2113 
L 3513 0 
L 2938 0 
L 2938 2094 
Q 2938 2591 2744 2837 
Q 2550 3084 2163 3084 
Q 1697 3084 1428 2787 
Q 1159 2491 1159 1978 
L 1159 0 
L 581 0 
L 581 4863 
L 1159 4863 
L 1159 2956 
Q 1366 3272 1645 3428 
Q 1925 3584 2291 3584 
Q 2894 3584 3203 3211 
Q 3513 2838 3513 2113 
z
" transform="scale(0.015625)"/>
       <path id="DejaVuSans-69" d="M 603 3500 
L 1178 3500 
L 1178 0 
L 603 0 
L 603 3500 
z
M 603 4863 
L 1178 4863 
L 1178 4134 
L 603 4134 
L 603 4863 
z
" transform="scale(0.015625)"/>
       <path id="DejaVuSans-66" d="M 2375 4863 
L 2375 4384 
L 1825 4384 
Q 1516 4384 1395 4259 
Q 1275 4134 1275 3809 
L 1275 3500 
L 2222 3500 
L 2222 3053 
L 1275 3053 
L 1275 0 
L 697 0 
L 697 3053 
L 147 3053 
L 147 3500 
L 697 3500 
L 697 3744 
Q 697 4328 969 4595 
Q 1241 4863 1831 4863 
L 2375 4863 
z
" transform="scale(0.015625)"/>
       <path id="DejaVuSans-74" d="M 1172 4494 
L 1172 3500 
L 2356 3500 
L 2356 3053 
L 1172 3053 
L 1172 1153 
Q 1172 725 1289 603 
Q 1406 481 1766 481 
L 2356 481 
L 2356 0 
L 1766 0 
Q 1100 0 847 248 
Q 594 497 594 1153 
L 594 3053 
L 172 3053 
L 172 3500 
L 594 3500 
L 594 4494 
L 1172 4494 
z
" transform="scale(0.015625)"/>
       <path id="DejaVuSans-2f" d="M 1625 4666 
L 2156 4666 
L 531 -594 
L 0 -594 
L 1625 4666 
z
" transform="scale(0.015625)"/>
       <path id="DejaVuSans-Oblique-63" d="M 3431 3366 
L 3316 2797 
Q 3109 2947 2876 3022 
Q 2644 3097 2394 3097 
Q 2119 3097 1870 3000 
Q 1622 2903 1453 2725 
Q 1184 2453 1037 2087 
Q 891 1722 891 1331 
Q 891 859 1127 628 
Q 1363 397 1844 397 
Q 2081 397 2348 469 
Q 2616 541 2906 684 
L 2797 116 
Q 2547 13 2283 -39 
Q 2019 -91 1741 -91 
Q 1044 -91 669 257 
Q 294 606 294 1253 
Q 294 1797 489 2255 
Q 684 2713 1069 3078 
Q 1331 3328 1684 3456 
Q 2038 3584 2456 3584 
Q 2700 3584 2940 3529 
Q 3181 3475 3431 3366 
z
" transform="scale(0.015625)"/>
       <path id="DejaVuSans-Oblique-6d" d="M 5747 2113 
L 5338 0 
L 4763 0 
L 5166 2094 
Q 5191 2228 5203 2325 
Q 5216 2422 5216 2491 
Q 5216 2772 5059 2928 
Q 4903 3084 4622 3084 
Q 4203 3084 3875 2770 
Q 3547 2456 3450 1953 
L 3066 0 
L 2491 0 
L 2900 2094 
Q 2925 2209 2937 2307 
Q 2950 2406 2950 2484 
Q 2950 2769 2794 2926 
Q 2638 3084 2363 3084 
Q 1938 3084 1609 2770 
Q 1281 2456 1184 1953 
L 800 0 
L 225 0 
L 909 3500 
L 1484 3500 
L 1375 2956 
Q 1609 3263 1923 3423 
Q 2238 3584 2597 3584 
Q 2978 3584 3223 3384 
Q 3469 3184 3519 2828 
Q 3781 3197 4126 3390 
Q 4472 3584 4856 3584 
Q 5306 3584 5551 3325 
Q 5797 3066 5797 2591 
Q 5797 2488 5784 2364 
Q 5772 2241 5747 2113 
z
" transform="scale(0.015625)"/>
       <path id="DejaVuSans-2212" d="M 678 2272 
L 4684 2272 
L 4684 1741 
L 678 1741 
L 678 2272 
z
" transform="scale(0.015625)"/>
      </defs>
      <use xlink:href="#DejaVuSans-52" transform="translate(0 0.684375)"/>
      <use xlink:href="#DejaVuSans-61" transform="translate(69.482422 0.684375)"/>
      <use xlink:href="#DejaVuSans-6d" transform="translate(130.761719 0.684375)"/>
      <use xlink:href="#DejaVuSans-61" transform="translate(228.173828 0.684375)"/>
      <use xlink:href="#DejaVuSans-6e" transform="translate(289.453125 0.684375)"/>
      <use xlink:href="#DejaVuSans-20" transform="translate(352.832031 0.684375)"/>
      <use xlink:href="#DejaVuSans-73" transform="translate(384.619141 0.684375)"/>
      <use xlink:href="#DejaVuSans-68" transform="translate(436.71875 0.684375)"/>
      <use xlink:href="#DejaVuSans-69" transform="translate(500.097656 0.684375)"/>
      <use xlink:href="#DejaVuSans-66" transform="translate(527.880859 0.684375)"/>
      <use xlink:href="#DejaVuSans-74" transform="translate(563.085938 0.684375)"/>
      <use xlink:href="#DejaVuSans-20" transform="translate(602.294922 0.684375)"/>
      <use xlink:href="#DejaVuSans-2f" transform="translate(634.082031 0.684375)"/>
      <use xlink:href="#DejaVuSans-20" transform="translate(667.773438 0.684375)"/>
      <use xlink:href="#DejaVuSans-Oblique-63" transform="translate(699.560547 0.684375)"/>
      <use xlink:href="#DejaVuSans-Oblique-6d" transform="translate(754.541016 0.684375)"/>
      <use xlink:href="#DejaVuSans-2212" transform="translate(856.603021 38.965625)scale(0.7)"/>
      <use xlink:href="#DejaVuSans-31" transform="translate(915.255365 38.965625)scale(0.7)"/>
     </g>
    </g>
   </g>
   <g id="matplotlib.axis_2">
    <g id="ytick_1">
     <g id="line2d_9">
      <defs>
       <path id="m172621f39f" d="M 0 0 
L -3.5 0 
" style="stroke: #000000; stroke-width: 0.8"/>
      </defs>
      <g>
       <use xlink:href="#m172621f39f" x="135" y="461.7" style="stroke: #000000; stroke-width: 0.8"/>
      </g>
     </g>
     <g id="text_10">
      <!-- 0 -->
      <g transform="translate(117.82 467.77875)scale(0.16 -0.16)">
       <use xlink:href="#DejaVuSans-30"/>
      </g>
     </g>
    </g>
    <g id="ytick_2">
     <g id="line2d_10">
      <g>
       <use xlink:href="#m172621f39f" x="135" y="406.044606" style="stroke: #000000; stroke-width: 0.8"/>
      </g>
     </g>
     <g id="text_11">
      <!-- 2 -->
      <g transform="translate(117.82 412.123356)scale(0.16 -0.16)">
       <use xlink:href="#DejaVuSans-32"/>
      </g>
     </g>
    </g>
    <g id="ytick_3">
     <g id="line2d_11">
      <g>
       <use xlink:href="#m172621f39f" x="135" y="350.389212" style="stroke: #000000; stroke-width: 0.8"/>
      </g>
     </g>
     <g id="text_12">
      <!-- 4 -->
      <g transform="translate(117.82 356.467962)scale(0.16 -0.16)">
       <defs>
        <path id="DejaVuSans-34" d="M 2419 4116 
L 825 1625 
L 2419 1625 
L 2419 4116 
z
M 2253 4666 
L 3047 4666 
L 3047 1625 
L 3713 1625 
L 3713 1100 
L 3047 1100 
L 3047 0 
L 2419 0 
L 2419 1100 
L 313 1100 
L 313 1709 
L 2253 4666 
z
" transform="scale(0.015625)"/>
       </defs>
       <use xlink:href="#DejaVuSans-34"/>
      </g>
     </g>
    </g>
    <g id="ytick_4">
     <g id="line2d_12">
      <g>
       <use xlink:href="#m172621f39f" x="135" y="294.733818" style="stroke: #000000; stroke-width: 0.8"/>
      </g>
     </g>
     <g id="text_13">
      <!-- 6 -->
      <g transform="translate(117.82 300.812568)scale(0.16 -0.16)">
       <defs>
        <path id="DejaVuSans-36" d="M 2113 2584 
Q 1688 2584 1439 2293 
Q 1191 2003 1191 1497 
Q 1191 994 1439 701 
Q 1688 409 2113 409 
Q 2538 409 2786 701 
Q 3034 994 3034 1497 
Q 3034 2003 2786 2293 
Q 2538 2584 2113 2584 
z
M 3366 4563 
L 3366 3988 
Q 3128 4100 2886 4159 
Q 2644 4219 2406 4219 
Q 1781 4219 1451 3797 
Q 1122 3375 1075 2522 
Q 1259 2794 1537 2939 
Q 1816 3084 2150 3084 
Q 2853 3084 3261 2657 
Q 3669 2231 3669 1497 
Q 3669 778 3244 343 
Q 2819 -91 2113 -91 
Q 1303 -91 875 529 
Q 447 1150 447 2328 
Q 447 3434 972 4092 
Q 1497 4750 2381 4750 
Q 2619 4750 2861 4703 
Q 3103 4656 3366 4563 
z
" transform="scale(0.015625)"/>
       </defs>
       <use xlink:href="#DejaVuSans-36"/>
      </g>
     </g>
    </g>
    <g id="ytick_5">
     <g id="line2d_13">
      <g>
       <use xlink:href="#m172621f39f" x="135" y="239.078424" style="stroke: #000000; stroke-width: 0.8"/>
      </g>
     </g>
     <g id="text_14">
      <!-- 8 -->
      <g transform="translate(117.82 245.157174)scale(0.16 -0.16)">
       <defs>
        <path id="DejaVuSans-38" d="M 2034 2216 
Q 1584 2216 1326 1975 
Q 1069 1734 1069 1313 
Q 1069 891 1326 650 
Q 1584 409 2034 409 
Q 2484 409 2743 651 
Q 3003 894 3003 1313 
Q 3003 1734 2745 1975 
Q 2488 2216 2034 2216 
z
M 1403 2484 
Q 997 2584 770 2862 
Q 544 3141 544 3541 
Q 544 4100 942 4425 
Q 1341 4750 2034 4750 
Q 2731 4750 3128 4425 
Q 3525 4100 3525 3541 
Q 3525 3141 3298 2862 
Q 3072 2584 2669 2484 
Q 3125 2378 3379 2068 
Q 3634 1759 3634 1313 
Q 3634 634 3220 271 
Q 2806 -91 2034 -91 
Q 1263 -91 848 271 
Q 434 634 434 1313 
Q 434 1759 690 2068 
Q 947 2378 1403 2484 
z
M 1172 3481 
Q 1172 3119 1398 2916 
Q 1625 2713 2034 2713 
Q 2441 2713 2670 2916 
Q 2900 3119 2900 3481 
Q 2900 3844 2670 4047 
Q 2441 4250 2034 4250 
Q 1625 4250 1398 4047 
Q 1172 3844 1172 3481 
z
" transform="scale(0.015625)"/>
       </defs>
       <use xlink:href="#DejaVuSans-38"/>
      </g>
     </g>
    </g>
    <g id="ytick_6">
     <g id="line2d_14">
      <g>
       <use xlink:href="#m172621f39f" x="135" y="183.423029" style="stroke: #000000; stroke-width: 0.8"/>
      </g>
     </g>
     <g id="text_15">
      <!-- 10 -->
      <g transform="translate(107.64 189.501779)scale(0.16 -0.16)">
       <use xlink:href="#DejaVuSans-31"/>
       <use xlink:href="#DejaVuSans-30" x="63.623047"/>
      </g>
     </g>
    </g>
    <g id="ytick_7">
     <g id="line2d_15">
      <g>
       <use xlink:href="#m172621f39f" x="135" y="127.767635" style="stroke: #000000; stroke-width: 0.8"/>
      </g>
     </g>
     <g id="text_16">
      <!-- 12 -->
      <g transform="translate(107.64 133.846385)scale(0.16 -0.16)">
       <use xlink:href="#DejaVuSans-31"/>
       <use xlink:href="#DejaVuSans-32" x="63.623047"/>
      </g>
     </g>
    </g>
    <g id="ytick_8">
     <g id="line2d_16">
      <g>
       <use xlink:href="#m172621f39f" x="135" y="72.112241" style="stroke: #000000; stroke-width: 0.8"/>
      </g>
     </g>
     <g id="text_17">
      <!-- 14 -->
      <g transform="translate(107.64 78.190991)scale(0.16 -0.16)">
       <use xlink:href="#DejaVuSans-31"/>
       <use xlink:href="#DejaVuSans-34" x="63.623047"/>
      </g>
     </g>
    </g>
    <g id="text_18">
     <!-- Intensity -->
     <g transform="translate(100.3125 307.52)rotate(-90)scale(0.16 -0.16)">
      <defs>
       <path id="DejaVuSans-49" d="M 628 4666 
L 1259 4666 
L 1259 0 
L 628 0 
L 628 4666 
z
" transform="scale(0.015625)"/>
       <path id="DejaVuSans-65" d="M 3597 1894 
L 3597 1613 
L 953 1613 
Q 991 1019 1311 708 
Q 1631 397 2203 397 
Q 2534 397 2845 478 
Q 3156 559 3463 722 
L 3463 178 
Q 3153 47 2828 -22 
Q 2503 -91 2169 -91 
Q 1331 -91 842 396 
Q 353 884 353 1716 
Q 353 2575 817 3079 
Q 1281 3584 2069 3584 
Q 2775 3584 3186 3129 
Q 3597 2675 3597 1894 
z
M 3022 2063 
Q 3016 2534 2758 2815 
Q 2500 3097 2075 3097 
Q 1594 3097 1305 2825 
Q 1016 2553 972 2059 
L 3022 2063 
z
" transform="scale(0.015625)"/>
       <path id="DejaVuSans-79" d="M 2059 -325 
Q 1816 -950 1584 -1140 
Q 1353 -1331 966 -1331 
L 506 -1331 
L 506 -850 
L 844 -850 
Q 1081 -850 1212 -737 
Q 1344 -625 1503 -206 
L 1606 56 
L 191 3500 
L 800 3500 
L 1894 763 
L 2988 3500 
L 3597 3500 
L 2059 -325 
z
" transform="scale(0.015625)"/>
      </defs>
      <use xlink:href="#DejaVuSans-49"/>
      <use xlink:href="#DejaVuSans-6e" x="29.492188"/>
      <use xlink:href="#DejaVuSans-74" x="92.871094"/>
      <use xlink:href="#DejaVuSans-65" x="132.080078"/>
      <use xlink:href="#DejaVuSans-6e" x="193.603516"/>
      <use xlink:href="#DejaVuSans-73" x="256.982422"/>
      <use xlink:href="#DejaVuSans-69" x="309.082031"/>
      <use xlink:href="#DejaVuSans-74" x="336.865234"/>
      <use xlink:href="#DejaVuSans-79" x="376.074219"/>
     </g>
    </g>
   </g>
   <g id="line2d_17">
    <path d="M 173.045455 446.246293 
L 173.253923 446.272233 
L 173.462391 445.81515 
L 174.296264 442.947529 
L 174.504732 443.121629 
L 174.7132 443.752119 
L 175.547073 447.771851 
L 175.755542 448.267355 
L 175.96401 448.429984 
L 176.589415 448.384225 
L 176.797883 448.642641 
L 177.423288 450.749868 
L 177.840224 451.987171 
L 178.048692 452.198011 
L 178.257161 452.17168 
L 178.674097 451.628809 
L 179.091034 451.204559 
L 179.299502 451.260152 
L 179.716438 451.866903 
L 180.133375 452.515368 
L 180.341843 452.66397 
L 180.550311 452.642529 
L 181.384184 452.002792 
L 181.592653 452.139357 
L 182.009589 453.053582 
L 182.634994 454.598485 
L 183.05193 454.904568 
L 183.468867 454.722454 
L 183.885803 454.606044 
L 184.30274 454.97019 
L 185.136613 456.134525 
L 185.553549 456.16656 
L 185.970486 456.018376 
L 186.178954 456.026409 
L 186.387422 456.163688 
L 187.012827 457.349032 
L 187.429763 458.098822 
L 187.8467 458.284151 
L 188.263636 458.017415 
L 188.680573 457.701142 
L 189.097509 457.743162 
L 189.931382 458.40007 
L 190.348319 458.350394 
L 191.39066 457.667097 
L 191.807597 457.83587 
L 192.641469 458.310394 
L 193.892279 458.568113 
L 194.726152 458.954642 
L 195.351557 458.915387 
L 195.976961 458.961489 
L 197.019303 459.392831 
L 197.436239 459.1787 
L 198.47858 458.314832 
L 198.895517 458.269244 
L 200.980199 458.632719 
L 201.605604 458.928815 
L 202.02254 458.896569 
L 203.27335 458.329678 
L 203.898755 458.587005 
L 204.524159 458.853318 
L 206.400374 459.1318 
L 207.025778 458.990037 
L 208.06812 458.612651 
L 208.693524 458.418907 
L 209.318929 457.953383 
L 210.152802 457.224842 
L 212.029016 456.150095 
L 212.654421 455.797747 
L 213.279826 455.7992 
L 214.322167 455.861373 
L 215.15604 455.948712 
L 215.989913 456.138133 
L 216.615318 455.959896 
L 217.449191 455.608792 
L 218.074595 455.632662 
L 219.533873 455.900233 
L 220.159278 455.767904 
L 220.784682 455.26752 
L 221.827024 453.889823 
L 222.660897 452.944409 
L 223.49477 452.275651 
L 224.120174 452.029619 
L 226.413325 451.779047 
L 226.830262 452.100854 
L 228.498007 453.916707 
L 229.748817 454.844055 
L 230.58269 455.356322 
L 233.709714 456.217166 
L 234.752055 456.367794 
L 236.419801 456.395432 
L 237.879078 456.778293 
L 238.712951 457.328832 
L 239.338356 457.662417 
L 239.963761 457.629385 
L 240.797634 457.418102 
L 241.423039 457.498869 
L 243.924658 458.236522 
L 245.383935 458.25942 
L 246.00934 458.728977 
L 246.843213 459.40391 
L 247.260149 459.472164 
L 247.677086 459.330265 
L 248.719427 458.504741 
L 249.344832 458.163069 
L 249.970237 458.104604 
L 251.221046 458.167117 
L 252.888792 457.904775 
L 253.931133 458.092482 
L 254.765006 458.476836 
L 255.807347 458.911931 
L 256.64122 459.166674 
L 257.475093 459.74041 
L 258.100498 460.10943 
L 258.725903 460.209115 
L 260.393649 460.115476 
L 261.019054 459.784464 
L 262.6868 458.665231 
L 264.771482 457.484372 
L 265.396887 456.781873 
L 266.022291 455.748648 
L 266.439228 454.627459 
L 266.856164 452.684919 
L 267.273101 449.464598 
L 267.690037 443.850719 
L 268.106974 433.568338 
L 268.52391 415.329936 
L 268.940847 383.400372 
L 269.566252 306.203363 
L 270.817061 112.541727 
L 271.025529 96.076973 
L 271.233998 89.000077 
L 271.442466 91.101743 
L 271.650934 102.122136 
L 272.06787 149.062093 
L 273.735616 404.048461 
L 274.152553 430.803742 
L 274.569489 443.293373 
L 274.986426 448.602463 
L 275.403362 451.199857 
L 276.028767 453.685014 
L 276.654172 455.213443 
L 277.904981 457.412067 
L 278.530386 458.388965 
L 278.947323 458.676717 
L 279.989664 459.019714 
L 281.240473 459.785109 
L 282.074346 460.176579 
L 283.325156 460.901821 
L 284.159029 460.932551 
L 285.618306 460.858222 
L 287.077584 460.48613 
L 288.328394 460.543695 
L 288.953798 460.26969 
L 291.038481 458.99538 
L 292.914695 458.730114 
L 293.5401 458.881431 
L 295.416314 459.556394 
L 296.250187 459.521051 
L 298.960274 458.91615 
L 300.002615 458.806477 
L 303.546575 459.181005 
L 304.588917 459.281126 
L 306.048194 459.673395 
L 307.507472 459.414786 
L 308.132877 459.723782 
L 308.96675 460.207698 
L 309.592154 460.286317 
L 311.2599 460.109937 
L 311.885305 460.562772 
L 312.719178 461.160667 
L 313.136115 461.199934 
L 313.761519 460.937447 
L 314.803861 460.37636 
L 315.429265 460.288929 
L 316.471606 460.436023 
L 317.513948 460.567136 
L 318.139352 460.433045 
L 319.390162 460.038263 
L 320.224035 460.073533 
L 321.683313 460.107979 
L 323.351059 460.12835 
L 324.184932 459.767202 
L 325.644209 459.11105 
L 326.269614 459.104246 
L 326.895019 459.399073 
L 327.520423 459.676202 
L 327.93736 459.656867 
L 329.396638 459.073669 
L 330.022042 459.253691 
L 330.855915 459.469044 
L 331.48132 459.342442 
L 332.315193 458.855733 
L 333.149066 458.331992 
L 333.774471 458.233404 
L 334.608344 458.464864 
L 336.067621 458.869969 
L 337.526899 459.203878 
L 338.360772 459.113926 
L 340.653923 458.451778 
L 343.36401 458.455768 
L 344.197883 458.271735 
L 345.031756 458.079998 
L 346.90797 457.936052 
L 347.533375 457.918654 
L 349.201121 458.239386 
L 351.077335 457.710413 
L 352.536613 457.825379 
L 353.787422 457.519953 
L 354.412827 457.191782 
L 354.829763 456.752893 
L 355.2467 455.99661 
L 355.872105 454.17216 
L 356.497509 451.406574 
L 357.539851 445.336423 
L 358.582192 439.655662 
L 358.999128 438.208425 
L 359.416065 437.440035 
L 359.833001 437.223227 
L 360.249938 437.341364 
L 361.292279 437.805319 
L 362.751557 438.135137 
L 363.376961 438.017538 
L 364.419303 437.669391 
L 365.87858 437.518117 
L 366.712453 437.28162 
L 367.12939 437.450399 
L 367.546326 437.989618 
L 367.963263 438.98922 
L 368.588667 441.261148 
L 370.464882 449.233718 
L 371.298755 451.422043 
L 372.549564 453.98286 
L 373.383437 455.264452 
L 374.008842 455.934372 
L 374.634247 456.332137 
L 376.927397 457.29333 
L 377.969738 458.197269 
L 379.01208 459.112216 
L 381.096762 460.319506 
L 381.722167 460.538022 
L 383.389913 460.68902 
L 383.806849 460.626218 
L 384.432254 460.251282 
L 385.266127 459.731496 
L 385.683064 459.758141 
L 386.308468 460.150271 
L 386.933873 460.566814 
L 387.350809 460.652857 
L 387.976214 460.497139 
L 388.810087 460.173751 
L 389.435492 460.20075 
L 390.686301 460.457329 
L 391.311706 460.198866 
L 392.145579 459.809383 
L 392.979452 459.751053 
L 395.064134 459.884624 
L 395.898007 459.924599 
L 398.191158 459.576142 
L 400.484309 459.793338 
L 402.360523 459.568364 
L 403.194396 459.781037 
L 404.028269 460.009299 
L 405.904483 460.176074 
L 406.529888 460.375125 
L 406.946824 460.334421 
L 407.572229 459.945487 
L 408.197634 459.531419 
L 408.61457 459.476382 
L 409.031507 459.633008 
L 410.282316 460.395675 
L 410.907721 460.480832 
L 412.783935 460.454652 
L 413.826276 460.756257 
L 414.243213 460.654969 
L 415.494022 459.915122 
L 415.910959 459.971305 
L 416.536364 460.156195 
L 416.9533 460.093754 
L 418.20411 459.492724 
L 418.621046 459.649224 
L 419.454919 460.08469 
L 419.871856 460.031345 
L 421.331133 459.47215 
L 422.581943 459.584979 
L 424.249689 459.78485 
L 425.917435 459.578798 
L 426.542839 459.559292 
L 427.168244 459.330852 
L 428.210585 458.916731 
L 428.83599 458.944375 
L 430.295268 459.235756 
L 430.712204 459.112691 
L 431.337609 458.671918 
L 432.171482 458.029808 
L 434.047696 456.953058 
L 435.090037 456.085772 
L 435.715442 455.235137 
L 436.757783 453.22354 
L 437.591656 451.18007 
L 438.217061 448.862521 
L 438.842466 445.544137 
L 439.46787 440.770873 
L 440.093275 434.032779 
L 440.927148 422.172782 
L 441.969489 407.334837 
L 442.594894 400.811989 
L 443.011831 398.151959 
L 443.220299 397.438818 
L 443.428767 397.186492 
L 443.637235 397.42042 
L 443.845704 398.186458 
L 444.26264 401.191903 
L 444.888045 408.6464 
L 446.972727 436.77285 
L 447.598132 442.072008 
L 448.432005 447.149553 
L 449.05741 449.918703 
L 449.682814 451.882466 
L 450.516687 453.684778 
L 451.559029 455.459131 
L 452.184433 456.120056 
L 453.018306 456.62806 
L 454.894521 457.515404 
L 455.936862 458.268608 
L 456.353798 458.283058 
L 458.230012 457.904346 
L 459.063885 458.080808 
L 459.68929 458.438597 
L 460.523163 458.982778 
L 461.148568 459.11612 
L 461.982441 458.97495 
L 463.441719 458.55192 
L 464.067123 458.675114 
L 464.692528 458.822581 
L 465.317933 458.717741 
L 466.360274 458.379001 
L 468.02802 458.35666 
L 468.653425 458.534002 
L 469.695766 458.882596 
L 470.321171 458.724755 
L 471.363512 458.302045 
L 472.197385 458.269174 
L 473.031258 458.407867 
L 473.656663 458.741112 
L 474.907472 459.691253 
L 475.324408 459.712461 
L 475.949813 459.386702 
L 476.575218 459.021645 
L 476.992154 459.007073 
L 478.242964 459.451047 
L 478.6599 459.239466 
L 479.702242 458.351414 
L 480.119178 458.263534 
L 481.161519 458.221407 
L 482.412329 457.898095 
L 483.663138 457.837306 
L 484.913948 457.678923 
L 485.747821 457.504006 
L 487.415567 456.776503 
L 488.040971 456.190398 
L 489.291781 454.982145 
L 489.708717 454.474654 
L 490.125654 453.604605 
L 490.751059 451.475858 
L 493.044209 441.748762 
L 494.295019 435.074383 
L 494.711955 434.022665 
L 494.920423 433.872303 
L 495.128892 433.98284 
L 495.33736 434.332628 
L 495.754296 435.670567 
L 496.379701 439.035189 
L 498.047447 449.789726 
L 498.464384 451.073315 
L 498.88132 451.761526 
L 499.506725 452.240627 
L 499.923661 452.365649 
L 500.340598 452.272564 
L 501.382939 451.615926 
L 501.591407 451.649448 
L 502.008344 452.06524 
L 502.42528 452.894579 
L 503.67609 456.297337 
L 504.509963 458.264229 
L 504.926899 458.766123 
L 505.343836 458.866766 
L 506.594645 458.561762 
L 507.22005 458.913023 
L 508.053923 459.506812 
L 508.679328 459.643865 
L 510.138605 459.496949 
L 513.265629 460.373883 
L 513.891034 460.318608 
L 515.350311 459.877576 
L 517.018057 460.230566 
L 518.477335 459.838057 
L 519.936613 459.89416 
L 521.812827 460.37073 
L 523.480573 460.297513 
L 524.522914 460.3954 
L 525.773724 460.564511 
L 526.607597 460.35215 
L 527.233001 460.206971 
L 527.858406 460.32449 
L 528.900747 460.804738 
L 529.317684 460.736513 
L 530.568493 460.115001 
L 532.027771 460.217823 
L 533.27858 459.747647 
L 534.112453 459.873994 
L 536.614072 460.234247 
L 537.447945 460.188022 
L 538.698755 460.015643 
L 539.532628 460.170222 
L 540.991905 460.481526 
L 542.242715 460.393973 
L 543.493524 460.407031 
L 544.327397 460.368133 
L 545.16127 460.046932 
L 545.786675 459.889399 
L 546.620548 460.027827 
L 547.245953 459.992115 
L 548.496762 459.563403 
L 548.913699 459.764877 
L 549.747572 460.317192 
L 550.164508 460.377674 
L 553.083064 460.120345 
L 553.916936 460.271353 
L 554.542341 460.318272 
L 556.001619 460.131281 
L 557.877833 460.755577 
L 558.503238 460.645639 
L 560.379452 460.0248 
L 561.421793 460.112992 
L 562.464134 459.989137 
L 563.089539 460.328009 
L 563.714944 460.652578 
L 564.13188 460.610724 
L 565.38269 460.094311 
L 566.216563 460.231253 
L 567.467372 460.507853 
L 568.509714 460.931906 
L 568.92665 460.87416 
L 571.428269 459.940639 
L 572.053674 459.966379 
L 573.929888 460.51294 
L 574.763761 460.391742 
L 575.389166 460.079777 
L 576.223039 459.667485 
L 576.639975 459.724808 
L 577.26538 460.116053 
L 578.307721 460.794272 
L 578.933126 460.952569 
L 579.558531 460.82202 
L 581.017808 460.129607 
L 582.060149 460.116404 
L 582.894022 460.330798 
L 583.936364 460.74855 
L 584.3533 460.700413 
L 585.187173 460.238889 
L 585.812578 460.027343 
L 586.229514 460.118836 
L 587.688792 460.761037 
L 588.314197 460.633687 
L 589.565006 460.311555 
L 590.190411 460.337191 
L 592.066625 460.742607 
L 593.525903 460.483549 
L 596.027522 459.802812 
L 597.695268 459.852559 
L 598.737609 459.605972 
L 599.363014 459.814089 
L 600.822291 460.658311 
L 601.447696 460.590728 
L 602.281569 460.369197 
L 603.532379 460.263518 
L 604.57472 459.842323 
L 604.991656 459.96451 
L 606.033998 460.523381 
L 606.86787 460.574561 
L 608.327148 460.642968 
L 609.786426 461.018744 
L 611.454172 460.746439 
L 612.079577 460.760691 
L 614.789664 460.128697 
L 615.415068 460.036387 
L 617.082814 460.320508 
L 617.916687 460.251618 
L 618.75056 460.558955 
L 619.584433 460.758174 
L 620.418306 461.00655 
L 621.043711 461.106367 
L 621.460648 460.918829 
L 622.294521 460.316656 
L 622.711457 460.279844 
L 624.379203 460.645049 
L 625.421544 460.476315 
L 626.672354 460.538024 
L 627.08929 460.298025 
L 627.923163 459.604789 
L 628.3401 459.548244 
L 628.757036 459.795402 
L 629.799377 460.699927 
L 630.424782 460.846098 
L 631.050187 460.671643 
L 632.300996 459.99703 
L 632.717933 460.038989 
L 634.594147 460.718671 
L 635.42802 460.526163 
L 636.470361 460.301476 
L 637.512702 460.362072 
L 639.805853 460.618019 
L 640.431258 460.345771 
L 641.265131 459.95201 
L 641.682067 459.995023 
L 642.307472 460.428646 
L 642.932877 460.887708 
L 643.349813 460.923598 
L 643.76675 460.686589 
L 644.809091 459.95751 
L 645.226027 459.953058 
L 645.851432 460.250968 
L 646.893773 460.822554 
L 647.31071 460.867905 
L 647.936115 460.65162 
L 648.978456 460.074121 
L 649.395392 460.074143 
L 650.229265 460.455382 
L 650.646202 460.570834 
L 651.063138 460.488982 
L 652.313948 459.998751 
L 652.939352 460.179571 
L 653.773225 460.48403 
L 655.232503 460.664878 
L 655.857908 460.544589 
L 656.900249 460.123866 
L 657.525654 460.232597 
L 658.151059 460.390823 
L 658.567995 460.298043 
L 659.610336 459.909644 
L 660.235741 460.048207 
L 661.069614 460.232116 
L 662.320423 460.136752 
L 663.154296 460.139096 
L 664.196638 460.258137 
L 664.822042 459.985415 
L 665.447447 459.613737 
L 665.864384 459.553266 
L 666.489788 459.760955 
L 667.323661 460.047416 
L 669.199875 460.196615 
L 669.82528 460.049806 
L 670.659153 459.569824 
L 671.701494 458.924714 
L 672.326899 458.752059 
L 673.786177 458.731215 
L 674.828518 458.676233 
L 676.496264 458.357797 
L 677.330137 458.500983 
L 678.789415 458.947323 
L 680.248692 458.677776 
L 681.291034 458.852388 
L 682.124907 458.847662 
L 684.001121 459.279677 
L 684.834994 459.349473 
L 686.085803 459.563033 
L 686.711208 459.438922 
L 687.753549 458.948153 
L 688.587422 458.635824 
L 689.004359 458.661867 
L 690.463636 459.115784 
L 691.505978 459.080791 
L 692.756787 459.267153 
L 695.258406 459.093102 
L 695.883811 459.135422 
L 697.551557 459.498221 
L 698.593898 459.320651 
L 699.636239 459.192564 
L 701.303985 459.335721 
L 702.346326 458.928326 
L 702.763263 459.016566 
L 703.805604 459.439493 
L 704.431009 459.243568 
L 705.056413 459.105279 
L 706.098755 459.134358 
L 706.724159 458.699666 
L 707.349564 458.269127 
L 707.974969 458.146824 
L 708.600374 457.967349 
L 710.059651 456.9799 
L 711.518929 456.850164 
L 713.395143 455.760494 
L 714.020548 455.052 
L 714.645953 454.017712 
L 716.730635 449.684356 
L 717.147572 448.316483 
L 719.649191 437.77447 
L 720.483064 432.913478 
L 721.108468 430.863808 
L 722.776214 427.125882 
L 722.984682 427.175895 
L 723.401619 427.852153 
L 724.027024 429.774168 
L 724.860897 433.104817 
L 725.903238 438.384277 
L 727.154047 444.464858 
L 728.196389 448.621217 
L 728.821793 450.407973 
L 729.655666 452.0561 
L 731.948817 455.816061 
L 732.574222 456.46055 
L 733.199626 456.763707 
L 734.450436 457.117852 
L 736.32665 458.211146 
L 737.994396 458.57534 
L 738.828269 459.130088 
L 739.245205 459.074623 
L 739.87061 458.83194 
L 740.287547 458.934983 
L 741.12142 459.355639 
L 741.746824 459.256619 
L 742.580697 459.144165 
L 743.206102 458.97586 
L 743.831507 458.837427 
L 744.248443 459.014939 
L 744.873848 459.406927 
L 745.499253 459.46491 
L 746.958531 459.276389 
L 747.583935 458.914104 
L 748.000872 458.962827 
L 749.043213 459.554965 
L 749.460149 459.450446 
L 750.294022 459.149115 
L 751.336364 459.07083 
L 751.961768 459.220935 
L 752.587173 459.387512 
L 754.254919 459.413803 
L 754.880324 459.557244 
L 755.714197 459.407492 
L 756.965006 459.078974 
L 757.798879 458.685071 
L 758.215816 458.714333 
L 758.84122 459.057207 
L 759.883562 459.646579 
L 760.508966 459.749735 
L 761.134371 459.511959 
L 761.759776 459.224482 
L 762.385181 459.228492 
L 763.010585 459.270809 
L 763.63599 459.095267 
L 765.512204 458.278118 
L 767.17995 458.456157 
L 768.43076 458.619621 
L 770.515442 457.683995 
L 771.349315 456.891602 
L 771.766252 456.808609 
L 772.600125 456.840627 
L 773.225529 456.476309 
L 773.850934 456.155712 
L 774.476339 456.182112 
L 775.101743 456.222453 
L 775.727148 455.981847 
L 776.561021 455.560009 
L 777.186426 455.486111 
L 778.020299 455.625841 
L 778.645704 455.94283 
L 780.31345 457.055945 
L 781.355791 457.4006 
L 784.065878 458.893952 
L 784.482814 458.782786 
L 785.316687 458.353843 
L 785.733624 458.638611 
L 786.775965 459.962941 
L 787.192902 459.894958 
L 788.026775 459.3605 
L 788.443711 459.417 
L 789.486052 459.789493 
L 790.736862 459.990644 
L 791.362267 459.977859 
L 793.030012 459.451831 
L 793.655417 459.683387 
L 794.48929 460.077912 
L 794.906227 460.025879 
L 795.7401 459.656791 
L 796.157036 459.75145 
L 797.199377 460.363909 
L 797.616314 460.300718 
L 798.658655 459.997307 
L 801.368742 459.786309 
L 801.785679 459.99359 
L 802.619552 460.557704 
L 803.036488 460.508036 
L 803.661893 460.278486 
L 804.078829 460.350204 
L 804.704234 460.606014 
L 805.121171 460.510376 
L 805.955044 460.128073 
L 806.37198 460.232499 
L 807.205853 460.600323 
L 808.248194 460.682438 
L 810.541345 460.48862 
L 812.209091 459.96319 
L 812.626027 460.005057 
L 813.876837 460.511517 
L 814.293773 460.337398 
L 814.919178 459.99179 
L 815.544583 459.947692 
L 816.586924 460.012623 
L 817.212329 459.705879 
L 817.837733 459.323941 
L 818.25467 459.338139 
L 819.297011 459.74682 
L 820.547821 459.429872 
L 821.590162 459.83341 
L 822.632503 459.924253 
L 823.466376 460.108218 
L 823.883313 459.929613 
L 824.508717 459.592034 
L 824.925654 459.640839 
L 825.759527 460.020445 
L 826.176463 459.958239 
L 826.801868 459.752674 
L 827.427273 459.858043 
L 828.261146 460.043034 
L 828.88655 459.87958 
L 829.720423 459.687483 
L 830.345828 459.831292 
L 831.596638 460.175337 
L 832.430511 460.233275 
L 833.68132 459.966732 
L 834.306725 460.110964 
L 834.723661 459.975131 
L 835.766002 459.295647 
L 836.808344 459.220532 
L 838.059153 458.688594 
L 839.726899 458.85673 
L 841.603113 458.637169 
L 842.228518 458.736317 
L 842.853923 459.177264 
L 843.479328 459.622528 
L 844.3132 459.918743 
L 844.938605 460.009449 
L 845.56401 459.792286 
L 845.980946 459.660223 
L 846.397883 459.788822 
L 847.440224 460.501292 
L 848.691034 460.535588 
L 849.316438 460.793725 
L 849.733375 460.658707 
L 850.567248 460.125684 
L 850.984184 460.245554 
L 851.609589 460.56821 
L 852.026526 460.487383 
L 853.068867 459.733715 
L 853.485803 459.777708 
L 854.528144 460.196277 
L 855.778954 460.324745 
L 856.404359 460.503974 
L 858.489041 460.52189 
L 859.114446 460.468975 
L 860.156787 460.689419 
L 861.616065 460.35637 
L 862.241469 460.133603 
L 862.658406 460.026339 
L 863.075342 460.239336 
L 863.909215 460.911646 
L 864.326152 460.839302 
L 864.951557 460.576061 
L 865.368493 460.682767 
L 865.993898 460.95317 
L 866.619303 460.881768 
L 868.287049 460.419478 
L 868.912453 460.136161 
L 870.580199 460.086157 
L 871.831009 460.369231 
L 872.87335 460.147223 
L 873.498755 460.362211 
L 874.541096 460.745892 
L 875.166501 460.698134 
L 876.000374 460.361684 
L 876.625778 460.135568 
L 877.042715 460.17661 
L 878.293524 460.582359 
L 879.335866 460.440832 
L 881.837484 460.954136 
L 882.879826 460.701655 
L 884.339103 460.120642 
L 884.964508 460.250297 
L 885.798381 460.393779 
L 888.508468 460.298234 
L 889.133873 460.411745 
L 889.967746 460.669529 
L 890.384682 460.602295 
L 891.427024 460.29772 
L 892.052428 460.491446 
L 893.720174 461.136755 
L 894.137111 460.987684 
L 894.762516 460.619509 
L 895.179452 460.635151 
L 896.221793 461.209246 
L 896.63873 461.038623 
L 897.681071 460.335269 
L 898.306476 460.207744 
L 898.93188 460.288192 
L 899.974222 460.677283 
L 900.599626 460.490876 
L 901.016563 460.400623 
L 901.433499 460.557476 
L 902.058904 460.949453 
L 902.475841 460.941592 
L 903.518182 460.468323 
L 904.143587 460.708559 
L 904.97746 461.067538 
L 905.602864 461.131482 
L 907.062142 460.993687 
L 907.896015 461.14257 
L 908.52142 460.901076 
L 909.355293 460.524234 
L 909.980697 460.527686 
L 910.606102 460.817245 
L 911.648443 461.358493 
L 912.273848 461.354841 
L 913.107721 461.15442 
L 913.733126 461.35258 
L 914.358531 461.610307 
L 914.775467 461.591481 
L 916.234745 461.172044 
L 917.068618 461.456607 
L 917.485554 461.330577 
L 918.527895 460.550966 
L 918.944832 460.604474 
L 919.987173 461.218998 
L 920.40411 461.150875 
L 921.237983 460.951447 
L 922.488792 461.122647 
L 923.531133 461.399234 
L 924.156538 461.207852 
L 924.573474 461.087371 
L 924.990411 461.166475 
L 925.824284 461.48743 
L 926.449689 461.377989 
L 927.075093 461.285097 
L 927.908966 461.244442 
L 928.742839 461.059587 
L 929.785181 461.297 
L 930.619054 460.860024 
L 931.03599 461.048983 
L 931.869863 461.7 
L 932.2868 461.570229 
L 933.537609 460.781691 
L 933.954545 460.813636 
L 933.954545 460.813636 
" clip-path="url(#p57c7e0276d)" style="fill: none; stroke: #1f77b4; stroke-width: 1.5; stroke-linecap: square"/>
   </g>
   <g id="line2d_18">
    <path d="M 173.045455 442.507499 
L 173.253923 442.496011 
L 173.462391 442.100326 
L 174.087796 440.226401 
L 174.296264 440.201676 
L 174.504732 440.671129 
L 174.921669 442.850069 
L 175.547073 446.378332 
L 175.755542 447.002889 
L 175.96401 447.253824 
L 176.797883 447.318596 
L 177.214819 448.276391 
L 177.840224 449.75183 
L 178.048692 449.841811 
L 178.257161 449.728074 
L 179.091034 448.686341 
L 179.299502 448.770023 
L 179.716438 449.471169 
L 180.133375 450.288727 
L 180.550311 450.613164 
L 180.967248 450.327342 
L 181.384184 450.006585 
L 181.592653 450.016182 
L 182.009589 450.529306 
L 182.634994 451.488589 
L 183.05193 451.615834 
L 183.677335 451.379992 
L 183.885803 451.446442 
L 184.30274 451.976293 
L 185.136613 453.507702 
L 185.553549 453.738145 
L 186.178954 453.796655 
L 186.387422 453.956947 
L 187.012827 455.096081 
L 187.429763 455.830112 
L 187.8467 456.061255 
L 188.263636 455.859258 
L 188.889041 455.460602 
L 189.305978 455.516451 
L 189.931382 455.691661 
L 190.348319 455.546147 
L 191.182192 455.033765 
L 191.599128 455.166422 
L 192.641469 455.728193 
L 193.683811 455.810031 
L 194.93462 456.409455 
L 196.18543 456.467424 
L 196.810834 456.717833 
L 197.227771 456.659197 
L 198.687049 455.840391 
L 199.312453 456.162891 
L 200.146326 456.56357 
L 201.605604 456.927959 
L 202.02254 456.817793 
L 203.27335 456.251516 
L 205.149564 456.425228 
L 205.774969 456.746238 
L 206.400374 457.079562 
L 206.81731 457.085293 
L 207.442715 456.760456 
L 209.110461 455.605907 
L 210.152802 454.545205 
L 210.778207 454.26867 
L 211.820548 453.875225 
L 212.445953 453.627602 
L 213.071357 453.630188 
L 214.113699 453.740826 
L 215.989913 453.505934 
L 217.449191 452.965155 
L 218.7 452.984866 
L 219.950809 452.723388 
L 220.784682 452.645524 
L 221.410087 452.300705 
L 223.286301 450.658627 
L 224.745579 449.338948 
L 225.370984 449.005387 
L 225.78792 448.954364 
L 226.204857 449.096462 
L 226.621793 449.464163 
L 227.872603 450.808302 
L 228.914944 451.494299 
L 229.540349 452.277818 
L 230.165753 453.028992 
L 230.58269 453.246995 
L 230.999626 453.205438 
L 231.833499 453.004566 
L 232.250436 453.137303 
L 232.875841 453.654203 
L 233.709714 454.436568 
L 234.12665 454.612939 
L 234.543587 454.58384 
L 235.794396 454.118822 
L 236.211333 454.256643 
L 237.462142 454.961126 
L 238.087547 454.984526 
L 239.755293 454.893102 
L 240.380697 455.010704 
L 241.21457 455.480988 
L 241.839975 455.809896 
L 242.46538 455.918352 
L 245.592403 456.093398 
L 246.843213 456.546562 
L 247.468618 456.439961 
L 248.302491 456.272577 
L 249.344832 456.372376 
L 250.178705 456.337676 
L 251.012578 456.063063 
L 251.846451 455.762686 
L 252.471856 455.807428 
L 253.09726 456.124287 
L 254.139601 456.747387 
L 254.973474 456.911047 
L 256.015816 457.026781 
L 256.64122 457.370462 
L 257.683562 458.085209 
L 258.308966 458.200581 
L 259.976712 458.028752 
L 260.810585 457.646078 
L 261.43599 457.418947 
L 262.6868 457.198642 
L 263.312204 456.727863 
L 264.97995 455.039783 
L 265.605355 454.106124 
L 266.23076 452.723302 
L 266.647696 451.255703 
L 267.064633 448.919978 
L 267.481569 445.073493 
L 267.898506 437.817834 
L 268.315442 424.27014 
L 268.732379 400.026199 
L 269.149315 359.763223 
L 269.77472 270.492963 
L 270.817061 107.505967 
L 271.025529 90.82995 
L 271.233998 83.7 
L 271.442466 85.901334 
L 271.650934 97.157336 
L 272.06787 144.912437 
L 273.735616 403.110688 
L 274.152553 429.655025 
L 274.569489 441.710769 
L 274.986426 446.617908 
L 275.403362 449.007686 
L 276.237235 452.255585 
L 276.654172 453.24743 
L 277.904981 455.504792 
L 278.738854 457.163155 
L 279.155791 457.573902 
L 279.781196 457.818897 
L 281.65741 458.336365 
L 283.116687 459.105625 
L 283.742092 458.980842 
L 284.575965 458.825724 
L 285.826775 458.760084 
L 287.494521 458.206425 
L 288.74533 457.779126 
L 289.996139 457.589999 
L 291.663885 456.918669 
L 292.28929 457.025312 
L 293.123163 457.430587 
L 294.582441 458.299852 
L 295.207846 458.375356 
L 298.334869 458.094788 
L 299.168742 457.72629 
L 300.002615 457.315379 
L 300.836488 457.165995 
L 302.087298 457.140098 
L 302.712702 457.390011 
L 304.17198 458.166935 
L 305.631258 458.458327 
L 306.465131 458.430802 
L 307.924408 458.253248 
L 308.96675 458.370972 
L 309.800623 458.665926 
L 311.885305 459.632066 
L 312.51071 459.419528 
L 313.344583 459.028907 
L 313.969988 459.003741 
L 315.220797 459.189177 
L 317.097011 459.16197 
L 318.347821 459.207491 
L 321.891781 458.930708 
L 323.559527 459.041107 
L 324.3934 458.648209 
L 325.018804 458.405022 
L 325.644209 458.382761 
L 326.895019 458.461742 
L 328.145828 458.169189 
L 328.979701 458.07089 
L 331.48132 458.042903 
L 332.523661 457.859517 
L 334.191407 457.450618 
L 335.442217 457.497518 
L 336.693026 457.778613 
L 338.777709 458.364338 
L 341.279328 457.923136 
L 342.530137 457.320906 
L 343.155542 457.5096 
L 343.780946 457.660774 
L 344.197883 457.513752 
L 345.240224 456.974846 
L 345.865629 457.151529 
L 346.491034 457.40104 
L 347.116438 457.389836 
L 347.741843 457.371419 
L 348.367248 457.682173 
L 348.992653 458.047871 
L 349.409589 458.089333 
L 350.034994 457.791553 
L 350.868867 457.280788 
L 351.70274 457.086977 
L 352.953549 456.845135 
L 353.99589 456.44682 
L 354.621295 456.013709 
L 355.038232 455.497243 
L 355.455168 454.674422 
L 355.872105 453.434332 
L 356.497509 450.58223 
L 358.165255 441.428769 
L 358.79066 439.604845 
L 359.416065 438.682327 
L 360.249938 438.01004 
L 360.875342 437.797964 
L 362.126152 437.650875 
L 362.751557 437.194862 
L 363.58543 436.520441 
L 364.210834 436.346455 
L 365.044707 436.242878 
L 366.295517 435.894638 
L 366.712453 436.110526 
L 367.12939 436.62568 
L 367.546326 437.433879 
L 368.171731 439.154575 
L 369.005604 442.198393 
L 371.090286 450.525347 
L 371.715691 451.998528 
L 372.549564 453.169258 
L 374.21731 455.114013 
L 375.885056 456.511672 
L 376.927397 457.57376 
L 378.595143 458.954861 
L 379.429016 459.657688 
L 380.262889 459.938722 
L 382.347572 460.299591 
L 383.598381 459.895301 
L 385.891532 459.966328 
L 386.725405 460.353996 
L 387.350809 460.547806 
L 387.976214 460.411714 
L 389.018555 460.010723 
L 389.852428 460.074976 
L 390.686301 460.090668 
L 391.520174 460.085582 
L 393.18792 460.55325 
L 394.230262 460.352176 
L 394.855666 460.572983 
L 395.481071 460.747178 
L 395.898007 460.645952 
L 397.148817 460.091399 
L 397.98269 460.18867 
L 398.816563 460.215131 
L 399.858904 460.232912 
L 401.52665 460.447717 
L 403.194396 460.259727 
L 404.236737 460.404085 
L 405.07061 460.135313 
L 405.696015 460.011383 
L 406.32142 460.194904 
L 407.155293 460.431234 
L 407.989166 460.290749 
L 408.61457 460.286838 
L 410.073848 460.548107 
L 411.116189 460.511228 
L 412.783935 460.847963 
L 415.285554 460.544786 
L 417.370237 460.399278 
L 418.20411 460.299769 
L 419.037983 460.505856 
L 419.871856 460.66243 
L 420.705729 460.575514 
L 422.581943 460.118517 
L 424.458157 460.290208 
L 425.29203 460.328938 
L 427.585181 460.742729 
L 428.210585 460.592209 
L 429.461395 460.16474 
L 430.0868 460.323065 
L 430.920672 460.580224 
L 431.754545 460.566761 
L 433.213823 460.372308 
L 434.464633 459.996337 
L 436.549315 459.86595 
L 437.383188 459.706246 
L 439.050934 459.674273 
L 439.676339 459.276251 
L 441.135616 458.134863 
L 441.969489 457.943423 
L 444.26264 457.818598 
L 444.888045 458.063392 
L 447.181196 459.350301 
L 448.432005 459.82394 
L 449.05741 459.788055 
L 449.891283 459.48533 
L 450.933624 459.082504 
L 451.559029 459.105406 
L 452.184433 459.395962 
L 453.018306 459.82307 
L 453.643711 459.922003 
L 454.686052 460.022234 
L 456.14533 460.434104 
L 457.187671 460.299086 
L 460.106227 459.875134 
L 460.9401 459.910014 
L 462.399377 459.779425 
L 463.650187 460.178803 
L 465.109465 460.656142 
L 465.526401 460.58142 
L 466.151806 460.163641 
L 466.77721 459.737863 
L 467.194147 459.662215 
L 467.819552 459.886017 
L 468.444956 460.175816 
L 469.070361 460.188997 
L 470.738107 459.814258 
L 471.780448 460.190555 
L 472.405853 460.308877 
L 473.865131 460.398404 
L 474.699004 460.470587 
L 475.324408 460.228674 
L 476.158281 459.936628 
L 476.783686 460.036188 
L 477.617559 460.260371 
L 478.451432 460.160271 
L 479.076837 460.142694 
L 479.702242 460.39978 
L 480.327646 460.641341 
L 480.744583 460.582132 
L 481.369988 460.160521 
L 481.995392 459.7858 
L 482.412329 459.759331 
L 483.871606 459.983541 
L 485.122416 459.558654 
L 488.24944 458.372534 
L 489.083313 457.838353 
L 489.500249 457.370539 
L 490.125654 456.19325 
L 490.959527 453.909633 
L 491.7934 451.19084 
L 492.418804 448.283464 
L 493.252677 442.746043 
L 494.295019 435.976264 
L 494.711955 434.353772 
L 494.920423 433.940628 
L 495.128892 433.872303 
L 495.33736 434.179991 
L 495.545828 434.882188 
L 495.962765 437.471435 
L 496.588169 443.64031 
L 497.422042 452.092021 
L 498.047447 455.874924 
L 498.464384 457.274569 
L 499.089788 458.514783 
L 499.715193 459.271964 
L 500.13213 459.512696 
L 500.549066 459.548719 
L 501.799875 459.414922 
L 502.42528 459.672738 
L 503.467621 460.167534 
L 504.301494 460.292226 
L 505.135367 460.204583 
L 506.386177 460.002461 
L 507.011582 460.134418 
L 509.096264 460.905908 
L 509.930137 460.727472 
L 510.555542 460.659807 
L 511.180946 460.89637 
L 511.806351 461.187002 
L 512.223288 461.209172 
L 513.891034 460.88333 
L 514.516438 460.923191 
L 515.141843 460.718106 
L 515.767248 460.546191 
L 516.184184 460.646116 
L 517.226526 461.089318 
L 517.85193 461.06577 
L 519.936613 460.746323 
L 520.562017 460.936006 
L 521.39589 461.265262 
L 522.021295 461.220711 
L 522.855168 460.827967 
L 524.105978 460.139379 
L 524.522914 460.219127 
L 525.148319 460.703394 
L 525.773724 461.156485 
L 526.19066 461.198062 
L 527.024533 460.870858 
L 527.649938 460.739115 
L 528.692279 460.866912 
L 529.73462 460.915943 
L 531.610834 460.872879 
L 532.444707 461.01404 
L 533.070112 460.83346 
L 533.903985 460.473745 
L 534.52939 460.506493 
L 535.571731 460.748944 
L 537.239477 460.712753 
L 540.158032 461.464324 
L 541.200374 461.402069 
L 542.659651 461.108041 
L 543.701993 461.192357 
L 544.327397 460.973979 
L 545.16127 460.662311 
L 545.786675 460.729603 
L 546.829016 460.880111 
L 550.789913 460.516357 
L 553.291532 460.952531 
L 554.125405 461.309766 
L 554.542341 461.324246 
L 556.835492 460.928734 
L 557.877833 460.755033 
L 558.711706 460.711129 
L 560.58792 460.983601 
L 561.630262 460.813241 
L 562.255666 461.014093 
L 563.089539 461.384535 
L 563.506476 461.330911 
L 563.923412 461.042758 
L 564.757285 460.280321 
L 565.174222 460.17251 
L 565.591158 460.32518 
L 566.841968 461.066616 
L 567.884309 461.107347 
L 569.552055 461.015202 
L 570.594396 460.714284 
L 571.428269 460.476523 
L 572.053674 460.621166 
L 573.096015 461.101201 
L 573.512951 461.076102 
L 574.138356 460.733432 
L 574.972229 460.217206 
L 575.597634 460.088507 
L 576.223039 460.176951 
L 578.933126 460.901876 
L 580.80934 460.97313 
L 582.894022 460.719074 
L 583.519427 460.954882 
L 584.3533 461.29793 
L 584.770237 461.256279 
L 585.812578 460.931938 
L 587.480324 460.974107 
L 588.314197 460.713283 
L 589.14807 460.817117 
L 589.773474 460.825301 
L 591.024284 460.659495 
L 594.151308 460.887261 
L 594.985181 460.821362 
L 596.652927 461.062427 
L 597.695268 460.939274 
L 598.529141 460.999911 
L 599.154545 460.790912 
L 599.988418 460.474961 
L 600.613823 460.562319 
L 601.656164 460.842052 
L 602.490037 460.763741 
L 603.532379 460.621919 
L 605.825529 460.826035 
L 607.910212 461.206001 
L 609.369489 461.223981 
L 610.828767 460.763426 
L 612.288045 460.938264 
L 612.91345 460.966518 
L 613.955791 461.160057 
L 614.372727 461.016489 
L 615.415068 460.457348 
L 615.832005 460.478294 
L 616.665878 460.882315 
L 617.499751 461.177988 
L 618.959029 461.387078 
L 619.584433 461.208102 
L 620.418306 460.944685 
L 621.877584 460.928149 
L 622.502989 460.670378 
L 622.919925 460.680134 
L 624.587671 461.108225 
L 626.880822 461.116146 
L 628.548568 460.492491 
L 629.173973 460.742167 
L 629.799377 460.920308 
L 632.092528 460.676648 
L 632.926401 460.370367 
L 633.343337 460.495753 
L 634.385679 461.151342 
L 634.802615 461.079412 
L 635.636488 460.746456 
L 636.053425 460.793212 
L 637.095766 461.149782 
L 637.721171 461.018953 
L 638.763512 460.653504 
L 639.180448 460.727288 
L 640.639726 461.269086 
L 641.265131 461.020563 
L 641.890535 460.770077 
L 642.51594 460.764044 
L 643.558281 460.814048 
L 645.017559 460.743015 
L 646.268369 460.626341 
L 647.727646 460.553747 
L 648.978456 460.535875 
L 650.020797 460.394376 
L 650.646202 460.635895 
L 651.271606 460.900699 
L 651.897011 460.858887 
L 653.147821 460.555873 
L 653.981694 460.649863 
L 655.024035 460.851385 
L 655.64944 460.732692 
L 656.483313 460.528038 
L 659.1934 460.561051 
L 659.818804 460.733663 
L 660.444209 460.654749 
L 661.48655 460.472756 
L 663.154296 460.55781 
L 663.988169 460.689524 
L 664.613574 460.455899 
L 665.238979 460.137775 
L 665.655915 460.15911 
L 666.28132 460.580776 
L 666.906725 460.979303 
L 667.323661 460.976584 
L 669.199875 460.293545 
L 670.867621 460.341931 
L 671.284558 460.046566 
L 672.743836 458.586305 
L 674.62005 457.703225 
L 675.036986 457.753213 
L 675.453923 458.004364 
L 676.496264 458.871757 
L 676.9132 458.956295 
L 677.955542 458.889427 
L 679.206351 459.28849 
L 680.248692 459.227431 
L 681.70797 459.468806 
L 682.333375 459.566291 
L 683.167248 459.768566 
L 683.792653 459.653754 
L 684.626526 459.441652 
L 685.668867 459.508098 
L 687.128144 459.554315 
L 688.170486 459.500131 
L 688.79589 459.765739 
L 689.629763 460.162695 
L 690.255168 460.169437 
L 692.339851 459.798908 
L 693.173724 459.6305 
L 693.799128 459.765602 
L 694.633001 459.965304 
L 696.092279 460.017643 
L 696.926152 460.364803 
L 697.343088 460.334546 
L 698.593898 459.977809 
L 700.261644 460.301969 
L 702.554795 460.307069 
L 703.597136 460.339764 
L 704.22254 460.044041 
L 704.847945 459.701679 
L 705.264882 459.673743 
L 705.890286 459.99953 
L 706.515691 460.304924 
L 706.932628 460.223299 
L 707.558032 459.699807 
L 708.391905 458.944928 
L 709.01731 458.660278 
L 710.059651 458.49427 
L 710.893524 458.337534 
L 712.769738 457.533587 
L 713.186675 457.01055 
L 713.81208 455.533445 
L 714.645953 453.529954 
L 715.479826 452.049677 
L 715.896762 450.796394 
L 716.522167 447.99519 
L 717.772976 440.872768 
L 719.023786 432.037043 
L 721.316936 414.513971 
L 721.733873 413.162281 
L 721.942341 412.832345 
L 722.150809 412.712716 
L 722.359278 412.794034 
L 722.567746 413.073439 
L 722.984682 414.277431 
L 723.401619 416.346386 
L 724.027024 420.866634 
L 726.528643 441.316436 
L 727.362516 445.844458 
L 728.196389 449.166563 
L 729.447198 453.344448 
L 730.072603 454.736729 
L 731.114944 456.151669 
L 732.365753 457.699542 
L 732.991158 458.087417 
L 733.616563 458.250813 
L 734.658904 458.37913 
L 735.284309 458.732317 
L 736.32665 459.400719 
L 736.743587 459.463302 
L 738.202864 459.401787 
L 739.036737 459.73516 
L 741.955293 459.997824 
L 743.41457 460.565262 
L 744.456912 460.507817 
L 745.916189 460.123925 
L 746.958531 460.364954 
L 748.20934 460.123067 
L 749.043213 460.188432 
L 750.502491 460.112767 
L 751.336364 460.12476 
L 751.961768 460.424118 
L 752.587173 460.66216 
L 753.212578 460.505857 
L 753.629514 460.41578 
L 754.046451 460.512504 
L 754.671856 460.754763 
L 755.088792 460.708918 
L 756.339601 460.210193 
L 760.300498 460.88121 
L 760.925903 461.092115 
L 761.342839 461.061006 
L 762.385181 460.761602 
L 763.63599 460.833736 
L 764.678331 460.155109 
L 765.095268 460.225957 
L 766.346077 460.946273 
L 766.971482 460.866101 
L 768.222291 460.536298 
L 770.515442 460.65788 
L 771.140847 460.757856 
L 771.766252 460.621201 
L 772.600125 460.400545 
L 774.059402 460.397367 
L 777.394894 460.91575 
L 778.020299 460.72094 
L 778.645704 460.556631 
L 779.06264 460.687244 
L 780.31345 461.408604 
L 780.938854 461.184053 
L 781.772727 460.892013 
L 782.815068 460.846339 
L 784.274346 460.971005 
L 785.733624 460.470295 
L 786.359029 460.617549 
L 787.40137 460.926157 
L 788.026775 460.777768 
L 788.860648 460.55869 
L 791.153798 460.627848 
L 793.030012 461.114148 
L 793.863885 460.846025 
L 794.48929 460.749897 
L 795.114695 460.928311 
L 795.948568 461.192705 
L 796.573973 461.175693 
L 797.199377 460.890489 
L 797.824782 460.592315 
L 798.450187 460.558825 
L 799.075592 460.528071 
L 799.909465 460.397866 
L 800.326401 460.570954 
L 801.160274 461.072164 
L 801.785679 461.113343 
L 802.411083 461.180736 
L 803.244956 461.486709 
L 803.661893 461.397884 
L 804.912702 460.728409 
L 805.538107 460.829225 
L 806.37198 460.923006 
L 807.205853 460.723214 
L 808.248194 460.467669 
L 809.082067 460.581066 
L 810.124408 460.742827 
L 812.834496 460.790754 
L 813.668369 460.998065 
L 814.085305 460.832119 
L 814.71071 460.508979 
L 815.127646 460.543166 
L 815.961519 460.742607 
L 817.003861 460.679301 
L 817.629265 460.742415 
L 818.880075 460.51791 
L 819.713948 460.846049 
L 820.130884 460.758257 
L 820.964757 460.476995 
L 821.590162 460.66686 
L 822.215567 460.746558 
L 823.257908 460.628027 
L 823.883313 460.633894 
L 824.925654 460.380666 
L 825.34259 460.652699 
L 825.967995 461.192589 
L 826.176463 461.235217 
L 826.5934 461.014393 
L 827.427273 460.418926 
L 828.052677 460.43378 
L 828.88655 460.450106 
L 829.511955 460.53971 
L 830.554296 460.818891 
L 832.222042 460.859449 
L 833.264384 460.639287 
L 834.098257 460.674524 
L 836.182939 459.945272 
L 836.808344 459.415886 
L 838.059153 457.931346 
L 838.684558 457.354498 
L 839.101494 457.291756 
L 839.518431 457.481171 
L 840.76924 458.560225 
L 842.228518 459.63496 
L 843.062391 460.057093 
L 843.896264 460.190247 
L 845.772478 460.390769 
L 846.606351 460.609562 
L 847.231756 460.739315 
L 847.648692 460.617554 
L 848.274097 460.337114 
L 848.691034 460.41615 
L 849.733375 461.095192 
L 850.150311 461.030266 
L 850.775716 460.782902 
L 851.192653 460.849964 
L 852.026526 461.202316 
L 852.443462 461.09028 
L 853.277335 460.639556 
L 853.90274 460.676245 
L 854.736613 460.735825 
L 855.362017 460.815174 
L 856.404359 461.305011 
L 856.821295 461.21632 
L 857.655168 460.859868 
L 860.573724 460.612334 
L 861.616065 460.783941 
L 862.658406 460.734226 
L 863.283811 461.193808 
L 863.700747 461.477669 
L 864.117684 461.482091 
L 865.368493 460.857369 
L 866.827771 461.284483 
L 868.495517 461.132396 
L 869.120922 460.93268 
L 869.746326 460.982363 
L 870.580199 461.029736 
L 873.081818 460.91145 
L 874.332628 461.541689 
L 874.958032 461.265484 
L 876.834247 460.403886 
L 877.251183 460.421612 
L 878.710461 461.016427 
L 879.752802 461.048432 
L 880.586675 461.08089 
L 882.671357 460.743872 
L 883.713699 460.774821 
L 885.172976 461.019283 
L 886.006849 461.13655 
L 887.257659 461.442774 
L 887.674595 461.270651 
L 888.925405 460.39219 
L 889.342341 460.456837 
L 890.593151 461.004777 
L 893.09477 461.082853 
L 893.928643 460.731385 
L 894.762516 460.751328 
L 896.013325 460.846235 
L 897.055666 461.19128 
L 897.681071 461.052932 
L 898.514944 460.842892 
L 899.348817 460.837862 
L 902.267372 461.237677 
L 902.892777 461.03216 
L 903.518182 460.762469 
L 904.143587 460.7649 
L 905.602864 461.112541 
L 907.27061 460.75689 
L 908.104483 461.063887 
L 908.729888 461.196513 
L 909.355293 461.007978 
L 909.980697 460.843587 
L 911.648443 460.812291 
L 912.690785 461.199219 
L 913.524658 461.231836 
L 914.566999 461.7 
L 914.983935 461.504157 
L 915.60934 461.008997 
L 916.026276 460.945932 
L 916.651681 461.232926 
L 917.068618 461.383444 
L 917.485554 461.346143 
L 918.319427 461.09087 
L 918.944832 461.207652 
L 919.570237 461.306857 
L 922.488792 460.822379 
L 923.739601 460.977096 
L 924.781943 461.282054 
L 926.449689 461.233225 
L 927.283562 461.18964 
L 928.117435 461.129367 
L 928.742839 461.117841 
L 929.785181 461.368369 
L 931.244458 460.824317 
L 931.869863 461.153022 
L 932.495268 461.474226 
L 932.912204 461.430962 
L 933.329141 461.126675 
L 933.954545 460.594159 
L 933.954545 460.594159 
" clip-path="url(#p57c7e0276d)" style="fill: none; stroke: #ff7f0e; stroke-width: 1.5; stroke-linecap: square"/>
   </g>
   <g id="patch_3">
    <path d="M 135 480.6 
L 135 64.8 
" style="fill: none; stroke: #000000; stroke-width: 0.8; stroke-linejoin: miter; stroke-linecap: square"/>
   </g>
   <g id="patch_4">
    <path d="M 972 480.6 
L 972 64.8 
" style="fill: none; stroke: #000000; stroke-width: 0.8; stroke-linejoin: miter; stroke-linecap: square"/>
   </g>
   <g id="patch_5">
    <path d="M 135 480.6 
L 972 480.6 
" style="fill: none; stroke: #000000; stroke-width: 0.8; stroke-linejoin: miter; stroke-linecap: square"/>
   </g>
   <g id="patch_6">
    <path d="M 135 64.8 
L 972 64.8 
" style="fill: none; stroke: #000000; stroke-width: 0.8; stroke-linejoin: miter; stroke-linecap: square"/>
   </g>
   <g id="text_19">
    <!-- Selected Normalized Spectra on patterned graphene -->
    <g transform="translate(329.030937 58.8)scale(0.17 -0.17)">
     <defs>
      <path id="DejaVuSans-53" d="M 3425 4513 
L 3425 3897 
Q 3066 4069 2747 4153 
Q 2428 4238 2131 4238 
Q 1616 4238 1336 4038 
Q 1056 3838 1056 3469 
Q 1056 3159 1242 3001 
Q 1428 2844 1947 2747 
L 2328 2669 
Q 3034 2534 3370 2195 
Q 3706 1856 3706 1288 
Q 3706 609 3251 259 
Q 2797 -91 1919 -91 
Q 1588 -91 1214 -16 
Q 841 59 441 206 
L 441 856 
Q 825 641 1194 531 
Q 1563 422 1919 422 
Q 2459 422 2753 634 
Q 3047 847 3047 1241 
Q 3047 1584 2836 1778 
Q 2625 1972 2144 2069 
L 1759 2144 
Q 1053 2284 737 2584 
Q 422 2884 422 3419 
Q 422 4038 858 4394 
Q 1294 4750 2059 4750 
Q 2388 4750 2728 4690 
Q 3069 4631 3425 4513 
z
" transform="scale(0.015625)"/>
      <path id="DejaVuSans-6c" d="M 603 4863 
L 1178 4863 
L 1178 0 
L 603 0 
L 603 4863 
z
" transform="scale(0.015625)"/>
      <path id="DejaVuSans-63" d="M 3122 3366 
L 3122 2828 
Q 2878 2963 2633 3030 
Q 2388 3097 2138 3097 
Q 1578 3097 1268 2742 
Q 959 2388 959 1747 
Q 959 1106 1268 751 
Q 1578 397 2138 397 
Q 2388 397 2633 464 
Q 2878 531 3122 666 
L 3122 134 
Q 2881 22 2623 -34 
Q 2366 -91 2075 -91 
Q 1284 -91 818 406 
Q 353 903 353 1747 
Q 353 2603 823 3093 
Q 1294 3584 2113 3584 
Q 2378 3584 2631 3529 
Q 2884 3475 3122 3366 
z
" transform="scale(0.015625)"/>
      <path id="DejaVuSans-64" d="M 2906 2969 
L 2906 4863 
L 3481 4863 
L 3481 0 
L 2906 0 
L 2906 525 
Q 2725 213 2448 61 
Q 2172 -91 1784 -91 
Q 1150 -91 751 415 
Q 353 922 353 1747 
Q 353 2572 751 3078 
Q 1150 3584 1784 3584 
Q 2172 3584 2448 3432 
Q 2725 3281 2906 2969 
z
M 947 1747 
Q 947 1113 1208 752 
Q 1469 391 1925 391 
Q 2381 391 2643 752 
Q 2906 1113 2906 1747 
Q 2906 2381 2643 2742 
Q 2381 3103 1925 3103 
Q 1469 3103 1208 2742 
Q 947 2381 947 1747 
z
" transform="scale(0.015625)"/>
      <path id="DejaVuSans-4e" d="M 628 4666 
L 1478 4666 
L 3547 763 
L 3547 4666 
L 4159 4666 
L 4159 0 
L 3309 0 
L 1241 3903 
L 1241 0 
L 628 0 
L 628 4666 
z
" transform="scale(0.015625)"/>
      <path id="DejaVuSans-6f" d="M 1959 3097 
Q 1497 3097 1228 2736 
Q 959 2375 959 1747 
Q 959 1119 1226 758 
Q 1494 397 1959 397 
Q 2419 397 2687 759 
Q 2956 1122 2956 1747 
Q 2956 2369 2687 2733 
Q 2419 3097 1959 3097 
z
M 1959 3584 
Q 2709 3584 3137 3096 
Q 3566 2609 3566 1747 
Q 3566 888 3137 398 
Q 2709 -91 1959 -91 
Q 1206 -91 779 398 
Q 353 888 353 1747 
Q 353 2609 779 3096 
Q 1206 3584 1959 3584 
z
" transform="scale(0.015625)"/>
      <path id="DejaVuSans-72" d="M 2631 2963 
Q 2534 3019 2420 3045 
Q 2306 3072 2169 3072 
Q 1681 3072 1420 2755 
Q 1159 2438 1159 1844 
L 1159 0 
L 581 0 
L 581 3500 
L 1159 3500 
L 1159 2956 
Q 1341 3275 1631 3429 
Q 1922 3584 2338 3584 
Q 2397 3584 2469 3576 
Q 2541 3569 2628 3553 
L 2631 2963 
z
" transform="scale(0.015625)"/>
      <path id="DejaVuSans-7a" d="M 353 3500 
L 3084 3500 
L 3084 2975 
L 922 459 
L 3084 459 
L 3084 0 
L 275 0 
L 275 525 
L 2438 3041 
L 353 3041 
L 353 3500 
z
" transform="scale(0.015625)"/>
      <path id="DejaVuSans-70" d="M 1159 525 
L 1159 -1331 
L 581 -1331 
L 581 3500 
L 1159 3500 
L 1159 2969 
Q 1341 3281 1617 3432 
Q 1894 3584 2278 3584 
Q 2916 3584 3314 3078 
Q 3713 2572 3713 1747 
Q 3713 922 3314 415 
Q 2916 -91 2278 -91 
Q 1894 -91 1617 61 
Q 1341 213 1159 525 
z
M 3116 1747 
Q 3116 2381 2855 2742 
Q 2594 3103 2138 3103 
Q 1681 3103 1420 2742 
Q 1159 2381 1159 1747 
Q 1159 1113 1420 752 
Q 1681 391 2138 391 
Q 2594 391 2855 752 
Q 3116 1113 3116 1747 
z
" transform="scale(0.015625)"/>
      <path id="DejaVuSans-67" d="M 2906 1791 
Q 2906 2416 2648 2759 
Q 2391 3103 1925 3103 
Q 1463 3103 1205 2759 
Q 947 2416 947 1791 
Q 947 1169 1205 825 
Q 1463 481 1925 481 
Q 2391 481 2648 825 
Q 2906 1169 2906 1791 
z
M 3481 434 
Q 3481 -459 3084 -895 
Q 2688 -1331 1869 -1331 
Q 1566 -1331 1297 -1286 
Q 1028 -1241 775 -1147 
L 775 -588 
Q 1028 -725 1275 -790 
Q 1522 -856 1778 -856 
Q 2344 -856 2625 -561 
Q 2906 -266 2906 331 
L 2906 616 
Q 2728 306 2450 153 
Q 2172 0 1784 0 
Q 1141 0 747 490 
Q 353 981 353 1791 
Q 353 2603 747 3093 
Q 1141 3584 1784 3584 
Q 2172 3584 2450 3431 
Q 2728 3278 2906 2969 
L 2906 3500 
L 3481 3500 
L 3481 434 
z
" transform="scale(0.015625)"/>
     </defs>
     <use xlink:href="#DejaVuSans-53"/>
     <use xlink:href="#DejaVuSans-65" x="63.476562"/>
     <use xlink:href="#DejaVuSans-6c" x="125"/>
     <use xlink:href="#DejaVuSans-65" x="152.783203"/>
     <use xlink:href="#DejaVuSans-63" x="214.306641"/>
     <use xlink:href="#DejaVuSans-74" x="269.287109"/>
     <use xlink:href="#DejaVuSans-65" x="308.496094"/>
     <use xlink:href="#DejaVuSans-64" x="370.019531"/>
     <use xlink:href="#DejaVuSans-20" x="433.496094"/>
     <use xlink:href="#DejaVuSans-4e" x="465.283203"/>
     <use xlink:href="#DejaVuSans-6f" x="540.087891"/>
     <use xlink:href="#DejaVuSans-72" x="601.269531"/>
     <use xlink:href="#DejaVuSans-6d" x="640.632812"/>
     <use xlink:href="#DejaVuSans-61" x="738.044922"/>
     <use xlink:href="#DejaVuSans-6c" x="799.324219"/>
     <use xlink:href="#DejaVuSans-69" x="827.107422"/>
     <use xlink:href="#DejaVuSans-7a" x="854.890625"/>
     <use xlink:href="#DejaVuSans-65" x="907.380859"/>
     <use xlink:href="#DejaVuSans-64" x="968.904297"/>
     <use xlink:href="#DejaVuSans-20" x="1032.380859"/>
     <use xlink:href="#DejaVuSans-53" x="1064.167969"/>
     <use xlink:href="#DejaVuSans-70" x="1127.644531"/>
     <use xlink:href="#DejaVuSans-65" x="1191.121094"/>
     <use xlink:href="#DejaVuSans-63" x="1252.644531"/>
     <use xlink:href="#DejaVuSans-74" x="1307.625"/>
     <use xlink:href="#DejaVuSans-72" x="1346.833984"/>
     <use xlink:href="#DejaVuSans-61" x="1387.947266"/>
     <use xlink:href="#DejaVuSans-20" x="1449.226562"/>
     <use xlink:href="#DejaVuSans-6f" x="1481.013672"/>
     <use xlink:href="#DejaVuSans-6e" x="1542.195312"/>
     <use xlink:href="#DejaVuSans-20" x="1605.574219"/>
     <use xlink:href="#DejaVuSans-70" x="1637.361328"/>
     <use xlink:href="#DejaVuSans-61" x="1700.837891"/>
     <use xlink:href="#DejaVuSans-74" x="1762.117188"/>
     <use xlink:href="#DejaVuSans-74" x="1801.326172"/>
     <use xlink:href="#DejaVuSans-65" x="1840.535156"/>
     <use xlink:href="#DejaVuSans-72" x="1902.058594"/>
     <use xlink:href="#DejaVuSans-6e" x="1941.421875"/>
     <use xlink:href="#DejaVuSans-65" x="2004.800781"/>
     <use xlink:href="#DejaVuSans-64" x="2066.324219"/>
     <use xlink:href="#DejaVuSans-20" x="2129.800781"/>
     <use xlink:href="#DejaVuSans-67" x="2161.587891"/>
     <use xlink:href="#DejaVuSans-72" x="2225.064453"/>
     <use xlink:href="#DejaVuSans-61" x="2266.177734"/>
     <use xlink:href="#DejaVuSans-70" x="2327.457031"/>
     <use xlink:href="#DejaVuSans-68" x="2390.933594"/>
     <use xlink:href="#DejaVuSans-65" x="2454.3125"/>
     <use xlink:href="#DejaVuSans-6e" x="2515.835938"/>
     <use xlink:href="#DejaVuSans-65" x="2579.214844"/>
    </g>
   </g>
   <g id="legend_1">
    <g id="patch_7">
     <path d="M 651.45 123.895313 
L 961.5 123.895313 
Q 964.5 123.895313 964.5 120.895313 
L 964.5 75.3 
Q 964.5 72.3 961.5 72.3 
L 651.45 72.3 
Q 648.45 72.3 648.45 75.3 
L 648.45 120.895313 
Q 648.45 123.895313 651.45 123.895313 
z
" style="fill: #ffffff; opacity: 0.8; stroke: #cccccc; stroke-linejoin: miter"/>
    </g>
    <g id="line2d_19">
     <path d="M 654.45 84.447656 
L 669.45 84.447656 
L 684.45 84.447656 
" style="fill: none; stroke: #1f77b4; stroke-width: 1.5; stroke-linecap: square"/>
    </g>
    <g id="text_20">
     <!-- x:25.7$\mu m$, y:19.6$\mu m$, $I_{d}/I_{g}$: 2.3974 -->
     <g transform="translate(696.45 89.697656)scale(0.15 -0.15)">
      <defs>
       <path id="DejaVuSans-78" d="M 3513 3500 
L 2247 1797 
L 3578 0 
L 2900 0 
L 1881 1375 
L 863 0 
L 184 0 
L 1544 1831 
L 300 3500 
L 978 3500 
L 1906 2253 
L 2834 3500 
L 3513 3500 
z
" transform="scale(0.015625)"/>
       <path id="DejaVuSans-3a" d="M 750 794 
L 1409 794 
L 1409 0 
L 750 0 
L 750 794 
z
M 750 3309 
L 1409 3309 
L 1409 2516 
L 750 2516 
L 750 3309 
z
" transform="scale(0.015625)"/>
       <path id="DejaVuSans-2e" d="M 684 794 
L 1344 794 
L 1344 0 
L 684 0 
L 684 794 
z
" transform="scale(0.015625)"/>
       <path id="DejaVuSans-37" d="M 525 4666 
L 3525 4666 
L 3525 4397 
L 1831 0 
L 1172 0 
L 2766 4134 
L 525 4134 
L 525 4666 
z
" transform="scale(0.015625)"/>
       <path id="DejaVuSans-Oblique-3bc" d="M -84 -1331 
L 856 3500 
L 1434 3500 
L 1009 1322 
Q 997 1256 987 1175 
Q 978 1094 978 1013 
Q 978 722 1161 565 
Q 1344 409 1684 409 
Q 2147 409 2431 671 
Q 2716 934 2816 1459 
L 3213 3500 
L 3788 3500 
L 3266 809 
Q 3253 750 3248 706 
Q 3244 663 3244 628 
Q 3244 531 3283 486 
Q 3322 441 3406 441 
Q 3438 441 3492 456 
Q 3547 472 3647 513 
L 3559 50 
Q 3422 -19 3297 -55 
Q 3172 -91 3053 -91 
Q 2847 -91 2730 40 
Q 2613 172 2613 403 
Q 2438 153 2195 31 
Q 1953 -91 1625 -91 
Q 1334 -91 1117 43 
Q 900 178 831 397 
L 494 -1331 
L -84 -1331 
z
" transform="scale(0.015625)"/>
       <path id="DejaVuSans-2c" d="M 750 794 
L 1409 794 
L 1409 256 
L 897 -744 
L 494 -744 
L 750 256 
L 750 794 
z
" transform="scale(0.015625)"/>
       <path id="DejaVuSans-39" d="M 703 97 
L 703 672 
Q 941 559 1184 500 
Q 1428 441 1663 441 
Q 2288 441 2617 861 
Q 2947 1281 2994 2138 
Q 2813 1869 2534 1725 
Q 2256 1581 1919 1581 
Q 1219 1581 811 2004 
Q 403 2428 403 3163 
Q 403 3881 828 4315 
Q 1253 4750 1959 4750 
Q 2769 4750 3195 4129 
Q 3622 3509 3622 2328 
Q 3622 1225 3098 567 
Q 2575 -91 1691 -91 
Q 1453 -91 1209 -44 
Q 966 3 703 97 
z
M 1959 2075 
Q 2384 2075 2632 2365 
Q 2881 2656 2881 3163 
Q 2881 3666 2632 3958 
Q 2384 4250 1959 4250 
Q 1534 4250 1286 3958 
Q 1038 3666 1038 3163 
Q 1038 2656 1286 2365 
Q 1534 2075 1959 2075 
z
" transform="scale(0.015625)"/>
       <path id="DejaVuSans-Oblique-49" d="M 1081 4666 
L 1716 4666 
L 806 0 
L 172 0 
L 1081 4666 
z
" transform="scale(0.015625)"/>
       <path id="DejaVuSans-Oblique-64" d="M 2675 525 
Q 2444 222 2128 65 
Q 1813 -91 1428 -91 
Q 903 -91 598 267 
Q 294 625 294 1247 
Q 294 1766 478 2236 
Q 663 2706 1013 3078 
Q 1244 3325 1534 3454 
Q 1825 3584 2144 3584 
Q 2481 3584 2739 3421 
Q 2997 3259 3138 2956 
L 3513 4863 
L 4091 4863 
L 3144 0 
L 2566 0 
L 2675 525 
z
M 891 1350 
Q 891 897 1095 644 
Q 1300 391 1663 391 
Q 1931 391 2161 520 
Q 2391 650 2566 903 
Q 2750 1166 2856 1509 
Q 2963 1853 2963 2188 
Q 2963 2622 2758 2865 
Q 2553 3109 2194 3109 
Q 1922 3109 1687 2981 
Q 1453 2853 1288 2613 
Q 1106 2353 998 2009 
Q 891 1666 891 1350 
z
" transform="scale(0.015625)"/>
       <path id="DejaVuSans-Oblique-67" d="M 3816 3500 
L 3219 434 
Q 3047 -456 2561 -893 
Q 2075 -1331 1253 -1331 
Q 950 -1331 690 -1286 
Q 431 -1241 206 -1147 
L 313 -588 
Q 525 -725 762 -790 
Q 1000 -856 1269 -856 
Q 1816 -856 2167 -557 
Q 2519 -259 2631 300 
L 2681 563 
Q 2441 288 2122 144 
Q 1803 0 1434 0 
Q 903 0 598 351 
Q 294 703 294 1319 
Q 294 1803 478 2267 
Q 663 2731 997 3091 
Q 1219 3328 1514 3456 
Q 1809 3584 2131 3584 
Q 2484 3584 2746 3420 
Q 3009 3256 3138 2956 
L 3238 3500 
L 3816 3500 
z
M 2950 2216 
Q 2950 2641 2750 2872 
Q 2550 3103 2181 3103 
Q 1953 3103 1747 3012 
Q 1541 2922 1394 2759 
Q 1156 2491 1023 2127 
Q 891 1763 891 1375 
Q 891 944 1092 712 
Q 1294 481 1672 481 
Q 2219 481 2584 976 
Q 2950 1472 2950 2216 
z
" transform="scale(0.015625)"/>
      </defs>
      <use xlink:href="#DejaVuSans-78" transform="translate(0 0.78125)"/>
      <use xlink:href="#DejaVuSans-3a" transform="translate(59.179688 0.78125)"/>
      <use xlink:href="#DejaVuSans-32" transform="translate(92.871094 0.78125)"/>
      <use xlink:href="#DejaVuSans-35" transform="translate(156.494141 0.78125)"/>
      <use xlink:href="#DejaVuSans-2e" transform="translate(220.117188 0.78125)"/>
      <use xlink:href="#DejaVuSans-37" transform="translate(244.154297 0.78125)"/>
      <use xlink:href="#DejaVuSans-Oblique-3bc" transform="translate(307.777344 0.78125)"/>
      <use xlink:href="#DejaVuSans-Oblique-6d" transform="translate(371.400391 0.78125)"/>
      <use xlink:href="#DejaVuSans-2c" transform="translate(468.8125 0.78125)"/>
      <use xlink:href="#DejaVuSans-20" transform="translate(500.599609 0.78125)"/>
      <use xlink:href="#DejaVuSans-79" transform="translate(532.386719 0.78125)"/>
      <use xlink:href="#DejaVuSans-3a" transform="translate(591.566406 0.78125)"/>
      <use xlink:href="#DejaVuSans-31" transform="translate(625.257812 0.78125)"/>
      <use xlink:href="#DejaVuSans-39" transform="translate(688.880859 0.78125)"/>
      <use xlink:href="#DejaVuSans-2e" transform="translate(752.503906 0.78125)"/>
      <use xlink:href="#DejaVuSans-36" transform="translate(784.291016 0.78125)"/>
      <use xlink:href="#DejaVuSans-Oblique-3bc" transform="translate(847.914062 0.78125)"/>
      <use xlink:href="#DejaVuSans-Oblique-6d" transform="translate(911.537109 0.78125)"/>
      <use xlink:href="#DejaVuSans-2c" transform="translate(1008.949219 0.78125)"/>
      <use xlink:href="#DejaVuSans-20" transform="translate(1040.736328 0.78125)"/>
      <use xlink:href="#DejaVuSans-Oblique-49" transform="translate(1072.523438 0.78125)"/>
      <use xlink:href="#DejaVuSans-Oblique-64" transform="translate(1102.015625 -15.625)scale(0.7)"/>
      <use xlink:href="#DejaVuSans-2f" transform="translate(1149.183594 0.78125)"/>
      <use xlink:href="#DejaVuSans-Oblique-49" transform="translate(1182.875 0.78125)"/>
      <use xlink:href="#DejaVuSans-Oblique-67" transform="translate(1212.367188 -15.625)scale(0.7)"/>
      <use xlink:href="#DejaVuSans-3a" transform="translate(1259.535156 0.78125)"/>
      <use xlink:href="#DejaVuSans-20" transform="translate(1293.226562 0.78125)"/>
      <use xlink:href="#DejaVuSans-32" transform="translate(1325.013672 0.78125)"/>
      <use xlink:href="#DejaVuSans-2e" transform="translate(1388.636719 0.78125)"/>
      <use xlink:href="#DejaVuSans-33" transform="translate(1420.423828 0.78125)"/>
      <use xlink:href="#DejaVuSans-39" transform="translate(1484.046875 0.78125)"/>
      <use xlink:href="#DejaVuSans-37" transform="translate(1547.669922 0.78125)"/>
      <use xlink:href="#DejaVuSans-34" transform="translate(1611.292969 0.78125)"/>
     </g>
    </g>
    <g id="line2d_20">
     <path d="M 654.45 107.995313 
L 669.45 107.995313 
L 684.45 107.995313 
" style="fill: none; stroke: #ff7f0e; stroke-width: 1.5; stroke-linecap: square"/>
    </g>
    <g id="text_21">
     <!-- x:20.3$\mu m$, y:31.9$\mu m$, $I_{d}/I_{g}$: 0.11193 -->
     <g transform="translate(696.45 113.245313)scale(0.15 -0.15)">
      <use xlink:href="#DejaVuSans-78" transform="translate(0 0.78125)"/>
      <use xlink:href="#DejaVuSans-3a" transform="translate(59.179688 0.78125)"/>
      <use xlink:href="#DejaVuSans-32" transform="translate(92.871094 0.78125)"/>
      <use xlink:href="#DejaVuSans-30" transform="translate(156.494141 0.78125)"/>
      <use xlink:href="#DejaVuSans-2e" transform="translate(220.117188 0.78125)"/>
      <use xlink:href="#DejaVuSans-33" transform="translate(251.904297 0.78125)"/>
      <use xlink:href="#DejaVuSans-Oblique-3bc" transform="translate(315.527344 0.78125)"/>
      <use xlink:href="#DejaVuSans-Oblique-6d" transform="translate(379.150391 0.78125)"/>
      <use xlink:href="#DejaVuSans-2c" transform="translate(476.5625 0.78125)"/>
      <use xlink:href="#DejaVuSans-20" transform="translate(508.349609 0.78125)"/>
      <use xlink:href="#DejaVuSans-79" transform="translate(540.136719 0.78125)"/>
      <use xlink:href="#DejaVuSans-3a" transform="translate(599.316406 0.78125)"/>
      <use xlink:href="#DejaVuSans-33" transform="translate(633.007812 0.78125)"/>
      <use xlink:href="#DejaVuSans-31" transform="translate(696.630859 0.78125)"/>
      <use xlink:href="#DejaVuSans-2e" transform="translate(760.253906 0.78125)"/>
      <use xlink:href="#DejaVuSans-39" transform="translate(792.041016 0.78125)"/>
      <use xlink:href="#DejaVuSans-Oblique-3bc" transform="translate(855.664062 0.78125)"/>
      <use xlink:href="#DejaVuSans-Oblique-6d" transform="translate(919.287109 0.78125)"/>
      <use xlink:href="#DejaVuSans-2c" transform="translate(1016.699219 0.78125)"/>
      <use xlink:href="#DejaVuSans-20" transform="translate(1048.486328 0.78125)"/>
      <use xlink:href="#DejaVuSans-Oblique-49" transform="translate(1080.273438 0.78125)"/>
      <use xlink:href="#DejaVuSans-Oblique-64" transform="translate(1109.765625 -15.625)scale(0.7)"/>
      <use xlink:href="#DejaVuSans-2f" transform="translate(1156.933594 0.78125)"/>
      <use xlink:href="#DejaVuSans-Oblique-49" transform="translate(1190.625 0.78125)"/>
      <use xlink:href="#DejaVuSans-Oblique-67" transform="translate(1220.117188 -15.625)scale(0.7)"/>
      <use xlink:href="#DejaVuSans-3a" transform="translate(1267.285156 0.78125)"/>
      <use xlink:href="#DejaVuSans-20" transform="translate(1300.976562 0.78125)"/>
      <use xlink:href="#DejaVuSans-30" transform="translate(1332.763672 0.78125)"/>
      <use xlink:href="#DejaVuSans-2e" transform="translate(1396.386719 0.78125)"/>
      <use xlink:href="#DejaVuSans-31" transform="translate(1428.173828 0.78125)"/>
      <use xlink:href="#DejaVuSans-31" transform="translate(1491.796875 0.78125)"/>
      <use xlink:href="#DejaVuSans-31" transform="translate(1555.419922 0.78125)"/>
      <use xlink:href="#DejaVuSans-39" transform="translate(1619.042969 0.78125)"/>
      <use xlink:href="#DejaVuSans-33" transform="translate(1682.666016 0.78125)"/>
     </g>
    </g>
   </g>
  </g>
 </g>
 <defs>
  <clipPath id="p57c7e0276d">
   <rect x="135" y="64.8" width="837" height="415.8"/>
  </clipPath>
 </defs>
</svg>
