<?xml version="1.0" encoding="utf-8" standalone="no"?>
<!DOCTYPE svg PUBLIC "-//W3C//DTD SVG 1.1//EN"
  "http://www.w3.org/Graphics/SVG/1.1/DTD/svg11.dtd">
<svg xmlns:xlink="http://www.w3.org/1999/xlink" width="1080pt" height="540pt" viewBox="0 0 1080 540" xmlns="http://www.w3.org/2000/svg" version="1.1">
 <metadata>
  <rdf:RDF xmlns:dc="http://purl.org/dc/elements/1.1/" xmlns:cc="http://creativecommons.org/ns#" xmlns:rdf="http://www.w3.org/1999/02/22-rdf-syntax-ns#">
   <cc:Work>
    <dc:type rdf:resource="http://purl.org/dc/dcmitype/StillImage"/>
    <dc:date>2023-07-14T09:58:33.499186</dc:date>
    <dc:format>image/svg+xml</dc:format>
    <dc:creator>
     <cc:Agent>
      <dc:title>Matplotlib v3.5.2, https://matplotlib.org/</dc:title>
     </cc:Agent>
    </dc:creator>
   </cc:Work>
  </rdf:RDF>
 </metadata>
 <defs>
  <style type="text/css">*{stroke-linejoin: round; stroke-linecap: butt}</style>
 </defs>
 <g id="figure_1">
  <g id="patch_1">
   <path d="M 0 540 
L 1080 540 
L 1080 0 
L 0 0 
z
" style="fill: #ffffff"/>
  </g>
  <g id="axes_1">
   <g id="patch_2">
    <path d="M 135 480.6 
L 972 480.6 
L 972 64.8 
L 135 64.8 
z
" style="fill: #ffffff"/>
   </g>
   <g id="matplotlib.axis_1">
    <g id="xtick_1">
     <g id="line2d_1">
      <defs>
       <path id="m06dba2329f" d="M 0 0 
L 0 3.5 
" style="stroke: #000000; stroke-width: 0.8"/>
      </defs>
      <g>
       <use xlink:href="#m06dba2329f" x="162.622042" y="480.6" style="stroke: #000000; stroke-width: 0.8"/>
      </g>
     </g>
     <g id="text_1">
      <!-- 0 -->
      <g transform="translate(157.532042 499.7575)scale(0.16 -0.16)">
       <defs>
        <path id="DejaVuSans-30" d="M 2034 4250 
Q 1547 4250 1301 3770 
Q 1056 3291 1056 2328 
Q 1056 1369 1301 889 
Q 1547 409 2034 409 
Q 2525 409 2770 889 
Q 3016 1369 3016 2328 
Q 3016 3291 2770 3770 
Q 2525 4250 2034 4250 
z
M 2034 4750 
Q 2819 4750 3233 4129 
Q 3647 3509 3647 2328 
Q 3647 1150 3233 529 
Q 2819 -91 2034 -91 
Q 1250 -91 836 529 
Q 422 1150 422 2328 
Q 422 3509 836 4129 
Q 1250 4750 2034 4750 
z
" transform="scale(0.015625)"/>
       </defs>
       <use xlink:href="#DejaVuSans-30"/>
      </g>
     </g>
    </g>
    <g id="xtick_2">
     <g id="line2d_2">
      <g>
       <use xlink:href="#m06dba2329f" x="266.856164" y="480.6" style="stroke: #000000; stroke-width: 0.8"/>
      </g>
     </g>
     <g id="text_2">
      <!-- 500 -->
      <g transform="translate(251.586164 499.7575)scale(0.16 -0.16)">
       <defs>
        <path id="DejaVuSans-35" d="M 691 4666 
L 3169 4666 
L 3169 4134 
L 1269 4134 
L 1269 2991 
Q 1406 3038 1543 3061 
Q 1681 3084 1819 3084 
Q 2600 3084 3056 2656 
Q 3513 2228 3513 1497 
Q 3513 744 3044 326 
Q 2575 -91 1722 -91 
Q 1428 -91 1123 -41 
Q 819 9 494 109 
L 494 744 
Q 775 591 1075 516 
Q 1375 441 1709 441 
Q 2250 441 2565 725 
Q 2881 1009 2881 1497 
Q 2881 1984 2565 2268 
Q 2250 2553 1709 2553 
Q 1456 2553 1204 2497 
Q 953 2441 691 2322 
L 691 4666 
z
" transform="scale(0.015625)"/>
       </defs>
       <use xlink:href="#DejaVuSans-35"/>
       <use xlink:href="#DejaVuSans-30" x="63.623047"/>
       <use xlink:href="#DejaVuSans-30" x="127.246094"/>
      </g>
     </g>
    </g>
    <g id="xtick_3">
     <g id="line2d_3">
      <g>
       <use xlink:href="#m06dba2329f" x="371.090286" y="480.6" style="stroke: #000000; stroke-width: 0.8"/>
      </g>
     </g>
     <g id="text_3">
      <!-- 1000 -->
      <g transform="translate(350.730286 499.7575)scale(0.16 -0.16)">
       <defs>
        <path id="DejaVuSans-31" d="M 794 531 
L 1825 531 
L 1825 4091 
L 703 3866 
L 703 4441 
L 1819 4666 
L 2450 4666 
L 2450 531 
L 3481 531 
L 3481 0 
L 794 0 
L 794 531 
z
" transform="scale(0.015625)"/>
       </defs>
       <use xlink:href="#DejaVuSans-31"/>
       <use xlink:href="#DejaVuSans-30" x="63.623047"/>
       <use xlink:href="#DejaVuSans-30" x="127.246094"/>
       <use xlink:href="#DejaVuSans-30" x="190.869141"/>
      </g>
     </g>
    </g>
    <g id="xtick_4">
     <g id="line2d_4">
      <g>
       <use xlink:href="#m06dba2329f" x="475.324408" y="480.6" style="stroke: #000000; stroke-width: 0.8"/>
      </g>
     </g>
     <g id="text_4">
      <!-- 1500 -->
      <g transform="translate(454.964408 499.7575)scale(0.16 -0.16)">
       <use xlink:href="#DejaVuSans-31"/>
       <use xlink:href="#DejaVuSans-35" x="63.623047"/>
       <use xlink:href="#DejaVuSans-30" x="127.246094"/>
       <use xlink:href="#DejaVuSans-30" x="190.869141"/>
      </g>
     </g>
    </g>
    <g id="xtick_5">
     <g id="line2d_5">
      <g>
       <use xlink:href="#m06dba2329f" x="579.558531" y="480.6" style="stroke: #000000; stroke-width: 0.8"/>
      </g>
     </g>
     <g id="text_5">
      <!-- 2000 -->
      <g transform="translate(559.198531 499.7575)scale(0.16 -0.16)">
       <defs>
        <path id="DejaVuSans-32" d="M 1228 531 
L 3431 531 
L 3431 0 
L 469 0 
L 469 531 
Q 828 903 1448 1529 
Q 2069 2156 2228 2338 
Q 2531 2678 2651 2914 
Q 2772 3150 2772 3378 
Q 2772 3750 2511 3984 
Q 2250 4219 1831 4219 
Q 1534 4219 1204 4116 
Q 875 4013 500 3803 
L 500 4441 
Q 881 4594 1212 4672 
Q 1544 4750 1819 4750 
Q 2544 4750 2975 4387 
Q 3406 4025 3406 3419 
Q 3406 3131 3298 2873 
Q 3191 2616 2906 2266 
Q 2828 2175 2409 1742 
Q 1991 1309 1228 531 
z
" transform="scale(0.015625)"/>
       </defs>
       <use xlink:href="#DejaVuSans-32"/>
       <use xlink:href="#DejaVuSans-30" x="63.623047"/>
       <use xlink:href="#DejaVuSans-30" x="127.246094"/>
       <use xlink:href="#DejaVuSans-30" x="190.869141"/>
      </g>
     </g>
    </g>
    <g id="xtick_6">
     <g id="line2d_6">
      <g>
       <use xlink:href="#m06dba2329f" x="683.792653" y="480.6" style="stroke: #000000; stroke-width: 0.8"/>
      </g>
     </g>
     <g id="text_6">
      <!-- 2500 -->
      <g transform="translate(663.432653 499.7575)scale(0.16 -0.16)">
       <use xlink:href="#DejaVuSans-32"/>
       <use xlink:href="#DejaVuSans-35" x="63.623047"/>
       <use xlink:href="#DejaVuSans-30" x="127.246094"/>
       <use xlink:href="#DejaVuSans-30" x="190.869141"/>
      </g>
     </g>
    </g>
    <g id="xtick_7">
     <g id="line2d_7">
      <g>
       <use xlink:href="#m06dba2329f" x="788.026775" y="480.6" style="stroke: #000000; stroke-width: 0.8"/>
      </g>
     </g>
     <g id="text_7">
      <!-- 3000 -->
      <g transform="translate(767.666775 499.7575)scale(0.16 -0.16)">
       <defs>
        <path id="DejaVuSans-33" d="M 2597 2516 
Q 3050 2419 3304 2112 
Q 3559 1806 3559 1356 
Q 3559 666 3084 287 
Q 2609 -91 1734 -91 
Q 1441 -91 1130 -33 
Q 819 25 488 141 
L 488 750 
Q 750 597 1062 519 
Q 1375 441 1716 441 
Q 2309 441 2620 675 
Q 2931 909 2931 1356 
Q 2931 1769 2642 2001 
Q 2353 2234 1838 2234 
L 1294 2234 
L 1294 2753 
L 1863 2753 
Q 2328 2753 2575 2939 
Q 2822 3125 2822 3475 
Q 2822 3834 2567 4026 
Q 2313 4219 1838 4219 
Q 1578 4219 1281 4162 
Q 984 4106 628 3988 
L 628 4550 
Q 988 4650 1302 4700 
Q 1616 4750 1894 4750 
Q 2613 4750 3031 4423 
Q 3450 4097 3450 3541 
Q 3450 3153 3228 2886 
Q 3006 2619 2597 2516 
z
" transform="scale(0.015625)"/>
       </defs>
       <use xlink:href="#DejaVuSans-33"/>
       <use xlink:href="#DejaVuSans-30" x="63.623047"/>
       <use xlink:href="#DejaVuSans-30" x="127.246094"/>
       <use xlink:href="#DejaVuSans-30" x="190.869141"/>
      </g>
     </g>
    </g>
    <g id="xtick_8">
     <g id="line2d_8">
      <g>
       <use xlink:href="#m06dba2329f" x="892.260897" y="480.6" style="stroke: #000000; stroke-width: 0.8"/>
      </g>
     </g>
     <g id="text_8">
      <!-- 3500 -->
      <g transform="translate(871.900897 499.7575)scale(0.16 -0.16)">
       <use xlink:href="#DejaVuSans-33"/>
       <use xlink:href="#DejaVuSans-35" x="63.623047"/>
       <use xlink:href="#DejaVuSans-30" x="127.246094"/>
       <use xlink:href="#DejaVuSans-30" x="190.869141"/>
      </g>
     </g>
    </g>
    <g id="text_9">
     <!-- Raman shift / $cm^{-1}$ -->
     <g transform="translate(476.46 519.7575)scale(0.16 -0.16)">
      <defs>
       <path id="DejaVuSans-52" d="M 2841 2188 
Q 3044 2119 3236 1894 
Q 3428 1669 3622 1275 
L 4263 0 
L 3584 0 
L 2988 1197 
Q 2756 1666 2539 1819 
Q 2322 1972 1947 1972 
L 1259 1972 
L 1259 0 
L 628 0 
L 628 4666 
L 2053 4666 
Q 2853 4666 3247 4331 
Q 3641 3997 3641 3322 
Q 3641 2881 3436 2590 
Q 3231 2300 2841 2188 
z
M 1259 4147 
L 1259 2491 
L 2053 2491 
Q 2509 2491 2742 2702 
Q 2975 2913 2975 3322 
Q 2975 3731 2742 3939 
Q 2509 4147 2053 4147 
L 1259 4147 
z
" transform="scale(0.015625)"/>
       <path id="DejaVuSans-61" d="M 2194 1759 
Q 1497 1759 1228 1600 
Q 959 1441 959 1056 
Q 959 750 1161 570 
Q 1363 391 1709 391 
Q 2188 391 2477 730 
Q 2766 1069 2766 1631 
L 2766 1759 
L 2194 1759 
z
M 3341 1997 
L 3341 0 
L 2766 0 
L 2766 531 
Q 2569 213 2275 61 
Q 1981 -91 1556 -91 
Q 1019 -91 701 211 
Q 384 513 384 1019 
Q 384 1609 779 1909 
Q 1175 2209 1959 2209 
L 2766 2209 
L 2766 2266 
Q 2766 2663 2505 2880 
Q 2244 3097 1772 3097 
Q 1472 3097 1187 3025 
Q 903 2953 641 2809 
L 641 3341 
Q 956 3463 1253 3523 
Q 1550 3584 1831 3584 
Q 2591 3584 2966 3190 
Q 3341 2797 3341 1997 
z
" transform="scale(0.015625)"/>
       <path id="DejaVuSans-6d" d="M 3328 2828 
Q 3544 3216 3844 3400 
Q 4144 3584 4550 3584 
Q 5097 3584 5394 3201 
Q 5691 2819 5691 2113 
L 5691 0 
L 5113 0 
L 5113 2094 
Q 5113 2597 4934 2840 
Q 4756 3084 4391 3084 
Q 3944 3084 3684 2787 
Q 3425 2491 3425 1978 
L 3425 0 
L 2847 0 
L 2847 2094 
Q 2847 2600 2669 2842 
Q 2491 3084 2119 3084 
Q 1678 3084 1418 2786 
Q 1159 2488 1159 1978 
L 1159 0 
L 581 0 
L 581 3500 
L 1159 3500 
L 1159 2956 
Q 1356 3278 1631 3431 
Q 1906 3584 2284 3584 
Q 2666 3584 2933 3390 
Q 3200 3197 3328 2828 
z
" transform="scale(0.015625)"/>
       <path id="DejaVuSans-6e" d="M 3513 2113 
L 3513 0 
L 2938 0 
L 2938 2094 
Q 2938 2591 2744 2837 
Q 2550 3084 2163 3084 
Q 1697 3084 1428 2787 
Q 1159 2491 1159 1978 
L 1159 0 
L 581 0 
L 581 3500 
L 1159 3500 
L 1159 2956 
Q 1366 3272 1645 3428 
Q 1925 3584 2291 3584 
Q 2894 3584 3203 3211 
Q 3513 2838 3513 2113 
z
" transform="scale(0.015625)"/>
       <path id="DejaVuSans-20" transform="scale(0.015625)"/>
       <path id="DejaVuSans-73" d="M 2834 3397 
L 2834 2853 
Q 2591 2978 2328 3040 
Q 2066 3103 1784 3103 
Q 1356 3103 1142 2972 
Q 928 2841 928 2578 
Q 928 2378 1081 2264 
Q 1234 2150 1697 2047 
L 1894 2003 
Q 2506 1872 2764 1633 
Q 3022 1394 3022 966 
Q 3022 478 2636 193 
Q 2250 -91 1575 -91 
Q 1294 -91 989 -36 
Q 684 19 347 128 
L 347 722 
Q 666 556 975 473 
Q 1284 391 1588 391 
Q 1994 391 2212 530 
Q 2431 669 2431 922 
Q 2431 1156 2273 1281 
Q 2116 1406 1581 1522 
L 1381 1569 
Q 847 1681 609 1914 
Q 372 2147 372 2553 
Q 372 3047 722 3315 
Q 1072 3584 1716 3584 
Q 2034 3584 2315 3537 
Q 2597 3491 2834 3397 
z
" transform="scale(0.015625)"/>
       <path id="DejaVuSans-68" d="M 3513 2113 
L 3513 0 
L 2938 0 
L 2938 2094 
Q 2938 2591 2744 2837 
Q 2550 3084 2163 3084 
Q 1697 3084 1428 2787 
Q 1159 2491 1159 1978 
L 1159 0 
L 581 0 
L 581 4863 
L 1159 4863 
L 1159 2956 
Q 1366 3272 1645 3428 
Q 1925 3584 2291 3584 
Q 2894 3584 3203 3211 
Q 3513 2838 3513 2113 
z
" transform="scale(0.015625)"/>
       <path id="DejaVuSans-69" d="M 603 3500 
L 1178 3500 
L 1178 0 
L 603 0 
L 603 3500 
z
M 603 4863 
L 1178 4863 
L 1178 4134 
L 603 4134 
L 603 4863 
z
" transform="scale(0.015625)"/>
       <path id="DejaVuSans-66" d="M 2375 4863 
L 2375 4384 
L 1825 4384 
Q 1516 4384 1395 4259 
Q 1275 4134 1275 3809 
L 1275 3500 
L 2222 3500 
L 2222 3053 
L 1275 3053 
L 1275 0 
L 697 0 
L 697 3053 
L 147 3053 
L 147 3500 
L 697 3500 
L 697 3744 
Q 697 4328 969 4595 
Q 1241 4863 1831 4863 
L 2375 4863 
z
" transform="scale(0.015625)"/>
       <path id="DejaVuSans-74" d="M 1172 4494 
L 1172 3500 
L 2356 3500 
L 2356 3053 
L 1172 3053 
L 1172 1153 
Q 1172 725 1289 603 
Q 1406 481 1766 481 
L 2356 481 
L 2356 0 
L 1766 0 
Q 1100 0 847 248 
Q 594 497 594 1153 
L 594 3053 
L 172 3053 
L 172 3500 
L 594 3500 
L 594 4494 
L 1172 4494 
z
" transform="scale(0.015625)"/>
       <path id="DejaVuSans-2f" d="M 1625 4666 
L 2156 4666 
L 531 -594 
L 0 -594 
L 1625 4666 
z
" transform="scale(0.015625)"/>
       <path id="DejaVuSans-Oblique-63" d="M 3431 3366 
L 3316 2797 
Q 3109 2947 2876 3022 
Q 2644 3097 2394 3097 
Q 2119 3097 1870 3000 
Q 1622 2903 1453 2725 
Q 1184 2453 1037 2087 
Q 891 1722 891 1331 
Q 891 859 1127 628 
Q 1363 397 1844 397 
Q 2081 397 2348 469 
Q 2616 541 2906 684 
L 2797 116 
Q 2547 13 2283 -39 
Q 2019 -91 1741 -91 
Q 1044 -91 669 257 
Q 294 606 294 1253 
Q 294 1797 489 2255 
Q 684 2713 1069 3078 
Q 1331 3328 1684 3456 
Q 2038 3584 2456 3584 
Q 2700 3584 2940 3529 
Q 3181 3475 3431 3366 
z
" transform="scale(0.015625)"/>
       <path id="DejaVuSans-Oblique-6d" d="M 5747 2113 
L 5338 0 
L 4763 0 
L 5166 2094 
Q 5191 2228 5203 2325 
Q 5216 2422 5216 2491 
Q 5216 2772 5059 2928 
Q 4903 3084 4622 3084 
Q 4203 3084 3875 2770 
Q 3547 2456 3450 1953 
L 3066 0 
L 2491 0 
L 2900 2094 
Q 2925 2209 2937 2307 
Q 2950 2406 2950 2484 
Q 2950 2769 2794 2926 
Q 2638 3084 2363 3084 
Q 1938 3084 1609 2770 
Q 1281 2456 1184 1953 
L 800 0 
L 225 0 
L 909 3500 
L 1484 3500 
L 1375 2956 
Q 1609 3263 1923 3423 
Q 2238 3584 2597 3584 
Q 2978 3584 3223 3384 
Q 3469 3184 3519 2828 
Q 3781 3197 4126 3390 
Q 4472 3584 4856 3584 
Q 5306 3584 5551 3325 
Q 5797 3066 5797 2591 
Q 5797 2488 5784 2364 
Q 5772 2241 5747 2113 
z
" transform="scale(0.015625)"/>
       <path id="DejaVuSans-2212" d="M 678 2272 
L 4684 2272 
L 4684 1741 
L 678 1741 
L 678 2272 
z
" transform="scale(0.015625)"/>
      </defs>
      <use xlink:href="#DejaVuSans-52" transform="translate(0 0.684375)"/>
      <use xlink:href="#DejaVuSans-61" transform="translate(69.482422 0.684375)"/>
      <use xlink:href="#DejaVuSans-6d" transform="translate(130.761719 0.684375)"/>
      <use xlink:href="#DejaVuSans-61" transform="translate(228.173828 0.684375)"/>
      <use xlink:href="#DejaVuSans-6e" transform="translate(289.453125 0.684375)"/>
      <use xlink:href="#DejaVuSans-20" transform="translate(352.832031 0.684375)"/>
      <use xlink:href="#DejaVuSans-73" transform="translate(384.619141 0.684375)"/>
      <use xlink:href="#DejaVuSans-68" transform="translate(436.71875 0.684375)"/>
      <use xlink:href="#DejaVuSans-69" transform="translate(500.097656 0.684375)"/>
      <use xlink:href="#DejaVuSans-66" transform="translate(527.880859 0.684375)"/>
      <use xlink:href="#DejaVuSans-74" transform="translate(563.085938 0.684375)"/>
      <use xlink:href="#DejaVuSans-20" transform="translate(602.294922 0.684375)"/>
      <use xlink:href="#DejaVuSans-2f" transform="translate(634.082031 0.684375)"/>
      <use xlink:href="#DejaVuSans-20" transform="translate(667.773438 0.684375)"/>
      <use xlink:href="#DejaVuSans-Oblique-63" transform="translate(699.560547 0.684375)"/>
      <use xlink:href="#DejaVuSans-Oblique-6d" transform="translate(754.541016 0.684375)"/>
      <use xlink:href="#DejaVuSans-2212" transform="translate(856.603021 38.965625)scale(0.7)"/>
      <use xlink:href="#DejaVuSans-31" transform="translate(915.255365 38.965625)scale(0.7)"/>
     </g>
    </g>
   </g>
   <g id="matplotlib.axis_2">
    <g id="ytick_1">
     <g id="line2d_9">
      <defs>
       <path id="mc6fbbb3ec2" d="M 0 0 
L -3.5 0 
" style="stroke: #000000; stroke-width: 0.8"/>
      </defs>
      <g>
       <use xlink:href="#mc6fbbb3ec2" x="135" y="461.7" style="stroke: #000000; stroke-width: 0.8"/>
      </g>
     </g>
     <g id="text_10">
      <!-- 0 -->
      <g transform="translate(117.82 467.77875)scale(0.16 -0.16)">
       <use xlink:href="#DejaVuSans-30"/>
      </g>
     </g>
    </g>
    <g id="ytick_2">
     <g id="line2d_10">
      <g>
       <use xlink:href="#mc6fbbb3ec2" x="135" y="398.875096" style="stroke: #000000; stroke-width: 0.8"/>
      </g>
     </g>
     <g id="text_11">
      <!-- 2 -->
      <g transform="translate(117.82 404.953846)scale(0.16 -0.16)">
       <use xlink:href="#DejaVuSans-32"/>
      </g>
     </g>
    </g>
    <g id="ytick_3">
     <g id="line2d_11">
      <g>
       <use xlink:href="#mc6fbbb3ec2" x="135" y="336.050192" style="stroke: #000000; stroke-width: 0.8"/>
      </g>
     </g>
     <g id="text_12">
      <!-- 4 -->
      <g transform="translate(117.82 342.128942)scale(0.16 -0.16)">
       <defs>
        <path id="DejaVuSans-34" d="M 2419 4116 
L 825 1625 
L 2419 1625 
L 2419 4116 
z
M 2253 4666 
L 3047 4666 
L 3047 1625 
L 3713 1625 
L 3713 1100 
L 3047 1100 
L 3047 0 
L 2419 0 
L 2419 1100 
L 313 1100 
L 313 1709 
L 2253 4666 
z
" transform="scale(0.015625)"/>
       </defs>
       <use xlink:href="#DejaVuSans-34"/>
      </g>
     </g>
    </g>
    <g id="ytick_4">
     <g id="line2d_12">
      <g>
       <use xlink:href="#mc6fbbb3ec2" x="135" y="273.225287" style="stroke: #000000; stroke-width: 0.8"/>
      </g>
     </g>
     <g id="text_13">
      <!-- 6 -->
      <g transform="translate(117.82 279.304037)scale(0.16 -0.16)">
       <defs>
        <path id="DejaVuSans-36" d="M 2113 2584 
Q 1688 2584 1439 2293 
Q 1191 2003 1191 1497 
Q 1191 994 1439 701 
Q 1688 409 2113 409 
Q 2538 409 2786 701 
Q 3034 994 3034 1497 
Q 3034 2003 2786 2293 
Q 2538 2584 2113 2584 
z
M 3366 4563 
L 3366 3988 
Q 3128 4100 2886 4159 
Q 2644 4219 2406 4219 
Q 1781 4219 1451 3797 
Q 1122 3375 1075 2522 
Q 1259 2794 1537 2939 
Q 1816 3084 2150 3084 
Q 2853 3084 3261 2657 
Q 3669 2231 3669 1497 
Q 3669 778 3244 343 
Q 2819 -91 2113 -91 
Q 1303 -91 875 529 
Q 447 1150 447 2328 
Q 447 3434 972 4092 
Q 1497 4750 2381 4750 
Q 2619 4750 2861 4703 
Q 3103 4656 3366 4563 
z
" transform="scale(0.015625)"/>
       </defs>
       <use xlink:href="#DejaVuSans-36"/>
      </g>
     </g>
    </g>
    <g id="ytick_5">
     <g id="line2d_13">
      <g>
       <use xlink:href="#mc6fbbb3ec2" x="135" y="210.400383" style="stroke: #000000; stroke-width: 0.8"/>
      </g>
     </g>
     <g id="text_14">
      <!-- 8 -->
      <g transform="translate(117.82 216.479133)scale(0.16 -0.16)">
       <defs>
        <path id="DejaVuSans-38" d="M 2034 2216 
Q 1584 2216 1326 1975 
Q 1069 1734 1069 1313 
Q 1069 891 1326 650 
Q 1584 409 2034 409 
Q 2484 409 2743 651 
Q 3003 894 3003 1313 
Q 3003 1734 2745 1975 
Q 2488 2216 2034 2216 
z
M 1403 2484 
Q 997 2584 770 2862 
Q 544 3141 544 3541 
Q 544 4100 942 4425 
Q 1341 4750 2034 4750 
Q 2731 4750 3128 4425 
Q 3525 4100 3525 3541 
Q 3525 3141 3298 2862 
Q 3072 2584 2669 2484 
Q 3125 2378 3379 2068 
Q 3634 1759 3634 1313 
Q 3634 634 3220 271 
Q 2806 -91 2034 -91 
Q 1263 -91 848 271 
Q 434 634 434 1313 
Q 434 1759 690 2068 
Q 947 2378 1403 2484 
z
M 1172 3481 
Q 1172 3119 1398 2916 
Q 1625 2713 2034 2713 
Q 2441 2713 2670 2916 
Q 2900 3119 2900 3481 
Q 2900 3844 2670 4047 
Q 2441 4250 2034 4250 
Q 1625 4250 1398 4047 
Q 1172 3844 1172 3481 
z
" transform="scale(0.015625)"/>
       </defs>
       <use xlink:href="#DejaVuSans-38"/>
      </g>
     </g>
    </g>
    <g id="ytick_6">
     <g id="line2d_14">
      <g>
       <use xlink:href="#mc6fbbb3ec2" x="135" y="147.575479" style="stroke: #000000; stroke-width: 0.8"/>
      </g>
     </g>
     <g id="text_15">
      <!-- 10 -->
      <g transform="translate(107.64 153.654229)scale(0.16 -0.16)">
       <use xlink:href="#DejaVuSans-31"/>
       <use xlink:href="#DejaVuSans-30" x="63.623047"/>
      </g>
     </g>
    </g>
    <g id="ytick_7">
     <g id="line2d_15">
      <g>
       <use xlink:href="#mc6fbbb3ec2" x="135" y="84.750575" style="stroke: #000000; stroke-width: 0.8"/>
      </g>
     </g>
     <g id="text_16">
      <!-- 12 -->
      <g transform="translate(107.64 90.829325)scale(0.16 -0.16)">
       <use xlink:href="#DejaVuSans-31"/>
       <use xlink:href="#DejaVuSans-32" x="63.623047"/>
      </g>
     </g>
    </g>
    <g id="text_17">
     <!-- Intensity -->
     <g transform="translate(100.3125 307.52)rotate(-90)scale(0.16 -0.16)">
      <defs>
       <path id="DejaVuSans-49" d="M 628 4666 
L 1259 4666 
L 1259 0 
L 628 0 
L 628 4666 
z
" transform="scale(0.015625)"/>
       <path id="DejaVuSans-65" d="M 3597 1894 
L 3597 1613 
L 953 1613 
Q 991 1019 1311 708 
Q 1631 397 2203 397 
Q 2534 397 2845 478 
Q 3156 559 3463 722 
L 3463 178 
Q 3153 47 2828 -22 
Q 2503 -91 2169 -91 
Q 1331 -91 842 396 
Q 353 884 353 1716 
Q 353 2575 817 3079 
Q 1281 3584 2069 3584 
Q 2775 3584 3186 3129 
Q 3597 2675 3597 1894 
z
M 3022 2063 
Q 3016 2534 2758 2815 
Q 2500 3097 2075 3097 
Q 1594 3097 1305 2825 
Q 1016 2553 972 2059 
L 3022 2063 
z
" transform="scale(0.015625)"/>
       <path id="DejaVuSans-79" d="M 2059 -325 
Q 1816 -950 1584 -1140 
Q 1353 -1331 966 -1331 
L 506 -1331 
L 506 -850 
L 844 -850 
Q 1081 -850 1212 -737 
Q 1344 -625 1503 -206 
L 1606 56 
L 191 3500 
L 800 3500 
L 1894 763 
L 2988 3500 
L 3597 3500 
L 2059 -325 
z
" transform="scale(0.015625)"/>
      </defs>
      <use xlink:href="#DejaVuSans-49"/>
      <use xlink:href="#DejaVuSans-6e" x="29.492188"/>
      <use xlink:href="#DejaVuSans-74" x="92.871094"/>
      <use xlink:href="#DejaVuSans-65" x="132.080078"/>
      <use xlink:href="#DejaVuSans-6e" x="193.603516"/>
      <use xlink:href="#DejaVuSans-73" x="256.982422"/>
      <use xlink:href="#DejaVuSans-69" x="309.082031"/>
      <use xlink:href="#DejaVuSans-74" x="336.865234"/>
      <use xlink:href="#DejaVuSans-79" x="376.074219"/>
     </g>
    </g>
   </g>
   <g id="line2d_16">
    <path d="M 173.045455 445.311382 
L 173.253923 445.281174 
L 173.462391 444.815073 
L 174.087796 442.506574 
L 174.296264 442.32557 
L 174.504732 442.670418 
L 174.921669 444.702187 
L 175.547073 448.121397 
L 175.755542 448.684072 
L 175.96401 448.844247 
L 176.797883 448.391011 
L 177.214819 449.172104 
L 177.840224 450.594913 
L 178.048692 450.718965 
L 178.257161 450.651697 
L 179.091034 449.850329 
L 179.299502 449.988916 
L 179.716438 450.778001 
L 180.133375 451.641547 
L 180.550311 451.990826 
L 180.967248 451.750869 
L 181.384184 451.52923 
L 181.592653 451.610339 
L 182.009589 452.278992 
L 182.634994 453.364877 
L 182.843462 453.471013 
L 183.260399 453.325758 
L 183.677335 453.049716 
L 183.885803 453.071575 
L 184.30274 453.556514 
L 185.136613 455.127358 
L 185.553549 455.361309 
L 186.178954 455.367866 
L 186.387422 455.500719 
L 187.012827 456.557301 
L 187.429763 457.249317 
L 187.8467 457.48416 
L 188.263636 457.360411 
L 188.680573 457.224513 
L 189.097509 457.393343 
L 189.931382 458.033516 
L 190.348319 457.945525 
L 191.182192 457.409824 
L 191.599128 457.55699 
L 192.433001 457.98414 
L 192.849938 457.841545 
L 193.683811 457.390585 
L 194.100747 457.464829 
L 194.93462 457.733907 
L 196.18543 457.722667 
L 197.227771 458.306266 
L 197.644707 458.254768 
L 198.47858 457.998197 
L 199.103985 458.109535 
L 200.146326 458.332378 
L 200.980199 458.515045 
L 201.605604 458.623713 
L 202.02254 458.512401 
L 203.064882 457.948896 
L 203.481818 457.992087 
L 205.358032 458.572937 
L 206.400374 458.569545 
L 207.859651 458.412076 
L 208.276588 458.357141 
L 208.693524 458.091529 
L 209.318929 457.292438 
L 209.944334 456.525185 
L 210.36127 456.341952 
L 211.61208 456.32384 
L 212.862889 455.882707 
L 214.113699 455.855002 
L 217.240722 454.935317 
L 218.491532 455.078172 
L 219.325405 454.686619 
L 220.159278 454.403448 
L 220.784682 454.103927 
L 221.410087 453.473814 
L 222.24396 452.607921 
L 224.120174 451.359802 
L 225.370984 450.135098 
L 225.78792 449.998782 
L 226.204857 450.148872 
L 226.621793 450.661939 
L 228.081071 453.231886 
L 228.706476 453.614363 
L 229.540349 454.035528 
L 230.791158 454.899937 
L 232.250436 455.453819 
L 233.292777 455.966533 
L 233.918182 455.963465 
L 234.960523 455.83435 
L 235.585928 456.152737 
L 236.419801 456.694241 
L 236.836737 456.699012 
L 237.462142 456.268936 
L 238.087547 455.926765 
L 238.504483 456.025296 
L 239.129888 456.531565 
L 239.755293 456.994802 
L 240.589166 457.266595 
L 242.46538 457.84222 
L 243.299253 457.577851 
L 244.341594 457.153429 
L 244.966999 457.165669 
L 245.592403 457.446547 
L 246.426276 457.841087 
L 247.051681 457.842511 
L 248.302491 457.520432 
L 249.970237 457.016517 
L 254.973474 457.912308 
L 255.807347 458.250469 
L 256.849689 458.525831 
L 257.475093 458.996665 
L 258.308966 459.651124 
L 258.725903 459.744432 
L 259.559776 459.571511 
L 261.019054 459.05053 
L 261.852927 458.418525 
L 262.895268 457.598139 
L 263.520672 457.362503 
L 264.354545 457.152119 
L 264.771482 456.860087 
L 265.396887 456.082152 
L 266.022291 454.890549 
L 266.439228 453.721541 
L 266.856164 451.848031 
L 267.273101 448.804862 
L 267.690037 443.417876 
L 268.106974 433.21277 
L 268.52391 414.671717 
L 268.940847 381.836779 
L 269.566252 302.260795 
L 270.817061 105.71675 
L 271.025529 89.839102 
L 271.233998 83.7 
L 271.442466 87.001656 
L 271.650934 99.400092 
L 272.06787 149.261332 
L 273.527148 387.708759 
L 273.944085 421.829986 
L 274.361021 439.731301 
L 274.777958 446.889656 
L 275.194894 450.090051 
L 275.820299 452.861835 
L 276.445704 454.714566 
L 277.071108 455.634115 
L 277.904981 456.83291 
L 278.530386 457.617447 
L 279.155791 457.979158 
L 279.781196 458.391256 
L 281.032005 459.547277 
L 281.65741 459.647301 
L 282.491283 459.815447 
L 283.533624 460.178126 
L 284.367497 460.16315 
L 286.869116 459.91806 
L 287.702989 459.783805 
L 288.953798 459.499319 
L 289.579203 459.358763 
L 290.204608 458.924779 
L 291.246949 458.016644 
L 291.872354 457.819301 
L 292.497758 457.956961 
L 293.331631 458.45461 
L 294.373973 459.045737 
L 295.416314 459.217456 
L 296.458655 459.219063 
L 299.794147 458.353426 
L 300.419552 458.158166 
L 301.044956 458.196297 
L 302.087298 458.344163 
L 302.921171 458.210461 
L 303.963512 458.051167 
L 304.380448 458.186607 
L 305.005853 458.634622 
L 305.839726 459.284001 
L 306.465131 459.498149 
L 309.800623 459.681502 
L 310.634496 459.637358 
L 311.2599 459.906116 
L 312.302242 460.514735 
L 312.719178 460.521789 
L 313.553051 460.188224 
L 314.178456 459.98352 
L 315.012329 459.985239 
L 315.846202 460.262215 
L 316.888543 460.699022 
L 317.305479 460.674486 
L 317.722416 460.469767 
L 319.390162 459.31088 
L 320.015567 459.27728 
L 322.100249 459.595402 
L 323.976463 459.251859 
L 325.644209 459.539384 
L 326.269614 459.353191 
L 327.93736 458.659359 
L 328.771233 458.762817 
L 329.396638 458.818343 
L 330.022042 458.629021 
L 330.855915 458.301207 
L 331.48132 458.339051 
L 332.315193 458.466296 
L 332.940598 458.316326 
L 333.982939 457.963962 
L 335.233748 457.862466 
L 336.067621 457.996712 
L 337.735367 458.459844 
L 338.986177 458.357821 
L 341.696264 458.060779 
L 342.530137 457.945566 
L 343.36401 457.904789 
L 343.989415 457.6333 
L 345.031756 457.112321 
L 345.657161 457.165074 
L 347.324907 457.507129 
L 347.950311 457.727524 
L 349.201121 458.413407 
L 349.618057 458.341302 
L 350.034994 458.05136 
L 351.077335 457.144684 
L 351.494271 457.029605 
L 352.119676 457.11928 
L 352.745081 457.196235 
L 353.370486 457.044858 
L 354.204359 456.550401 
L 354.829763 455.955514 
L 355.2467 455.276997 
L 355.663636 454.261935 
L 356.289041 451.980861 
L 357.539851 445.809596 
L 358.582192 441.132818 
L 359.207597 439.095764 
L 359.624533 438.279657 
L 360.041469 437.918374 
L 360.458406 437.887899 
L 361.083811 437.944847 
L 361.500747 437.816228 
L 362.960025 436.987389 
L 363.793898 437.051059 
L 364.627771 437.032522 
L 365.87858 436.848029 
L 366.503985 437.047906 
L 366.920922 437.392824 
L 367.337858 437.960879 
L 367.754795 438.828142 
L 368.380199 440.706253 
L 369.42254 444.912912 
L 370.67335 449.772987 
L 371.507223 452.281867 
L 372.132628 453.470726 
L 372.758032 454.094062 
L 373.800374 454.906976 
L 375.46812 456.612633 
L 376.093524 456.868705 
L 377.552802 457.148204 
L 377.969738 457.481916 
L 378.595143 458.296147 
L 379.429016 459.467362 
L 380.054421 459.928715 
L 380.679826 460.021701 
L 382.139103 460.036159 
L 383.181445 460.341807 
L 384.015318 460.562346 
L 384.640722 460.417827 
L 386.1 459.744587 
L 386.933873 459.783697 
L 388.393151 459.822596 
L 390.89477 459.592913 
L 392.770984 459.364001 
L 394.021793 459.618628 
L 395.272603 460.000537 
L 395.689539 459.9239 
L 396.314944 459.486283 
L 396.940349 459.00861 
L 397.357285 458.866232 
L 397.98269 458.966379 
L 399.025031 459.251573 
L 400.484309 459.44724 
L 401.943587 459.897092 
L 405.487547 460.202907 
L 406.32142 460.467257 
L 406.738356 460.398217 
L 407.363761 459.945762 
L 407.989166 459.463587 
L 408.406102 459.395276 
L 409.031507 459.645907 
L 409.656912 459.896928 
L 410.282316 459.851399 
L 411.324658 459.692521 
L 415.910959 459.840421 
L 417.370237 459.756202 
L 418.20411 460.025076 
L 419.454919 460.431608 
L 420.288792 460.465013 
L 420.914197 460.217996 
L 422.165006 459.394097 
L 422.581943 459.379359 
L 423.415816 459.718011 
L 424.04122 459.910827 
L 424.666625 459.879232 
L 425.500498 459.554832 
L 426.542839 459.088446 
L 427.376712 458.995653 
L 428.627522 458.806311 
L 429.252927 458.832972 
L 430.295268 459.083678 
L 430.920672 458.896713 
L 432.588418 458.024025 
L 434.256164 457.504154 
L 434.881569 456.996342 
L 435.506974 456.156039 
L 436.549315 454.272805 
L 437.383188 452.275929 
L 438.008593 450.258718 
L 438.633998 447.540343 
L 439.259402 443.546195 
L 439.884807 437.844163 
L 440.71868 427.744266 
L 442.177958 409.330132 
L 442.594894 405.929319 
L 443.011831 404.127303 
L 443.220299 403.878603 
L 443.428767 404.083753 
L 443.637235 404.742874 
L 444.054172 407.427324 
L 444.679577 414.065408 
L 446.555791 436.392342 
L 447.389664 443.462284 
L 448.015068 447.403689 
L 448.640473 450.013079 
L 449.265878 451.704944 
L 450.725156 454.725793 
L 451.35056 455.593709 
L 451.975965 456.020859 
L 453.226775 456.630585 
L 456.353798 458.765027 
L 456.979203 458.740948 
L 458.438481 458.425331 
L 459.272354 458.47554 
L 460.731631 458.71393 
L 461.565504 458.466018 
L 462.607846 458.088123 
L 463.23325 458.098041 
L 463.858655 458.445271 
L 464.692528 459.017758 
L 465.109465 459.034479 
L 465.526401 458.812034 
L 466.568742 458.099548 
L 467.194147 458.084178 
L 468.02802 458.409554 
L 469.278829 458.928406 
L 469.904234 458.927926 
L 471.780448 458.433551 
L 472.82279 458.245358 
L 473.448194 458.484487 
L 474.490535 459.098242 
L 474.907472 459.094897 
L 475.532877 458.786619 
L 476.36675 458.392473 
L 476.992154 458.384251 
L 478.034496 458.444435 
L 479.285305 458.422636 
L 480.119178 458.531745 
L 480.744583 458.322771 
L 481.786924 457.782413 
L 482.203861 457.816941 
L 483.663138 458.337851 
L 484.288543 458.172302 
L 485.956289 457.365974 
L 488.24944 456.008071 
L 489.083313 454.852513 
L 490.125654 453.120576 
L 490.54259 452.058833 
L 491.167995 449.705963 
L 492.001868 445.479818 
L 493.252677 437.975197 
L 494.295019 431.759373 
L 494.711955 430.456208 
L 494.920423 430.287548 
L 495.128892 430.512689 
L 495.33736 431.135427 
L 495.754296 433.501648 
L 496.379701 439.1402 
L 497.213574 446.999566 
L 497.630511 449.613988 
L 498.047447 451.218179 
L 498.464384 452.136287 
L 499.089788 452.937384 
L 499.506725 453.257761 
L 499.923661 453.301025 
L 500.340598 453.017095 
L 501.174471 452.291246 
L 501.382939 452.284941 
L 501.799875 452.647413 
L 502.42528 453.846212 
L 504.301494 457.781295 
L 504.926899 458.689567 
L 505.343836 458.936266 
L 505.96924 458.955195 
L 506.594645 458.994378 
L 508.470859 459.452611 
L 509.721669 459.484699 
L 510.555542 459.814925 
L 511.389415 460.083857 
L 512.223288 460.046311 
L 513.057161 460.019487 
L 514.724907 460.165641 
L 516.601121 459.8325 
L 518.060399 460.010751 
L 519.519676 459.82766 
L 520.145081 460.091078 
L 520.770486 460.348604 
L 521.187422 460.312941 
L 522.229763 460.060423 
L 523.480573 460.117225 
L 524.731382 459.427072 
L 525.148319 459.524454 
L 526.399128 460.092092 
L 527.441469 460.014341 
L 530.360025 459.744632 
L 531.193898 459.701528 
L 533.27858 459.839531 
L 533.903985 459.903281 
L 534.52939 460.295126 
L 535.154795 460.706286 
L 535.571731 460.730638 
L 536.197136 460.411987 
L 537.031009 459.929403 
L 537.656413 459.779265 
L 538.281818 459.811732 
L 539.115691 460.10509 
L 539.949564 460.361346 
L 540.783437 460.345369 
L 542.242715 460.285982 
L 544.118929 460.529776 
L 544.744334 460.093797 
L 545.369738 459.659101 
L 545.786675 459.57318 
L 546.620548 459.755692 
L 547.245953 459.81526 
L 548.70523 459.778384 
L 549.539103 459.791435 
L 551.415318 459.483703 
L 552.874595 459.864451 
L 554.750809 460.33312 
L 556.418555 460.650999 
L 556.835492 460.455229 
L 558.086301 459.597823 
L 558.503238 459.60367 
L 560.379452 460.03093 
L 562.464134 460.067221 
L 563.298007 460.313083 
L 563.714944 460.203926 
L 564.757285 459.647458 
L 565.174222 459.716811 
L 566.425031 460.228128 
L 567.467372 460.152232 
L 568.092777 460.476757 
L 568.718182 460.789931 
L 569.135118 460.798411 
L 569.760523 460.551809 
L 571.219801 459.773963 
L 571.845205 459.77594 
L 573.304483 460.197406 
L 575.389166 459.989985 
L 576.431507 459.632174 
L 576.848443 459.732738 
L 578.307721 460.563779 
L 579.558531 460.44333 
L 580.80934 460.894049 
L 581.226276 460.658615 
L 582.060149 460.031534 
L 582.477086 459.974711 
L 583.102491 460.238912 
L 583.727895 460.524519 
L 584.3533 460.522032 
L 586.021046 460.033311 
L 586.646451 460.275778 
L 587.271856 460.509841 
L 587.89726 460.447771 
L 588.939601 460.192839 
L 592.900498 460.280457 
L 593.525903 460.192351 
L 594.151308 459.860316 
L 594.776712 459.519947 
L 595.193649 459.529292 
L 596.444458 460.000304 
L 597.278331 460.000259 
L 597.903736 460.32325 
L 598.529141 460.629138 
L 598.946077 460.595772 
L 599.988418 460.265855 
L 601.447696 460.415941 
L 602.698506 460.103508 
L 604.157783 459.980508 
L 606.242466 459.768053 
L 606.86787 459.83864 
L 608.535616 460.467702 
L 609.577958 460.394865 
L 610.411831 460.351575 
L 611.037235 460.569658 
L 612.079577 461.027739 
L 612.704981 460.997456 
L 613.538854 460.701631 
L 615.2066 459.838685 
L 615.623537 459.86987 
L 616.248941 460.196434 
L 617.291283 460.884537 
L 617.916687 461.020595 
L 618.75056 461.012248 
L 619.375965 460.817104 
L 620.00137 460.582105 
L 620.418306 460.598188 
L 621.252179 460.744426 
L 621.669116 460.504329 
L 622.502989 459.768288 
L 622.919925 459.773681 
L 623.54533 460.211835 
L 624.170735 460.628205 
L 624.796139 460.744204 
L 625.213076 460.630485 
L 626.672354 459.928319 
L 627.923163 460.058698 
L 630.007846 459.627162 
L 630.424782 459.677939 
L 631.88406 460.181513 
L 632.717933 460.032042 
L 633.134869 460.235651 
L 634.17721 460.981403 
L 634.594147 460.93047 
L 635.844956 460.479256 
L 636.470361 460.704296 
L 637.095766 460.896388 
L 637.721171 460.758815 
L 638.555044 460.480868 
L 638.97198 460.558556 
L 640.014321 460.911414 
L 640.431258 460.722558 
L 641.682067 459.557859 
L 642.099004 459.68352 
L 643.349813 460.666449 
L 644.183686 460.578594 
L 644.809091 460.64617 
L 646.0599 460.938914 
L 646.476837 460.823764 
L 647.102242 460.378924 
L 647.727646 459.955855 
L 648.144583 459.954237 
L 649.395392 460.55959 
L 649.812329 460.443744 
L 651.271606 459.714238 
L 651.688543 459.765936 
L 652.313948 460.138892 
L 652.939352 460.49603 
L 653.356289 460.490673 
L 654.190162 460.285089 
L 654.815567 460.467293 
L 655.440971 460.685398 
L 655.857908 460.619905 
L 658.567995 459.614523 
L 658.984932 459.76619 
L 659.818804 460.266504 
L 660.235741 460.199486 
L 661.278082 459.644694 
L 661.903487 459.820232 
L 662.528892 459.924363 
L 663.779701 459.651445 
L 664.613574 459.696888 
L 665.238979 459.416156 
L 665.864384 459.192246 
L 666.28132 459.286092 
L 667.115193 459.872641 
L 667.949066 460.337052 
L 668.574471 460.409367 
L 669.199875 460.167132 
L 670.242217 459.613983 
L 671.493026 459.308439 
L 672.535367 458.728305 
L 673.160772 458.719842 
L 674.411582 458.886917 
L 675.036986 458.699304 
L 676.287796 458.050328 
L 676.9132 458.083853 
L 681.082565 458.902603 
L 682.541843 458.968543 
L 683.792653 459.274072 
L 685.877335 459.189212 
L 686.711208 459.29941 
L 688.378954 459.22866 
L 689.421295 459.392245 
L 690.672105 459.353133 
L 691.922914 459.535447 
L 696.509215 459.12532 
L 697.760025 459.164931 
L 698.593898 459.305558 
L 699.427771 459.454279 
L 701.095517 459.448046 
L 701.92939 459.584892 
L 703.597136 459.381775 
L 704.014072 459.157587 
L 705.056413 458.430714 
L 705.47335 458.508368 
L 706.515691 459.07545 
L 706.932628 459.03372 
L 707.558032 458.699175 
L 708.600374 458.042676 
L 709.434247 457.862881 
L 710.26812 457.70089 
L 711.101993 457.296435 
L 711.935866 456.639448 
L 713.81208 454.791641 
L 714.437484 453.91423 
L 715.271357 452.277588 
L 716.730635 449.060994 
L 717.35604 446.755621 
L 719.649191 435.608814 
L 720.691532 430.757798 
L 721.316936 428.808868 
L 721.942341 427.673956 
L 722.359278 427.262971 
L 722.776214 427.13285 
L 723.193151 427.38414 
L 723.610087 428.055683 
L 724.235492 429.755095 
L 724.860897 432.142786 
L 725.69477 436.43108 
L 726.945579 443.122526 
L 727.779452 446.646882 
L 728.821793 449.886427 
L 730.072603 453.256873 
L 730.698007 454.062748 
L 731.740349 455.127871 
L 732.78269 456.262435 
L 734.241968 457.530257 
L 736.743587 458.69785 
L 737.57746 458.598187 
L 737.994396 458.809463 
L 738.828269 459.397926 
L 739.245205 459.340432 
L 740.079078 458.977919 
L 740.704483 459.137273 
L 741.329888 459.250673 
L 742.372229 458.976512 
L 743.206102 458.889806 
L 743.623039 459.01002 
L 744.873848 459.669866 
L 745.499253 459.539201 
L 747.583935 458.973627 
L 748.20934 459.568697 
L 748.626276 459.89368 
L 749.043213 459.871761 
L 750.085554 459.29862 
L 750.710959 459.361013 
L 751.336364 459.587791 
L 752.587173 460.379064 
L 753.00411 460.148355 
L 753.837983 459.295693 
L 754.254919 459.324924 
L 755.088792 459.91582 
L 755.505729 459.821535 
L 756.54807 458.898578 
L 756.965006 458.982546 
L 757.798879 459.390546 
L 759.049689 459.483196 
L 759.883562 459.844072 
L 760.300498 459.776794 
L 761.551308 459.218914 
L 762.176712 459.371014 
L 763.010585 459.665159 
L 763.427522 459.573301 
L 764.052927 459.089338 
L 764.678331 458.592036 
L 765.095268 458.478682 
L 765.512204 458.590442 
L 766.137609 458.869416 
L 766.554545 458.794516 
L 767.596887 458.224826 
L 768.013823 458.381394 
L 768.639228 458.621076 
L 769.056164 458.435989 
L 769.890037 457.820207 
L 771.140847 457.316186 
L 772.183188 456.392435 
L 772.600125 456.372222 
L 773.642466 456.680275 
L 774.893275 456.582791 
L 775.727148 456.732421 
L 776.561021 456.527684 
L 777.186426 456.449387 
L 777.811831 456.58983 
L 779.271108 457.060706 
L 780.31345 457.369247 
L 781.772727 457.941389 
L 782.815068 458.859593 
L 784.691283 459.403156 
L 785.733624 458.88905 
L 786.15056 459.070366 
L 786.984433 459.558767 
L 788.235243 459.666353 
L 789.277584 460.185636 
L 789.694521 460.019932 
L 790.528394 459.443477 
L 790.94533 459.482107 
L 791.779203 459.818905 
L 793.030012 459.869029 
L 793.863885 460.223862 
L 794.280822 460.085745 
L 795.114695 459.644821 
L 795.531631 459.810659 
L 796.573973 460.577919 
L 796.990909 460.462969 
L 797.824782 459.936986 
L 798.450187 459.911103 
L 799.075592 459.877292 
L 799.909465 459.766694 
L 800.534869 460.001836 
L 802.202615 460.928285 
L 802.619552 460.78374 
L 803.661893 460.159092 
L 805.121171 460.013739 
L 805.746575 460.105294 
L 806.997385 460.400983 
L 807.831258 460.461052 
L 808.456663 460.234554 
L 809.082067 460.044489 
L 809.707472 460.266511 
L 810.124408 460.375717 
L 810.749813 460.200383 
L 811.375218 460.097792 
L 812.626027 460.200528 
L 813.251432 460.296987 
L 813.876837 460.396242 
L 814.293773 460.23384 
L 814.919178 459.925621 
L 815.336115 459.970247 
L 816.795392 460.57608 
L 817.420797 460.271902 
L 818.046202 459.99469 
L 818.463138 460.08254 
L 819.505479 460.582422 
L 819.922416 460.495363 
L 821.381694 459.940442 
L 822.632503 459.919843 
L 823.257908 460.154372 
L 823.883313 460.423145 
L 824.300249 460.290577 
L 824.925654 459.944632 
L 825.34259 460.006975 
L 826.176463 460.401674 
L 826.5934 460.177514 
L 827.218804 459.72371 
L 827.635741 459.642433 
L 828.469614 459.629205 
L 829.095019 459.533289 
L 829.720423 459.717381 
L 830.762765 460.167857 
L 831.388169 460.186953 
L 832.013574 459.979246 
L 832.847447 459.684303 
L 833.264384 459.770645 
L 834.098257 460.092285 
L 834.515193 460.004839 
L 835.349066 459.623689 
L 835.974471 459.655765 
L 836.391407 459.648732 
L 836.808344 459.435012 
L 838.267621 458.25201 
L 838.893026 458.12856 
L 839.726899 458.275458 
L 842.853923 459.073632 
L 844.730137 459.910098 
L 845.772478 459.951845 
L 846.814819 460.329224 
L 847.231756 460.14376 
L 847.857161 459.72391 
L 848.065629 459.726026 
L 848.482565 460.045685 
L 849.10797 460.701635 
L 849.524907 460.762038 
L 850.775716 460.224314 
L 851.609589 460.378857 
L 852.234994 460.168274 
L 853.068867 459.902902 
L 854.111208 459.848262 
L 854.736613 460.07534 
L 855.570486 460.408693 
L 856.404359 460.364319 
L 857.238232 460.426465 
L 858.280573 460.594806 
L 859.739851 460.433572 
L 861.407597 460.173826 
L 862.658406 460.567942 
L 864.117684 460.524084 
L 864.743088 460.77373 
L 865.78543 461.394024 
L 866.202366 461.305777 
L 868.495517 459.973964 
L 868.912453 460.011022 
L 869.746326 460.24121 
L 870.997136 459.975703 
L 871.831009 460.242019 
L 872.87335 460.260414 
L 873.915691 460.656085 
L 876.208842 460.378356 
L 876.834247 460.033595 
L 877.251183 460.042417 
L 878.293524 460.312141 
L 879.127397 460.357048 
L 880.586675 460.944703 
L 882.462889 460.661641 
L 884.130635 460.13255 
L 884.547572 460.353952 
L 885.381445 460.992998 
L 885.798381 460.985052 
L 886.632254 460.667112 
L 887.257659 460.867993 
L 887.674595 460.919359 
L 888.091532 460.723049 
L 888.925405 460.216328 
L 889.342341 460.253194 
L 890.384682 460.594094 
L 891.010087 460.463909 
L 891.427024 460.3856 
L 891.84396 460.509731 
L 892.677833 460.900721 
L 893.09477 460.828978 
L 893.720174 460.659776 
L 894.137111 460.783645 
L 894.762516 461.067784 
L 895.179452 461.043862 
L 895.804857 460.664894 
L 896.430262 460.284872 
L 896.847198 460.258192 
L 898.098007 460.646378 
L 898.93188 460.44955 
L 899.348817 460.662831 
L 899.974222 461.025046 
L 900.391158 460.925468 
L 901.016563 460.550557 
L 901.433499 460.590756 
L 902.267372 461.029333 
L 902.684309 460.957836 
L 903.72665 460.435579 
L 904.143587 460.508488 
L 905.602864 461.032433 
L 908.104483 461.249126 
L 908.52142 461.247293 
L 908.938356 460.996017 
L 909.563761 460.490297 
L 909.980697 460.417081 
L 910.81457 460.824491 
L 911.439975 461.007984 
L 912.273848 460.991708 
L 912.899253 460.968481 
L 913.524658 461.256819 
L 914.150062 461.49143 
L 914.775467 461.40962 
L 915.400872 461.105382 
L 916.026276 460.783832 
L 916.443213 460.861015 
L 917.277086 461.388923 
L 917.694022 461.297628 
L 918.319427 460.992766 
L 918.736364 461.050028 
L 919.570237 461.332442 
L 919.987173 461.154435 
L 920.821046 460.591891 
L 921.237983 460.671131 
L 922.071856 461.127905 
L 922.488792 461.023466 
L 923.114197 460.73564 
L 923.739601 460.797207 
L 924.365006 460.846061 
L 924.990411 460.818489 
L 925.407347 461.019599 
L 926.24122 461.582759 
L 926.658157 461.592448 
L 928.117435 461.190358 
L 929.159776 461.7 
L 929.576712 461.510737 
L 930.619054 460.55774 
L 931.03599 460.604489 
L 931.661395 461.053515 
L 932.2868 461.529828 
L 932.703736 461.553078 
L 933.120672 461.278697 
L 933.746077 460.80212 
L 933.954545 460.756929 
L 933.954545 460.756929 
" clip-path="url(#p03ac283c7e)" style="fill: none; stroke: #1f77b4; stroke-width: 1.5; stroke-linecap: square"/>
   </g>
   <g id="patch_3">
    <path d="M 135 480.6 
L 135 64.8 
" style="fill: none; stroke: #000000; stroke-width: 0.8; stroke-linejoin: miter; stroke-linecap: square"/>
   </g>
   <g id="patch_4">
    <path d="M 972 480.6 
L 972 64.8 
" style="fill: none; stroke: #000000; stroke-width: 0.8; stroke-linejoin: miter; stroke-linecap: square"/>
   </g>
   <g id="patch_5">
    <path d="M 135 480.6 
L 972 480.6 
" style="fill: none; stroke: #000000; stroke-width: 0.8; stroke-linejoin: miter; stroke-linecap: square"/>
   </g>
   <g id="patch_6">
    <path d="M 135 64.8 
L 972 64.8 
" style="fill: none; stroke: #000000; stroke-width: 0.8; stroke-linejoin: miter; stroke-linecap: square"/>
   </g>
   <g id="text_18">
    <!-- Selected Normalized Spectra on mapExample -->
    <g transform="translate(358.557812 58.8)scale(0.17 -0.17)">
     <defs>
      <path id="DejaVuSans-53" d="M 3425 4513 
L 3425 3897 
Q 3066 4069 2747 4153 
Q 2428 4238 2131 4238 
Q 1616 4238 1336 4038 
Q 1056 3838 1056 3469 
Q 1056 3159 1242 3001 
Q 1428 2844 1947 2747 
L 2328 2669 
Q 3034 2534 3370 2195 
Q 3706 1856 3706 1288 
Q 3706 609 3251 259 
Q 2797 -91 1919 -91 
Q 1588 -91 1214 -16 
Q 841 59 441 206 
L 441 856 
Q 825 641 1194 531 
Q 1563 422 1919 422 
Q 2459 422 2753 634 
Q 3047 847 3047 1241 
Q 3047 1584 2836 1778 
Q 2625 1972 2144 2069 
L 1759 2144 
Q 1053 2284 737 2584 
Q 422 2884 422 3419 
Q 422 4038 858 4394 
Q 1294 4750 2059 4750 
Q 2388 4750 2728 4690 
Q 3069 4631 3425 4513 
z
" transform="scale(0.015625)"/>
      <path id="DejaVuSans-6c" d="M 603 4863 
L 1178 4863 
L 1178 0 
L 603 0 
L 603 4863 
z
" transform="scale(0.015625)"/>
      <path id="DejaVuSans-63" d="M 3122 3366 
L 3122 2828 
Q 2878 2963 2633 3030 
Q 2388 3097 2138 3097 
Q 1578 3097 1268 2742 
Q 959 2388 959 1747 
Q 959 1106 1268 751 
Q 1578 397 2138 397 
Q 2388 397 2633 464 
Q 2878 531 3122 666 
L 3122 134 
Q 2881 22 2623 -34 
Q 2366 -91 2075 -91 
Q 1284 -91 818 406 
Q 353 903 353 1747 
Q 353 2603 823 3093 
Q 1294 3584 2113 3584 
Q 2378 3584 2631 3529 
Q 2884 3475 3122 3366 
z
" transform="scale(0.015625)"/>
      <path id="DejaVuSans-64" d="M 2906 2969 
L 2906 4863 
L 3481 4863 
L 3481 0 
L 2906 0 
L 2906 525 
Q 2725 213 2448 61 
Q 2172 -91 1784 -91 
Q 1150 -91 751 415 
Q 353 922 353 1747 
Q 353 2572 751 3078 
Q 1150 3584 1784 3584 
Q 2172 3584 2448 3432 
Q 2725 3281 2906 2969 
z
M 947 1747 
Q 947 1113 1208 752 
Q 1469 391 1925 391 
Q 2381 391 2643 752 
Q 2906 1113 2906 1747 
Q 2906 2381 2643 2742 
Q 2381 3103 1925 3103 
Q 1469 3103 1208 2742 
Q 947 2381 947 1747 
z
" transform="scale(0.015625)"/>
      <path id="DejaVuSans-4e" d="M 628 4666 
L 1478 4666 
L 3547 763 
L 3547 4666 
L 4159 4666 
L 4159 0 
L 3309 0 
L 1241 3903 
L 1241 0 
L 628 0 
L 628 4666 
z
" transform="scale(0.015625)"/>
      <path id="DejaVuSans-6f" d="M 1959 3097 
Q 1497 3097 1228 2736 
Q 959 2375 959 1747 
Q 959 1119 1226 758 
Q 1494 397 1959 397 
Q 2419 397 2687 759 
Q 2956 1122 2956 1747 
Q 2956 2369 2687 2733 
Q 2419 3097 1959 3097 
z
M 1959 3584 
Q 2709 3584 3137 3096 
Q 3566 2609 3566 1747 
Q 3566 888 3137 398 
Q 2709 -91 1959 -91 
Q 1206 -91 779 398 
Q 353 888 353 1747 
Q 353 2609 779 3096 
Q 1206 3584 1959 3584 
z
" transform="scale(0.015625)"/>
      <path id="DejaVuSans-72" d="M 2631 2963 
Q 2534 3019 2420 3045 
Q 2306 3072 2169 3072 
Q 1681 3072 1420 2755 
Q 1159 2438 1159 1844 
L 1159 0 
L 581 0 
L 581 3500 
L 1159 3500 
L 1159 2956 
Q 1341 3275 1631 3429 
Q 1922 3584 2338 3584 
Q 2397 3584 2469 3576 
Q 2541 3569 2628 3553 
L 2631 2963 
z
" transform="scale(0.015625)"/>
      <path id="DejaVuSans-7a" d="M 353 3500 
L 3084 3500 
L 3084 2975 
L 922 459 
L 3084 459 
L 3084 0 
L 275 0 
L 275 525 
L 2438 3041 
L 353 3041 
L 353 3500 
z
" transform="scale(0.015625)"/>
      <path id="DejaVuSans-70" d="M 1159 525 
L 1159 -1331 
L 581 -1331 
L 581 3500 
L 1159 3500 
L 1159 2969 
Q 1341 3281 1617 3432 
Q 1894 3584 2278 3584 
Q 2916 3584 3314 3078 
Q 3713 2572 3713 1747 
Q 3713 922 3314 415 
Q 2916 -91 2278 -91 
Q 1894 -91 1617 61 
Q 1341 213 1159 525 
z
M 3116 1747 
Q 3116 2381 2855 2742 
Q 2594 3103 2138 3103 
Q 1681 3103 1420 2742 
Q 1159 2381 1159 1747 
Q 1159 1113 1420 752 
Q 1681 391 2138 391 
Q 2594 391 2855 752 
Q 3116 1113 3116 1747 
z
" transform="scale(0.015625)"/>
      <path id="DejaVuSans-45" d="M 628 4666 
L 3578 4666 
L 3578 4134 
L 1259 4134 
L 1259 2753 
L 3481 2753 
L 3481 2222 
L 1259 2222 
L 1259 531 
L 3634 531 
L 3634 0 
L 628 0 
L 628 4666 
z
" transform="scale(0.015625)"/>
      <path id="DejaVuSans-78" d="M 3513 3500 
L 2247 1797 
L 3578 0 
L 2900 0 
L 1881 1375 
L 863 0 
L 184 0 
L 1544 1831 
L 300 3500 
L 978 3500 
L 1906 2253 
L 2834 3500 
L 3513 3500 
z
" transform="scale(0.015625)"/>
     </defs>
     <use xlink:href="#DejaVuSans-53"/>
     <use xlink:href="#DejaVuSans-65" x="63.476562"/>
     <use xlink:href="#DejaVuSans-6c" x="125"/>
     <use xlink:href="#DejaVuSans-65" x="152.783203"/>
     <use xlink:href="#DejaVuSans-63" x="214.306641"/>
     <use xlink:href="#DejaVuSans-74" x="269.287109"/>
     <use xlink:href="#DejaVuSans-65" x="308.496094"/>
     <use xlink:href="#DejaVuSans-64" x="370.019531"/>
     <use xlink:href="#DejaVuSans-20" x="433.496094"/>
     <use xlink:href="#DejaVuSans-4e" x="465.283203"/>
     <use xlink:href="#DejaVuSans-6f" x="540.087891"/>
     <use xlink:href="#DejaVuSans-72" x="601.269531"/>
     <use xlink:href="#DejaVuSans-6d" x="640.632812"/>
     <use xlink:href="#DejaVuSans-61" x="738.044922"/>
     <use xlink:href="#DejaVuSans-6c" x="799.324219"/>
     <use xlink:href="#DejaVuSans-69" x="827.107422"/>
     <use xlink:href="#DejaVuSans-7a" x="854.890625"/>
     <use xlink:href="#DejaVuSans-65" x="907.380859"/>
     <use xlink:href="#DejaVuSans-64" x="968.904297"/>
     <use xlink:href="#DejaVuSans-20" x="1032.380859"/>
     <use xlink:href="#DejaVuSans-53" x="1064.167969"/>
     <use xlink:href="#DejaVuSans-70" x="1127.644531"/>
     <use xlink:href="#DejaVuSans-65" x="1191.121094"/>
     <use xlink:href="#DejaVuSans-63" x="1252.644531"/>
     <use xlink:href="#DejaVuSans-74" x="1307.625"/>
     <use xlink:href="#DejaVuSans-72" x="1346.833984"/>
     <use xlink:href="#DejaVuSans-61" x="1387.947266"/>
     <use xlink:href="#DejaVuSans-20" x="1449.226562"/>
     <use xlink:href="#DejaVuSans-6f" x="1481.013672"/>
     <use xlink:href="#DejaVuSans-6e" x="1542.195312"/>
     <use xlink:href="#DejaVuSans-20" x="1605.574219"/>
     <use xlink:href="#DejaVuSans-6d" x="1637.361328"/>
     <use xlink:href="#DejaVuSans-61" x="1734.773438"/>
     <use xlink:href="#DejaVuSans-70" x="1796.052734"/>
     <use xlink:href="#DejaVuSans-45" x="1859.529297"/>
     <use xlink:href="#DejaVuSans-78" x="1922.712891"/>
     <use xlink:href="#DejaVuSans-61" x="1981.892578"/>
     <use xlink:href="#DejaVuSans-6d" x="2043.171875"/>
     <use xlink:href="#DejaVuSans-70" x="2140.583984"/>
     <use xlink:href="#DejaVuSans-6c" x="2204.060547"/>
     <use xlink:href="#DejaVuSans-65" x="2231.84375"/>
    </g>
   </g>
   <g id="legend_1">
    <g id="patch_7">
     <path d="M 735.45 98.847656 
L 961.5 98.847656 
Q 964.5 98.847656 964.5 95.847656 
L 964.5 75.3 
Q 964.5 72.3 961.5 72.3 
L 735.45 72.3 
Q 732.45 72.3 732.45 75.3 
L 732.45 95.847656 
Q 732.45 98.847656 735.45 98.847656 
z
" style="fill: #ffffff; opacity: 0.8; stroke: #cccccc; stroke-linejoin: miter"/>
    </g>
    <g id="line2d_17">
     <path d="M 738.45 84.447656 
L 753.45 84.447656 
L 768.45 84.447656 
" style="fill: none; stroke: #1f77b4; stroke-width: 1.5; stroke-linecap: square"/>
    </g>
    <g id="text_19">
     <!-- x:13, y:11, $I_{D}/I_{G}$: 1.8736 -->
     <g transform="translate(780.45 89.697656)scale(0.15 -0.15)">
      <defs>
       <path id="DejaVuSans-3a" d="M 750 794 
L 1409 794 
L 1409 0 
L 750 0 
L 750 794 
z
M 750 3309 
L 1409 3309 
L 1409 2516 
L 750 2516 
L 750 3309 
z
" transform="scale(0.015625)"/>
       <path id="DejaVuSans-2c" d="M 750 794 
L 1409 794 
L 1409 256 
L 897 -744 
L 494 -744 
L 750 256 
L 750 794 
z
" transform="scale(0.015625)"/>
       <path id="DejaVuSans-Oblique-49" d="M 1081 4666 
L 1716 4666 
L 806 0 
L 172 0 
L 1081 4666 
z
" transform="scale(0.015625)"/>
       <path id="DejaVuSans-Oblique-44" d="M 1081 4666 
L 2438 4666 
Q 3519 4666 4070 4208 
Q 4622 3750 4622 2847 
Q 4622 2250 4412 1698 
Q 4203 1147 3834 769 
Q 3463 381 2891 190 
Q 2319 0 1538 0 
L 172 0 
L 1081 4666 
z
M 1613 4147 
L 909 519 
L 1734 519 
Q 2794 519 3375 1128 
Q 3956 1738 3956 2847 
Q 3956 3519 3581 3833 
Q 3206 4147 2406 4147 
L 1613 4147 
z
" transform="scale(0.015625)"/>
       <path id="DejaVuSans-Oblique-47" d="M 3494 697 
L 3738 1919 
L 2700 1919 
L 2797 2438 
L 4453 2438 
L 4050 384 
Q 3634 156 3143 32 
Q 2653 -91 2156 -91 
Q 1278 -91 783 396 
Q 288 884 288 1753 
Q 288 2475 589 3126 
Q 891 3778 1422 4213 
Q 1756 4484 2153 4617 
Q 2550 4750 3034 4750 
Q 3472 4750 3873 4639 
Q 4275 4528 4641 4306 
L 4513 3634 
Q 4231 3928 3853 4083 
Q 3475 4238 3047 4238 
Q 2550 4238 2172 4048 
Q 1794 3859 1497 3463 
Q 1244 3125 1098 2667 
Q 953 2209 953 1734 
Q 953 1081 1287 751 
Q 1622 422 2284 422 
Q 2616 422 2925 492 
Q 3234 563 3494 697 
z
" transform="scale(0.015625)"/>
       <path id="DejaVuSans-2e" d="M 684 794 
L 1344 794 
L 1344 0 
L 684 0 
L 684 794 
z
" transform="scale(0.015625)"/>
       <path id="DejaVuSans-37" d="M 525 4666 
L 3525 4666 
L 3525 4397 
L 1831 0 
L 1172 0 
L 2766 4134 
L 525 4134 
L 525 4666 
z
" transform="scale(0.015625)"/>
      </defs>
      <use xlink:href="#DejaVuSans-78" transform="translate(0 0.78125)"/>
      <use xlink:href="#DejaVuSans-3a" transform="translate(59.179688 0.78125)"/>
      <use xlink:href="#DejaVuSans-31" transform="translate(92.871094 0.78125)"/>
      <use xlink:href="#DejaVuSans-33" transform="translate(156.494141 0.78125)"/>
      <use xlink:href="#DejaVuSans-2c" transform="translate(220.117188 0.78125)"/>
      <use xlink:href="#DejaVuSans-20" transform="translate(251.904297 0.78125)"/>
      <use xlink:href="#DejaVuSans-79" transform="translate(283.691406 0.78125)"/>
      <use xlink:href="#DejaVuSans-3a" transform="translate(342.871094 0.78125)"/>
      <use xlink:href="#DejaVuSans-31" transform="translate(376.5625 0.78125)"/>
      <use xlink:href="#DejaVuSans-31" transform="translate(440.185547 0.78125)"/>
      <use xlink:href="#DejaVuSans-2c" transform="translate(503.808594 0.78125)"/>
      <use xlink:href="#DejaVuSans-20" transform="translate(535.595703 0.78125)"/>
      <use xlink:href="#DejaVuSans-Oblique-49" transform="translate(567.382812 0.78125)"/>
      <use xlink:href="#DejaVuSans-Oblique-44" transform="translate(596.875 -15.625)scale(0.7)"/>
      <use xlink:href="#DejaVuSans-2f" transform="translate(653.510742 0.78125)"/>
      <use xlink:href="#DejaVuSans-Oblique-49" transform="translate(687.202148 0.78125)"/>
      <use xlink:href="#DejaVuSans-Oblique-47" transform="translate(716.694336 -15.625)scale(0.7)"/>
      <use xlink:href="#DejaVuSans-3a" transform="translate(773.671875 0.78125)"/>
      <use xlink:href="#DejaVuSans-20" transform="translate(807.363281 0.78125)"/>
      <use xlink:href="#DejaVuSans-31" transform="translate(839.150391 0.78125)"/>
      <use xlink:href="#DejaVuSans-2e" transform="translate(902.773438 0.78125)"/>
      <use xlink:href="#DejaVuSans-38" transform="translate(931.935547 0.78125)"/>
      <use xlink:href="#DejaVuSans-37" transform="translate(995.558594 0.78125)"/>
      <use xlink:href="#DejaVuSans-33" transform="translate(1059.181641 0.78125)"/>
      <use xlink:href="#DejaVuSans-36" transform="translate(1122.804688 0.78125)"/>
     </g>
    </g>
   </g>
  </g>
 </g>
 <defs>
  <clipPath id="p03ac283c7e">
   <rect x="135" y="64.8" width="837" height="415.8"/>
  </clipPath>
 </defs>
</svg>
