<?xml version="1.0" encoding="utf-8" standalone="no"?>
<!DOCTYPE svg PUBLIC "-//W3C//DTD SVG 1.1//EN"
  "http://www.w3.org/Graphics/SVG/1.1/DTD/svg11.dtd">
<svg xmlns:xlink="http://www.w3.org/1999/xlink" width="432pt" height="432pt" viewBox="0 0 432 432" xmlns="http://www.w3.org/2000/svg" version="1.1">
 <metadata>
  <rdf:RDF xmlns:dc="http://purl.org/dc/elements/1.1/" xmlns:cc="http://creativecommons.org/ns#" xmlns:rdf="http://www.w3.org/1999/02/22-rdf-syntax-ns#">
   <cc:Work>
    <dc:type rdf:resource="http://purl.org/dc/dcmitype/StillImage"/>
    <dc:date>2023-07-14T16:23:24.705417</dc:date>
    <dc:format>image/svg+xml</dc:format>
    <dc:creator>
     <cc:Agent>
      <dc:title>Matplotlib v3.5.2, https://matplotlib.org/</dc:title>
     </cc:Agent>
    </dc:creator>
   </cc:Work>
  </rdf:RDF>
 </metadata>
 <defs>
  <style type="text/css">*{stroke-linejoin: round; stroke-linecap: butt}</style>
 </defs>
 <g id="figure_1">
  <g id="patch_1">
   <path d="M 0 432 
L 432 432 
L 432 0 
L 0 0 
z
" style="fill: #ffffff"/>
  </g>
  <g id="axes_1">
   <g id="patch_2">
    <path d="M 49.84524 386.51476 
L 428.99976 386.51476 
L 428.99976 18.118365 
L 49.84524 18.118365 
z
" style="fill: #ffffff"/>
   </g>
   <g id="matplotlib.axis_1">
    <g id="xtick_1">
     <g id="line2d_1">
      <defs>
       <path id="ma55fbbedfd" d="M 0 0 
L 0 3.5 
" style="stroke: #000000; stroke-width: 0.8"/>
      </defs>
      <g>
       <use xlink:href="#ma55fbbedfd" x="62.357811" y="386.51476" style="stroke: #000000; stroke-width: 0.8"/>
      </g>
     </g>
     <g id="text_1">
      <!-- 0 -->
      <g transform="translate(57.267811 405.67226)scale(0.16 -0.16)">
       <defs>
        <path id="DejaVuSans-30" d="M 2034 4250 
Q 1547 4250 1301 3770 
Q 1056 3291 1056 2328 
Q 1056 1369 1301 889 
Q 1547 409 2034 409 
Q 2525 409 2770 889 
Q 3016 1369 3016 2328 
Q 3016 3291 2770 3770 
Q 2525 4250 2034 4250 
z
M 2034 4750 
Q 2819 4750 3233 4129 
Q 3647 3509 3647 2328 
Q 3647 1150 3233 529 
Q 2819 -91 2034 -91 
Q 1250 -91 836 529 
Q 422 1150 422 2328 
Q 422 3509 836 4129 
Q 1250 4750 2034 4750 
z
" transform="scale(0.015625)"/>
       </defs>
       <use xlink:href="#DejaVuSans-30"/>
      </g>
     </g>
    </g>
    <g id="xtick_2">
     <g id="line2d_2">
      <g>
       <use xlink:href="#ma55fbbedfd" x="156.792312" y="386.51476" style="stroke: #000000; stroke-width: 0.8"/>
      </g>
     </g>
     <g id="text_2">
      <!-- 1000 -->
      <g transform="translate(136.432312 405.67226)scale(0.16 -0.16)">
       <defs>
        <path id="DejaVuSans-31" d="M 794 531 
L 1825 531 
L 1825 4091 
L 703 3866 
L 703 4441 
L 1819 4666 
L 2450 4666 
L 2450 531 
L 3481 531 
L 3481 0 
L 794 0 
L 794 531 
z
" transform="scale(0.015625)"/>
       </defs>
       <use xlink:href="#DejaVuSans-31"/>
       <use xlink:href="#DejaVuSans-30" x="63.623047"/>
       <use xlink:href="#DejaVuSans-30" x="127.246094"/>
       <use xlink:href="#DejaVuSans-30" x="190.869141"/>
      </g>
     </g>
    </g>
    <g id="xtick_3">
     <g id="line2d_3">
      <g>
       <use xlink:href="#ma55fbbedfd" x="251.226813" y="386.51476" style="stroke: #000000; stroke-width: 0.8"/>
      </g>
     </g>
     <g id="text_3">
      <!-- 2000 -->
      <g transform="translate(230.866813 405.67226)scale(0.16 -0.16)">
       <defs>
        <path id="DejaVuSans-32" d="M 1228 531 
L 3431 531 
L 3431 0 
L 469 0 
L 469 531 
Q 828 903 1448 1529 
Q 2069 2156 2228 2338 
Q 2531 2678 2651 2914 
Q 2772 3150 2772 3378 
Q 2772 3750 2511 3984 
Q 2250 4219 1831 4219 
Q 1534 4219 1204 4116 
Q 875 4013 500 3803 
L 500 4441 
Q 881 4594 1212 4672 
Q 1544 4750 1819 4750 
Q 2544 4750 2975 4387 
Q 3406 4025 3406 3419 
Q 3406 3131 3298 2873 
Q 3191 2616 2906 2266 
Q 2828 2175 2409 1742 
Q 1991 1309 1228 531 
z
" transform="scale(0.015625)"/>
       </defs>
       <use xlink:href="#DejaVuSans-32"/>
       <use xlink:href="#DejaVuSans-30" x="63.623047"/>
       <use xlink:href="#DejaVuSans-30" x="127.246094"/>
       <use xlink:href="#DejaVuSans-30" x="190.869141"/>
      </g>
     </g>
    </g>
    <g id="xtick_4">
     <g id="line2d_4">
      <g>
       <use xlink:href="#ma55fbbedfd" x="345.661313" y="386.51476" style="stroke: #000000; stroke-width: 0.8"/>
      </g>
     </g>
     <g id="text_4">
      <!-- 3000 -->
      <g transform="translate(325.301313 405.67226)scale(0.16 -0.16)">
       <defs>
        <path id="DejaVuSans-33" d="M 2597 2516 
Q 3050 2419 3304 2112 
Q 3559 1806 3559 1356 
Q 3559 666 3084 287 
Q 2609 -91 1734 -91 
Q 1441 -91 1130 -33 
Q 819 25 488 141 
L 488 750 
Q 750 597 1062 519 
Q 1375 441 1716 441 
Q 2309 441 2620 675 
Q 2931 909 2931 1356 
Q 2931 1769 2642 2001 
Q 2353 2234 1838 2234 
L 1294 2234 
L 1294 2753 
L 1863 2753 
Q 2328 2753 2575 2939 
Q 2822 3125 2822 3475 
Q 2822 3834 2567 4026 
Q 2313 4219 1838 4219 
Q 1578 4219 1281 4162 
Q 984 4106 628 3988 
L 628 4550 
Q 988 4650 1302 4700 
Q 1616 4750 1894 4750 
Q 2613 4750 3031 4423 
Q 3450 4097 3450 3541 
Q 3450 3153 3228 2886 
Q 3006 2619 2597 2516 
z
" transform="scale(0.015625)"/>
       </defs>
       <use xlink:href="#DejaVuSans-33"/>
       <use xlink:href="#DejaVuSans-30" x="63.623047"/>
       <use xlink:href="#DejaVuSans-30" x="127.246094"/>
       <use xlink:href="#DejaVuSans-30" x="190.869141"/>
      </g>
     </g>
    </g>
    <g id="text_5">
     <!-- Raman shift / $cm^{-1}$ -->
     <g transform="translate(162.3825 425.67226)scale(0.16 -0.16)">
      <defs>
       <path id="DejaVuSans-52" d="M 2841 2188 
Q 3044 2119 3236 1894 
Q 3428 1669 3622 1275 
L 4263 0 
L 3584 0 
L 2988 1197 
Q 2756 1666 2539 1819 
Q 2322 1972 1947 1972 
L 1259 1972 
L 1259 0 
L 628 0 
L 628 4666 
L 2053 4666 
Q 2853 4666 3247 4331 
Q 3641 3997 3641 3322 
Q 3641 2881 3436 2590 
Q 3231 2300 2841 2188 
z
M 1259 4147 
L 1259 2491 
L 2053 2491 
Q 2509 2491 2742 2702 
Q 2975 2913 2975 3322 
Q 2975 3731 2742 3939 
Q 2509 4147 2053 4147 
L 1259 4147 
z
" transform="scale(0.015625)"/>
       <path id="DejaVuSans-61" d="M 2194 1759 
Q 1497 1759 1228 1600 
Q 959 1441 959 1056 
Q 959 750 1161 570 
Q 1363 391 1709 391 
Q 2188 391 2477 730 
Q 2766 1069 2766 1631 
L 2766 1759 
L 2194 1759 
z
M 3341 1997 
L 3341 0 
L 2766 0 
L 2766 531 
Q 2569 213 2275 61 
Q 1981 -91 1556 -91 
Q 1019 -91 701 211 
Q 384 513 384 1019 
Q 384 1609 779 1909 
Q 1175 2209 1959 2209 
L 2766 2209 
L 2766 2266 
Q 2766 2663 2505 2880 
Q 2244 3097 1772 3097 
Q 1472 3097 1187 3025 
Q 903 2953 641 2809 
L 641 3341 
Q 956 3463 1253 3523 
Q 1550 3584 1831 3584 
Q 2591 3584 2966 3190 
Q 3341 2797 3341 1997 
z
" transform="scale(0.015625)"/>
       <path id="DejaVuSans-6d" d="M 3328 2828 
Q 3544 3216 3844 3400 
Q 4144 3584 4550 3584 
Q 5097 3584 5394 3201 
Q 5691 2819 5691 2113 
L 5691 0 
L 5113 0 
L 5113 2094 
Q 5113 2597 4934 2840 
Q 4756 3084 4391 3084 
Q 3944 3084 3684 2787 
Q 3425 2491 3425 1978 
L 3425 0 
L 2847 0 
L 2847 2094 
Q 2847 2600 2669 2842 
Q 2491 3084 2119 3084 
Q 1678 3084 1418 2786 
Q 1159 2488 1159 1978 
L 1159 0 
L 581 0 
L 581 3500 
L 1159 3500 
L 1159 2956 
Q 1356 3278 1631 3431 
Q 1906 3584 2284 3584 
Q 2666 3584 2933 3390 
Q 3200 3197 3328 2828 
z
" transform="scale(0.015625)"/>
       <path id="DejaVuSans-6e" d="M 3513 2113 
L 3513 0 
L 2938 0 
L 2938 2094 
Q 2938 2591 2744 2837 
Q 2550 3084 2163 3084 
Q 1697 3084 1428 2787 
Q 1159 2491 1159 1978 
L 1159 0 
L 581 0 
L 581 3500 
L 1159 3500 
L 1159 2956 
Q 1366 3272 1645 3428 
Q 1925 3584 2291 3584 
Q 2894 3584 3203 3211 
Q 3513 2838 3513 2113 
z
" transform="scale(0.015625)"/>
       <path id="DejaVuSans-20" transform="scale(0.015625)"/>
       <path id="DejaVuSans-73" d="M 2834 3397 
L 2834 2853 
Q 2591 2978 2328 3040 
Q 2066 3103 1784 3103 
Q 1356 3103 1142 2972 
Q 928 2841 928 2578 
Q 928 2378 1081 2264 
Q 1234 2150 1697 2047 
L 1894 2003 
Q 2506 1872 2764 1633 
Q 3022 1394 3022 966 
Q 3022 478 2636 193 
Q 2250 -91 1575 -91 
Q 1294 -91 989 -36 
Q 684 19 347 128 
L 347 722 
Q 666 556 975 473 
Q 1284 391 1588 391 
Q 1994 391 2212 530 
Q 2431 669 2431 922 
Q 2431 1156 2273 1281 
Q 2116 1406 1581 1522 
L 1381 1569 
Q 847 1681 609 1914 
Q 372 2147 372 2553 
Q 372 3047 722 3315 
Q 1072 3584 1716 3584 
Q 2034 3584 2315 3537 
Q 2597 3491 2834 3397 
z
" transform="scale(0.015625)"/>
       <path id="DejaVuSans-68" d="M 3513 2113 
L 3513 0 
L 2938 0 
L 2938 2094 
Q 2938 2591 2744 2837 
Q 2550 3084 2163 3084 
Q 1697 3084 1428 2787 
Q 1159 2491 1159 1978 
L 1159 0 
L 581 0 
L 581 4863 
L 1159 4863 
L 1159 2956 
Q 1366 3272 1645 3428 
Q 1925 3584 2291 3584 
Q 2894 3584 3203 3211 
Q 3513 2838 3513 2113 
z
" transform="scale(0.015625)"/>
       <path id="DejaVuSans-69" d="M 603 3500 
L 1178 3500 
L 1178 0 
L 603 0 
L 603 3500 
z
M 603 4863 
L 1178 4863 
L 1178 4134 
L 603 4134 
L 603 4863 
z
" transform="scale(0.015625)"/>
       <path id="DejaVuSans-66" d="M 2375 4863 
L 2375 4384 
L 1825 4384 
Q 1516 4384 1395 4259 
Q 1275 4134 1275 3809 
L 1275 3500 
L 2222 3500 
L 2222 3053 
L 1275 3053 
L 1275 0 
L 697 0 
L 697 3053 
L 147 3053 
L 147 3500 
L 697 3500 
L 697 3744 
Q 697 4328 969 4595 
Q 1241 4863 1831 4863 
L 2375 4863 
z
" transform="scale(0.015625)"/>
       <path id="DejaVuSans-74" d="M 1172 4494 
L 1172 3500 
L 2356 3500 
L 2356 3053 
L 1172 3053 
L 1172 1153 
Q 1172 725 1289 603 
Q 1406 481 1766 481 
L 2356 481 
L 2356 0 
L 1766 0 
Q 1100 0 847 248 
Q 594 497 594 1153 
L 594 3053 
L 172 3053 
L 172 3500 
L 594 3500 
L 594 4494 
L 1172 4494 
z
" transform="scale(0.015625)"/>
       <path id="DejaVuSans-2f" d="M 1625 4666 
L 2156 4666 
L 531 -594 
L 0 -594 
L 1625 4666 
z
" transform="scale(0.015625)"/>
       <path id="DejaVuSans-Oblique-63" d="M 3431 3366 
L 3316 2797 
Q 3109 2947 2876 3022 
Q 2644 3097 2394 3097 
Q 2119 3097 1870 3000 
Q 1622 2903 1453 2725 
Q 1184 2453 1037 2087 
Q 891 1722 891 1331 
Q 891 859 1127 628 
Q 1363 397 1844 397 
Q 2081 397 2348 469 
Q 2616 541 2906 684 
L 2797 116 
Q 2547 13 2283 -39 
Q 2019 -91 1741 -91 
Q 1044 -91 669 257 
Q 294 606 294 1253 
Q 294 1797 489 2255 
Q 684 2713 1069 3078 
Q 1331 3328 1684 3456 
Q 2038 3584 2456 3584 
Q 2700 3584 2940 3529 
Q 3181 3475 3431 3366 
z
" transform="scale(0.015625)"/>
       <path id="DejaVuSans-Oblique-6d" d="M 5747 2113 
L 5338 0 
L 4763 0 
L 5166 2094 
Q 5191 2228 5203 2325 
Q 5216 2422 5216 2491 
Q 5216 2772 5059 2928 
Q 4903 3084 4622 3084 
Q 4203 3084 3875 2770 
Q 3547 2456 3450 1953 
L 3066 0 
L 2491 0 
L 2900 2094 
Q 2925 2209 2937 2307 
Q 2950 2406 2950 2484 
Q 2950 2769 2794 2926 
Q 2638 3084 2363 3084 
Q 1938 3084 1609 2770 
Q 1281 2456 1184 1953 
L 800 0 
L 225 0 
L 909 3500 
L 1484 3500 
L 1375 2956 
Q 1609 3263 1923 3423 
Q 2238 3584 2597 3584 
Q 2978 3584 3223 3384 
Q 3469 3184 3519 2828 
Q 3781 3197 4126 3390 
Q 4472 3584 4856 3584 
Q 5306 3584 5551 3325 
Q 5797 3066 5797 2591 
Q 5797 2488 5784 2364 
Q 5772 2241 5747 2113 
z
" transform="scale(0.015625)"/>
       <path id="DejaVuSans-2212" d="M 678 2272 
L 4684 2272 
L 4684 1741 
L 678 1741 
L 678 2272 
z
" transform="scale(0.015625)"/>
      </defs>
      <use xlink:href="#DejaVuSans-52" transform="translate(0 0.684375)"/>
      <use xlink:href="#DejaVuSans-61" transform="translate(69.482422 0.684375)"/>
      <use xlink:href="#DejaVuSans-6d" transform="translate(130.761719 0.684375)"/>
      <use xlink:href="#DejaVuSans-61" transform="translate(228.173828 0.684375)"/>
      <use xlink:href="#DejaVuSans-6e" transform="translate(289.453125 0.684375)"/>
      <use xlink:href="#DejaVuSans-20" transform="translate(352.832031 0.684375)"/>
      <use xlink:href="#DejaVuSans-73" transform="translate(384.619141 0.684375)"/>
      <use xlink:href="#DejaVuSans-68" transform="translate(436.71875 0.684375)"/>
      <use xlink:href="#DejaVuSans-69" transform="translate(500.097656 0.684375)"/>
      <use xlink:href="#DejaVuSans-66" transform="translate(527.880859 0.684375)"/>
      <use xlink:href="#DejaVuSans-74" transform="translate(563.085938 0.684375)"/>
      <use xlink:href="#DejaVuSans-20" transform="translate(602.294922 0.684375)"/>
      <use xlink:href="#DejaVuSans-2f" transform="translate(634.082031 0.684375)"/>
      <use xlink:href="#DejaVuSans-20" transform="translate(667.773438 0.684375)"/>
      <use xlink:href="#DejaVuSans-Oblique-63" transform="translate(699.560547 0.684375)"/>
      <use xlink:href="#DejaVuSans-Oblique-6d" transform="translate(754.541016 0.684375)"/>
      <use xlink:href="#DejaVuSans-2212" transform="translate(856.603021 38.965625)scale(0.7)"/>
      <use xlink:href="#DejaVuSans-31" transform="translate(915.255365 38.965625)scale(0.7)"/>
     </g>
    </g>
   </g>
   <g id="matplotlib.axis_2">
    <g id="ytick_1">
     <g id="line2d_5">
      <defs>
       <path id="me5d3e36237" d="M 0 0 
L -3.5 0 
" style="stroke: #000000; stroke-width: 0.8"/>
      </defs>
      <g>
       <use xlink:href="#me5d3e36237" x="49.84524" y="370.055012" style="stroke: #000000; stroke-width: 0.8"/>
      </g>
     </g>
     <g id="text_6">
      <!-- 0 -->
      <g transform="translate(32.66524 376.133762)scale(0.16 -0.16)">
       <use xlink:href="#DejaVuSans-30"/>
      </g>
     </g>
    </g>
    <g id="ytick_2">
     <g id="line2d_6">
      <g>
       <use xlink:href="#me5d3e36237" x="49.84524" y="313.771128" style="stroke: #000000; stroke-width: 0.8"/>
      </g>
     </g>
     <g id="text_7">
      <!-- 2 -->
      <g transform="translate(32.66524 319.849878)scale(0.16 -0.16)">
       <use xlink:href="#DejaVuSans-32"/>
      </g>
     </g>
    </g>
    <g id="ytick_3">
     <g id="line2d_7">
      <g>
       <use xlink:href="#me5d3e36237" x="49.84524" y="257.487243" style="stroke: #000000; stroke-width: 0.8"/>
      </g>
     </g>
     <g id="text_8">
      <!-- 4 -->
      <g transform="translate(32.66524 263.565993)scale(0.16 -0.16)">
       <defs>
        <path id="DejaVuSans-34" d="M 2419 4116 
L 825 1625 
L 2419 1625 
L 2419 4116 
z
M 2253 4666 
L 3047 4666 
L 3047 1625 
L 3713 1625 
L 3713 1100 
L 3047 1100 
L 3047 0 
L 2419 0 
L 2419 1100 
L 313 1100 
L 313 1709 
L 2253 4666 
z
" transform="scale(0.015625)"/>
       </defs>
       <use xlink:href="#DejaVuSans-34"/>
      </g>
     </g>
    </g>
    <g id="ytick_4">
     <g id="line2d_8">
      <g>
       <use xlink:href="#me5d3e36237" x="49.84524" y="201.203359" style="stroke: #000000; stroke-width: 0.8"/>
      </g>
     </g>
     <g id="text_9">
      <!-- 6 -->
      <g transform="translate(32.66524 207.282109)scale(0.16 -0.16)">
       <defs>
        <path id="DejaVuSans-36" d="M 2113 2584 
Q 1688 2584 1439 2293 
Q 1191 2003 1191 1497 
Q 1191 994 1439 701 
Q 1688 409 2113 409 
Q 2538 409 2786 701 
Q 3034 994 3034 1497 
Q 3034 2003 2786 2293 
Q 2538 2584 2113 2584 
z
M 3366 4563 
L 3366 3988 
Q 3128 4100 2886 4159 
Q 2644 4219 2406 4219 
Q 1781 4219 1451 3797 
Q 1122 3375 1075 2522 
Q 1259 2794 1537 2939 
Q 1816 3084 2150 3084 
Q 2853 3084 3261 2657 
Q 3669 2231 3669 1497 
Q 3669 778 3244 343 
Q 2819 -91 2113 -91 
Q 1303 -91 875 529 
Q 447 1150 447 2328 
Q 447 3434 972 4092 
Q 1497 4750 2381 4750 
Q 2619 4750 2861 4703 
Q 3103 4656 3366 4563 
z
" transform="scale(0.015625)"/>
       </defs>
       <use xlink:href="#DejaVuSans-36"/>
      </g>
     </g>
    </g>
    <g id="ytick_5">
     <g id="line2d_9">
      <g>
       <use xlink:href="#me5d3e36237" x="49.84524" y="144.919475" style="stroke: #000000; stroke-width: 0.8"/>
      </g>
     </g>
     <g id="text_10">
      <!-- 8 -->
      <g transform="translate(32.66524 150.998225)scale(0.16 -0.16)">
       <defs>
        <path id="DejaVuSans-38" d="M 2034 2216 
Q 1584 2216 1326 1975 
Q 1069 1734 1069 1313 
Q 1069 891 1326 650 
Q 1584 409 2034 409 
Q 2484 409 2743 651 
Q 3003 894 3003 1313 
Q 3003 1734 2745 1975 
Q 2488 2216 2034 2216 
z
M 1403 2484 
Q 997 2584 770 2862 
Q 544 3141 544 3541 
Q 544 4100 942 4425 
Q 1341 4750 2034 4750 
Q 2731 4750 3128 4425 
Q 3525 4100 3525 3541 
Q 3525 3141 3298 2862 
Q 3072 2584 2669 2484 
Q 3125 2378 3379 2068 
Q 3634 1759 3634 1313 
Q 3634 634 3220 271 
Q 2806 -91 2034 -91 
Q 1263 -91 848 271 
Q 434 634 434 1313 
Q 434 1759 690 2068 
Q 947 2378 1403 2484 
z
M 1172 3481 
Q 1172 3119 1398 2916 
Q 1625 2713 2034 2713 
Q 2441 2713 2670 2916 
Q 2900 3119 2900 3481 
Q 2900 3844 2670 4047 
Q 2441 4250 2034 4250 
Q 1625 4250 1398 4047 
Q 1172 3844 1172 3481 
z
" transform="scale(0.015625)"/>
       </defs>
       <use xlink:href="#DejaVuSans-38"/>
      </g>
     </g>
    </g>
    <g id="ytick_6">
     <g id="line2d_10">
      <g>
       <use xlink:href="#me5d3e36237" x="49.84524" y="88.635591" style="stroke: #000000; stroke-width: 0.8"/>
      </g>
     </g>
     <g id="text_11">
      <!-- 10 -->
      <g transform="translate(22.48524 94.714341)scale(0.16 -0.16)">
       <use xlink:href="#DejaVuSans-31"/>
       <use xlink:href="#DejaVuSans-30" x="63.623047"/>
      </g>
     </g>
    </g>
    <g id="ytick_7">
     <g id="line2d_11">
      <g>
       <use xlink:href="#me5d3e36237" x="49.84524" y="32.351707" style="stroke: #000000; stroke-width: 0.8"/>
      </g>
     </g>
     <g id="text_12">
      <!-- 12 -->
      <g transform="translate(22.48524 38.430457)scale(0.16 -0.16)">
       <use xlink:href="#DejaVuSans-31"/>
       <use xlink:href="#DejaVuSans-32" x="63.623047"/>
      </g>
     </g>
    </g>
    <g id="text_13">
     <!-- Intensity / a.u -->
     <g transform="translate(15.15774 257.431562)rotate(-90)scale(0.16 -0.16)">
      <defs>
       <path id="DejaVuSans-49" d="M 628 4666 
L 1259 4666 
L 1259 0 
L 628 0 
L 628 4666 
z
" transform="scale(0.015625)"/>
       <path id="DejaVuSans-65" d="M 3597 1894 
L 3597 1613 
L 953 1613 
Q 991 1019 1311 708 
Q 1631 397 2203 397 
Q 2534 397 2845 478 
Q 3156 559 3463 722 
L 3463 178 
Q 3153 47 2828 -22 
Q 2503 -91 2169 -91 
Q 1331 -91 842 396 
Q 353 884 353 1716 
Q 353 2575 817 3079 
Q 1281 3584 2069 3584 
Q 2775 3584 3186 3129 
Q 3597 2675 3597 1894 
z
M 3022 2063 
Q 3016 2534 2758 2815 
Q 2500 3097 2075 3097 
Q 1594 3097 1305 2825 
Q 1016 2553 972 2059 
L 3022 2063 
z
" transform="scale(0.015625)"/>
       <path id="DejaVuSans-79" d="M 2059 -325 
Q 1816 -950 1584 -1140 
Q 1353 -1331 966 -1331 
L 506 -1331 
L 506 -850 
L 844 -850 
Q 1081 -850 1212 -737 
Q 1344 -625 1503 -206 
L 1606 56 
L 191 3500 
L 800 3500 
L 1894 763 
L 2988 3500 
L 3597 3500 
L 2059 -325 
z
" transform="scale(0.015625)"/>
       <path id="DejaVuSans-2e" d="M 684 794 
L 1344 794 
L 1344 0 
L 684 0 
L 684 794 
z
" transform="scale(0.015625)"/>
       <path id="DejaVuSans-75" d="M 544 1381 
L 544 3500 
L 1119 3500 
L 1119 1403 
Q 1119 906 1312 657 
Q 1506 409 1894 409 
Q 2359 409 2629 706 
Q 2900 1003 2900 1516 
L 2900 3500 
L 3475 3500 
L 3475 0 
L 2900 0 
L 2900 538 
Q 2691 219 2414 64 
Q 2138 -91 1772 -91 
Q 1169 -91 856 284 
Q 544 659 544 1381 
z
M 1991 3584 
L 1991 3584 
z
" transform="scale(0.015625)"/>
      </defs>
      <use xlink:href="#DejaVuSans-49"/>
      <use xlink:href="#DejaVuSans-6e" x="29.492188"/>
      <use xlink:href="#DejaVuSans-74" x="92.871094"/>
      <use xlink:href="#DejaVuSans-65" x="132.080078"/>
      <use xlink:href="#DejaVuSans-6e" x="193.603516"/>
      <use xlink:href="#DejaVuSans-73" x="256.982422"/>
      <use xlink:href="#DejaVuSans-69" x="309.082031"/>
      <use xlink:href="#DejaVuSans-74" x="336.865234"/>
      <use xlink:href="#DejaVuSans-79" x="376.074219"/>
      <use xlink:href="#DejaVuSans-20" x="435.253906"/>
      <use xlink:href="#DejaVuSans-2f" x="467.041016"/>
      <use xlink:href="#DejaVuSans-20" x="500.732422"/>
      <use xlink:href="#DejaVuSans-61" x="532.519531"/>
      <use xlink:href="#DejaVuSans-2e" x="593.798828"/>
      <use xlink:href="#DejaVuSans-75" x="625.585938"/>
     </g>
    </g>
   </g>
   <g id="line2d_12">
    <path d="M 67.079536 355.774461 
L 67.173971 355.80082 
L 67.36284 354.785448 
L 67.646143 353.27957 
L 67.740578 353.568534 
L 68.023881 356.416091 
L 68.307185 358.643047 
L 68.401619 358.770741 
L 68.684923 358.510613 
L 68.779357 358.638736 
L 69.345964 361.430307 
L 69.440399 361.398814 
L 69.818137 360.529874 
L 69.912571 360.580838 
L 70.10144 361.142821 
L 70.384744 361.964876 
L 70.479178 361.988992 
L 70.951351 361.44985 
L 71.234654 362.453408 
L 71.517958 363.296827 
L 71.706827 363.283484 
L 71.99013 363.129707 
L 72.178999 363.499453 
L 72.556737 364.570938 
L 72.745606 364.627998 
L 73.02891 364.572395 
L 73.217779 365.032515 
L 73.689951 366.686814 
L 73.87882 366.662375 
L 74.256558 366.250387 
L 74.445427 366.45893 
L 74.823165 366.919464 
L 75.012034 366.746181 
L 75.295338 366.395846 
L 75.484207 366.472733 
L 75.956379 366.903061 
L 76.522986 366.877342 
L 76.900724 367.151341 
L 77.184028 367.049344 
L 77.467331 366.982014 
L 78.033938 367.254049 
L 78.69498 366.658903 
L 79.922628 367.414992 
L 80.205932 367.29009 
L 80.678104 366.944495 
L 81.055842 367.283507 
L 81.339146 367.420318 
L 82.47236 367.211931 
L 82.944532 366.882141 
L 83.227836 366.710382 
L 83.511139 366.245691 
L 83.983312 365.436605 
L 84.833222 364.768731 
L 85.116526 364.660007 
L 85.872002 364.806016 
L 86.627478 364.63488 
L 87.194085 364.13149 
L 87.855127 364.012169 
L 88.893906 363.043466 
L 90.688162 360.43712 
L 90.971465 360.343364 
L 91.160334 360.427846 
L 91.443638 360.887949 
L 92.199114 362.505965 
L 93.521197 364.162789 
L 94.748845 364.976603 
L 95.221018 365.20328 
L 95.69319 365.398931 
L 96.259797 365.659914 
L 97.015273 365.755603 
L 97.959618 366.096492 
L 98.526225 366.432263 
L 99.281701 366.503933 
L 99.753874 366.545305 
L 100.603784 366.88985 
L 101.736998 366.525388 
L 102.586909 366.267111 
L 102.870212 366.252116 
L 104.28673 366.954611 
L 105.892116 368.303517 
L 106.553158 368.157492 
L 106.930896 367.75965 
L 107.497503 367.201408 
L 107.969675 366.667256 
L 108.725151 365.491362 
L 109.102889 364.334106 
L 109.386193 362.850417 
L 109.669496 359.926798 
L 109.9528 353.408211 
L 110.141669 344.005918 
L 110.424972 314.179861 
L 110.708276 253.734635 
L 111.558186 34.863656 
L 111.652621 37.90739 
L 111.84149 67.546912 
L 112.219228 192.362927 
L 112.6914 321.418284 
L 112.974704 350.382078 
L 113.258007 358.431856 
L 113.635745 362.268574 
L 114.013483 364.418672 
L 114.957828 366.744771 
L 116.279911 368.069179 
L 116.657649 368.434165 
L 117.035387 368.701003 
L 118.263036 368.553587 
L 118.924077 368.294042 
L 119.679553 367.906786 
L 120.151726 367.562647 
L 120.812767 367.015542 
L 121.190505 367.046422 
L 121.851547 367.4579 
L 122.512588 367.678536 
L 123.079195 367.73153 
L 124.306844 367.268433 
L 124.779016 366.933377 
L 125.251189 367.002338 
L 128.273093 368.081991 
L 128.8397 368.400324 
L 129.68961 368.555301 
L 130.256217 368.948591 
L 130.539521 368.875387 
L 131.389431 368.456365 
L 131.956038 368.524674 
L 132.522645 368.545533 
L 134.033597 368.220108 
L 135.166811 368.149753 
L 136.39446 367.653028 
L 137.24437 367.574703 
L 138.28315 367.003807 
L 139.321929 366.958458 
L 139.982971 366.55727 
L 140.360709 366.660534 
L 141.399488 367.125566 
L 142.154964 367.121744 
L 144.138089 366.728702 
L 144.515827 366.635904 
L 145.082434 366.425302 
L 146.498951 366.57118 
L 146.876689 366.666227 
L 147.254427 366.474333 
L 147.915469 366.077517 
L 149.048683 365.699332 
L 149.331986 365.246387 
L 149.61529 364.313626 
L 149.993028 361.993433 
L 150.559635 356.278596 
L 151.220676 350.238495 
L 151.50398 349.012962 
L 151.787283 348.589087 
L 152.35389 348.48813 
L 153.675973 348.030031 
L 154.525884 347.635623 
L 154.714753 347.713589 
L 154.903622 347.988391 
L 155.186925 348.837914 
L 155.564663 350.795965 
L 156.13127 355.294273 
L 156.792312 360.353274 
L 157.264484 362.251894 
L 157.831091 363.441526 
L 158.681002 364.977841 
L 159.247609 365.908411 
L 159.90865 366.604565 
L 160.852995 368.033279 
L 161.419602 368.358035 
L 161.891775 368.452238 
L 163.8749 368.41652 
L 164.347072 368.594599 
L 165.952459 368.211298 
L 167.180107 367.754703 
L 167.463411 367.873611 
L 167.841149 368.044238 
L 168.124452 367.901405 
L 168.596625 367.609917 
L 168.879928 367.678533 
L 169.54097 367.944052 
L 170.296446 368.07451 
L 170.768618 368.162649 
L 171.42966 368.162413 
L 171.807398 368.184171 
L 172.374005 368.062469 
L 173.035046 368.262663 
L 173.696088 368.002511 
L 174.16826 368.3307 
L 174.545998 368.442366 
L 175.679212 368.336013 
L 176.340254 368.422816 
L 177.473468 368.184121 
L 178.134509 368.239344 
L 178.606682 368.365598 
L 178.98442 368.186385 
L 179.551027 367.888463 
L 180.023199 367.873109 
L 180.778675 367.944973 
L 181.628586 367.846885 
L 182.289627 367.783306 
L 183.989448 367.145595 
L 184.65049 366.527604 
L 185.028228 366.213101 
L 185.5004 365.444621 
L 186.161442 364.086708 
L 186.53918 362.814904 
L 186.916918 360.816371 
L 187.294656 357.709842 
L 187.672394 352.617819 
L 188.144566 342.695196 
L 189.088911 320.785194 
L 189.372215 318.434928 
L 189.466649 318.411514 
L 189.655518 319.522271 
L 189.938822 323.855914 
L 191.638643 357.465782 
L 192.110815 360.806008 
L 192.677422 363.008518 
L 193.244029 364.338918 
L 194.09394 365.565893 
L 195.227154 366.914434 
L 195.604892 366.881247 
L 196.171499 366.803493 
L 196.926975 366.941274 
L 197.399147 367.099741 
L 197.776885 366.959805 
L 198.154623 366.828303 
L 198.437927 366.917361 
L 199.287837 367.462487 
L 199.571141 367.27759 
L 200.043313 366.930436 
L 200.421051 366.980941 
L 201.176527 367.170928 
L 201.6487 366.956592 
L 202.026438 366.865122 
L 203.254086 367.154822 
L 203.726259 367.48145 
L 204.009562 367.324091 
L 204.3873 367.077593 
L 204.670604 367.123646 
L 205.237211 367.31692 
L 206.370425 367.04603 
L 207.125901 366.665103 
L 207.692508 366.681082 
L 208.731287 366.190964 
L 209.770067 364.924404 
L 210.242239 363.959671 
L 210.619977 362.681746 
L 210.997715 360.462662 
L 211.564322 355.554316 
L 212.225364 347.379804 
L 212.603102 343.465774 
L 212.791971 342.752178 
L 212.886405 342.820094 
L 213.075274 343.864125 
L 213.358578 347.285861 
L 214.208488 359.404412 
L 214.586226 361.445457 
L 214.86953 361.907456 
L 215.058399 361.925908 
L 215.71944 361.628125 
L 215.908309 361.916519 
L 216.191613 362.874147 
L 217.230392 367.002323 
L 217.513696 367.376696 
L 217.796999 367.376541 
L 218.269172 367.312299 
L 218.64691 367.585604 
L 219.119082 367.889315 
L 219.591255 367.839537 
L 219.968993 367.910586 
L 220.913338 368.416704 
L 221.479945 368.489025 
L 221.763248 368.476511 
L 222.518724 368.177654 
L 223.085331 368.341707 
L 223.935242 368.295087 
L 224.879587 368.444044 
L 225.351759 368.349237 
L 225.823932 368.296155 
L 226.296104 368.074923 
L 226.579408 368.216502 
L 226.957146 368.413679 
L 227.334884 368.258888 
L 227.712622 368.193522 
L 228.373663 368.353512 
L 229.223574 368.09896 
L 229.97905 368.34636 
L 230.545657 368.219065 
L 231.773305 368.474092 
L 232.623216 368.415267 
L 233.284257 368.526943 
L 234.60634 368.617563 
L 234.984078 368.652938 
L 235.928423 368.318639 
L 236.49503 368.368136 
L 237.250506 368.17506 
L 237.817113 368.249869 
L 238.478155 368.162842 
L 240.933452 368.630566 
L 241.688928 368.467538 
L 242.822142 368.469955 
L 243.388749 368.436632 
L 243.955356 368.766459 
L 244.23866 368.497799 
L 244.616398 368.09882 
L 244.899701 368.15593 
L 245.371874 368.34787 
L 245.844046 368.36003 
L 246.693957 368.674938 
L 247.260564 368.460637 
L 247.638302 368.368105 
L 248.771516 368.453264 
L 249.90473 368.118307 
L 250.376902 368.51827 
L 250.75464 368.678623 
L 251.510116 368.734065 
L 251.887854 368.745473 
L 252.832199 368.435051 
L 253.493241 368.588478 
L 254.154282 368.394102 
L 254.815324 368.784659 
L 255.5708 368.602727 
L 256.042972 368.637646 
L 256.704014 368.576248 
L 257.365055 368.52508 
L 258.3094 368.230986 
L 258.876007 368.359845 
L 259.253745 368.432199 
L 259.914787 368.672802 
L 260.575828 368.60489 
L 261.048001 368.603799 
L 261.709042 368.468373 
L 265.580857 368.734341 
L 265.958595 368.849054 
L 266.525202 368.779758 
L 266.90294 368.767994 
L 267.469547 368.492028 
L 268.508326 368.764272 
L 269.358237 368.766098 
L 269.64154 368.713484 
L 270.208147 368.862506 
L 270.774754 368.499338 
L 271.53023 368.797445 
L 272.096837 368.652404 
L 272.852313 368.575367 
L 273.41892 368.492518 
L 274.174396 368.668901 
L 275.496479 368.420463 
L 276.063086 368.849487 
L 276.34639 368.70005 
L 276.724128 368.491641 
L 277.668473 368.514209 
L 277.951776 368.470849 
L 278.707252 368.814424 
L 279.462728 368.405894 
L 280.312639 368.764707 
L 281.445853 368.520988 
L 281.918025 368.536445 
L 282.579067 368.443944 
L 283.523412 368.503464 
L 284.562191 368.626478 
L 284.939929 368.736725 
L 286.923054 368.284513 
L 287.584095 368.455302 
L 288.717309 368.076273 
L 289.095047 368.088705 
L 289.661654 368.324191 
L 290.41713 367.951855 
L 291.172606 368.308948 
L 291.833648 368.175455 
L 292.777993 367.637997 
L 293.439034 367.161027 
L 294.761117 366.732394 
L 295.705462 366.953612 
L 297.594152 367.553881 
L 299.105104 367.596789 
L 299.671711 367.628143 
L 300.238318 367.505694 
L 300.616056 367.437782 
L 302.504746 367.799332 
L 303.260222 367.607776 
L 304.67674 367.834751 
L 305.337781 367.78558 
L 305.998823 367.798516 
L 306.56543 367.708823 
L 306.943168 367.624507 
L 307.509775 367.662442 
L 308.170816 367.310982 
L 308.737423 367.27396 
L 309.115161 366.895132 
L 309.776203 366.151216 
L 311.098286 365.37935 
L 311.759327 364.246139 
L 312.137065 363.12995 
L 312.986976 359.616083 
L 313.553583 356.063862 
L 314.309059 349.532925 
L 315.442273 339.130305 
L 315.820011 337.776721 
L 316.00888 337.691328 
L 316.197749 338.070375 
L 316.481053 339.412127 
L 316.953225 343.102591 
L 318.747481 359.170734 
L 319.314088 361.824289 
L 320.069564 364.062893 
L 320.636171 365.311039 
L 321.391647 366.213931 
L 322.619295 367.19249 
L 323.56364 367.282589 
L 324.035813 367.30429 
L 325.45233 367.755063 
L 325.830068 367.73825 
L 326.963282 367.884281 
L 327.529889 367.699479 
L 328.190931 367.869193 
L 329.040841 367.671178 
L 329.796317 368.002929 
L 330.174055 367.81923 
L 330.835097 367.873968 
L 331.401704 367.502993 
L 331.968311 367.676874 
L 333.290394 368.019512 
L 334.04587 367.827302 
L 334.423608 367.766918 
L 334.89578 367.292232 
L 335.179084 367.124842 
L 335.462387 367.199001 
L 335.840125 367.353555 
L 336.123429 367.223777 
L 337.445512 366.299249 
L 337.82325 366.058951 
L 338.389857 365.565586 
L 340.089678 365.133993 
L 340.56185 365.19343 
L 341.034023 365.340042 
L 341.506195 365.375396 
L 341.789499 365.739007 
L 342.261671 366.40071 
L 344.055927 367.629626 
L 344.716968 367.76363 
L 345.189141 368.191231 
L 345.850182 368.112057 
L 346.322355 368.389086 
L 347.172265 368.23614 
L 347.644438 368.3971 
L 348.399914 368.356923 
L 349.721997 368.670887 
L 350.571907 368.481644 
L 350.949645 368.385477 
L 351.232949 368.319932 
L 351.516252 368.531039 
L 351.988425 368.898905 
L 352.555032 368.826631 
L 353.78268 368.576238 
L 356.237977 368.533691 
L 356.615715 368.440323 
L 356.993453 368.637755 
L 357.371191 368.78327 
L 358.504405 368.546491 
L 358.882143 368.563142 
L 359.543185 368.279887 
L 360.015357 368.412637 
L 360.581964 368.316255 
L 361.243006 368.472554 
L 361.904047 368.362795 
L 362.281785 368.096936 
L 362.470654 368.18108 
L 362.942827 368.689028 
L 363.22613 368.482817 
L 363.509434 368.260575 
L 363.887172 368.328352 
L 364.26491 368.280845 
L 364.642648 368.308775 
L 365.303689 368.532245 
L 366.625772 368.348172 
L 367.097945 368.083984 
L 367.475683 367.984991 
L 367.853421 367.412066 
L 368.420028 366.632201 
L 368.797766 366.398667 
L 369.175504 366.447516 
L 369.647676 366.765856 
L 370.403152 367.521117 
L 370.969759 368.398892 
L 371.253063 368.475431 
L 371.81967 368.500057 
L 372.480711 368.748017 
L 372.952884 368.588826 
L 373.613925 368.915787 
L 374.274967 368.689165 
L 374.652705 368.727085 
L 375.502615 368.479666 
L 376.258091 368.749759 
L 376.730264 368.77014 
L 377.296871 368.716328 
L 378.33565 368.72977 
L 379.37443 368.740343 
L 380.318775 368.79856 
L 380.602078 368.808173 
L 381.168685 369.149517 
L 381.735292 369.038684 
L 382.11303 368.995653 
L 382.774072 368.803032 
L 383.623982 368.721577 
L 384.190589 368.808231 
L 384.851631 369.203617 
L 386.173714 368.605124 
L 386.834755 368.984763 
L 387.495797 369.051292 
L 388.062404 368.896794 
L 388.629011 368.894451 
L 389.195618 368.84116 
L 390.517701 369.033031 
L 390.801004 369.023103 
L 391.462046 368.773242 
L 392.500826 369.11517 
L 393.350736 369.111379 
L 394.389516 369.011339 
L 395.144992 368.928419 
L 395.711599 369.033532 
L 396.844813 369.170621 
L 398.26133 369.081069 
L 399.111241 369.408598 
L 399.772282 369.243369 
L 400.338889 369.634917 
L 400.622193 369.36088 
L 400.905496 369.077641 
L 401.094365 369.097087 
L 401.849841 369.522234 
L 402.605317 369.544903 
L 403.07749 369.769469 
L 403.455228 369.552704 
L 403.738531 369.457886 
L 404.399573 369.530923 
L 404.777311 369.402028 
L 405.532787 369.453175 
L 405.910525 369.367691 
L 406.666001 369.478693 
L 408.932429 369.680213 
L 409.404601 369.521658 
L 409.876774 369.646015 
L 410.348946 369.314494 
L 410.63225 369.498926 
L 411.009988 369.696731 
L 411.387726 369.519553 
L 411.765464 369.330094 
L 411.765464 369.330094 
" clip-path="url(#pa6c3e23e50)" style="fill: none; stroke: #7f7f7f; stroke-width: 1.5; stroke-linecap: square"/>
   </g>
   <g id="patch_3">
    <path d="M 49.84524 386.51476 
L 49.84524 18.118365 
" style="fill: none; stroke: #000000; stroke-width: 0.8; stroke-linejoin: miter; stroke-linecap: square"/>
   </g>
   <g id="patch_4">
    <path d="M 428.99976 386.51476 
L 428.99976 18.118365 
" style="fill: none; stroke: #000000; stroke-width: 0.8; stroke-linejoin: miter; stroke-linecap: square"/>
   </g>
   <g id="patch_5">
    <path d="M 49.84524 386.51476 
L 428.99976 386.51476 
" style="fill: none; stroke: #000000; stroke-width: 0.8; stroke-linejoin: miter; stroke-linecap: square"/>
   </g>
   <g id="patch_6">
    <path d="M 49.84524 18.118365 
L 428.99976 18.118365 
" style="fill: none; stroke: #000000; stroke-width: 0.8; stroke-linejoin: miter; stroke-linecap: square"/>
   </g>
   <g id="text_14">
    <!-- Average spectra -->
    <g transform="translate(190.455 12.118365)scale(0.12 -0.12)">
     <defs>
      <path id="DejaVuSans-41" d="M 2188 4044 
L 1331 1722 
L 3047 1722 
L 2188 4044 
z
M 1831 4666 
L 2547 4666 
L 4325 0 
L 3669 0 
L 3244 1197 
L 1141 1197 
L 716 0 
L 50 0 
L 1831 4666 
z
" transform="scale(0.015625)"/>
      <path id="DejaVuSans-76" d="M 191 3500 
L 800 3500 
L 1894 563 
L 2988 3500 
L 3597 3500 
L 2284 0 
L 1503 0 
L 191 3500 
z
" transform="scale(0.015625)"/>
      <path id="DejaVuSans-72" d="M 2631 2963 
Q 2534 3019 2420 3045 
Q 2306 3072 2169 3072 
Q 1681 3072 1420 2755 
Q 1159 2438 1159 1844 
L 1159 0 
L 581 0 
L 581 3500 
L 1159 3500 
L 1159 2956 
Q 1341 3275 1631 3429 
Q 1922 3584 2338 3584 
Q 2397 3584 2469 3576 
Q 2541 3569 2628 3553 
L 2631 2963 
z
" transform="scale(0.015625)"/>
      <path id="DejaVuSans-67" d="M 2906 1791 
Q 2906 2416 2648 2759 
Q 2391 3103 1925 3103 
Q 1463 3103 1205 2759 
Q 947 2416 947 1791 
Q 947 1169 1205 825 
Q 1463 481 1925 481 
Q 2391 481 2648 825 
Q 2906 1169 2906 1791 
z
M 3481 434 
Q 3481 -459 3084 -895 
Q 2688 -1331 1869 -1331 
Q 1566 -1331 1297 -1286 
Q 1028 -1241 775 -1147 
L 775 -588 
Q 1028 -725 1275 -790 
Q 1522 -856 1778 -856 
Q 2344 -856 2625 -561 
Q 2906 -266 2906 331 
L 2906 616 
Q 2728 306 2450 153 
Q 2172 0 1784 0 
Q 1141 0 747 490 
Q 353 981 353 1791 
Q 353 2603 747 3093 
Q 1141 3584 1784 3584 
Q 2172 3584 2450 3431 
Q 2728 3278 2906 2969 
L 2906 3500 
L 3481 3500 
L 3481 434 
z
" transform="scale(0.015625)"/>
      <path id="DejaVuSans-70" d="M 1159 525 
L 1159 -1331 
L 581 -1331 
L 581 3500 
L 1159 3500 
L 1159 2969 
Q 1341 3281 1617 3432 
Q 1894 3584 2278 3584 
Q 2916 3584 3314 3078 
Q 3713 2572 3713 1747 
Q 3713 922 3314 415 
Q 2916 -91 2278 -91 
Q 1894 -91 1617 61 
Q 1341 213 1159 525 
z
M 3116 1747 
Q 3116 2381 2855 2742 
Q 2594 3103 2138 3103 
Q 1681 3103 1420 2742 
Q 1159 2381 1159 1747 
Q 1159 1113 1420 752 
Q 1681 391 2138 391 
Q 2594 391 2855 752 
Q 3116 1113 3116 1747 
z
" transform="scale(0.015625)"/>
      <path id="DejaVuSans-63" d="M 3122 3366 
L 3122 2828 
Q 2878 2963 2633 3030 
Q 2388 3097 2138 3097 
Q 1578 3097 1268 2742 
Q 959 2388 959 1747 
Q 959 1106 1268 751 
Q 1578 397 2138 397 
Q 2388 397 2633 464 
Q 2878 531 3122 666 
L 3122 134 
Q 2881 22 2623 -34 
Q 2366 -91 2075 -91 
Q 1284 -91 818 406 
Q 353 903 353 1747 
Q 353 2603 823 3093 
Q 1294 3584 2113 3584 
Q 2378 3584 2631 3529 
Q 2884 3475 3122 3366 
z
" transform="scale(0.015625)"/>
     </defs>
     <use xlink:href="#DejaVuSans-41"/>
     <use xlink:href="#DejaVuSans-76" x="62.533203"/>
     <use xlink:href="#DejaVuSans-65" x="121.712891"/>
     <use xlink:href="#DejaVuSans-72" x="183.236328"/>
     <use xlink:href="#DejaVuSans-61" x="224.349609"/>
     <use xlink:href="#DejaVuSans-67" x="285.628906"/>
     <use xlink:href="#DejaVuSans-65" x="349.105469"/>
     <use xlink:href="#DejaVuSans-20" x="410.628906"/>
     <use xlink:href="#DejaVuSans-73" x="442.416016"/>
     <use xlink:href="#DejaVuSans-70" x="494.515625"/>
     <use xlink:href="#DejaVuSans-65" x="557.992188"/>
     <use xlink:href="#DejaVuSans-63" x="619.515625"/>
     <use xlink:href="#DejaVuSans-74" x="674.496094"/>
     <use xlink:href="#DejaVuSans-72" x="713.705078"/>
     <use xlink:href="#DejaVuSans-61" x="754.818359"/>
    </g>
   </g>
   <g id="legend_1">
    <g id="patch_7">
     <path d="M 311.47226 54.403365 
L 417.79976 54.403365 
Q 420.99976 54.403365 420.99976 51.203365 
L 420.99976 29.318365 
Q 420.99976 26.118365 417.79976 26.118365 
L 311.47226 26.118365 
Q 308.27226 26.118365 308.27226 29.318365 
L 308.27226 51.203365 
Q 308.27226 54.403365 311.47226 54.403365 
z
" style="fill: #ffffff; opacity: 0.8; stroke: #cccccc; stroke-linejoin: miter"/>
    </g>
    <g id="line2d_13">
     <path d="M 314.67226 39.075865 
L 330.67226 39.075865 
L 346.67226 39.075865 
" style="fill: none; stroke: #7f7f7f; stroke-width: 1.5; stroke-linecap: square"/>
    </g>
    <g id="text_15">
     <!-- mapEx -->
     <g transform="translate(359.47226 44.675865)scale(0.16 -0.16)">
      <defs>
       <path id="DejaVuSans-45" d="M 628 4666 
L 3578 4666 
L 3578 4134 
L 1259 4134 
L 1259 2753 
L 3481 2753 
L 3481 2222 
L 1259 2222 
L 1259 531 
L 3634 531 
L 3634 0 
L 628 0 
L 628 4666 
z
" transform="scale(0.015625)"/>
       <path id="DejaVuSans-78" d="M 3513 3500 
L 2247 1797 
L 3578 0 
L 2900 0 
L 1881 1375 
L 863 0 
L 184 0 
L 1544 1831 
L 300 3500 
L 978 3500 
L 1906 2253 
L 2834 3500 
L 3513 3500 
z
" transform="scale(0.015625)"/>
      </defs>
      <use xlink:href="#DejaVuSans-6d"/>
      <use xlink:href="#DejaVuSans-61" x="97.412109"/>
      <use xlink:href="#DejaVuSans-70" x="158.691406"/>
      <use xlink:href="#DejaVuSans-45" x="222.167969"/>
      <use xlink:href="#DejaVuSans-78" x="285.351562"/>
     </g>
    </g>
   </g>
  </g>
 </g>
 <defs>
  <clipPath id="pa6c3e23e50">
   <rect x="49.84524" y="18.118365" width="379.15452" height="368.396395"/>
  </clipPath>
 </defs>
</svg>
