<?xml version="1.0" encoding="utf-8" standalone="no"?>
<!DOCTYPE svg PUBLIC "-//W3C//DTD SVG 1.1//EN"
  "http://www.w3.org/Graphics/SVG/1.1/DTD/svg11.dtd">
<svg xmlns:xlink="http://www.w3.org/1999/xlink" width="576pt" height="432pt" viewBox="0 0 576 432" xmlns="http://www.w3.org/2000/svg" version="1.1">
 <metadata>
  <rdf:RDF xmlns:dc="http://purl.org/dc/elements/1.1/" xmlns:cc="http://creativecommons.org/ns#" xmlns:rdf="http://www.w3.org/1999/02/22-rdf-syntax-ns#">
   <cc:Work>
    <dc:type rdf:resource="http://purl.org/dc/dcmitype/StillImage"/>
    <dc:date>2023-07-14T15:35:34.815728</dc:date>
    <dc:format>image/svg+xml</dc:format>
    <dc:creator>
     <cc:Agent>
      <dc:title>Matplotlib v3.5.2, https://matplotlib.org/</dc:title>
     </cc:Agent>
    </dc:creator>
   </cc:Work>
  </rdf:RDF>
 </metadata>
 <defs>
  <style type="text/css">*{stroke-linejoin: round; stroke-linecap: butt}</style>
 </defs>
 <g id="figure_1">
  <g id="patch_1">
   <path d="M 0 432 
L 576 432 
L 576 0 
L 0 0 
z
" style="fill: #ffffff"/>
  </g>
  <g id="axes_1">
   <g id="patch_2">
    <path d="M 49.84524 387.02976 
L 572.99976 387.02976 
L 572.99976 22.68024 
L 49.84524 22.68024 
z
" style="fill: #ffffff"/>
   </g>
   <g id="patch_3">
    <path d="M 73.624991 387.02976 
L 75.475555 387.02976 
L 75.475555 375.836226 
L 73.624991 375.836226 
z
" clip-path="url(#pae0f5e7ef2)" style="fill: #7f7f7f; opacity: 0.5; stroke: #000000; stroke-linejoin: miter"/>
   </g>
   <g id="patch_4">
    <path d="M 75.475555 387.02976 
L 77.326119 387.02976 
L 77.326119 387.02976 
L 75.475555 387.02976 
z
" clip-path="url(#pae0f5e7ef2)" style="fill: #7f7f7f; opacity: 0.5; stroke: #000000; stroke-linejoin: miter"/>
   </g>
   <g id="patch_5">
    <path d="M 77.326119 387.02976 
L 79.176684 387.02976 
L 79.176684 387.02976 
L 77.326119 387.02976 
z
" clip-path="url(#pae0f5e7ef2)" style="fill: #7f7f7f; opacity: 0.5; stroke: #000000; stroke-linejoin: miter"/>
   </g>
   <g id="patch_6">
    <path d="M 79.176684 387.02976 
L 81.027248 387.02976 
L 81.027248 387.02976 
L 79.176684 387.02976 
z
" clip-path="url(#pae0f5e7ef2)" style="fill: #7f7f7f; opacity: 0.5; stroke: #000000; stroke-linejoin: miter"/>
   </g>
   <g id="patch_7">
    <path d="M 81.027248 387.02976 
L 82.877812 387.02976 
L 82.877812 387.02976 
L 81.027248 387.02976 
z
" clip-path="url(#pae0f5e7ef2)" style="fill: #7f7f7f; opacity: 0.5; stroke: #000000; stroke-linejoin: miter"/>
   </g>
   <g id="patch_8">
    <path d="M 82.877812 387.02976 
L 84.728377 387.02976 
L 84.728377 387.02976 
L 82.877812 387.02976 
z
" clip-path="url(#pae0f5e7ef2)" style="fill: #7f7f7f; opacity: 0.5; stroke: #000000; stroke-linejoin: miter"/>
   </g>
   <g id="patch_9">
    <path d="M 84.728377 387.02976 
L 86.578941 387.02976 
L 86.578941 387.02976 
L 84.728377 387.02976 
z
" clip-path="url(#pae0f5e7ef2)" style="fill: #7f7f7f; opacity: 0.5; stroke: #000000; stroke-linejoin: miter"/>
   </g>
   <g id="patch_10">
    <path d="M 86.578941 387.02976 
L 88.429505 387.02976 
L 88.429505 387.02976 
L 86.578941 387.02976 
z
" clip-path="url(#pae0f5e7ef2)" style="fill: #7f7f7f; opacity: 0.5; stroke: #000000; stroke-linejoin: miter"/>
   </g>
   <g id="patch_11">
    <path d="M 88.429505 387.02976 
L 90.280069 387.02976 
L 90.280069 387.02976 
L 88.429505 387.02976 
z
" clip-path="url(#pae0f5e7ef2)" style="fill: #7f7f7f; opacity: 0.5; stroke: #000000; stroke-linejoin: miter"/>
   </g>
   <g id="patch_12">
    <path d="M 90.280069 387.02976 
L 92.130634 387.02976 
L 92.130634 375.836226 
L 90.280069 375.836226 
z
" clip-path="url(#pae0f5e7ef2)" style="fill: #7f7f7f; opacity: 0.5; stroke: #000000; stroke-linejoin: miter"/>
   </g>
   <g id="patch_13">
    <path d="M 92.130634 387.02976 
L 93.981198 387.02976 
L 93.981198 387.02976 
L 92.130634 387.02976 
z
" clip-path="url(#pae0f5e7ef2)" style="fill: #7f7f7f; opacity: 0.5; stroke: #000000; stroke-linejoin: miter"/>
   </g>
   <g id="patch_14">
    <path d="M 93.981198 387.02976 
L 95.831762 387.02976 
L 95.831762 387.02976 
L 93.981198 387.02976 
z
" clip-path="url(#pae0f5e7ef2)" style="fill: #7f7f7f; opacity: 0.5; stroke: #000000; stroke-linejoin: miter"/>
   </g>
   <g id="patch_15">
    <path d="M 95.831762 387.02976 
L 97.682326 387.02976 
L 97.682326 387.02976 
L 95.831762 387.02976 
z
" clip-path="url(#pae0f5e7ef2)" style="fill: #7f7f7f; opacity: 0.5; stroke: #000000; stroke-linejoin: miter"/>
   </g>
   <g id="patch_16">
    <path d="M 97.682326 387.02976 
L 99.532891 387.02976 
L 99.532891 387.02976 
L 97.682326 387.02976 
z
" clip-path="url(#pae0f5e7ef2)" style="fill: #7f7f7f; opacity: 0.5; stroke: #000000; stroke-linejoin: miter"/>
   </g>
   <g id="patch_17">
    <path d="M 99.532891 387.02976 
L 101.383455 387.02976 
L 101.383455 387.02976 
L 99.532891 387.02976 
z
" clip-path="url(#pae0f5e7ef2)" style="fill: #7f7f7f; opacity: 0.5; stroke: #000000; stroke-linejoin: miter"/>
   </g>
   <g id="patch_18">
    <path d="M 101.383455 387.02976 
L 103.234019 387.02976 
L 103.234019 387.02976 
L 101.383455 387.02976 
z
" clip-path="url(#pae0f5e7ef2)" style="fill: #7f7f7f; opacity: 0.5; stroke: #000000; stroke-linejoin: miter"/>
   </g>
   <g id="patch_19">
    <path d="M 103.234019 387.02976 
L 105.084584 387.02976 
L 105.084584 387.02976 
L 103.234019 387.02976 
z
" clip-path="url(#pae0f5e7ef2)" style="fill: #7f7f7f; opacity: 0.5; stroke: #000000; stroke-linejoin: miter"/>
   </g>
   <g id="patch_20">
    <path d="M 105.084584 387.02976 
L 106.935148 387.02976 
L 106.935148 375.836226 
L 105.084584 375.836226 
z
" clip-path="url(#pae0f5e7ef2)" style="fill: #7f7f7f; opacity: 0.5; stroke: #000000; stroke-linejoin: miter"/>
   </g>
   <g id="patch_21">
    <path d="M 106.935148 387.02976 
L 108.785712 387.02976 
L 108.785712 375.836226 
L 106.935148 375.836226 
z
" clip-path="url(#pae0f5e7ef2)" style="fill: #7f7f7f; opacity: 0.5; stroke: #000000; stroke-linejoin: miter"/>
   </g>
   <g id="patch_22">
    <path d="M 108.785712 387.02976 
L 110.636276 387.02976 
L 110.636276 387.02976 
L 108.785712 387.02976 
z
" clip-path="url(#pae0f5e7ef2)" style="fill: #7f7f7f; opacity: 0.5; stroke: #000000; stroke-linejoin: miter"/>
   </g>
   <g id="patch_23">
    <path d="M 110.636276 387.02976 
L 112.486841 387.02976 
L 112.486841 387.02976 
L 110.636276 387.02976 
z
" clip-path="url(#pae0f5e7ef2)" style="fill: #7f7f7f; opacity: 0.5; stroke: #000000; stroke-linejoin: miter"/>
   </g>
   <g id="patch_24">
    <path d="M 112.486841 387.02976 
L 114.337405 387.02976 
L 114.337405 387.02976 
L 112.486841 387.02976 
z
" clip-path="url(#pae0f5e7ef2)" style="fill: #7f7f7f; opacity: 0.5; stroke: #000000; stroke-linejoin: miter"/>
   </g>
   <g id="patch_25">
    <path d="M 114.337405 387.02976 
L 116.187969 387.02976 
L 116.187969 387.02976 
L 114.337405 387.02976 
z
" clip-path="url(#pae0f5e7ef2)" style="fill: #7f7f7f; opacity: 0.5; stroke: #000000; stroke-linejoin: miter"/>
   </g>
   <g id="patch_26">
    <path d="M 116.187969 387.02976 
L 118.038533 387.02976 
L 118.038533 387.02976 
L 116.187969 387.02976 
z
" clip-path="url(#pae0f5e7ef2)" style="fill: #7f7f7f; opacity: 0.5; stroke: #000000; stroke-linejoin: miter"/>
   </g>
   <g id="patch_27">
    <path d="M 118.038533 387.02976 
L 119.889098 387.02976 
L 119.889098 387.02976 
L 118.038533 387.02976 
z
" clip-path="url(#pae0f5e7ef2)" style="fill: #7f7f7f; opacity: 0.5; stroke: #000000; stroke-linejoin: miter"/>
   </g>
   <g id="patch_28">
    <path d="M 119.889098 387.02976 
L 121.739662 387.02976 
L 121.739662 387.02976 
L 119.889098 387.02976 
z
" clip-path="url(#pae0f5e7ef2)" style="fill: #7f7f7f; opacity: 0.5; stroke: #000000; stroke-linejoin: miter"/>
   </g>
   <g id="patch_29">
    <path d="M 121.739662 387.02976 
L 123.590226 387.02976 
L 123.590226 375.836226 
L 121.739662 375.836226 
z
" clip-path="url(#pae0f5e7ef2)" style="fill: #7f7f7f; opacity: 0.5; stroke: #000000; stroke-linejoin: miter"/>
   </g>
   <g id="patch_30">
    <path d="M 123.590226 387.02976 
L 125.440791 387.02976 
L 125.440791 387.02976 
L 123.590226 387.02976 
z
" clip-path="url(#pae0f5e7ef2)" style="fill: #7f7f7f; opacity: 0.5; stroke: #000000; stroke-linejoin: miter"/>
   </g>
   <g id="patch_31">
    <path d="M 125.440791 387.02976 
L 127.291355 387.02976 
L 127.291355 387.02976 
L 125.440791 387.02976 
z
" clip-path="url(#pae0f5e7ef2)" style="fill: #7f7f7f; opacity: 0.5; stroke: #000000; stroke-linejoin: miter"/>
   </g>
   <g id="patch_32">
    <path d="M 127.291355 387.02976 
L 129.141919 387.02976 
L 129.141919 375.836226 
L 127.291355 375.836226 
z
" clip-path="url(#pae0f5e7ef2)" style="fill: #7f7f7f; opacity: 0.5; stroke: #000000; stroke-linejoin: miter"/>
   </g>
   <g id="patch_33">
    <path d="M 129.141919 387.02976 
L 130.992483 387.02976 
L 130.992483 387.02976 
L 129.141919 387.02976 
z
" clip-path="url(#pae0f5e7ef2)" style="fill: #7f7f7f; opacity: 0.5; stroke: #000000; stroke-linejoin: miter"/>
   </g>
   <g id="patch_34">
    <path d="M 130.992483 387.02976 
L 132.843048 387.02976 
L 132.843048 387.02976 
L 130.992483 387.02976 
z
" clip-path="url(#pae0f5e7ef2)" style="fill: #7f7f7f; opacity: 0.5; stroke: #000000; stroke-linejoin: miter"/>
   </g>
   <g id="patch_35">
    <path d="M 132.843048 387.02976 
L 134.693612 387.02976 
L 134.693612 387.02976 
L 132.843048 387.02976 
z
" clip-path="url(#pae0f5e7ef2)" style="fill: #7f7f7f; opacity: 0.5; stroke: #000000; stroke-linejoin: miter"/>
   </g>
   <g id="patch_36">
    <path d="M 134.693612 387.02976 
L 136.544176 387.02976 
L 136.544176 387.02976 
L 134.693612 387.02976 
z
" clip-path="url(#pae0f5e7ef2)" style="fill: #7f7f7f; opacity: 0.5; stroke: #000000; stroke-linejoin: miter"/>
   </g>
   <g id="patch_37">
    <path d="M 136.544176 387.02976 
L 138.39474 387.02976 
L 138.39474 387.02976 
L 136.544176 387.02976 
z
" clip-path="url(#pae0f5e7ef2)" style="fill: #7f7f7f; opacity: 0.5; stroke: #000000; stroke-linejoin: miter"/>
   </g>
   <g id="patch_38">
    <path d="M 138.39474 387.02976 
L 140.245305 387.02976 
L 140.245305 387.02976 
L 138.39474 387.02976 
z
" clip-path="url(#pae0f5e7ef2)" style="fill: #7f7f7f; opacity: 0.5; stroke: #000000; stroke-linejoin: miter"/>
   </g>
   <g id="patch_39">
    <path d="M 140.245305 387.02976 
L 142.095869 387.02976 
L 142.095869 387.02976 
L 140.245305 387.02976 
z
" clip-path="url(#pae0f5e7ef2)" style="fill: #7f7f7f; opacity: 0.5; stroke: #000000; stroke-linejoin: miter"/>
   </g>
   <g id="patch_40">
    <path d="M 142.095869 387.02976 
L 143.946433 387.02976 
L 143.946433 387.02976 
L 142.095869 387.02976 
z
" clip-path="url(#pae0f5e7ef2)" style="fill: #7f7f7f; opacity: 0.5; stroke: #000000; stroke-linejoin: miter"/>
   </g>
   <g id="patch_41">
    <path d="M 143.946433 387.02976 
L 145.796998 387.02976 
L 145.796998 375.836226 
L 143.946433 375.836226 
z
" clip-path="url(#pae0f5e7ef2)" style="fill: #7f7f7f; opacity: 0.5; stroke: #000000; stroke-linejoin: miter"/>
   </g>
   <g id="patch_42">
    <path d="M 145.796998 387.02976 
L 147.647562 387.02976 
L 147.647562 387.02976 
L 145.796998 387.02976 
z
" clip-path="url(#pae0f5e7ef2)" style="fill: #7f7f7f; opacity: 0.5; stroke: #000000; stroke-linejoin: miter"/>
   </g>
   <g id="patch_43">
    <path d="M 147.647562 387.02976 
L 149.498126 387.02976 
L 149.498126 387.02976 
L 147.647562 387.02976 
z
" clip-path="url(#pae0f5e7ef2)" style="fill: #7f7f7f; opacity: 0.5; stroke: #000000; stroke-linejoin: miter"/>
   </g>
   <g id="patch_44">
    <path d="M 149.498126 387.02976 
L 151.34869 387.02976 
L 151.34869 387.02976 
L 149.498126 387.02976 
z
" clip-path="url(#pae0f5e7ef2)" style="fill: #7f7f7f; opacity: 0.5; stroke: #000000; stroke-linejoin: miter"/>
   </g>
   <g id="patch_45">
    <path d="M 151.34869 387.02976 
L 153.199255 387.02976 
L 153.199255 375.836226 
L 151.34869 375.836226 
z
" clip-path="url(#pae0f5e7ef2)" style="fill: #7f7f7f; opacity: 0.5; stroke: #000000; stroke-linejoin: miter"/>
   </g>
   <g id="patch_46">
    <path d="M 153.199255 387.02976 
L 155.049819 387.02976 
L 155.049819 387.02976 
L 153.199255 387.02976 
z
" clip-path="url(#pae0f5e7ef2)" style="fill: #7f7f7f; opacity: 0.5; stroke: #000000; stroke-linejoin: miter"/>
   </g>
   <g id="patch_47">
    <path d="M 155.049819 387.02976 
L 156.900383 387.02976 
L 156.900383 387.02976 
L 155.049819 387.02976 
z
" clip-path="url(#pae0f5e7ef2)" style="fill: #7f7f7f; opacity: 0.5; stroke: #000000; stroke-linejoin: miter"/>
   </g>
   <g id="patch_48">
    <path d="M 156.900383 387.02976 
L 158.750947 387.02976 
L 158.750947 387.02976 
L 156.900383 387.02976 
z
" clip-path="url(#pae0f5e7ef2)" style="fill: #7f7f7f; opacity: 0.5; stroke: #000000; stroke-linejoin: miter"/>
   </g>
   <g id="patch_49">
    <path d="M 158.750947 387.02976 
L 160.601512 387.02976 
L 160.601512 387.02976 
L 158.750947 387.02976 
z
" clip-path="url(#pae0f5e7ef2)" style="fill: #7f7f7f; opacity: 0.5; stroke: #000000; stroke-linejoin: miter"/>
   </g>
   <g id="patch_50">
    <path d="M 160.601512 387.02976 
L 162.452076 387.02976 
L 162.452076 375.836226 
L 160.601512 375.836226 
z
" clip-path="url(#pae0f5e7ef2)" style="fill: #7f7f7f; opacity: 0.5; stroke: #000000; stroke-linejoin: miter"/>
   </g>
   <g id="patch_51">
    <path d="M 162.452076 387.02976 
L 164.30264 387.02976 
L 164.30264 387.02976 
L 162.452076 387.02976 
z
" clip-path="url(#pae0f5e7ef2)" style="fill: #7f7f7f; opacity: 0.5; stroke: #000000; stroke-linejoin: miter"/>
   </g>
   <g id="patch_52">
    <path d="M 164.30264 387.02976 
L 166.153205 387.02976 
L 166.153205 387.02976 
L 164.30264 387.02976 
z
" clip-path="url(#pae0f5e7ef2)" style="fill: #7f7f7f; opacity: 0.5; stroke: #000000; stroke-linejoin: miter"/>
   </g>
   <g id="patch_53">
    <path d="M 166.153205 387.02976 
L 168.003769 387.02976 
L 168.003769 387.02976 
L 166.153205 387.02976 
z
" clip-path="url(#pae0f5e7ef2)" style="fill: #7f7f7f; opacity: 0.5; stroke: #000000; stroke-linejoin: miter"/>
   </g>
   <g id="patch_54">
    <path d="M 168.003769 387.02976 
L 169.854333 387.02976 
L 169.854333 387.02976 
L 168.003769 387.02976 
z
" clip-path="url(#pae0f5e7ef2)" style="fill: #7f7f7f; opacity: 0.5; stroke: #000000; stroke-linejoin: miter"/>
   </g>
   <g id="patch_55">
    <path d="M 169.854333 387.02976 
L 171.704897 387.02976 
L 171.704897 375.836226 
L 169.854333 375.836226 
z
" clip-path="url(#pae0f5e7ef2)" style="fill: #7f7f7f; opacity: 0.5; stroke: #000000; stroke-linejoin: miter"/>
   </g>
   <g id="patch_56">
    <path d="M 171.704897 387.02976 
L 173.555462 387.02976 
L 173.555462 387.02976 
L 171.704897 387.02976 
z
" clip-path="url(#pae0f5e7ef2)" style="fill: #7f7f7f; opacity: 0.5; stroke: #000000; stroke-linejoin: miter"/>
   </g>
   <g id="patch_57">
    <path d="M 173.555462 387.02976 
L 175.406026 387.02976 
L 175.406026 387.02976 
L 173.555462 387.02976 
z
" clip-path="url(#pae0f5e7ef2)" style="fill: #7f7f7f; opacity: 0.5; stroke: #000000; stroke-linejoin: miter"/>
   </g>
   <g id="patch_58">
    <path d="M 175.406026 387.02976 
L 177.25659 387.02976 
L 177.25659 375.836226 
L 175.406026 375.836226 
z
" clip-path="url(#pae0f5e7ef2)" style="fill: #7f7f7f; opacity: 0.5; stroke: #000000; stroke-linejoin: miter"/>
   </g>
   <g id="patch_59">
    <path d="M 177.25659 387.02976 
L 179.107154 387.02976 
L 179.107154 387.02976 
L 177.25659 387.02976 
z
" clip-path="url(#pae0f5e7ef2)" style="fill: #7f7f7f; opacity: 0.5; stroke: #000000; stroke-linejoin: miter"/>
   </g>
   <g id="patch_60">
    <path d="M 179.107154 387.02976 
L 180.957719 387.02976 
L 180.957719 364.642693 
L 179.107154 364.642693 
z
" clip-path="url(#pae0f5e7ef2)" style="fill: #7f7f7f; opacity: 0.5; stroke: #000000; stroke-linejoin: miter"/>
   </g>
   <g id="patch_61">
    <path d="M 180.957719 387.02976 
L 182.808283 387.02976 
L 182.808283 375.836226 
L 180.957719 375.836226 
z
" clip-path="url(#pae0f5e7ef2)" style="fill: #7f7f7f; opacity: 0.5; stroke: #000000; stroke-linejoin: miter"/>
   </g>
   <g id="patch_62">
    <path d="M 182.808283 387.02976 
L 184.658847 387.02976 
L 184.658847 387.02976 
L 182.808283 387.02976 
z
" clip-path="url(#pae0f5e7ef2)" style="fill: #7f7f7f; opacity: 0.5; stroke: #000000; stroke-linejoin: miter"/>
   </g>
   <g id="patch_63">
    <path d="M 184.658847 387.02976 
L 186.509412 387.02976 
L 186.509412 364.642693 
L 184.658847 364.642693 
z
" clip-path="url(#pae0f5e7ef2)" style="fill: #7f7f7f; opacity: 0.5; stroke: #000000; stroke-linejoin: miter"/>
   </g>
   <g id="patch_64">
    <path d="M 186.509412 387.02976 
L 188.359976 387.02976 
L 188.359976 387.02976 
L 186.509412 387.02976 
z
" clip-path="url(#pae0f5e7ef2)" style="fill: #7f7f7f; opacity: 0.5; stroke: #000000; stroke-linejoin: miter"/>
   </g>
   <g id="patch_65">
    <path d="M 188.359976 387.02976 
L 190.21054 387.02976 
L 190.21054 387.02976 
L 188.359976 387.02976 
z
" clip-path="url(#pae0f5e7ef2)" style="fill: #7f7f7f; opacity: 0.5; stroke: #000000; stroke-linejoin: miter"/>
   </g>
   <g id="patch_66">
    <path d="M 190.21054 387.02976 
L 192.061104 387.02976 
L 192.061104 375.836226 
L 190.21054 375.836226 
z
" clip-path="url(#pae0f5e7ef2)" style="fill: #7f7f7f; opacity: 0.5; stroke: #000000; stroke-linejoin: miter"/>
   </g>
   <g id="patch_67">
    <path d="M 192.061104 387.02976 
L 193.911669 387.02976 
L 193.911669 387.02976 
L 192.061104 387.02976 
z
" clip-path="url(#pae0f5e7ef2)" style="fill: #7f7f7f; opacity: 0.5; stroke: #000000; stroke-linejoin: miter"/>
   </g>
   <g id="patch_68">
    <path d="M 193.911669 387.02976 
L 195.762233 387.02976 
L 195.762233 387.02976 
L 193.911669 387.02976 
z
" clip-path="url(#pae0f5e7ef2)" style="fill: #7f7f7f; opacity: 0.5; stroke: #000000; stroke-linejoin: miter"/>
   </g>
   <g id="patch_69">
    <path d="M 195.762233 387.02976 
L 197.612797 387.02976 
L 197.612797 375.836226 
L 195.762233 375.836226 
z
" clip-path="url(#pae0f5e7ef2)" style="fill: #7f7f7f; opacity: 0.5; stroke: #000000; stroke-linejoin: miter"/>
   </g>
   <g id="patch_70">
    <path d="M 197.612797 387.02976 
L 199.463361 387.02976 
L 199.463361 375.836226 
L 197.612797 375.836226 
z
" clip-path="url(#pae0f5e7ef2)" style="fill: #7f7f7f; opacity: 0.5; stroke: #000000; stroke-linejoin: miter"/>
   </g>
   <g id="patch_71">
    <path d="M 199.463361 387.02976 
L 201.313926 387.02976 
L 201.313926 375.836226 
L 199.463361 375.836226 
z
" clip-path="url(#pae0f5e7ef2)" style="fill: #7f7f7f; opacity: 0.5; stroke: #000000; stroke-linejoin: miter"/>
   </g>
   <g id="patch_72">
    <path d="M 201.313926 387.02976 
L 203.16449 387.02976 
L 203.16449 387.02976 
L 201.313926 387.02976 
z
" clip-path="url(#pae0f5e7ef2)" style="fill: #7f7f7f; opacity: 0.5; stroke: #000000; stroke-linejoin: miter"/>
   </g>
   <g id="patch_73">
    <path d="M 203.16449 387.02976 
L 205.015054 387.02976 
L 205.015054 364.642693 
L 203.16449 364.642693 
z
" clip-path="url(#pae0f5e7ef2)" style="fill: #7f7f7f; opacity: 0.5; stroke: #000000; stroke-linejoin: miter"/>
   </g>
   <g id="patch_74">
    <path d="M 205.015054 387.02976 
L 206.865619 387.02976 
L 206.865619 364.642693 
L 205.015054 364.642693 
z
" clip-path="url(#pae0f5e7ef2)" style="fill: #7f7f7f; opacity: 0.5; stroke: #000000; stroke-linejoin: miter"/>
   </g>
   <g id="patch_75">
    <path d="M 206.865619 387.02976 
L 208.716183 387.02976 
L 208.716183 375.836226 
L 206.865619 375.836226 
z
" clip-path="url(#pae0f5e7ef2)" style="fill: #7f7f7f; opacity: 0.5; stroke: #000000; stroke-linejoin: miter"/>
   </g>
   <g id="patch_76">
    <path d="M 208.716183 387.02976 
L 210.566747 387.02976 
L 210.566747 375.836226 
L 208.716183 375.836226 
z
" clip-path="url(#pae0f5e7ef2)" style="fill: #7f7f7f; opacity: 0.5; stroke: #000000; stroke-linejoin: miter"/>
   </g>
   <g id="patch_77">
    <path d="M 210.566747 387.02976 
L 212.417311 387.02976 
L 212.417311 353.449159 
L 210.566747 353.449159 
z
" clip-path="url(#pae0f5e7ef2)" style="fill: #7f7f7f; opacity: 0.5; stroke: #000000; stroke-linejoin: miter"/>
   </g>
   <g id="patch_78">
    <path d="M 212.417311 387.02976 
L 214.267876 387.02976 
L 214.267876 364.642693 
L 212.417311 364.642693 
z
" clip-path="url(#pae0f5e7ef2)" style="fill: #7f7f7f; opacity: 0.5; stroke: #000000; stroke-linejoin: miter"/>
   </g>
   <g id="patch_79">
    <path d="M 214.267876 387.02976 
L 216.11844 387.02976 
L 216.11844 364.642693 
L 214.267876 364.642693 
z
" clip-path="url(#pae0f5e7ef2)" style="fill: #7f7f7f; opacity: 0.5; stroke: #000000; stroke-linejoin: miter"/>
   </g>
   <g id="patch_80">
    <path d="M 216.11844 387.02976 
L 217.969004 387.02976 
L 217.969004 364.642693 
L 216.11844 364.642693 
z
" clip-path="url(#pae0f5e7ef2)" style="fill: #7f7f7f; opacity: 0.5; stroke: #000000; stroke-linejoin: miter"/>
   </g>
   <g id="patch_81">
    <path d="M 217.969004 387.02976 
L 219.819568 387.02976 
L 219.819568 387.02976 
L 217.969004 387.02976 
z
" clip-path="url(#pae0f5e7ef2)" style="fill: #7f7f7f; opacity: 0.5; stroke: #000000; stroke-linejoin: miter"/>
   </g>
   <g id="patch_82">
    <path d="M 219.819568 387.02976 
L 221.670133 387.02976 
L 221.670133 364.642693 
L 219.819568 364.642693 
z
" clip-path="url(#pae0f5e7ef2)" style="fill: #7f7f7f; opacity: 0.5; stroke: #000000; stroke-linejoin: miter"/>
   </g>
   <g id="patch_83">
    <path d="M 221.670133 387.02976 
L 223.520697 387.02976 
L 223.520697 364.642693 
L 221.670133 364.642693 
z
" clip-path="url(#pae0f5e7ef2)" style="fill: #7f7f7f; opacity: 0.5; stroke: #000000; stroke-linejoin: miter"/>
   </g>
   <g id="patch_84">
    <path d="M 223.520697 387.02976 
L 225.371261 387.02976 
L 225.371261 353.449159 
L 223.520697 353.449159 
z
" clip-path="url(#pae0f5e7ef2)" style="fill: #7f7f7f; opacity: 0.5; stroke: #000000; stroke-linejoin: miter"/>
   </g>
   <g id="patch_85">
    <path d="M 225.371261 387.02976 
L 227.221826 387.02976 
L 227.221826 375.836226 
L 225.371261 375.836226 
z
" clip-path="url(#pae0f5e7ef2)" style="fill: #7f7f7f; opacity: 0.5; stroke: #000000; stroke-linejoin: miter"/>
   </g>
   <g id="patch_86">
    <path d="M 227.221826 387.02976 
L 229.07239 387.02976 
L 229.07239 375.836226 
L 227.221826 375.836226 
z
" clip-path="url(#pae0f5e7ef2)" style="fill: #7f7f7f; opacity: 0.5; stroke: #000000; stroke-linejoin: miter"/>
   </g>
   <g id="patch_87">
    <path d="M 229.07239 387.02976 
L 230.922954 387.02976 
L 230.922954 387.02976 
L 229.07239 387.02976 
z
" clip-path="url(#pae0f5e7ef2)" style="fill: #7f7f7f; opacity: 0.5; stroke: #000000; stroke-linejoin: miter"/>
   </g>
   <g id="patch_88">
    <path d="M 230.922954 387.02976 
L 232.773518 387.02976 
L 232.773518 353.449159 
L 230.922954 353.449159 
z
" clip-path="url(#pae0f5e7ef2)" style="fill: #7f7f7f; opacity: 0.5; stroke: #000000; stroke-linejoin: miter"/>
   </g>
   <g id="patch_89">
    <path d="M 232.773518 387.02976 
L 234.624083 387.02976 
L 234.624083 364.642693 
L 232.773518 364.642693 
z
" clip-path="url(#pae0f5e7ef2)" style="fill: #7f7f7f; opacity: 0.5; stroke: #000000; stroke-linejoin: miter"/>
   </g>
   <g id="patch_90">
    <path d="M 234.624083 387.02976 
L 236.474647 387.02976 
L 236.474647 319.868558 
L 234.624083 319.868558 
z
" clip-path="url(#pae0f5e7ef2)" style="fill: #7f7f7f; opacity: 0.5; stroke: #000000; stroke-linejoin: miter"/>
   </g>
   <g id="patch_91">
    <path d="M 236.474647 387.02976 
L 238.325211 387.02976 
L 238.325211 342.255625 
L 236.474647 342.255625 
z
" clip-path="url(#pae0f5e7ef2)" style="fill: #7f7f7f; opacity: 0.5; stroke: #000000; stroke-linejoin: miter"/>
   </g>
   <g id="patch_92">
    <path d="M 238.325211 387.02976 
L 240.175775 387.02976 
L 240.175775 297.481491 
L 238.325211 297.481491 
z
" clip-path="url(#pae0f5e7ef2)" style="fill: #7f7f7f; opacity: 0.5; stroke: #000000; stroke-linejoin: miter"/>
   </g>
   <g id="patch_93">
    <path d="M 240.175775 387.02976 
L 242.02634 387.02976 
L 242.02634 286.287957 
L 240.175775 286.287957 
z
" clip-path="url(#pae0f5e7ef2)" style="fill: #7f7f7f; opacity: 0.5; stroke: #000000; stroke-linejoin: miter"/>
   </g>
   <g id="patch_94">
    <path d="M 242.02634 387.02976 
L 243.876904 387.02976 
L 243.876904 275.094424 
L 242.02634 275.094424 
z
" clip-path="url(#pae0f5e7ef2)" style="fill: #7f7f7f; opacity: 0.5; stroke: #000000; stroke-linejoin: miter"/>
   </g>
   <g id="patch_95">
    <path d="M 243.876904 387.02976 
L 245.727468 387.02976 
L 245.727468 319.868558 
L 243.876904 319.868558 
z
" clip-path="url(#pae0f5e7ef2)" style="fill: #7f7f7f; opacity: 0.5; stroke: #000000; stroke-linejoin: miter"/>
   </g>
   <g id="patch_96">
    <path d="M 245.727468 387.02976 
L 247.578033 387.02976 
L 247.578033 252.707356 
L 245.727468 252.707356 
z
" clip-path="url(#pae0f5e7ef2)" style="fill: #7f7f7f; opacity: 0.5; stroke: #000000; stroke-linejoin: miter"/>
   </g>
   <g id="patch_97">
    <path d="M 247.578033 387.02976 
L 249.428597 387.02976 
L 249.428597 241.513823 
L 247.578033 241.513823 
z
" clip-path="url(#pae0f5e7ef2)" style="fill: #7f7f7f; opacity: 0.5; stroke: #000000; stroke-linejoin: miter"/>
   </g>
   <g id="patch_98">
    <path d="M 249.428597 387.02976 
L 251.279161 387.02976 
L 251.279161 275.094424 
L 249.428597 275.094424 
z
" clip-path="url(#pae0f5e7ef2)" style="fill: #7f7f7f; opacity: 0.5; stroke: #000000; stroke-linejoin: miter"/>
   </g>
   <g id="patch_99">
    <path d="M 251.279161 387.02976 
L 253.129725 387.02976 
L 253.129725 263.90089 
L 251.279161 263.90089 
z
" clip-path="url(#pae0f5e7ef2)" style="fill: #7f7f7f; opacity: 0.5; stroke: #000000; stroke-linejoin: miter"/>
   </g>
   <g id="patch_100">
    <path d="M 253.129725 387.02976 
L 254.98029 387.02976 
L 254.98029 174.352621 
L 253.129725 174.352621 
z
" clip-path="url(#pae0f5e7ef2)" style="fill: #7f7f7f; opacity: 0.5; stroke: #000000; stroke-linejoin: miter"/>
   </g>
   <g id="patch_101">
    <path d="M 254.98029 387.02976 
L 256.830854 387.02976 
L 256.830854 118.384953 
L 254.98029 118.384953 
z
" clip-path="url(#pae0f5e7ef2)" style="fill: #7f7f7f; opacity: 0.5; stroke: #000000; stroke-linejoin: miter"/>
   </g>
   <g id="patch_102">
    <path d="M 256.830854 387.02976 
L 258.681418 387.02976 
L 258.681418 174.352621 
L 256.830854 174.352621 
z
" clip-path="url(#pae0f5e7ef2)" style="fill: #7f7f7f; opacity: 0.5; stroke: #000000; stroke-linejoin: miter"/>
   </g>
   <g id="patch_103">
    <path d="M 258.681418 387.02976 
L 260.531982 387.02976 
L 260.531982 118.384953 
L 258.681418 118.384953 
z
" clip-path="url(#pae0f5e7ef2)" style="fill: #7f7f7f; opacity: 0.5; stroke: #000000; stroke-linejoin: miter"/>
   </g>
   <g id="patch_104">
    <path d="M 260.531982 387.02976 
L 262.382547 387.02976 
L 262.382547 129.578486 
L 260.531982 129.578486 
z
" clip-path="url(#pae0f5e7ef2)" style="fill: #7f7f7f; opacity: 0.5; stroke: #000000; stroke-linejoin: miter"/>
   </g>
   <g id="patch_105">
    <path d="M 262.382547 387.02976 
L 264.233111 387.02976 
L 264.233111 174.352621 
L 262.382547 174.352621 
z
" clip-path="url(#pae0f5e7ef2)" style="fill: #7f7f7f; opacity: 0.5; stroke: #000000; stroke-linejoin: miter"/>
   </g>
   <g id="patch_106">
    <path d="M 264.233111 387.02976 
L 266.083675 387.02976 
L 266.083675 95.997885 
L 264.233111 95.997885 
z
" clip-path="url(#pae0f5e7ef2)" style="fill: #7f7f7f; opacity: 0.5; stroke: #000000; stroke-linejoin: miter"/>
   </g>
   <g id="patch_107">
    <path d="M 266.083675 387.02976 
L 267.93424 387.02976 
L 267.93424 129.578486 
L 266.083675 129.578486 
z
" clip-path="url(#pae0f5e7ef2)" style="fill: #7f7f7f; opacity: 0.5; stroke: #000000; stroke-linejoin: miter"/>
   </g>
   <g id="patch_108">
    <path d="M 267.93424 387.02976 
L 269.784804 387.02976 
L 269.784804 107.191419 
L 267.93424 107.191419 
z
" clip-path="url(#pae0f5e7ef2)" style="fill: #7f7f7f; opacity: 0.5; stroke: #000000; stroke-linejoin: miter"/>
   </g>
   <g id="patch_109">
    <path d="M 269.784804 387.02976 
L 271.635368 387.02976 
L 271.635368 62.417284 
L 269.784804 62.417284 
z
" clip-path="url(#pae0f5e7ef2)" style="fill: #7f7f7f; opacity: 0.5; stroke: #000000; stroke-linejoin: miter"/>
   </g>
   <g id="patch_110">
    <path d="M 271.635368 387.02976 
L 273.485932 387.02976 
L 273.485932 151.965554 
L 271.635368 151.965554 
z
" clip-path="url(#pae0f5e7ef2)" style="fill: #7f7f7f; opacity: 0.5; stroke: #000000; stroke-linejoin: miter"/>
   </g>
   <g id="patch_111">
    <path d="M 273.485932 387.02976 
L 275.336497 387.02976 
L 275.336497 118.384953 
L 273.485932 118.384953 
z
" clip-path="url(#pae0f5e7ef2)" style="fill: #7f7f7f; opacity: 0.5; stroke: #000000; stroke-linejoin: miter"/>
   </g>
   <g id="patch_112">
    <path d="M 275.336497 387.02976 
L 277.187061 387.02976 
L 277.187061 51.223751 
L 275.336497 51.223751 
z
" clip-path="url(#pae0f5e7ef2)" style="fill: #7f7f7f; opacity: 0.5; stroke: #000000; stroke-linejoin: miter"/>
   </g>
   <g id="patch_113">
    <path d="M 277.187061 387.02976 
L 279.037625 387.02976 
L 279.037625 62.417284 
L 277.187061 62.417284 
z
" clip-path="url(#pae0f5e7ef2)" style="fill: #7f7f7f; opacity: 0.5; stroke: #000000; stroke-linejoin: miter"/>
   </g>
   <g id="patch_114">
    <path d="M 279.037625 387.02976 
L 280.888189 387.02976 
L 280.888189 40.030217 
L 279.037625 40.030217 
z
" clip-path="url(#pae0f5e7ef2)" style="fill: #7f7f7f; opacity: 0.5; stroke: #000000; stroke-linejoin: miter"/>
   </g>
   <g id="patch_115">
    <path d="M 280.888189 387.02976 
L 282.738754 387.02976 
L 282.738754 174.352621 
L 280.888189 174.352621 
z
" clip-path="url(#pae0f5e7ef2)" style="fill: #7f7f7f; opacity: 0.5; stroke: #000000; stroke-linejoin: miter"/>
   </g>
   <g id="patch_116">
    <path d="M 282.738754 387.02976 
L 284.589318 387.02976 
L 284.589318 73.610818 
L 282.738754 73.610818 
z
" clip-path="url(#pae0f5e7ef2)" style="fill: #7f7f7f; opacity: 0.5; stroke: #000000; stroke-linejoin: miter"/>
   </g>
   <g id="patch_117">
    <path d="M 284.589318 387.02976 
L 286.439882 387.02976 
L 286.439882 151.965554 
L 284.589318 151.965554 
z
" clip-path="url(#pae0f5e7ef2)" style="fill: #7f7f7f; opacity: 0.5; stroke: #000000; stroke-linejoin: miter"/>
   </g>
   <g id="patch_118">
    <path d="M 286.439882 387.02976 
L 288.290447 387.02976 
L 288.290447 95.997885 
L 286.439882 95.997885 
z
" clip-path="url(#pae0f5e7ef2)" style="fill: #7f7f7f; opacity: 0.5; stroke: #000000; stroke-linejoin: miter"/>
   </g>
   <g id="patch_119">
    <path d="M 288.290447 387.02976 
L 290.141011 387.02976 
L 290.141011 107.191419 
L 288.290447 107.191419 
z
" clip-path="url(#pae0f5e7ef2)" style="fill: #7f7f7f; opacity: 0.5; stroke: #000000; stroke-linejoin: miter"/>
   </g>
   <g id="patch_120">
    <path d="M 290.141011 387.02976 
L 291.991575 387.02976 
L 291.991575 140.77202 
L 290.141011 140.77202 
z
" clip-path="url(#pae0f5e7ef2)" style="fill: #7f7f7f; opacity: 0.5; stroke: #000000; stroke-linejoin: miter"/>
   </g>
   <g id="patch_121">
    <path d="M 291.991575 387.02976 
L 293.842139 387.02976 
L 293.842139 84.804352 
L 291.991575 84.804352 
z
" clip-path="url(#pae0f5e7ef2)" style="fill: #7f7f7f; opacity: 0.5; stroke: #000000; stroke-linejoin: miter"/>
   </g>
   <g id="patch_122">
    <path d="M 293.842139 387.02976 
L 295.692704 387.02976 
L 295.692704 151.965554 
L 293.842139 151.965554 
z
" clip-path="url(#pae0f5e7ef2)" style="fill: #7f7f7f; opacity: 0.5; stroke: #000000; stroke-linejoin: miter"/>
   </g>
   <g id="patch_123">
    <path d="M 295.692704 387.02976 
L 297.543268 387.02976 
L 297.543268 174.352621 
L 295.692704 174.352621 
z
" clip-path="url(#pae0f5e7ef2)" style="fill: #7f7f7f; opacity: 0.5; stroke: #000000; stroke-linejoin: miter"/>
   </g>
   <g id="patch_124">
    <path d="M 297.543268 387.02976 
L 299.393832 387.02976 
L 299.393832 163.159087 
L 297.543268 163.159087 
z
" clip-path="url(#pae0f5e7ef2)" style="fill: #7f7f7f; opacity: 0.5; stroke: #000000; stroke-linejoin: miter"/>
   </g>
   <g id="patch_125">
    <path d="M 299.393832 387.02976 
L 301.244396 387.02976 
L 301.244396 73.610818 
L 299.393832 73.610818 
z
" clip-path="url(#pae0f5e7ef2)" style="fill: #7f7f7f; opacity: 0.5; stroke: #000000; stroke-linejoin: miter"/>
   </g>
   <g id="patch_126">
    <path d="M 301.244396 387.02976 
L 303.094961 387.02976 
L 303.094961 207.933222 
L 301.244396 207.933222 
z
" clip-path="url(#pae0f5e7ef2)" style="fill: #7f7f7f; opacity: 0.5; stroke: #000000; stroke-linejoin: miter"/>
   </g>
   <g id="patch_127">
    <path d="M 303.094961 387.02976 
L 304.945525 387.02976 
L 304.945525 163.159087 
L 303.094961 163.159087 
z
" clip-path="url(#pae0f5e7ef2)" style="fill: #7f7f7f; opacity: 0.5; stroke: #000000; stroke-linejoin: miter"/>
   </g>
   <g id="patch_128">
    <path d="M 304.945525 387.02976 
L 306.796089 387.02976 
L 306.796089 185.546154 
L 304.945525 185.546154 
z
" clip-path="url(#pae0f5e7ef2)" style="fill: #7f7f7f; opacity: 0.5; stroke: #000000; stroke-linejoin: miter"/>
   </g>
   <g id="patch_129">
    <path d="M 306.796089 387.02976 
L 308.646654 387.02976 
L 308.646654 319.868558 
L 306.796089 319.868558 
z
" clip-path="url(#pae0f5e7ef2)" style="fill: #7f7f7f; opacity: 0.5; stroke: #000000; stroke-linejoin: miter"/>
   </g>
   <g id="patch_130">
    <path d="M 308.646654 387.02976 
L 310.497218 387.02976 
L 310.497218 263.90089 
L 308.646654 263.90089 
z
" clip-path="url(#pae0f5e7ef2)" style="fill: #7f7f7f; opacity: 0.5; stroke: #000000; stroke-linejoin: miter"/>
   </g>
   <g id="patch_131">
    <path d="M 310.497218 387.02976 
L 312.347782 387.02976 
L 312.347782 252.707356 
L 310.497218 252.707356 
z
" clip-path="url(#pae0f5e7ef2)" style="fill: #7f7f7f; opacity: 0.5; stroke: #000000; stroke-linejoin: miter"/>
   </g>
   <g id="patch_132">
    <path d="M 312.347782 387.02976 
L 314.198346 387.02976 
L 314.198346 185.546154 
L 312.347782 185.546154 
z
" clip-path="url(#pae0f5e7ef2)" style="fill: #7f7f7f; opacity: 0.5; stroke: #000000; stroke-linejoin: miter"/>
   </g>
   <g id="patch_133">
    <path d="M 314.198346 387.02976 
L 316.048911 387.02976 
L 316.048911 308.675025 
L 314.198346 308.675025 
z
" clip-path="url(#pae0f5e7ef2)" style="fill: #7f7f7f; opacity: 0.5; stroke: #000000; stroke-linejoin: miter"/>
   </g>
   <g id="patch_134">
    <path d="M 316.048911 387.02976 
L 317.899475 387.02976 
L 317.899475 252.707356 
L 316.048911 252.707356 
z
" clip-path="url(#pae0f5e7ef2)" style="fill: #7f7f7f; opacity: 0.5; stroke: #000000; stroke-linejoin: miter"/>
   </g>
   <g id="patch_135">
    <path d="M 317.899475 387.02976 
L 319.750039 387.02976 
L 319.750039 286.287957 
L 317.899475 286.287957 
z
" clip-path="url(#pae0f5e7ef2)" style="fill: #7f7f7f; opacity: 0.5; stroke: #000000; stroke-linejoin: miter"/>
   </g>
   <g id="patch_136">
    <path d="M 319.750039 387.02976 
L 321.600604 387.02976 
L 321.600604 230.320289 
L 319.750039 230.320289 
z
" clip-path="url(#pae0f5e7ef2)" style="fill: #7f7f7f; opacity: 0.5; stroke: #000000; stroke-linejoin: miter"/>
   </g>
   <g id="patch_137">
    <path d="M 321.600604 387.02976 
L 323.451168 387.02976 
L 323.451168 241.513823 
L 321.600604 241.513823 
z
" clip-path="url(#pae0f5e7ef2)" style="fill: #7f7f7f; opacity: 0.5; stroke: #000000; stroke-linejoin: miter"/>
   </g>
   <g id="patch_138">
    <path d="M 323.451168 387.02976 
L 325.301732 387.02976 
L 325.301732 308.675025 
L 323.451168 308.675025 
z
" clip-path="url(#pae0f5e7ef2)" style="fill: #7f7f7f; opacity: 0.5; stroke: #000000; stroke-linejoin: miter"/>
   </g>
   <g id="patch_139">
    <path d="M 325.301732 387.02976 
L 327.152296 387.02976 
L 327.152296 331.062092 
L 325.301732 331.062092 
z
" clip-path="url(#pae0f5e7ef2)" style="fill: #7f7f7f; opacity: 0.5; stroke: #000000; stroke-linejoin: miter"/>
   </g>
   <g id="patch_140">
    <path d="M 327.152296 387.02976 
L 329.002861 387.02976 
L 329.002861 286.287957 
L 327.152296 286.287957 
z
" clip-path="url(#pae0f5e7ef2)" style="fill: #7f7f7f; opacity: 0.5; stroke: #000000; stroke-linejoin: miter"/>
   </g>
   <g id="patch_141">
    <path d="M 329.002861 387.02976 
L 330.853425 387.02976 
L 330.853425 286.287957 
L 329.002861 286.287957 
z
" clip-path="url(#pae0f5e7ef2)" style="fill: #7f7f7f; opacity: 0.5; stroke: #000000; stroke-linejoin: miter"/>
   </g>
   <g id="patch_142">
    <path d="M 330.853425 387.02976 
L 332.703989 387.02976 
L 332.703989 331.062092 
L 330.853425 331.062092 
z
" clip-path="url(#pae0f5e7ef2)" style="fill: #7f7f7f; opacity: 0.5; stroke: #000000; stroke-linejoin: miter"/>
   </g>
   <g id="patch_143">
    <path d="M 332.703989 387.02976 
L 334.554553 387.02976 
L 334.554553 342.255625 
L 332.703989 342.255625 
z
" clip-path="url(#pae0f5e7ef2)" style="fill: #7f7f7f; opacity: 0.5; stroke: #000000; stroke-linejoin: miter"/>
   </g>
   <g id="patch_144">
    <path d="M 334.554553 387.02976 
L 336.405118 387.02976 
L 336.405118 319.868558 
L 334.554553 319.868558 
z
" clip-path="url(#pae0f5e7ef2)" style="fill: #7f7f7f; opacity: 0.5; stroke: #000000; stroke-linejoin: miter"/>
   </g>
   <g id="patch_145">
    <path d="M 336.405118 387.02976 
L 338.255682 387.02976 
L 338.255682 319.868558 
L 336.405118 319.868558 
z
" clip-path="url(#pae0f5e7ef2)" style="fill: #7f7f7f; opacity: 0.5; stroke: #000000; stroke-linejoin: miter"/>
   </g>
   <g id="patch_146">
    <path d="M 338.255682 387.02976 
L 340.106246 387.02976 
L 340.106246 319.868558 
L 338.255682 319.868558 
z
" clip-path="url(#pae0f5e7ef2)" style="fill: #7f7f7f; opacity: 0.5; stroke: #000000; stroke-linejoin: miter"/>
   </g>
   <g id="patch_147">
    <path d="M 340.106246 387.02976 
L 341.956811 387.02976 
L 341.956811 319.868558 
L 340.106246 319.868558 
z
" clip-path="url(#pae0f5e7ef2)" style="fill: #7f7f7f; opacity: 0.5; stroke: #000000; stroke-linejoin: miter"/>
   </g>
   <g id="patch_148">
    <path d="M 341.956811 387.02976 
L 343.807375 387.02976 
L 343.807375 375.836226 
L 341.956811 375.836226 
z
" clip-path="url(#pae0f5e7ef2)" style="fill: #7f7f7f; opacity: 0.5; stroke: #000000; stroke-linejoin: miter"/>
   </g>
   <g id="patch_149">
    <path d="M 343.807375 387.02976 
L 345.657939 387.02976 
L 345.657939 353.449159 
L 343.807375 353.449159 
z
" clip-path="url(#pae0f5e7ef2)" style="fill: #7f7f7f; opacity: 0.5; stroke: #000000; stroke-linejoin: miter"/>
   </g>
   <g id="patch_150">
    <path d="M 345.657939 387.02976 
L 347.508503 387.02976 
L 347.508503 353.449159 
L 345.657939 353.449159 
z
" clip-path="url(#pae0f5e7ef2)" style="fill: #7f7f7f; opacity: 0.5; stroke: #000000; stroke-linejoin: miter"/>
   </g>
   <g id="patch_151">
    <path d="M 347.508503 387.02976 
L 349.359068 387.02976 
L 349.359068 364.642693 
L 347.508503 364.642693 
z
" clip-path="url(#pae0f5e7ef2)" style="fill: #7f7f7f; opacity: 0.5; stroke: #000000; stroke-linejoin: miter"/>
   </g>
   <g id="patch_152">
    <path d="M 349.359068 387.02976 
L 351.209632 387.02976 
L 351.209632 331.062092 
L 349.359068 331.062092 
z
" clip-path="url(#pae0f5e7ef2)" style="fill: #7f7f7f; opacity: 0.5; stroke: #000000; stroke-linejoin: miter"/>
   </g>
   <g id="patch_153">
    <path d="M 351.209632 387.02976 
L 353.060196 387.02976 
L 353.060196 319.868558 
L 351.209632 319.868558 
z
" clip-path="url(#pae0f5e7ef2)" style="fill: #7f7f7f; opacity: 0.5; stroke: #000000; stroke-linejoin: miter"/>
   </g>
   <g id="patch_154">
    <path d="M 353.060196 387.02976 
L 354.91076 387.02976 
L 354.91076 342.255625 
L 353.060196 342.255625 
z
" clip-path="url(#pae0f5e7ef2)" style="fill: #7f7f7f; opacity: 0.5; stroke: #000000; stroke-linejoin: miter"/>
   </g>
   <g id="patch_155">
    <path d="M 354.91076 387.02976 
L 356.761325 387.02976 
L 356.761325 364.642693 
L 354.91076 364.642693 
z
" clip-path="url(#pae0f5e7ef2)" style="fill: #7f7f7f; opacity: 0.5; stroke: #000000; stroke-linejoin: miter"/>
   </g>
   <g id="patch_156">
    <path d="M 356.761325 387.02976 
L 358.611889 387.02976 
L 358.611889 387.02976 
L 356.761325 387.02976 
z
" clip-path="url(#pae0f5e7ef2)" style="fill: #7f7f7f; opacity: 0.5; stroke: #000000; stroke-linejoin: miter"/>
   </g>
   <g id="patch_157">
    <path d="M 358.611889 387.02976 
L 360.462453 387.02976 
L 360.462453 353.449159 
L 358.611889 353.449159 
z
" clip-path="url(#pae0f5e7ef2)" style="fill: #7f7f7f; opacity: 0.5; stroke: #000000; stroke-linejoin: miter"/>
   </g>
   <g id="patch_158">
    <path d="M 360.462453 387.02976 
L 362.313018 387.02976 
L 362.313018 375.836226 
L 360.462453 375.836226 
z
" clip-path="url(#pae0f5e7ef2)" style="fill: #7f7f7f; opacity: 0.5; stroke: #000000; stroke-linejoin: miter"/>
   </g>
   <g id="patch_159">
    <path d="M 362.313018 387.02976 
L 364.163582 387.02976 
L 364.163582 375.836226 
L 362.313018 375.836226 
z
" clip-path="url(#pae0f5e7ef2)" style="fill: #7f7f7f; opacity: 0.5; stroke: #000000; stroke-linejoin: miter"/>
   </g>
   <g id="patch_160">
    <path d="M 364.163582 387.02976 
L 366.014146 387.02976 
L 366.014146 364.642693 
L 364.163582 364.642693 
z
" clip-path="url(#pae0f5e7ef2)" style="fill: #7f7f7f; opacity: 0.5; stroke: #000000; stroke-linejoin: miter"/>
   </g>
   <g id="patch_161">
    <path d="M 366.014146 387.02976 
L 367.86471 387.02976 
L 367.86471 387.02976 
L 366.014146 387.02976 
z
" clip-path="url(#pae0f5e7ef2)" style="fill: #7f7f7f; opacity: 0.5; stroke: #000000; stroke-linejoin: miter"/>
   </g>
   <g id="patch_162">
    <path d="M 367.86471 387.02976 
L 369.715275 387.02976 
L 369.715275 375.836226 
L 367.86471 375.836226 
z
" clip-path="url(#pae0f5e7ef2)" style="fill: #7f7f7f; opacity: 0.5; stroke: #000000; stroke-linejoin: miter"/>
   </g>
   <g id="patch_163">
    <path d="M 369.715275 387.02976 
L 371.565839 387.02976 
L 371.565839 364.642693 
L 369.715275 364.642693 
z
" clip-path="url(#pae0f5e7ef2)" style="fill: #7f7f7f; opacity: 0.5; stroke: #000000; stroke-linejoin: miter"/>
   </g>
   <g id="patch_164">
    <path d="M 371.565839 387.02976 
L 373.416403 387.02976 
L 373.416403 375.836226 
L 371.565839 375.836226 
z
" clip-path="url(#pae0f5e7ef2)" style="fill: #7f7f7f; opacity: 0.5; stroke: #000000; stroke-linejoin: miter"/>
   </g>
   <g id="patch_165">
    <path d="M 373.416403 387.02976 
L 375.266967 387.02976 
L 375.266967 387.02976 
L 373.416403 387.02976 
z
" clip-path="url(#pae0f5e7ef2)" style="fill: #7f7f7f; opacity: 0.5; stroke: #000000; stroke-linejoin: miter"/>
   </g>
   <g id="patch_166">
    <path d="M 375.266967 387.02976 
L 377.117532 387.02976 
L 377.117532 387.02976 
L 375.266967 387.02976 
z
" clip-path="url(#pae0f5e7ef2)" style="fill: #7f7f7f; opacity: 0.5; stroke: #000000; stroke-linejoin: miter"/>
   </g>
   <g id="patch_167">
    <path d="M 377.117532 387.02976 
L 378.968096 387.02976 
L 378.968096 387.02976 
L 377.117532 387.02976 
z
" clip-path="url(#pae0f5e7ef2)" style="fill: #7f7f7f; opacity: 0.5; stroke: #000000; stroke-linejoin: miter"/>
   </g>
   <g id="patch_168">
    <path d="M 378.968096 387.02976 
L 380.81866 387.02976 
L 380.81866 364.642693 
L 378.968096 364.642693 
z
" clip-path="url(#pae0f5e7ef2)" style="fill: #7f7f7f; opacity: 0.5; stroke: #000000; stroke-linejoin: miter"/>
   </g>
   <g id="patch_169">
    <path d="M 380.81866 387.02976 
L 382.669225 387.02976 
L 382.669225 387.02976 
L 380.81866 387.02976 
z
" clip-path="url(#pae0f5e7ef2)" style="fill: #7f7f7f; opacity: 0.5; stroke: #000000; stroke-linejoin: miter"/>
   </g>
   <g id="patch_170">
    <path d="M 382.669225 387.02976 
L 384.519789 387.02976 
L 384.519789 387.02976 
L 382.669225 387.02976 
z
" clip-path="url(#pae0f5e7ef2)" style="fill: #7f7f7f; opacity: 0.5; stroke: #000000; stroke-linejoin: miter"/>
   </g>
   <g id="patch_171">
    <path d="M 384.519789 387.02976 
L 386.370353 387.02976 
L 386.370353 375.836226 
L 384.519789 375.836226 
z
" clip-path="url(#pae0f5e7ef2)" style="fill: #7f7f7f; opacity: 0.5; stroke: #000000; stroke-linejoin: miter"/>
   </g>
   <g id="patch_172">
    <path d="M 386.370353 387.02976 
L 388.220917 387.02976 
L 388.220917 375.836226 
L 386.370353 375.836226 
z
" clip-path="url(#pae0f5e7ef2)" style="fill: #7f7f7f; opacity: 0.5; stroke: #000000; stroke-linejoin: miter"/>
   </g>
   <g id="patch_173">
    <path d="M 388.220917 387.02976 
L 390.071482 387.02976 
L 390.071482 387.02976 
L 388.220917 387.02976 
z
" clip-path="url(#pae0f5e7ef2)" style="fill: #7f7f7f; opacity: 0.5; stroke: #000000; stroke-linejoin: miter"/>
   </g>
   <g id="patch_174">
    <path d="M 390.071482 387.02976 
L 391.922046 387.02976 
L 391.922046 387.02976 
L 390.071482 387.02976 
z
" clip-path="url(#pae0f5e7ef2)" style="fill: #7f7f7f; opacity: 0.5; stroke: #000000; stroke-linejoin: miter"/>
   </g>
   <g id="patch_175">
    <path d="M 391.922046 387.02976 
L 393.77261 387.02976 
L 393.77261 387.02976 
L 391.922046 387.02976 
z
" clip-path="url(#pae0f5e7ef2)" style="fill: #7f7f7f; opacity: 0.5; stroke: #000000; stroke-linejoin: miter"/>
   </g>
   <g id="patch_176">
    <path d="M 393.77261 387.02976 
L 395.623174 387.02976 
L 395.623174 387.02976 
L 393.77261 387.02976 
z
" clip-path="url(#pae0f5e7ef2)" style="fill: #7f7f7f; opacity: 0.5; stroke: #000000; stroke-linejoin: miter"/>
   </g>
   <g id="patch_177">
    <path d="M 395.623174 387.02976 
L 397.473739 387.02976 
L 397.473739 387.02976 
L 395.623174 387.02976 
z
" clip-path="url(#pae0f5e7ef2)" style="fill: #7f7f7f; opacity: 0.5; stroke: #000000; stroke-linejoin: miter"/>
   </g>
   <g id="patch_178">
    <path d="M 397.473739 387.02976 
L 399.324303 387.02976 
L 399.324303 387.02976 
L 397.473739 387.02976 
z
" clip-path="url(#pae0f5e7ef2)" style="fill: #7f7f7f; opacity: 0.5; stroke: #000000; stroke-linejoin: miter"/>
   </g>
   <g id="patch_179">
    <path d="M 399.324303 387.02976 
L 401.174867 387.02976 
L 401.174867 387.02976 
L 399.324303 387.02976 
z
" clip-path="url(#pae0f5e7ef2)" style="fill: #7f7f7f; opacity: 0.5; stroke: #000000; stroke-linejoin: miter"/>
   </g>
   <g id="patch_180">
    <path d="M 401.174867 387.02976 
L 403.025432 387.02976 
L 403.025432 387.02976 
L 401.174867 387.02976 
z
" clip-path="url(#pae0f5e7ef2)" style="fill: #7f7f7f; opacity: 0.5; stroke: #000000; stroke-linejoin: miter"/>
   </g>
   <g id="patch_181">
    <path d="M 403.025432 387.02976 
L 404.875996 387.02976 
L 404.875996 387.02976 
L 403.025432 387.02976 
z
" clip-path="url(#pae0f5e7ef2)" style="fill: #7f7f7f; opacity: 0.5; stroke: #000000; stroke-linejoin: miter"/>
   </g>
   <g id="patch_182">
    <path d="M 404.875996 387.02976 
L 406.72656 387.02976 
L 406.72656 387.02976 
L 404.875996 387.02976 
z
" clip-path="url(#pae0f5e7ef2)" style="fill: #7f7f7f; opacity: 0.5; stroke: #000000; stroke-linejoin: miter"/>
   </g>
   <g id="patch_183">
    <path d="M 406.72656 387.02976 
L 408.577124 387.02976 
L 408.577124 387.02976 
L 406.72656 387.02976 
z
" clip-path="url(#pae0f5e7ef2)" style="fill: #7f7f7f; opacity: 0.5; stroke: #000000; stroke-linejoin: miter"/>
   </g>
   <g id="patch_184">
    <path d="M 408.577124 387.02976 
L 410.427689 387.02976 
L 410.427689 387.02976 
L 408.577124 387.02976 
z
" clip-path="url(#pae0f5e7ef2)" style="fill: #7f7f7f; opacity: 0.5; stroke: #000000; stroke-linejoin: miter"/>
   </g>
   <g id="patch_185">
    <path d="M 410.427689 387.02976 
L 412.278253 387.02976 
L 412.278253 387.02976 
L 410.427689 387.02976 
z
" clip-path="url(#pae0f5e7ef2)" style="fill: #7f7f7f; opacity: 0.5; stroke: #000000; stroke-linejoin: miter"/>
   </g>
   <g id="patch_186">
    <path d="M 412.278253 387.02976 
L 414.128817 387.02976 
L 414.128817 387.02976 
L 412.278253 387.02976 
z
" clip-path="url(#pae0f5e7ef2)" style="fill: #7f7f7f; opacity: 0.5; stroke: #000000; stroke-linejoin: miter"/>
   </g>
   <g id="patch_187">
    <path d="M 414.128817 387.02976 
L 415.979381 387.02976 
L 415.979381 387.02976 
L 414.128817 387.02976 
z
" clip-path="url(#pae0f5e7ef2)" style="fill: #7f7f7f; opacity: 0.5; stroke: #000000; stroke-linejoin: miter"/>
   </g>
   <g id="patch_188">
    <path d="M 415.979381 387.02976 
L 417.829946 387.02976 
L 417.829946 387.02976 
L 415.979381 387.02976 
z
" clip-path="url(#pae0f5e7ef2)" style="fill: #7f7f7f; opacity: 0.5; stroke: #000000; stroke-linejoin: miter"/>
   </g>
   <g id="patch_189">
    <path d="M 417.829946 387.02976 
L 419.68051 387.02976 
L 419.68051 387.02976 
L 417.829946 387.02976 
z
" clip-path="url(#pae0f5e7ef2)" style="fill: #7f7f7f; opacity: 0.5; stroke: #000000; stroke-linejoin: miter"/>
   </g>
   <g id="patch_190">
    <path d="M 419.68051 387.02976 
L 421.531074 387.02976 
L 421.531074 375.836226 
L 419.68051 375.836226 
z
" clip-path="url(#pae0f5e7ef2)" style="fill: #7f7f7f; opacity: 0.5; stroke: #000000; stroke-linejoin: miter"/>
   </g>
   <g id="patch_191">
    <path d="M 421.531074 387.02976 
L 423.381639 387.02976 
L 423.381639 387.02976 
L 421.531074 387.02976 
z
" clip-path="url(#pae0f5e7ef2)" style="fill: #7f7f7f; opacity: 0.5; stroke: #000000; stroke-linejoin: miter"/>
   </g>
   <g id="patch_192">
    <path d="M 423.381639 387.02976 
L 425.232203 387.02976 
L 425.232203 387.02976 
L 423.381639 387.02976 
z
" clip-path="url(#pae0f5e7ef2)" style="fill: #7f7f7f; opacity: 0.5; stroke: #000000; stroke-linejoin: miter"/>
   </g>
   <g id="patch_193">
    <path d="M 425.232203 387.02976 
L 427.082767 387.02976 
L 427.082767 387.02976 
L 425.232203 387.02976 
z
" clip-path="url(#pae0f5e7ef2)" style="fill: #7f7f7f; opacity: 0.5; stroke: #000000; stroke-linejoin: miter"/>
   </g>
   <g id="patch_194">
    <path d="M 427.082767 387.02976 
L 428.933331 387.02976 
L 428.933331 387.02976 
L 427.082767 387.02976 
z
" clip-path="url(#pae0f5e7ef2)" style="fill: #7f7f7f; opacity: 0.5; stroke: #000000; stroke-linejoin: miter"/>
   </g>
   <g id="patch_195">
    <path d="M 428.933331 387.02976 
L 430.783896 387.02976 
L 430.783896 387.02976 
L 428.933331 387.02976 
z
" clip-path="url(#pae0f5e7ef2)" style="fill: #7f7f7f; opacity: 0.5; stroke: #000000; stroke-linejoin: miter"/>
   </g>
   <g id="patch_196">
    <path d="M 430.783896 387.02976 
L 432.63446 387.02976 
L 432.63446 387.02976 
L 430.783896 387.02976 
z
" clip-path="url(#pae0f5e7ef2)" style="fill: #7f7f7f; opacity: 0.5; stroke: #000000; stroke-linejoin: miter"/>
   </g>
   <g id="patch_197">
    <path d="M 432.63446 387.02976 
L 434.485024 387.02976 
L 434.485024 387.02976 
L 432.63446 387.02976 
z
" clip-path="url(#pae0f5e7ef2)" style="fill: #7f7f7f; opacity: 0.5; stroke: #000000; stroke-linejoin: miter"/>
   </g>
   <g id="patch_198">
    <path d="M 434.485024 387.02976 
L 436.335588 387.02976 
L 436.335588 387.02976 
L 434.485024 387.02976 
z
" clip-path="url(#pae0f5e7ef2)" style="fill: #7f7f7f; opacity: 0.5; stroke: #000000; stroke-linejoin: miter"/>
   </g>
   <g id="patch_199">
    <path d="M 436.335588 387.02976 
L 438.186153 387.02976 
L 438.186153 387.02976 
L 436.335588 387.02976 
z
" clip-path="url(#pae0f5e7ef2)" style="fill: #7f7f7f; opacity: 0.5; stroke: #000000; stroke-linejoin: miter"/>
   </g>
   <g id="patch_200">
    <path d="M 438.186153 387.02976 
L 440.036717 387.02976 
L 440.036717 387.02976 
L 438.186153 387.02976 
z
" clip-path="url(#pae0f5e7ef2)" style="fill: #7f7f7f; opacity: 0.5; stroke: #000000; stroke-linejoin: miter"/>
   </g>
   <g id="patch_201">
    <path d="M 440.036717 387.02976 
L 441.887281 387.02976 
L 441.887281 387.02976 
L 440.036717 387.02976 
z
" clip-path="url(#pae0f5e7ef2)" style="fill: #7f7f7f; opacity: 0.5; stroke: #000000; stroke-linejoin: miter"/>
   </g>
   <g id="patch_202">
    <path d="M 441.887281 387.02976 
L 443.737846 387.02976 
L 443.737846 387.02976 
L 441.887281 387.02976 
z
" clip-path="url(#pae0f5e7ef2)" style="fill: #7f7f7f; opacity: 0.5; stroke: #000000; stroke-linejoin: miter"/>
   </g>
   <g id="patch_203">
    <path d="M 443.737846 387.02976 
L 445.58841 387.02976 
L 445.58841 387.02976 
L 443.737846 387.02976 
z
" clip-path="url(#pae0f5e7ef2)" style="fill: #7f7f7f; opacity: 0.5; stroke: #000000; stroke-linejoin: miter"/>
   </g>
   <g id="patch_204">
    <path d="M 445.58841 387.02976 
L 447.438974 387.02976 
L 447.438974 387.02976 
L 445.58841 387.02976 
z
" clip-path="url(#pae0f5e7ef2)" style="fill: #7f7f7f; opacity: 0.5; stroke: #000000; stroke-linejoin: miter"/>
   </g>
   <g id="patch_205">
    <path d="M 447.438974 387.02976 
L 449.289538 387.02976 
L 449.289538 387.02976 
L 447.438974 387.02976 
z
" clip-path="url(#pae0f5e7ef2)" style="fill: #7f7f7f; opacity: 0.5; stroke: #000000; stroke-linejoin: miter"/>
   </g>
   <g id="patch_206">
    <path d="M 449.289538 387.02976 
L 451.140103 387.02976 
L 451.140103 387.02976 
L 449.289538 387.02976 
z
" clip-path="url(#pae0f5e7ef2)" style="fill: #7f7f7f; opacity: 0.5; stroke: #000000; stroke-linejoin: miter"/>
   </g>
   <g id="patch_207">
    <path d="M 451.140103 387.02976 
L 452.990667 387.02976 
L 452.990667 387.02976 
L 451.140103 387.02976 
z
" clip-path="url(#pae0f5e7ef2)" style="fill: #7f7f7f; opacity: 0.5; stroke: #000000; stroke-linejoin: miter"/>
   </g>
   <g id="patch_208">
    <path d="M 452.990667 387.02976 
L 454.841231 387.02976 
L 454.841231 387.02976 
L 452.990667 387.02976 
z
" clip-path="url(#pae0f5e7ef2)" style="fill: #7f7f7f; opacity: 0.5; stroke: #000000; stroke-linejoin: miter"/>
   </g>
   <g id="patch_209">
    <path d="M 454.841231 387.02976 
L 456.691795 387.02976 
L 456.691795 387.02976 
L 454.841231 387.02976 
z
" clip-path="url(#pae0f5e7ef2)" style="fill: #7f7f7f; opacity: 0.5; stroke: #000000; stroke-linejoin: miter"/>
   </g>
   <g id="patch_210">
    <path d="M 456.691795 387.02976 
L 458.54236 387.02976 
L 458.54236 387.02976 
L 456.691795 387.02976 
z
" clip-path="url(#pae0f5e7ef2)" style="fill: #7f7f7f; opacity: 0.5; stroke: #000000; stroke-linejoin: miter"/>
   </g>
   <g id="patch_211">
    <path d="M 458.54236 387.02976 
L 460.392924 387.02976 
L 460.392924 387.02976 
L 458.54236 387.02976 
z
" clip-path="url(#pae0f5e7ef2)" style="fill: #7f7f7f; opacity: 0.5; stroke: #000000; stroke-linejoin: miter"/>
   </g>
   <g id="patch_212">
    <path d="M 460.392924 387.02976 
L 462.243488 387.02976 
L 462.243488 387.02976 
L 460.392924 387.02976 
z
" clip-path="url(#pae0f5e7ef2)" style="fill: #7f7f7f; opacity: 0.5; stroke: #000000; stroke-linejoin: miter"/>
   </g>
   <g id="patch_213">
    <path d="M 462.243488 387.02976 
L 464.094053 387.02976 
L 464.094053 387.02976 
L 462.243488 387.02976 
z
" clip-path="url(#pae0f5e7ef2)" style="fill: #7f7f7f; opacity: 0.5; stroke: #000000; stroke-linejoin: miter"/>
   </g>
   <g id="patch_214">
    <path d="M 464.094053 387.02976 
L 465.944617 387.02976 
L 465.944617 387.02976 
L 464.094053 387.02976 
z
" clip-path="url(#pae0f5e7ef2)" style="fill: #7f7f7f; opacity: 0.5; stroke: #000000; stroke-linejoin: miter"/>
   </g>
   <g id="patch_215">
    <path d="M 465.944617 387.02976 
L 467.795181 387.02976 
L 467.795181 387.02976 
L 465.944617 387.02976 
z
" clip-path="url(#pae0f5e7ef2)" style="fill: #7f7f7f; opacity: 0.5; stroke: #000000; stroke-linejoin: miter"/>
   </g>
   <g id="patch_216">
    <path d="M 467.795181 387.02976 
L 469.645745 387.02976 
L 469.645745 387.02976 
L 467.795181 387.02976 
z
" clip-path="url(#pae0f5e7ef2)" style="fill: #7f7f7f; opacity: 0.5; stroke: #000000; stroke-linejoin: miter"/>
   </g>
   <g id="patch_217">
    <path d="M 469.645745 387.02976 
L 471.49631 387.02976 
L 471.49631 387.02976 
L 469.645745 387.02976 
z
" clip-path="url(#pae0f5e7ef2)" style="fill: #7f7f7f; opacity: 0.5; stroke: #000000; stroke-linejoin: miter"/>
   </g>
   <g id="patch_218">
    <path d="M 471.49631 387.02976 
L 473.346874 387.02976 
L 473.346874 387.02976 
L 471.49631 387.02976 
z
" clip-path="url(#pae0f5e7ef2)" style="fill: #7f7f7f; opacity: 0.5; stroke: #000000; stroke-linejoin: miter"/>
   </g>
   <g id="patch_219">
    <path d="M 473.346874 387.02976 
L 475.197438 387.02976 
L 475.197438 387.02976 
L 473.346874 387.02976 
z
" clip-path="url(#pae0f5e7ef2)" style="fill: #7f7f7f; opacity: 0.5; stroke: #000000; stroke-linejoin: miter"/>
   </g>
   <g id="patch_220">
    <path d="M 475.197438 387.02976 
L 477.048002 387.02976 
L 477.048002 387.02976 
L 475.197438 387.02976 
z
" clip-path="url(#pae0f5e7ef2)" style="fill: #7f7f7f; opacity: 0.5; stroke: #000000; stroke-linejoin: miter"/>
   </g>
   <g id="patch_221">
    <path d="M 477.048002 387.02976 
L 478.898567 387.02976 
L 478.898567 375.836226 
L 477.048002 375.836226 
z
" clip-path="url(#pae0f5e7ef2)" style="fill: #7f7f7f; opacity: 0.5; stroke: #000000; stroke-linejoin: miter"/>
   </g>
   <g id="patch_222">
    <path d="M 478.898567 387.02976 
L 480.749131 387.02976 
L 480.749131 387.02976 
L 478.898567 387.02976 
z
" clip-path="url(#pae0f5e7ef2)" style="fill: #7f7f7f; opacity: 0.5; stroke: #000000; stroke-linejoin: miter"/>
   </g>
   <g id="patch_223">
    <path d="M 480.749131 387.02976 
L 482.599695 387.02976 
L 482.599695 387.02976 
L 480.749131 387.02976 
z
" clip-path="url(#pae0f5e7ef2)" style="fill: #7f7f7f; opacity: 0.5; stroke: #000000; stroke-linejoin: miter"/>
   </g>
   <g id="patch_224">
    <path d="M 482.599695 387.02976 
L 484.45026 387.02976 
L 484.45026 387.02976 
L 482.599695 387.02976 
z
" clip-path="url(#pae0f5e7ef2)" style="fill: #7f7f7f; opacity: 0.5; stroke: #000000; stroke-linejoin: miter"/>
   </g>
   <g id="patch_225">
    <path d="M 484.45026 387.02976 
L 486.300824 387.02976 
L 486.300824 387.02976 
L 484.45026 387.02976 
z
" clip-path="url(#pae0f5e7ef2)" style="fill: #7f7f7f; opacity: 0.5; stroke: #000000; stroke-linejoin: miter"/>
   </g>
   <g id="patch_226">
    <path d="M 486.300824 387.02976 
L 488.151388 387.02976 
L 488.151388 387.02976 
L 486.300824 387.02976 
z
" clip-path="url(#pae0f5e7ef2)" style="fill: #7f7f7f; opacity: 0.5; stroke: #000000; stroke-linejoin: miter"/>
   </g>
   <g id="patch_227">
    <path d="M 488.151388 387.02976 
L 490.001952 387.02976 
L 490.001952 387.02976 
L 488.151388 387.02976 
z
" clip-path="url(#pae0f5e7ef2)" style="fill: #7f7f7f; opacity: 0.5; stroke: #000000; stroke-linejoin: miter"/>
   </g>
   <g id="patch_228">
    <path d="M 490.001952 387.02976 
L 491.852517 387.02976 
L 491.852517 387.02976 
L 490.001952 387.02976 
z
" clip-path="url(#pae0f5e7ef2)" style="fill: #7f7f7f; opacity: 0.5; stroke: #000000; stroke-linejoin: miter"/>
   </g>
   <g id="patch_229">
    <path d="M 491.852517 387.02976 
L 493.703081 387.02976 
L 493.703081 387.02976 
L 491.852517 387.02976 
z
" clip-path="url(#pae0f5e7ef2)" style="fill: #7f7f7f; opacity: 0.5; stroke: #000000; stroke-linejoin: miter"/>
   </g>
   <g id="patch_230">
    <path d="M 493.703081 387.02976 
L 495.553645 387.02976 
L 495.553645 387.02976 
L 493.703081 387.02976 
z
" clip-path="url(#pae0f5e7ef2)" style="fill: #7f7f7f; opacity: 0.5; stroke: #000000; stroke-linejoin: miter"/>
   </g>
   <g id="patch_231">
    <path d="M 495.553645 387.02976 
L 497.404209 387.02976 
L 497.404209 387.02976 
L 495.553645 387.02976 
z
" clip-path="url(#pae0f5e7ef2)" style="fill: #7f7f7f; opacity: 0.5; stroke: #000000; stroke-linejoin: miter"/>
   </g>
   <g id="patch_232">
    <path d="M 497.404209 387.02976 
L 499.254774 387.02976 
L 499.254774 387.02976 
L 497.404209 387.02976 
z
" clip-path="url(#pae0f5e7ef2)" style="fill: #7f7f7f; opacity: 0.5; stroke: #000000; stroke-linejoin: miter"/>
   </g>
   <g id="patch_233">
    <path d="M 499.254774 387.02976 
L 501.105338 387.02976 
L 501.105338 387.02976 
L 499.254774 387.02976 
z
" clip-path="url(#pae0f5e7ef2)" style="fill: #7f7f7f; opacity: 0.5; stroke: #000000; stroke-linejoin: miter"/>
   </g>
   <g id="patch_234">
    <path d="M 501.105338 387.02976 
L 502.955902 387.02976 
L 502.955902 387.02976 
L 501.105338 387.02976 
z
" clip-path="url(#pae0f5e7ef2)" style="fill: #7f7f7f; opacity: 0.5; stroke: #000000; stroke-linejoin: miter"/>
   </g>
   <g id="patch_235">
    <path d="M 502.955902 387.02976 
L 504.806467 387.02976 
L 504.806467 387.02976 
L 502.955902 387.02976 
z
" clip-path="url(#pae0f5e7ef2)" style="fill: #7f7f7f; opacity: 0.5; stroke: #000000; stroke-linejoin: miter"/>
   </g>
   <g id="patch_236">
    <path d="M 504.806467 387.02976 
L 506.657031 387.02976 
L 506.657031 387.02976 
L 504.806467 387.02976 
z
" clip-path="url(#pae0f5e7ef2)" style="fill: #7f7f7f; opacity: 0.5; stroke: #000000; stroke-linejoin: miter"/>
   </g>
   <g id="patch_237">
    <path d="M 506.657031 387.02976 
L 508.507595 387.02976 
L 508.507595 387.02976 
L 506.657031 387.02976 
z
" clip-path="url(#pae0f5e7ef2)" style="fill: #7f7f7f; opacity: 0.5; stroke: #000000; stroke-linejoin: miter"/>
   </g>
   <g id="patch_238">
    <path d="M 508.507595 387.02976 
L 510.358159 387.02976 
L 510.358159 375.836226 
L 508.507595 375.836226 
z
" clip-path="url(#pae0f5e7ef2)" style="fill: #7f7f7f; opacity: 0.5; stroke: #000000; stroke-linejoin: miter"/>
   </g>
   <g id="patch_239">
    <path d="M 510.358159 387.02976 
L 512.208724 387.02976 
L 512.208724 387.02976 
L 510.358159 387.02976 
z
" clip-path="url(#pae0f5e7ef2)" style="fill: #7f7f7f; opacity: 0.5; stroke: #000000; stroke-linejoin: miter"/>
   </g>
   <g id="patch_240">
    <path d="M 512.208724 387.02976 
L 514.059288 387.02976 
L 514.059288 387.02976 
L 512.208724 387.02976 
z
" clip-path="url(#pae0f5e7ef2)" style="fill: #7f7f7f; opacity: 0.5; stroke: #000000; stroke-linejoin: miter"/>
   </g>
   <g id="patch_241">
    <path d="M 514.059288 387.02976 
L 515.909852 387.02976 
L 515.909852 387.02976 
L 514.059288 387.02976 
z
" clip-path="url(#pae0f5e7ef2)" style="fill: #7f7f7f; opacity: 0.5; stroke: #000000; stroke-linejoin: miter"/>
   </g>
   <g id="patch_242">
    <path d="M 515.909852 387.02976 
L 517.760416 387.02976 
L 517.760416 387.02976 
L 515.909852 387.02976 
z
" clip-path="url(#pae0f5e7ef2)" style="fill: #7f7f7f; opacity: 0.5; stroke: #000000; stroke-linejoin: miter"/>
   </g>
   <g id="patch_243">
    <path d="M 517.760416 387.02976 
L 519.610981 387.02976 
L 519.610981 387.02976 
L 517.760416 387.02976 
z
" clip-path="url(#pae0f5e7ef2)" style="fill: #7f7f7f; opacity: 0.5; stroke: #000000; stroke-linejoin: miter"/>
   </g>
   <g id="patch_244">
    <path d="M 519.610981 387.02976 
L 521.461545 387.02976 
L 521.461545 387.02976 
L 519.610981 387.02976 
z
" clip-path="url(#pae0f5e7ef2)" style="fill: #7f7f7f; opacity: 0.5; stroke: #000000; stroke-linejoin: miter"/>
   </g>
   <g id="patch_245">
    <path d="M 521.461545 387.02976 
L 523.312109 387.02976 
L 523.312109 387.02976 
L 521.461545 387.02976 
z
" clip-path="url(#pae0f5e7ef2)" style="fill: #7f7f7f; opacity: 0.5; stroke: #000000; stroke-linejoin: miter"/>
   </g>
   <g id="patch_246">
    <path d="M 523.312109 387.02976 
L 525.162674 387.02976 
L 525.162674 387.02976 
L 523.312109 387.02976 
z
" clip-path="url(#pae0f5e7ef2)" style="fill: #7f7f7f; opacity: 0.5; stroke: #000000; stroke-linejoin: miter"/>
   </g>
   <g id="patch_247">
    <path d="M 525.162674 387.02976 
L 527.013238 387.02976 
L 527.013238 387.02976 
L 525.162674 387.02976 
z
" clip-path="url(#pae0f5e7ef2)" style="fill: #7f7f7f; opacity: 0.5; stroke: #000000; stroke-linejoin: miter"/>
   </g>
   <g id="patch_248">
    <path d="M 527.013238 387.02976 
L 528.863802 387.02976 
L 528.863802 387.02976 
L 527.013238 387.02976 
z
" clip-path="url(#pae0f5e7ef2)" style="fill: #7f7f7f; opacity: 0.5; stroke: #000000; stroke-linejoin: miter"/>
   </g>
   <g id="patch_249">
    <path d="M 528.863802 387.02976 
L 530.714366 387.02976 
L 530.714366 387.02976 
L 528.863802 387.02976 
z
" clip-path="url(#pae0f5e7ef2)" style="fill: #7f7f7f; opacity: 0.5; stroke: #000000; stroke-linejoin: miter"/>
   </g>
   <g id="patch_250">
    <path d="M 530.714366 387.02976 
L 532.564931 387.02976 
L 532.564931 387.02976 
L 530.714366 387.02976 
z
" clip-path="url(#pae0f5e7ef2)" style="fill: #7f7f7f; opacity: 0.5; stroke: #000000; stroke-linejoin: miter"/>
   </g>
   <g id="patch_251">
    <path d="M 532.564931 387.02976 
L 534.415495 387.02976 
L 534.415495 387.02976 
L 532.564931 387.02976 
z
" clip-path="url(#pae0f5e7ef2)" style="fill: #7f7f7f; opacity: 0.5; stroke: #000000; stroke-linejoin: miter"/>
   </g>
   <g id="patch_252">
    <path d="M 534.415495 387.02976 
L 536.266059 387.02976 
L 536.266059 387.02976 
L 534.415495 387.02976 
z
" clip-path="url(#pae0f5e7ef2)" style="fill: #7f7f7f; opacity: 0.5; stroke: #000000; stroke-linejoin: miter"/>
   </g>
   <g id="patch_253">
    <path d="M 536.266059 387.02976 
L 538.116623 387.02976 
L 538.116623 387.02976 
L 536.266059 387.02976 
z
" clip-path="url(#pae0f5e7ef2)" style="fill: #7f7f7f; opacity: 0.5; stroke: #000000; stroke-linejoin: miter"/>
   </g>
   <g id="patch_254">
    <path d="M 538.116623 387.02976 
L 539.967188 387.02976 
L 539.967188 387.02976 
L 538.116623 387.02976 
z
" clip-path="url(#pae0f5e7ef2)" style="fill: #7f7f7f; opacity: 0.5; stroke: #000000; stroke-linejoin: miter"/>
   </g>
   <g id="patch_255">
    <path d="M 539.967188 387.02976 
L 541.817752 387.02976 
L 541.817752 387.02976 
L 539.967188 387.02976 
z
" clip-path="url(#pae0f5e7ef2)" style="fill: #7f7f7f; opacity: 0.5; stroke: #000000; stroke-linejoin: miter"/>
   </g>
   <g id="patch_256">
    <path d="M 541.817752 387.02976 
L 543.668316 387.02976 
L 543.668316 387.02976 
L 541.817752 387.02976 
z
" clip-path="url(#pae0f5e7ef2)" style="fill: #7f7f7f; opacity: 0.5; stroke: #000000; stroke-linejoin: miter"/>
   </g>
   <g id="patch_257">
    <path d="M 543.668316 387.02976 
L 545.518881 387.02976 
L 545.518881 387.02976 
L 543.668316 387.02976 
z
" clip-path="url(#pae0f5e7ef2)" style="fill: #7f7f7f; opacity: 0.5; stroke: #000000; stroke-linejoin: miter"/>
   </g>
   <g id="patch_258">
    <path d="M 545.518881 387.02976 
L 547.369445 387.02976 
L 547.369445 387.02976 
L 545.518881 387.02976 
z
" clip-path="url(#pae0f5e7ef2)" style="fill: #7f7f7f; opacity: 0.5; stroke: #000000; stroke-linejoin: miter"/>
   </g>
   <g id="patch_259">
    <path d="M 547.369445 387.02976 
L 549.220009 387.02976 
L 549.220009 375.836226 
L 547.369445 375.836226 
z
" clip-path="url(#pae0f5e7ef2)" style="fill: #7f7f7f; opacity: 0.5; stroke: #000000; stroke-linejoin: miter"/>
   </g>
   <g id="matplotlib.axis_1">
    <g id="xtick_1">
     <g id="line2d_1">
      <defs>
       <path id="mae6a26c51c" d="M 0 0 
L 0 3.5 
" style="stroke: #000000; stroke-width: 0.8"/>
      </defs>
      <g>
       <use xlink:href="#mae6a26c51c" x="132.206058" y="387.02976" style="stroke: #000000; stroke-width: 0.8"/>
      </g>
     </g>
     <g id="text_1">
      <!-- 0.5 -->
      <g transform="translate(119.483558 406.18726)scale(0.16 -0.16)">
       <defs>
        <path id="DejaVuSans-30" d="M 2034 4250 
Q 1547 4250 1301 3770 
Q 1056 3291 1056 2328 
Q 1056 1369 1301 889 
Q 1547 409 2034 409 
Q 2525 409 2770 889 
Q 3016 1369 3016 2328 
Q 3016 3291 2770 3770 
Q 2525 4250 2034 4250 
z
M 2034 4750 
Q 2819 4750 3233 4129 
Q 3647 3509 3647 2328 
Q 3647 1150 3233 529 
Q 2819 -91 2034 -91 
Q 1250 -91 836 529 
Q 422 1150 422 2328 
Q 422 3509 836 4129 
Q 1250 4750 2034 4750 
z
" transform="scale(0.015625)"/>
        <path id="DejaVuSans-2e" d="M 684 794 
L 1344 794 
L 1344 0 
L 684 0 
L 684 794 
z
" transform="scale(0.015625)"/>
        <path id="DejaVuSans-35" d="M 691 4666 
L 3169 4666 
L 3169 4134 
L 1269 4134 
L 1269 2991 
Q 1406 3038 1543 3061 
Q 1681 3084 1819 3084 
Q 2600 3084 3056 2656 
Q 3513 2228 3513 1497 
Q 3513 744 3044 326 
Q 2575 -91 1722 -91 
Q 1428 -91 1123 -41 
Q 819 9 494 109 
L 494 744 
Q 775 591 1075 516 
Q 1375 441 1709 441 
Q 2250 441 2565 725 
Q 2881 1009 2881 1497 
Q 2881 1984 2565 2268 
Q 2250 2553 1709 2553 
Q 1456 2553 1204 2497 
Q 953 2441 691 2322 
L 691 4666 
z
" transform="scale(0.015625)"/>
       </defs>
       <use xlink:href="#DejaVuSans-30"/>
       <use xlink:href="#DejaVuSans-2e" x="63.623047"/>
       <use xlink:href="#DejaVuSans-35" x="95.410156"/>
      </g>
     </g>
    </g>
    <g id="xtick_2">
     <g id="line2d_2">
      <g>
       <use xlink:href="#mae6a26c51c" x="224.734272" y="387.02976" style="stroke: #000000; stroke-width: 0.8"/>
      </g>
     </g>
     <g id="text_2">
      <!-- 1.0 -->
      <g transform="translate(212.011772 406.18726)scale(0.16 -0.16)">
       <defs>
        <path id="DejaVuSans-31" d="M 794 531 
L 1825 531 
L 1825 4091 
L 703 3866 
L 703 4441 
L 1819 4666 
L 2450 4666 
L 2450 531 
L 3481 531 
L 3481 0 
L 794 0 
L 794 531 
z
" transform="scale(0.015625)"/>
       </defs>
       <use xlink:href="#DejaVuSans-31"/>
       <use xlink:href="#DejaVuSans-2e" x="63.623047"/>
       <use xlink:href="#DejaVuSans-30" x="95.410156"/>
      </g>
     </g>
    </g>
    <g id="xtick_3">
     <g id="line2d_3">
      <g>
       <use xlink:href="#mae6a26c51c" x="317.262486" y="387.02976" style="stroke: #000000; stroke-width: 0.8"/>
      </g>
     </g>
     <g id="text_3">
      <!-- 1.5 -->
      <g transform="translate(304.539986 406.18726)scale(0.16 -0.16)">
       <use xlink:href="#DejaVuSans-31"/>
       <use xlink:href="#DejaVuSans-2e" x="63.623047"/>
       <use xlink:href="#DejaVuSans-35" x="95.410156"/>
      </g>
     </g>
    </g>
    <g id="xtick_4">
     <g id="line2d_4">
      <g>
       <use xlink:href="#mae6a26c51c" x="409.790699" y="387.02976" style="stroke: #000000; stroke-width: 0.8"/>
      </g>
     </g>
     <g id="text_4">
      <!-- 2.0 -->
      <g transform="translate(397.068199 406.18726)scale(0.16 -0.16)">
       <defs>
        <path id="DejaVuSans-32" d="M 1228 531 
L 3431 531 
L 3431 0 
L 469 0 
L 469 531 
Q 828 903 1448 1529 
Q 2069 2156 2228 2338 
Q 2531 2678 2651 2914 
Q 2772 3150 2772 3378 
Q 2772 3750 2511 3984 
Q 2250 4219 1831 4219 
Q 1534 4219 1204 4116 
Q 875 4013 500 3803 
L 500 4441 
Q 881 4594 1212 4672 
Q 1544 4750 1819 4750 
Q 2544 4750 2975 4387 
Q 3406 4025 3406 3419 
Q 3406 3131 3298 2873 
Q 3191 2616 2906 2266 
Q 2828 2175 2409 1742 
Q 1991 1309 1228 531 
z
" transform="scale(0.015625)"/>
       </defs>
       <use xlink:href="#DejaVuSans-32"/>
       <use xlink:href="#DejaVuSans-2e" x="63.623047"/>
       <use xlink:href="#DejaVuSans-30" x="95.410156"/>
      </g>
     </g>
    </g>
    <g id="xtick_5">
     <g id="line2d_5">
      <g>
       <use xlink:href="#mae6a26c51c" x="502.318913" y="387.02976" style="stroke: #000000; stroke-width: 0.8"/>
      </g>
     </g>
     <g id="text_5">
      <!-- 2.5 -->
      <g transform="translate(489.596413 406.18726)scale(0.16 -0.16)">
       <use xlink:href="#DejaVuSans-32"/>
       <use xlink:href="#DejaVuSans-2e" x="63.623047"/>
       <use xlink:href="#DejaVuSans-35" x="95.410156"/>
      </g>
     </g>
    </g>
    <g id="text_6">
     <!-- $I_{2D}/I_{G}$ -->
     <g transform="translate(291.3425 425.67226)scale(0.16 -0.16)">
      <defs>
       <path id="DejaVuSans-Oblique-49" d="M 1081 4666 
L 1716 4666 
L 806 0 
L 172 0 
L 1081 4666 
z
" transform="scale(0.015625)"/>
       <path id="DejaVuSans-Oblique-44" d="M 1081 4666 
L 2438 4666 
Q 3519 4666 4070 4208 
Q 4622 3750 4622 2847 
Q 4622 2250 4412 1698 
Q 4203 1147 3834 769 
Q 3463 381 2891 190 
Q 2319 0 1538 0 
L 172 0 
L 1081 4666 
z
M 1613 4147 
L 909 519 
L 1734 519 
Q 2794 519 3375 1128 
Q 3956 1738 3956 2847 
Q 3956 3519 3581 3833 
Q 3206 4147 2406 4147 
L 1613 4147 
z
" transform="scale(0.015625)"/>
       <path id="DejaVuSans-2f" d="M 1625 4666 
L 2156 4666 
L 531 -594 
L 0 -594 
L 1625 4666 
z
" transform="scale(0.015625)"/>
       <path id="DejaVuSans-Oblique-47" d="M 3494 697 
L 3738 1919 
L 2700 1919 
L 2797 2438 
L 4453 2438 
L 4050 384 
Q 3634 156 3143 32 
Q 2653 -91 2156 -91 
Q 1278 -91 783 396 
Q 288 884 288 1753 
Q 288 2475 589 3126 
Q 891 3778 1422 4213 
Q 1756 4484 2153 4617 
Q 2550 4750 3034 4750 
Q 3472 4750 3873 4639 
Q 4275 4528 4641 4306 
L 4513 3634 
Q 4231 3928 3853 4083 
Q 3475 4238 3047 4238 
Q 2550 4238 2172 4048 
Q 1794 3859 1497 3463 
Q 1244 3125 1098 2667 
Q 953 2209 953 1734 
Q 953 1081 1287 751 
Q 1622 422 2284 422 
Q 2616 422 2925 492 
Q 3234 563 3494 697 
z
" transform="scale(0.015625)"/>
      </defs>
      <use xlink:href="#DejaVuSans-Oblique-49" transform="translate(0 0.09375)"/>
      <use xlink:href="#DejaVuSans-32" transform="translate(29.492188 -16.3125)scale(0.7)"/>
      <use xlink:href="#DejaVuSans-Oblique-44" transform="translate(74.02832 -16.3125)scale(0.7)"/>
      <use xlink:href="#DejaVuSans-2f" transform="translate(130.664062 0.09375)"/>
      <use xlink:href="#DejaVuSans-Oblique-49" transform="translate(164.355469 0.09375)"/>
      <use xlink:href="#DejaVuSans-Oblique-47" transform="translate(193.847656 -16.3125)scale(0.7)"/>
     </g>
    </g>
   </g>
   <g id="matplotlib.axis_2">
    <g id="ytick_1">
     <g id="line2d_6">
      <defs>
       <path id="m5ef9bcb036" d="M 0 0 
L -3.5 0 
" style="stroke: #000000; stroke-width: 0.8"/>
      </defs>
      <g>
       <use xlink:href="#m5ef9bcb036" x="49.84524" y="387.02976" style="stroke: #000000; stroke-width: 0.8"/>
      </g>
     </g>
     <g id="text_7">
      <!-- 0 -->
      <g transform="translate(32.66524 393.10851)scale(0.16 -0.16)">
       <use xlink:href="#DejaVuSans-30"/>
      </g>
     </g>
    </g>
    <g id="ytick_2">
     <g id="line2d_7">
      <g>
       <use xlink:href="#m5ef9bcb036" x="49.84524" y="331.062092" style="stroke: #000000; stroke-width: 0.8"/>
      </g>
     </g>
     <g id="text_8">
      <!-- 5 -->
      <g transform="translate(32.66524 337.140842)scale(0.16 -0.16)">
       <use xlink:href="#DejaVuSans-35"/>
      </g>
     </g>
    </g>
    <g id="ytick_3">
     <g id="line2d_8">
      <g>
       <use xlink:href="#m5ef9bcb036" x="49.84524" y="275.094424" style="stroke: #000000; stroke-width: 0.8"/>
      </g>
     </g>
     <g id="text_9">
      <!-- 10 -->
      <g transform="translate(22.48524 281.173174)scale(0.16 -0.16)">
       <use xlink:href="#DejaVuSans-31"/>
       <use xlink:href="#DejaVuSans-30" x="63.623047"/>
      </g>
     </g>
    </g>
    <g id="ytick_4">
     <g id="line2d_9">
      <g>
       <use xlink:href="#m5ef9bcb036" x="49.84524" y="219.126755" style="stroke: #000000; stroke-width: 0.8"/>
      </g>
     </g>
     <g id="text_10">
      <!-- 15 -->
      <g transform="translate(22.48524 225.205505)scale(0.16 -0.16)">
       <use xlink:href="#DejaVuSans-31"/>
       <use xlink:href="#DejaVuSans-35" x="63.623047"/>
      </g>
     </g>
    </g>
    <g id="ytick_5">
     <g id="line2d_10">
      <g>
       <use xlink:href="#m5ef9bcb036" x="49.84524" y="163.159087" style="stroke: #000000; stroke-width: 0.8"/>
      </g>
     </g>
     <g id="text_11">
      <!-- 20 -->
      <g transform="translate(22.48524 169.237837)scale(0.16 -0.16)">
       <use xlink:href="#DejaVuSans-32"/>
       <use xlink:href="#DejaVuSans-30" x="63.623047"/>
      </g>
     </g>
    </g>
    <g id="ytick_6">
     <g id="line2d_11">
      <g>
       <use xlink:href="#m5ef9bcb036" x="49.84524" y="107.191419" style="stroke: #000000; stroke-width: 0.8"/>
      </g>
     </g>
     <g id="text_12">
      <!-- 25 -->
      <g transform="translate(22.48524 113.270169)scale(0.16 -0.16)">
       <use xlink:href="#DejaVuSans-32"/>
       <use xlink:href="#DejaVuSans-35" x="63.623047"/>
      </g>
     </g>
    </g>
    <g id="ytick_7">
     <g id="line2d_12">
      <g>
       <use xlink:href="#m5ef9bcb036" x="49.84524" y="51.223751" style="stroke: #000000; stroke-width: 0.8"/>
      </g>
     </g>
     <g id="text_13">
      <!-- 30 -->
      <g transform="translate(22.48524 57.302501)scale(0.16 -0.16)">
       <defs>
        <path id="DejaVuSans-33" d="M 2597 2516 
Q 3050 2419 3304 2112 
Q 3559 1806 3559 1356 
Q 3559 666 3084 287 
Q 2609 -91 1734 -91 
Q 1441 -91 1130 -33 
Q 819 25 488 141 
L 488 750 
Q 750 597 1062 519 
Q 1375 441 1716 441 
Q 2309 441 2620 675 
Q 2931 909 2931 1356 
Q 2931 1769 2642 2001 
Q 2353 2234 1838 2234 
L 1294 2234 
L 1294 2753 
L 1863 2753 
Q 2328 2753 2575 2939 
Q 2822 3125 2822 3475 
Q 2822 3834 2567 4026 
Q 2313 4219 1838 4219 
Q 1578 4219 1281 4162 
Q 984 4106 628 3988 
L 628 4550 
Q 988 4650 1302 4700 
Q 1616 4750 1894 4750 
Q 2613 4750 3031 4423 
Q 3450 4097 3450 3541 
Q 3450 3153 3228 2886 
Q 3006 2619 2597 2516 
z
" transform="scale(0.015625)"/>
       </defs>
       <use xlink:href="#DejaVuSans-33"/>
       <use xlink:href="#DejaVuSans-30" x="63.623047"/>
      </g>
     </g>
    </g>
    <g id="text_14">
     <!-- counts -->
     <g transform="translate(15.15774 231.5925)rotate(-90)scale(0.16 -0.16)">
      <defs>
       <path id="DejaVuSans-63" d="M 3122 3366 
L 3122 2828 
Q 2878 2963 2633 3030 
Q 2388 3097 2138 3097 
Q 1578 3097 1268 2742 
Q 959 2388 959 1747 
Q 959 1106 1268 751 
Q 1578 397 2138 397 
Q 2388 397 2633 464 
Q 2878 531 3122 666 
L 3122 134 
Q 2881 22 2623 -34 
Q 2366 -91 2075 -91 
Q 1284 -91 818 406 
Q 353 903 353 1747 
Q 353 2603 823 3093 
Q 1294 3584 2113 3584 
Q 2378 3584 2631 3529 
Q 2884 3475 3122 3366 
z
" transform="scale(0.015625)"/>
       <path id="DejaVuSans-6f" d="M 1959 3097 
Q 1497 3097 1228 2736 
Q 959 2375 959 1747 
Q 959 1119 1226 758 
Q 1494 397 1959 397 
Q 2419 397 2687 759 
Q 2956 1122 2956 1747 
Q 2956 2369 2687 2733 
Q 2419 3097 1959 3097 
z
M 1959 3584 
Q 2709 3584 3137 3096 
Q 3566 2609 3566 1747 
Q 3566 888 3137 398 
Q 2709 -91 1959 -91 
Q 1206 -91 779 398 
Q 353 888 353 1747 
Q 353 2609 779 3096 
Q 1206 3584 1959 3584 
z
" transform="scale(0.015625)"/>
       <path id="DejaVuSans-75" d="M 544 1381 
L 544 3500 
L 1119 3500 
L 1119 1403 
Q 1119 906 1312 657 
Q 1506 409 1894 409 
Q 2359 409 2629 706 
Q 2900 1003 2900 1516 
L 2900 3500 
L 3475 3500 
L 3475 0 
L 2900 0 
L 2900 538 
Q 2691 219 2414 64 
Q 2138 -91 1772 -91 
Q 1169 -91 856 284 
Q 544 659 544 1381 
z
M 1991 3584 
L 1991 3584 
z
" transform="scale(0.015625)"/>
       <path id="DejaVuSans-6e" d="M 3513 2113 
L 3513 0 
L 2938 0 
L 2938 2094 
Q 2938 2591 2744 2837 
Q 2550 3084 2163 3084 
Q 1697 3084 1428 2787 
Q 1159 2491 1159 1978 
L 1159 0 
L 581 0 
L 581 3500 
L 1159 3500 
L 1159 2956 
Q 1366 3272 1645 3428 
Q 1925 3584 2291 3584 
Q 2894 3584 3203 3211 
Q 3513 2838 3513 2113 
z
" transform="scale(0.015625)"/>
       <path id="DejaVuSans-74" d="M 1172 4494 
L 1172 3500 
L 2356 3500 
L 2356 3053 
L 1172 3053 
L 1172 1153 
Q 1172 725 1289 603 
Q 1406 481 1766 481 
L 2356 481 
L 2356 0 
L 1766 0 
Q 1100 0 847 248 
Q 594 497 594 1153 
L 594 3053 
L 172 3053 
L 172 3500 
L 594 3500 
L 594 4494 
L 1172 4494 
z
" transform="scale(0.015625)"/>
       <path id="DejaVuSans-73" d="M 2834 3397 
L 2834 2853 
Q 2591 2978 2328 3040 
Q 2066 3103 1784 3103 
Q 1356 3103 1142 2972 
Q 928 2841 928 2578 
Q 928 2378 1081 2264 
Q 1234 2150 1697 2047 
L 1894 2003 
Q 2506 1872 2764 1633 
Q 3022 1394 3022 966 
Q 3022 478 2636 193 
Q 2250 -91 1575 -91 
Q 1294 -91 989 -36 
Q 684 19 347 128 
L 347 722 
Q 666 556 975 473 
Q 1284 391 1588 391 
Q 1994 391 2212 530 
Q 2431 669 2431 922 
Q 2431 1156 2273 1281 
Q 2116 1406 1581 1522 
L 1381 1569 
Q 847 1681 609 1914 
Q 372 2147 372 2553 
Q 372 3047 722 3315 
Q 1072 3584 1716 3584 
Q 2034 3584 2315 3537 
Q 2597 3491 2834 3397 
z
" transform="scale(0.015625)"/>
      </defs>
      <use xlink:href="#DejaVuSans-63"/>
      <use xlink:href="#DejaVuSans-6f" x="54.980469"/>
      <use xlink:href="#DejaVuSans-75" x="116.162109"/>
      <use xlink:href="#DejaVuSans-6e" x="179.541016"/>
      <use xlink:href="#DejaVuSans-74" x="242.919922"/>
      <use xlink:href="#DejaVuSans-73" x="282.128906"/>
     </g>
    </g>
   </g>
   <g id="patch_260">
    <path d="M 49.84524 387.02976 
L 49.84524 22.68024 
" style="fill: none; stroke: #000000; stroke-width: 0.8; stroke-linejoin: miter; stroke-linecap: square"/>
   </g>
   <g id="patch_261">
    <path d="M 572.99976 387.02976 
L 572.99976 22.68024 
" style="fill: none; stroke: #000000; stroke-width: 0.8; stroke-linejoin: miter; stroke-linecap: square"/>
   </g>
   <g id="patch_262">
    <path d="M 49.84524 387.02976 
L 572.99976 387.02976 
" style="fill: none; stroke: #000000; stroke-width: 0.8; stroke-linejoin: miter; stroke-linecap: square"/>
   </g>
   <g id="patch_263">
    <path d="M 49.84524 22.68024 
L 572.99976 22.68024 
" style="fill: none; stroke: #000000; stroke-width: 0.8; stroke-linejoin: miter; stroke-linecap: square"/>
   </g>
   <g id="text_15">
    <!-- Intensity ratio: $I_{2D}/I_{G}$ -->
    <g transform="translate(220.1625 16.68024)scale(0.18 -0.18)">
     <defs>
      <path id="DejaVuSans-49" d="M 628 4666 
L 1259 4666 
L 1259 0 
L 628 0 
L 628 4666 
z
" transform="scale(0.015625)"/>
      <path id="DejaVuSans-65" d="M 3597 1894 
L 3597 1613 
L 953 1613 
Q 991 1019 1311 708 
Q 1631 397 2203 397 
Q 2534 397 2845 478 
Q 3156 559 3463 722 
L 3463 178 
Q 3153 47 2828 -22 
Q 2503 -91 2169 -91 
Q 1331 -91 842 396 
Q 353 884 353 1716 
Q 353 2575 817 3079 
Q 1281 3584 2069 3584 
Q 2775 3584 3186 3129 
Q 3597 2675 3597 1894 
z
M 3022 2063 
Q 3016 2534 2758 2815 
Q 2500 3097 2075 3097 
Q 1594 3097 1305 2825 
Q 1016 2553 972 2059 
L 3022 2063 
z
" transform="scale(0.015625)"/>
      <path id="DejaVuSans-69" d="M 603 3500 
L 1178 3500 
L 1178 0 
L 603 0 
L 603 3500 
z
M 603 4863 
L 1178 4863 
L 1178 4134 
L 603 4134 
L 603 4863 
z
" transform="scale(0.015625)"/>
      <path id="DejaVuSans-79" d="M 2059 -325 
Q 1816 -950 1584 -1140 
Q 1353 -1331 966 -1331 
L 506 -1331 
L 506 -850 
L 844 -850 
Q 1081 -850 1212 -737 
Q 1344 -625 1503 -206 
L 1606 56 
L 191 3500 
L 800 3500 
L 1894 763 
L 2988 3500 
L 3597 3500 
L 2059 -325 
z
" transform="scale(0.015625)"/>
      <path id="DejaVuSans-20" transform="scale(0.015625)"/>
      <path id="DejaVuSans-72" d="M 2631 2963 
Q 2534 3019 2420 3045 
Q 2306 3072 2169 3072 
Q 1681 3072 1420 2755 
Q 1159 2438 1159 1844 
L 1159 0 
L 581 0 
L 581 3500 
L 1159 3500 
L 1159 2956 
Q 1341 3275 1631 3429 
Q 1922 3584 2338 3584 
Q 2397 3584 2469 3576 
Q 2541 3569 2628 3553 
L 2631 2963 
z
" transform="scale(0.015625)"/>
      <path id="DejaVuSans-61" d="M 2194 1759 
Q 1497 1759 1228 1600 
Q 959 1441 959 1056 
Q 959 750 1161 570 
Q 1363 391 1709 391 
Q 2188 391 2477 730 
Q 2766 1069 2766 1631 
L 2766 1759 
L 2194 1759 
z
M 3341 1997 
L 3341 0 
L 2766 0 
L 2766 531 
Q 2569 213 2275 61 
Q 1981 -91 1556 -91 
Q 1019 -91 701 211 
Q 384 513 384 1019 
Q 384 1609 779 1909 
Q 1175 2209 1959 2209 
L 2766 2209 
L 2766 2266 
Q 2766 2663 2505 2880 
Q 2244 3097 1772 3097 
Q 1472 3097 1187 3025 
Q 903 2953 641 2809 
L 641 3341 
Q 956 3463 1253 3523 
Q 1550 3584 1831 3584 
Q 2591 3584 2966 3190 
Q 3341 2797 3341 1997 
z
" transform="scale(0.015625)"/>
      <path id="DejaVuSans-3a" d="M 750 794 
L 1409 794 
L 1409 0 
L 750 0 
L 750 794 
z
M 750 3309 
L 1409 3309 
L 1409 2516 
L 750 2516 
L 750 3309 
z
" transform="scale(0.015625)"/>
     </defs>
     <use xlink:href="#DejaVuSans-49" transform="translate(0 0.015625)"/>
     <use xlink:href="#DejaVuSans-6e" transform="translate(29.492188 0.015625)"/>
     <use xlink:href="#DejaVuSans-74" transform="translate(92.871094 0.015625)"/>
     <use xlink:href="#DejaVuSans-65" transform="translate(132.080078 0.015625)"/>
     <use xlink:href="#DejaVuSans-6e" transform="translate(193.603516 0.015625)"/>
     <use xlink:href="#DejaVuSans-73" transform="translate(256.982422 0.015625)"/>
     <use xlink:href="#DejaVuSans-69" transform="translate(309.082031 0.015625)"/>
     <use xlink:href="#DejaVuSans-74" transform="translate(336.865234 0.015625)"/>
     <use xlink:href="#DejaVuSans-79" transform="translate(376.074219 0.015625)"/>
     <use xlink:href="#DejaVuSans-20" transform="translate(435.253906 0.015625)"/>
     <use xlink:href="#DejaVuSans-72" transform="translate(467.041016 0.015625)"/>
     <use xlink:href="#DejaVuSans-61" transform="translate(508.154297 0.015625)"/>
     <use xlink:href="#DejaVuSans-74" transform="translate(569.433594 0.015625)"/>
     <use xlink:href="#DejaVuSans-69" transform="translate(608.642578 0.015625)"/>
     <use xlink:href="#DejaVuSans-6f" transform="translate(636.425781 0.015625)"/>
     <use xlink:href="#DejaVuSans-3a" transform="translate(697.607422 0.015625)"/>
     <use xlink:href="#DejaVuSans-20" transform="translate(731.298828 0.015625)"/>
     <use xlink:href="#DejaVuSans-Oblique-49" transform="translate(763.085938 0.015625)"/>
     <use xlink:href="#DejaVuSans-32" transform="translate(792.578125 -16.390625)scale(0.7)"/>
     <use xlink:href="#DejaVuSans-Oblique-44" transform="translate(837.114258 -16.390625)scale(0.7)"/>
     <use xlink:href="#DejaVuSans-2f" transform="translate(893.75 0.015625)"/>
     <use xlink:href="#DejaVuSans-Oblique-49" transform="translate(927.441406 0.015625)"/>
     <use xlink:href="#DejaVuSans-Oblique-47" transform="translate(956.933594 -16.390625)scale(0.7)"/>
    </g>
   </g>
   <g id="legend_1">
    <g id="patch_264">
     <path d="M 261.49976 54.46024 
L 563.19976 54.46024 
Q 565.99976 54.46024 565.99976 51.66024 
L 565.99976 32.48024 
Q 565.99976 29.68024 563.19976 29.68024 
L 261.49976 29.68024 
Q 258.69976 29.68024 258.69976 32.48024 
L 258.69976 51.66024 
Q 258.69976 54.46024 261.49976 54.46024 
z
" style="fill: #ffffff; opacity: 0.8; stroke: #cccccc; stroke-linejoin: miter"/>
    </g>
    <g id="patch_265">
     <path d="M 264.29976 45.92024 
L 292.29976 45.92024 
L 292.29976 36.12024 
L 264.29976 36.12024 
z
" style="fill: #7f7f7f; opacity: 0.5; stroke: #000000; stroke-linejoin: miter"/>
    </g>
    <g id="text_16">
     <!-- mapExample: $I_{2D}/I_{G}$=1.3211$\pm$0.2022 -->
     <g transform="translate(303.49976 45.92024)scale(0.14 -0.14)">
      <defs>
       <path id="DejaVuSans-6d" d="M 3328 2828 
Q 3544 3216 3844 3400 
Q 4144 3584 4550 3584 
Q 5097 3584 5394 3201 
Q 5691 2819 5691 2113 
L 5691 0 
L 5113 0 
L 5113 2094 
Q 5113 2597 4934 2840 
Q 4756 3084 4391 3084 
Q 3944 3084 3684 2787 
Q 3425 2491 3425 1978 
L 3425 0 
L 2847 0 
L 2847 2094 
Q 2847 2600 2669 2842 
Q 2491 3084 2119 3084 
Q 1678 3084 1418 2786 
Q 1159 2488 1159 1978 
L 1159 0 
L 581 0 
L 581 3500 
L 1159 3500 
L 1159 2956 
Q 1356 3278 1631 3431 
Q 1906 3584 2284 3584 
Q 2666 3584 2933 3390 
Q 3200 3197 3328 2828 
z
" transform="scale(0.015625)"/>
       <path id="DejaVuSans-70" d="M 1159 525 
L 1159 -1331 
L 581 -1331 
L 581 3500 
L 1159 3500 
L 1159 2969 
Q 1341 3281 1617 3432 
Q 1894 3584 2278 3584 
Q 2916 3584 3314 3078 
Q 3713 2572 3713 1747 
Q 3713 922 3314 415 
Q 2916 -91 2278 -91 
Q 1894 -91 1617 61 
Q 1341 213 1159 525 
z
M 3116 1747 
Q 3116 2381 2855 2742 
Q 2594 3103 2138 3103 
Q 1681 3103 1420 2742 
Q 1159 2381 1159 1747 
Q 1159 1113 1420 752 
Q 1681 391 2138 391 
Q 2594 391 2855 752 
Q 3116 1113 3116 1747 
z
" transform="scale(0.015625)"/>
       <path id="DejaVuSans-45" d="M 628 4666 
L 3578 4666 
L 3578 4134 
L 1259 4134 
L 1259 2753 
L 3481 2753 
L 3481 2222 
L 1259 2222 
L 1259 531 
L 3634 531 
L 3634 0 
L 628 0 
L 628 4666 
z
" transform="scale(0.015625)"/>
       <path id="DejaVuSans-78" d="M 3513 3500 
L 2247 1797 
L 3578 0 
L 2900 0 
L 1881 1375 
L 863 0 
L 184 0 
L 1544 1831 
L 300 3500 
L 978 3500 
L 1906 2253 
L 2834 3500 
L 3513 3500 
z
" transform="scale(0.015625)"/>
       <path id="DejaVuSans-6c" d="M 603 4863 
L 1178 4863 
L 1178 0 
L 603 0 
L 603 4863 
z
" transform="scale(0.015625)"/>
       <path id="DejaVuSans-3d" d="M 678 2906 
L 4684 2906 
L 4684 2381 
L 678 2381 
L 678 2906 
z
M 678 1631 
L 4684 1631 
L 4684 1100 
L 678 1100 
L 678 1631 
z
" transform="scale(0.015625)"/>
       <path id="DejaVuSans-b1" d="M 2944 4013 
L 2944 2803 
L 4684 2803 
L 4684 2272 
L 2944 2272 
L 2944 1063 
L 2419 1063 
L 2419 2272 
L 678 2272 
L 678 2803 
L 2419 2803 
L 2419 4013 
L 2944 4013 
z
M 678 531 
L 4684 531 
L 4684 0 
L 678 0 
L 678 531 
z
" transform="scale(0.015625)"/>
      </defs>
      <use xlink:href="#DejaVuSans-6d" transform="translate(0 0.015625)"/>
      <use xlink:href="#DejaVuSans-61" transform="translate(97.412109 0.015625)"/>
      <use xlink:href="#DejaVuSans-70" transform="translate(158.691406 0.015625)"/>
      <use xlink:href="#DejaVuSans-45" transform="translate(222.167969 0.015625)"/>
      <use xlink:href="#DejaVuSans-78" transform="translate(285.351562 0.015625)"/>
      <use xlink:href="#DejaVuSans-61" transform="translate(344.53125 0.015625)"/>
      <use xlink:href="#DejaVuSans-6d" transform="translate(405.810547 0.015625)"/>
      <use xlink:href="#DejaVuSans-70" transform="translate(503.222656 0.015625)"/>
      <use xlink:href="#DejaVuSans-6c" transform="translate(566.699219 0.015625)"/>
      <use xlink:href="#DejaVuSans-65" transform="translate(594.482422 0.015625)"/>
      <use xlink:href="#DejaVuSans-3a" transform="translate(656.005859 0.015625)"/>
      <use xlink:href="#DejaVuSans-20" transform="translate(689.697266 0.015625)"/>
      <use xlink:href="#DejaVuSans-Oblique-49" transform="translate(721.484375 0.015625)"/>
      <use xlink:href="#DejaVuSans-32" transform="translate(750.976562 -16.390625)scale(0.7)"/>
      <use xlink:href="#DejaVuSans-Oblique-44" transform="translate(795.512695 -16.390625)scale(0.7)"/>
      <use xlink:href="#DejaVuSans-2f" transform="translate(852.148438 0.015625)"/>
      <use xlink:href="#DejaVuSans-Oblique-49" transform="translate(885.839844 0.015625)"/>
      <use xlink:href="#DejaVuSans-Oblique-47" transform="translate(915.332031 -16.390625)scale(0.7)"/>
      <use xlink:href="#DejaVuSans-3d" transform="translate(972.30957 0.015625)"/>
      <use xlink:href="#DejaVuSans-31" transform="translate(1056.098633 0.015625)"/>
      <use xlink:href="#DejaVuSans-2e" transform="translate(1119.72168 0.015625)"/>
      <use xlink:href="#DejaVuSans-33" transform="translate(1151.508789 0.015625)"/>
      <use xlink:href="#DejaVuSans-32" transform="translate(1215.131836 0.015625)"/>
      <use xlink:href="#DejaVuSans-31" transform="translate(1278.754883 0.015625)"/>
      <use xlink:href="#DejaVuSans-31" transform="translate(1342.37793 0.015625)"/>
      <use xlink:href="#DejaVuSans-b1" transform="translate(1406.000977 0.015625)"/>
      <use xlink:href="#DejaVuSans-30" transform="translate(1489.790039 0.015625)"/>
      <use xlink:href="#DejaVuSans-2e" transform="translate(1553.413086 0.015625)"/>
      <use xlink:href="#DejaVuSans-32" transform="translate(1579.700195 0.015625)"/>
      <use xlink:href="#DejaVuSans-30" transform="translate(1643.323242 0.015625)"/>
      <use xlink:href="#DejaVuSans-32" transform="translate(1706.946289 0.015625)"/>
      <use xlink:href="#DejaVuSans-32" transform="translate(1770.569336 0.015625)"/>
     </g>
    </g>
   </g>
  </g>
 </g>
 <defs>
  <clipPath id="pae0f5e7ef2">
   <rect x="49.84524" y="22.68024" width="523.15452" height="364.34952"/>
  </clipPath>
 </defs>
</svg>
