<?xml version="1.0" encoding="utf-8" standalone="no"?>
<!DOCTYPE svg PUBLIC "-//W3C//DTD SVG 1.1//EN"
  "http://www.w3.org/Graphics/SVG/1.1/DTD/svg11.dtd">
<svg xmlns:xlink="http://www.w3.org/1999/xlink" width="576pt" height="432pt" viewBox="0 0 576 432" xmlns="http://www.w3.org/2000/svg" version="1.1">
 <metadata>
  <rdf:RDF xmlns:dc="http://purl.org/dc/elements/1.1/" xmlns:cc="http://creativecommons.org/ns#" xmlns:rdf="http://www.w3.org/1999/02/22-rdf-syntax-ns#">
   <cc:Work>
    <dc:type rdf:resource="http://purl.org/dc/dcmitype/StillImage"/>
    <dc:date>2023-07-14T09:55:26.991071</dc:date>
    <dc:format>image/svg+xml</dc:format>
    <dc:creator>
     <cc:Agent>
      <dc:title>Matplotlib v3.5.2, https://matplotlib.org/</dc:title>
     </cc:Agent>
    </dc:creator>
   </cc:Work>
  </rdf:RDF>
 </metadata>
 <defs>
  <style type="text/css">*{stroke-linejoin: round; stroke-linecap: butt}</style>
 </defs>
 <g id="figure_1">
  <g id="patch_1">
   <path d="M 0 432 
L 576 432 
L 576 0 
L 0 0 
z
" style="fill: #ffffff"/>
  </g>
  <g id="axes_1">
   <g id="patch_2">
    <path d="M 49.84524 387.02976 
L 572.99976 387.02976 
L 572.99976 22.68024 
L 49.84524 22.68024 
z
" style="fill: #ffffff"/>
   </g>
   <g id="patch_3">
    <path d="M 73.624991 387.02976 
L 75.542713 387.02976 
L 75.542713 380.356692 
L 73.624991 380.356692 
z
" clip-path="url(#pf89120ca65)" style="fill: #7f7f7f; opacity: 0.5; stroke: #000000; stroke-linejoin: miter"/>
   </g>
   <g id="patch_4">
    <path d="M 75.542713 387.02976 
L 77.460435 387.02976 
L 77.460435 387.02976 
L 75.542713 387.02976 
z
" clip-path="url(#pf89120ca65)" style="fill: #7f7f7f; opacity: 0.5; stroke: #000000; stroke-linejoin: miter"/>
   </g>
   <g id="patch_5">
    <path d="M 77.460435 387.02976 
L 79.378156 387.02976 
L 79.378156 387.02976 
L 77.460435 387.02976 
z
" clip-path="url(#pf89120ca65)" style="fill: #7f7f7f; opacity: 0.5; stroke: #000000; stroke-linejoin: miter"/>
   </g>
   <g id="patch_6">
    <path d="M 79.378156 387.02976 
L 81.295878 387.02976 
L 81.295878 387.02976 
L 79.378156 387.02976 
z
" clip-path="url(#pf89120ca65)" style="fill: #7f7f7f; opacity: 0.5; stroke: #000000; stroke-linejoin: miter"/>
   </g>
   <g id="patch_7">
    <path d="M 81.295878 387.02976 
L 83.2136 387.02976 
L 83.2136 387.02976 
L 81.295878 387.02976 
z
" clip-path="url(#pf89120ca65)" style="fill: #7f7f7f; opacity: 0.5; stroke: #000000; stroke-linejoin: miter"/>
   </g>
   <g id="patch_8">
    <path d="M 83.2136 387.02976 
L 85.131322 387.02976 
L 85.131322 387.02976 
L 83.2136 387.02976 
z
" clip-path="url(#pf89120ca65)" style="fill: #7f7f7f; opacity: 0.5; stroke: #000000; stroke-linejoin: miter"/>
   </g>
   <g id="patch_9">
    <path d="M 85.131322 387.02976 
L 87.049044 387.02976 
L 87.049044 387.02976 
L 85.131322 387.02976 
z
" clip-path="url(#pf89120ca65)" style="fill: #7f7f7f; opacity: 0.5; stroke: #000000; stroke-linejoin: miter"/>
   </g>
   <g id="patch_10">
    <path d="M 87.049044 387.02976 
L 88.966766 387.02976 
L 88.966766 387.02976 
L 87.049044 387.02976 
z
" clip-path="url(#pf89120ca65)" style="fill: #7f7f7f; opacity: 0.5; stroke: #000000; stroke-linejoin: miter"/>
   </g>
   <g id="patch_11">
    <path d="M 88.966766 387.02976 
L 90.884488 387.02976 
L 90.884488 387.02976 
L 88.966766 387.02976 
z
" clip-path="url(#pf89120ca65)" style="fill: #7f7f7f; opacity: 0.5; stroke: #000000; stroke-linejoin: miter"/>
   </g>
   <g id="patch_12">
    <path d="M 90.884488 387.02976 
L 92.802209 387.02976 
L 92.802209 380.356692 
L 90.884488 380.356692 
z
" clip-path="url(#pf89120ca65)" style="fill: #7f7f7f; opacity: 0.5; stroke: #000000; stroke-linejoin: miter"/>
   </g>
   <g id="patch_13">
    <path d="M 92.802209 387.02976 
L 94.719931 387.02976 
L 94.719931 387.02976 
L 92.802209 387.02976 
z
" clip-path="url(#pf89120ca65)" style="fill: #7f7f7f; opacity: 0.5; stroke: #000000; stroke-linejoin: miter"/>
   </g>
   <g id="patch_14">
    <path d="M 94.719931 387.02976 
L 96.637653 387.02976 
L 96.637653 387.02976 
L 94.719931 387.02976 
z
" clip-path="url(#pf89120ca65)" style="fill: #7f7f7f; opacity: 0.5; stroke: #000000; stroke-linejoin: miter"/>
   </g>
   <g id="patch_15">
    <path d="M 96.637653 387.02976 
L 98.555375 387.02976 
L 98.555375 387.02976 
L 96.637653 387.02976 
z
" clip-path="url(#pf89120ca65)" style="fill: #7f7f7f; opacity: 0.5; stroke: #000000; stroke-linejoin: miter"/>
   </g>
   <g id="patch_16">
    <path d="M 98.555375 387.02976 
L 100.473097 387.02976 
L 100.473097 387.02976 
L 98.555375 387.02976 
z
" clip-path="url(#pf89120ca65)" style="fill: #7f7f7f; opacity: 0.5; stroke: #000000; stroke-linejoin: miter"/>
   </g>
   <g id="patch_17">
    <path d="M 100.473097 387.02976 
L 102.390819 387.02976 
L 102.390819 387.02976 
L 100.473097 387.02976 
z
" clip-path="url(#pf89120ca65)" style="fill: #7f7f7f; opacity: 0.5; stroke: #000000; stroke-linejoin: miter"/>
   </g>
   <g id="patch_18">
    <path d="M 102.390819 387.02976 
L 104.30854 387.02976 
L 104.30854 387.02976 
L 102.390819 387.02976 
z
" clip-path="url(#pf89120ca65)" style="fill: #7f7f7f; opacity: 0.5; stroke: #000000; stroke-linejoin: miter"/>
   </g>
   <g id="patch_19">
    <path d="M 104.30854 387.02976 
L 106.226262 387.02976 
L 106.226262 387.02976 
L 104.30854 387.02976 
z
" clip-path="url(#pf89120ca65)" style="fill: #7f7f7f; opacity: 0.5; stroke: #000000; stroke-linejoin: miter"/>
   </g>
   <g id="patch_20">
    <path d="M 106.226262 387.02976 
L 108.143984 387.02976 
L 108.143984 380.356692 
L 106.226262 380.356692 
z
" clip-path="url(#pf89120ca65)" style="fill: #7f7f7f; opacity: 0.5; stroke: #000000; stroke-linejoin: miter"/>
   </g>
   <g id="patch_21">
    <path d="M 108.143984 387.02976 
L 110.061706 387.02976 
L 110.061706 380.356692 
L 108.143984 380.356692 
z
" clip-path="url(#pf89120ca65)" style="fill: #7f7f7f; opacity: 0.5; stroke: #000000; stroke-linejoin: miter"/>
   </g>
   <g id="patch_22">
    <path d="M 110.061706 387.02976 
L 111.979428 387.02976 
L 111.979428 387.02976 
L 110.061706 387.02976 
z
" clip-path="url(#pf89120ca65)" style="fill: #7f7f7f; opacity: 0.5; stroke: #000000; stroke-linejoin: miter"/>
   </g>
   <g id="patch_23">
    <path d="M 111.979428 387.02976 
L 113.89715 387.02976 
L 113.89715 387.02976 
L 111.979428 387.02976 
z
" clip-path="url(#pf89120ca65)" style="fill: #7f7f7f; opacity: 0.5; stroke: #000000; stroke-linejoin: miter"/>
   </g>
   <g id="patch_24">
    <path d="M 113.89715 387.02976 
L 115.814872 387.02976 
L 115.814872 387.02976 
L 113.89715 387.02976 
z
" clip-path="url(#pf89120ca65)" style="fill: #7f7f7f; opacity: 0.5; stroke: #000000; stroke-linejoin: miter"/>
   </g>
   <g id="patch_25">
    <path d="M 115.814872 387.02976 
L 117.732593 387.02976 
L 117.732593 387.02976 
L 115.814872 387.02976 
z
" clip-path="url(#pf89120ca65)" style="fill: #7f7f7f; opacity: 0.5; stroke: #000000; stroke-linejoin: miter"/>
   </g>
   <g id="patch_26">
    <path d="M 117.732593 387.02976 
L 119.650315 387.02976 
L 119.650315 387.02976 
L 117.732593 387.02976 
z
" clip-path="url(#pf89120ca65)" style="fill: #7f7f7f; opacity: 0.5; stroke: #000000; stroke-linejoin: miter"/>
   </g>
   <g id="patch_27">
    <path d="M 119.650315 387.02976 
L 121.568037 387.02976 
L 121.568037 380.356692 
L 119.650315 380.356692 
z
" clip-path="url(#pf89120ca65)" style="fill: #7f7f7f; opacity: 0.5; stroke: #000000; stroke-linejoin: miter"/>
   </g>
   <g id="patch_28">
    <path d="M 121.568037 387.02976 
L 123.485759 387.02976 
L 123.485759 387.02976 
L 121.568037 387.02976 
z
" clip-path="url(#pf89120ca65)" style="fill: #7f7f7f; opacity: 0.5; stroke: #000000; stroke-linejoin: miter"/>
   </g>
   <g id="patch_29">
    <path d="M 123.485759 387.02976 
L 125.403481 387.02976 
L 125.403481 387.02976 
L 123.485759 387.02976 
z
" clip-path="url(#pf89120ca65)" style="fill: #7f7f7f; opacity: 0.5; stroke: #000000; stroke-linejoin: miter"/>
   </g>
   <g id="patch_30">
    <path d="M 125.403481 387.02976 
L 127.321203 387.02976 
L 127.321203 387.02976 
L 125.403481 387.02976 
z
" clip-path="url(#pf89120ca65)" style="fill: #7f7f7f; opacity: 0.5; stroke: #000000; stroke-linejoin: miter"/>
   </g>
   <g id="patch_31">
    <path d="M 127.321203 387.02976 
L 129.238924 387.02976 
L 129.238924 380.356692 
L 127.321203 380.356692 
z
" clip-path="url(#pf89120ca65)" style="fill: #7f7f7f; opacity: 0.5; stroke: #000000; stroke-linejoin: miter"/>
   </g>
   <g id="patch_32">
    <path d="M 129.238924 387.02976 
L 131.156646 387.02976 
L 131.156646 387.02976 
L 129.238924 387.02976 
z
" clip-path="url(#pf89120ca65)" style="fill: #7f7f7f; opacity: 0.5; stroke: #000000; stroke-linejoin: miter"/>
   </g>
   <g id="patch_33">
    <path d="M 131.156646 387.02976 
L 133.074368 387.02976 
L 133.074368 387.02976 
L 131.156646 387.02976 
z
" clip-path="url(#pf89120ca65)" style="fill: #7f7f7f; opacity: 0.5; stroke: #000000; stroke-linejoin: miter"/>
   </g>
   <g id="patch_34">
    <path d="M 133.074368 387.02976 
L 134.99209 387.02976 
L 134.99209 387.02976 
L 133.074368 387.02976 
z
" clip-path="url(#pf89120ca65)" style="fill: #7f7f7f; opacity: 0.5; stroke: #000000; stroke-linejoin: miter"/>
   </g>
   <g id="patch_35">
    <path d="M 134.99209 387.02976 
L 136.909812 387.02976 
L 136.909812 387.02976 
L 134.99209 387.02976 
z
" clip-path="url(#pf89120ca65)" style="fill: #7f7f7f; opacity: 0.5; stroke: #000000; stroke-linejoin: miter"/>
   </g>
   <g id="patch_36">
    <path d="M 136.909812 387.02976 
L 138.827534 387.02976 
L 138.827534 387.02976 
L 136.909812 387.02976 
z
" clip-path="url(#pf89120ca65)" style="fill: #7f7f7f; opacity: 0.5; stroke: #000000; stroke-linejoin: miter"/>
   </g>
   <g id="patch_37">
    <path d="M 138.827534 387.02976 
L 140.745256 387.02976 
L 140.745256 387.02976 
L 138.827534 387.02976 
z
" clip-path="url(#pf89120ca65)" style="fill: #7f7f7f; opacity: 0.5; stroke: #000000; stroke-linejoin: miter"/>
   </g>
   <g id="patch_38">
    <path d="M 140.745256 387.02976 
L 142.662977 387.02976 
L 142.662977 387.02976 
L 140.745256 387.02976 
z
" clip-path="url(#pf89120ca65)" style="fill: #7f7f7f; opacity: 0.5; stroke: #000000; stroke-linejoin: miter"/>
   </g>
   <g id="patch_39">
    <path d="M 142.662977 387.02976 
L 144.580699 387.02976 
L 144.580699 387.02976 
L 142.662977 387.02976 
z
" clip-path="url(#pf89120ca65)" style="fill: #7f7f7f; opacity: 0.5; stroke: #000000; stroke-linejoin: miter"/>
   </g>
   <g id="patch_40">
    <path d="M 144.580699 387.02976 
L 146.498421 387.02976 
L 146.498421 380.356692 
L 144.580699 380.356692 
z
" clip-path="url(#pf89120ca65)" style="fill: #7f7f7f; opacity: 0.5; stroke: #000000; stroke-linejoin: miter"/>
   </g>
   <g id="patch_41">
    <path d="M 146.498421 387.02976 
L 148.416143 387.02976 
L 148.416143 387.02976 
L 146.498421 387.02976 
z
" clip-path="url(#pf89120ca65)" style="fill: #7f7f7f; opacity: 0.5; stroke: #000000; stroke-linejoin: miter"/>
   </g>
   <g id="patch_42">
    <path d="M 148.416143 387.02976 
L 150.333865 387.02976 
L 150.333865 387.02976 
L 148.416143 387.02976 
z
" clip-path="url(#pf89120ca65)" style="fill: #7f7f7f; opacity: 0.5; stroke: #000000; stroke-linejoin: miter"/>
   </g>
   <g id="patch_43">
    <path d="M 150.333865 387.02976 
L 152.251587 387.02976 
L 152.251587 387.02976 
L 150.333865 387.02976 
z
" clip-path="url(#pf89120ca65)" style="fill: #7f7f7f; opacity: 0.5; stroke: #000000; stroke-linejoin: miter"/>
   </g>
   <g id="patch_44">
    <path d="M 152.251587 387.02976 
L 154.169309 387.02976 
L 154.169309 380.356692 
L 152.251587 380.356692 
z
" clip-path="url(#pf89120ca65)" style="fill: #7f7f7f; opacity: 0.5; stroke: #000000; stroke-linejoin: miter"/>
   </g>
   <g id="patch_45">
    <path d="M 154.169309 387.02976 
L 156.08703 387.02976 
L 156.08703 387.02976 
L 154.169309 387.02976 
z
" clip-path="url(#pf89120ca65)" style="fill: #7f7f7f; opacity: 0.5; stroke: #000000; stroke-linejoin: miter"/>
   </g>
   <g id="patch_46">
    <path d="M 156.08703 387.02976 
L 158.004752 387.02976 
L 158.004752 387.02976 
L 156.08703 387.02976 
z
" clip-path="url(#pf89120ca65)" style="fill: #7f7f7f; opacity: 0.5; stroke: #000000; stroke-linejoin: miter"/>
   </g>
   <g id="patch_47">
    <path d="M 158.004752 387.02976 
L 159.922474 387.02976 
L 159.922474 387.02976 
L 158.004752 387.02976 
z
" clip-path="url(#pf89120ca65)" style="fill: #7f7f7f; opacity: 0.5; stroke: #000000; stroke-linejoin: miter"/>
   </g>
   <g id="patch_48">
    <path d="M 159.922474 387.02976 
L 161.840196 387.02976 
L 161.840196 387.02976 
L 159.922474 387.02976 
z
" clip-path="url(#pf89120ca65)" style="fill: #7f7f7f; opacity: 0.5; stroke: #000000; stroke-linejoin: miter"/>
   </g>
   <g id="patch_49">
    <path d="M 161.840196 387.02976 
L 163.757918 387.02976 
L 163.757918 380.356692 
L 161.840196 380.356692 
z
" clip-path="url(#pf89120ca65)" style="fill: #7f7f7f; opacity: 0.5; stroke: #000000; stroke-linejoin: miter"/>
   </g>
   <g id="patch_50">
    <path d="M 163.757918 387.02976 
L 165.67564 387.02976 
L 165.67564 387.02976 
L 163.757918 387.02976 
z
" clip-path="url(#pf89120ca65)" style="fill: #7f7f7f; opacity: 0.5; stroke: #000000; stroke-linejoin: miter"/>
   </g>
   <g id="patch_51">
    <path d="M 165.67564 387.02976 
L 167.593361 387.02976 
L 167.593361 387.02976 
L 165.67564 387.02976 
z
" clip-path="url(#pf89120ca65)" style="fill: #7f7f7f; opacity: 0.5; stroke: #000000; stroke-linejoin: miter"/>
   </g>
   <g id="patch_52">
    <path d="M 167.593361 387.02976 
L 169.511083 387.02976 
L 169.511083 387.02976 
L 167.593361 387.02976 
z
" clip-path="url(#pf89120ca65)" style="fill: #7f7f7f; opacity: 0.5; stroke: #000000; stroke-linejoin: miter"/>
   </g>
   <g id="patch_53">
    <path d="M 169.511083 387.02976 
L 171.428805 387.02976 
L 171.428805 380.356692 
L 169.511083 380.356692 
z
" clip-path="url(#pf89120ca65)" style="fill: #7f7f7f; opacity: 0.5; stroke: #000000; stroke-linejoin: miter"/>
   </g>
   <g id="patch_54">
    <path d="M 171.428805 387.02976 
L 173.346527 387.02976 
L 173.346527 380.356692 
L 171.428805 380.356692 
z
" clip-path="url(#pf89120ca65)" style="fill: #7f7f7f; opacity: 0.5; stroke: #000000; stroke-linejoin: miter"/>
   </g>
   <g id="patch_55">
    <path d="M 173.346527 387.02976 
L 175.264249 387.02976 
L 175.264249 387.02976 
L 173.346527 387.02976 
z
" clip-path="url(#pf89120ca65)" style="fill: #7f7f7f; opacity: 0.5; stroke: #000000; stroke-linejoin: miter"/>
   </g>
   <g id="patch_56">
    <path d="M 175.264249 387.02976 
L 177.181971 387.02976 
L 177.181971 387.02976 
L 175.264249 387.02976 
z
" clip-path="url(#pf89120ca65)" style="fill: #7f7f7f; opacity: 0.5; stroke: #000000; stroke-linejoin: miter"/>
   </g>
   <g id="patch_57">
    <path d="M 177.181971 387.02976 
L 179.099693 387.02976 
L 179.099693 387.02976 
L 177.181971 387.02976 
z
" clip-path="url(#pf89120ca65)" style="fill: #7f7f7f; opacity: 0.5; stroke: #000000; stroke-linejoin: miter"/>
   </g>
   <g id="patch_58">
    <path d="M 179.099693 387.02976 
L 181.017414 387.02976 
L 181.017414 380.356692 
L 179.099693 380.356692 
z
" clip-path="url(#pf89120ca65)" style="fill: #7f7f7f; opacity: 0.5; stroke: #000000; stroke-linejoin: miter"/>
   </g>
   <g id="patch_59">
    <path d="M 181.017414 387.02976 
L 182.935136 387.02976 
L 182.935136 373.683624 
L 181.017414 373.683624 
z
" clip-path="url(#pf89120ca65)" style="fill: #7f7f7f; opacity: 0.5; stroke: #000000; stroke-linejoin: miter"/>
   </g>
   <g id="patch_60">
    <path d="M 182.935136 387.02976 
L 184.852858 387.02976 
L 184.852858 387.02976 
L 182.935136 387.02976 
z
" clip-path="url(#pf89120ca65)" style="fill: #7f7f7f; opacity: 0.5; stroke: #000000; stroke-linejoin: miter"/>
   </g>
   <g id="patch_61">
    <path d="M 184.852858 387.02976 
L 186.77058 387.02976 
L 186.77058 380.356692 
L 184.852858 380.356692 
z
" clip-path="url(#pf89120ca65)" style="fill: #7f7f7f; opacity: 0.5; stroke: #000000; stroke-linejoin: miter"/>
   </g>
   <g id="patch_62">
    <path d="M 186.77058 387.02976 
L 188.688302 387.02976 
L 188.688302 380.356692 
L 186.77058 380.356692 
z
" clip-path="url(#pf89120ca65)" style="fill: #7f7f7f; opacity: 0.5; stroke: #000000; stroke-linejoin: miter"/>
   </g>
   <g id="patch_63">
    <path d="M 188.688302 387.02976 
L 190.606024 387.02976 
L 190.606024 380.356692 
L 188.688302 380.356692 
z
" clip-path="url(#pf89120ca65)" style="fill: #7f7f7f; opacity: 0.5; stroke: #000000; stroke-linejoin: miter"/>
   </g>
   <g id="patch_64">
    <path d="M 190.606024 387.02976 
L 192.523745 387.02976 
L 192.523745 380.356692 
L 190.606024 380.356692 
z
" clip-path="url(#pf89120ca65)" style="fill: #7f7f7f; opacity: 0.5; stroke: #000000; stroke-linejoin: miter"/>
   </g>
   <g id="patch_65">
    <path d="M 192.523745 387.02976 
L 194.441467 387.02976 
L 194.441467 387.02976 
L 192.523745 387.02976 
z
" clip-path="url(#pf89120ca65)" style="fill: #7f7f7f; opacity: 0.5; stroke: #000000; stroke-linejoin: miter"/>
   </g>
   <g id="patch_66">
    <path d="M 194.441467 387.02976 
L 196.359189 387.02976 
L 196.359189 373.683624 
L 194.441467 373.683624 
z
" clip-path="url(#pf89120ca65)" style="fill: #7f7f7f; opacity: 0.5; stroke: #000000; stroke-linejoin: miter"/>
   </g>
   <g id="patch_67">
    <path d="M 196.359189 387.02976 
L 198.276911 387.02976 
L 198.276911 380.356692 
L 196.359189 380.356692 
z
" clip-path="url(#pf89120ca65)" style="fill: #7f7f7f; opacity: 0.5; stroke: #000000; stroke-linejoin: miter"/>
   </g>
   <g id="patch_68">
    <path d="M 198.276911 387.02976 
L 200.194633 387.02976 
L 200.194633 367.010556 
L 198.276911 367.010556 
z
" clip-path="url(#pf89120ca65)" style="fill: #7f7f7f; opacity: 0.5; stroke: #000000; stroke-linejoin: miter"/>
   </g>
   <g id="patch_69">
    <path d="M 200.194633 387.02976 
L 202.112355 387.02976 
L 202.112355 380.356692 
L 200.194633 380.356692 
z
" clip-path="url(#pf89120ca65)" style="fill: #7f7f7f; opacity: 0.5; stroke: #000000; stroke-linejoin: miter"/>
   </g>
   <g id="patch_70">
    <path d="M 202.112355 387.02976 
L 204.030077 387.02976 
L 204.030077 387.02976 
L 202.112355 387.02976 
z
" clip-path="url(#pf89120ca65)" style="fill: #7f7f7f; opacity: 0.5; stroke: #000000; stroke-linejoin: miter"/>
   </g>
   <g id="patch_71">
    <path d="M 204.030077 387.02976 
L 205.947798 387.02976 
L 205.947798 367.010556 
L 204.030077 367.010556 
z
" clip-path="url(#pf89120ca65)" style="fill: #7f7f7f; opacity: 0.5; stroke: #000000; stroke-linejoin: miter"/>
   </g>
   <g id="patch_72">
    <path d="M 205.947798 387.02976 
L 207.86552 387.02976 
L 207.86552 367.010556 
L 205.947798 367.010556 
z
" clip-path="url(#pf89120ca65)" style="fill: #7f7f7f; opacity: 0.5; stroke: #000000; stroke-linejoin: miter"/>
   </g>
   <g id="patch_73">
    <path d="M 207.86552 387.02976 
L 209.783242 387.02976 
L 209.783242 380.356692 
L 207.86552 380.356692 
z
" clip-path="url(#pf89120ca65)" style="fill: #7f7f7f; opacity: 0.5; stroke: #000000; stroke-linejoin: miter"/>
   </g>
   <g id="patch_74">
    <path d="M 209.783242 387.02976 
L 211.700964 387.02976 
L 211.700964 367.010556 
L 209.783242 367.010556 
z
" clip-path="url(#pf89120ca65)" style="fill: #7f7f7f; opacity: 0.5; stroke: #000000; stroke-linejoin: miter"/>
   </g>
   <g id="patch_75">
    <path d="M 211.700964 387.02976 
L 213.618686 387.02976 
L 213.618686 360.337487 
L 211.700964 360.337487 
z
" clip-path="url(#pf89120ca65)" style="fill: #7f7f7f; opacity: 0.5; stroke: #000000; stroke-linejoin: miter"/>
   </g>
   <g id="patch_76">
    <path d="M 213.618686 387.02976 
L 215.536408 387.02976 
L 215.536408 380.356692 
L 213.618686 380.356692 
z
" clip-path="url(#pf89120ca65)" style="fill: #7f7f7f; opacity: 0.5; stroke: #000000; stroke-linejoin: miter"/>
   </g>
   <g id="patch_77">
    <path d="M 215.536408 387.02976 
L 217.454129 387.02976 
L 217.454129 333.645215 
L 215.536408 333.645215 
z
" clip-path="url(#pf89120ca65)" style="fill: #7f7f7f; opacity: 0.5; stroke: #000000; stroke-linejoin: miter"/>
   </g>
   <g id="patch_78">
    <path d="M 217.454129 387.02976 
L 219.371851 387.02976 
L 219.371851 367.010556 
L 217.454129 367.010556 
z
" clip-path="url(#pf89120ca65)" style="fill: #7f7f7f; opacity: 0.5; stroke: #000000; stroke-linejoin: miter"/>
   </g>
   <g id="patch_79">
    <path d="M 219.371851 387.02976 
L 221.289573 387.02976 
L 221.289573 380.356692 
L 219.371851 380.356692 
z
" clip-path="url(#pf89120ca65)" style="fill: #7f7f7f; opacity: 0.5; stroke: #000000; stroke-linejoin: miter"/>
   </g>
   <g id="patch_80">
    <path d="M 221.289573 387.02976 
L 223.207295 387.02976 
L 223.207295 340.318283 
L 221.289573 340.318283 
z
" clip-path="url(#pf89120ca65)" style="fill: #7f7f7f; opacity: 0.5; stroke: #000000; stroke-linejoin: miter"/>
   </g>
   <g id="patch_81">
    <path d="M 223.207295 387.02976 
L 225.125017 387.02976 
L 225.125017 340.318283 
L 223.207295 340.318283 
z
" clip-path="url(#pf89120ca65)" style="fill: #7f7f7f; opacity: 0.5; stroke: #000000; stroke-linejoin: miter"/>
   </g>
   <g id="patch_82">
    <path d="M 225.125017 387.02976 
L 227.042739 387.02976 
L 227.042739 346.991351 
L 225.125017 346.991351 
z
" clip-path="url(#pf89120ca65)" style="fill: #7f7f7f; opacity: 0.5; stroke: #000000; stroke-linejoin: miter"/>
   </g>
   <g id="patch_83">
    <path d="M 227.042739 387.02976 
L 228.960461 387.02976 
L 228.960461 320.299079 
L 227.042739 320.299079 
z
" clip-path="url(#pf89120ca65)" style="fill: #7f7f7f; opacity: 0.5; stroke: #000000; stroke-linejoin: miter"/>
   </g>
   <g id="patch_84">
    <path d="M 228.960461 387.02976 
L 230.878182 387.02976 
L 230.878182 320.299079 
L 228.960461 320.299079 
z
" clip-path="url(#pf89120ca65)" style="fill: #7f7f7f; opacity: 0.5; stroke: #000000; stroke-linejoin: miter"/>
   </g>
   <g id="patch_85">
    <path d="M 230.878182 387.02976 
L 232.795904 387.02976 
L 232.795904 293.606806 
L 230.878182 293.606806 
z
" clip-path="url(#pf89120ca65)" style="fill: #7f7f7f; opacity: 0.5; stroke: #000000; stroke-linejoin: miter"/>
   </g>
   <g id="patch_86">
    <path d="M 232.795904 387.02976 
L 234.713626 387.02976 
L 234.713626 246.895329 
L 232.795904 246.895329 
z
" clip-path="url(#pf89120ca65)" style="fill: #7f7f7f; opacity: 0.5; stroke: #000000; stroke-linejoin: miter"/>
   </g>
   <g id="patch_87">
    <path d="M 234.713626 387.02976 
L 236.631348 387.02976 
L 236.631348 266.914534 
L 234.713626 266.914534 
z
" clip-path="url(#pf89120ca65)" style="fill: #7f7f7f; opacity: 0.5; stroke: #000000; stroke-linejoin: miter"/>
   </g>
   <g id="patch_88">
    <path d="M 236.631348 387.02976 
L 238.54907 387.02976 
L 238.54907 226.876125 
L 236.631348 226.876125 
z
" clip-path="url(#pf89120ca65)" style="fill: #7f7f7f; opacity: 0.5; stroke: #000000; stroke-linejoin: miter"/>
   </g>
   <g id="patch_89">
    <path d="M 238.54907 387.02976 
L 240.466792 387.02976 
L 240.466792 193.510784 
L 238.54907 193.510784 
z
" clip-path="url(#pf89120ca65)" style="fill: #7f7f7f; opacity: 0.5; stroke: #000000; stroke-linejoin: miter"/>
   </g>
   <g id="patch_90">
    <path d="M 240.466792 387.02976 
L 242.384513 387.02976 
L 242.384513 206.85692 
L 240.466792 206.85692 
z
" clip-path="url(#pf89120ca65)" style="fill: #7f7f7f; opacity: 0.5; stroke: #000000; stroke-linejoin: miter"/>
   </g>
   <g id="patch_91">
    <path d="M 242.384513 387.02976 
L 244.302235 387.02976 
L 244.302235 166.818512 
L 242.384513 166.818512 
z
" clip-path="url(#pf89120ca65)" style="fill: #7f7f7f; opacity: 0.5; stroke: #000000; stroke-linejoin: miter"/>
   </g>
   <g id="patch_92">
    <path d="M 244.302235 387.02976 
L 246.219957 387.02976 
L 246.219957 126.780103 
L 244.302235 126.780103 
z
" clip-path="url(#pf89120ca65)" style="fill: #7f7f7f; opacity: 0.5; stroke: #000000; stroke-linejoin: miter"/>
   </g>
   <g id="patch_93">
    <path d="M 246.219957 387.02976 
L 248.137679 387.02976 
L 248.137679 40.030217 
L 246.219957 40.030217 
z
" clip-path="url(#pf89120ca65)" style="fill: #7f7f7f; opacity: 0.5; stroke: #000000; stroke-linejoin: miter"/>
   </g>
   <g id="patch_94">
    <path d="M 248.137679 387.02976 
L 250.055401 387.02976 
L 250.055401 93.414762 
L 248.137679 93.414762 
z
" clip-path="url(#pf89120ca65)" style="fill: #7f7f7f; opacity: 0.5; stroke: #000000; stroke-linejoin: miter"/>
   </g>
   <g id="patch_95">
    <path d="M 250.055401 387.02976 
L 251.973123 387.02976 
L 251.973123 113.433967 
L 250.055401 113.433967 
z
" clip-path="url(#pf89120ca65)" style="fill: #7f7f7f; opacity: 0.5; stroke: #000000; stroke-linejoin: miter"/>
   </g>
   <g id="patch_96">
    <path d="M 251.973123 387.02976 
L 253.890845 387.02976 
L 253.890845 106.760898 
L 251.973123 106.760898 
z
" clip-path="url(#pf89120ca65)" style="fill: #7f7f7f; opacity: 0.5; stroke: #000000; stroke-linejoin: miter"/>
   </g>
   <g id="patch_97">
    <path d="M 253.890845 387.02976 
L 255.808566 387.02976 
L 255.808566 146.799307 
L 253.890845 146.799307 
z
" clip-path="url(#pf89120ca65)" style="fill: #7f7f7f; opacity: 0.5; stroke: #000000; stroke-linejoin: miter"/>
   </g>
   <g id="patch_98">
    <path d="M 255.808566 387.02976 
L 257.726288 387.02976 
L 257.726288 160.145444 
L 255.808566 160.145444 
z
" clip-path="url(#pf89120ca65)" style="fill: #7f7f7f; opacity: 0.5; stroke: #000000; stroke-linejoin: miter"/>
   </g>
   <g id="patch_99">
    <path d="M 257.726288 387.02976 
L 259.64401 387.02976 
L 259.64401 93.414762 
L 257.726288 93.414762 
z
" clip-path="url(#pf89120ca65)" style="fill: #7f7f7f; opacity: 0.5; stroke: #000000; stroke-linejoin: miter"/>
   </g>
   <g id="patch_100">
    <path d="M 259.64401 387.02976 
L 261.561732 387.02976 
L 261.561732 173.49158 
L 259.64401 173.49158 
z
" clip-path="url(#pf89120ca65)" style="fill: #7f7f7f; opacity: 0.5; stroke: #000000; stroke-linejoin: miter"/>
   </g>
   <g id="patch_101">
    <path d="M 261.561732 387.02976 
L 263.479454 387.02976 
L 263.479454 193.510784 
L 261.561732 193.510784 
z
" clip-path="url(#pf89120ca65)" style="fill: #7f7f7f; opacity: 0.5; stroke: #000000; stroke-linejoin: miter"/>
   </g>
   <g id="patch_102">
    <path d="M 263.479454 387.02976 
L 265.397176 387.02976 
L 265.397176 260.241465 
L 263.479454 260.241465 
z
" clip-path="url(#pf89120ca65)" style="fill: #7f7f7f; opacity: 0.5; stroke: #000000; stroke-linejoin: miter"/>
   </g>
   <g id="patch_103">
    <path d="M 265.397176 387.02976 
L 267.314898 387.02976 
L 267.314898 266.914534 
L 265.397176 266.914534 
z
" clip-path="url(#pf89120ca65)" style="fill: #7f7f7f; opacity: 0.5; stroke: #000000; stroke-linejoin: miter"/>
   </g>
   <g id="patch_104">
    <path d="M 267.314898 387.02976 
L 269.232619 387.02976 
L 269.232619 306.952942 
L 267.314898 306.952942 
z
" clip-path="url(#pf89120ca65)" style="fill: #7f7f7f; opacity: 0.5; stroke: #000000; stroke-linejoin: miter"/>
   </g>
   <g id="patch_105">
    <path d="M 269.232619 387.02976 
L 271.150341 387.02976 
L 271.150341 246.895329 
L 269.232619 246.895329 
z
" clip-path="url(#pf89120ca65)" style="fill: #7f7f7f; opacity: 0.5; stroke: #000000; stroke-linejoin: miter"/>
   </g>
   <g id="patch_106">
    <path d="M 271.150341 387.02976 
L 273.068063 387.02976 
L 273.068063 266.914534 
L 271.150341 266.914534 
z
" clip-path="url(#pf89120ca65)" style="fill: #7f7f7f; opacity: 0.5; stroke: #000000; stroke-linejoin: miter"/>
   </g>
   <g id="patch_107">
    <path d="M 273.068063 387.02976 
L 274.985785 387.02976 
L 274.985785 293.606806 
L 273.068063 293.606806 
z
" clip-path="url(#pf89120ca65)" style="fill: #7f7f7f; opacity: 0.5; stroke: #000000; stroke-linejoin: miter"/>
   </g>
   <g id="patch_108">
    <path d="M 274.985785 387.02976 
L 276.903507 387.02976 
L 276.903507 293.606806 
L 274.985785 293.606806 
z
" clip-path="url(#pf89120ca65)" style="fill: #7f7f7f; opacity: 0.5; stroke: #000000; stroke-linejoin: miter"/>
   </g>
   <g id="patch_109">
    <path d="M 276.903507 387.02976 
L 278.821229 387.02976 
L 278.821229 320.299079 
L 276.903507 320.299079 
z
" clip-path="url(#pf89120ca65)" style="fill: #7f7f7f; opacity: 0.5; stroke: #000000; stroke-linejoin: miter"/>
   </g>
   <g id="patch_110">
    <path d="M 278.821229 387.02976 
L 280.73895 387.02976 
L 280.73895 300.279874 
L 278.821229 300.279874 
z
" clip-path="url(#pf89120ca65)" style="fill: #7f7f7f; opacity: 0.5; stroke: #000000; stroke-linejoin: miter"/>
   </g>
   <g id="patch_111">
    <path d="M 280.73895 387.02976 
L 282.656672 387.02976 
L 282.656672 306.952942 
L 280.73895 306.952942 
z
" clip-path="url(#pf89120ca65)" style="fill: #7f7f7f; opacity: 0.5; stroke: #000000; stroke-linejoin: miter"/>
   </g>
   <g id="patch_112">
    <path d="M 282.656672 387.02976 
L 284.574394 387.02976 
L 284.574394 286.933738 
L 282.656672 286.933738 
z
" clip-path="url(#pf89120ca65)" style="fill: #7f7f7f; opacity: 0.5; stroke: #000000; stroke-linejoin: miter"/>
   </g>
   <g id="patch_113">
    <path d="M 284.574394 387.02976 
L 286.492116 387.02976 
L 286.492116 273.587602 
L 284.574394 273.587602 
z
" clip-path="url(#pf89120ca65)" style="fill: #7f7f7f; opacity: 0.5; stroke: #000000; stroke-linejoin: miter"/>
   </g>
   <g id="patch_114">
    <path d="M 286.492116 387.02976 
L 288.409838 387.02976 
L 288.409838 333.645215 
L 286.492116 333.645215 
z
" clip-path="url(#pf89120ca65)" style="fill: #7f7f7f; opacity: 0.5; stroke: #000000; stroke-linejoin: miter"/>
   </g>
   <g id="patch_115">
    <path d="M 288.409838 387.02976 
L 290.32756 387.02976 
L 290.32756 306.952942 
L 288.409838 306.952942 
z
" clip-path="url(#pf89120ca65)" style="fill: #7f7f7f; opacity: 0.5; stroke: #000000; stroke-linejoin: miter"/>
   </g>
   <g id="patch_116">
    <path d="M 290.32756 387.02976 
L 292.245282 387.02976 
L 292.245282 353.664419 
L 290.32756 353.664419 
z
" clip-path="url(#pf89120ca65)" style="fill: #7f7f7f; opacity: 0.5; stroke: #000000; stroke-linejoin: miter"/>
   </g>
   <g id="patch_117">
    <path d="M 292.245282 387.02976 
L 294.163003 387.02976 
L 294.163003 306.952942 
L 292.245282 306.952942 
z
" clip-path="url(#pf89120ca65)" style="fill: #7f7f7f; opacity: 0.5; stroke: #000000; stroke-linejoin: miter"/>
   </g>
   <g id="patch_118">
    <path d="M 294.163003 387.02976 
L 296.080725 387.02976 
L 296.080725 346.991351 
L 294.163003 346.991351 
z
" clip-path="url(#pf89120ca65)" style="fill: #7f7f7f; opacity: 0.5; stroke: #000000; stroke-linejoin: miter"/>
   </g>
   <g id="patch_119">
    <path d="M 296.080725 387.02976 
L 297.998447 387.02976 
L 297.998447 313.626011 
L 296.080725 313.626011 
z
" clip-path="url(#pf89120ca65)" style="fill: #7f7f7f; opacity: 0.5; stroke: #000000; stroke-linejoin: miter"/>
   </g>
   <g id="patch_120">
    <path d="M 297.998447 387.02976 
L 299.916169 387.02976 
L 299.916169 326.972147 
L 297.998447 326.972147 
z
" clip-path="url(#pf89120ca65)" style="fill: #7f7f7f; opacity: 0.5; stroke: #000000; stroke-linejoin: miter"/>
   </g>
   <g id="patch_121">
    <path d="M 299.916169 387.02976 
L 301.833891 387.02976 
L 301.833891 367.010556 
L 299.916169 367.010556 
z
" clip-path="url(#pf89120ca65)" style="fill: #7f7f7f; opacity: 0.5; stroke: #000000; stroke-linejoin: miter"/>
   </g>
   <g id="patch_122">
    <path d="M 301.833891 387.02976 
L 303.751613 387.02976 
L 303.751613 340.318283 
L 301.833891 340.318283 
z
" clip-path="url(#pf89120ca65)" style="fill: #7f7f7f; opacity: 0.5; stroke: #000000; stroke-linejoin: miter"/>
   </g>
   <g id="patch_123">
    <path d="M 303.751613 387.02976 
L 305.669334 387.02976 
L 305.669334 280.26067 
L 303.751613 280.26067 
z
" clip-path="url(#pf89120ca65)" style="fill: #7f7f7f; opacity: 0.5; stroke: #000000; stroke-linejoin: miter"/>
   </g>
   <g id="patch_124">
    <path d="M 305.669334 387.02976 
L 307.587056 387.02976 
L 307.587056 300.279874 
L 305.669334 300.279874 
z
" clip-path="url(#pf89120ca65)" style="fill: #7f7f7f; opacity: 0.5; stroke: #000000; stroke-linejoin: miter"/>
   </g>
   <g id="patch_125">
    <path d="M 307.587056 387.02976 
L 309.504778 387.02976 
L 309.504778 367.010556 
L 307.587056 367.010556 
z
" clip-path="url(#pf89120ca65)" style="fill: #7f7f7f; opacity: 0.5; stroke: #000000; stroke-linejoin: miter"/>
   </g>
   <g id="patch_126">
    <path d="M 309.504778 387.02976 
L 311.4225 387.02976 
L 311.4225 300.279874 
L 309.504778 300.279874 
z
" clip-path="url(#pf89120ca65)" style="fill: #7f7f7f; opacity: 0.5; stroke: #000000; stroke-linejoin: miter"/>
   </g>
   <g id="patch_127">
    <path d="M 311.4225 387.02976 
L 313.340222 387.02976 
L 313.340222 360.337487 
L 311.4225 360.337487 
z
" clip-path="url(#pf89120ca65)" style="fill: #7f7f7f; opacity: 0.5; stroke: #000000; stroke-linejoin: miter"/>
   </g>
   <g id="patch_128">
    <path d="M 313.340222 387.02976 
L 315.257944 387.02976 
L 315.257944 326.972147 
L 313.340222 326.972147 
z
" clip-path="url(#pf89120ca65)" style="fill: #7f7f7f; opacity: 0.5; stroke: #000000; stroke-linejoin: miter"/>
   </g>
   <g id="patch_129">
    <path d="M 315.257944 387.02976 
L 317.175666 387.02976 
L 317.175666 360.337487 
L 315.257944 360.337487 
z
" clip-path="url(#pf89120ca65)" style="fill: #7f7f7f; opacity: 0.5; stroke: #000000; stroke-linejoin: miter"/>
   </g>
   <g id="patch_130">
    <path d="M 317.175666 387.02976 
L 319.093387 387.02976 
L 319.093387 367.010556 
L 317.175666 367.010556 
z
" clip-path="url(#pf89120ca65)" style="fill: #7f7f7f; opacity: 0.5; stroke: #000000; stroke-linejoin: miter"/>
   </g>
   <g id="patch_131">
    <path d="M 319.093387 387.02976 
L 321.011109 387.02976 
L 321.011109 380.356692 
L 319.093387 380.356692 
z
" clip-path="url(#pf89120ca65)" style="fill: #7f7f7f; opacity: 0.5; stroke: #000000; stroke-linejoin: miter"/>
   </g>
   <g id="patch_132">
    <path d="M 321.011109 387.02976 
L 322.928831 387.02976 
L 322.928831 340.318283 
L 321.011109 340.318283 
z
" clip-path="url(#pf89120ca65)" style="fill: #7f7f7f; opacity: 0.5; stroke: #000000; stroke-linejoin: miter"/>
   </g>
   <g id="patch_133">
    <path d="M 322.928831 387.02976 
L 324.846553 387.02976 
L 324.846553 367.010556 
L 322.928831 367.010556 
z
" clip-path="url(#pf89120ca65)" style="fill: #7f7f7f; opacity: 0.5; stroke: #000000; stroke-linejoin: miter"/>
   </g>
   <g id="patch_134">
    <path d="M 324.846553 387.02976 
L 326.764275 387.02976 
L 326.764275 373.683624 
L 324.846553 373.683624 
z
" clip-path="url(#pf89120ca65)" style="fill: #7f7f7f; opacity: 0.5; stroke: #000000; stroke-linejoin: miter"/>
   </g>
   <g id="patch_135">
    <path d="M 326.764275 387.02976 
L 328.681997 387.02976 
L 328.681997 360.337487 
L 326.764275 360.337487 
z
" clip-path="url(#pf89120ca65)" style="fill: #7f7f7f; opacity: 0.5; stroke: #000000; stroke-linejoin: miter"/>
   </g>
   <g id="patch_136">
    <path d="M 328.681997 387.02976 
L 330.599718 387.02976 
L 330.599718 353.664419 
L 328.681997 353.664419 
z
" clip-path="url(#pf89120ca65)" style="fill: #7f7f7f; opacity: 0.5; stroke: #000000; stroke-linejoin: miter"/>
   </g>
   <g id="patch_137">
    <path d="M 330.599718 387.02976 
L 332.51744 387.02976 
L 332.51744 387.02976 
L 330.599718 387.02976 
z
" clip-path="url(#pf89120ca65)" style="fill: #7f7f7f; opacity: 0.5; stroke: #000000; stroke-linejoin: miter"/>
   </g>
   <g id="patch_138">
    <path d="M 332.51744 387.02976 
L 334.435162 387.02976 
L 334.435162 380.356692 
L 332.51744 380.356692 
z
" clip-path="url(#pf89120ca65)" style="fill: #7f7f7f; opacity: 0.5; stroke: #000000; stroke-linejoin: miter"/>
   </g>
   <g id="patch_139">
    <path d="M 334.435162 387.02976 
L 336.352884 387.02976 
L 336.352884 373.683624 
L 334.435162 373.683624 
z
" clip-path="url(#pf89120ca65)" style="fill: #7f7f7f; opacity: 0.5; stroke: #000000; stroke-linejoin: miter"/>
   </g>
   <g id="patch_140">
    <path d="M 336.352884 387.02976 
L 338.270606 387.02976 
L 338.270606 360.337487 
L 336.352884 360.337487 
z
" clip-path="url(#pf89120ca65)" style="fill: #7f7f7f; opacity: 0.5; stroke: #000000; stroke-linejoin: miter"/>
   </g>
   <g id="patch_141">
    <path d="M 338.270606 387.02976 
L 340.188328 387.02976 
L 340.188328 360.337487 
L 338.270606 360.337487 
z
" clip-path="url(#pf89120ca65)" style="fill: #7f7f7f; opacity: 0.5; stroke: #000000; stroke-linejoin: miter"/>
   </g>
   <g id="patch_142">
    <path d="M 340.188328 387.02976 
L 342.10605 387.02976 
L 342.10605 360.337487 
L 340.188328 360.337487 
z
" clip-path="url(#pf89120ca65)" style="fill: #7f7f7f; opacity: 0.5; stroke: #000000; stroke-linejoin: miter"/>
   </g>
   <g id="patch_143">
    <path d="M 342.10605 387.02976 
L 344.023771 387.02976 
L 344.023771 380.356692 
L 342.10605 380.356692 
z
" clip-path="url(#pf89120ca65)" style="fill: #7f7f7f; opacity: 0.5; stroke: #000000; stroke-linejoin: miter"/>
   </g>
   <g id="patch_144">
    <path d="M 344.023771 387.02976 
L 345.941493 387.02976 
L 345.941493 380.356692 
L 344.023771 380.356692 
z
" clip-path="url(#pf89120ca65)" style="fill: #7f7f7f; opacity: 0.5; stroke: #000000; stroke-linejoin: miter"/>
   </g>
   <g id="patch_145">
    <path d="M 345.941493 387.02976 
L 347.859215 387.02976 
L 347.859215 380.356692 
L 345.941493 380.356692 
z
" clip-path="url(#pf89120ca65)" style="fill: #7f7f7f; opacity: 0.5; stroke: #000000; stroke-linejoin: miter"/>
   </g>
   <g id="patch_146">
    <path d="M 347.859215 387.02976 
L 349.776937 387.02976 
L 349.776937 380.356692 
L 347.859215 380.356692 
z
" clip-path="url(#pf89120ca65)" style="fill: #7f7f7f; opacity: 0.5; stroke: #000000; stroke-linejoin: miter"/>
   </g>
   <g id="patch_147">
    <path d="M 349.776937 387.02976 
L 351.694659 387.02976 
L 351.694659 387.02976 
L 349.776937 387.02976 
z
" clip-path="url(#pf89120ca65)" style="fill: #7f7f7f; opacity: 0.5; stroke: #000000; stroke-linejoin: miter"/>
   </g>
   <g id="patch_148">
    <path d="M 351.694659 387.02976 
L 353.612381 387.02976 
L 353.612381 387.02976 
L 351.694659 387.02976 
z
" clip-path="url(#pf89120ca65)" style="fill: #7f7f7f; opacity: 0.5; stroke: #000000; stroke-linejoin: miter"/>
   </g>
   <g id="patch_149">
    <path d="M 353.612381 387.02976 
L 355.530102 387.02976 
L 355.530102 380.356692 
L 353.612381 380.356692 
z
" clip-path="url(#pf89120ca65)" style="fill: #7f7f7f; opacity: 0.5; stroke: #000000; stroke-linejoin: miter"/>
   </g>
   <g id="patch_150">
    <path d="M 355.530102 387.02976 
L 357.447824 387.02976 
L 357.447824 387.02976 
L 355.530102 387.02976 
z
" clip-path="url(#pf89120ca65)" style="fill: #7f7f7f; opacity: 0.5; stroke: #000000; stroke-linejoin: miter"/>
   </g>
   <g id="patch_151">
    <path d="M 357.447824 387.02976 
L 359.365546 387.02976 
L 359.365546 387.02976 
L 357.447824 387.02976 
z
" clip-path="url(#pf89120ca65)" style="fill: #7f7f7f; opacity: 0.5; stroke: #000000; stroke-linejoin: miter"/>
   </g>
   <g id="patch_152">
    <path d="M 359.365546 387.02976 
L 361.283268 387.02976 
L 361.283268 387.02976 
L 359.365546 387.02976 
z
" clip-path="url(#pf89120ca65)" style="fill: #7f7f7f; opacity: 0.5; stroke: #000000; stroke-linejoin: miter"/>
   </g>
   <g id="patch_153">
    <path d="M 361.283268 387.02976 
L 363.20099 387.02976 
L 363.20099 373.683624 
L 361.283268 373.683624 
z
" clip-path="url(#pf89120ca65)" style="fill: #7f7f7f; opacity: 0.5; stroke: #000000; stroke-linejoin: miter"/>
   </g>
   <g id="patch_154">
    <path d="M 363.20099 387.02976 
L 365.118712 387.02976 
L 365.118712 387.02976 
L 363.20099 387.02976 
z
" clip-path="url(#pf89120ca65)" style="fill: #7f7f7f; opacity: 0.5; stroke: #000000; stroke-linejoin: miter"/>
   </g>
   <g id="patch_155">
    <path d="M 365.118712 387.02976 
L 367.036434 387.02976 
L 367.036434 387.02976 
L 365.118712 387.02976 
z
" clip-path="url(#pf89120ca65)" style="fill: #7f7f7f; opacity: 0.5; stroke: #000000; stroke-linejoin: miter"/>
   </g>
   <g id="patch_156">
    <path d="M 367.036434 387.02976 
L 368.954155 387.02976 
L 368.954155 387.02976 
L 367.036434 387.02976 
z
" clip-path="url(#pf89120ca65)" style="fill: #7f7f7f; opacity: 0.5; stroke: #000000; stroke-linejoin: miter"/>
   </g>
   <g id="patch_157">
    <path d="M 368.954155 387.02976 
L 370.871877 387.02976 
L 370.871877 387.02976 
L 368.954155 387.02976 
z
" clip-path="url(#pf89120ca65)" style="fill: #7f7f7f; opacity: 0.5; stroke: #000000; stroke-linejoin: miter"/>
   </g>
   <g id="patch_158">
    <path d="M 370.871877 387.02976 
L 372.789599 387.02976 
L 372.789599 380.356692 
L 370.871877 380.356692 
z
" clip-path="url(#pf89120ca65)" style="fill: #7f7f7f; opacity: 0.5; stroke: #000000; stroke-linejoin: miter"/>
   </g>
   <g id="patch_159">
    <path d="M 372.789599 387.02976 
L 374.707321 387.02976 
L 374.707321 380.356692 
L 372.789599 380.356692 
z
" clip-path="url(#pf89120ca65)" style="fill: #7f7f7f; opacity: 0.5; stroke: #000000; stroke-linejoin: miter"/>
   </g>
   <g id="patch_160">
    <path d="M 374.707321 387.02976 
L 376.625043 387.02976 
L 376.625043 380.356692 
L 374.707321 380.356692 
z
" clip-path="url(#pf89120ca65)" style="fill: #7f7f7f; opacity: 0.5; stroke: #000000; stroke-linejoin: miter"/>
   </g>
   <g id="patch_161">
    <path d="M 376.625043 387.02976 
L 378.542765 387.02976 
L 378.542765 380.356692 
L 376.625043 380.356692 
z
" clip-path="url(#pf89120ca65)" style="fill: #7f7f7f; opacity: 0.5; stroke: #000000; stroke-linejoin: miter"/>
   </g>
   <g id="patch_162">
    <path d="M 378.542765 387.02976 
L 380.460487 387.02976 
L 380.460487 387.02976 
L 378.542765 387.02976 
z
" clip-path="url(#pf89120ca65)" style="fill: #7f7f7f; opacity: 0.5; stroke: #000000; stroke-linejoin: miter"/>
   </g>
   <g id="patch_163">
    <path d="M 380.460487 387.02976 
L 382.378208 387.02976 
L 382.378208 387.02976 
L 380.460487 387.02976 
z
" clip-path="url(#pf89120ca65)" style="fill: #7f7f7f; opacity: 0.5; stroke: #000000; stroke-linejoin: miter"/>
   </g>
   <g id="patch_164">
    <path d="M 382.378208 387.02976 
L 384.29593 387.02976 
L 384.29593 387.02976 
L 382.378208 387.02976 
z
" clip-path="url(#pf89120ca65)" style="fill: #7f7f7f; opacity: 0.5; stroke: #000000; stroke-linejoin: miter"/>
   </g>
   <g id="patch_165">
    <path d="M 384.29593 387.02976 
L 386.213652 387.02976 
L 386.213652 387.02976 
L 384.29593 387.02976 
z
" clip-path="url(#pf89120ca65)" style="fill: #7f7f7f; opacity: 0.5; stroke: #000000; stroke-linejoin: miter"/>
   </g>
   <g id="patch_166">
    <path d="M 386.213652 387.02976 
L 388.131374 387.02976 
L 388.131374 387.02976 
L 386.213652 387.02976 
z
" clip-path="url(#pf89120ca65)" style="fill: #7f7f7f; opacity: 0.5; stroke: #000000; stroke-linejoin: miter"/>
   </g>
   <g id="patch_167">
    <path d="M 388.131374 387.02976 
L 390.049096 387.02976 
L 390.049096 387.02976 
L 388.131374 387.02976 
z
" clip-path="url(#pf89120ca65)" style="fill: #7f7f7f; opacity: 0.5; stroke: #000000; stroke-linejoin: miter"/>
   </g>
   <g id="patch_168">
    <path d="M 390.049096 387.02976 
L 391.966818 387.02976 
L 391.966818 387.02976 
L 390.049096 387.02976 
z
" clip-path="url(#pf89120ca65)" style="fill: #7f7f7f; opacity: 0.5; stroke: #000000; stroke-linejoin: miter"/>
   </g>
   <g id="patch_169">
    <path d="M 391.966818 387.02976 
L 393.884539 387.02976 
L 393.884539 387.02976 
L 391.966818 387.02976 
z
" clip-path="url(#pf89120ca65)" style="fill: #7f7f7f; opacity: 0.5; stroke: #000000; stroke-linejoin: miter"/>
   </g>
   <g id="patch_170">
    <path d="M 393.884539 387.02976 
L 395.802261 387.02976 
L 395.802261 387.02976 
L 393.884539 387.02976 
z
" clip-path="url(#pf89120ca65)" style="fill: #7f7f7f; opacity: 0.5; stroke: #000000; stroke-linejoin: miter"/>
   </g>
   <g id="patch_171">
    <path d="M 395.802261 387.02976 
L 397.719983 387.02976 
L 397.719983 387.02976 
L 395.802261 387.02976 
z
" clip-path="url(#pf89120ca65)" style="fill: #7f7f7f; opacity: 0.5; stroke: #000000; stroke-linejoin: miter"/>
   </g>
   <g id="patch_172">
    <path d="M 397.719983 387.02976 
L 399.637705 387.02976 
L 399.637705 387.02976 
L 397.719983 387.02976 
z
" clip-path="url(#pf89120ca65)" style="fill: #7f7f7f; opacity: 0.5; stroke: #000000; stroke-linejoin: miter"/>
   </g>
   <g id="patch_173">
    <path d="M 399.637705 387.02976 
L 401.555427 387.02976 
L 401.555427 387.02976 
L 399.637705 387.02976 
z
" clip-path="url(#pf89120ca65)" style="fill: #7f7f7f; opacity: 0.5; stroke: #000000; stroke-linejoin: miter"/>
   </g>
   <g id="patch_174">
    <path d="M 401.555427 387.02976 
L 403.473149 387.02976 
L 403.473149 387.02976 
L 401.555427 387.02976 
z
" clip-path="url(#pf89120ca65)" style="fill: #7f7f7f; opacity: 0.5; stroke: #000000; stroke-linejoin: miter"/>
   </g>
   <g id="patch_175">
    <path d="M 403.473149 387.02976 
L 405.390871 387.02976 
L 405.390871 387.02976 
L 403.473149 387.02976 
z
" clip-path="url(#pf89120ca65)" style="fill: #7f7f7f; opacity: 0.5; stroke: #000000; stroke-linejoin: miter"/>
   </g>
   <g id="patch_176">
    <path d="M 405.390871 387.02976 
L 407.308592 387.02976 
L 407.308592 387.02976 
L 405.390871 387.02976 
z
" clip-path="url(#pf89120ca65)" style="fill: #7f7f7f; opacity: 0.5; stroke: #000000; stroke-linejoin: miter"/>
   </g>
   <g id="patch_177">
    <path d="M 407.308592 387.02976 
L 409.226314 387.02976 
L 409.226314 387.02976 
L 407.308592 387.02976 
z
" clip-path="url(#pf89120ca65)" style="fill: #7f7f7f; opacity: 0.5; stroke: #000000; stroke-linejoin: miter"/>
   </g>
   <g id="patch_178">
    <path d="M 409.226314 387.02976 
L 411.144036 387.02976 
L 411.144036 387.02976 
L 409.226314 387.02976 
z
" clip-path="url(#pf89120ca65)" style="fill: #7f7f7f; opacity: 0.5; stroke: #000000; stroke-linejoin: miter"/>
   </g>
   <g id="patch_179">
    <path d="M 411.144036 387.02976 
L 413.061758 387.02976 
L 413.061758 387.02976 
L 411.144036 387.02976 
z
" clip-path="url(#pf89120ca65)" style="fill: #7f7f7f; opacity: 0.5; stroke: #000000; stroke-linejoin: miter"/>
   </g>
   <g id="patch_180">
    <path d="M 413.061758 387.02976 
L 414.97948 387.02976 
L 414.97948 387.02976 
L 413.061758 387.02976 
z
" clip-path="url(#pf89120ca65)" style="fill: #7f7f7f; opacity: 0.5; stroke: #000000; stroke-linejoin: miter"/>
   </g>
   <g id="patch_181">
    <path d="M 414.97948 387.02976 
L 416.897202 387.02976 
L 416.897202 387.02976 
L 414.97948 387.02976 
z
" clip-path="url(#pf89120ca65)" style="fill: #7f7f7f; opacity: 0.5; stroke: #000000; stroke-linejoin: miter"/>
   </g>
   <g id="patch_182">
    <path d="M 416.897202 387.02976 
L 418.814923 387.02976 
L 418.814923 387.02976 
L 416.897202 387.02976 
z
" clip-path="url(#pf89120ca65)" style="fill: #7f7f7f; opacity: 0.5; stroke: #000000; stroke-linejoin: miter"/>
   </g>
   <g id="patch_183">
    <path d="M 418.814923 387.02976 
L 420.732645 387.02976 
L 420.732645 380.356692 
L 418.814923 380.356692 
z
" clip-path="url(#pf89120ca65)" style="fill: #7f7f7f; opacity: 0.5; stroke: #000000; stroke-linejoin: miter"/>
   </g>
   <g id="patch_184">
    <path d="M 420.732645 387.02976 
L 422.650367 387.02976 
L 422.650367 387.02976 
L 420.732645 387.02976 
z
" clip-path="url(#pf89120ca65)" style="fill: #7f7f7f; opacity: 0.5; stroke: #000000; stroke-linejoin: miter"/>
   </g>
   <g id="patch_185">
    <path d="M 422.650367 387.02976 
L 424.568089 387.02976 
L 424.568089 387.02976 
L 422.650367 387.02976 
z
" clip-path="url(#pf89120ca65)" style="fill: #7f7f7f; opacity: 0.5; stroke: #000000; stroke-linejoin: miter"/>
   </g>
   <g id="patch_186">
    <path d="M 424.568089 387.02976 
L 426.485811 387.02976 
L 426.485811 387.02976 
L 424.568089 387.02976 
z
" clip-path="url(#pf89120ca65)" style="fill: #7f7f7f; opacity: 0.5; stroke: #000000; stroke-linejoin: miter"/>
   </g>
   <g id="patch_187">
    <path d="M 426.485811 387.02976 
L 428.403533 387.02976 
L 428.403533 387.02976 
L 426.485811 387.02976 
z
" clip-path="url(#pf89120ca65)" style="fill: #7f7f7f; opacity: 0.5; stroke: #000000; stroke-linejoin: miter"/>
   </g>
   <g id="patch_188">
    <path d="M 428.403533 387.02976 
L 430.321255 387.02976 
L 430.321255 387.02976 
L 428.403533 387.02976 
z
" clip-path="url(#pf89120ca65)" style="fill: #7f7f7f; opacity: 0.5; stroke: #000000; stroke-linejoin: miter"/>
   </g>
   <g id="patch_189">
    <path d="M 430.321255 387.02976 
L 432.238976 387.02976 
L 432.238976 387.02976 
L 430.321255 387.02976 
z
" clip-path="url(#pf89120ca65)" style="fill: #7f7f7f; opacity: 0.5; stroke: #000000; stroke-linejoin: miter"/>
   </g>
   <g id="patch_190">
    <path d="M 432.238976 387.02976 
L 434.156698 387.02976 
L 434.156698 387.02976 
L 432.238976 387.02976 
z
" clip-path="url(#pf89120ca65)" style="fill: #7f7f7f; opacity: 0.5; stroke: #000000; stroke-linejoin: miter"/>
   </g>
   <g id="patch_191">
    <path d="M 434.156698 387.02976 
L 436.07442 387.02976 
L 436.07442 387.02976 
L 434.156698 387.02976 
z
" clip-path="url(#pf89120ca65)" style="fill: #7f7f7f; opacity: 0.5; stroke: #000000; stroke-linejoin: miter"/>
   </g>
   <g id="patch_192">
    <path d="M 436.07442 387.02976 
L 437.992142 387.02976 
L 437.992142 387.02976 
L 436.07442 387.02976 
z
" clip-path="url(#pf89120ca65)" style="fill: #7f7f7f; opacity: 0.5; stroke: #000000; stroke-linejoin: miter"/>
   </g>
   <g id="patch_193">
    <path d="M 437.992142 387.02976 
L 439.909864 387.02976 
L 439.909864 387.02976 
L 437.992142 387.02976 
z
" clip-path="url(#pf89120ca65)" style="fill: #7f7f7f; opacity: 0.5; stroke: #000000; stroke-linejoin: miter"/>
   </g>
   <g id="patch_194">
    <path d="M 439.909864 387.02976 
L 441.827586 387.02976 
L 441.827586 387.02976 
L 439.909864 387.02976 
z
" clip-path="url(#pf89120ca65)" style="fill: #7f7f7f; opacity: 0.5; stroke: #000000; stroke-linejoin: miter"/>
   </g>
   <g id="patch_195">
    <path d="M 441.827586 387.02976 
L 443.745307 387.02976 
L 443.745307 387.02976 
L 441.827586 387.02976 
z
" clip-path="url(#pf89120ca65)" style="fill: #7f7f7f; opacity: 0.5; stroke: #000000; stroke-linejoin: miter"/>
   </g>
   <g id="patch_196">
    <path d="M 443.745307 387.02976 
L 445.663029 387.02976 
L 445.663029 387.02976 
L 443.745307 387.02976 
z
" clip-path="url(#pf89120ca65)" style="fill: #7f7f7f; opacity: 0.5; stroke: #000000; stroke-linejoin: miter"/>
   </g>
   <g id="patch_197">
    <path d="M 445.663029 387.02976 
L 447.580751 387.02976 
L 447.580751 387.02976 
L 445.663029 387.02976 
z
" clip-path="url(#pf89120ca65)" style="fill: #7f7f7f; opacity: 0.5; stroke: #000000; stroke-linejoin: miter"/>
   </g>
   <g id="patch_198">
    <path d="M 447.580751 387.02976 
L 449.498473 387.02976 
L 449.498473 387.02976 
L 447.580751 387.02976 
z
" clip-path="url(#pf89120ca65)" style="fill: #7f7f7f; opacity: 0.5; stroke: #000000; stroke-linejoin: miter"/>
   </g>
   <g id="patch_199">
    <path d="M 449.498473 387.02976 
L 451.416195 387.02976 
L 451.416195 387.02976 
L 449.498473 387.02976 
z
" clip-path="url(#pf89120ca65)" style="fill: #7f7f7f; opacity: 0.5; stroke: #000000; stroke-linejoin: miter"/>
   </g>
   <g id="patch_200">
    <path d="M 451.416195 387.02976 
L 453.333917 387.02976 
L 453.333917 387.02976 
L 451.416195 387.02976 
z
" clip-path="url(#pf89120ca65)" style="fill: #7f7f7f; opacity: 0.5; stroke: #000000; stroke-linejoin: miter"/>
   </g>
   <g id="patch_201">
    <path d="M 453.333917 387.02976 
L 455.251639 387.02976 
L 455.251639 387.02976 
L 453.333917 387.02976 
z
" clip-path="url(#pf89120ca65)" style="fill: #7f7f7f; opacity: 0.5; stroke: #000000; stroke-linejoin: miter"/>
   </g>
   <g id="patch_202">
    <path d="M 455.251639 387.02976 
L 457.16936 387.02976 
L 457.16936 387.02976 
L 455.251639 387.02976 
z
" clip-path="url(#pf89120ca65)" style="fill: #7f7f7f; opacity: 0.5; stroke: #000000; stroke-linejoin: miter"/>
   </g>
   <g id="patch_203">
    <path d="M 457.16936 387.02976 
L 459.087082 387.02976 
L 459.087082 387.02976 
L 457.16936 387.02976 
z
" clip-path="url(#pf89120ca65)" style="fill: #7f7f7f; opacity: 0.5; stroke: #000000; stroke-linejoin: miter"/>
   </g>
   <g id="patch_204">
    <path d="M 459.087082 387.02976 
L 461.004804 387.02976 
L 461.004804 387.02976 
L 459.087082 387.02976 
z
" clip-path="url(#pf89120ca65)" style="fill: #7f7f7f; opacity: 0.5; stroke: #000000; stroke-linejoin: miter"/>
   </g>
   <g id="patch_205">
    <path d="M 461.004804 387.02976 
L 462.922526 387.02976 
L 462.922526 387.02976 
L 461.004804 387.02976 
z
" clip-path="url(#pf89120ca65)" style="fill: #7f7f7f; opacity: 0.5; stroke: #000000; stroke-linejoin: miter"/>
   </g>
   <g id="patch_206">
    <path d="M 462.922526 387.02976 
L 464.840248 387.02976 
L 464.840248 387.02976 
L 462.922526 387.02976 
z
" clip-path="url(#pf89120ca65)" style="fill: #7f7f7f; opacity: 0.5; stroke: #000000; stroke-linejoin: miter"/>
   </g>
   <g id="patch_207">
    <path d="M 464.840248 387.02976 
L 466.75797 387.02976 
L 466.75797 387.02976 
L 464.840248 387.02976 
z
" clip-path="url(#pf89120ca65)" style="fill: #7f7f7f; opacity: 0.5; stroke: #000000; stroke-linejoin: miter"/>
   </g>
   <g id="patch_208">
    <path d="M 466.75797 387.02976 
L 468.675691 387.02976 
L 468.675691 387.02976 
L 466.75797 387.02976 
z
" clip-path="url(#pf89120ca65)" style="fill: #7f7f7f; opacity: 0.5; stroke: #000000; stroke-linejoin: miter"/>
   </g>
   <g id="patch_209">
    <path d="M 468.675691 387.02976 
L 470.593413 387.02976 
L 470.593413 387.02976 
L 468.675691 387.02976 
z
" clip-path="url(#pf89120ca65)" style="fill: #7f7f7f; opacity: 0.5; stroke: #000000; stroke-linejoin: miter"/>
   </g>
   <g id="patch_210">
    <path d="M 470.593413 387.02976 
L 472.511135 387.02976 
L 472.511135 387.02976 
L 470.593413 387.02976 
z
" clip-path="url(#pf89120ca65)" style="fill: #7f7f7f; opacity: 0.5; stroke: #000000; stroke-linejoin: miter"/>
   </g>
   <g id="patch_211">
    <path d="M 472.511135 387.02976 
L 474.428857 387.02976 
L 474.428857 387.02976 
L 472.511135 387.02976 
z
" clip-path="url(#pf89120ca65)" style="fill: #7f7f7f; opacity: 0.5; stroke: #000000; stroke-linejoin: miter"/>
   </g>
   <g id="patch_212">
    <path d="M 474.428857 387.02976 
L 476.346579 387.02976 
L 476.346579 387.02976 
L 474.428857 387.02976 
z
" clip-path="url(#pf89120ca65)" style="fill: #7f7f7f; opacity: 0.5; stroke: #000000; stroke-linejoin: miter"/>
   </g>
   <g id="patch_213">
    <path d="M 476.346579 387.02976 
L 478.264301 387.02976 
L 478.264301 387.02976 
L 476.346579 387.02976 
z
" clip-path="url(#pf89120ca65)" style="fill: #7f7f7f; opacity: 0.5; stroke: #000000; stroke-linejoin: miter"/>
   </g>
   <g id="patch_214">
    <path d="M 478.264301 387.02976 
L 480.182023 387.02976 
L 480.182023 387.02976 
L 478.264301 387.02976 
z
" clip-path="url(#pf89120ca65)" style="fill: #7f7f7f; opacity: 0.5; stroke: #000000; stroke-linejoin: miter"/>
   </g>
   <g id="patch_215">
    <path d="M 480.182023 387.02976 
L 482.099744 387.02976 
L 482.099744 387.02976 
L 480.182023 387.02976 
z
" clip-path="url(#pf89120ca65)" style="fill: #7f7f7f; opacity: 0.5; stroke: #000000; stroke-linejoin: miter"/>
   </g>
   <g id="patch_216">
    <path d="M 482.099744 387.02976 
L 484.017466 387.02976 
L 484.017466 387.02976 
L 482.099744 387.02976 
z
" clip-path="url(#pf89120ca65)" style="fill: #7f7f7f; opacity: 0.5; stroke: #000000; stroke-linejoin: miter"/>
   </g>
   <g id="patch_217">
    <path d="M 484.017466 387.02976 
L 485.935188 387.02976 
L 485.935188 387.02976 
L 484.017466 387.02976 
z
" clip-path="url(#pf89120ca65)" style="fill: #7f7f7f; opacity: 0.5; stroke: #000000; stroke-linejoin: miter"/>
   </g>
   <g id="patch_218">
    <path d="M 485.935188 387.02976 
L 487.85291 387.02976 
L 487.85291 387.02976 
L 485.935188 387.02976 
z
" clip-path="url(#pf89120ca65)" style="fill: #7f7f7f; opacity: 0.5; stroke: #000000; stroke-linejoin: miter"/>
   </g>
   <g id="patch_219">
    <path d="M 487.85291 387.02976 
L 489.770632 387.02976 
L 489.770632 387.02976 
L 487.85291 387.02976 
z
" clip-path="url(#pf89120ca65)" style="fill: #7f7f7f; opacity: 0.5; stroke: #000000; stroke-linejoin: miter"/>
   </g>
   <g id="patch_220">
    <path d="M 489.770632 387.02976 
L 491.688354 387.02976 
L 491.688354 387.02976 
L 489.770632 387.02976 
z
" clip-path="url(#pf89120ca65)" style="fill: #7f7f7f; opacity: 0.5; stroke: #000000; stroke-linejoin: miter"/>
   </g>
   <g id="patch_221">
    <path d="M 491.688354 387.02976 
L 493.606076 387.02976 
L 493.606076 380.356692 
L 491.688354 380.356692 
z
" clip-path="url(#pf89120ca65)" style="fill: #7f7f7f; opacity: 0.5; stroke: #000000; stroke-linejoin: miter"/>
   </g>
   <g id="patch_222">
    <path d="M 493.606076 387.02976 
L 495.523797 387.02976 
L 495.523797 387.02976 
L 493.606076 387.02976 
z
" clip-path="url(#pf89120ca65)" style="fill: #7f7f7f; opacity: 0.5; stroke: #000000; stroke-linejoin: miter"/>
   </g>
   <g id="patch_223">
    <path d="M 495.523797 387.02976 
L 497.441519 387.02976 
L 497.441519 387.02976 
L 495.523797 387.02976 
z
" clip-path="url(#pf89120ca65)" style="fill: #7f7f7f; opacity: 0.5; stroke: #000000; stroke-linejoin: miter"/>
   </g>
   <g id="patch_224">
    <path d="M 497.441519 387.02976 
L 499.359241 387.02976 
L 499.359241 387.02976 
L 497.441519 387.02976 
z
" clip-path="url(#pf89120ca65)" style="fill: #7f7f7f; opacity: 0.5; stroke: #000000; stroke-linejoin: miter"/>
   </g>
   <g id="patch_225">
    <path d="M 499.359241 387.02976 
L 501.276963 387.02976 
L 501.276963 387.02976 
L 499.359241 387.02976 
z
" clip-path="url(#pf89120ca65)" style="fill: #7f7f7f; opacity: 0.5; stroke: #000000; stroke-linejoin: miter"/>
   </g>
   <g id="patch_226">
    <path d="M 501.276963 387.02976 
L 503.194685 387.02976 
L 503.194685 387.02976 
L 501.276963 387.02976 
z
" clip-path="url(#pf89120ca65)" style="fill: #7f7f7f; opacity: 0.5; stroke: #000000; stroke-linejoin: miter"/>
   </g>
   <g id="patch_227">
    <path d="M 503.194685 387.02976 
L 505.112407 387.02976 
L 505.112407 387.02976 
L 503.194685 387.02976 
z
" clip-path="url(#pf89120ca65)" style="fill: #7f7f7f; opacity: 0.5; stroke: #000000; stroke-linejoin: miter"/>
   </g>
   <g id="patch_228">
    <path d="M 505.112407 387.02976 
L 507.030128 387.02976 
L 507.030128 387.02976 
L 505.112407 387.02976 
z
" clip-path="url(#pf89120ca65)" style="fill: #7f7f7f; opacity: 0.5; stroke: #000000; stroke-linejoin: miter"/>
   </g>
   <g id="patch_229">
    <path d="M 507.030128 387.02976 
L 508.94785 387.02976 
L 508.94785 387.02976 
L 507.030128 387.02976 
z
" clip-path="url(#pf89120ca65)" style="fill: #7f7f7f; opacity: 0.5; stroke: #000000; stroke-linejoin: miter"/>
   </g>
   <g id="patch_230">
    <path d="M 508.94785 387.02976 
L 510.865572 387.02976 
L 510.865572 387.02976 
L 508.94785 387.02976 
z
" clip-path="url(#pf89120ca65)" style="fill: #7f7f7f; opacity: 0.5; stroke: #000000; stroke-linejoin: miter"/>
   </g>
   <g id="patch_231">
    <path d="M 510.865572 387.02976 
L 512.783294 387.02976 
L 512.783294 387.02976 
L 510.865572 387.02976 
z
" clip-path="url(#pf89120ca65)" style="fill: #7f7f7f; opacity: 0.5; stroke: #000000; stroke-linejoin: miter"/>
   </g>
   <g id="patch_232">
    <path d="M 512.783294 387.02976 
L 514.701016 387.02976 
L 514.701016 387.02976 
L 512.783294 387.02976 
z
" clip-path="url(#pf89120ca65)" style="fill: #7f7f7f; opacity: 0.5; stroke: #000000; stroke-linejoin: miter"/>
   </g>
   <g id="patch_233">
    <path d="M 514.701016 387.02976 
L 516.618738 387.02976 
L 516.618738 380.356692 
L 514.701016 380.356692 
z
" clip-path="url(#pf89120ca65)" style="fill: #7f7f7f; opacity: 0.5; stroke: #000000; stroke-linejoin: miter"/>
   </g>
   <g id="patch_234">
    <path d="M 516.618738 387.02976 
L 518.53646 387.02976 
L 518.53646 387.02976 
L 516.618738 387.02976 
z
" clip-path="url(#pf89120ca65)" style="fill: #7f7f7f; opacity: 0.5; stroke: #000000; stroke-linejoin: miter"/>
   </g>
   <g id="patch_235">
    <path d="M 518.53646 387.02976 
L 520.454181 387.02976 
L 520.454181 387.02976 
L 518.53646 387.02976 
z
" clip-path="url(#pf89120ca65)" style="fill: #7f7f7f; opacity: 0.5; stroke: #000000; stroke-linejoin: miter"/>
   </g>
   <g id="patch_236">
    <path d="M 520.454181 387.02976 
L 522.371903 387.02976 
L 522.371903 387.02976 
L 520.454181 387.02976 
z
" clip-path="url(#pf89120ca65)" style="fill: #7f7f7f; opacity: 0.5; stroke: #000000; stroke-linejoin: miter"/>
   </g>
   <g id="patch_237">
    <path d="M 522.371903 387.02976 
L 524.289625 387.02976 
L 524.289625 387.02976 
L 522.371903 387.02976 
z
" clip-path="url(#pf89120ca65)" style="fill: #7f7f7f; opacity: 0.5; stroke: #000000; stroke-linejoin: miter"/>
   </g>
   <g id="patch_238">
    <path d="M 524.289625 387.02976 
L 526.207347 387.02976 
L 526.207347 387.02976 
L 524.289625 387.02976 
z
" clip-path="url(#pf89120ca65)" style="fill: #7f7f7f; opacity: 0.5; stroke: #000000; stroke-linejoin: miter"/>
   </g>
   <g id="patch_239">
    <path d="M 526.207347 387.02976 
L 528.125069 387.02976 
L 528.125069 387.02976 
L 526.207347 387.02976 
z
" clip-path="url(#pf89120ca65)" style="fill: #7f7f7f; opacity: 0.5; stroke: #000000; stroke-linejoin: miter"/>
   </g>
   <g id="patch_240">
    <path d="M 528.125069 387.02976 
L 530.042791 387.02976 
L 530.042791 387.02976 
L 528.125069 387.02976 
z
" clip-path="url(#pf89120ca65)" style="fill: #7f7f7f; opacity: 0.5; stroke: #000000; stroke-linejoin: miter"/>
   </g>
   <g id="patch_241">
    <path d="M 530.042791 387.02976 
L 531.960512 387.02976 
L 531.960512 387.02976 
L 530.042791 387.02976 
z
" clip-path="url(#pf89120ca65)" style="fill: #7f7f7f; opacity: 0.5; stroke: #000000; stroke-linejoin: miter"/>
   </g>
   <g id="patch_242">
    <path d="M 531.960512 387.02976 
L 533.878234 387.02976 
L 533.878234 387.02976 
L 531.960512 387.02976 
z
" clip-path="url(#pf89120ca65)" style="fill: #7f7f7f; opacity: 0.5; stroke: #000000; stroke-linejoin: miter"/>
   </g>
   <g id="patch_243">
    <path d="M 533.878234 387.02976 
L 535.795956 387.02976 
L 535.795956 387.02976 
L 533.878234 387.02976 
z
" clip-path="url(#pf89120ca65)" style="fill: #7f7f7f; opacity: 0.5; stroke: #000000; stroke-linejoin: miter"/>
   </g>
   <g id="patch_244">
    <path d="M 535.795956 387.02976 
L 537.713678 387.02976 
L 537.713678 387.02976 
L 535.795956 387.02976 
z
" clip-path="url(#pf89120ca65)" style="fill: #7f7f7f; opacity: 0.5; stroke: #000000; stroke-linejoin: miter"/>
   </g>
   <g id="patch_245">
    <path d="M 537.713678 387.02976 
L 539.6314 387.02976 
L 539.6314 387.02976 
L 537.713678 387.02976 
z
" clip-path="url(#pf89120ca65)" style="fill: #7f7f7f; opacity: 0.5; stroke: #000000; stroke-linejoin: miter"/>
   </g>
   <g id="patch_246">
    <path d="M 539.6314 387.02976 
L 541.549122 387.02976 
L 541.549122 387.02976 
L 539.6314 387.02976 
z
" clip-path="url(#pf89120ca65)" style="fill: #7f7f7f; opacity: 0.5; stroke: #000000; stroke-linejoin: miter"/>
   </g>
   <g id="patch_247">
    <path d="M 541.549122 387.02976 
L 543.466844 387.02976 
L 543.466844 387.02976 
L 541.549122 387.02976 
z
" clip-path="url(#pf89120ca65)" style="fill: #7f7f7f; opacity: 0.5; stroke: #000000; stroke-linejoin: miter"/>
   </g>
   <g id="patch_248">
    <path d="M 543.466844 387.02976 
L 545.384565 387.02976 
L 545.384565 387.02976 
L 543.466844 387.02976 
z
" clip-path="url(#pf89120ca65)" style="fill: #7f7f7f; opacity: 0.5; stroke: #000000; stroke-linejoin: miter"/>
   </g>
   <g id="patch_249">
    <path d="M 545.384565 387.02976 
L 547.302287 387.02976 
L 547.302287 387.02976 
L 545.384565 387.02976 
z
" clip-path="url(#pf89120ca65)" style="fill: #7f7f7f; opacity: 0.5; stroke: #000000; stroke-linejoin: miter"/>
   </g>
   <g id="patch_250">
    <path d="M 547.302287 387.02976 
L 549.220009 387.02976 
L 549.220009 387.02976 
L 547.302287 387.02976 
z
" clip-path="url(#pf89120ca65)" style="fill: #7f7f7f; opacity: 0.5; stroke: #000000; stroke-linejoin: miter"/>
   </g>
   <g id="matplotlib.axis_1">
    <g id="xtick_1">
     <g id="line2d_1">
      <defs>
       <path id="mde1eb776ad" d="M 0 0 
L 0 3.5 
" style="stroke: #000000; stroke-width: 0.8"/>
      </defs>
      <g>
       <use xlink:href="#mde1eb776ad" x="135.474474" y="387.02976" style="stroke: #000000; stroke-width: 0.8"/>
      </g>
     </g>
     <g id="text_1">
      <!-- 0.5 -->
      <g transform="translate(122.751974 406.18726)scale(0.16 -0.16)">
       <defs>
        <path id="DejaVuSans-30" d="M 2034 4250 
Q 1547 4250 1301 3770 
Q 1056 3291 1056 2328 
Q 1056 1369 1301 889 
Q 1547 409 2034 409 
Q 2525 409 2770 889 
Q 3016 1369 3016 2328 
Q 3016 3291 2770 3770 
Q 2525 4250 2034 4250 
z
M 2034 4750 
Q 2819 4750 3233 4129 
Q 3647 3509 3647 2328 
Q 3647 1150 3233 529 
Q 2819 -91 2034 -91 
Q 1250 -91 836 529 
Q 422 1150 422 2328 
Q 422 3509 836 4129 
Q 1250 4750 2034 4750 
z
" transform="scale(0.015625)"/>
        <path id="DejaVuSans-2e" d="M 684 794 
L 1344 794 
L 1344 0 
L 684 0 
L 684 794 
z
" transform="scale(0.015625)"/>
        <path id="DejaVuSans-35" d="M 691 4666 
L 3169 4666 
L 3169 4134 
L 1269 4134 
L 1269 2991 
Q 1406 3038 1543 3061 
Q 1681 3084 1819 3084 
Q 2600 3084 3056 2656 
Q 3513 2228 3513 1497 
Q 3513 744 3044 326 
Q 2575 -91 1722 -91 
Q 1428 -91 1123 -41 
Q 819 9 494 109 
L 494 744 
Q 775 591 1075 516 
Q 1375 441 1709 441 
Q 2250 441 2565 725 
Q 2881 1009 2881 1497 
Q 2881 1984 2565 2268 
Q 2250 2553 1709 2553 
Q 1456 2553 1204 2497 
Q 953 2441 691 2322 
L 691 4666 
z
" transform="scale(0.015625)"/>
       </defs>
       <use xlink:href="#DejaVuSans-30"/>
       <use xlink:href="#DejaVuSans-2e" x="63.623047"/>
       <use xlink:href="#DejaVuSans-35" x="95.410156"/>
      </g>
     </g>
    </g>
    <g id="xtick_2">
     <g id="line2d_2">
      <g>
       <use xlink:href="#mde1eb776ad" x="231.360567" y="387.02976" style="stroke: #000000; stroke-width: 0.8"/>
      </g>
     </g>
     <g id="text_2">
      <!-- 1.0 -->
      <g transform="translate(218.638067 406.18726)scale(0.16 -0.16)">
       <defs>
        <path id="DejaVuSans-31" d="M 794 531 
L 1825 531 
L 1825 4091 
L 703 3866 
L 703 4441 
L 1819 4666 
L 2450 4666 
L 2450 531 
L 3481 531 
L 3481 0 
L 794 0 
L 794 531 
z
" transform="scale(0.015625)"/>
       </defs>
       <use xlink:href="#DejaVuSans-31"/>
       <use xlink:href="#DejaVuSans-2e" x="63.623047"/>
       <use xlink:href="#DejaVuSans-30" x="95.410156"/>
      </g>
     </g>
    </g>
    <g id="xtick_3">
     <g id="line2d_3">
      <g>
       <use xlink:href="#mde1eb776ad" x="327.246659" y="387.02976" style="stroke: #000000; stroke-width: 0.8"/>
      </g>
     </g>
     <g id="text_3">
      <!-- 1.5 -->
      <g transform="translate(314.524159 406.18726)scale(0.16 -0.16)">
       <use xlink:href="#DejaVuSans-31"/>
       <use xlink:href="#DejaVuSans-2e" x="63.623047"/>
       <use xlink:href="#DejaVuSans-35" x="95.410156"/>
      </g>
     </g>
    </g>
    <g id="xtick_4">
     <g id="line2d_4">
      <g>
       <use xlink:href="#mde1eb776ad" x="423.132751" y="387.02976" style="stroke: #000000; stroke-width: 0.8"/>
      </g>
     </g>
     <g id="text_4">
      <!-- 2.0 -->
      <g transform="translate(410.410251 406.18726)scale(0.16 -0.16)">
       <defs>
        <path id="DejaVuSans-32" d="M 1228 531 
L 3431 531 
L 3431 0 
L 469 0 
L 469 531 
Q 828 903 1448 1529 
Q 2069 2156 2228 2338 
Q 2531 2678 2651 2914 
Q 2772 3150 2772 3378 
Q 2772 3750 2511 3984 
Q 2250 4219 1831 4219 
Q 1534 4219 1204 4116 
Q 875 4013 500 3803 
L 500 4441 
Q 881 4594 1212 4672 
Q 1544 4750 1819 4750 
Q 2544 4750 2975 4387 
Q 3406 4025 3406 3419 
Q 3406 3131 3298 2873 
Q 3191 2616 2906 2266 
Q 2828 2175 2409 1742 
Q 1991 1309 1228 531 
z
" transform="scale(0.015625)"/>
       </defs>
       <use xlink:href="#DejaVuSans-32"/>
       <use xlink:href="#DejaVuSans-2e" x="63.623047"/>
       <use xlink:href="#DejaVuSans-30" x="95.410156"/>
      </g>
     </g>
    </g>
    <g id="xtick_5">
     <g id="line2d_5">
      <g>
       <use xlink:href="#mde1eb776ad" x="519.018844" y="387.02976" style="stroke: #000000; stroke-width: 0.8"/>
      </g>
     </g>
     <g id="text_5">
      <!-- 2.5 -->
      <g transform="translate(506.296344 406.18726)scale(0.16 -0.16)">
       <use xlink:href="#DejaVuSans-32"/>
       <use xlink:href="#DejaVuSans-2e" x="63.623047"/>
       <use xlink:href="#DejaVuSans-35" x="95.410156"/>
      </g>
     </g>
    </g>
    <g id="text_6">
     <!-- $I_{2D}/I_{G}$ -->
     <g transform="translate(291.3425 425.67226)scale(0.16 -0.16)">
      <defs>
       <path id="DejaVuSans-Oblique-49" d="M 1081 4666 
L 1716 4666 
L 806 0 
L 172 0 
L 1081 4666 
z
" transform="scale(0.015625)"/>
       <path id="DejaVuSans-Oblique-44" d="M 1081 4666 
L 2438 4666 
Q 3519 4666 4070 4208 
Q 4622 3750 4622 2847 
Q 4622 2250 4412 1698 
Q 4203 1147 3834 769 
Q 3463 381 2891 190 
Q 2319 0 1538 0 
L 172 0 
L 1081 4666 
z
M 1613 4147 
L 909 519 
L 1734 519 
Q 2794 519 3375 1128 
Q 3956 1738 3956 2847 
Q 3956 3519 3581 3833 
Q 3206 4147 2406 4147 
L 1613 4147 
z
" transform="scale(0.015625)"/>
       <path id="DejaVuSans-2f" d="M 1625 4666 
L 2156 4666 
L 531 -594 
L 0 -594 
L 1625 4666 
z
" transform="scale(0.015625)"/>
       <path id="DejaVuSans-Oblique-47" d="M 3494 697 
L 3738 1919 
L 2700 1919 
L 2797 2438 
L 4453 2438 
L 4050 384 
Q 3634 156 3143 32 
Q 2653 -91 2156 -91 
Q 1278 -91 783 396 
Q 288 884 288 1753 
Q 288 2475 589 3126 
Q 891 3778 1422 4213 
Q 1756 4484 2153 4617 
Q 2550 4750 3034 4750 
Q 3472 4750 3873 4639 
Q 4275 4528 4641 4306 
L 4513 3634 
Q 4231 3928 3853 4083 
Q 3475 4238 3047 4238 
Q 2550 4238 2172 4048 
Q 1794 3859 1497 3463 
Q 1244 3125 1098 2667 
Q 953 2209 953 1734 
Q 953 1081 1287 751 
Q 1622 422 2284 422 
Q 2616 422 2925 492 
Q 3234 563 3494 697 
z
" transform="scale(0.015625)"/>
      </defs>
      <use xlink:href="#DejaVuSans-Oblique-49" transform="translate(0 0.09375)"/>
      <use xlink:href="#DejaVuSans-32" transform="translate(29.492188 -16.3125)scale(0.7)"/>
      <use xlink:href="#DejaVuSans-Oblique-44" transform="translate(74.02832 -16.3125)scale(0.7)"/>
      <use xlink:href="#DejaVuSans-2f" transform="translate(130.664062 0.09375)"/>
      <use xlink:href="#DejaVuSans-Oblique-49" transform="translate(164.355469 0.09375)"/>
      <use xlink:href="#DejaVuSans-Oblique-47" transform="translate(193.847656 -16.3125)scale(0.7)"/>
     </g>
    </g>
   </g>
   <g id="matplotlib.axis_2">
    <g id="ytick_1">
     <g id="line2d_6">
      <defs>
       <path id="mcd409b289a" d="M 0 0 
L -3.5 0 
" style="stroke: #000000; stroke-width: 0.8"/>
      </defs>
      <g>
       <use xlink:href="#mcd409b289a" x="49.84524" y="387.02976" style="stroke: #000000; stroke-width: 0.8"/>
      </g>
     </g>
     <g id="text_7">
      <!-- 0 -->
      <g transform="translate(32.66524 393.10851)scale(0.16 -0.16)">
       <use xlink:href="#DejaVuSans-30"/>
      </g>
     </g>
    </g>
    <g id="ytick_2">
     <g id="line2d_7">
      <g>
       <use xlink:href="#mcd409b289a" x="49.84524" y="320.299079" style="stroke: #000000; stroke-width: 0.8"/>
      </g>
     </g>
     <g id="text_8">
      <!-- 10 -->
      <g transform="translate(22.48524 326.377829)scale(0.16 -0.16)">
       <use xlink:href="#DejaVuSans-31"/>
       <use xlink:href="#DejaVuSans-30" x="63.623047"/>
      </g>
     </g>
    </g>
    <g id="ytick_3">
     <g id="line2d_8">
      <g>
       <use xlink:href="#mcd409b289a" x="49.84524" y="253.568397" style="stroke: #000000; stroke-width: 0.8"/>
      </g>
     </g>
     <g id="text_9">
      <!-- 20 -->
      <g transform="translate(22.48524 259.647147)scale(0.16 -0.16)">
       <use xlink:href="#DejaVuSans-32"/>
       <use xlink:href="#DejaVuSans-30" x="63.623047"/>
      </g>
     </g>
    </g>
    <g id="ytick_4">
     <g id="line2d_9">
      <g>
       <use xlink:href="#mcd409b289a" x="49.84524" y="186.837716" style="stroke: #000000; stroke-width: 0.8"/>
      </g>
     </g>
     <g id="text_10">
      <!-- 30 -->
      <g transform="translate(22.48524 192.916466)scale(0.16 -0.16)">
       <defs>
        <path id="DejaVuSans-33" d="M 2597 2516 
Q 3050 2419 3304 2112 
Q 3559 1806 3559 1356 
Q 3559 666 3084 287 
Q 2609 -91 1734 -91 
Q 1441 -91 1130 -33 
Q 819 25 488 141 
L 488 750 
Q 750 597 1062 519 
Q 1375 441 1716 441 
Q 2309 441 2620 675 
Q 2931 909 2931 1356 
Q 2931 1769 2642 2001 
Q 2353 2234 1838 2234 
L 1294 2234 
L 1294 2753 
L 1863 2753 
Q 2328 2753 2575 2939 
Q 2822 3125 2822 3475 
Q 2822 3834 2567 4026 
Q 2313 4219 1838 4219 
Q 1578 4219 1281 4162 
Q 984 4106 628 3988 
L 628 4550 
Q 988 4650 1302 4700 
Q 1616 4750 1894 4750 
Q 2613 4750 3031 4423 
Q 3450 4097 3450 3541 
Q 3450 3153 3228 2886 
Q 3006 2619 2597 2516 
z
" transform="scale(0.015625)"/>
       </defs>
       <use xlink:href="#DejaVuSans-33"/>
       <use xlink:href="#DejaVuSans-30" x="63.623047"/>
      </g>
     </g>
    </g>
    <g id="ytick_5">
     <g id="line2d_10">
      <g>
       <use xlink:href="#mcd409b289a" x="49.84524" y="120.107035" style="stroke: #000000; stroke-width: 0.8"/>
      </g>
     </g>
     <g id="text_11">
      <!-- 40 -->
      <g transform="translate(22.48524 126.185785)scale(0.16 -0.16)">
       <defs>
        <path id="DejaVuSans-34" d="M 2419 4116 
L 825 1625 
L 2419 1625 
L 2419 4116 
z
M 2253 4666 
L 3047 4666 
L 3047 1625 
L 3713 1625 
L 3713 1100 
L 3047 1100 
L 3047 0 
L 2419 0 
L 2419 1100 
L 313 1100 
L 313 1709 
L 2253 4666 
z
" transform="scale(0.015625)"/>
       </defs>
       <use xlink:href="#DejaVuSans-34"/>
       <use xlink:href="#DejaVuSans-30" x="63.623047"/>
      </g>
     </g>
    </g>
    <g id="ytick_6">
     <g id="line2d_11">
      <g>
       <use xlink:href="#mcd409b289a" x="49.84524" y="53.376353" style="stroke: #000000; stroke-width: 0.8"/>
      </g>
     </g>
     <g id="text_12">
      <!-- 50 -->
      <g transform="translate(22.48524 59.455103)scale(0.16 -0.16)">
       <use xlink:href="#DejaVuSans-35"/>
       <use xlink:href="#DejaVuSans-30" x="63.623047"/>
      </g>
     </g>
    </g>
    <g id="text_13">
     <!-- counts -->
     <g transform="translate(15.15774 231.5925)rotate(-90)scale(0.16 -0.16)">
      <defs>
       <path id="DejaVuSans-63" d="M 3122 3366 
L 3122 2828 
Q 2878 2963 2633 3030 
Q 2388 3097 2138 3097 
Q 1578 3097 1268 2742 
Q 959 2388 959 1747 
Q 959 1106 1268 751 
Q 1578 397 2138 397 
Q 2388 397 2633 464 
Q 2878 531 3122 666 
L 3122 134 
Q 2881 22 2623 -34 
Q 2366 -91 2075 -91 
Q 1284 -91 818 406 
Q 353 903 353 1747 
Q 353 2603 823 3093 
Q 1294 3584 2113 3584 
Q 2378 3584 2631 3529 
Q 2884 3475 3122 3366 
z
" transform="scale(0.015625)"/>
       <path id="DejaVuSans-6f" d="M 1959 3097 
Q 1497 3097 1228 2736 
Q 959 2375 959 1747 
Q 959 1119 1226 758 
Q 1494 397 1959 397 
Q 2419 397 2687 759 
Q 2956 1122 2956 1747 
Q 2956 2369 2687 2733 
Q 2419 3097 1959 3097 
z
M 1959 3584 
Q 2709 3584 3137 3096 
Q 3566 2609 3566 1747 
Q 3566 888 3137 398 
Q 2709 -91 1959 -91 
Q 1206 -91 779 398 
Q 353 888 353 1747 
Q 353 2609 779 3096 
Q 1206 3584 1959 3584 
z
" transform="scale(0.015625)"/>
       <path id="DejaVuSans-75" d="M 544 1381 
L 544 3500 
L 1119 3500 
L 1119 1403 
Q 1119 906 1312 657 
Q 1506 409 1894 409 
Q 2359 409 2629 706 
Q 2900 1003 2900 1516 
L 2900 3500 
L 3475 3500 
L 3475 0 
L 2900 0 
L 2900 538 
Q 2691 219 2414 64 
Q 2138 -91 1772 -91 
Q 1169 -91 856 284 
Q 544 659 544 1381 
z
M 1991 3584 
L 1991 3584 
z
" transform="scale(0.015625)"/>
       <path id="DejaVuSans-6e" d="M 3513 2113 
L 3513 0 
L 2938 0 
L 2938 2094 
Q 2938 2591 2744 2837 
Q 2550 3084 2163 3084 
Q 1697 3084 1428 2787 
Q 1159 2491 1159 1978 
L 1159 0 
L 581 0 
L 581 3500 
L 1159 3500 
L 1159 2956 
Q 1366 3272 1645 3428 
Q 1925 3584 2291 3584 
Q 2894 3584 3203 3211 
Q 3513 2838 3513 2113 
z
" transform="scale(0.015625)"/>
       <path id="DejaVuSans-74" d="M 1172 4494 
L 1172 3500 
L 2356 3500 
L 2356 3053 
L 1172 3053 
L 1172 1153 
Q 1172 725 1289 603 
Q 1406 481 1766 481 
L 2356 481 
L 2356 0 
L 1766 0 
Q 1100 0 847 248 
Q 594 497 594 1153 
L 594 3053 
L 172 3053 
L 172 3500 
L 594 3500 
L 594 4494 
L 1172 4494 
z
" transform="scale(0.015625)"/>
       <path id="DejaVuSans-73" d="M 2834 3397 
L 2834 2853 
Q 2591 2978 2328 3040 
Q 2066 3103 1784 3103 
Q 1356 3103 1142 2972 
Q 928 2841 928 2578 
Q 928 2378 1081 2264 
Q 1234 2150 1697 2047 
L 1894 2003 
Q 2506 1872 2764 1633 
Q 3022 1394 3022 966 
Q 3022 478 2636 193 
Q 2250 -91 1575 -91 
Q 1294 -91 989 -36 
Q 684 19 347 128 
L 347 722 
Q 666 556 975 473 
Q 1284 391 1588 391 
Q 1994 391 2212 530 
Q 2431 669 2431 922 
Q 2431 1156 2273 1281 
Q 2116 1406 1581 1522 
L 1381 1569 
Q 847 1681 609 1914 
Q 372 2147 372 2553 
Q 372 3047 722 3315 
Q 1072 3584 1716 3584 
Q 2034 3584 2315 3537 
Q 2597 3491 2834 3397 
z
" transform="scale(0.015625)"/>
      </defs>
      <use xlink:href="#DejaVuSans-63"/>
      <use xlink:href="#DejaVuSans-6f" x="54.980469"/>
      <use xlink:href="#DejaVuSans-75" x="116.162109"/>
      <use xlink:href="#DejaVuSans-6e" x="179.541016"/>
      <use xlink:href="#DejaVuSans-74" x="242.919922"/>
      <use xlink:href="#DejaVuSans-73" x="282.128906"/>
     </g>
    </g>
   </g>
   <g id="patch_251">
    <path d="M 49.84524 387.02976 
L 49.84524 22.68024 
" style="fill: none; stroke: #000000; stroke-width: 0.8; stroke-linejoin: miter; stroke-linecap: square"/>
   </g>
   <g id="patch_252">
    <path d="M 572.99976 387.02976 
L 572.99976 22.68024 
" style="fill: none; stroke: #000000; stroke-width: 0.8; stroke-linejoin: miter; stroke-linecap: square"/>
   </g>
   <g id="patch_253">
    <path d="M 49.84524 387.02976 
L 572.99976 387.02976 
" style="fill: none; stroke: #000000; stroke-width: 0.8; stroke-linejoin: miter; stroke-linecap: square"/>
   </g>
   <g id="patch_254">
    <path d="M 49.84524 22.68024 
L 572.99976 22.68024 
" style="fill: none; stroke: #000000; stroke-width: 0.8; stroke-linejoin: miter; stroke-linecap: square"/>
   </g>
   <g id="text_14">
    <!-- Intensity ratio: $I_{2D}/I_{G}$ -->
    <g transform="translate(220.1625 16.68024)scale(0.18 -0.18)">
     <defs>
      <path id="DejaVuSans-49" d="M 628 4666 
L 1259 4666 
L 1259 0 
L 628 0 
L 628 4666 
z
" transform="scale(0.015625)"/>
      <path id="DejaVuSans-65" d="M 3597 1894 
L 3597 1613 
L 953 1613 
Q 991 1019 1311 708 
Q 1631 397 2203 397 
Q 2534 397 2845 478 
Q 3156 559 3463 722 
L 3463 178 
Q 3153 47 2828 -22 
Q 2503 -91 2169 -91 
Q 1331 -91 842 396 
Q 353 884 353 1716 
Q 353 2575 817 3079 
Q 1281 3584 2069 3584 
Q 2775 3584 3186 3129 
Q 3597 2675 3597 1894 
z
M 3022 2063 
Q 3016 2534 2758 2815 
Q 2500 3097 2075 3097 
Q 1594 3097 1305 2825 
Q 1016 2553 972 2059 
L 3022 2063 
z
" transform="scale(0.015625)"/>
      <path id="DejaVuSans-69" d="M 603 3500 
L 1178 3500 
L 1178 0 
L 603 0 
L 603 3500 
z
M 603 4863 
L 1178 4863 
L 1178 4134 
L 603 4134 
L 603 4863 
z
" transform="scale(0.015625)"/>
      <path id="DejaVuSans-79" d="M 2059 -325 
Q 1816 -950 1584 -1140 
Q 1353 -1331 966 -1331 
L 506 -1331 
L 506 -850 
L 844 -850 
Q 1081 -850 1212 -737 
Q 1344 -625 1503 -206 
L 1606 56 
L 191 3500 
L 800 3500 
L 1894 763 
L 2988 3500 
L 3597 3500 
L 2059 -325 
z
" transform="scale(0.015625)"/>
      <path id="DejaVuSans-20" transform="scale(0.015625)"/>
      <path id="DejaVuSans-72" d="M 2631 2963 
Q 2534 3019 2420 3045 
Q 2306 3072 2169 3072 
Q 1681 3072 1420 2755 
Q 1159 2438 1159 1844 
L 1159 0 
L 581 0 
L 581 3500 
L 1159 3500 
L 1159 2956 
Q 1341 3275 1631 3429 
Q 1922 3584 2338 3584 
Q 2397 3584 2469 3576 
Q 2541 3569 2628 3553 
L 2631 2963 
z
" transform="scale(0.015625)"/>
      <path id="DejaVuSans-61" d="M 2194 1759 
Q 1497 1759 1228 1600 
Q 959 1441 959 1056 
Q 959 750 1161 570 
Q 1363 391 1709 391 
Q 2188 391 2477 730 
Q 2766 1069 2766 1631 
L 2766 1759 
L 2194 1759 
z
M 3341 1997 
L 3341 0 
L 2766 0 
L 2766 531 
Q 2569 213 2275 61 
Q 1981 -91 1556 -91 
Q 1019 -91 701 211 
Q 384 513 384 1019 
Q 384 1609 779 1909 
Q 1175 2209 1959 2209 
L 2766 2209 
L 2766 2266 
Q 2766 2663 2505 2880 
Q 2244 3097 1772 3097 
Q 1472 3097 1187 3025 
Q 903 2953 641 2809 
L 641 3341 
Q 956 3463 1253 3523 
Q 1550 3584 1831 3584 
Q 2591 3584 2966 3190 
Q 3341 2797 3341 1997 
z
" transform="scale(0.015625)"/>
      <path id="DejaVuSans-3a" d="M 750 794 
L 1409 794 
L 1409 0 
L 750 0 
L 750 794 
z
M 750 3309 
L 1409 3309 
L 1409 2516 
L 750 2516 
L 750 3309 
z
" transform="scale(0.015625)"/>
     </defs>
     <use xlink:href="#DejaVuSans-49" transform="translate(0 0.015625)"/>
     <use xlink:href="#DejaVuSans-6e" transform="translate(29.492188 0.015625)"/>
     <use xlink:href="#DejaVuSans-74" transform="translate(92.871094 0.015625)"/>
     <use xlink:href="#DejaVuSans-65" transform="translate(132.080078 0.015625)"/>
     <use xlink:href="#DejaVuSans-6e" transform="translate(193.603516 0.015625)"/>
     <use xlink:href="#DejaVuSans-73" transform="translate(256.982422 0.015625)"/>
     <use xlink:href="#DejaVuSans-69" transform="translate(309.082031 0.015625)"/>
     <use xlink:href="#DejaVuSans-74" transform="translate(336.865234 0.015625)"/>
     <use xlink:href="#DejaVuSans-79" transform="translate(376.074219 0.015625)"/>
     <use xlink:href="#DejaVuSans-20" transform="translate(435.253906 0.015625)"/>
     <use xlink:href="#DejaVuSans-72" transform="translate(467.041016 0.015625)"/>
     <use xlink:href="#DejaVuSans-61" transform="translate(508.154297 0.015625)"/>
     <use xlink:href="#DejaVuSans-74" transform="translate(569.433594 0.015625)"/>
     <use xlink:href="#DejaVuSans-69" transform="translate(608.642578 0.015625)"/>
     <use xlink:href="#DejaVuSans-6f" transform="translate(636.425781 0.015625)"/>
     <use xlink:href="#DejaVuSans-3a" transform="translate(697.607422 0.015625)"/>
     <use xlink:href="#DejaVuSans-20" transform="translate(731.298828 0.015625)"/>
     <use xlink:href="#DejaVuSans-Oblique-49" transform="translate(763.085938 0.015625)"/>
     <use xlink:href="#DejaVuSans-32" transform="translate(792.578125 -16.390625)scale(0.7)"/>
     <use xlink:href="#DejaVuSans-Oblique-44" transform="translate(837.114258 -16.390625)scale(0.7)"/>
     <use xlink:href="#DejaVuSans-2f" transform="translate(893.75 0.015625)"/>
     <use xlink:href="#DejaVuSans-Oblique-49" transform="translate(927.441406 0.015625)"/>
     <use xlink:href="#DejaVuSans-Oblique-47" transform="translate(956.933594 -16.390625)scale(0.7)"/>
    </g>
   </g>
   <g id="legend_1">
    <g id="patch_255">
     <path d="M 260.79976 54.46024 
L 563.19976 54.46024 
Q 565.99976 54.46024 565.99976 51.66024 
L 565.99976 32.48024 
Q 565.99976 29.68024 563.19976 29.68024 
L 260.79976 29.68024 
Q 257.99976 29.68024 257.99976 32.48024 
L 257.99976 51.66024 
Q 257.99976 54.46024 260.79976 54.46024 
z
" style="fill: #ffffff; opacity: 0.8; stroke: #cccccc; stroke-linejoin: miter"/>
    </g>
    <g id="patch_256">
     <path d="M 263.59976 45.92024 
L 291.59976 45.92024 
L 291.59976 36.12024 
L 263.59976 36.12024 
z
" style="fill: #7f7f7f; opacity: 0.5; stroke: #000000; stroke-linejoin: miter"/>
    </g>
    <g id="text_15">
     <!-- mapExample: $I_{2D}/I_{G}$=1.1637$\pm$0.1854 -->
     <g transform="translate(302.79976 45.92024)scale(0.14 -0.14)">
      <defs>
       <path id="DejaVuSans-6d" d="M 3328 2828 
Q 3544 3216 3844 3400 
Q 4144 3584 4550 3584 
Q 5097 3584 5394 3201 
Q 5691 2819 5691 2113 
L 5691 0 
L 5113 0 
L 5113 2094 
Q 5113 2597 4934 2840 
Q 4756 3084 4391 3084 
Q 3944 3084 3684 2787 
Q 3425 2491 3425 1978 
L 3425 0 
L 2847 0 
L 2847 2094 
Q 2847 2600 2669 2842 
Q 2491 3084 2119 3084 
Q 1678 3084 1418 2786 
Q 1159 2488 1159 1978 
L 1159 0 
L 581 0 
L 581 3500 
L 1159 3500 
L 1159 2956 
Q 1356 3278 1631 3431 
Q 1906 3584 2284 3584 
Q 2666 3584 2933 3390 
Q 3200 3197 3328 2828 
z
" transform="scale(0.015625)"/>
       <path id="DejaVuSans-70" d="M 1159 525 
L 1159 -1331 
L 581 -1331 
L 581 3500 
L 1159 3500 
L 1159 2969 
Q 1341 3281 1617 3432 
Q 1894 3584 2278 3584 
Q 2916 3584 3314 3078 
Q 3713 2572 3713 1747 
Q 3713 922 3314 415 
Q 2916 -91 2278 -91 
Q 1894 -91 1617 61 
Q 1341 213 1159 525 
z
M 3116 1747 
Q 3116 2381 2855 2742 
Q 2594 3103 2138 3103 
Q 1681 3103 1420 2742 
Q 1159 2381 1159 1747 
Q 1159 1113 1420 752 
Q 1681 391 2138 391 
Q 2594 391 2855 752 
Q 3116 1113 3116 1747 
z
" transform="scale(0.015625)"/>
       <path id="DejaVuSans-45" d="M 628 4666 
L 3578 4666 
L 3578 4134 
L 1259 4134 
L 1259 2753 
L 3481 2753 
L 3481 2222 
L 1259 2222 
L 1259 531 
L 3634 531 
L 3634 0 
L 628 0 
L 628 4666 
z
" transform="scale(0.015625)"/>
       <path id="DejaVuSans-78" d="M 3513 3500 
L 2247 1797 
L 3578 0 
L 2900 0 
L 1881 1375 
L 863 0 
L 184 0 
L 1544 1831 
L 300 3500 
L 978 3500 
L 1906 2253 
L 2834 3500 
L 3513 3500 
z
" transform="scale(0.015625)"/>
       <path id="DejaVuSans-6c" d="M 603 4863 
L 1178 4863 
L 1178 0 
L 603 0 
L 603 4863 
z
" transform="scale(0.015625)"/>
       <path id="DejaVuSans-3d" d="M 678 2906 
L 4684 2906 
L 4684 2381 
L 678 2381 
L 678 2906 
z
M 678 1631 
L 4684 1631 
L 4684 1100 
L 678 1100 
L 678 1631 
z
" transform="scale(0.015625)"/>
       <path id="DejaVuSans-36" d="M 2113 2584 
Q 1688 2584 1439 2293 
Q 1191 2003 1191 1497 
Q 1191 994 1439 701 
Q 1688 409 2113 409 
Q 2538 409 2786 701 
Q 3034 994 3034 1497 
Q 3034 2003 2786 2293 
Q 2538 2584 2113 2584 
z
M 3366 4563 
L 3366 3988 
Q 3128 4100 2886 4159 
Q 2644 4219 2406 4219 
Q 1781 4219 1451 3797 
Q 1122 3375 1075 2522 
Q 1259 2794 1537 2939 
Q 1816 3084 2150 3084 
Q 2853 3084 3261 2657 
Q 3669 2231 3669 1497 
Q 3669 778 3244 343 
Q 2819 -91 2113 -91 
Q 1303 -91 875 529 
Q 447 1150 447 2328 
Q 447 3434 972 4092 
Q 1497 4750 2381 4750 
Q 2619 4750 2861 4703 
Q 3103 4656 3366 4563 
z
" transform="scale(0.015625)"/>
       <path id="DejaVuSans-37" d="M 525 4666 
L 3525 4666 
L 3525 4397 
L 1831 0 
L 1172 0 
L 2766 4134 
L 525 4134 
L 525 4666 
z
" transform="scale(0.015625)"/>
       <path id="DejaVuSans-b1" d="M 2944 4013 
L 2944 2803 
L 4684 2803 
L 4684 2272 
L 2944 2272 
L 2944 1063 
L 2419 1063 
L 2419 2272 
L 678 2272 
L 678 2803 
L 2419 2803 
L 2419 4013 
L 2944 4013 
z
M 678 531 
L 4684 531 
L 4684 0 
L 678 0 
L 678 531 
z
" transform="scale(0.015625)"/>
       <path id="DejaVuSans-38" d="M 2034 2216 
Q 1584 2216 1326 1975 
Q 1069 1734 1069 1313 
Q 1069 891 1326 650 
Q 1584 409 2034 409 
Q 2484 409 2743 651 
Q 3003 894 3003 1313 
Q 3003 1734 2745 1975 
Q 2488 2216 2034 2216 
z
M 1403 2484 
Q 997 2584 770 2862 
Q 544 3141 544 3541 
Q 544 4100 942 4425 
Q 1341 4750 2034 4750 
Q 2731 4750 3128 4425 
Q 3525 4100 3525 3541 
Q 3525 3141 3298 2862 
Q 3072 2584 2669 2484 
Q 3125 2378 3379 2068 
Q 3634 1759 3634 1313 
Q 3634 634 3220 271 
Q 2806 -91 2034 -91 
Q 1263 -91 848 271 
Q 434 634 434 1313 
Q 434 1759 690 2068 
Q 947 2378 1403 2484 
z
M 1172 3481 
Q 1172 3119 1398 2916 
Q 1625 2713 2034 2713 
Q 2441 2713 2670 2916 
Q 2900 3119 2900 3481 
Q 2900 3844 2670 4047 
Q 2441 4250 2034 4250 
Q 1625 4250 1398 4047 
Q 1172 3844 1172 3481 
z
" transform="scale(0.015625)"/>
      </defs>
      <use xlink:href="#DejaVuSans-6d" transform="translate(0 0.015625)"/>
      <use xlink:href="#DejaVuSans-61" transform="translate(97.412109 0.015625)"/>
      <use xlink:href="#DejaVuSans-70" transform="translate(158.691406 0.015625)"/>
      <use xlink:href="#DejaVuSans-45" transform="translate(222.167969 0.015625)"/>
      <use xlink:href="#DejaVuSans-78" transform="translate(285.351562 0.015625)"/>
      <use xlink:href="#DejaVuSans-61" transform="translate(344.53125 0.015625)"/>
      <use xlink:href="#DejaVuSans-6d" transform="translate(405.810547 0.015625)"/>
      <use xlink:href="#DejaVuSans-70" transform="translate(503.222656 0.015625)"/>
      <use xlink:href="#DejaVuSans-6c" transform="translate(566.699219 0.015625)"/>
      <use xlink:href="#DejaVuSans-65" transform="translate(594.482422 0.015625)"/>
      <use xlink:href="#DejaVuSans-3a" transform="translate(656.005859 0.015625)"/>
      <use xlink:href="#DejaVuSans-20" transform="translate(689.697266 0.015625)"/>
      <use xlink:href="#DejaVuSans-Oblique-49" transform="translate(721.484375 0.015625)"/>
      <use xlink:href="#DejaVuSans-32" transform="translate(750.976562 -16.390625)scale(0.7)"/>
      <use xlink:href="#DejaVuSans-Oblique-44" transform="translate(795.512695 -16.390625)scale(0.7)"/>
      <use xlink:href="#DejaVuSans-2f" transform="translate(852.148438 0.015625)"/>
      <use xlink:href="#DejaVuSans-Oblique-49" transform="translate(885.839844 0.015625)"/>
      <use xlink:href="#DejaVuSans-Oblique-47" transform="translate(915.332031 -16.390625)scale(0.7)"/>
      <use xlink:href="#DejaVuSans-3d" transform="translate(972.30957 0.015625)"/>
      <use xlink:href="#DejaVuSans-31" transform="translate(1056.098633 0.015625)"/>
      <use xlink:href="#DejaVuSans-2e" transform="translate(1119.72168 0.015625)"/>
      <use xlink:href="#DejaVuSans-31" transform="translate(1151.508789 0.015625)"/>
      <use xlink:href="#DejaVuSans-36" transform="translate(1215.131836 0.015625)"/>
      <use xlink:href="#DejaVuSans-33" transform="translate(1278.754883 0.015625)"/>
      <use xlink:href="#DejaVuSans-37" transform="translate(1342.37793 0.015625)"/>
      <use xlink:href="#DejaVuSans-b1" transform="translate(1406.000977 0.015625)"/>
      <use xlink:href="#DejaVuSans-30" transform="translate(1489.790039 0.015625)"/>
      <use xlink:href="#DejaVuSans-2e" transform="translate(1553.413086 0.015625)"/>
      <use xlink:href="#DejaVuSans-31" transform="translate(1585.200195 0.015625)"/>
      <use xlink:href="#DejaVuSans-38" transform="translate(1648.823242 0.015625)"/>
      <use xlink:href="#DejaVuSans-35" transform="translate(1712.446289 0.015625)"/>
      <use xlink:href="#DejaVuSans-34" transform="translate(1776.069336 0.015625)"/>
     </g>
    </g>
   </g>
  </g>
 </g>
 <defs>
  <clipPath id="pf89120ca65">
   <rect x="49.84524" y="22.68024" width="523.15452" height="364.34952"/>
  </clipPath>
 </defs>
</svg>
