<?xml version="1.0" encoding="utf-8" standalone="no"?>
<!DOCTYPE svg PUBLIC "-//W3C//DTD SVG 1.1//EN"
  "http://www.w3.org/Graphics/SVG/1.1/DTD/svg11.dtd">
<svg xmlns:xlink="http://www.w3.org/1999/xlink" width="576pt" height="432pt" viewBox="0 0 576 432" xmlns="http://www.w3.org/2000/svg" version="1.1">
 <metadata>
  <rdf:RDF xmlns:dc="http://purl.org/dc/elements/1.1/" xmlns:cc="http://creativecommons.org/ns#" xmlns:rdf="http://www.w3.org/1999/02/22-rdf-syntax-ns#">
   <cc:Work>
    <dc:type rdf:resource="http://purl.org/dc/dcmitype/StillImage"/>
    <dc:date>2023-07-19T18:32:13.729649</dc:date>
    <dc:format>image/svg+xml</dc:format>
    <dc:creator>
     <cc:Agent>
      <dc:title>Matplotlib v3.5.2, https://matplotlib.org/</dc:title>
     </cc:Agent>
    </dc:creator>
   </cc:Work>
  </rdf:RDF>
 </metadata>
 <defs>
  <style type="text/css">*{stroke-linejoin: round; stroke-linecap: butt}</style>
 </defs>
 <g id="figure_1">
  <g id="patch_1">
   <path d="M 0 432 
L 576 432 
L 576 0 
L 0 0 
z
" style="fill: #ffffff"/>
  </g>
  <g id="axes_1">
   <g id="patch_2">
    <path d="M 49.84524 386.51476 
L 572.99976 386.51476 
L 572.99976 22.677427 
L 49.84524 22.677427 
z
" style="fill: #ffffff"/>
   </g>
   <g id="patch_3">
    <path d="M 77.491617 386.51476 
L 89.091496 386.51476 
L 89.091496 304.982585 
L 77.491617 304.982585 
z
" clip-path="url(#p9d8724cfaf)" style="fill: #6f6f6f; opacity: 0.5; stroke: #000000; stroke-linejoin: miter"/>
   </g>
   <g id="patch_4">
    <path d="M 89.091496 386.51476 
L 100.691374 386.51476 
L 100.691374 386.51476 
L 89.091496 386.51476 
z
" clip-path="url(#p9d8724cfaf)" style="fill: #6f6f6f; opacity: 0.5; stroke: #000000; stroke-linejoin: miter"/>
   </g>
   <g id="patch_5">
    <path d="M 100.691374 386.51476 
L 112.291253 386.51476 
L 112.291253 386.51476 
L 100.691374 386.51476 
z
" clip-path="url(#p9d8724cfaf)" style="fill: #6f6f6f; opacity: 0.5; stroke: #000000; stroke-linejoin: miter"/>
   </g>
   <g id="patch_6">
    <path d="M 112.291253 386.51476 
L 123.891131 386.51476 
L 123.891131 386.51476 
L 112.291253 386.51476 
z
" clip-path="url(#p9d8724cfaf)" style="fill: #6f6f6f; opacity: 0.5; stroke: #000000; stroke-linejoin: miter"/>
   </g>
   <g id="patch_7">
    <path d="M 123.891131 386.51476 
L 135.49101 386.51476 
L 135.49101 386.51476 
L 123.891131 386.51476 
z
" clip-path="url(#p9d8724cfaf)" style="fill: #6f6f6f; opacity: 0.5; stroke: #000000; stroke-linejoin: miter"/>
   </g>
   <g id="patch_8">
    <path d="M 135.49101 386.51476 
L 147.090888 386.51476 
L 147.090888 386.51476 
L 135.49101 386.51476 
z
" clip-path="url(#p9d8724cfaf)" style="fill: #6f6f6f; opacity: 0.5; stroke: #000000; stroke-linejoin: miter"/>
   </g>
   <g id="patch_9">
    <path d="M 147.090888 386.51476 
L 158.690767 386.51476 
L 158.690767 386.51476 
L 147.090888 386.51476 
z
" clip-path="url(#p9d8724cfaf)" style="fill: #6f6f6f; opacity: 0.5; stroke: #000000; stroke-linejoin: miter"/>
   </g>
   <g id="patch_10">
    <path d="M 158.690767 386.51476 
L 170.290645 386.51476 
L 170.290645 386.51476 
L 158.690767 386.51476 
z
" clip-path="url(#p9d8724cfaf)" style="fill: #6f6f6f; opacity: 0.5; stroke: #000000; stroke-linejoin: miter"/>
   </g>
   <g id="patch_11">
    <path d="M 170.290645 386.51476 
L 181.890524 386.51476 
L 181.890524 386.51476 
L 170.290645 386.51476 
z
" clip-path="url(#p9d8724cfaf)" style="fill: #6f6f6f; opacity: 0.5; stroke: #000000; stroke-linejoin: miter"/>
   </g>
   <g id="patch_12">
    <path d="M 181.890524 386.51476 
L 193.490402 386.51476 
L 193.490402 386.51476 
L 181.890524 386.51476 
z
" clip-path="url(#p9d8724cfaf)" style="fill: #6f6f6f; opacity: 0.5; stroke: #000000; stroke-linejoin: miter"/>
   </g>
   <g id="patch_13">
    <path d="M 193.490402 386.51476 
L 205.09028 386.51476 
L 205.09028 386.51476 
L 193.490402 386.51476 
z
" clip-path="url(#p9d8724cfaf)" style="fill: #6f6f6f; opacity: 0.5; stroke: #000000; stroke-linejoin: miter"/>
   </g>
   <g id="patch_14">
    <path d="M 205.09028 386.51476 
L 216.690159 386.51476 
L 216.690159 386.51476 
L 205.09028 386.51476 
z
" clip-path="url(#p9d8724cfaf)" style="fill: #6f6f6f; opacity: 0.5; stroke: #000000; stroke-linejoin: miter"/>
   </g>
   <g id="patch_15">
    <path d="M 216.690159 386.51476 
L 228.290037 386.51476 
L 228.290037 386.51476 
L 216.690159 386.51476 
z
" clip-path="url(#p9d8724cfaf)" style="fill: #6f6f6f; opacity: 0.5; stroke: #000000; stroke-linejoin: miter"/>
   </g>
   <g id="patch_16">
    <path d="M 228.290037 386.51476 
L 239.889916 386.51476 
L 239.889916 141.918234 
L 228.290037 141.918234 
z
" clip-path="url(#p9d8724cfaf)" style="fill: #6f6f6f; opacity: 0.5; stroke: #000000; stroke-linejoin: miter"/>
   </g>
   <g id="patch_17">
    <path d="M 239.889916 386.51476 
L 251.489794 386.51476 
L 251.489794 386.51476 
L 239.889916 386.51476 
z
" clip-path="url(#p9d8724cfaf)" style="fill: #6f6f6f; opacity: 0.5; stroke: #000000; stroke-linejoin: miter"/>
   </g>
   <g id="patch_18">
    <path d="M 251.489794 386.51476 
L 263.089673 386.51476 
L 263.089673 386.51476 
L 251.489794 386.51476 
z
" clip-path="url(#p9d8724cfaf)" style="fill: #6f6f6f; opacity: 0.5; stroke: #000000; stroke-linejoin: miter"/>
   </g>
   <g id="patch_19">
    <path d="M 263.089673 386.51476 
L 274.689551 386.51476 
L 274.689551 386.51476 
L 263.089673 386.51476 
z
" clip-path="url(#p9d8724cfaf)" style="fill: #6f6f6f; opacity: 0.5; stroke: #000000; stroke-linejoin: miter"/>
   </g>
   <g id="patch_20">
    <path d="M 274.689551 386.51476 
L 286.28943 386.51476 
L 286.28943 386.51476 
L 274.689551 386.51476 
z
" clip-path="url(#p9d8724cfaf)" style="fill: #6f6f6f; opacity: 0.5; stroke: #000000; stroke-linejoin: miter"/>
   </g>
   <g id="patch_21">
    <path d="M 286.28943 386.51476 
L 297.889308 386.51476 
L 297.889308 386.51476 
L 286.28943 386.51476 
z
" clip-path="url(#p9d8724cfaf)" style="fill: #6f6f6f; opacity: 0.5; stroke: #000000; stroke-linejoin: miter"/>
   </g>
   <g id="patch_22">
    <path d="M 297.889308 386.51476 
L 309.489187 386.51476 
L 309.489187 386.51476 
L 297.889308 386.51476 
z
" clip-path="url(#p9d8724cfaf)" style="fill: #6f6f6f; opacity: 0.5; stroke: #000000; stroke-linejoin: miter"/>
   </g>
   <g id="patch_23">
    <path d="M 309.489187 386.51476 
L 321.089065 386.51476 
L 321.089065 386.51476 
L 309.489187 386.51476 
z
" clip-path="url(#p9d8724cfaf)" style="fill: #6f6f6f; opacity: 0.5; stroke: #000000; stroke-linejoin: miter"/>
   </g>
   <g id="patch_24">
    <path d="M 321.089065 386.51476 
L 332.688944 386.51476 
L 332.688944 386.51476 
L 321.089065 386.51476 
z
" clip-path="url(#p9d8724cfaf)" style="fill: #6f6f6f; opacity: 0.5; stroke: #000000; stroke-linejoin: miter"/>
   </g>
   <g id="patch_25">
    <path d="M 332.688944 386.51476 
L 344.288822 386.51476 
L 344.288822 101.152146 
L 332.688944 101.152146 
z
" clip-path="url(#p9d8724cfaf)" style="fill: #6f6f6f; opacity: 0.5; stroke: #000000; stroke-linejoin: miter"/>
   </g>
   <g id="patch_26">
    <path d="M 344.288822 386.51476 
L 355.888701 386.51476 
L 355.888701 284.599541 
L 344.288822 284.599541 
z
" clip-path="url(#p9d8724cfaf)" style="fill: #6f6f6f; opacity: 0.5; stroke: #000000; stroke-linejoin: miter"/>
   </g>
   <g id="patch_27">
    <path d="M 355.888701 386.51476 
L 367.488579 386.51476 
L 367.488579 386.51476 
L 355.888701 386.51476 
z
" clip-path="url(#p9d8724cfaf)" style="fill: #6f6f6f; opacity: 0.5; stroke: #000000; stroke-linejoin: miter"/>
   </g>
   <g id="patch_28">
    <path d="M 367.488579 386.51476 
L 379.088458 386.51476 
L 379.088458 386.51476 
L 367.488579 386.51476 
z
" clip-path="url(#p9d8724cfaf)" style="fill: #6f6f6f; opacity: 0.5; stroke: #000000; stroke-linejoin: miter"/>
   </g>
   <g id="patch_29">
    <path d="M 379.088458 386.51476 
L 390.688336 386.51476 
L 390.688336 386.51476 
L 379.088458 386.51476 
z
" clip-path="url(#p9d8724cfaf)" style="fill: #6f6f6f; opacity: 0.5; stroke: #000000; stroke-linejoin: miter"/>
   </g>
   <g id="patch_30">
    <path d="M 390.688336 386.51476 
L 402.288215 386.51476 
L 402.288215 366.131716 
L 390.688336 366.131716 
z
" clip-path="url(#p9d8724cfaf)" style="fill: #6f6f6f; opacity: 0.5; stroke: #000000; stroke-linejoin: miter"/>
   </g>
   <g id="patch_31">
    <path d="M 402.288215 386.51476 
L 413.888093 386.51476 
L 413.888093 386.51476 
L 402.288215 386.51476 
z
" clip-path="url(#p9d8724cfaf)" style="fill: #6f6f6f; opacity: 0.5; stroke: #000000; stroke-linejoin: miter"/>
   </g>
   <g id="patch_32">
    <path d="M 413.888093 386.51476 
L 425.487972 386.51476 
L 425.487972 386.51476 
L 413.888093 386.51476 
z
" clip-path="url(#p9d8724cfaf)" style="fill: #6f6f6f; opacity: 0.5; stroke: #000000; stroke-linejoin: miter"/>
   </g>
   <g id="patch_33">
    <path d="M 425.487972 386.51476 
L 437.08785 386.51476 
L 437.08785 60.386059 
L 425.487972 60.386059 
z
" clip-path="url(#p9d8724cfaf)" style="fill: #6f6f6f; opacity: 0.5; stroke: #000000; stroke-linejoin: miter"/>
   </g>
   <g id="patch_34">
    <path d="M 437.08785 386.51476 
L 448.687729 386.51476 
L 448.687729 345.748672 
L 437.08785 345.748672 
z
" clip-path="url(#p9d8724cfaf)" style="fill: #6f6f6f; opacity: 0.5; stroke: #000000; stroke-linejoin: miter"/>
   </g>
   <g id="patch_35">
    <path d="M 448.687729 386.51476 
L 460.287607 386.51476 
L 460.287607 386.51476 
L 448.687729 386.51476 
z
" clip-path="url(#p9d8724cfaf)" style="fill: #6f6f6f; opacity: 0.5; stroke: #000000; stroke-linejoin: miter"/>
   </g>
   <g id="patch_36">
    <path d="M 460.287607 386.51476 
L 471.887486 386.51476 
L 471.887486 386.51476 
L 460.287607 386.51476 
z
" clip-path="url(#p9d8724cfaf)" style="fill: #6f6f6f; opacity: 0.5; stroke: #000000; stroke-linejoin: miter"/>
   </g>
   <g id="patch_37">
    <path d="M 471.887486 386.51476 
L 483.487364 386.51476 
L 483.487364 386.51476 
L 471.887486 386.51476 
z
" clip-path="url(#p9d8724cfaf)" style="fill: #6f6f6f; opacity: 0.5; stroke: #000000; stroke-linejoin: miter"/>
   </g>
   <g id="patch_38">
    <path d="M 483.487364 386.51476 
L 495.087243 386.51476 
L 495.087243 386.51476 
L 483.487364 386.51476 
z
" clip-path="url(#p9d8724cfaf)" style="fill: #6f6f6f; opacity: 0.5; stroke: #000000; stroke-linejoin: miter"/>
   </g>
   <g id="patch_39">
    <path d="M 495.087243 386.51476 
L 506.687121 386.51476 
L 506.687121 386.51476 
L 495.087243 386.51476 
z
" clip-path="url(#p9d8724cfaf)" style="fill: #6f6f6f; opacity: 0.5; stroke: #000000; stroke-linejoin: miter"/>
   </g>
   <g id="patch_40">
    <path d="M 506.687121 386.51476 
L 518.287 386.51476 
L 518.287 386.51476 
L 506.687121 386.51476 
z
" clip-path="url(#p9d8724cfaf)" style="fill: #6f6f6f; opacity: 0.5; stroke: #000000; stroke-linejoin: miter"/>
   </g>
   <g id="patch_41">
    <path d="M 518.287 386.51476 
L 529.886878 386.51476 
L 529.886878 386.51476 
L 518.287 386.51476 
z
" clip-path="url(#p9d8724cfaf)" style="fill: #6f6f6f; opacity: 0.5; stroke: #000000; stroke-linejoin: miter"/>
   </g>
   <g id="patch_42">
    <path d="M 529.886878 386.51476 
L 541.486757 386.51476 
L 541.486757 284.599541 
L 529.886878 284.599541 
z
" clip-path="url(#p9d8724cfaf)" style="fill: #6f6f6f; opacity: 0.5; stroke: #000000; stroke-linejoin: miter"/>
   </g>
   <g id="patch_43">
    <path d="M 73.624991 386.51476 
L 85.224869 386.51476 
L 85.224869 345.748672 
L 73.624991 345.748672 
z
" clip-path="url(#p9d8724cfaf)" style="fill: #008aba; opacity: 0.5; stroke: #000000; stroke-linejoin: miter"/>
   </g>
   <g id="patch_44">
    <path d="M 85.224869 386.51476 
L 96.824748 386.51476 
L 96.824748 345.748672 
L 85.224869 345.748672 
z
" clip-path="url(#p9d8724cfaf)" style="fill: #008aba; opacity: 0.5; stroke: #000000; stroke-linejoin: miter"/>
   </g>
   <g id="patch_45">
    <path d="M 96.824748 386.51476 
L 108.424626 386.51476 
L 108.424626 386.51476 
L 96.824748 386.51476 
z
" clip-path="url(#p9d8724cfaf)" style="fill: #008aba; opacity: 0.5; stroke: #000000; stroke-linejoin: miter"/>
   </g>
   <g id="patch_46">
    <path d="M 108.424626 386.51476 
L 120.024505 386.51476 
L 120.024505 386.51476 
L 108.424626 386.51476 
z
" clip-path="url(#p9d8724cfaf)" style="fill: #008aba; opacity: 0.5; stroke: #000000; stroke-linejoin: miter"/>
   </g>
   <g id="patch_47">
    <path d="M 120.024505 386.51476 
L 131.624383 386.51476 
L 131.624383 386.51476 
L 120.024505 386.51476 
z
" clip-path="url(#p9d8724cfaf)" style="fill: #008aba; opacity: 0.5; stroke: #000000; stroke-linejoin: miter"/>
   </g>
   <g id="patch_48">
    <path d="M 131.624383 386.51476 
L 143.224262 386.51476 
L 143.224262 386.51476 
L 131.624383 386.51476 
z
" clip-path="url(#p9d8724cfaf)" style="fill: #008aba; opacity: 0.5; stroke: #000000; stroke-linejoin: miter"/>
   </g>
   <g id="patch_49">
    <path d="M 143.224262 386.51476 
L 154.82414 386.51476 
L 154.82414 386.51476 
L 143.224262 386.51476 
z
" clip-path="url(#p9d8724cfaf)" style="fill: #008aba; opacity: 0.5; stroke: #000000; stroke-linejoin: miter"/>
   </g>
   <g id="patch_50">
    <path d="M 154.82414 386.51476 
L 166.424019 386.51476 
L 166.424019 386.51476 
L 154.82414 386.51476 
z
" clip-path="url(#p9d8724cfaf)" style="fill: #008aba; opacity: 0.5; stroke: #000000; stroke-linejoin: miter"/>
   </g>
   <g id="patch_51">
    <path d="M 166.424019 386.51476 
L 178.023897 386.51476 
L 178.023897 386.51476 
L 166.424019 386.51476 
z
" clip-path="url(#p9d8724cfaf)" style="fill: #008aba; opacity: 0.5; stroke: #000000; stroke-linejoin: miter"/>
   </g>
   <g id="patch_52">
    <path d="M 178.023897 386.51476 
L 189.623776 386.51476 
L 189.623776 386.51476 
L 178.023897 386.51476 
z
" clip-path="url(#p9d8724cfaf)" style="fill: #008aba; opacity: 0.5; stroke: #000000; stroke-linejoin: miter"/>
   </g>
   <g id="patch_53">
    <path d="M 189.623776 386.51476 
L 201.223654 386.51476 
L 201.223654 366.131716 
L 189.623776 366.131716 
z
" clip-path="url(#p9d8724cfaf)" style="fill: #008aba; opacity: 0.5; stroke: #000000; stroke-linejoin: miter"/>
   </g>
   <g id="patch_54">
    <path d="M 201.223654 386.51476 
L 212.823533 386.51476 
L 212.823533 386.51476 
L 201.223654 386.51476 
z
" clip-path="url(#p9d8724cfaf)" style="fill: #008aba; opacity: 0.5; stroke: #000000; stroke-linejoin: miter"/>
   </g>
   <g id="patch_55">
    <path d="M 212.823533 386.51476 
L 224.423411 386.51476 
L 224.423411 386.51476 
L 212.823533 386.51476 
z
" clip-path="url(#p9d8724cfaf)" style="fill: #008aba; opacity: 0.5; stroke: #000000; stroke-linejoin: miter"/>
   </g>
   <g id="patch_56">
    <path d="M 224.423411 386.51476 
L 236.02329 386.51476 
L 236.02329 366.131716 
L 224.423411 366.131716 
z
" clip-path="url(#p9d8724cfaf)" style="fill: #008aba; opacity: 0.5; stroke: #000000; stroke-linejoin: miter"/>
   </g>
   <g id="patch_57">
    <path d="M 236.02329 386.51476 
L 247.623168 386.51476 
L 247.623168 141.918234 
L 236.02329 141.918234 
z
" clip-path="url(#p9d8724cfaf)" style="fill: #008aba; opacity: 0.5; stroke: #000000; stroke-linejoin: miter"/>
   </g>
   <g id="patch_58">
    <path d="M 247.623168 386.51476 
L 259.223047 386.51476 
L 259.223047 304.982585 
L 247.623168 304.982585 
z
" clip-path="url(#p9d8724cfaf)" style="fill: #008aba; opacity: 0.5; stroke: #000000; stroke-linejoin: miter"/>
   </g>
   <g id="patch_59">
    <path d="M 259.223047 386.51476 
L 270.822925 386.51476 
L 270.822925 386.51476 
L 259.223047 386.51476 
z
" clip-path="url(#p9d8724cfaf)" style="fill: #008aba; opacity: 0.5; stroke: #000000; stroke-linejoin: miter"/>
   </g>
   <g id="patch_60">
    <path d="M 270.822925 386.51476 
L 282.422804 386.51476 
L 282.422804 386.51476 
L 270.822925 386.51476 
z
" clip-path="url(#p9d8724cfaf)" style="fill: #008aba; opacity: 0.5; stroke: #000000; stroke-linejoin: miter"/>
   </g>
   <g id="patch_61">
    <path d="M 282.422804 386.51476 
L 294.022682 386.51476 
L 294.022682 386.51476 
L 282.422804 386.51476 
z
" clip-path="url(#p9d8724cfaf)" style="fill: #008aba; opacity: 0.5; stroke: #000000; stroke-linejoin: miter"/>
   </g>
   <g id="patch_62">
    <path d="M 294.022682 386.51476 
L 305.622561 386.51476 
L 305.622561 386.51476 
L 294.022682 386.51476 
z
" clip-path="url(#p9d8724cfaf)" style="fill: #008aba; opacity: 0.5; stroke: #000000; stroke-linejoin: miter"/>
   </g>
   <g id="patch_63">
    <path d="M 305.622561 386.51476 
L 317.222439 386.51476 
L 317.222439 386.51476 
L 305.622561 386.51476 
z
" clip-path="url(#p9d8724cfaf)" style="fill: #008aba; opacity: 0.5; stroke: #000000; stroke-linejoin: miter"/>
   </g>
   <g id="patch_64">
    <path d="M 317.222439 386.51476 
L 328.822318 386.51476 
L 328.822318 386.51476 
L 317.222439 386.51476 
z
" clip-path="url(#p9d8724cfaf)" style="fill: #008aba; opacity: 0.5; stroke: #000000; stroke-linejoin: miter"/>
   </g>
   <g id="patch_65">
    <path d="M 328.822318 386.51476 
L 340.422196 386.51476 
L 340.422196 366.131716 
L 328.822318 366.131716 
z
" clip-path="url(#p9d8724cfaf)" style="fill: #008aba; opacity: 0.5; stroke: #000000; stroke-linejoin: miter"/>
   </g>
   <g id="patch_66">
    <path d="M 340.422196 386.51476 
L 352.022075 386.51476 
L 352.022075 40.003015 
L 340.422196 40.003015 
z
" clip-path="url(#p9d8724cfaf)" style="fill: #008aba; opacity: 0.5; stroke: #000000; stroke-linejoin: miter"/>
   </g>
   <g id="patch_67">
    <path d="M 352.022075 386.51476 
L 363.621953 386.51476 
L 363.621953 345.748672 
L 352.022075 345.748672 
z
" clip-path="url(#p9d8724cfaf)" style="fill: #008aba; opacity: 0.5; stroke: #000000; stroke-linejoin: miter"/>
   </g>
   <g id="patch_68">
    <path d="M 363.621953 386.51476 
L 375.221832 386.51476 
L 375.221832 386.51476 
L 363.621953 386.51476 
z
" clip-path="url(#p9d8724cfaf)" style="fill: #008aba; opacity: 0.5; stroke: #000000; stroke-linejoin: miter"/>
   </g>
   <g id="patch_69">
    <path d="M 375.221832 386.51476 
L 386.82171 386.51476 
L 386.82171 386.51476 
L 375.221832 386.51476 
z
" clip-path="url(#p9d8724cfaf)" style="fill: #008aba; opacity: 0.5; stroke: #000000; stroke-linejoin: miter"/>
   </g>
   <g id="patch_70">
    <path d="M 386.82171 386.51476 
L 398.421589 386.51476 
L 398.421589 386.51476 
L 386.82171 386.51476 
z
" clip-path="url(#p9d8724cfaf)" style="fill: #008aba; opacity: 0.5; stroke: #000000; stroke-linejoin: miter"/>
   </g>
   <g id="patch_71">
    <path d="M 398.421589 386.51476 
L 410.021467 386.51476 
L 410.021467 386.51476 
L 398.421589 386.51476 
z
" clip-path="url(#p9d8724cfaf)" style="fill: #008aba; opacity: 0.5; stroke: #000000; stroke-linejoin: miter"/>
   </g>
   <g id="patch_72">
    <path d="M 410.021467 386.51476 
L 421.621346 386.51476 
L 421.621346 386.51476 
L 410.021467 386.51476 
z
" clip-path="url(#p9d8724cfaf)" style="fill: #008aba; opacity: 0.5; stroke: #000000; stroke-linejoin: miter"/>
   </g>
   <g id="patch_73">
    <path d="M 421.621346 386.51476 
L 433.221224 386.51476 
L 433.221224 386.51476 
L 421.621346 386.51476 
z
" clip-path="url(#p9d8724cfaf)" style="fill: #008aba; opacity: 0.5; stroke: #000000; stroke-linejoin: miter"/>
   </g>
   <g id="patch_74">
    <path d="M 433.221224 386.51476 
L 444.821103 386.51476 
L 444.821103 40.003015 
L 433.221224 40.003015 
z
" clip-path="url(#p9d8724cfaf)" style="fill: #008aba; opacity: 0.5; stroke: #000000; stroke-linejoin: miter"/>
   </g>
   <g id="patch_75">
    <path d="M 444.821103 386.51476 
L 456.420981 386.51476 
L 456.420981 325.365628 
L 444.821103 325.365628 
z
" clip-path="url(#p9d8724cfaf)" style="fill: #008aba; opacity: 0.5; stroke: #000000; stroke-linejoin: miter"/>
   </g>
   <g id="patch_76">
    <path d="M 456.420981 386.51476 
L 468.02086 386.51476 
L 468.02086 386.51476 
L 456.420981 386.51476 
z
" clip-path="url(#p9d8724cfaf)" style="fill: #008aba; opacity: 0.5; stroke: #000000; stroke-linejoin: miter"/>
   </g>
   <g id="patch_77">
    <path d="M 468.02086 386.51476 
L 479.620738 386.51476 
L 479.620738 386.51476 
L 468.02086 386.51476 
z
" clip-path="url(#p9d8724cfaf)" style="fill: #008aba; opacity: 0.5; stroke: #000000; stroke-linejoin: miter"/>
   </g>
   <g id="patch_78">
    <path d="M 479.620738 386.51476 
L 491.220617 386.51476 
L 491.220617 386.51476 
L 479.620738 386.51476 
z
" clip-path="url(#p9d8724cfaf)" style="fill: #008aba; opacity: 0.5; stroke: #000000; stroke-linejoin: miter"/>
   </g>
   <g id="patch_79">
    <path d="M 491.220617 386.51476 
L 502.820495 386.51476 
L 502.820495 386.51476 
L 491.220617 386.51476 
z
" clip-path="url(#p9d8724cfaf)" style="fill: #008aba; opacity: 0.5; stroke: #000000; stroke-linejoin: miter"/>
   </g>
   <g id="patch_80">
    <path d="M 502.820495 386.51476 
L 514.420374 386.51476 
L 514.420374 386.51476 
L 502.820495 386.51476 
z
" clip-path="url(#p9d8724cfaf)" style="fill: #008aba; opacity: 0.5; stroke: #000000; stroke-linejoin: miter"/>
   </g>
   <g id="patch_81">
    <path d="M 514.420374 386.51476 
L 526.020252 386.51476 
L 526.020252 386.51476 
L 514.420374 386.51476 
z
" clip-path="url(#p9d8724cfaf)" style="fill: #008aba; opacity: 0.5; stroke: #000000; stroke-linejoin: miter"/>
   </g>
   <g id="patch_82">
    <path d="M 526.020252 386.51476 
L 537.620131 386.51476 
L 537.620131 386.51476 
L 526.020252 386.51476 
z
" clip-path="url(#p9d8724cfaf)" style="fill: #008aba; opacity: 0.5; stroke: #000000; stroke-linejoin: miter"/>
   </g>
   <g id="patch_83">
    <path d="M 537.620131 386.51476 
L 549.220009 386.51476 
L 549.220009 121.53519 
L 537.620131 121.53519 
z
" clip-path="url(#p9d8724cfaf)" style="fill: #008aba; opacity: 0.5; stroke: #000000; stroke-linejoin: miter"/>
   </g>
   <g id="matplotlib.axis_1">
    <g id="xtick_1">
     <g id="line2d_1">
      <defs>
       <path id="m5cbd159567" d="M 0 0 
L 0 3.5 
" style="stroke: #000000; stroke-width: 0.8"/>
      </defs>
      <g>
       <use xlink:href="#m5cbd159567" x="77.491617" y="386.51476" style="stroke: #000000; stroke-width: 0.8"/>
      </g>
     </g>
     <g id="text_1">
      <!-- 210 -->
      <g transform="translate(62.221617 405.67226)scale(0.16 -0.16)">
       <defs>
        <path id="DejaVuSans-32" d="M 1228 531 
L 3431 531 
L 3431 0 
L 469 0 
L 469 531 
Q 828 903 1448 1529 
Q 2069 2156 2228 2338 
Q 2531 2678 2651 2914 
Q 2772 3150 2772 3378 
Q 2772 3750 2511 3984 
Q 2250 4219 1831 4219 
Q 1534 4219 1204 4116 
Q 875 4013 500 3803 
L 500 4441 
Q 881 4594 1212 4672 
Q 1544 4750 1819 4750 
Q 2544 4750 2975 4387 
Q 3406 4025 3406 3419 
Q 3406 3131 3298 2873 
Q 3191 2616 2906 2266 
Q 2828 2175 2409 1742 
Q 1991 1309 1228 531 
z
" transform="scale(0.015625)"/>
        <path id="DejaVuSans-31" d="M 794 531 
L 1825 531 
L 1825 4091 
L 703 3866 
L 703 4441 
L 1819 4666 
L 2450 4666 
L 2450 531 
L 3481 531 
L 3481 0 
L 794 0 
L 794 531 
z
" transform="scale(0.015625)"/>
        <path id="DejaVuSans-30" d="M 2034 4250 
Q 1547 4250 1301 3770 
Q 1056 3291 1056 2328 
Q 1056 1369 1301 889 
Q 1547 409 2034 409 
Q 2525 409 2770 889 
Q 3016 1369 3016 2328 
Q 3016 3291 2770 3770 
Q 2525 4250 2034 4250 
z
M 2034 4750 
Q 2819 4750 3233 4129 
Q 3647 3509 3647 2328 
Q 3647 1150 3233 529 
Q 2819 -91 2034 -91 
Q 1250 -91 836 529 
Q 422 1150 422 2328 
Q 422 3509 836 4129 
Q 1250 4750 2034 4750 
z
" transform="scale(0.015625)"/>
       </defs>
       <use xlink:href="#DejaVuSans-32"/>
       <use xlink:href="#DejaVuSans-31" x="63.623047"/>
       <use xlink:href="#DejaVuSans-30" x="127.246094"/>
      </g>
     </g>
    </g>
    <g id="xtick_2">
     <g id="line2d_2">
      <g>
       <use xlink:href="#m5cbd159567" x="135.49101" y="386.51476" style="stroke: #000000; stroke-width: 0.8"/>
      </g>
     </g>
     <g id="text_2">
      <!-- 225 -->
      <g transform="translate(120.22101 405.67226)scale(0.16 -0.16)">
       <defs>
        <path id="DejaVuSans-35" d="M 691 4666 
L 3169 4666 
L 3169 4134 
L 1269 4134 
L 1269 2991 
Q 1406 3038 1543 3061 
Q 1681 3084 1819 3084 
Q 2600 3084 3056 2656 
Q 3513 2228 3513 1497 
Q 3513 744 3044 326 
Q 2575 -91 1722 -91 
Q 1428 -91 1123 -41 
Q 819 9 494 109 
L 494 744 
Q 775 591 1075 516 
Q 1375 441 1709 441 
Q 2250 441 2565 725 
Q 2881 1009 2881 1497 
Q 2881 1984 2565 2268 
Q 2250 2553 1709 2553 
Q 1456 2553 1204 2497 
Q 953 2441 691 2322 
L 691 4666 
z
" transform="scale(0.015625)"/>
       </defs>
       <use xlink:href="#DejaVuSans-32"/>
       <use xlink:href="#DejaVuSans-32" x="63.623047"/>
       <use xlink:href="#DejaVuSans-35" x="127.246094"/>
      </g>
     </g>
    </g>
    <g id="xtick_3">
     <g id="line2d_3">
      <g>
       <use xlink:href="#m5cbd159567" x="193.490402" y="386.51476" style="stroke: #000000; stroke-width: 0.8"/>
      </g>
     </g>
     <g id="text_3">
      <!-- 240 -->
      <g transform="translate(178.220402 405.67226)scale(0.16 -0.16)">
       <defs>
        <path id="DejaVuSans-34" d="M 2419 4116 
L 825 1625 
L 2419 1625 
L 2419 4116 
z
M 2253 4666 
L 3047 4666 
L 3047 1625 
L 3713 1625 
L 3713 1100 
L 3047 1100 
L 3047 0 
L 2419 0 
L 2419 1100 
L 313 1100 
L 313 1709 
L 2253 4666 
z
" transform="scale(0.015625)"/>
       </defs>
       <use xlink:href="#DejaVuSans-32"/>
       <use xlink:href="#DejaVuSans-34" x="63.623047"/>
       <use xlink:href="#DejaVuSans-30" x="127.246094"/>
      </g>
     </g>
    </g>
    <g id="xtick_4">
     <g id="line2d_4">
      <g>
       <use xlink:href="#m5cbd159567" x="251.489794" y="386.51476" style="stroke: #000000; stroke-width: 0.8"/>
      </g>
     </g>
     <g id="text_4">
      <!-- 255 -->
      <g transform="translate(236.219794 405.67226)scale(0.16 -0.16)">
       <use xlink:href="#DejaVuSans-32"/>
       <use xlink:href="#DejaVuSans-35" x="63.623047"/>
       <use xlink:href="#DejaVuSans-35" x="127.246094"/>
      </g>
     </g>
    </g>
    <g id="xtick_5">
     <g id="line2d_5">
      <g>
       <use xlink:href="#m5cbd159567" x="309.489187" y="386.51476" style="stroke: #000000; stroke-width: 0.8"/>
      </g>
     </g>
     <g id="text_5">
      <!-- 270 -->
      <g transform="translate(294.219187 405.67226)scale(0.16 -0.16)">
       <defs>
        <path id="DejaVuSans-37" d="M 525 4666 
L 3525 4666 
L 3525 4397 
L 1831 0 
L 1172 0 
L 2766 4134 
L 525 4134 
L 525 4666 
z
" transform="scale(0.015625)"/>
       </defs>
       <use xlink:href="#DejaVuSans-32"/>
       <use xlink:href="#DejaVuSans-37" x="63.623047"/>
       <use xlink:href="#DejaVuSans-30" x="127.246094"/>
      </g>
     </g>
    </g>
    <g id="xtick_6">
     <g id="line2d_6">
      <g>
       <use xlink:href="#m5cbd159567" x="367.488579" y="386.51476" style="stroke: #000000; stroke-width: 0.8"/>
      </g>
     </g>
     <g id="text_6">
      <!-- 285 -->
      <g transform="translate(352.218579 405.67226)scale(0.16 -0.16)">
       <defs>
        <path id="DejaVuSans-38" d="M 2034 2216 
Q 1584 2216 1326 1975 
Q 1069 1734 1069 1313 
Q 1069 891 1326 650 
Q 1584 409 2034 409 
Q 2484 409 2743 651 
Q 3003 894 3003 1313 
Q 3003 1734 2745 1975 
Q 2488 2216 2034 2216 
z
M 1403 2484 
Q 997 2584 770 2862 
Q 544 3141 544 3541 
Q 544 4100 942 4425 
Q 1341 4750 2034 4750 
Q 2731 4750 3128 4425 
Q 3525 4100 3525 3541 
Q 3525 3141 3298 2862 
Q 3072 2584 2669 2484 
Q 3125 2378 3379 2068 
Q 3634 1759 3634 1313 
Q 3634 634 3220 271 
Q 2806 -91 2034 -91 
Q 1263 -91 848 271 
Q 434 634 434 1313 
Q 434 1759 690 2068 
Q 947 2378 1403 2484 
z
M 1172 3481 
Q 1172 3119 1398 2916 
Q 1625 2713 2034 2713 
Q 2441 2713 2670 2916 
Q 2900 3119 2900 3481 
Q 2900 3844 2670 4047 
Q 2441 4250 2034 4250 
Q 1625 4250 1398 4047 
Q 1172 3844 1172 3481 
z
" transform="scale(0.015625)"/>
       </defs>
       <use xlink:href="#DejaVuSans-32"/>
       <use xlink:href="#DejaVuSans-38" x="63.623047"/>
       <use xlink:href="#DejaVuSans-35" x="127.246094"/>
      </g>
     </g>
    </g>
    <g id="xtick_7">
     <g id="line2d_7">
      <g>
       <use xlink:href="#m5cbd159567" x="425.487972" y="386.51476" style="stroke: #000000; stroke-width: 0.8"/>
      </g>
     </g>
     <g id="text_7">
      <!-- 300 -->
      <g transform="translate(410.217972 405.67226)scale(0.16 -0.16)">
       <defs>
        <path id="DejaVuSans-33" d="M 2597 2516 
Q 3050 2419 3304 2112 
Q 3559 1806 3559 1356 
Q 3559 666 3084 287 
Q 2609 -91 1734 -91 
Q 1441 -91 1130 -33 
Q 819 25 488 141 
L 488 750 
Q 750 597 1062 519 
Q 1375 441 1716 441 
Q 2309 441 2620 675 
Q 2931 909 2931 1356 
Q 2931 1769 2642 2001 
Q 2353 2234 1838 2234 
L 1294 2234 
L 1294 2753 
L 1863 2753 
Q 2328 2753 2575 2939 
Q 2822 3125 2822 3475 
Q 2822 3834 2567 4026 
Q 2313 4219 1838 4219 
Q 1578 4219 1281 4162 
Q 984 4106 628 3988 
L 628 4550 
Q 988 4650 1302 4700 
Q 1616 4750 1894 4750 
Q 2613 4750 3031 4423 
Q 3450 4097 3450 3541 
Q 3450 3153 3228 2886 
Q 3006 2619 2597 2516 
z
" transform="scale(0.015625)"/>
       </defs>
       <use xlink:href="#DejaVuSans-33"/>
       <use xlink:href="#DejaVuSans-30" x="63.623047"/>
       <use xlink:href="#DejaVuSans-30" x="127.246094"/>
      </g>
     </g>
    </g>
    <g id="xtick_8">
     <g id="line2d_8">
      <g>
       <use xlink:href="#m5cbd159567" x="483.487364" y="386.51476" style="stroke: #000000; stroke-width: 0.8"/>
      </g>
     </g>
     <g id="text_8">
      <!-- 315 -->
      <g transform="translate(468.217364 405.67226)scale(0.16 -0.16)">
       <use xlink:href="#DejaVuSans-33"/>
       <use xlink:href="#DejaVuSans-31" x="63.623047"/>
       <use xlink:href="#DejaVuSans-35" x="127.246094"/>
      </g>
     </g>
    </g>
    <g id="xtick_9">
     <g id="line2d_9">
      <g>
       <use xlink:href="#m5cbd159567" x="541.486757" y="386.51476" style="stroke: #000000; stroke-width: 0.8"/>
      </g>
     </g>
     <g id="text_9">
      <!-- 330 -->
      <g transform="translate(526.216757 405.67226)scale(0.16 -0.16)">
       <use xlink:href="#DejaVuSans-33"/>
       <use xlink:href="#DejaVuSans-33" x="63.623047"/>
       <use xlink:href="#DejaVuSans-30" x="127.246094"/>
      </g>
     </g>
    </g>
    <g id="text_10">
     <!-- Raman shift / $cm^{-1}$ -->
     <g transform="translate(234.3825 425.67226)scale(0.16 -0.16)">
      <defs>
       <path id="DejaVuSans-52" d="M 2841 2188 
Q 3044 2119 3236 1894 
Q 3428 1669 3622 1275 
L 4263 0 
L 3584 0 
L 2988 1197 
Q 2756 1666 2539 1819 
Q 2322 1972 1947 1972 
L 1259 1972 
L 1259 0 
L 628 0 
L 628 4666 
L 2053 4666 
Q 2853 4666 3247 4331 
Q 3641 3997 3641 3322 
Q 3641 2881 3436 2590 
Q 3231 2300 2841 2188 
z
M 1259 4147 
L 1259 2491 
L 2053 2491 
Q 2509 2491 2742 2702 
Q 2975 2913 2975 3322 
Q 2975 3731 2742 3939 
Q 2509 4147 2053 4147 
L 1259 4147 
z
" transform="scale(0.015625)"/>
       <path id="DejaVuSans-61" d="M 2194 1759 
Q 1497 1759 1228 1600 
Q 959 1441 959 1056 
Q 959 750 1161 570 
Q 1363 391 1709 391 
Q 2188 391 2477 730 
Q 2766 1069 2766 1631 
L 2766 1759 
L 2194 1759 
z
M 3341 1997 
L 3341 0 
L 2766 0 
L 2766 531 
Q 2569 213 2275 61 
Q 1981 -91 1556 -91 
Q 1019 -91 701 211 
Q 384 513 384 1019 
Q 384 1609 779 1909 
Q 1175 2209 1959 2209 
L 2766 2209 
L 2766 2266 
Q 2766 2663 2505 2880 
Q 2244 3097 1772 3097 
Q 1472 3097 1187 3025 
Q 903 2953 641 2809 
L 641 3341 
Q 956 3463 1253 3523 
Q 1550 3584 1831 3584 
Q 2591 3584 2966 3190 
Q 3341 2797 3341 1997 
z
" transform="scale(0.015625)"/>
       <path id="DejaVuSans-6d" d="M 3328 2828 
Q 3544 3216 3844 3400 
Q 4144 3584 4550 3584 
Q 5097 3584 5394 3201 
Q 5691 2819 5691 2113 
L 5691 0 
L 5113 0 
L 5113 2094 
Q 5113 2597 4934 2840 
Q 4756 3084 4391 3084 
Q 3944 3084 3684 2787 
Q 3425 2491 3425 1978 
L 3425 0 
L 2847 0 
L 2847 2094 
Q 2847 2600 2669 2842 
Q 2491 3084 2119 3084 
Q 1678 3084 1418 2786 
Q 1159 2488 1159 1978 
L 1159 0 
L 581 0 
L 581 3500 
L 1159 3500 
L 1159 2956 
Q 1356 3278 1631 3431 
Q 1906 3584 2284 3584 
Q 2666 3584 2933 3390 
Q 3200 3197 3328 2828 
z
" transform="scale(0.015625)"/>
       <path id="DejaVuSans-6e" d="M 3513 2113 
L 3513 0 
L 2938 0 
L 2938 2094 
Q 2938 2591 2744 2837 
Q 2550 3084 2163 3084 
Q 1697 3084 1428 2787 
Q 1159 2491 1159 1978 
L 1159 0 
L 581 0 
L 581 3500 
L 1159 3500 
L 1159 2956 
Q 1366 3272 1645 3428 
Q 1925 3584 2291 3584 
Q 2894 3584 3203 3211 
Q 3513 2838 3513 2113 
z
" transform="scale(0.015625)"/>
       <path id="DejaVuSans-20" transform="scale(0.015625)"/>
       <path id="DejaVuSans-73" d="M 2834 3397 
L 2834 2853 
Q 2591 2978 2328 3040 
Q 2066 3103 1784 3103 
Q 1356 3103 1142 2972 
Q 928 2841 928 2578 
Q 928 2378 1081 2264 
Q 1234 2150 1697 2047 
L 1894 2003 
Q 2506 1872 2764 1633 
Q 3022 1394 3022 966 
Q 3022 478 2636 193 
Q 2250 -91 1575 -91 
Q 1294 -91 989 -36 
Q 684 19 347 128 
L 347 722 
Q 666 556 975 473 
Q 1284 391 1588 391 
Q 1994 391 2212 530 
Q 2431 669 2431 922 
Q 2431 1156 2273 1281 
Q 2116 1406 1581 1522 
L 1381 1569 
Q 847 1681 609 1914 
Q 372 2147 372 2553 
Q 372 3047 722 3315 
Q 1072 3584 1716 3584 
Q 2034 3584 2315 3537 
Q 2597 3491 2834 3397 
z
" transform="scale(0.015625)"/>
       <path id="DejaVuSans-68" d="M 3513 2113 
L 3513 0 
L 2938 0 
L 2938 2094 
Q 2938 2591 2744 2837 
Q 2550 3084 2163 3084 
Q 1697 3084 1428 2787 
Q 1159 2491 1159 1978 
L 1159 0 
L 581 0 
L 581 4863 
L 1159 4863 
L 1159 2956 
Q 1366 3272 1645 3428 
Q 1925 3584 2291 3584 
Q 2894 3584 3203 3211 
Q 3513 2838 3513 2113 
z
" transform="scale(0.015625)"/>
       <path id="DejaVuSans-69" d="M 603 3500 
L 1178 3500 
L 1178 0 
L 603 0 
L 603 3500 
z
M 603 4863 
L 1178 4863 
L 1178 4134 
L 603 4134 
L 603 4863 
z
" transform="scale(0.015625)"/>
       <path id="DejaVuSans-66" d="M 2375 4863 
L 2375 4384 
L 1825 4384 
Q 1516 4384 1395 4259 
Q 1275 4134 1275 3809 
L 1275 3500 
L 2222 3500 
L 2222 3053 
L 1275 3053 
L 1275 0 
L 697 0 
L 697 3053 
L 147 3053 
L 147 3500 
L 697 3500 
L 697 3744 
Q 697 4328 969 4595 
Q 1241 4863 1831 4863 
L 2375 4863 
z
" transform="scale(0.015625)"/>
       <path id="DejaVuSans-74" d="M 1172 4494 
L 1172 3500 
L 2356 3500 
L 2356 3053 
L 1172 3053 
L 1172 1153 
Q 1172 725 1289 603 
Q 1406 481 1766 481 
L 2356 481 
L 2356 0 
L 1766 0 
Q 1100 0 847 248 
Q 594 497 594 1153 
L 594 3053 
L 172 3053 
L 172 3500 
L 594 3500 
L 594 4494 
L 1172 4494 
z
" transform="scale(0.015625)"/>
       <path id="DejaVuSans-2f" d="M 1625 4666 
L 2156 4666 
L 531 -594 
L 0 -594 
L 1625 4666 
z
" transform="scale(0.015625)"/>
       <path id="DejaVuSans-Oblique-63" d="M 3431 3366 
L 3316 2797 
Q 3109 2947 2876 3022 
Q 2644 3097 2394 3097 
Q 2119 3097 1870 3000 
Q 1622 2903 1453 2725 
Q 1184 2453 1037 2087 
Q 891 1722 891 1331 
Q 891 859 1127 628 
Q 1363 397 1844 397 
Q 2081 397 2348 469 
Q 2616 541 2906 684 
L 2797 116 
Q 2547 13 2283 -39 
Q 2019 -91 1741 -91 
Q 1044 -91 669 257 
Q 294 606 294 1253 
Q 294 1797 489 2255 
Q 684 2713 1069 3078 
Q 1331 3328 1684 3456 
Q 2038 3584 2456 3584 
Q 2700 3584 2940 3529 
Q 3181 3475 3431 3366 
z
" transform="scale(0.015625)"/>
       <path id="DejaVuSans-Oblique-6d" d="M 5747 2113 
L 5338 0 
L 4763 0 
L 5166 2094 
Q 5191 2228 5203 2325 
Q 5216 2422 5216 2491 
Q 5216 2772 5059 2928 
Q 4903 3084 4622 3084 
Q 4203 3084 3875 2770 
Q 3547 2456 3450 1953 
L 3066 0 
L 2491 0 
L 2900 2094 
Q 2925 2209 2937 2307 
Q 2950 2406 2950 2484 
Q 2950 2769 2794 2926 
Q 2638 3084 2363 3084 
Q 1938 3084 1609 2770 
Q 1281 2456 1184 1953 
L 800 0 
L 225 0 
L 909 3500 
L 1484 3500 
L 1375 2956 
Q 1609 3263 1923 3423 
Q 2238 3584 2597 3584 
Q 2978 3584 3223 3384 
Q 3469 3184 3519 2828 
Q 3781 3197 4126 3390 
Q 4472 3584 4856 3584 
Q 5306 3584 5551 3325 
Q 5797 3066 5797 2591 
Q 5797 2488 5784 2364 
Q 5772 2241 5747 2113 
z
" transform="scale(0.015625)"/>
       <path id="DejaVuSans-2212" d="M 678 2272 
L 4684 2272 
L 4684 1741 
L 678 1741 
L 678 2272 
z
" transform="scale(0.015625)"/>
      </defs>
      <use xlink:href="#DejaVuSans-52" transform="translate(0 0.684375)"/>
      <use xlink:href="#DejaVuSans-61" transform="translate(69.482422 0.684375)"/>
      <use xlink:href="#DejaVuSans-6d" transform="translate(130.761719 0.684375)"/>
      <use xlink:href="#DejaVuSans-61" transform="translate(228.173828 0.684375)"/>
      <use xlink:href="#DejaVuSans-6e" transform="translate(289.453125 0.684375)"/>
      <use xlink:href="#DejaVuSans-20" transform="translate(352.832031 0.684375)"/>
      <use xlink:href="#DejaVuSans-73" transform="translate(384.619141 0.684375)"/>
      <use xlink:href="#DejaVuSans-68" transform="translate(436.71875 0.684375)"/>
      <use xlink:href="#DejaVuSans-69" transform="translate(500.097656 0.684375)"/>
      <use xlink:href="#DejaVuSans-66" transform="translate(527.880859 0.684375)"/>
      <use xlink:href="#DejaVuSans-74" transform="translate(563.085938 0.684375)"/>
      <use xlink:href="#DejaVuSans-20" transform="translate(602.294922 0.684375)"/>
      <use xlink:href="#DejaVuSans-2f" transform="translate(634.082031 0.684375)"/>
      <use xlink:href="#DejaVuSans-20" transform="translate(667.773438 0.684375)"/>
      <use xlink:href="#DejaVuSans-Oblique-63" transform="translate(699.560547 0.684375)"/>
      <use xlink:href="#DejaVuSans-Oblique-6d" transform="translate(754.541016 0.684375)"/>
      <use xlink:href="#DejaVuSans-2212" transform="translate(856.603021 38.965625)scale(0.7)"/>
      <use xlink:href="#DejaVuSans-31" transform="translate(915.255365 38.965625)scale(0.7)"/>
     </g>
    </g>
   </g>
   <g id="matplotlib.axis_2">
    <g id="ytick_1">
     <g id="line2d_10">
      <defs>
       <path id="m615ec634d5" d="M 0 0 
L -3.5 0 
" style="stroke: #000000; stroke-width: 0.8"/>
      </defs>
      <g>
       <use xlink:href="#m615ec634d5" x="49.84524" y="386.51476" style="stroke: #000000; stroke-width: 0.8"/>
      </g>
     </g>
     <g id="text_11">
      <!-- 0 -->
      <g transform="translate(32.66524 392.59351)scale(0.16 -0.16)">
       <use xlink:href="#DejaVuSans-30"/>
      </g>
     </g>
    </g>
    <g id="ytick_2">
     <g id="line2d_11">
      <g>
       <use xlink:href="#m615ec634d5" x="49.84524" y="345.748672" style="stroke: #000000; stroke-width: 0.8"/>
      </g>
     </g>
     <g id="text_12">
      <!-- 2 -->
      <g transform="translate(32.66524 351.827422)scale(0.16 -0.16)">
       <use xlink:href="#DejaVuSans-32"/>
      </g>
     </g>
    </g>
    <g id="ytick_3">
     <g id="line2d_12">
      <g>
       <use xlink:href="#m615ec634d5" x="49.84524" y="304.982585" style="stroke: #000000; stroke-width: 0.8"/>
      </g>
     </g>
     <g id="text_13">
      <!-- 4 -->
      <g transform="translate(32.66524 311.061335)scale(0.16 -0.16)">
       <use xlink:href="#DejaVuSans-34"/>
      </g>
     </g>
    </g>
    <g id="ytick_4">
     <g id="line2d_13">
      <g>
       <use xlink:href="#m615ec634d5" x="49.84524" y="264.216497" style="stroke: #000000; stroke-width: 0.8"/>
      </g>
     </g>
     <g id="text_14">
      <!-- 6 -->
      <g transform="translate(32.66524 270.295247)scale(0.16 -0.16)">
       <defs>
        <path id="DejaVuSans-36" d="M 2113 2584 
Q 1688 2584 1439 2293 
Q 1191 2003 1191 1497 
Q 1191 994 1439 701 
Q 1688 409 2113 409 
Q 2538 409 2786 701 
Q 3034 994 3034 1497 
Q 3034 2003 2786 2293 
Q 2538 2584 2113 2584 
z
M 3366 4563 
L 3366 3988 
Q 3128 4100 2886 4159 
Q 2644 4219 2406 4219 
Q 1781 4219 1451 3797 
Q 1122 3375 1075 2522 
Q 1259 2794 1537 2939 
Q 1816 3084 2150 3084 
Q 2853 3084 3261 2657 
Q 3669 2231 3669 1497 
Q 3669 778 3244 343 
Q 2819 -91 2113 -91 
Q 1303 -91 875 529 
Q 447 1150 447 2328 
Q 447 3434 972 4092 
Q 1497 4750 2381 4750 
Q 2619 4750 2861 4703 
Q 3103 4656 3366 4563 
z
" transform="scale(0.015625)"/>
       </defs>
       <use xlink:href="#DejaVuSans-36"/>
      </g>
     </g>
    </g>
    <g id="ytick_5">
     <g id="line2d_14">
      <g>
       <use xlink:href="#m615ec634d5" x="49.84524" y="223.450409" style="stroke: #000000; stroke-width: 0.8"/>
      </g>
     </g>
     <g id="text_15">
      <!-- 8 -->
      <g transform="translate(32.66524 229.529159)scale(0.16 -0.16)">
       <use xlink:href="#DejaVuSans-38"/>
      </g>
     </g>
    </g>
    <g id="ytick_6">
     <g id="line2d_15">
      <g>
       <use xlink:href="#m615ec634d5" x="49.84524" y="182.684322" style="stroke: #000000; stroke-width: 0.8"/>
      </g>
     </g>
     <g id="text_16">
      <!-- 10 -->
      <g transform="translate(22.48524 188.763072)scale(0.16 -0.16)">
       <use xlink:href="#DejaVuSans-31"/>
       <use xlink:href="#DejaVuSans-30" x="63.623047"/>
      </g>
     </g>
    </g>
    <g id="ytick_7">
     <g id="line2d_16">
      <g>
       <use xlink:href="#m615ec634d5" x="49.84524" y="141.918234" style="stroke: #000000; stroke-width: 0.8"/>
      </g>
     </g>
     <g id="text_17">
      <!-- 12 -->
      <g transform="translate(22.48524 147.996984)scale(0.16 -0.16)">
       <use xlink:href="#DejaVuSans-31"/>
       <use xlink:href="#DejaVuSans-32" x="63.623047"/>
      </g>
     </g>
    </g>
    <g id="ytick_8">
     <g id="line2d_17">
      <g>
       <use xlink:href="#m615ec634d5" x="49.84524" y="101.152146" style="stroke: #000000; stroke-width: 0.8"/>
      </g>
     </g>
     <g id="text_18">
      <!-- 14 -->
      <g transform="translate(22.48524 107.230896)scale(0.16 -0.16)">
       <use xlink:href="#DejaVuSans-31"/>
       <use xlink:href="#DejaVuSans-34" x="63.623047"/>
      </g>
     </g>
    </g>
    <g id="ytick_9">
     <g id="line2d_18">
      <g>
       <use xlink:href="#m615ec634d5" x="49.84524" y="60.386059" style="stroke: #000000; stroke-width: 0.8"/>
      </g>
     </g>
     <g id="text_19">
      <!-- 16 -->
      <g transform="translate(22.48524 66.464809)scale(0.16 -0.16)">
       <use xlink:href="#DejaVuSans-31"/>
       <use xlink:href="#DejaVuSans-36" x="63.623047"/>
      </g>
     </g>
    </g>
    <g id="text_20">
     <!-- counts -->
     <g transform="translate(15.15774 231.333594)rotate(-90)scale(0.16 -0.16)">
      <defs>
       <path id="DejaVuSans-63" d="M 3122 3366 
L 3122 2828 
Q 2878 2963 2633 3030 
Q 2388 3097 2138 3097 
Q 1578 3097 1268 2742 
Q 959 2388 959 1747 
Q 959 1106 1268 751 
Q 1578 397 2138 397 
Q 2388 397 2633 464 
Q 2878 531 3122 666 
L 3122 134 
Q 2881 22 2623 -34 
Q 2366 -91 2075 -91 
Q 1284 -91 818 406 
Q 353 903 353 1747 
Q 353 2603 823 3093 
Q 1294 3584 2113 3584 
Q 2378 3584 2631 3529 
Q 2884 3475 3122 3366 
z
" transform="scale(0.015625)"/>
       <path id="DejaVuSans-6f" d="M 1959 3097 
Q 1497 3097 1228 2736 
Q 959 2375 959 1747 
Q 959 1119 1226 758 
Q 1494 397 1959 397 
Q 2419 397 2687 759 
Q 2956 1122 2956 1747 
Q 2956 2369 2687 2733 
Q 2419 3097 1959 3097 
z
M 1959 3584 
Q 2709 3584 3137 3096 
Q 3566 2609 3566 1747 
Q 3566 888 3137 398 
Q 2709 -91 1959 -91 
Q 1206 -91 779 398 
Q 353 888 353 1747 
Q 353 2609 779 3096 
Q 1206 3584 1959 3584 
z
" transform="scale(0.015625)"/>
       <path id="DejaVuSans-75" d="M 544 1381 
L 544 3500 
L 1119 3500 
L 1119 1403 
Q 1119 906 1312 657 
Q 1506 409 1894 409 
Q 2359 409 2629 706 
Q 2900 1003 2900 1516 
L 2900 3500 
L 3475 3500 
L 3475 0 
L 2900 0 
L 2900 538 
Q 2691 219 2414 64 
Q 2138 -91 1772 -91 
Q 1169 -91 856 284 
Q 544 659 544 1381 
z
M 1991 3584 
L 1991 3584 
z
" transform="scale(0.015625)"/>
      </defs>
      <use xlink:href="#DejaVuSans-63"/>
      <use xlink:href="#DejaVuSans-6f" x="54.980469"/>
      <use xlink:href="#DejaVuSans-75" x="116.162109"/>
      <use xlink:href="#DejaVuSans-6e" x="179.541016"/>
      <use xlink:href="#DejaVuSans-74" x="242.919922"/>
      <use xlink:href="#DejaVuSans-73" x="282.128906"/>
     </g>
    </g>
   </g>
   <g id="patch_84">
    <path d="M 49.84524 386.51476 
L 49.84524 22.677427 
" style="fill: none; stroke: #000000; stroke-width: 0.8; stroke-linejoin: miter; stroke-linecap: square"/>
   </g>
   <g id="patch_85">
    <path d="M 572.99976 386.51476 
L 572.99976 22.677427 
" style="fill: none; stroke: #000000; stroke-width: 0.8; stroke-linejoin: miter; stroke-linecap: square"/>
   </g>
   <g id="patch_86">
    <path d="M 49.84524 386.51476 
L 572.99976 386.51476 
" style="fill: none; stroke: #000000; stroke-width: 0.8; stroke-linejoin: miter; stroke-linecap: square"/>
   </g>
   <g id="patch_87">
    <path d="M 49.84524 22.677427 
L 572.99976 22.677427 
" style="fill: none; stroke: #000000; stroke-width: 0.8; stroke-linejoin: miter; stroke-linecap: square"/>
   </g>
   <g id="text_21">
    <!-- Raman shift $RBM$ modes -->
    <g transform="translate(201.0825 16.677427)scale(0.18 -0.18)">
     <defs>
      <path id="DejaVuSans-Oblique-52" d="M 1613 4147 
L 1294 2491 
L 2106 2491 
Q 2584 2491 2879 2755 
Q 3175 3019 3175 3444 
Q 3175 3784 2976 3965 
Q 2778 4147 2406 4147 
L 1613 4147 
z
M 2772 2241 
Q 2972 2194 3105 2009 
Q 3238 1825 3413 1275 
L 3809 0 
L 3144 0 
L 2778 1197 
Q 2638 1659 2453 1815 
Q 2269 1972 1888 1972 
L 1191 1972 
L 806 0 
L 172 0 
L 1081 4666 
L 2503 4666 
Q 3150 4666 3495 4373 
Q 3841 4081 3841 3531 
Q 3841 3044 3547 2687 
Q 3253 2331 2772 2241 
z
" transform="scale(0.015625)"/>
      <path id="DejaVuSans-Oblique-42" d="M 1081 4666 
L 2694 4666 
Q 3350 4666 3675 4422 
Q 4000 4178 4000 3688 
Q 4000 3238 3720 2911 
Q 3441 2584 2988 2516 
Q 3375 2428 3569 2181 
Q 3763 1934 3763 1522 
Q 3763 819 3242 409 
Q 2722 0 1819 0 
L 172 0 
L 1081 4666 
z
M 1234 2228 
L 903 519 
L 1919 519 
Q 2491 519 2800 781 
Q 3109 1044 3109 1522 
Q 3109 1891 2904 2059 
Q 2700 2228 2247 2228 
L 1234 2228 
z
M 1606 4147 
L 1331 2741 
L 2272 2741 
Q 2775 2741 3058 2959 
Q 3341 3178 3341 3566 
Q 3341 3869 3150 4008 
Q 2959 4147 2541 4147 
L 1606 4147 
z
" transform="scale(0.015625)"/>
      <path id="DejaVuSans-Oblique-4d" d="M 1081 4666 
L 2028 4666 
L 2572 1522 
L 4378 4666 
L 5350 4666 
L 4441 0 
L 3828 0 
L 4622 4091 
L 2791 897 
L 2175 897 
L 1581 4103 
L 788 0 
L 172 0 
L 1081 4666 
z
" transform="scale(0.015625)"/>
      <path id="DejaVuSans-64" d="M 2906 2969 
L 2906 4863 
L 3481 4863 
L 3481 0 
L 2906 0 
L 2906 525 
Q 2725 213 2448 61 
Q 2172 -91 1784 -91 
Q 1150 -91 751 415 
Q 353 922 353 1747 
Q 353 2572 751 3078 
Q 1150 3584 1784 3584 
Q 2172 3584 2448 3432 
Q 2725 3281 2906 2969 
z
M 947 1747 
Q 947 1113 1208 752 
Q 1469 391 1925 391 
Q 2381 391 2643 752 
Q 2906 1113 2906 1747 
Q 2906 2381 2643 2742 
Q 2381 3103 1925 3103 
Q 1469 3103 1208 2742 
Q 947 2381 947 1747 
z
" transform="scale(0.015625)"/>
      <path id="DejaVuSans-65" d="M 3597 1894 
L 3597 1613 
L 953 1613 
Q 991 1019 1311 708 
Q 1631 397 2203 397 
Q 2534 397 2845 478 
Q 3156 559 3463 722 
L 3463 178 
Q 3153 47 2828 -22 
Q 2503 -91 2169 -91 
Q 1331 -91 842 396 
Q 353 884 353 1716 
Q 353 2575 817 3079 
Q 1281 3584 2069 3584 
Q 2775 3584 3186 3129 
Q 3597 2675 3597 1894 
z
M 3022 2063 
Q 3016 2534 2758 2815 
Q 2500 3097 2075 3097 
Q 1594 3097 1305 2825 
Q 1016 2553 972 2059 
L 3022 2063 
z
" transform="scale(0.015625)"/>
     </defs>
     <use xlink:href="#DejaVuSans-52" transform="translate(0 0.015625)"/>
     <use xlink:href="#DejaVuSans-61" transform="translate(69.482422 0.015625)"/>
     <use xlink:href="#DejaVuSans-6d" transform="translate(130.761719 0.015625)"/>
     <use xlink:href="#DejaVuSans-61" transform="translate(228.173828 0.015625)"/>
     <use xlink:href="#DejaVuSans-6e" transform="translate(289.453125 0.015625)"/>
     <use xlink:href="#DejaVuSans-20" transform="translate(352.832031 0.015625)"/>
     <use xlink:href="#DejaVuSans-73" transform="translate(384.619141 0.015625)"/>
     <use xlink:href="#DejaVuSans-68" transform="translate(436.71875 0.015625)"/>
     <use xlink:href="#DejaVuSans-69" transform="translate(500.097656 0.015625)"/>
     <use xlink:href="#DejaVuSans-66" transform="translate(527.880859 0.015625)"/>
     <use xlink:href="#DejaVuSans-74" transform="translate(563.085938 0.015625)"/>
     <use xlink:href="#DejaVuSans-20" transform="translate(602.294922 0.015625)"/>
     <use xlink:href="#DejaVuSans-Oblique-52" transform="translate(634.082031 0.015625)"/>
     <use xlink:href="#DejaVuSans-Oblique-42" transform="translate(703.564453 0.015625)"/>
     <use xlink:href="#DejaVuSans-Oblique-4d" transform="translate(772.167969 0.015625)"/>
     <use xlink:href="#DejaVuSans-20" transform="translate(858.447266 0.015625)"/>
     <use xlink:href="#DejaVuSans-6d" transform="translate(890.234375 0.015625)"/>
     <use xlink:href="#DejaVuSans-6f" transform="translate(987.646484 0.015625)"/>
     <use xlink:href="#DejaVuSans-64" transform="translate(1048.828125 0.015625)"/>
     <use xlink:href="#DejaVuSans-65" transform="translate(1112.304688 0.015625)"/>
     <use xlink:href="#DejaVuSans-73" transform="translate(1173.828125 0.015625)"/>
    </g>
   </g>
   <g id="legend_1">
    <g id="patch_88">
     <path d="M 94.19976 76.437427 
L 563.19976 76.437427 
Q 565.99976 76.437427 565.99976 73.637427 
L 565.99976 32.477427 
Q 565.99976 29.677427 563.19976 29.677427 
L 94.19976 29.677427 
Q 91.39976 29.677427 91.39976 32.477427 
L 91.39976 73.637427 
Q 91.39976 76.437427 94.19976 76.437427 
z
" style="fill: #ffffff; opacity: 0.8; stroke: #cccccc; stroke-linejoin: miter"/>
    </g>
    <g id="patch_89">
     <path d="M 96.99976 46.645865 
L 124.99976 46.645865 
L 124.99976 36.845865 
L 96.99976 36.845865 
z
" style="fill: #6f6f6f; opacity: 0.5; stroke: #000000; stroke-linejoin: miter"/>
    </g>
    <g id="text_22">
     <!-- SWNT: 213.0 $\pm$ 0.0, 251.83 $\pm$ 0.55, 297.87 $\pm$ 18.01 $cm^{-1}$ -->
     <g transform="translate(136.19976 46.645865)scale(0.14 -0.14)">
      <defs>
       <path id="DejaVuSans-53" d="M 3425 4513 
L 3425 3897 
Q 3066 4069 2747 4153 
Q 2428 4238 2131 4238 
Q 1616 4238 1336 4038 
Q 1056 3838 1056 3469 
Q 1056 3159 1242 3001 
Q 1428 2844 1947 2747 
L 2328 2669 
Q 3034 2534 3370 2195 
Q 3706 1856 3706 1288 
Q 3706 609 3251 259 
Q 2797 -91 1919 -91 
Q 1588 -91 1214 -16 
Q 841 59 441 206 
L 441 856 
Q 825 641 1194 531 
Q 1563 422 1919 422 
Q 2459 422 2753 634 
Q 3047 847 3047 1241 
Q 3047 1584 2836 1778 
Q 2625 1972 2144 2069 
L 1759 2144 
Q 1053 2284 737 2584 
Q 422 2884 422 3419 
Q 422 4038 858 4394 
Q 1294 4750 2059 4750 
Q 2388 4750 2728 4690 
Q 3069 4631 3425 4513 
z
" transform="scale(0.015625)"/>
       <path id="DejaVuSans-57" d="M 213 4666 
L 850 4666 
L 1831 722 
L 2809 4666 
L 3519 4666 
L 4500 722 
L 5478 4666 
L 6119 4666 
L 4947 0 
L 4153 0 
L 3169 4050 
L 2175 0 
L 1381 0 
L 213 4666 
z
" transform="scale(0.015625)"/>
       <path id="DejaVuSans-4e" d="M 628 4666 
L 1478 4666 
L 3547 763 
L 3547 4666 
L 4159 4666 
L 4159 0 
L 3309 0 
L 1241 3903 
L 1241 0 
L 628 0 
L 628 4666 
z
" transform="scale(0.015625)"/>
       <path id="DejaVuSans-54" d="M -19 4666 
L 3928 4666 
L 3928 4134 
L 2272 4134 
L 2272 0 
L 1638 0 
L 1638 4134 
L -19 4134 
L -19 4666 
z
" transform="scale(0.015625)"/>
       <path id="DejaVuSans-3a" d="M 750 794 
L 1409 794 
L 1409 0 
L 750 0 
L 750 794 
z
M 750 3309 
L 1409 3309 
L 1409 2516 
L 750 2516 
L 750 3309 
z
" transform="scale(0.015625)"/>
       <path id="DejaVuSans-2e" d="M 684 794 
L 1344 794 
L 1344 0 
L 684 0 
L 684 794 
z
" transform="scale(0.015625)"/>
       <path id="DejaVuSans-b1" d="M 2944 4013 
L 2944 2803 
L 4684 2803 
L 4684 2272 
L 2944 2272 
L 2944 1063 
L 2419 1063 
L 2419 2272 
L 678 2272 
L 678 2803 
L 2419 2803 
L 2419 4013 
L 2944 4013 
z
M 678 531 
L 4684 531 
L 4684 0 
L 678 0 
L 678 531 
z
" transform="scale(0.015625)"/>
       <path id="DejaVuSans-2c" d="M 750 794 
L 1409 794 
L 1409 256 
L 897 -744 
L 494 -744 
L 750 256 
L 750 794 
z
" transform="scale(0.015625)"/>
       <path id="DejaVuSans-39" d="M 703 97 
L 703 672 
Q 941 559 1184 500 
Q 1428 441 1663 441 
Q 2288 441 2617 861 
Q 2947 1281 2994 2138 
Q 2813 1869 2534 1725 
Q 2256 1581 1919 1581 
Q 1219 1581 811 2004 
Q 403 2428 403 3163 
Q 403 3881 828 4315 
Q 1253 4750 1959 4750 
Q 2769 4750 3195 4129 
Q 3622 3509 3622 2328 
Q 3622 1225 3098 567 
Q 2575 -91 1691 -91 
Q 1453 -91 1209 -44 
Q 966 3 703 97 
z
M 1959 2075 
Q 2384 2075 2632 2365 
Q 2881 2656 2881 3163 
Q 2881 3666 2632 3958 
Q 2384 4250 1959 4250 
Q 1534 4250 1286 3958 
Q 1038 3666 1038 3163 
Q 1038 2656 1286 2365 
Q 1534 2075 1959 2075 
z
" transform="scale(0.015625)"/>
      </defs>
      <use xlink:href="#DejaVuSans-53" transform="translate(0 0.684375)"/>
      <use xlink:href="#DejaVuSans-57" transform="translate(63.476562 0.684375)"/>
      <use xlink:href="#DejaVuSans-4e" transform="translate(162.353516 0.684375)"/>
      <use xlink:href="#DejaVuSans-54" transform="translate(237.158203 0.684375)"/>
      <use xlink:href="#DejaVuSans-3a" transform="translate(298.242188 0.684375)"/>
      <use xlink:href="#DejaVuSans-20" transform="translate(331.933594 0.684375)"/>
      <use xlink:href="#DejaVuSans-32" transform="translate(363.720703 0.684375)"/>
      <use xlink:href="#DejaVuSans-31" transform="translate(427.34375 0.684375)"/>
      <use xlink:href="#DejaVuSans-33" transform="translate(490.966797 0.684375)"/>
      <use xlink:href="#DejaVuSans-2e" transform="translate(554.589844 0.684375)"/>
      <use xlink:href="#DejaVuSans-30" transform="translate(586.376953 0.684375)"/>
      <use xlink:href="#DejaVuSans-20" transform="translate(650 0.684375)"/>
      <use xlink:href="#DejaVuSans-b1" transform="translate(681.787109 0.684375)"/>
      <use xlink:href="#DejaVuSans-20" transform="translate(765.576172 0.684375)"/>
      <use xlink:href="#DejaVuSans-30" transform="translate(797.363281 0.684375)"/>
      <use xlink:href="#DejaVuSans-2e" transform="translate(860.986328 0.684375)"/>
      <use xlink:href="#DejaVuSans-30" transform="translate(892.773438 0.684375)"/>
      <use xlink:href="#DejaVuSans-2c" transform="translate(956.396484 0.684375)"/>
      <use xlink:href="#DejaVuSans-20" transform="translate(988.183594 0.684375)"/>
      <use xlink:href="#DejaVuSans-32" transform="translate(1019.970703 0.684375)"/>
      <use xlink:href="#DejaVuSans-35" transform="translate(1083.59375 0.684375)"/>
      <use xlink:href="#DejaVuSans-31" transform="translate(1147.216797 0.684375)"/>
      <use xlink:href="#DejaVuSans-2e" transform="translate(1210.839844 0.684375)"/>
      <use xlink:href="#DejaVuSans-38" transform="translate(1240.001953 0.684375)"/>
      <use xlink:href="#DejaVuSans-33" transform="translate(1303.625 0.684375)"/>
      <use xlink:href="#DejaVuSans-20" transform="translate(1367.248047 0.684375)"/>
      <use xlink:href="#DejaVuSans-b1" transform="translate(1399.035156 0.684375)"/>
      <use xlink:href="#DejaVuSans-20" transform="translate(1482.824219 0.684375)"/>
      <use xlink:href="#DejaVuSans-30" transform="translate(1514.611328 0.684375)"/>
      <use xlink:href="#DejaVuSans-2e" transform="translate(1578.234375 0.684375)"/>
      <use xlink:href="#DejaVuSans-35" transform="translate(1610.021484 0.684375)"/>
      <use xlink:href="#DejaVuSans-35" transform="translate(1673.644531 0.684375)"/>
      <use xlink:href="#DejaVuSans-2c" transform="translate(1737.267578 0.684375)"/>
      <use xlink:href="#DejaVuSans-20" transform="translate(1769.054688 0.684375)"/>
      <use xlink:href="#DejaVuSans-32" transform="translate(1800.841797 0.684375)"/>
      <use xlink:href="#DejaVuSans-39" transform="translate(1862.714844 0.684375)"/>
      <use xlink:href="#DejaVuSans-37" transform="translate(1926.337891 0.684375)"/>
      <use xlink:href="#DejaVuSans-2e" transform="translate(1989.960938 0.684375)"/>
      <use xlink:href="#DejaVuSans-38" transform="translate(2019.123047 0.684375)"/>
      <use xlink:href="#DejaVuSans-37" transform="translate(2082.746094 0.684375)"/>
      <use xlink:href="#DejaVuSans-20" transform="translate(2146.369141 0.684375)"/>
      <use xlink:href="#DejaVuSans-b1" transform="translate(2178.15625 0.684375)"/>
      <use xlink:href="#DejaVuSans-20" transform="translate(2261.945312 0.684375)"/>
      <use xlink:href="#DejaVuSans-31" transform="translate(2293.732422 0.684375)"/>
      <use xlink:href="#DejaVuSans-38" transform="translate(2357.355469 0.684375)"/>
      <use xlink:href="#DejaVuSans-2e" transform="translate(2420.978516 0.684375)"/>
      <use xlink:href="#DejaVuSans-30" transform="translate(2452.765625 0.684375)"/>
      <use xlink:href="#DejaVuSans-31" transform="translate(2516.388672 0.684375)"/>
      <use xlink:href="#DejaVuSans-20" transform="translate(2580.011719 0.684375)"/>
      <use xlink:href="#DejaVuSans-Oblique-63" transform="translate(2611.798828 0.684375)"/>
      <use xlink:href="#DejaVuSans-Oblique-6d" transform="translate(2666.779297 0.684375)"/>
      <use xlink:href="#DejaVuSans-2212" transform="translate(2768.841302 38.965625)scale(0.7)"/>
      <use xlink:href="#DejaVuSans-31" transform="translate(2827.493646 38.965625)scale(0.7)"/>
     </g>
    </g>
    <g id="patch_90">
     <path d="M 96.99976 67.925865 
L 124.99976 67.925865 
L 124.99976 58.125865 
L 96.99976 58.125865 
z
" style="fill: #008aba; opacity: 0.5; stroke: #000000; stroke-linejoin: miter"/>
    </g>
    <g id="text_23">
     <!-- CuMINT: 213.5 $\pm$ 1.12, 253.89 $\pm$ 3.33, 303.69 $\pm$ 20.14 $cm^{-1}$ -->
     <g transform="translate(136.19976 67.925865)scale(0.14 -0.14)">
      <defs>
       <path id="DejaVuSans-43" d="M 4122 4306 
L 4122 3641 
Q 3803 3938 3442 4084 
Q 3081 4231 2675 4231 
Q 1875 4231 1450 3742 
Q 1025 3253 1025 2328 
Q 1025 1406 1450 917 
Q 1875 428 2675 428 
Q 3081 428 3442 575 
Q 3803 722 4122 1019 
L 4122 359 
Q 3791 134 3420 21 
Q 3050 -91 2638 -91 
Q 1578 -91 968 557 
Q 359 1206 359 2328 
Q 359 3453 968 4101 
Q 1578 4750 2638 4750 
Q 3056 4750 3426 4639 
Q 3797 4528 4122 4306 
z
" transform="scale(0.015625)"/>
       <path id="DejaVuSans-4d" d="M 628 4666 
L 1569 4666 
L 2759 1491 
L 3956 4666 
L 4897 4666 
L 4897 0 
L 4281 0 
L 4281 4097 
L 3078 897 
L 2444 897 
L 1241 4097 
L 1241 0 
L 628 0 
L 628 4666 
z
" transform="scale(0.015625)"/>
       <path id="DejaVuSans-49" d="M 628 4666 
L 1259 4666 
L 1259 0 
L 628 0 
L 628 4666 
z
" transform="scale(0.015625)"/>
      </defs>
      <use xlink:href="#DejaVuSans-43" transform="translate(0 0.684375)"/>
      <use xlink:href="#DejaVuSans-75" transform="translate(69.824219 0.684375)"/>
      <use xlink:href="#DejaVuSans-4d" transform="translate(133.203125 0.684375)"/>
      <use xlink:href="#DejaVuSans-49" transform="translate(219.482422 0.684375)"/>
      <use xlink:href="#DejaVuSans-4e" transform="translate(248.974609 0.684375)"/>
      <use xlink:href="#DejaVuSans-54" transform="translate(323.779297 0.684375)"/>
      <use xlink:href="#DejaVuSans-3a" transform="translate(384.863281 0.684375)"/>
      <use xlink:href="#DejaVuSans-20" transform="translate(418.554688 0.684375)"/>
      <use xlink:href="#DejaVuSans-32" transform="translate(450.341797 0.684375)"/>
      <use xlink:href="#DejaVuSans-31" transform="translate(513.964844 0.684375)"/>
      <use xlink:href="#DejaVuSans-33" transform="translate(577.587891 0.684375)"/>
      <use xlink:href="#DejaVuSans-2e" transform="translate(641.210938 0.684375)"/>
      <use xlink:href="#DejaVuSans-35" transform="translate(672.998047 0.684375)"/>
      <use xlink:href="#DejaVuSans-20" transform="translate(736.621094 0.684375)"/>
      <use xlink:href="#DejaVuSans-b1" transform="translate(768.408203 0.684375)"/>
      <use xlink:href="#DejaVuSans-20" transform="translate(852.197266 0.684375)"/>
      <use xlink:href="#DejaVuSans-31" transform="translate(883.984375 0.684375)"/>
      <use xlink:href="#DejaVuSans-2e" transform="translate(947.607422 0.684375)"/>
      <use xlink:href="#DejaVuSans-31" transform="translate(979.394531 0.684375)"/>
      <use xlink:href="#DejaVuSans-32" transform="translate(1043.017578 0.684375)"/>
      <use xlink:href="#DejaVuSans-2c" transform="translate(1106.640625 0.684375)"/>
      <use xlink:href="#DejaVuSans-20" transform="translate(1138.427734 0.684375)"/>
      <use xlink:href="#DejaVuSans-32" transform="translate(1170.214844 0.684375)"/>
      <use xlink:href="#DejaVuSans-35" transform="translate(1233.837891 0.684375)"/>
      <use xlink:href="#DejaVuSans-33" transform="translate(1297.460938 0.684375)"/>
      <use xlink:href="#DejaVuSans-2e" transform="translate(1361.083984 0.684375)"/>
      <use xlink:href="#DejaVuSans-38" transform="translate(1390.246094 0.684375)"/>
      <use xlink:href="#DejaVuSans-39" transform="translate(1453.869141 0.684375)"/>
      <use xlink:href="#DejaVuSans-20" transform="translate(1517.492188 0.684375)"/>
      <use xlink:href="#DejaVuSans-b1" transform="translate(1549.279297 0.684375)"/>
      <use xlink:href="#DejaVuSans-20" transform="translate(1633.068359 0.684375)"/>
      <use xlink:href="#DejaVuSans-33" transform="translate(1664.855469 0.684375)"/>
      <use xlink:href="#DejaVuSans-2e" transform="translate(1728.478516 0.684375)"/>
      <use xlink:href="#DejaVuSans-33" transform="translate(1760.265625 0.684375)"/>
      <use xlink:href="#DejaVuSans-33" transform="translate(1823.888672 0.684375)"/>
      <use xlink:href="#DejaVuSans-2c" transform="translate(1887.511719 0.684375)"/>
      <use xlink:href="#DejaVuSans-20" transform="translate(1919.298828 0.684375)"/>
      <use xlink:href="#DejaVuSans-33" transform="translate(1951.085938 0.684375)"/>
      <use xlink:href="#DejaVuSans-30" transform="translate(2014.708984 0.684375)"/>
      <use xlink:href="#DejaVuSans-33" transform="translate(2078.332031 0.684375)"/>
      <use xlink:href="#DejaVuSans-2e" transform="translate(2141.955078 0.684375)"/>
      <use xlink:href="#DejaVuSans-36" transform="translate(2173.742188 0.684375)"/>
      <use xlink:href="#DejaVuSans-39" transform="translate(2237.365234 0.684375)"/>
      <use xlink:href="#DejaVuSans-20" transform="translate(2300.988281 0.684375)"/>
      <use xlink:href="#DejaVuSans-b1" transform="translate(2332.775391 0.684375)"/>
      <use xlink:href="#DejaVuSans-20" transform="translate(2416.564453 0.684375)"/>
      <use xlink:href="#DejaVuSans-32" transform="translate(2448.351562 0.684375)"/>
      <use xlink:href="#DejaVuSans-30" transform="translate(2511.974609 0.684375)"/>
      <use xlink:href="#DejaVuSans-2e" transform="translate(2575.597656 0.684375)"/>
      <use xlink:href="#DejaVuSans-31" transform="translate(2607.384766 0.684375)"/>
      <use xlink:href="#DejaVuSans-34" transform="translate(2671.007812 0.684375)"/>
      <use xlink:href="#DejaVuSans-20" transform="translate(2734.630859 0.684375)"/>
      <use xlink:href="#DejaVuSans-Oblique-63" transform="translate(2766.417969 0.684375)"/>
      <use xlink:href="#DejaVuSans-Oblique-6d" transform="translate(2821.398438 0.684375)"/>
      <use xlink:href="#DejaVuSans-2212" transform="translate(2923.460443 38.965625)scale(0.7)"/>
      <use xlink:href="#DejaVuSans-31" transform="translate(2982.112786 38.965625)scale(0.7)"/>
     </g>
    </g>
   </g>
  </g>
 </g>
 <defs>
  <clipPath id="p9d8724cfaf">
   <rect x="49.84524" y="22.677427" width="523.15452" height="363.837333"/>
  </clipPath>
 </defs>
</svg>
