<?xml version="1.0" encoding="utf-8" standalone="no"?>
<!DOCTYPE svg PUBLIC "-//W3C//DTD SVG 1.1//EN"
  "http://www.w3.org/Graphics/SVG/1.1/DTD/svg11.dtd">
<svg xmlns:xlink="http://www.w3.org/1999/xlink" width="576pt" height="432pt" viewBox="0 0 576 432" xmlns="http://www.w3.org/2000/svg" version="1.1">
 <metadata>
  <rdf:RDF xmlns:dc="http://purl.org/dc/elements/1.1/" xmlns:cc="http://creativecommons.org/ns#" xmlns:rdf="http://www.w3.org/1999/02/22-rdf-syntax-ns#">
   <cc:Work>
    <dc:type rdf:resource="http://purl.org/dc/dcmitype/StillImage"/>
    <dc:date>2023-07-19T18:22:54.482767</dc:date>
    <dc:format>image/svg+xml</dc:format>
    <dc:creator>
     <cc:Agent>
      <dc:title>Matplotlib v3.5.2, https://matplotlib.org/</dc:title>
     </cc:Agent>
    </dc:creator>
   </cc:Work>
  </rdf:RDF>
 </metadata>
 <defs>
  <style type="text/css">*{stroke-linejoin: round; stroke-linecap: butt}</style>
 </defs>
 <g id="figure_1">
  <g id="patch_1">
   <path d="M 0 432 
L 576 432 
L 576 0 
L 0 0 
z
" style="fill: #ffffff"/>
  </g>
  <g id="axes_1">
   <g id="patch_2">
    <path d="M 49.84524 387.02976 
L 572.99976 387.02976 
L 572.99976 22.677427 
L 49.84524 22.677427 
z
" style="fill: #ffffff"/>
   </g>
   <g id="patch_3">
    <path d="M 153.52391 387.02976 
L 156.180865 387.02976 
L 156.180865 213.528649 
L 153.52391 213.528649 
z
" clip-path="url(#p2346ba2052)" style="fill: #6f6f6f; opacity: 0.5; stroke: #000000; stroke-linejoin: miter"/>
   </g>
   <g id="patch_4">
    <path d="M 156.180865 387.02976 
L 158.837821 387.02976 
L 158.837821 387.02976 
L 156.180865 387.02976 
z
" clip-path="url(#p2346ba2052)" style="fill: #6f6f6f; opacity: 0.5; stroke: #000000; stroke-linejoin: miter"/>
   </g>
   <g id="patch_5">
    <path d="M 158.837821 387.02976 
L 161.494776 387.02976 
L 161.494776 387.02976 
L 158.837821 387.02976 
z
" clip-path="url(#p2346ba2052)" style="fill: #6f6f6f; opacity: 0.5; stroke: #000000; stroke-linejoin: miter"/>
   </g>
   <g id="patch_6">
    <path d="M 161.494776 387.02976 
L 164.151732 387.02976 
L 164.151732 387.02976 
L 161.494776 387.02976 
z
" clip-path="url(#p2346ba2052)" style="fill: #6f6f6f; opacity: 0.5; stroke: #000000; stroke-linejoin: miter"/>
   </g>
   <g id="patch_7">
    <path d="M 164.151732 387.02976 
L 166.808687 387.02976 
L 166.808687 387.02976 
L 164.151732 387.02976 
z
" clip-path="url(#p2346ba2052)" style="fill: #6f6f6f; opacity: 0.5; stroke: #000000; stroke-linejoin: miter"/>
   </g>
   <g id="patch_8">
    <path d="M 166.808687 387.02976 
L 169.465643 387.02976 
L 169.465643 387.02976 
L 166.808687 387.02976 
z
" clip-path="url(#p2346ba2052)" style="fill: #6f6f6f; opacity: 0.5; stroke: #000000; stroke-linejoin: miter"/>
   </g>
   <g id="patch_9">
    <path d="M 169.465643 387.02976 
L 172.122598 387.02976 
L 172.122598 387.02976 
L 169.465643 387.02976 
z
" clip-path="url(#p2346ba2052)" style="fill: #6f6f6f; opacity: 0.5; stroke: #000000; stroke-linejoin: miter"/>
   </g>
   <g id="patch_10">
    <path d="M 172.122598 387.02976 
L 174.779553 387.02976 
L 174.779553 387.02976 
L 172.122598 387.02976 
z
" clip-path="url(#p2346ba2052)" style="fill: #6f6f6f; opacity: 0.5; stroke: #000000; stroke-linejoin: miter"/>
   </g>
   <g id="patch_11">
    <path d="M 174.779553 387.02976 
L 177.436509 387.02976 
L 177.436509 213.528649 
L 174.779553 213.528649 
z
" clip-path="url(#p2346ba2052)" style="fill: #6f6f6f; opacity: 0.5; stroke: #000000; stroke-linejoin: miter"/>
   </g>
   <g id="patch_12">
    <path d="M 177.436509 387.02976 
L 180.093464 387.02976 
L 180.093464 387.02976 
L 177.436509 387.02976 
z
" clip-path="url(#p2346ba2052)" style="fill: #6f6f6f; opacity: 0.5; stroke: #000000; stroke-linejoin: miter"/>
   </g>
   <g id="patch_13">
    <path d="M 180.093464 387.02976 
L 182.75042 387.02976 
L 182.75042 387.02976 
L 180.093464 387.02976 
z
" clip-path="url(#p2346ba2052)" style="fill: #6f6f6f; opacity: 0.5; stroke: #000000; stroke-linejoin: miter"/>
   </g>
   <g id="patch_14">
    <path d="M 182.75042 387.02976 
L 185.407375 387.02976 
L 185.407375 387.02976 
L 182.75042 387.02976 
z
" clip-path="url(#p2346ba2052)" style="fill: #6f6f6f; opacity: 0.5; stroke: #000000; stroke-linejoin: miter"/>
   </g>
   <g id="patch_15">
    <path d="M 185.407375 387.02976 
L 188.06433 387.02976 
L 188.06433 213.528649 
L 185.407375 213.528649 
z
" clip-path="url(#p2346ba2052)" style="fill: #6f6f6f; opacity: 0.5; stroke: #000000; stroke-linejoin: miter"/>
   </g>
   <g id="patch_16">
    <path d="M 188.06433 387.02976 
L 190.721286 387.02976 
L 190.721286 387.02976 
L 188.06433 387.02976 
z
" clip-path="url(#p2346ba2052)" style="fill: #6f6f6f; opacity: 0.5; stroke: #000000; stroke-linejoin: miter"/>
   </g>
   <g id="patch_17">
    <path d="M 190.721286 387.02976 
L 193.378241 387.02976 
L 193.378241 40.027539 
L 190.721286 40.027539 
z
" clip-path="url(#p2346ba2052)" style="fill: #6f6f6f; opacity: 0.5; stroke: #000000; stroke-linejoin: miter"/>
   </g>
   <g id="patch_18">
    <path d="M 193.378241 387.02976 
L 196.035197 387.02976 
L 196.035197 387.02976 
L 193.378241 387.02976 
z
" clip-path="url(#p2346ba2052)" style="fill: #6f6f6f; opacity: 0.5; stroke: #000000; stroke-linejoin: miter"/>
   </g>
   <g id="patch_19">
    <path d="M 196.035197 387.02976 
L 198.692152 387.02976 
L 198.692152 213.528649 
L 196.035197 213.528649 
z
" clip-path="url(#p2346ba2052)" style="fill: #6f6f6f; opacity: 0.5; stroke: #000000; stroke-linejoin: miter"/>
   </g>
   <g id="patch_20">
    <path d="M 198.692152 387.02976 
L 201.349107 387.02976 
L 201.349107 387.02976 
L 198.692152 387.02976 
z
" clip-path="url(#p2346ba2052)" style="fill: #6f6f6f; opacity: 0.5; stroke: #000000; stroke-linejoin: miter"/>
   </g>
   <g id="patch_21">
    <path d="M 201.349107 387.02976 
L 204.006063 387.02976 
L 204.006063 40.027539 
L 201.349107 40.027539 
z
" clip-path="url(#p2346ba2052)" style="fill: #6f6f6f; opacity: 0.5; stroke: #000000; stroke-linejoin: miter"/>
   </g>
   <g id="patch_22">
    <path d="M 204.006063 387.02976 
L 206.663018 387.02976 
L 206.663018 387.02976 
L 204.006063 387.02976 
z
" clip-path="url(#p2346ba2052)" style="fill: #6f6f6f; opacity: 0.5; stroke: #000000; stroke-linejoin: miter"/>
   </g>
   <g id="patch_23">
    <path d="M 206.663018 387.02976 
L 209.319974 387.02976 
L 209.319974 213.528649 
L 206.663018 213.528649 
z
" clip-path="url(#p2346ba2052)" style="fill: #6f6f6f; opacity: 0.5; stroke: #000000; stroke-linejoin: miter"/>
   </g>
   <g id="patch_24">
    <path d="M 209.319974 387.02976 
L 211.976929 387.02976 
L 211.976929 387.02976 
L 209.319974 387.02976 
z
" clip-path="url(#p2346ba2052)" style="fill: #6f6f6f; opacity: 0.5; stroke: #000000; stroke-linejoin: miter"/>
   </g>
   <g id="patch_25">
    <path d="M 211.976929 387.02976 
L 214.633884 387.02976 
L 214.633884 387.02976 
L 211.976929 387.02976 
z
" clip-path="url(#p2346ba2052)" style="fill: #6f6f6f; opacity: 0.5; stroke: #000000; stroke-linejoin: miter"/>
   </g>
   <g id="patch_26">
    <path d="M 214.633884 387.02976 
L 217.29084 387.02976 
L 217.29084 387.02976 
L 214.633884 387.02976 
z
" clip-path="url(#p2346ba2052)" style="fill: #6f6f6f; opacity: 0.5; stroke: #000000; stroke-linejoin: miter"/>
   </g>
   <g id="patch_27">
    <path d="M 217.29084 387.02976 
L 219.947795 387.02976 
L 219.947795 387.02976 
L 217.29084 387.02976 
z
" clip-path="url(#p2346ba2052)" style="fill: #6f6f6f; opacity: 0.5; stroke: #000000; stroke-linejoin: miter"/>
   </g>
   <g id="patch_28">
    <path d="M 219.947795 387.02976 
L 222.604751 387.02976 
L 222.604751 387.02976 
L 219.947795 387.02976 
z
" clip-path="url(#p2346ba2052)" style="fill: #6f6f6f; opacity: 0.5; stroke: #000000; stroke-linejoin: miter"/>
   </g>
   <g id="patch_29">
    <path d="M 222.604751 387.02976 
L 225.261706 387.02976 
L 225.261706 387.02976 
L 222.604751 387.02976 
z
" clip-path="url(#p2346ba2052)" style="fill: #6f6f6f; opacity: 0.5; stroke: #000000; stroke-linejoin: miter"/>
   </g>
   <g id="patch_30">
    <path d="M 225.261706 387.02976 
L 227.918662 387.02976 
L 227.918662 387.02976 
L 225.261706 387.02976 
z
" clip-path="url(#p2346ba2052)" style="fill: #6f6f6f; opacity: 0.5; stroke: #000000; stroke-linejoin: miter"/>
   </g>
   <g id="patch_31">
    <path d="M 227.918662 387.02976 
L 230.575617 387.02976 
L 230.575617 387.02976 
L 227.918662 387.02976 
z
" clip-path="url(#p2346ba2052)" style="fill: #6f6f6f; opacity: 0.5; stroke: #000000; stroke-linejoin: miter"/>
   </g>
   <g id="patch_32">
    <path d="M 230.575617 387.02976 
L 233.232572 387.02976 
L 233.232572 387.02976 
L 230.575617 387.02976 
z
" clip-path="url(#p2346ba2052)" style="fill: #6f6f6f; opacity: 0.5; stroke: #000000; stroke-linejoin: miter"/>
   </g>
   <g id="patch_33">
    <path d="M 233.232572 387.02976 
L 235.889528 387.02976 
L 235.889528 387.02976 
L 233.232572 387.02976 
z
" clip-path="url(#p2346ba2052)" style="fill: #6f6f6f; opacity: 0.5; stroke: #000000; stroke-linejoin: miter"/>
   </g>
   <g id="patch_34">
    <path d="M 235.889528 387.02976 
L 238.546483 387.02976 
L 238.546483 213.528649 
L 235.889528 213.528649 
z
" clip-path="url(#p2346ba2052)" style="fill: #6f6f6f; opacity: 0.5; stroke: #000000; stroke-linejoin: miter"/>
   </g>
   <g id="patch_35">
    <path d="M 238.546483 387.02976 
L 241.203439 387.02976 
L 241.203439 387.02976 
L 238.546483 387.02976 
z
" clip-path="url(#p2346ba2052)" style="fill: #6f6f6f; opacity: 0.5; stroke: #000000; stroke-linejoin: miter"/>
   </g>
   <g id="patch_36">
    <path d="M 241.203439 387.02976 
L 243.860394 387.02976 
L 243.860394 387.02976 
L 241.203439 387.02976 
z
" clip-path="url(#p2346ba2052)" style="fill: #6f6f6f; opacity: 0.5; stroke: #000000; stroke-linejoin: miter"/>
   </g>
   <g id="patch_37">
    <path d="M 243.860394 387.02976 
L 246.517349 387.02976 
L 246.517349 387.02976 
L 243.860394 387.02976 
z
" clip-path="url(#p2346ba2052)" style="fill: #6f6f6f; opacity: 0.5; stroke: #000000; stroke-linejoin: miter"/>
   </g>
   <g id="patch_38">
    <path d="M 246.517349 387.02976 
L 249.174305 387.02976 
L 249.174305 213.528649 
L 246.517349 213.528649 
z
" clip-path="url(#p2346ba2052)" style="fill: #6f6f6f; opacity: 0.5; stroke: #000000; stroke-linejoin: miter"/>
   </g>
   <g id="patch_39">
    <path d="M 249.174305 387.02976 
L 251.83126 387.02976 
L 251.83126 387.02976 
L 249.174305 387.02976 
z
" clip-path="url(#p2346ba2052)" style="fill: #6f6f6f; opacity: 0.5; stroke: #000000; stroke-linejoin: miter"/>
   </g>
   <g id="patch_40">
    <path d="M 251.83126 387.02976 
L 254.488216 387.02976 
L 254.488216 387.02976 
L 251.83126 387.02976 
z
" clip-path="url(#p2346ba2052)" style="fill: #6f6f6f; opacity: 0.5; stroke: #000000; stroke-linejoin: miter"/>
   </g>
   <g id="patch_41">
    <path d="M 254.488216 387.02976 
L 257.145171 387.02976 
L 257.145171 387.02976 
L 254.488216 387.02976 
z
" clip-path="url(#p2346ba2052)" style="fill: #6f6f6f; opacity: 0.5; stroke: #000000; stroke-linejoin: miter"/>
   </g>
   <g id="patch_42">
    <path d="M 257.145171 387.02976 
L 259.802126 387.02976 
L 259.802126 387.02976 
L 257.145171 387.02976 
z
" clip-path="url(#p2346ba2052)" style="fill: #6f6f6f; opacity: 0.5; stroke: #000000; stroke-linejoin: miter"/>
   </g>
   <g id="patch_43">
    <path d="M 259.802126 387.02976 
L 262.459082 387.02976 
L 262.459082 213.528649 
L 259.802126 213.528649 
z
" clip-path="url(#p2346ba2052)" style="fill: #6f6f6f; opacity: 0.5; stroke: #000000; stroke-linejoin: miter"/>
   </g>
   <g id="patch_44">
    <path d="M 262.459082 387.02976 
L 265.116037 387.02976 
L 265.116037 387.02976 
L 262.459082 387.02976 
z
" clip-path="url(#p2346ba2052)" style="fill: #6f6f6f; opacity: 0.5; stroke: #000000; stroke-linejoin: miter"/>
   </g>
   <g id="patch_45">
    <path d="M 265.116037 387.02976 
L 267.772993 387.02976 
L 267.772993 387.02976 
L 265.116037 387.02976 
z
" clip-path="url(#p2346ba2052)" style="fill: #6f6f6f; opacity: 0.5; stroke: #000000; stroke-linejoin: miter"/>
   </g>
   <g id="patch_46">
    <path d="M 267.772993 387.02976 
L 270.429948 387.02976 
L 270.429948 387.02976 
L 267.772993 387.02976 
z
" clip-path="url(#p2346ba2052)" style="fill: #6f6f6f; opacity: 0.5; stroke: #000000; stroke-linejoin: miter"/>
   </g>
   <g id="patch_47">
    <path d="M 270.429948 387.02976 
L 273.086903 387.02976 
L 273.086903 387.02976 
L 270.429948 387.02976 
z
" clip-path="url(#p2346ba2052)" style="fill: #6f6f6f; opacity: 0.5; stroke: #000000; stroke-linejoin: miter"/>
   </g>
   <g id="patch_48">
    <path d="M 273.086903 387.02976 
L 275.743859 387.02976 
L 275.743859 387.02976 
L 273.086903 387.02976 
z
" clip-path="url(#p2346ba2052)" style="fill: #6f6f6f; opacity: 0.5; stroke: #000000; stroke-linejoin: miter"/>
   </g>
   <g id="patch_49">
    <path d="M 275.743859 387.02976 
L 278.400814 387.02976 
L 278.400814 213.528649 
L 275.743859 213.528649 
z
" clip-path="url(#p2346ba2052)" style="fill: #6f6f6f; opacity: 0.5; stroke: #000000; stroke-linejoin: miter"/>
   </g>
   <g id="patch_50">
    <path d="M 278.400814 387.02976 
L 281.05777 387.02976 
L 281.05777 213.528649 
L 278.400814 213.528649 
z
" clip-path="url(#p2346ba2052)" style="fill: #6f6f6f; opacity: 0.5; stroke: #000000; stroke-linejoin: miter"/>
   </g>
   <g id="patch_51">
    <path d="M 281.05777 387.02976 
L 283.714725 387.02976 
L 283.714725 387.02976 
L 281.05777 387.02976 
z
" clip-path="url(#p2346ba2052)" style="fill: #6f6f6f; opacity: 0.5; stroke: #000000; stroke-linejoin: miter"/>
   </g>
   <g id="patch_52">
    <path d="M 283.714725 387.02976 
L 286.371681 387.02976 
L 286.371681 387.02976 
L 283.714725 387.02976 
z
" clip-path="url(#p2346ba2052)" style="fill: #6f6f6f; opacity: 0.5; stroke: #000000; stroke-linejoin: miter"/>
   </g>
   <g id="patch_53">
    <path d="M 286.371681 387.02976 
L 289.028636 387.02976 
L 289.028636 387.02976 
L 286.371681 387.02976 
z
" clip-path="url(#p2346ba2052)" style="fill: #6f6f6f; opacity: 0.5; stroke: #000000; stroke-linejoin: miter"/>
   </g>
   <g id="patch_54">
    <path d="M 289.028636 387.02976 
L 291.685591 387.02976 
L 291.685591 387.02976 
L 289.028636 387.02976 
z
" clip-path="url(#p2346ba2052)" style="fill: #6f6f6f; opacity: 0.5; stroke: #000000; stroke-linejoin: miter"/>
   </g>
   <g id="patch_55">
    <path d="M 291.685591 387.02976 
L 294.342547 387.02976 
L 294.342547 213.528649 
L 291.685591 213.528649 
z
" clip-path="url(#p2346ba2052)" style="fill: #6f6f6f; opacity: 0.5; stroke: #000000; stroke-linejoin: miter"/>
   </g>
   <g id="patch_56">
    <path d="M 294.342547 387.02976 
L 296.999502 387.02976 
L 296.999502 387.02976 
L 294.342547 387.02976 
z
" clip-path="url(#p2346ba2052)" style="fill: #6f6f6f; opacity: 0.5; stroke: #000000; stroke-linejoin: miter"/>
   </g>
   <g id="patch_57">
    <path d="M 296.999502 387.02976 
L 299.656458 387.02976 
L 299.656458 213.528649 
L 296.999502 213.528649 
z
" clip-path="url(#p2346ba2052)" style="fill: #6f6f6f; opacity: 0.5; stroke: #000000; stroke-linejoin: miter"/>
   </g>
   <g id="patch_58">
    <path d="M 299.656458 387.02976 
L 302.313413 387.02976 
L 302.313413 387.02976 
L 299.656458 387.02976 
z
" clip-path="url(#p2346ba2052)" style="fill: #6f6f6f; opacity: 0.5; stroke: #000000; stroke-linejoin: miter"/>
   </g>
   <g id="patch_59">
    <path d="M 302.313413 387.02976 
L 304.970368 387.02976 
L 304.970368 213.528649 
L 302.313413 213.528649 
z
" clip-path="url(#p2346ba2052)" style="fill: #6f6f6f; opacity: 0.5; stroke: #000000; stroke-linejoin: miter"/>
   </g>
   <g id="patch_60">
    <path d="M 304.970368 387.02976 
L 307.627324 387.02976 
L 307.627324 213.528649 
L 304.970368 213.528649 
z
" clip-path="url(#p2346ba2052)" style="fill: #6f6f6f; opacity: 0.5; stroke: #000000; stroke-linejoin: miter"/>
   </g>
   <g id="patch_61">
    <path d="M 307.627324 387.02976 
L 310.284279 387.02976 
L 310.284279 387.02976 
L 307.627324 387.02976 
z
" clip-path="url(#p2346ba2052)" style="fill: #6f6f6f; opacity: 0.5; stroke: #000000; stroke-linejoin: miter"/>
   </g>
   <g id="patch_62">
    <path d="M 310.284279 387.02976 
L 312.941235 387.02976 
L 312.941235 387.02976 
L 310.284279 387.02976 
z
" clip-path="url(#p2346ba2052)" style="fill: #6f6f6f; opacity: 0.5; stroke: #000000; stroke-linejoin: miter"/>
   </g>
   <g id="patch_63">
    <path d="M 312.941235 387.02976 
L 315.59819 387.02976 
L 315.59819 387.02976 
L 312.941235 387.02976 
z
" clip-path="url(#p2346ba2052)" style="fill: #6f6f6f; opacity: 0.5; stroke: #000000; stroke-linejoin: miter"/>
   </g>
   <g id="patch_64">
    <path d="M 315.59819 387.02976 
L 318.255145 387.02976 
L 318.255145 387.02976 
L 315.59819 387.02976 
z
" clip-path="url(#p2346ba2052)" style="fill: #6f6f6f; opacity: 0.5; stroke: #000000; stroke-linejoin: miter"/>
   </g>
   <g id="patch_65">
    <path d="M 318.255145 387.02976 
L 320.912101 387.02976 
L 320.912101 387.02976 
L 318.255145 387.02976 
z
" clip-path="url(#p2346ba2052)" style="fill: #6f6f6f; opacity: 0.5; stroke: #000000; stroke-linejoin: miter"/>
   </g>
   <g id="patch_66">
    <path d="M 73.624991 387.02976 
L 76.281946 387.02976 
L 76.281946 230.87876 
L 73.624991 230.87876 
z
" clip-path="url(#p2346ba2052)" style="fill: #008aba; opacity: 0.5; stroke: #000000; stroke-linejoin: miter"/>
   </g>
   <g id="patch_67">
    <path d="M 76.281946 387.02976 
L 78.938902 387.02976 
L 78.938902 387.02976 
L 76.281946 387.02976 
z
" clip-path="url(#p2346ba2052)" style="fill: #008aba; opacity: 0.5; stroke: #000000; stroke-linejoin: miter"/>
   </g>
   <g id="patch_68">
    <path d="M 78.938902 387.02976 
L 81.595857 387.02976 
L 81.595857 387.02976 
L 78.938902 387.02976 
z
" clip-path="url(#p2346ba2052)" style="fill: #008aba; opacity: 0.5; stroke: #000000; stroke-linejoin: miter"/>
   </g>
   <g id="patch_69">
    <path d="M 81.595857 387.02976 
L 84.252813 387.02976 
L 84.252813 387.02976 
L 81.595857 387.02976 
z
" clip-path="url(#p2346ba2052)" style="fill: #008aba; opacity: 0.5; stroke: #000000; stroke-linejoin: miter"/>
   </g>
   <g id="patch_70">
    <path d="M 84.252813 387.02976 
L 86.909768 387.02976 
L 86.909768 387.02976 
L 84.252813 387.02976 
z
" clip-path="url(#p2346ba2052)" style="fill: #008aba; opacity: 0.5; stroke: #000000; stroke-linejoin: miter"/>
   </g>
   <g id="patch_71">
    <path d="M 86.909768 387.02976 
L 89.566723 387.02976 
L 89.566723 230.87876 
L 86.909768 230.87876 
z
" clip-path="url(#p2346ba2052)" style="fill: #008aba; opacity: 0.5; stroke: #000000; stroke-linejoin: miter"/>
   </g>
   <g id="patch_72">
    <path d="M 89.566723 387.02976 
L 92.223679 387.02976 
L 92.223679 387.02976 
L 89.566723 387.02976 
z
" clip-path="url(#p2346ba2052)" style="fill: #008aba; opacity: 0.5; stroke: #000000; stroke-linejoin: miter"/>
   </g>
   <g id="patch_73">
    <path d="M 92.223679 387.02976 
L 94.880634 387.02976 
L 94.880634 387.02976 
L 92.223679 387.02976 
z
" clip-path="url(#p2346ba2052)" style="fill: #008aba; opacity: 0.5; stroke: #000000; stroke-linejoin: miter"/>
   </g>
   <g id="patch_74">
    <path d="M 94.880634 387.02976 
L 97.53759 387.02976 
L 97.53759 387.02976 
L 94.880634 387.02976 
z
" clip-path="url(#p2346ba2052)" style="fill: #008aba; opacity: 0.5; stroke: #000000; stroke-linejoin: miter"/>
   </g>
   <g id="patch_75">
    <path d="M 97.53759 387.02976 
L 100.194545 387.02976 
L 100.194545 387.02976 
L 97.53759 387.02976 
z
" clip-path="url(#p2346ba2052)" style="fill: #008aba; opacity: 0.5; stroke: #000000; stroke-linejoin: miter"/>
   </g>
   <g id="patch_76">
    <path d="M 100.194545 387.02976 
L 102.8515 387.02976 
L 102.8515 387.02976 
L 100.194545 387.02976 
z
" clip-path="url(#p2346ba2052)" style="fill: #008aba; opacity: 0.5; stroke: #000000; stroke-linejoin: miter"/>
   </g>
   <g id="patch_77">
    <path d="M 102.8515 387.02976 
L 105.508456 387.02976 
L 105.508456 387.02976 
L 102.8515 387.02976 
z
" clip-path="url(#p2346ba2052)" style="fill: #008aba; opacity: 0.5; stroke: #000000; stroke-linejoin: miter"/>
   </g>
   <g id="patch_78">
    <path d="M 105.508456 387.02976 
L 108.165411 387.02976 
L 108.165411 387.02976 
L 105.508456 387.02976 
z
" clip-path="url(#p2346ba2052)" style="fill: #008aba; opacity: 0.5; stroke: #000000; stroke-linejoin: miter"/>
   </g>
   <g id="patch_79">
    <path d="M 108.165411 387.02976 
L 110.822367 387.02976 
L 110.822367 387.02976 
L 108.165411 387.02976 
z
" clip-path="url(#p2346ba2052)" style="fill: #008aba; opacity: 0.5; stroke: #000000; stroke-linejoin: miter"/>
   </g>
   <g id="patch_80">
    <path d="M 110.822367 387.02976 
L 113.479322 387.02976 
L 113.479322 387.02976 
L 110.822367 387.02976 
z
" clip-path="url(#p2346ba2052)" style="fill: #008aba; opacity: 0.5; stroke: #000000; stroke-linejoin: miter"/>
   </g>
   <g id="patch_81">
    <path d="M 113.479322 387.02976 
L 116.136277 387.02976 
L 116.136277 387.02976 
L 113.479322 387.02976 
z
" clip-path="url(#p2346ba2052)" style="fill: #008aba; opacity: 0.5; stroke: #000000; stroke-linejoin: miter"/>
   </g>
   <g id="patch_82">
    <path d="M 116.136277 387.02976 
L 118.793233 387.02976 
L 118.793233 387.02976 
L 116.136277 387.02976 
z
" clip-path="url(#p2346ba2052)" style="fill: #008aba; opacity: 0.5; stroke: #000000; stroke-linejoin: miter"/>
   </g>
   <g id="patch_83">
    <path d="M 118.793233 387.02976 
L 121.450188 387.02976 
L 121.450188 387.02976 
L 118.793233 387.02976 
z
" clip-path="url(#p2346ba2052)" style="fill: #008aba; opacity: 0.5; stroke: #000000; stroke-linejoin: miter"/>
   </g>
   <g id="patch_84">
    <path d="M 121.450188 387.02976 
L 124.107144 387.02976 
L 124.107144 387.02976 
L 121.450188 387.02976 
z
" clip-path="url(#p2346ba2052)" style="fill: #008aba; opacity: 0.5; stroke: #000000; stroke-linejoin: miter"/>
   </g>
   <g id="patch_85">
    <path d="M 124.107144 387.02976 
L 126.764099 387.02976 
L 126.764099 387.02976 
L 124.107144 387.02976 
z
" clip-path="url(#p2346ba2052)" style="fill: #008aba; opacity: 0.5; stroke: #000000; stroke-linejoin: miter"/>
   </g>
   <g id="patch_86">
    <path d="M 126.764099 387.02976 
L 129.421054 387.02976 
L 129.421054 387.02976 
L 126.764099 387.02976 
z
" clip-path="url(#p2346ba2052)" style="fill: #008aba; opacity: 0.5; stroke: #000000; stroke-linejoin: miter"/>
   </g>
   <g id="patch_87">
    <path d="M 129.421054 387.02976 
L 132.07801 387.02976 
L 132.07801 387.02976 
L 129.421054 387.02976 
z
" clip-path="url(#p2346ba2052)" style="fill: #008aba; opacity: 0.5; stroke: #000000; stroke-linejoin: miter"/>
   </g>
   <g id="patch_88">
    <path d="M 132.07801 387.02976 
L 134.734965 387.02976 
L 134.734965 387.02976 
L 132.07801 387.02976 
z
" clip-path="url(#p2346ba2052)" style="fill: #008aba; opacity: 0.5; stroke: #000000; stroke-linejoin: miter"/>
   </g>
   <g id="patch_89">
    <path d="M 134.734965 387.02976 
L 137.391921 387.02976 
L 137.391921 387.02976 
L 134.734965 387.02976 
z
" clip-path="url(#p2346ba2052)" style="fill: #008aba; opacity: 0.5; stroke: #000000; stroke-linejoin: miter"/>
   </g>
   <g id="patch_90">
    <path d="M 137.391921 387.02976 
L 140.048876 387.02976 
L 140.048876 387.02976 
L 137.391921 387.02976 
z
" clip-path="url(#p2346ba2052)" style="fill: #008aba; opacity: 0.5; stroke: #000000; stroke-linejoin: miter"/>
   </g>
   <g id="patch_91">
    <path d="M 140.048876 387.02976 
L 142.705832 387.02976 
L 142.705832 387.02976 
L 140.048876 387.02976 
z
" clip-path="url(#p2346ba2052)" style="fill: #008aba; opacity: 0.5; stroke: #000000; stroke-linejoin: miter"/>
   </g>
   <g id="patch_92">
    <path d="M 142.705832 387.02976 
L 145.362787 387.02976 
L 145.362787 387.02976 
L 142.705832 387.02976 
z
" clip-path="url(#p2346ba2052)" style="fill: #008aba; opacity: 0.5; stroke: #000000; stroke-linejoin: miter"/>
   </g>
   <g id="patch_93">
    <path d="M 145.362787 387.02976 
L 148.019742 387.02976 
L 148.019742 387.02976 
L 145.362787 387.02976 
z
" clip-path="url(#p2346ba2052)" style="fill: #008aba; opacity: 0.5; stroke: #000000; stroke-linejoin: miter"/>
   </g>
   <g id="patch_94">
    <path d="M 148.019742 387.02976 
L 150.676698 387.02976 
L 150.676698 387.02976 
L 148.019742 387.02976 
z
" clip-path="url(#p2346ba2052)" style="fill: #008aba; opacity: 0.5; stroke: #000000; stroke-linejoin: miter"/>
   </g>
   <g id="patch_95">
    <path d="M 150.676698 387.02976 
L 153.333653 387.02976 
L 153.333653 387.02976 
L 150.676698 387.02976 
z
" clip-path="url(#p2346ba2052)" style="fill: #008aba; opacity: 0.5; stroke: #000000; stroke-linejoin: miter"/>
   </g>
   <g id="patch_96">
    <path d="M 153.333653 387.02976 
L 155.990609 387.02976 
L 155.990609 387.02976 
L 153.333653 387.02976 
z
" clip-path="url(#p2346ba2052)" style="fill: #008aba; opacity: 0.5; stroke: #000000; stroke-linejoin: miter"/>
   </g>
   <g id="patch_97">
    <path d="M 155.990609 387.02976 
L 158.647564 387.02976 
L 158.647564 387.02976 
L 155.990609 387.02976 
z
" clip-path="url(#p2346ba2052)" style="fill: #008aba; opacity: 0.5; stroke: #000000; stroke-linejoin: miter"/>
   </g>
   <g id="patch_98">
    <path d="M 158.647564 387.02976 
L 161.304519 387.02976 
L 161.304519 387.02976 
L 158.647564 387.02976 
z
" clip-path="url(#p2346ba2052)" style="fill: #008aba; opacity: 0.5; stroke: #000000; stroke-linejoin: miter"/>
   </g>
   <g id="patch_99">
    <path d="M 161.304519 387.02976 
L 163.961475 387.02976 
L 163.961475 387.02976 
L 161.304519 387.02976 
z
" clip-path="url(#p2346ba2052)" style="fill: #008aba; opacity: 0.5; stroke: #000000; stroke-linejoin: miter"/>
   </g>
   <g id="patch_100">
    <path d="M 163.961475 387.02976 
L 166.61843 387.02976 
L 166.61843 387.02976 
L 163.961475 387.02976 
z
" clip-path="url(#p2346ba2052)" style="fill: #008aba; opacity: 0.5; stroke: #000000; stroke-linejoin: miter"/>
   </g>
   <g id="patch_101">
    <path d="M 166.61843 387.02976 
L 169.275386 387.02976 
L 169.275386 387.02976 
L 166.61843 387.02976 
z
" clip-path="url(#p2346ba2052)" style="fill: #008aba; opacity: 0.5; stroke: #000000; stroke-linejoin: miter"/>
   </g>
   <g id="patch_102">
    <path d="M 169.275386 387.02976 
L 171.932341 387.02976 
L 171.932341 230.87876 
L 169.275386 230.87876 
z
" clip-path="url(#p2346ba2052)" style="fill: #008aba; opacity: 0.5; stroke: #000000; stroke-linejoin: miter"/>
   </g>
   <g id="patch_103">
    <path d="M 171.932341 387.02976 
L 174.589296 387.02976 
L 174.589296 387.02976 
L 171.932341 387.02976 
z
" clip-path="url(#p2346ba2052)" style="fill: #008aba; opacity: 0.5; stroke: #000000; stroke-linejoin: miter"/>
   </g>
   <g id="patch_104">
    <path d="M 174.589296 387.02976 
L 177.246252 387.02976 
L 177.246252 387.02976 
L 174.589296 387.02976 
z
" clip-path="url(#p2346ba2052)" style="fill: #008aba; opacity: 0.5; stroke: #000000; stroke-linejoin: miter"/>
   </g>
   <g id="patch_105">
    <path d="M 177.246252 387.02976 
L 179.903207 387.02976 
L 179.903207 387.02976 
L 177.246252 387.02976 
z
" clip-path="url(#p2346ba2052)" style="fill: #008aba; opacity: 0.5; stroke: #000000; stroke-linejoin: miter"/>
   </g>
   <g id="patch_106">
    <path d="M 179.903207 387.02976 
L 182.560163 387.02976 
L 182.560163 387.02976 
L 179.903207 387.02976 
z
" clip-path="url(#p2346ba2052)" style="fill: #008aba; opacity: 0.5; stroke: #000000; stroke-linejoin: miter"/>
   </g>
   <g id="patch_107">
    <path d="M 182.560163 387.02976 
L 185.217118 387.02976 
L 185.217118 387.02976 
L 182.560163 387.02976 
z
" clip-path="url(#p2346ba2052)" style="fill: #008aba; opacity: 0.5; stroke: #000000; stroke-linejoin: miter"/>
   </g>
   <g id="patch_108">
    <path d="M 185.217118 387.02976 
L 187.874073 387.02976 
L 187.874073 387.02976 
L 185.217118 387.02976 
z
" clip-path="url(#p2346ba2052)" style="fill: #008aba; opacity: 0.5; stroke: #000000; stroke-linejoin: miter"/>
   </g>
   <g id="patch_109">
    <path d="M 187.874073 387.02976 
L 190.531029 387.02976 
L 190.531029 387.02976 
L 187.874073 387.02976 
z
" clip-path="url(#p2346ba2052)" style="fill: #008aba; opacity: 0.5; stroke: #000000; stroke-linejoin: miter"/>
   </g>
   <g id="patch_110">
    <path d="M 190.531029 387.02976 
L 193.187984 387.02976 
L 193.187984 387.02976 
L 190.531029 387.02976 
z
" clip-path="url(#p2346ba2052)" style="fill: #008aba; opacity: 0.5; stroke: #000000; stroke-linejoin: miter"/>
   </g>
   <g id="patch_111">
    <path d="M 193.187984 387.02976 
L 195.84494 387.02976 
L 195.84494 387.02976 
L 193.187984 387.02976 
z
" clip-path="url(#p2346ba2052)" style="fill: #008aba; opacity: 0.5; stroke: #000000; stroke-linejoin: miter"/>
   </g>
   <g id="patch_112">
    <path d="M 195.84494 387.02976 
L 198.501895 387.02976 
L 198.501895 387.02976 
L 195.84494 387.02976 
z
" clip-path="url(#p2346ba2052)" style="fill: #008aba; opacity: 0.5; stroke: #000000; stroke-linejoin: miter"/>
   </g>
   <g id="patch_113">
    <path d="M 198.501895 387.02976 
L 201.158851 387.02976 
L 201.158851 387.02976 
L 198.501895 387.02976 
z
" clip-path="url(#p2346ba2052)" style="fill: #008aba; opacity: 0.5; stroke: #000000; stroke-linejoin: miter"/>
   </g>
   <g id="patch_114">
    <path d="M 201.158851 387.02976 
L 203.815806 387.02976 
L 203.815806 387.02976 
L 201.158851 387.02976 
z
" clip-path="url(#p2346ba2052)" style="fill: #008aba; opacity: 0.5; stroke: #000000; stroke-linejoin: miter"/>
   </g>
   <g id="patch_115">
    <path d="M 203.815806 387.02976 
L 206.472761 387.02976 
L 206.472761 387.02976 
L 203.815806 387.02976 
z
" clip-path="url(#p2346ba2052)" style="fill: #008aba; opacity: 0.5; stroke: #000000; stroke-linejoin: miter"/>
   </g>
   <g id="patch_116">
    <path d="M 206.472761 387.02976 
L 209.129717 387.02976 
L 209.129717 387.02976 
L 206.472761 387.02976 
z
" clip-path="url(#p2346ba2052)" style="fill: #008aba; opacity: 0.5; stroke: #000000; stroke-linejoin: miter"/>
   </g>
   <g id="patch_117">
    <path d="M 209.129717 387.02976 
L 211.786672 387.02976 
L 211.786672 387.02976 
L 209.129717 387.02976 
z
" clip-path="url(#p2346ba2052)" style="fill: #008aba; opacity: 0.5; stroke: #000000; stroke-linejoin: miter"/>
   </g>
   <g id="patch_118">
    <path d="M 211.786672 387.02976 
L 214.443628 387.02976 
L 214.443628 387.02976 
L 211.786672 387.02976 
z
" clip-path="url(#p2346ba2052)" style="fill: #008aba; opacity: 0.5; stroke: #000000; stroke-linejoin: miter"/>
   </g>
   <g id="patch_119">
    <path d="M 214.443628 387.02976 
L 217.100583 387.02976 
L 217.100583 387.02976 
L 214.443628 387.02976 
z
" clip-path="url(#p2346ba2052)" style="fill: #008aba; opacity: 0.5; stroke: #000000; stroke-linejoin: miter"/>
   </g>
   <g id="patch_120">
    <path d="M 217.100583 387.02976 
L 219.757538 387.02976 
L 219.757538 387.02976 
L 217.100583 387.02976 
z
" clip-path="url(#p2346ba2052)" style="fill: #008aba; opacity: 0.5; stroke: #000000; stroke-linejoin: miter"/>
   </g>
   <g id="patch_121">
    <path d="M 219.757538 387.02976 
L 222.414494 387.02976 
L 222.414494 387.02976 
L 219.757538 387.02976 
z
" clip-path="url(#p2346ba2052)" style="fill: #008aba; opacity: 0.5; stroke: #000000; stroke-linejoin: miter"/>
   </g>
   <g id="patch_122">
    <path d="M 222.414494 387.02976 
L 225.071449 387.02976 
L 225.071449 387.02976 
L 222.414494 387.02976 
z
" clip-path="url(#p2346ba2052)" style="fill: #008aba; opacity: 0.5; stroke: #000000; stroke-linejoin: miter"/>
   </g>
   <g id="patch_123">
    <path d="M 225.071449 387.02976 
L 227.728405 387.02976 
L 227.728405 387.02976 
L 225.071449 387.02976 
z
" clip-path="url(#p2346ba2052)" style="fill: #008aba; opacity: 0.5; stroke: #000000; stroke-linejoin: miter"/>
   </g>
   <g id="patch_124">
    <path d="M 227.728405 387.02976 
L 230.38536 387.02976 
L 230.38536 387.02976 
L 227.728405 387.02976 
z
" clip-path="url(#p2346ba2052)" style="fill: #008aba; opacity: 0.5; stroke: #000000; stroke-linejoin: miter"/>
   </g>
   <g id="patch_125">
    <path d="M 230.38536 387.02976 
L 233.042315 387.02976 
L 233.042315 387.02976 
L 230.38536 387.02976 
z
" clip-path="url(#p2346ba2052)" style="fill: #008aba; opacity: 0.5; stroke: #000000; stroke-linejoin: miter"/>
   </g>
   <g id="patch_126">
    <path d="M 233.042315 387.02976 
L 235.699271 387.02976 
L 235.699271 230.87876 
L 233.042315 230.87876 
z
" clip-path="url(#p2346ba2052)" style="fill: #008aba; opacity: 0.5; stroke: #000000; stroke-linejoin: miter"/>
   </g>
   <g id="patch_127">
    <path d="M 235.699271 387.02976 
L 238.356226 387.02976 
L 238.356226 387.02976 
L 235.699271 387.02976 
z
" clip-path="url(#p2346ba2052)" style="fill: #008aba; opacity: 0.5; stroke: #000000; stroke-linejoin: miter"/>
   </g>
   <g id="patch_128">
    <path d="M 238.356226 387.02976 
L 241.013182 387.02976 
L 241.013182 387.02976 
L 238.356226 387.02976 
z
" clip-path="url(#p2346ba2052)" style="fill: #008aba; opacity: 0.5; stroke: #000000; stroke-linejoin: miter"/>
   </g>
   <g id="patch_129">
    <path d="M 241.013182 387.02976 
L 243.670137 387.02976 
L 243.670137 387.02976 
L 241.013182 387.02976 
z
" clip-path="url(#p2346ba2052)" style="fill: #008aba; opacity: 0.5; stroke: #000000; stroke-linejoin: miter"/>
   </g>
   <g id="patch_130">
    <path d="M 243.670137 387.02976 
L 246.327092 387.02976 
L 246.327092 74.727761 
L 243.670137 74.727761 
z
" clip-path="url(#p2346ba2052)" style="fill: #008aba; opacity: 0.5; stroke: #000000; stroke-linejoin: miter"/>
   </g>
   <g id="patch_131">
    <path d="M 246.327092 387.02976 
L 248.984048 387.02976 
L 248.984048 230.87876 
L 246.327092 230.87876 
z
" clip-path="url(#p2346ba2052)" style="fill: #008aba; opacity: 0.5; stroke: #000000; stroke-linejoin: miter"/>
   </g>
   <g id="patch_132">
    <path d="M 248.984048 387.02976 
L 251.641003 387.02976 
L 251.641003 387.02976 
L 248.984048 387.02976 
z
" clip-path="url(#p2346ba2052)" style="fill: #008aba; opacity: 0.5; stroke: #000000; stroke-linejoin: miter"/>
   </g>
   <g id="patch_133">
    <path d="M 251.641003 387.02976 
L 254.297959 387.02976 
L 254.297959 387.02976 
L 251.641003 387.02976 
z
" clip-path="url(#p2346ba2052)" style="fill: #008aba; opacity: 0.5; stroke: #000000; stroke-linejoin: miter"/>
   </g>
   <g id="patch_134">
    <path d="M 254.297959 387.02976 
L 256.954914 387.02976 
L 256.954914 387.02976 
L 254.297959 387.02976 
z
" clip-path="url(#p2346ba2052)" style="fill: #008aba; opacity: 0.5; stroke: #000000; stroke-linejoin: miter"/>
   </g>
   <g id="patch_135">
    <path d="M 256.954914 387.02976 
L 259.61187 387.02976 
L 259.61187 387.02976 
L 256.954914 387.02976 
z
" clip-path="url(#p2346ba2052)" style="fill: #008aba; opacity: 0.5; stroke: #000000; stroke-linejoin: miter"/>
   </g>
   <g id="patch_136">
    <path d="M 259.61187 387.02976 
L 262.268825 387.02976 
L 262.268825 230.87876 
L 259.61187 230.87876 
z
" clip-path="url(#p2346ba2052)" style="fill: #008aba; opacity: 0.5; stroke: #000000; stroke-linejoin: miter"/>
   </g>
   <g id="patch_137">
    <path d="M 262.268825 387.02976 
L 264.92578 387.02976 
L 264.92578 387.02976 
L 262.268825 387.02976 
z
" clip-path="url(#p2346ba2052)" style="fill: #008aba; opacity: 0.5; stroke: #000000; stroke-linejoin: miter"/>
   </g>
   <g id="patch_138">
    <path d="M 264.92578 387.02976 
L 267.582736 387.02976 
L 267.582736 387.02976 
L 264.92578 387.02976 
z
" clip-path="url(#p2346ba2052)" style="fill: #008aba; opacity: 0.5; stroke: #000000; stroke-linejoin: miter"/>
   </g>
   <g id="patch_139">
    <path d="M 267.582736 387.02976 
L 270.239691 387.02976 
L 270.239691 387.02976 
L 267.582736 387.02976 
z
" clip-path="url(#p2346ba2052)" style="fill: #008aba; opacity: 0.5; stroke: #000000; stroke-linejoin: miter"/>
   </g>
   <g id="patch_140">
    <path d="M 270.239691 387.02976 
L 272.896647 387.02976 
L 272.896647 387.02976 
L 270.239691 387.02976 
z
" clip-path="url(#p2346ba2052)" style="fill: #008aba; opacity: 0.5; stroke: #000000; stroke-linejoin: miter"/>
   </g>
   <g id="patch_141">
    <path d="M 272.896647 387.02976 
L 275.553602 387.02976 
L 275.553602 230.87876 
L 272.896647 230.87876 
z
" clip-path="url(#p2346ba2052)" style="fill: #008aba; opacity: 0.5; stroke: #000000; stroke-linejoin: miter"/>
   </g>
   <g id="patch_142">
    <path d="M 275.553602 387.02976 
L 278.210557 387.02976 
L 278.210557 387.02976 
L 275.553602 387.02976 
z
" clip-path="url(#p2346ba2052)" style="fill: #008aba; opacity: 0.5; stroke: #000000; stroke-linejoin: miter"/>
   </g>
   <g id="patch_143">
    <path d="M 278.210557 387.02976 
L 280.867513 387.02976 
L 280.867513 230.87876 
L 278.210557 230.87876 
z
" clip-path="url(#p2346ba2052)" style="fill: #008aba; opacity: 0.5; stroke: #000000; stroke-linejoin: miter"/>
   </g>
   <g id="patch_144">
    <path d="M 280.867513 387.02976 
L 283.524468 387.02976 
L 283.524468 387.02976 
L 280.867513 387.02976 
z
" clip-path="url(#p2346ba2052)" style="fill: #008aba; opacity: 0.5; stroke: #000000; stroke-linejoin: miter"/>
   </g>
   <g id="patch_145">
    <path d="M 283.524468 387.02976 
L 286.181424 387.02976 
L 286.181424 387.02976 
L 283.524468 387.02976 
z
" clip-path="url(#p2346ba2052)" style="fill: #008aba; opacity: 0.5; stroke: #000000; stroke-linejoin: miter"/>
   </g>
   <g id="patch_146">
    <path d="M 286.181424 387.02976 
L 288.838379 387.02976 
L 288.838379 387.02976 
L 286.181424 387.02976 
z
" clip-path="url(#p2346ba2052)" style="fill: #008aba; opacity: 0.5; stroke: #000000; stroke-linejoin: miter"/>
   </g>
   <g id="patch_147">
    <path d="M 288.838379 387.02976 
L 291.495334 387.02976 
L 291.495334 387.02976 
L 288.838379 387.02976 
z
" clip-path="url(#p2346ba2052)" style="fill: #008aba; opacity: 0.5; stroke: #000000; stroke-linejoin: miter"/>
   </g>
   <g id="patch_148">
    <path d="M 291.495334 387.02976 
L 294.15229 387.02976 
L 294.15229 387.02976 
L 291.495334 387.02976 
z
" clip-path="url(#p2346ba2052)" style="fill: #008aba; opacity: 0.5; stroke: #000000; stroke-linejoin: miter"/>
   </g>
   <g id="patch_149">
    <path d="M 294.15229 387.02976 
L 296.809245 387.02976 
L 296.809245 387.02976 
L 294.15229 387.02976 
z
" clip-path="url(#p2346ba2052)" style="fill: #008aba; opacity: 0.5; stroke: #000000; stroke-linejoin: miter"/>
   </g>
   <g id="patch_150">
    <path d="M 296.809245 387.02976 
L 299.466201 387.02976 
L 299.466201 387.02976 
L 296.809245 387.02976 
z
" clip-path="url(#p2346ba2052)" style="fill: #008aba; opacity: 0.5; stroke: #000000; stroke-linejoin: miter"/>
   </g>
   <g id="patch_151">
    <path d="M 299.466201 387.02976 
L 302.123156 387.02976 
L 302.123156 387.02976 
L 299.466201 387.02976 
z
" clip-path="url(#p2346ba2052)" style="fill: #008aba; opacity: 0.5; stroke: #000000; stroke-linejoin: miter"/>
   </g>
   <g id="patch_152">
    <path d="M 302.123156 387.02976 
L 304.780111 387.02976 
L 304.780111 230.87876 
L 302.123156 230.87876 
z
" clip-path="url(#p2346ba2052)" style="fill: #008aba; opacity: 0.5; stroke: #000000; stroke-linejoin: miter"/>
   </g>
   <g id="patch_153">
    <path d="M 304.780111 387.02976 
L 307.437067 387.02976 
L 307.437067 230.87876 
L 304.780111 230.87876 
z
" clip-path="url(#p2346ba2052)" style="fill: #008aba; opacity: 0.5; stroke: #000000; stroke-linejoin: miter"/>
   </g>
   <g id="patch_154">
    <path d="M 307.437067 387.02976 
L 310.094022 387.02976 
L 310.094022 387.02976 
L 307.437067 387.02976 
z
" clip-path="url(#p2346ba2052)" style="fill: #008aba; opacity: 0.5; stroke: #000000; stroke-linejoin: miter"/>
   </g>
   <g id="patch_155">
    <path d="M 310.094022 387.02976 
L 312.750978 387.02976 
L 312.750978 387.02976 
L 310.094022 387.02976 
z
" clip-path="url(#p2346ba2052)" style="fill: #008aba; opacity: 0.5; stroke: #000000; stroke-linejoin: miter"/>
   </g>
   <g id="patch_156">
    <path d="M 312.750978 387.02976 
L 315.407933 387.02976 
L 315.407933 387.02976 
L 312.750978 387.02976 
z
" clip-path="url(#p2346ba2052)" style="fill: #008aba; opacity: 0.5; stroke: #000000; stroke-linejoin: miter"/>
   </g>
   <g id="patch_157">
    <path d="M 315.407933 387.02976 
L 318.064889 387.02976 
L 318.064889 387.02976 
L 315.407933 387.02976 
z
" clip-path="url(#p2346ba2052)" style="fill: #008aba; opacity: 0.5; stroke: #000000; stroke-linejoin: miter"/>
   </g>
   <g id="patch_158">
    <path d="M 318.064889 387.02976 
L 320.721844 387.02976 
L 320.721844 387.02976 
L 318.064889 387.02976 
z
" clip-path="url(#p2346ba2052)" style="fill: #008aba; opacity: 0.5; stroke: #000000; stroke-linejoin: miter"/>
   </g>
   <g id="patch_159">
    <path d="M 320.721844 387.02976 
L 323.378799 387.02976 
L 323.378799 387.02976 
L 320.721844 387.02976 
z
" clip-path="url(#p2346ba2052)" style="fill: #008aba; opacity: 0.5; stroke: #000000; stroke-linejoin: miter"/>
   </g>
   <g id="patch_160">
    <path d="M 323.378799 387.02976 
L 326.035755 387.02976 
L 326.035755 387.02976 
L 323.378799 387.02976 
z
" clip-path="url(#p2346ba2052)" style="fill: #008aba; opacity: 0.5; stroke: #000000; stroke-linejoin: miter"/>
   </g>
   <g id="patch_161">
    <path d="M 326.035755 387.02976 
L 328.69271 387.02976 
L 328.69271 230.87876 
L 326.035755 230.87876 
z
" clip-path="url(#p2346ba2052)" style="fill: #008aba; opacity: 0.5; stroke: #000000; stroke-linejoin: miter"/>
   </g>
   <g id="patch_162">
    <path d="M 328.69271 387.02976 
L 331.349666 387.02976 
L 331.349666 387.02976 
L 328.69271 387.02976 
z
" clip-path="url(#p2346ba2052)" style="fill: #008aba; opacity: 0.5; stroke: #000000; stroke-linejoin: miter"/>
   </g>
   <g id="patch_163">
    <path d="M 331.349666 387.02976 
L 334.006621 387.02976 
L 334.006621 387.02976 
L 331.349666 387.02976 
z
" clip-path="url(#p2346ba2052)" style="fill: #008aba; opacity: 0.5; stroke: #000000; stroke-linejoin: miter"/>
   </g>
   <g id="patch_164">
    <path d="M 334.006621 387.02976 
L 336.663576 387.02976 
L 336.663576 387.02976 
L 334.006621 387.02976 
z
" clip-path="url(#p2346ba2052)" style="fill: #008aba; opacity: 0.5; stroke: #000000; stroke-linejoin: miter"/>
   </g>
   <g id="patch_165">
    <path d="M 336.663576 387.02976 
L 339.320532 387.02976 
L 339.320532 387.02976 
L 336.663576 387.02976 
z
" clip-path="url(#p2346ba2052)" style="fill: #008aba; opacity: 0.5; stroke: #000000; stroke-linejoin: miter"/>
   </g>
   <g id="patch_166">
    <path d="M 339.320532 387.02976 
L 341.977487 387.02976 
L 341.977487 387.02976 
L 339.320532 387.02976 
z
" clip-path="url(#p2346ba2052)" style="fill: #008aba; opacity: 0.5; stroke: #000000; stroke-linejoin: miter"/>
   </g>
   <g id="patch_167">
    <path d="M 341.977487 387.02976 
L 344.634443 387.02976 
L 344.634443 387.02976 
L 341.977487 387.02976 
z
" clip-path="url(#p2346ba2052)" style="fill: #008aba; opacity: 0.5; stroke: #000000; stroke-linejoin: miter"/>
   </g>
   <g id="patch_168">
    <path d="M 344.634443 387.02976 
L 347.291398 387.02976 
L 347.291398 387.02976 
L 344.634443 387.02976 
z
" clip-path="url(#p2346ba2052)" style="fill: #008aba; opacity: 0.5; stroke: #000000; stroke-linejoin: miter"/>
   </g>
   <g id="patch_169">
    <path d="M 347.291398 387.02976 
L 349.948353 387.02976 
L 349.948353 387.02976 
L 347.291398 387.02976 
z
" clip-path="url(#p2346ba2052)" style="fill: #008aba; opacity: 0.5; stroke: #000000; stroke-linejoin: miter"/>
   </g>
   <g id="patch_170">
    <path d="M 349.948353 387.02976 
L 352.605309 387.02976 
L 352.605309 387.02976 
L 349.948353 387.02976 
z
" clip-path="url(#p2346ba2052)" style="fill: #008aba; opacity: 0.5; stroke: #000000; stroke-linejoin: miter"/>
   </g>
   <g id="patch_171">
    <path d="M 352.605309 387.02976 
L 355.262264 387.02976 
L 355.262264 387.02976 
L 352.605309 387.02976 
z
" clip-path="url(#p2346ba2052)" style="fill: #008aba; opacity: 0.5; stroke: #000000; stroke-linejoin: miter"/>
   </g>
   <g id="patch_172">
    <path d="M 355.262264 387.02976 
L 357.91922 387.02976 
L 357.91922 387.02976 
L 355.262264 387.02976 
z
" clip-path="url(#p2346ba2052)" style="fill: #008aba; opacity: 0.5; stroke: #000000; stroke-linejoin: miter"/>
   </g>
   <g id="patch_173">
    <path d="M 357.91922 387.02976 
L 360.576175 387.02976 
L 360.576175 387.02976 
L 357.91922 387.02976 
z
" clip-path="url(#p2346ba2052)" style="fill: #008aba; opacity: 0.5; stroke: #000000; stroke-linejoin: miter"/>
   </g>
   <g id="patch_174">
    <path d="M 360.576175 387.02976 
L 363.23313 387.02976 
L 363.23313 387.02976 
L 360.576175 387.02976 
z
" clip-path="url(#p2346ba2052)" style="fill: #008aba; opacity: 0.5; stroke: #000000; stroke-linejoin: miter"/>
   </g>
   <g id="patch_175">
    <path d="M 363.23313 387.02976 
L 365.890086 387.02976 
L 365.890086 387.02976 
L 363.23313 387.02976 
z
" clip-path="url(#p2346ba2052)" style="fill: #008aba; opacity: 0.5; stroke: #000000; stroke-linejoin: miter"/>
   </g>
   <g id="patch_176">
    <path d="M 365.890086 387.02976 
L 368.547041 387.02976 
L 368.547041 387.02976 
L 365.890086 387.02976 
z
" clip-path="url(#p2346ba2052)" style="fill: #008aba; opacity: 0.5; stroke: #000000; stroke-linejoin: miter"/>
   </g>
   <g id="patch_177">
    <path d="M 368.547041 387.02976 
L 371.203997 387.02976 
L 371.203997 387.02976 
L 368.547041 387.02976 
z
" clip-path="url(#p2346ba2052)" style="fill: #008aba; opacity: 0.5; stroke: #000000; stroke-linejoin: miter"/>
   </g>
   <g id="patch_178">
    <path d="M 371.203997 387.02976 
L 373.860952 387.02976 
L 373.860952 387.02976 
L 371.203997 387.02976 
z
" clip-path="url(#p2346ba2052)" style="fill: #008aba; opacity: 0.5; stroke: #000000; stroke-linejoin: miter"/>
   </g>
   <g id="patch_179">
    <path d="M 373.860952 387.02976 
L 376.517908 387.02976 
L 376.517908 387.02976 
L 373.860952 387.02976 
z
" clip-path="url(#p2346ba2052)" style="fill: #008aba; opacity: 0.5; stroke: #000000; stroke-linejoin: miter"/>
   </g>
   <g id="patch_180">
    <path d="M 376.517908 387.02976 
L 379.174863 387.02976 
L 379.174863 230.87876 
L 376.517908 230.87876 
z
" clip-path="url(#p2346ba2052)" style="fill: #008aba; opacity: 0.5; stroke: #000000; stroke-linejoin: miter"/>
   </g>
   <g id="patch_181">
    <path d="M 379.174863 387.02976 
L 381.831818 387.02976 
L 381.831818 387.02976 
L 379.174863 387.02976 
z
" clip-path="url(#p2346ba2052)" style="fill: #008aba; opacity: 0.5; stroke: #000000; stroke-linejoin: miter"/>
   </g>
   <g id="patch_182">
    <path d="M 381.831818 387.02976 
L 384.488774 387.02976 
L 384.488774 387.02976 
L 381.831818 387.02976 
z
" clip-path="url(#p2346ba2052)" style="fill: #008aba; opacity: 0.5; stroke: #000000; stroke-linejoin: miter"/>
   </g>
   <g id="patch_183">
    <path d="M 384.488774 387.02976 
L 387.145729 387.02976 
L 387.145729 387.02976 
L 384.488774 387.02976 
z
" clip-path="url(#p2346ba2052)" style="fill: #008aba; opacity: 0.5; stroke: #000000; stroke-linejoin: miter"/>
   </g>
   <g id="patch_184">
    <path d="M 387.145729 387.02976 
L 389.802685 387.02976 
L 389.802685 387.02976 
L 387.145729 387.02976 
z
" clip-path="url(#p2346ba2052)" style="fill: #008aba; opacity: 0.5; stroke: #000000; stroke-linejoin: miter"/>
   </g>
   <g id="patch_185">
    <path d="M 389.802685 387.02976 
L 392.45964 387.02976 
L 392.45964 387.02976 
L 389.802685 387.02976 
z
" clip-path="url(#p2346ba2052)" style="fill: #008aba; opacity: 0.5; stroke: #000000; stroke-linejoin: miter"/>
   </g>
   <g id="patch_186">
    <path d="M 392.45964 387.02976 
L 395.116595 387.02976 
L 395.116595 387.02976 
L 392.45964 387.02976 
z
" clip-path="url(#p2346ba2052)" style="fill: #008aba; opacity: 0.5; stroke: #000000; stroke-linejoin: miter"/>
   </g>
   <g id="patch_187">
    <path d="M 395.116595 387.02976 
L 397.773551 387.02976 
L 397.773551 230.87876 
L 395.116595 230.87876 
z
" clip-path="url(#p2346ba2052)" style="fill: #008aba; opacity: 0.5; stroke: #000000; stroke-linejoin: miter"/>
   </g>
   <g id="patch_188">
    <path d="M 397.773551 387.02976 
L 400.430506 387.02976 
L 400.430506 387.02976 
L 397.773551 387.02976 
z
" clip-path="url(#p2346ba2052)" style="fill: #008aba; opacity: 0.5; stroke: #000000; stroke-linejoin: miter"/>
   </g>
   <g id="patch_189">
    <path d="M 400.430506 387.02976 
L 403.087462 387.02976 
L 403.087462 387.02976 
L 400.430506 387.02976 
z
" clip-path="url(#p2346ba2052)" style="fill: #008aba; opacity: 0.5; stroke: #000000; stroke-linejoin: miter"/>
   </g>
   <g id="patch_190">
    <path d="M 403.087462 387.02976 
L 405.744417 387.02976 
L 405.744417 387.02976 
L 403.087462 387.02976 
z
" clip-path="url(#p2346ba2052)" style="fill: #008aba; opacity: 0.5; stroke: #000000; stroke-linejoin: miter"/>
   </g>
   <g id="patch_191">
    <path d="M 405.744417 387.02976 
L 408.401372 387.02976 
L 408.401372 387.02976 
L 405.744417 387.02976 
z
" clip-path="url(#p2346ba2052)" style="fill: #008aba; opacity: 0.5; stroke: #000000; stroke-linejoin: miter"/>
   </g>
   <g id="patch_192">
    <path d="M 408.401372 387.02976 
L 411.058328 387.02976 
L 411.058328 387.02976 
L 408.401372 387.02976 
z
" clip-path="url(#p2346ba2052)" style="fill: #008aba; opacity: 0.5; stroke: #000000; stroke-linejoin: miter"/>
   </g>
   <g id="patch_193">
    <path d="M 411.058328 387.02976 
L 413.715283 387.02976 
L 413.715283 387.02976 
L 411.058328 387.02976 
z
" clip-path="url(#p2346ba2052)" style="fill: #008aba; opacity: 0.5; stroke: #000000; stroke-linejoin: miter"/>
   </g>
   <g id="patch_194">
    <path d="M 413.715283 387.02976 
L 416.372239 387.02976 
L 416.372239 387.02976 
L 413.715283 387.02976 
z
" clip-path="url(#p2346ba2052)" style="fill: #008aba; opacity: 0.5; stroke: #000000; stroke-linejoin: miter"/>
   </g>
   <g id="patch_195">
    <path d="M 416.372239 387.02976 
L 419.029194 387.02976 
L 419.029194 387.02976 
L 416.372239 387.02976 
z
" clip-path="url(#p2346ba2052)" style="fill: #008aba; opacity: 0.5; stroke: #000000; stroke-linejoin: miter"/>
   </g>
   <g id="patch_196">
    <path d="M 419.029194 387.02976 
L 421.686149 387.02976 
L 421.686149 387.02976 
L 419.029194 387.02976 
z
" clip-path="url(#p2346ba2052)" style="fill: #008aba; opacity: 0.5; stroke: #000000; stroke-linejoin: miter"/>
   </g>
   <g id="patch_197">
    <path d="M 421.686149 387.02976 
L 424.343105 387.02976 
L 424.343105 387.02976 
L 421.686149 387.02976 
z
" clip-path="url(#p2346ba2052)" style="fill: #008aba; opacity: 0.5; stroke: #000000; stroke-linejoin: miter"/>
   </g>
   <g id="patch_198">
    <path d="M 424.343105 387.02976 
L 427.00006 387.02976 
L 427.00006 230.87876 
L 424.343105 230.87876 
z
" clip-path="url(#p2346ba2052)" style="fill: #008aba; opacity: 0.5; stroke: #000000; stroke-linejoin: miter"/>
   </g>
   <g id="patch_199">
    <path d="M 427.00006 387.02976 
L 429.657016 387.02976 
L 429.657016 387.02976 
L 427.00006 387.02976 
z
" clip-path="url(#p2346ba2052)" style="fill: #008aba; opacity: 0.5; stroke: #000000; stroke-linejoin: miter"/>
   </g>
   <g id="patch_200">
    <path d="M 429.657016 387.02976 
L 432.313971 387.02976 
L 432.313971 387.02976 
L 429.657016 387.02976 
z
" clip-path="url(#p2346ba2052)" style="fill: #008aba; opacity: 0.5; stroke: #000000; stroke-linejoin: miter"/>
   </g>
   <g id="patch_201">
    <path d="M 432.313971 387.02976 
L 434.970927 387.02976 
L 434.970927 230.87876 
L 432.313971 230.87876 
z
" clip-path="url(#p2346ba2052)" style="fill: #008aba; opacity: 0.5; stroke: #000000; stroke-linejoin: miter"/>
   </g>
   <g id="patch_202">
    <path d="M 434.970927 387.02976 
L 437.627882 387.02976 
L 437.627882 387.02976 
L 434.970927 387.02976 
z
" clip-path="url(#p2346ba2052)" style="fill: #008aba; opacity: 0.5; stroke: #000000; stroke-linejoin: miter"/>
   </g>
   <g id="patch_203">
    <path d="M 437.627882 387.02976 
L 440.284837 387.02976 
L 440.284837 387.02976 
L 437.627882 387.02976 
z
" clip-path="url(#p2346ba2052)" style="fill: #008aba; opacity: 0.5; stroke: #000000; stroke-linejoin: miter"/>
   </g>
   <g id="patch_204">
    <path d="M 440.284837 387.02976 
L 442.941793 387.02976 
L 442.941793 230.87876 
L 440.284837 230.87876 
z
" clip-path="url(#p2346ba2052)" style="fill: #008aba; opacity: 0.5; stroke: #000000; stroke-linejoin: miter"/>
   </g>
   <g id="patch_205">
    <path d="M 442.941793 387.02976 
L 445.598748 387.02976 
L 445.598748 387.02976 
L 442.941793 387.02976 
z
" clip-path="url(#p2346ba2052)" style="fill: #008aba; opacity: 0.5; stroke: #000000; stroke-linejoin: miter"/>
   </g>
   <g id="patch_206">
    <path d="M 445.598748 387.02976 
L 448.255704 387.02976 
L 448.255704 387.02976 
L 445.598748 387.02976 
z
" clip-path="url(#p2346ba2052)" style="fill: #008aba; opacity: 0.5; stroke: #000000; stroke-linejoin: miter"/>
   </g>
   <g id="patch_207">
    <path d="M 448.255704 387.02976 
L 450.912659 387.02976 
L 450.912659 387.02976 
L 448.255704 387.02976 
z
" clip-path="url(#p2346ba2052)" style="fill: #008aba; opacity: 0.5; stroke: #000000; stroke-linejoin: miter"/>
   </g>
   <g id="patch_208">
    <path d="M 450.912659 387.02976 
L 453.569614 387.02976 
L 453.569614 387.02976 
L 450.912659 387.02976 
z
" clip-path="url(#p2346ba2052)" style="fill: #008aba; opacity: 0.5; stroke: #000000; stroke-linejoin: miter"/>
   </g>
   <g id="patch_209">
    <path d="M 453.569614 387.02976 
L 456.22657 387.02976 
L 456.22657 387.02976 
L 453.569614 387.02976 
z
" clip-path="url(#p2346ba2052)" style="fill: #008aba; opacity: 0.5; stroke: #000000; stroke-linejoin: miter"/>
   </g>
   <g id="patch_210">
    <path d="M 456.22657 387.02976 
L 458.883525 387.02976 
L 458.883525 387.02976 
L 456.22657 387.02976 
z
" clip-path="url(#p2346ba2052)" style="fill: #008aba; opacity: 0.5; stroke: #000000; stroke-linejoin: miter"/>
   </g>
   <g id="patch_211">
    <path d="M 458.883525 387.02976 
L 461.540481 387.02976 
L 461.540481 387.02976 
L 458.883525 387.02976 
z
" clip-path="url(#p2346ba2052)" style="fill: #008aba; opacity: 0.5; stroke: #000000; stroke-linejoin: miter"/>
   </g>
   <g id="patch_212">
    <path d="M 461.540481 387.02976 
L 464.197436 387.02976 
L 464.197436 387.02976 
L 461.540481 387.02976 
z
" clip-path="url(#p2346ba2052)" style="fill: #008aba; opacity: 0.5; stroke: #000000; stroke-linejoin: miter"/>
   </g>
   <g id="patch_213">
    <path d="M 464.197436 387.02976 
L 466.854391 387.02976 
L 466.854391 387.02976 
L 464.197436 387.02976 
z
" clip-path="url(#p2346ba2052)" style="fill: #008aba; opacity: 0.5; stroke: #000000; stroke-linejoin: miter"/>
   </g>
   <g id="patch_214">
    <path d="M 466.854391 387.02976 
L 469.511347 387.02976 
L 469.511347 387.02976 
L 466.854391 387.02976 
z
" clip-path="url(#p2346ba2052)" style="fill: #008aba; opacity: 0.5; stroke: #000000; stroke-linejoin: miter"/>
   </g>
   <g id="patch_215">
    <path d="M 469.511347 387.02976 
L 472.168302 387.02976 
L 472.168302 387.02976 
L 469.511347 387.02976 
z
" clip-path="url(#p2346ba2052)" style="fill: #008aba; opacity: 0.5; stroke: #000000; stroke-linejoin: miter"/>
   </g>
   <g id="patch_216">
    <path d="M 472.168302 387.02976 
L 474.825258 387.02976 
L 474.825258 387.02976 
L 472.168302 387.02976 
z
" clip-path="url(#p2346ba2052)" style="fill: #008aba; opacity: 0.5; stroke: #000000; stroke-linejoin: miter"/>
   </g>
   <g id="patch_217">
    <path d="M 474.825258 387.02976 
L 477.482213 387.02976 
L 477.482213 387.02976 
L 474.825258 387.02976 
z
" clip-path="url(#p2346ba2052)" style="fill: #008aba; opacity: 0.5; stroke: #000000; stroke-linejoin: miter"/>
   </g>
   <g id="patch_218">
    <path d="M 477.482213 387.02976 
L 480.139168 387.02976 
L 480.139168 387.02976 
L 477.482213 387.02976 
z
" clip-path="url(#p2346ba2052)" style="fill: #008aba; opacity: 0.5; stroke: #000000; stroke-linejoin: miter"/>
   </g>
   <g id="patch_219">
    <path d="M 480.139168 387.02976 
L 482.796124 387.02976 
L 482.796124 387.02976 
L 480.139168 387.02976 
z
" clip-path="url(#p2346ba2052)" style="fill: #008aba; opacity: 0.5; stroke: #000000; stroke-linejoin: miter"/>
   </g>
   <g id="patch_220">
    <path d="M 482.796124 387.02976 
L 485.453079 387.02976 
L 485.453079 387.02976 
L 482.796124 387.02976 
z
" clip-path="url(#p2346ba2052)" style="fill: #008aba; opacity: 0.5; stroke: #000000; stroke-linejoin: miter"/>
   </g>
   <g id="patch_221">
    <path d="M 485.453079 387.02976 
L 488.110035 387.02976 
L 488.110035 387.02976 
L 485.453079 387.02976 
z
" clip-path="url(#p2346ba2052)" style="fill: #008aba; opacity: 0.5; stroke: #000000; stroke-linejoin: miter"/>
   </g>
   <g id="patch_222">
    <path d="M 488.110035 387.02976 
L 490.76699 387.02976 
L 490.76699 387.02976 
L 488.110035 387.02976 
z
" clip-path="url(#p2346ba2052)" style="fill: #008aba; opacity: 0.5; stroke: #000000; stroke-linejoin: miter"/>
   </g>
   <g id="patch_223">
    <path d="M 490.76699 387.02976 
L 493.423946 387.02976 
L 493.423946 387.02976 
L 490.76699 387.02976 
z
" clip-path="url(#p2346ba2052)" style="fill: #008aba; opacity: 0.5; stroke: #000000; stroke-linejoin: miter"/>
   </g>
   <g id="patch_224">
    <path d="M 493.423946 387.02976 
L 496.080901 387.02976 
L 496.080901 387.02976 
L 493.423946 387.02976 
z
" clip-path="url(#p2346ba2052)" style="fill: #008aba; opacity: 0.5; stroke: #000000; stroke-linejoin: miter"/>
   </g>
   <g id="patch_225">
    <path d="M 496.080901 387.02976 
L 498.737856 387.02976 
L 498.737856 230.87876 
L 496.080901 230.87876 
z
" clip-path="url(#p2346ba2052)" style="fill: #008aba; opacity: 0.5; stroke: #000000; stroke-linejoin: miter"/>
   </g>
   <g id="patch_226">
    <path d="M 498.737856 387.02976 
L 501.394812 387.02976 
L 501.394812 387.02976 
L 498.737856 387.02976 
z
" clip-path="url(#p2346ba2052)" style="fill: #008aba; opacity: 0.5; stroke: #000000; stroke-linejoin: miter"/>
   </g>
   <g id="patch_227">
    <path d="M 501.394812 387.02976 
L 504.051767 387.02976 
L 504.051767 387.02976 
L 501.394812 387.02976 
z
" clip-path="url(#p2346ba2052)" style="fill: #008aba; opacity: 0.5; stroke: #000000; stroke-linejoin: miter"/>
   </g>
   <g id="patch_228">
    <path d="M 504.051767 387.02976 
L 506.708723 387.02976 
L 506.708723 387.02976 
L 504.051767 387.02976 
z
" clip-path="url(#p2346ba2052)" style="fill: #008aba; opacity: 0.5; stroke: #000000; stroke-linejoin: miter"/>
   </g>
   <g id="patch_229">
    <path d="M 506.708723 387.02976 
L 509.365678 387.02976 
L 509.365678 387.02976 
L 506.708723 387.02976 
z
" clip-path="url(#p2346ba2052)" style="fill: #008aba; opacity: 0.5; stroke: #000000; stroke-linejoin: miter"/>
   </g>
   <g id="patch_230">
    <path d="M 509.365678 387.02976 
L 512.022633 387.02976 
L 512.022633 387.02976 
L 509.365678 387.02976 
z
" clip-path="url(#p2346ba2052)" style="fill: #008aba; opacity: 0.5; stroke: #000000; stroke-linejoin: miter"/>
   </g>
   <g id="patch_231">
    <path d="M 512.022633 387.02976 
L 514.679589 387.02976 
L 514.679589 387.02976 
L 512.022633 387.02976 
z
" clip-path="url(#p2346ba2052)" style="fill: #008aba; opacity: 0.5; stroke: #000000; stroke-linejoin: miter"/>
   </g>
   <g id="patch_232">
    <path d="M 514.679589 387.02976 
L 517.336544 387.02976 
L 517.336544 387.02976 
L 514.679589 387.02976 
z
" clip-path="url(#p2346ba2052)" style="fill: #008aba; opacity: 0.5; stroke: #000000; stroke-linejoin: miter"/>
   </g>
   <g id="patch_233">
    <path d="M 517.336544 387.02976 
L 519.9935 387.02976 
L 519.9935 387.02976 
L 517.336544 387.02976 
z
" clip-path="url(#p2346ba2052)" style="fill: #008aba; opacity: 0.5; stroke: #000000; stroke-linejoin: miter"/>
   </g>
   <g id="patch_234">
    <path d="M 519.9935 387.02976 
L 522.650455 387.02976 
L 522.650455 387.02976 
L 519.9935 387.02976 
z
" clip-path="url(#p2346ba2052)" style="fill: #008aba; opacity: 0.5; stroke: #000000; stroke-linejoin: miter"/>
   </g>
   <g id="patch_235">
    <path d="M 522.650455 387.02976 
L 525.30741 387.02976 
L 525.30741 387.02976 
L 522.650455 387.02976 
z
" clip-path="url(#p2346ba2052)" style="fill: #008aba; opacity: 0.5; stroke: #000000; stroke-linejoin: miter"/>
   </g>
   <g id="patch_236">
    <path d="M 525.30741 387.02976 
L 527.964366 387.02976 
L 527.964366 387.02976 
L 525.30741 387.02976 
z
" clip-path="url(#p2346ba2052)" style="fill: #008aba; opacity: 0.5; stroke: #000000; stroke-linejoin: miter"/>
   </g>
   <g id="patch_237">
    <path d="M 527.964366 387.02976 
L 530.621321 387.02976 
L 530.621321 387.02976 
L 527.964366 387.02976 
z
" clip-path="url(#p2346ba2052)" style="fill: #008aba; opacity: 0.5; stroke: #000000; stroke-linejoin: miter"/>
   </g>
   <g id="patch_238">
    <path d="M 530.621321 387.02976 
L 533.278277 387.02976 
L 533.278277 387.02976 
L 530.621321 387.02976 
z
" clip-path="url(#p2346ba2052)" style="fill: #008aba; opacity: 0.5; stroke: #000000; stroke-linejoin: miter"/>
   </g>
   <g id="patch_239">
    <path d="M 533.278277 387.02976 
L 535.935232 387.02976 
L 535.935232 387.02976 
L 533.278277 387.02976 
z
" clip-path="url(#p2346ba2052)" style="fill: #008aba; opacity: 0.5; stroke: #000000; stroke-linejoin: miter"/>
   </g>
   <g id="patch_240">
    <path d="M 535.935232 387.02976 
L 538.592187 387.02976 
L 538.592187 387.02976 
L 535.935232 387.02976 
z
" clip-path="url(#p2346ba2052)" style="fill: #008aba; opacity: 0.5; stroke: #000000; stroke-linejoin: miter"/>
   </g>
   <g id="patch_241">
    <path d="M 538.592187 387.02976 
L 541.249143 387.02976 
L 541.249143 387.02976 
L 538.592187 387.02976 
z
" clip-path="url(#p2346ba2052)" style="fill: #008aba; opacity: 0.5; stroke: #000000; stroke-linejoin: miter"/>
   </g>
   <g id="patch_242">
    <path d="M 541.249143 387.02976 
L 543.906098 387.02976 
L 543.906098 387.02976 
L 541.249143 387.02976 
z
" clip-path="url(#p2346ba2052)" style="fill: #008aba; opacity: 0.5; stroke: #000000; stroke-linejoin: miter"/>
   </g>
   <g id="patch_243">
    <path d="M 543.906098 387.02976 
L 546.563054 387.02976 
L 546.563054 387.02976 
L 543.906098 387.02976 
z
" clip-path="url(#p2346ba2052)" style="fill: #008aba; opacity: 0.5; stroke: #000000; stroke-linejoin: miter"/>
   </g>
   <g id="patch_244">
    <path d="M 546.563054 387.02976 
L 549.220009 387.02976 
L 549.220009 230.87876 
L 546.563054 230.87876 
z
" clip-path="url(#p2346ba2052)" style="fill: #008aba; opacity: 0.5; stroke: #000000; stroke-linejoin: miter"/>
   </g>
   <g id="matplotlib.axis_1">
    <g id="xtick_1">
     <g id="line2d_1">
      <defs>
       <path id="mc5836b2698" d="M 0 0 
L 0 3.5 
" style="stroke: #000000; stroke-width: 0.8"/>
      </defs>
      <g>
       <use xlink:href="#mc5836b2698" x="74.33586" y="387.02976" style="stroke: #000000; stroke-width: 0.8"/>
      </g>
     </g>
     <g id="text_1">
      <!-- 4.00 -->
      <g transform="translate(56.52336 406.18726)scale(0.16 -0.16)">
       <defs>
        <path id="DejaVuSans-34" d="M 2419 4116 
L 825 1625 
L 2419 1625 
L 2419 4116 
z
M 2253 4666 
L 3047 4666 
L 3047 1625 
L 3713 1625 
L 3713 1100 
L 3047 1100 
L 3047 0 
L 2419 0 
L 2419 1100 
L 313 1100 
L 313 1709 
L 2253 4666 
z
" transform="scale(0.015625)"/>
        <path id="DejaVuSans-2e" d="M 684 794 
L 1344 794 
L 1344 0 
L 684 0 
L 684 794 
z
" transform="scale(0.015625)"/>
        <path id="DejaVuSans-30" d="M 2034 4250 
Q 1547 4250 1301 3770 
Q 1056 3291 1056 2328 
Q 1056 1369 1301 889 
Q 1547 409 2034 409 
Q 2525 409 2770 889 
Q 3016 1369 3016 2328 
Q 3016 3291 2770 3770 
Q 2525 4250 2034 4250 
z
M 2034 4750 
Q 2819 4750 3233 4129 
Q 3647 3509 3647 2328 
Q 3647 1150 3233 529 
Q 2819 -91 2034 -91 
Q 1250 -91 836 529 
Q 422 1150 422 2328 
Q 422 3509 836 4129 
Q 1250 4750 2034 4750 
z
" transform="scale(0.015625)"/>
       </defs>
       <use xlink:href="#DejaVuSans-34"/>
       <use xlink:href="#DejaVuSans-2e" x="63.623047"/>
       <use xlink:href="#DejaVuSans-30" x="95.410156"/>
       <use xlink:href="#DejaVuSans-30" x="159.033203"/>
      </g>
     </g>
    </g>
    <g id="xtick_2">
     <g id="line2d_2">
      <g>
       <use xlink:href="#mc5836b2698" x="140.759746" y="387.02976" style="stroke: #000000; stroke-width: 0.8"/>
      </g>
     </g>
     <g id="text_2">
      <!-- 4.25 -->
      <g transform="translate(122.947246 406.18726)scale(0.16 -0.16)">
       <defs>
        <path id="DejaVuSans-32" d="M 1228 531 
L 3431 531 
L 3431 0 
L 469 0 
L 469 531 
Q 828 903 1448 1529 
Q 2069 2156 2228 2338 
Q 2531 2678 2651 2914 
Q 2772 3150 2772 3378 
Q 2772 3750 2511 3984 
Q 2250 4219 1831 4219 
Q 1534 4219 1204 4116 
Q 875 4013 500 3803 
L 500 4441 
Q 881 4594 1212 4672 
Q 1544 4750 1819 4750 
Q 2544 4750 2975 4387 
Q 3406 4025 3406 3419 
Q 3406 3131 3298 2873 
Q 3191 2616 2906 2266 
Q 2828 2175 2409 1742 
Q 1991 1309 1228 531 
z
" transform="scale(0.015625)"/>
        <path id="DejaVuSans-35" d="M 691 4666 
L 3169 4666 
L 3169 4134 
L 1269 4134 
L 1269 2991 
Q 1406 3038 1543 3061 
Q 1681 3084 1819 3084 
Q 2600 3084 3056 2656 
Q 3513 2228 3513 1497 
Q 3513 744 3044 326 
Q 2575 -91 1722 -91 
Q 1428 -91 1123 -41 
Q 819 9 494 109 
L 494 744 
Q 775 591 1075 516 
Q 1375 441 1709 441 
Q 2250 441 2565 725 
Q 2881 1009 2881 1497 
Q 2881 1984 2565 2268 
Q 2250 2553 1709 2553 
Q 1456 2553 1204 2497 
Q 953 2441 691 2322 
L 691 4666 
z
" transform="scale(0.015625)"/>
       </defs>
       <use xlink:href="#DejaVuSans-34"/>
       <use xlink:href="#DejaVuSans-2e" x="63.623047"/>
       <use xlink:href="#DejaVuSans-32" x="95.410156"/>
       <use xlink:href="#DejaVuSans-35" x="159.033203"/>
      </g>
     </g>
    </g>
    <g id="xtick_3">
     <g id="line2d_3">
      <g>
       <use xlink:href="#mc5836b2698" x="207.183631" y="387.02976" style="stroke: #000000; stroke-width: 0.8"/>
      </g>
     </g>
     <g id="text_3">
      <!-- 4.50 -->
      <g transform="translate(189.371131 406.18726)scale(0.16 -0.16)">
       <use xlink:href="#DejaVuSans-34"/>
       <use xlink:href="#DejaVuSans-2e" x="63.623047"/>
       <use xlink:href="#DejaVuSans-35" x="95.410156"/>
       <use xlink:href="#DejaVuSans-30" x="159.033203"/>
      </g>
     </g>
    </g>
    <g id="xtick_4">
     <g id="line2d_4">
      <g>
       <use xlink:href="#mc5836b2698" x="273.607516" y="387.02976" style="stroke: #000000; stroke-width: 0.8"/>
      </g>
     </g>
     <g id="text_4">
      <!-- 4.75 -->
      <g transform="translate(255.795016 406.18726)scale(0.16 -0.16)">
       <defs>
        <path id="DejaVuSans-37" d="M 525 4666 
L 3525 4666 
L 3525 4397 
L 1831 0 
L 1172 0 
L 2766 4134 
L 525 4134 
L 525 4666 
z
" transform="scale(0.015625)"/>
       </defs>
       <use xlink:href="#DejaVuSans-34"/>
       <use xlink:href="#DejaVuSans-2e" x="63.623047"/>
       <use xlink:href="#DejaVuSans-37" x="95.410156"/>
       <use xlink:href="#DejaVuSans-35" x="159.033203"/>
      </g>
     </g>
    </g>
    <g id="xtick_5">
     <g id="line2d_5">
      <g>
       <use xlink:href="#mc5836b2698" x="340.031401" y="387.02976" style="stroke: #000000; stroke-width: 0.8"/>
      </g>
     </g>
     <g id="text_5">
      <!-- 5.00 -->
      <g transform="translate(322.218901 406.18726)scale(0.16 -0.16)">
       <use xlink:href="#DejaVuSans-35"/>
       <use xlink:href="#DejaVuSans-2e" x="63.623047"/>
       <use xlink:href="#DejaVuSans-30" x="95.410156"/>
       <use xlink:href="#DejaVuSans-30" x="159.033203"/>
      </g>
     </g>
    </g>
    <g id="xtick_6">
     <g id="line2d_6">
      <g>
       <use xlink:href="#mc5836b2698" x="406.455286" y="387.02976" style="stroke: #000000; stroke-width: 0.8"/>
      </g>
     </g>
     <g id="text_6">
      <!-- 5.25 -->
      <g transform="translate(388.642786 406.18726)scale(0.16 -0.16)">
       <use xlink:href="#DejaVuSans-35"/>
       <use xlink:href="#DejaVuSans-2e" x="63.623047"/>
       <use xlink:href="#DejaVuSans-32" x="95.410156"/>
       <use xlink:href="#DejaVuSans-35" x="159.033203"/>
      </g>
     </g>
    </g>
    <g id="xtick_7">
     <g id="line2d_7">
      <g>
       <use xlink:href="#mc5836b2698" x="472.879172" y="387.02976" style="stroke: #000000; stroke-width: 0.8"/>
      </g>
     </g>
     <g id="text_7">
      <!-- 5.50 -->
      <g transform="translate(455.066672 406.18726)scale(0.16 -0.16)">
       <use xlink:href="#DejaVuSans-35"/>
       <use xlink:href="#DejaVuSans-2e" x="63.623047"/>
       <use xlink:href="#DejaVuSans-35" x="95.410156"/>
       <use xlink:href="#DejaVuSans-30" x="159.033203"/>
      </g>
     </g>
    </g>
    <g id="xtick_8">
     <g id="line2d_8">
      <g>
       <use xlink:href="#mc5836b2698" x="539.303057" y="387.02976" style="stroke: #000000; stroke-width: 0.8"/>
      </g>
     </g>
     <g id="text_8">
      <!-- 5.75 -->
      <g transform="translate(521.490557 406.18726)scale(0.16 -0.16)">
       <use xlink:href="#DejaVuSans-35"/>
       <use xlink:href="#DejaVuSans-2e" x="63.623047"/>
       <use xlink:href="#DejaVuSans-37" x="95.410156"/>
       <use xlink:href="#DejaVuSans-35" x="159.033203"/>
      </g>
     </g>
    </g>
    <g id="text_9">
     <!-- $I_{G^{+}}/I_{G^{-}}$ -->
     <g transform="translate(287.1825 425.67226)scale(0.16 -0.16)">
      <defs>
       <path id="DejaVuSans-Oblique-49" d="M 1081 4666 
L 1716 4666 
L 806 0 
L 172 0 
L 1081 4666 
z
" transform="scale(0.015625)"/>
       <path id="DejaVuSans-Oblique-47" d="M 3494 697 
L 3738 1919 
L 2700 1919 
L 2797 2438 
L 4453 2438 
L 4050 384 
Q 3634 156 3143 32 
Q 2653 -91 2156 -91 
Q 1278 -91 783 396 
Q 288 884 288 1753 
Q 288 2475 589 3126 
Q 891 3778 1422 4213 
Q 1756 4484 2153 4617 
Q 2550 4750 3034 4750 
Q 3472 4750 3873 4639 
Q 4275 4528 4641 4306 
L 4513 3634 
Q 4231 3928 3853 4083 
Q 3475 4238 3047 4238 
Q 2550 4238 2172 4048 
Q 1794 3859 1497 3463 
Q 1244 3125 1098 2667 
Q 953 2209 953 1734 
Q 953 1081 1287 751 
Q 1622 422 2284 422 
Q 2616 422 2925 492 
Q 3234 563 3494 697 
z
" transform="scale(0.015625)"/>
       <path id="DejaVuSans-2b" d="M 2944 4013 
L 2944 2272 
L 4684 2272 
L 4684 1741 
L 2944 1741 
L 2944 0 
L 2419 0 
L 2419 1741 
L 678 1741 
L 678 2272 
L 2419 2272 
L 2419 4013 
L 2944 4013 
z
" transform="scale(0.015625)"/>
       <path id="DejaVuSans-2f" d="M 1625 4666 
L 2156 4666 
L 531 -594 
L 0 -594 
L 1625 4666 
z
" transform="scale(0.015625)"/>
       <path id="DejaVuSans-2212" d="M 678 2272 
L 4684 2272 
L 4684 1741 
L 678 1741 
L 678 2272 
z
" transform="scale(0.015625)"/>
      </defs>
      <use xlink:href="#DejaVuSans-Oblique-49" transform="translate(0 0.09375)"/>
      <use xlink:href="#DejaVuSans-Oblique-47" transform="translate(29.492188 -16.3125)scale(0.7)"/>
      <use xlink:href="#DejaVuSans-2b" transform="translate(88.775716 10.484375)scale(0.49)"/>
      <use xlink:href="#DejaVuSans-2f" transform="translate(134.480794 0.09375)"/>
      <use xlink:href="#DejaVuSans-Oblique-49" transform="translate(168.172201 0.09375)"/>
      <use xlink:href="#DejaVuSans-Oblique-47" transform="translate(197.664388 -16.3125)scale(0.7)"/>
      <use xlink:href="#DejaVuSans-2212" transform="translate(256.947917 10.484375)scale(0.49)"/>
     </g>
    </g>
   </g>
   <g id="matplotlib.axis_2">
    <g id="ytick_1">
     <g id="line2d_9">
      <defs>
       <path id="m72659bdfdb" d="M 0 0 
L -3.5 0 
" style="stroke: #000000; stroke-width: 0.8"/>
      </defs>
      <g>
       <use xlink:href="#m72659bdfdb" x="49.84524" y="387.02976" style="stroke: #000000; stroke-width: 0.8"/>
      </g>
     </g>
     <g id="text_10">
      <!-- 0 -->
      <g transform="translate(32.66524 393.10851)scale(0.16 -0.16)">
       <use xlink:href="#DejaVuSans-30"/>
      </g>
     </g>
    </g>
    <g id="ytick_2">
     <g id="line2d_10">
      <g>
       <use xlink:href="#m72659bdfdb" x="49.84524" y="324.56936" style="stroke: #000000; stroke-width: 0.8"/>
      </g>
     </g>
     <g id="text_11">
      <!-- 2 -->
      <g transform="translate(32.66524 330.64811)scale(0.16 -0.16)">
       <use xlink:href="#DejaVuSans-32"/>
      </g>
     </g>
    </g>
    <g id="ytick_3">
     <g id="line2d_11">
      <g>
       <use xlink:href="#m72659bdfdb" x="49.84524" y="262.10896" style="stroke: #000000; stroke-width: 0.8"/>
      </g>
     </g>
     <g id="text_12">
      <!-- 4 -->
      <g transform="translate(32.66524 268.18771)scale(0.16 -0.16)">
       <use xlink:href="#DejaVuSans-34"/>
      </g>
     </g>
    </g>
    <g id="ytick_4">
     <g id="line2d_12">
      <g>
       <use xlink:href="#m72659bdfdb" x="49.84524" y="199.64856" style="stroke: #000000; stroke-width: 0.8"/>
      </g>
     </g>
     <g id="text_13">
      <!-- 6 -->
      <g transform="translate(32.66524 205.72731)scale(0.16 -0.16)">
       <defs>
        <path id="DejaVuSans-36" d="M 2113 2584 
Q 1688 2584 1439 2293 
Q 1191 2003 1191 1497 
Q 1191 994 1439 701 
Q 1688 409 2113 409 
Q 2538 409 2786 701 
Q 3034 994 3034 1497 
Q 3034 2003 2786 2293 
Q 2538 2584 2113 2584 
z
M 3366 4563 
L 3366 3988 
Q 3128 4100 2886 4159 
Q 2644 4219 2406 4219 
Q 1781 4219 1451 3797 
Q 1122 3375 1075 2522 
Q 1259 2794 1537 2939 
Q 1816 3084 2150 3084 
Q 2853 3084 3261 2657 
Q 3669 2231 3669 1497 
Q 3669 778 3244 343 
Q 2819 -91 2113 -91 
Q 1303 -91 875 529 
Q 447 1150 447 2328 
Q 447 3434 972 4092 
Q 1497 4750 2381 4750 
Q 2619 4750 2861 4703 
Q 3103 4656 3366 4563 
z
" transform="scale(0.015625)"/>
       </defs>
       <use xlink:href="#DejaVuSans-36"/>
      </g>
     </g>
    </g>
    <g id="ytick_5">
     <g id="line2d_13">
      <g>
       <use xlink:href="#m72659bdfdb" x="49.84524" y="137.188161" style="stroke: #000000; stroke-width: 0.8"/>
      </g>
     </g>
     <g id="text_14">
      <!-- 8 -->
      <g transform="translate(32.66524 143.266911)scale(0.16 -0.16)">
       <defs>
        <path id="DejaVuSans-38" d="M 2034 2216 
Q 1584 2216 1326 1975 
Q 1069 1734 1069 1313 
Q 1069 891 1326 650 
Q 1584 409 2034 409 
Q 2484 409 2743 651 
Q 3003 894 3003 1313 
Q 3003 1734 2745 1975 
Q 2488 2216 2034 2216 
z
M 1403 2484 
Q 997 2584 770 2862 
Q 544 3141 544 3541 
Q 544 4100 942 4425 
Q 1341 4750 2034 4750 
Q 2731 4750 3128 4425 
Q 3525 4100 3525 3541 
Q 3525 3141 3298 2862 
Q 3072 2584 2669 2484 
Q 3125 2378 3379 2068 
Q 3634 1759 3634 1313 
Q 3634 634 3220 271 
Q 2806 -91 2034 -91 
Q 1263 -91 848 271 
Q 434 634 434 1313 
Q 434 1759 690 2068 
Q 947 2378 1403 2484 
z
M 1172 3481 
Q 1172 3119 1398 2916 
Q 1625 2713 2034 2713 
Q 2441 2713 2670 2916 
Q 2900 3119 2900 3481 
Q 2900 3844 2670 4047 
Q 2441 4250 2034 4250 
Q 1625 4250 1398 4047 
Q 1172 3844 1172 3481 
z
" transform="scale(0.015625)"/>
       </defs>
       <use xlink:href="#DejaVuSans-38"/>
      </g>
     </g>
    </g>
    <g id="ytick_6">
     <g id="line2d_14">
      <g>
       <use xlink:href="#m72659bdfdb" x="49.84524" y="74.727761" style="stroke: #000000; stroke-width: 0.8"/>
      </g>
     </g>
     <g id="text_15">
      <!-- 10 -->
      <g transform="translate(22.48524 80.806511)scale(0.16 -0.16)">
       <defs>
        <path id="DejaVuSans-31" d="M 794 531 
L 1825 531 
L 1825 4091 
L 703 3866 
L 703 4441 
L 1819 4666 
L 2450 4666 
L 2450 531 
L 3481 531 
L 3481 0 
L 794 0 
L 794 531 
z
" transform="scale(0.015625)"/>
       </defs>
       <use xlink:href="#DejaVuSans-31"/>
       <use xlink:href="#DejaVuSans-30" x="63.623047"/>
      </g>
     </g>
    </g>
    <g id="text_16">
     <!-- counts -->
     <g transform="translate(15.15774 231.591094)rotate(-90)scale(0.16 -0.16)">
      <defs>
       <path id="DejaVuSans-63" d="M 3122 3366 
L 3122 2828 
Q 2878 2963 2633 3030 
Q 2388 3097 2138 3097 
Q 1578 3097 1268 2742 
Q 959 2388 959 1747 
Q 959 1106 1268 751 
Q 1578 397 2138 397 
Q 2388 397 2633 464 
Q 2878 531 3122 666 
L 3122 134 
Q 2881 22 2623 -34 
Q 2366 -91 2075 -91 
Q 1284 -91 818 406 
Q 353 903 353 1747 
Q 353 2603 823 3093 
Q 1294 3584 2113 3584 
Q 2378 3584 2631 3529 
Q 2884 3475 3122 3366 
z
" transform="scale(0.015625)"/>
       <path id="DejaVuSans-6f" d="M 1959 3097 
Q 1497 3097 1228 2736 
Q 959 2375 959 1747 
Q 959 1119 1226 758 
Q 1494 397 1959 397 
Q 2419 397 2687 759 
Q 2956 1122 2956 1747 
Q 2956 2369 2687 2733 
Q 2419 3097 1959 3097 
z
M 1959 3584 
Q 2709 3584 3137 3096 
Q 3566 2609 3566 1747 
Q 3566 888 3137 398 
Q 2709 -91 1959 -91 
Q 1206 -91 779 398 
Q 353 888 353 1747 
Q 353 2609 779 3096 
Q 1206 3584 1959 3584 
z
" transform="scale(0.015625)"/>
       <path id="DejaVuSans-75" d="M 544 1381 
L 544 3500 
L 1119 3500 
L 1119 1403 
Q 1119 906 1312 657 
Q 1506 409 1894 409 
Q 2359 409 2629 706 
Q 2900 1003 2900 1516 
L 2900 3500 
L 3475 3500 
L 3475 0 
L 2900 0 
L 2900 538 
Q 2691 219 2414 64 
Q 2138 -91 1772 -91 
Q 1169 -91 856 284 
Q 544 659 544 1381 
z
M 1991 3584 
L 1991 3584 
z
" transform="scale(0.015625)"/>
       <path id="DejaVuSans-6e" d="M 3513 2113 
L 3513 0 
L 2938 0 
L 2938 2094 
Q 2938 2591 2744 2837 
Q 2550 3084 2163 3084 
Q 1697 3084 1428 2787 
Q 1159 2491 1159 1978 
L 1159 0 
L 581 0 
L 581 3500 
L 1159 3500 
L 1159 2956 
Q 1366 3272 1645 3428 
Q 1925 3584 2291 3584 
Q 2894 3584 3203 3211 
Q 3513 2838 3513 2113 
z
" transform="scale(0.015625)"/>
       <path id="DejaVuSans-74" d="M 1172 4494 
L 1172 3500 
L 2356 3500 
L 2356 3053 
L 1172 3053 
L 1172 1153 
Q 1172 725 1289 603 
Q 1406 481 1766 481 
L 2356 481 
L 2356 0 
L 1766 0 
Q 1100 0 847 248 
Q 594 497 594 1153 
L 594 3053 
L 172 3053 
L 172 3500 
L 594 3500 
L 594 4494 
L 1172 4494 
z
" transform="scale(0.015625)"/>
       <path id="DejaVuSans-73" d="M 2834 3397 
L 2834 2853 
Q 2591 2978 2328 3040 
Q 2066 3103 1784 3103 
Q 1356 3103 1142 2972 
Q 928 2841 928 2578 
Q 928 2378 1081 2264 
Q 1234 2150 1697 2047 
L 1894 2003 
Q 2506 1872 2764 1633 
Q 3022 1394 3022 966 
Q 3022 478 2636 193 
Q 2250 -91 1575 -91 
Q 1294 -91 989 -36 
Q 684 19 347 128 
L 347 722 
Q 666 556 975 473 
Q 1284 391 1588 391 
Q 1994 391 2212 530 
Q 2431 669 2431 922 
Q 2431 1156 2273 1281 
Q 2116 1406 1581 1522 
L 1381 1569 
Q 847 1681 609 1914 
Q 372 2147 372 2553 
Q 372 3047 722 3315 
Q 1072 3584 1716 3584 
Q 2034 3584 2315 3537 
Q 2597 3491 2834 3397 
z
" transform="scale(0.015625)"/>
      </defs>
      <use xlink:href="#DejaVuSans-63"/>
      <use xlink:href="#DejaVuSans-6f" x="54.980469"/>
      <use xlink:href="#DejaVuSans-75" x="116.162109"/>
      <use xlink:href="#DejaVuSans-6e" x="179.541016"/>
      <use xlink:href="#DejaVuSans-74" x="242.919922"/>
      <use xlink:href="#DejaVuSans-73" x="282.128906"/>
     </g>
    </g>
   </g>
   <g id="patch_245">
    <path d="M 49.84524 387.02976 
L 49.84524 22.677427 
" style="fill: none; stroke: #000000; stroke-width: 0.8; stroke-linejoin: miter; stroke-linecap: square"/>
   </g>
   <g id="patch_246">
    <path d="M 572.99976 387.02976 
L 572.99976 22.677427 
" style="fill: none; stroke: #000000; stroke-width: 0.8; stroke-linejoin: miter; stroke-linecap: square"/>
   </g>
   <g id="patch_247">
    <path d="M 49.84524 387.02976 
L 572.99976 387.02976 
" style="fill: none; stroke: #000000; stroke-width: 0.8; stroke-linejoin: miter; stroke-linecap: square"/>
   </g>
   <g id="patch_248">
    <path d="M 49.84524 22.677427 
L 572.99976 22.677427 
" style="fill: none; stroke: #000000; stroke-width: 0.8; stroke-linejoin: miter; stroke-linecap: square"/>
   </g>
   <g id="text_17">
    <!-- Intensity ratio G modes -->
    <g transform="translate(205.731562 16.677427)scale(0.18 -0.18)">
     <defs>
      <path id="DejaVuSans-49" d="M 628 4666 
L 1259 4666 
L 1259 0 
L 628 0 
L 628 4666 
z
" transform="scale(0.015625)"/>
      <path id="DejaVuSans-65" d="M 3597 1894 
L 3597 1613 
L 953 1613 
Q 991 1019 1311 708 
Q 1631 397 2203 397 
Q 2534 397 2845 478 
Q 3156 559 3463 722 
L 3463 178 
Q 3153 47 2828 -22 
Q 2503 -91 2169 -91 
Q 1331 -91 842 396 
Q 353 884 353 1716 
Q 353 2575 817 3079 
Q 1281 3584 2069 3584 
Q 2775 3584 3186 3129 
Q 3597 2675 3597 1894 
z
M 3022 2063 
Q 3016 2534 2758 2815 
Q 2500 3097 2075 3097 
Q 1594 3097 1305 2825 
Q 1016 2553 972 2059 
L 3022 2063 
z
" transform="scale(0.015625)"/>
      <path id="DejaVuSans-69" d="M 603 3500 
L 1178 3500 
L 1178 0 
L 603 0 
L 603 3500 
z
M 603 4863 
L 1178 4863 
L 1178 4134 
L 603 4134 
L 603 4863 
z
" transform="scale(0.015625)"/>
      <path id="DejaVuSans-79" d="M 2059 -325 
Q 1816 -950 1584 -1140 
Q 1353 -1331 966 -1331 
L 506 -1331 
L 506 -850 
L 844 -850 
Q 1081 -850 1212 -737 
Q 1344 -625 1503 -206 
L 1606 56 
L 191 3500 
L 800 3500 
L 1894 763 
L 2988 3500 
L 3597 3500 
L 2059 -325 
z
" transform="scale(0.015625)"/>
      <path id="DejaVuSans-20" transform="scale(0.015625)"/>
      <path id="DejaVuSans-72" d="M 2631 2963 
Q 2534 3019 2420 3045 
Q 2306 3072 2169 3072 
Q 1681 3072 1420 2755 
Q 1159 2438 1159 1844 
L 1159 0 
L 581 0 
L 581 3500 
L 1159 3500 
L 1159 2956 
Q 1341 3275 1631 3429 
Q 1922 3584 2338 3584 
Q 2397 3584 2469 3576 
Q 2541 3569 2628 3553 
L 2631 2963 
z
" transform="scale(0.015625)"/>
      <path id="DejaVuSans-61" d="M 2194 1759 
Q 1497 1759 1228 1600 
Q 959 1441 959 1056 
Q 959 750 1161 570 
Q 1363 391 1709 391 
Q 2188 391 2477 730 
Q 2766 1069 2766 1631 
L 2766 1759 
L 2194 1759 
z
M 3341 1997 
L 3341 0 
L 2766 0 
L 2766 531 
Q 2569 213 2275 61 
Q 1981 -91 1556 -91 
Q 1019 -91 701 211 
Q 384 513 384 1019 
Q 384 1609 779 1909 
Q 1175 2209 1959 2209 
L 2766 2209 
L 2766 2266 
Q 2766 2663 2505 2880 
Q 2244 3097 1772 3097 
Q 1472 3097 1187 3025 
Q 903 2953 641 2809 
L 641 3341 
Q 956 3463 1253 3523 
Q 1550 3584 1831 3584 
Q 2591 3584 2966 3190 
Q 3341 2797 3341 1997 
z
" transform="scale(0.015625)"/>
      <path id="DejaVuSans-47" d="M 3809 666 
L 3809 1919 
L 2778 1919 
L 2778 2438 
L 4434 2438 
L 4434 434 
Q 4069 175 3628 42 
Q 3188 -91 2688 -91 
Q 1594 -91 976 548 
Q 359 1188 359 2328 
Q 359 3472 976 4111 
Q 1594 4750 2688 4750 
Q 3144 4750 3555 4637 
Q 3966 4525 4313 4306 
L 4313 3634 
Q 3963 3931 3569 4081 
Q 3175 4231 2741 4231 
Q 1884 4231 1454 3753 
Q 1025 3275 1025 2328 
Q 1025 1384 1454 906 
Q 1884 428 2741 428 
Q 3075 428 3337 486 
Q 3600 544 3809 666 
z
" transform="scale(0.015625)"/>
      <path id="DejaVuSans-6d" d="M 3328 2828 
Q 3544 3216 3844 3400 
Q 4144 3584 4550 3584 
Q 5097 3584 5394 3201 
Q 5691 2819 5691 2113 
L 5691 0 
L 5113 0 
L 5113 2094 
Q 5113 2597 4934 2840 
Q 4756 3084 4391 3084 
Q 3944 3084 3684 2787 
Q 3425 2491 3425 1978 
L 3425 0 
L 2847 0 
L 2847 2094 
Q 2847 2600 2669 2842 
Q 2491 3084 2119 3084 
Q 1678 3084 1418 2786 
Q 1159 2488 1159 1978 
L 1159 0 
L 581 0 
L 581 3500 
L 1159 3500 
L 1159 2956 
Q 1356 3278 1631 3431 
Q 1906 3584 2284 3584 
Q 2666 3584 2933 3390 
Q 3200 3197 3328 2828 
z
" transform="scale(0.015625)"/>
      <path id="DejaVuSans-64" d="M 2906 2969 
L 2906 4863 
L 3481 4863 
L 3481 0 
L 2906 0 
L 2906 525 
Q 2725 213 2448 61 
Q 2172 -91 1784 -91 
Q 1150 -91 751 415 
Q 353 922 353 1747 
Q 353 2572 751 3078 
Q 1150 3584 1784 3584 
Q 2172 3584 2448 3432 
Q 2725 3281 2906 2969 
z
M 947 1747 
Q 947 1113 1208 752 
Q 1469 391 1925 391 
Q 2381 391 2643 752 
Q 2906 1113 2906 1747 
Q 2906 2381 2643 2742 
Q 2381 3103 1925 3103 
Q 1469 3103 1208 2742 
Q 947 2381 947 1747 
z
" transform="scale(0.015625)"/>
     </defs>
     <use xlink:href="#DejaVuSans-49"/>
     <use xlink:href="#DejaVuSans-6e" x="29.492188"/>
     <use xlink:href="#DejaVuSans-74" x="92.871094"/>
     <use xlink:href="#DejaVuSans-65" x="132.080078"/>
     <use xlink:href="#DejaVuSans-6e" x="193.603516"/>
     <use xlink:href="#DejaVuSans-73" x="256.982422"/>
     <use xlink:href="#DejaVuSans-69" x="309.082031"/>
     <use xlink:href="#DejaVuSans-74" x="336.865234"/>
     <use xlink:href="#DejaVuSans-79" x="376.074219"/>
     <use xlink:href="#DejaVuSans-20" x="435.253906"/>
     <use xlink:href="#DejaVuSans-72" x="467.041016"/>
     <use xlink:href="#DejaVuSans-61" x="508.154297"/>
     <use xlink:href="#DejaVuSans-74" x="569.433594"/>
     <use xlink:href="#DejaVuSans-69" x="608.642578"/>
     <use xlink:href="#DejaVuSans-6f" x="636.425781"/>
     <use xlink:href="#DejaVuSans-20" x="697.607422"/>
     <use xlink:href="#DejaVuSans-47" x="729.394531"/>
     <use xlink:href="#DejaVuSans-20" x="806.884766"/>
     <use xlink:href="#DejaVuSans-6d" x="838.671875"/>
     <use xlink:href="#DejaVuSans-6f" x="936.083984"/>
     <use xlink:href="#DejaVuSans-64" x="997.265625"/>
     <use xlink:href="#DejaVuSans-65" x="1060.742188"/>
     <use xlink:href="#DejaVuSans-73" x="1122.265625"/>
    </g>
   </g>
   <g id="legend_1">
    <g id="patch_249">
     <path d="M 322.95976 74.976177 
L 563.19976 74.976177 
Q 565.99976 74.976177 565.99976 72.176177 
L 565.99976 32.477427 
Q 565.99976 29.677427 563.19976 29.677427 
L 322.95976 29.677427 
Q 320.15976 29.677427 320.15976 32.477427 
L 320.15976 72.176177 
Q 320.15976 74.976177 322.95976 74.976177 
z
" style="fill: #ffffff; opacity: 0.8; stroke: #cccccc; stroke-linejoin: miter"/>
    </g>
    <g id="patch_250">
     <path d="M 325.75976 45.91524 
L 353.75976 45.91524 
L 353.75976 36.11524 
L 325.75976 36.11524 
z
" style="fill: #6f6f6f; opacity: 0.5; stroke: #000000; stroke-linejoin: miter"/>
    </g>
    <g id="text_18">
     <!-- SWNT: $I_{G^{+}}/I_{G^{-}}$ =4.62$\pm$0.19 -->
     <g transform="translate(364.95976 45.91524)scale(0.14 -0.14)">
      <defs>
       <path id="DejaVuSans-53" d="M 3425 4513 
L 3425 3897 
Q 3066 4069 2747 4153 
Q 2428 4238 2131 4238 
Q 1616 4238 1336 4038 
Q 1056 3838 1056 3469 
Q 1056 3159 1242 3001 
Q 1428 2844 1947 2747 
L 2328 2669 
Q 3034 2534 3370 2195 
Q 3706 1856 3706 1288 
Q 3706 609 3251 259 
Q 2797 -91 1919 -91 
Q 1588 -91 1214 -16 
Q 841 59 441 206 
L 441 856 
Q 825 641 1194 531 
Q 1563 422 1919 422 
Q 2459 422 2753 634 
Q 3047 847 3047 1241 
Q 3047 1584 2836 1778 
Q 2625 1972 2144 2069 
L 1759 2144 
Q 1053 2284 737 2584 
Q 422 2884 422 3419 
Q 422 4038 858 4394 
Q 1294 4750 2059 4750 
Q 2388 4750 2728 4690 
Q 3069 4631 3425 4513 
z
" transform="scale(0.015625)"/>
       <path id="DejaVuSans-57" d="M 213 4666 
L 850 4666 
L 1831 722 
L 2809 4666 
L 3519 4666 
L 4500 722 
L 5478 4666 
L 6119 4666 
L 4947 0 
L 4153 0 
L 3169 4050 
L 2175 0 
L 1381 0 
L 213 4666 
z
" transform="scale(0.015625)"/>
       <path id="DejaVuSans-4e" d="M 628 4666 
L 1478 4666 
L 3547 763 
L 3547 4666 
L 4159 4666 
L 4159 0 
L 3309 0 
L 1241 3903 
L 1241 0 
L 628 0 
L 628 4666 
z
" transform="scale(0.015625)"/>
       <path id="DejaVuSans-54" d="M -19 4666 
L 3928 4666 
L 3928 4134 
L 2272 4134 
L 2272 0 
L 1638 0 
L 1638 4134 
L -19 4134 
L -19 4666 
z
" transform="scale(0.015625)"/>
       <path id="DejaVuSans-3a" d="M 750 794 
L 1409 794 
L 1409 0 
L 750 0 
L 750 794 
z
M 750 3309 
L 1409 3309 
L 1409 2516 
L 750 2516 
L 750 3309 
z
" transform="scale(0.015625)"/>
       <path id="DejaVuSans-3d" d="M 678 2906 
L 4684 2906 
L 4684 2381 
L 678 2381 
L 678 2906 
z
M 678 1631 
L 4684 1631 
L 4684 1100 
L 678 1100 
L 678 1631 
z
" transform="scale(0.015625)"/>
       <path id="DejaVuSans-b1" d="M 2944 4013 
L 2944 2803 
L 4684 2803 
L 4684 2272 
L 2944 2272 
L 2944 1063 
L 2419 1063 
L 2419 2272 
L 678 2272 
L 678 2803 
L 2419 2803 
L 2419 4013 
L 2944 4013 
z
M 678 531 
L 4684 531 
L 4684 0 
L 678 0 
L 678 531 
z
" transform="scale(0.015625)"/>
       <path id="DejaVuSans-39" d="M 703 97 
L 703 672 
Q 941 559 1184 500 
Q 1428 441 1663 441 
Q 2288 441 2617 861 
Q 2947 1281 2994 2138 
Q 2813 1869 2534 1725 
Q 2256 1581 1919 1581 
Q 1219 1581 811 2004 
Q 403 2428 403 3163 
Q 403 3881 828 4315 
Q 1253 4750 1959 4750 
Q 2769 4750 3195 4129 
Q 3622 3509 3622 2328 
Q 3622 1225 3098 567 
Q 2575 -91 1691 -91 
Q 1453 -91 1209 -44 
Q 966 3 703 97 
z
M 1959 2075 
Q 2384 2075 2632 2365 
Q 2881 2656 2881 3163 
Q 2881 3666 2632 3958 
Q 2384 4250 1959 4250 
Q 1534 4250 1286 3958 
Q 1038 3666 1038 3163 
Q 1038 2656 1286 2365 
Q 1534 2075 1959 2075 
z
" transform="scale(0.015625)"/>
      </defs>
      <use xlink:href="#DejaVuSans-53" transform="translate(0 0.78125)"/>
      <use xlink:href="#DejaVuSans-57" transform="translate(63.476562 0.78125)"/>
      <use xlink:href="#DejaVuSans-4e" transform="translate(162.353516 0.78125)"/>
      <use xlink:href="#DejaVuSans-54" transform="translate(237.158203 0.78125)"/>
      <use xlink:href="#DejaVuSans-3a" transform="translate(298.242188 0.78125)"/>
      <use xlink:href="#DejaVuSans-20" transform="translate(331.933594 0.78125)"/>
      <use xlink:href="#DejaVuSans-Oblique-49" transform="translate(363.720703 0.78125)"/>
      <use xlink:href="#DejaVuSans-Oblique-47" transform="translate(393.212891 -15.625)scale(0.7)"/>
      <use xlink:href="#DejaVuSans-2b" transform="translate(452.496419 11.171875)scale(0.49)"/>
      <use xlink:href="#DejaVuSans-2f" transform="translate(498.201497 0.78125)"/>
      <use xlink:href="#DejaVuSans-Oblique-49" transform="translate(531.892904 0.78125)"/>
      <use xlink:href="#DejaVuSans-Oblique-47" transform="translate(561.385091 -15.625)scale(0.7)"/>
      <use xlink:href="#DejaVuSans-2212" transform="translate(620.66862 11.171875)scale(0.49)"/>
      <use xlink:href="#DejaVuSans-20" transform="translate(666.373698 0.78125)"/>
      <use xlink:href="#DejaVuSans-3d" transform="translate(698.160807 0.78125)"/>
      <use xlink:href="#DejaVuSans-34" transform="translate(781.94987 0.78125)"/>
      <use xlink:href="#DejaVuSans-2e" transform="translate(845.572917 0.78125)"/>
      <use xlink:href="#DejaVuSans-36" transform="translate(877.360026 0.78125)"/>
      <use xlink:href="#DejaVuSans-32" transform="translate(940.983073 0.78125)"/>
      <use xlink:href="#DejaVuSans-b1" transform="translate(1004.60612 0.78125)"/>
      <use xlink:href="#DejaVuSans-30" transform="translate(1088.395182 0.78125)"/>
      <use xlink:href="#DejaVuSans-2e" transform="translate(1152.018229 0.78125)"/>
      <use xlink:href="#DejaVuSans-31" transform="translate(1183.805339 0.78125)"/>
      <use xlink:href="#DejaVuSans-39" transform="translate(1247.428385 0.78125)"/>
     </g>
    </g>
    <g id="patch_251">
     <path d="M 325.75976 66.464615 
L 353.75976 66.464615 
L 353.75976 56.664615 
L 325.75976 56.664615 
z
" style="fill: #008aba; opacity: 0.5; stroke: #000000; stroke-linejoin: miter"/>
    </g>
    <g id="text_19">
     <!-- CuMINT: $I_{G^{+}}/I_{G^{-}}$ =4.89$\pm$0.46 -->
     <g transform="translate(364.95976 66.464615)scale(0.14 -0.14)">
      <defs>
       <path id="DejaVuSans-43" d="M 4122 4306 
L 4122 3641 
Q 3803 3938 3442 4084 
Q 3081 4231 2675 4231 
Q 1875 4231 1450 3742 
Q 1025 3253 1025 2328 
Q 1025 1406 1450 917 
Q 1875 428 2675 428 
Q 3081 428 3442 575 
Q 3803 722 4122 1019 
L 4122 359 
Q 3791 134 3420 21 
Q 3050 -91 2638 -91 
Q 1578 -91 968 557 
Q 359 1206 359 2328 
Q 359 3453 968 4101 
Q 1578 4750 2638 4750 
Q 3056 4750 3426 4639 
Q 3797 4528 4122 4306 
z
" transform="scale(0.015625)"/>
       <path id="DejaVuSans-4d" d="M 628 4666 
L 1569 4666 
L 2759 1491 
L 3956 4666 
L 4897 4666 
L 4897 0 
L 4281 0 
L 4281 4097 
L 3078 897 
L 2444 897 
L 1241 4097 
L 1241 0 
L 628 0 
L 628 4666 
z
" transform="scale(0.015625)"/>
      </defs>
      <use xlink:href="#DejaVuSans-43" transform="translate(0 0.78125)"/>
      <use xlink:href="#DejaVuSans-75" transform="translate(69.824219 0.78125)"/>
      <use xlink:href="#DejaVuSans-4d" transform="translate(133.203125 0.78125)"/>
      <use xlink:href="#DejaVuSans-49" transform="translate(219.482422 0.78125)"/>
      <use xlink:href="#DejaVuSans-4e" transform="translate(248.974609 0.78125)"/>
      <use xlink:href="#DejaVuSans-54" transform="translate(323.779297 0.78125)"/>
      <use xlink:href="#DejaVuSans-3a" transform="translate(384.863281 0.78125)"/>
      <use xlink:href="#DejaVuSans-20" transform="translate(418.554688 0.78125)"/>
      <use xlink:href="#DejaVuSans-Oblique-49" transform="translate(450.341797 0.78125)"/>
      <use xlink:href="#DejaVuSans-Oblique-47" transform="translate(479.833984 -15.625)scale(0.7)"/>
      <use xlink:href="#DejaVuSans-2b" transform="translate(539.117513 11.171875)scale(0.49)"/>
      <use xlink:href="#DejaVuSans-2f" transform="translate(584.822591 0.78125)"/>
      <use xlink:href="#DejaVuSans-Oblique-49" transform="translate(618.513997 0.78125)"/>
      <use xlink:href="#DejaVuSans-Oblique-47" transform="translate(648.006185 -15.625)scale(0.7)"/>
      <use xlink:href="#DejaVuSans-2212" transform="translate(707.289714 11.171875)scale(0.49)"/>
      <use xlink:href="#DejaVuSans-20" transform="translate(752.994792 0.78125)"/>
      <use xlink:href="#DejaVuSans-3d" transform="translate(784.781901 0.78125)"/>
      <use xlink:href="#DejaVuSans-34" transform="translate(868.570964 0.78125)"/>
      <use xlink:href="#DejaVuSans-2e" transform="translate(932.19401 0.78125)"/>
      <use xlink:href="#DejaVuSans-38" transform="translate(961.35612 0.78125)"/>
      <use xlink:href="#DejaVuSans-39" transform="translate(1024.979167 0.78125)"/>
      <use xlink:href="#DejaVuSans-b1" transform="translate(1088.602214 0.78125)"/>
      <use xlink:href="#DejaVuSans-30" transform="translate(1172.391276 0.78125)"/>
      <use xlink:href="#DejaVuSans-2e" transform="translate(1236.014323 0.78125)"/>
      <use xlink:href="#DejaVuSans-34" transform="translate(1267.801432 0.78125)"/>
      <use xlink:href="#DejaVuSans-36" transform="translate(1331.424479 0.78125)"/>
     </g>
    </g>
   </g>
  </g>
 </g>
 <defs>
  <clipPath id="p2346ba2052">
   <rect x="49.84524" y="22.677427" width="523.15452" height="364.352333"/>
  </clipPath>
 </defs>
</svg>
