<?xml version="1.0" encoding="utf-8" standalone="no"?>
<!DOCTYPE svg PUBLIC "-//W3C//DTD SVG 1.1//EN"
  "http://www.w3.org/Graphics/SVG/1.1/DTD/svg11.dtd">
<svg xmlns:xlink="http://www.w3.org/1999/xlink" width="1080pt" height="360pt" viewBox="0 0 1080 360" xmlns="http://www.w3.org/2000/svg" version="1.1">
 <metadata>
  <rdf:RDF xmlns:dc="http://purl.org/dc/elements/1.1/" xmlns:cc="http://creativecommons.org/ns#" xmlns:rdf="http://www.w3.org/1999/02/22-rdf-syntax-ns#">
   <cc:Work>
    <dc:type rdf:resource="http://purl.org/dc/dcmitype/StillImage"/>
    <dc:date>2023-07-19T18:22:53.595776</dc:date>
    <dc:format>image/svg+xml</dc:format>
    <dc:creator>
     <cc:Agent>
      <dc:title>Matplotlib v3.5.2, https://matplotlib.org/</dc:title>
     </cc:Agent>
    </dc:creator>
   </cc:Work>
  </rdf:RDF>
 </metadata>
 <defs>
  <style type="text/css">*{stroke-linejoin: round; stroke-linecap: butt}</style>
 </defs>
 <g id="figure_1">
  <g id="patch_1">
   <path d="M 0 360 
L 1080 360 
L 1080 0 
L 0 0 
z
" style="fill: #ffffff"/>
  </g>
  <g id="axes_1">
   <g id="patch_2">
    <path d="M 49.84524 314.51476 
L 349.096821 314.51476 
L 349.096821 45.546658 
L 49.84524 45.546658 
z
" style="fill: #ffffff"/>
   </g>
   <g id="matplotlib.axis_1">
    <g id="xtick_1">
     <g id="line2d_1">
      <defs>
       <path id="m30255dd88c" d="M 0 0 
L 0 3.5 
" style="stroke: #000000; stroke-width: 0.8"/>
      </defs>
      <g>
       <use xlink:href="#m30255dd88c" x="75.374743" y="314.51476" style="stroke: #000000; stroke-width: 0.8"/>
      </g>
     </g>
     <g id="text_1">
      <!-- 1575 -->
      <g transform="translate(55.014743 333.67226)scale(0.16 -0.16)">
       <defs>
        <path id="DejaVuSans-31" d="M 794 531 
L 1825 531 
L 1825 4091 
L 703 3866 
L 703 4441 
L 1819 4666 
L 2450 4666 
L 2450 531 
L 3481 531 
L 3481 0 
L 794 0 
L 794 531 
z
" transform="scale(0.015625)"/>
        <path id="DejaVuSans-35" d="M 691 4666 
L 3169 4666 
L 3169 4134 
L 1269 4134 
L 1269 2991 
Q 1406 3038 1543 3061 
Q 1681 3084 1819 3084 
Q 2600 3084 3056 2656 
Q 3513 2228 3513 1497 
Q 3513 744 3044 326 
Q 2575 -91 1722 -91 
Q 1428 -91 1123 -41 
Q 819 9 494 109 
L 494 744 
Q 775 591 1075 516 
Q 1375 441 1709 441 
Q 2250 441 2565 725 
Q 2881 1009 2881 1497 
Q 2881 1984 2565 2268 
Q 2250 2553 1709 2553 
Q 1456 2553 1204 2497 
Q 953 2441 691 2322 
L 691 4666 
z
" transform="scale(0.015625)"/>
        <path id="DejaVuSans-37" d="M 525 4666 
L 3525 4666 
L 3525 4397 
L 1831 0 
L 1172 0 
L 2766 4134 
L 525 4134 
L 525 4666 
z
" transform="scale(0.015625)"/>
       </defs>
       <use xlink:href="#DejaVuSans-31"/>
       <use xlink:href="#DejaVuSans-35" x="63.623047"/>
       <use xlink:href="#DejaVuSans-37" x="127.246094"/>
       <use xlink:href="#DejaVuSans-35" x="190.869141"/>
      </g>
     </g>
    </g>
    <g id="xtick_2">
     <g id="line2d_2">
      <g>
       <use xlink:href="#m30255dd88c" x="154.875459" y="314.51476" style="stroke: #000000; stroke-width: 0.8"/>
      </g>
     </g>
     <g id="text_2">
      <!-- 1580 -->
      <g transform="translate(134.515459 333.67226)scale(0.16 -0.16)">
       <defs>
        <path id="DejaVuSans-38" d="M 2034 2216 
Q 1584 2216 1326 1975 
Q 1069 1734 1069 1313 
Q 1069 891 1326 650 
Q 1584 409 2034 409 
Q 2484 409 2743 651 
Q 3003 894 3003 1313 
Q 3003 1734 2745 1975 
Q 2488 2216 2034 2216 
z
M 1403 2484 
Q 997 2584 770 2862 
Q 544 3141 544 3541 
Q 544 4100 942 4425 
Q 1341 4750 2034 4750 
Q 2731 4750 3128 4425 
Q 3525 4100 3525 3541 
Q 3525 3141 3298 2862 
Q 3072 2584 2669 2484 
Q 3125 2378 3379 2068 
Q 3634 1759 3634 1313 
Q 3634 634 3220 271 
Q 2806 -91 2034 -91 
Q 1263 -91 848 271 
Q 434 634 434 1313 
Q 434 1759 690 2068 
Q 947 2378 1403 2484 
z
M 1172 3481 
Q 1172 3119 1398 2916 
Q 1625 2713 2034 2713 
Q 2441 2713 2670 2916 
Q 2900 3119 2900 3481 
Q 2900 3844 2670 4047 
Q 2441 4250 2034 4250 
Q 1625 4250 1398 4047 
Q 1172 3844 1172 3481 
z
" transform="scale(0.015625)"/>
        <path id="DejaVuSans-30" d="M 2034 4250 
Q 1547 4250 1301 3770 
Q 1056 3291 1056 2328 
Q 1056 1369 1301 889 
Q 1547 409 2034 409 
Q 2525 409 2770 889 
Q 3016 1369 3016 2328 
Q 3016 3291 2770 3770 
Q 2525 4250 2034 4250 
z
M 2034 4750 
Q 2819 4750 3233 4129 
Q 3647 3509 3647 2328 
Q 3647 1150 3233 529 
Q 2819 -91 2034 -91 
Q 1250 -91 836 529 
Q 422 1150 422 2328 
Q 422 3509 836 4129 
Q 1250 4750 2034 4750 
z
" transform="scale(0.015625)"/>
       </defs>
       <use xlink:href="#DejaVuSans-31"/>
       <use xlink:href="#DejaVuSans-35" x="63.623047"/>
       <use xlink:href="#DejaVuSans-38" x="127.246094"/>
       <use xlink:href="#DejaVuSans-30" x="190.869141"/>
      </g>
     </g>
    </g>
    <g id="xtick_3">
     <g id="line2d_3">
      <g>
       <use xlink:href="#m30255dd88c" x="234.376176" y="314.51476" style="stroke: #000000; stroke-width: 0.8"/>
      </g>
     </g>
     <g id="text_3">
      <!-- 1585 -->
      <g transform="translate(214.016176 333.67226)scale(0.16 -0.16)">
       <use xlink:href="#DejaVuSans-31"/>
       <use xlink:href="#DejaVuSans-35" x="63.623047"/>
       <use xlink:href="#DejaVuSans-38" x="127.246094"/>
       <use xlink:href="#DejaVuSans-35" x="190.869141"/>
      </g>
     </g>
    </g>
    <g id="xtick_4">
     <g id="line2d_4">
      <g>
       <use xlink:href="#m30255dd88c" x="313.876893" y="314.51476" style="stroke: #000000; stroke-width: 0.8"/>
      </g>
     </g>
     <g id="text_4">
      <!-- 1590 -->
      <g transform="translate(293.516893 333.67226)scale(0.16 -0.16)">
       <defs>
        <path id="DejaVuSans-39" d="M 703 97 
L 703 672 
Q 941 559 1184 500 
Q 1428 441 1663 441 
Q 2288 441 2617 861 
Q 2947 1281 2994 2138 
Q 2813 1869 2534 1725 
Q 2256 1581 1919 1581 
Q 1219 1581 811 2004 
Q 403 2428 403 3163 
Q 403 3881 828 4315 
Q 1253 4750 1959 4750 
Q 2769 4750 3195 4129 
Q 3622 3509 3622 2328 
Q 3622 1225 3098 567 
Q 2575 -91 1691 -91 
Q 1453 -91 1209 -44 
Q 966 3 703 97 
z
M 1959 2075 
Q 2384 2075 2632 2365 
Q 2881 2656 2881 3163 
Q 2881 3666 2632 3958 
Q 2384 4250 1959 4250 
Q 1534 4250 1286 3958 
Q 1038 3666 1038 3163 
Q 1038 2656 1286 2365 
Q 1534 2075 1959 2075 
z
" transform="scale(0.015625)"/>
       </defs>
       <use xlink:href="#DejaVuSans-31"/>
       <use xlink:href="#DejaVuSans-35" x="63.623047"/>
       <use xlink:href="#DejaVuSans-39" x="127.246094"/>
       <use xlink:href="#DejaVuSans-30" x="190.869141"/>
      </g>
     </g>
    </g>
    <g id="text_5">
     <!-- $G$ band FWHM / $cm^{-1}$ -->
     <g transform="translate(113.79103 353.67226)scale(0.16 -0.16)">
      <defs>
       <path id="DejaVuSans-Oblique-47" d="M 3494 697 
L 3738 1919 
L 2700 1919 
L 2797 2438 
L 4453 2438 
L 4050 384 
Q 3634 156 3143 32 
Q 2653 -91 2156 -91 
Q 1278 -91 783 396 
Q 288 884 288 1753 
Q 288 2475 589 3126 
Q 891 3778 1422 4213 
Q 1756 4484 2153 4617 
Q 2550 4750 3034 4750 
Q 3472 4750 3873 4639 
Q 4275 4528 4641 4306 
L 4513 3634 
Q 4231 3928 3853 4083 
Q 3475 4238 3047 4238 
Q 2550 4238 2172 4048 
Q 1794 3859 1497 3463 
Q 1244 3125 1098 2667 
Q 953 2209 953 1734 
Q 953 1081 1287 751 
Q 1622 422 2284 422 
Q 2616 422 2925 492 
Q 3234 563 3494 697 
z
" transform="scale(0.015625)"/>
       <path id="DejaVuSans-20" transform="scale(0.015625)"/>
       <path id="DejaVuSans-62" d="M 3116 1747 
Q 3116 2381 2855 2742 
Q 2594 3103 2138 3103 
Q 1681 3103 1420 2742 
Q 1159 2381 1159 1747 
Q 1159 1113 1420 752 
Q 1681 391 2138 391 
Q 2594 391 2855 752 
Q 3116 1113 3116 1747 
z
M 1159 2969 
Q 1341 3281 1617 3432 
Q 1894 3584 2278 3584 
Q 2916 3584 3314 3078 
Q 3713 2572 3713 1747 
Q 3713 922 3314 415 
Q 2916 -91 2278 -91 
Q 1894 -91 1617 61 
Q 1341 213 1159 525 
L 1159 0 
L 581 0 
L 581 4863 
L 1159 4863 
L 1159 2969 
z
" transform="scale(0.015625)"/>
       <path id="DejaVuSans-61" d="M 2194 1759 
Q 1497 1759 1228 1600 
Q 959 1441 959 1056 
Q 959 750 1161 570 
Q 1363 391 1709 391 
Q 2188 391 2477 730 
Q 2766 1069 2766 1631 
L 2766 1759 
L 2194 1759 
z
M 3341 1997 
L 3341 0 
L 2766 0 
L 2766 531 
Q 2569 213 2275 61 
Q 1981 -91 1556 -91 
Q 1019 -91 701 211 
Q 384 513 384 1019 
Q 384 1609 779 1909 
Q 1175 2209 1959 2209 
L 2766 2209 
L 2766 2266 
Q 2766 2663 2505 2880 
Q 2244 3097 1772 3097 
Q 1472 3097 1187 3025 
Q 903 2953 641 2809 
L 641 3341 
Q 956 3463 1253 3523 
Q 1550 3584 1831 3584 
Q 2591 3584 2966 3190 
Q 3341 2797 3341 1997 
z
" transform="scale(0.015625)"/>
       <path id="DejaVuSans-6e" d="M 3513 2113 
L 3513 0 
L 2938 0 
L 2938 2094 
Q 2938 2591 2744 2837 
Q 2550 3084 2163 3084 
Q 1697 3084 1428 2787 
Q 1159 2491 1159 1978 
L 1159 0 
L 581 0 
L 581 3500 
L 1159 3500 
L 1159 2956 
Q 1366 3272 1645 3428 
Q 1925 3584 2291 3584 
Q 2894 3584 3203 3211 
Q 3513 2838 3513 2113 
z
" transform="scale(0.015625)"/>
       <path id="DejaVuSans-64" d="M 2906 2969 
L 2906 4863 
L 3481 4863 
L 3481 0 
L 2906 0 
L 2906 525 
Q 2725 213 2448 61 
Q 2172 -91 1784 -91 
Q 1150 -91 751 415 
Q 353 922 353 1747 
Q 353 2572 751 3078 
Q 1150 3584 1784 3584 
Q 2172 3584 2448 3432 
Q 2725 3281 2906 2969 
z
M 947 1747 
Q 947 1113 1208 752 
Q 1469 391 1925 391 
Q 2381 391 2643 752 
Q 2906 1113 2906 1747 
Q 2906 2381 2643 2742 
Q 2381 3103 1925 3103 
Q 1469 3103 1208 2742 
Q 947 2381 947 1747 
z
" transform="scale(0.015625)"/>
       <path id="DejaVuSans-46" d="M 628 4666 
L 3309 4666 
L 3309 4134 
L 1259 4134 
L 1259 2759 
L 3109 2759 
L 3109 2228 
L 1259 2228 
L 1259 0 
L 628 0 
L 628 4666 
z
" transform="scale(0.015625)"/>
       <path id="DejaVuSans-57" d="M 213 4666 
L 850 4666 
L 1831 722 
L 2809 4666 
L 3519 4666 
L 4500 722 
L 5478 4666 
L 6119 4666 
L 4947 0 
L 4153 0 
L 3169 4050 
L 2175 0 
L 1381 0 
L 213 4666 
z
" transform="scale(0.015625)"/>
       <path id="DejaVuSans-48" d="M 628 4666 
L 1259 4666 
L 1259 2753 
L 3553 2753 
L 3553 4666 
L 4184 4666 
L 4184 0 
L 3553 0 
L 3553 2222 
L 1259 2222 
L 1259 0 
L 628 0 
L 628 4666 
z
" transform="scale(0.015625)"/>
       <path id="DejaVuSans-4d" d="M 628 4666 
L 1569 4666 
L 2759 1491 
L 3956 4666 
L 4897 4666 
L 4897 0 
L 4281 0 
L 4281 4097 
L 3078 897 
L 2444 897 
L 1241 4097 
L 1241 0 
L 628 0 
L 628 4666 
z
" transform="scale(0.015625)"/>
       <path id="DejaVuSans-2f" d="M 1625 4666 
L 2156 4666 
L 531 -594 
L 0 -594 
L 1625 4666 
z
" transform="scale(0.015625)"/>
       <path id="DejaVuSans-Oblique-63" d="M 3431 3366 
L 3316 2797 
Q 3109 2947 2876 3022 
Q 2644 3097 2394 3097 
Q 2119 3097 1870 3000 
Q 1622 2903 1453 2725 
Q 1184 2453 1037 2087 
Q 891 1722 891 1331 
Q 891 859 1127 628 
Q 1363 397 1844 397 
Q 2081 397 2348 469 
Q 2616 541 2906 684 
L 2797 116 
Q 2547 13 2283 -39 
Q 2019 -91 1741 -91 
Q 1044 -91 669 257 
Q 294 606 294 1253 
Q 294 1797 489 2255 
Q 684 2713 1069 3078 
Q 1331 3328 1684 3456 
Q 2038 3584 2456 3584 
Q 2700 3584 2940 3529 
Q 3181 3475 3431 3366 
z
" transform="scale(0.015625)"/>
       <path id="DejaVuSans-Oblique-6d" d="M 5747 2113 
L 5338 0 
L 4763 0 
L 5166 2094 
Q 5191 2228 5203 2325 
Q 5216 2422 5216 2491 
Q 5216 2772 5059 2928 
Q 4903 3084 4622 3084 
Q 4203 3084 3875 2770 
Q 3547 2456 3450 1953 
L 3066 0 
L 2491 0 
L 2900 2094 
Q 2925 2209 2937 2307 
Q 2950 2406 2950 2484 
Q 2950 2769 2794 2926 
Q 2638 3084 2363 3084 
Q 1938 3084 1609 2770 
Q 1281 2456 1184 1953 
L 800 0 
L 225 0 
L 909 3500 
L 1484 3500 
L 1375 2956 
Q 1609 3263 1923 3423 
Q 2238 3584 2597 3584 
Q 2978 3584 3223 3384 
Q 3469 3184 3519 2828 
Q 3781 3197 4126 3390 
Q 4472 3584 4856 3584 
Q 5306 3584 5551 3325 
Q 5797 3066 5797 2591 
Q 5797 2488 5784 2364 
Q 5772 2241 5747 2113 
z
" transform="scale(0.015625)"/>
       <path id="DejaVuSans-2212" d="M 678 2272 
L 4684 2272 
L 4684 1741 
L 678 1741 
L 678 2272 
z
" transform="scale(0.015625)"/>
      </defs>
      <use xlink:href="#DejaVuSans-Oblique-47" transform="translate(0 0.684375)"/>
      <use xlink:href="#DejaVuSans-20" transform="translate(77.490234 0.684375)"/>
      <use xlink:href="#DejaVuSans-62" transform="translate(109.277344 0.684375)"/>
      <use xlink:href="#DejaVuSans-61" transform="translate(172.753906 0.684375)"/>
      <use xlink:href="#DejaVuSans-6e" transform="translate(234.033203 0.684375)"/>
      <use xlink:href="#DejaVuSans-64" transform="translate(297.412109 0.684375)"/>
      <use xlink:href="#DejaVuSans-20" transform="translate(360.888672 0.684375)"/>
      <use xlink:href="#DejaVuSans-46" transform="translate(392.675781 0.684375)"/>
      <use xlink:href="#DejaVuSans-57" transform="translate(450.195312 0.684375)"/>
      <use xlink:href="#DejaVuSans-48" transform="translate(549.072266 0.684375)"/>
      <use xlink:href="#DejaVuSans-4d" transform="translate(624.267578 0.684375)"/>
      <use xlink:href="#DejaVuSans-20" transform="translate(710.546875 0.684375)"/>
      <use xlink:href="#DejaVuSans-2f" transform="translate(742.333984 0.684375)"/>
      <use xlink:href="#DejaVuSans-20" transform="translate(776.025391 0.684375)"/>
      <use xlink:href="#DejaVuSans-Oblique-63" transform="translate(807.8125 0.684375)"/>
      <use xlink:href="#DejaVuSans-Oblique-6d" transform="translate(862.792969 0.684375)"/>
      <use xlink:href="#DejaVuSans-2212" transform="translate(964.854974 38.965625)scale(0.7)"/>
      <use xlink:href="#DejaVuSans-31" transform="translate(1023.507318 38.965625)scale(0.7)"/>
     </g>
    </g>
   </g>
   <g id="matplotlib.axis_2">
    <g id="ytick_1">
     <g id="line2d_5">
      <defs>
       <path id="m715a2eab03" d="M 0 0 
L -3.5 0 
" style="stroke: #000000; stroke-width: 0.8"/>
      </defs>
      <g>
       <use xlink:href="#m715a2eab03" x="49.84524" y="305.516361" style="stroke: #000000; stroke-width: 0.8"/>
      </g>
     </g>
     <g id="text_6">
      <!-- 22 -->
      <g transform="translate(22.48524 311.595111)scale(0.16 -0.16)">
       <defs>
        <path id="DejaVuSans-32" d="M 1228 531 
L 3431 531 
L 3431 0 
L 469 0 
L 469 531 
Q 828 903 1448 1529 
Q 2069 2156 2228 2338 
Q 2531 2678 2651 2914 
Q 2772 3150 2772 3378 
Q 2772 3750 2511 3984 
Q 2250 4219 1831 4219 
Q 1534 4219 1204 4116 
Q 875 4013 500 3803 
L 500 4441 
Q 881 4594 1212 4672 
Q 1544 4750 1819 4750 
Q 2544 4750 2975 4387 
Q 3406 4025 3406 3419 
Q 3406 3131 3298 2873 
Q 3191 2616 2906 2266 
Q 2828 2175 2409 1742 
Q 1991 1309 1228 531 
z
" transform="scale(0.015625)"/>
       </defs>
       <use xlink:href="#DejaVuSans-32"/>
       <use xlink:href="#DejaVuSans-32" x="63.623047"/>
      </g>
     </g>
    </g>
    <g id="ytick_2">
     <g id="line2d_6">
      <g>
       <use xlink:href="#m715a2eab03" x="49.84524" y="271.932993" style="stroke: #000000; stroke-width: 0.8"/>
      </g>
     </g>
     <g id="text_7">
      <!-- 24 -->
      <g transform="translate(22.48524 278.011743)scale(0.16 -0.16)">
       <defs>
        <path id="DejaVuSans-34" d="M 2419 4116 
L 825 1625 
L 2419 1625 
L 2419 4116 
z
M 2253 4666 
L 3047 4666 
L 3047 1625 
L 3713 1625 
L 3713 1100 
L 3047 1100 
L 3047 0 
L 2419 0 
L 2419 1100 
L 313 1100 
L 313 1709 
L 2253 4666 
z
" transform="scale(0.015625)"/>
       </defs>
       <use xlink:href="#DejaVuSans-32"/>
       <use xlink:href="#DejaVuSans-34" x="63.623047"/>
      </g>
     </g>
    </g>
    <g id="ytick_3">
     <g id="line2d_7">
      <g>
       <use xlink:href="#m715a2eab03" x="49.84524" y="238.349625" style="stroke: #000000; stroke-width: 0.8"/>
      </g>
     </g>
     <g id="text_8">
      <!-- 26 -->
      <g transform="translate(22.48524 244.428375)scale(0.16 -0.16)">
       <defs>
        <path id="DejaVuSans-36" d="M 2113 2584 
Q 1688 2584 1439 2293 
Q 1191 2003 1191 1497 
Q 1191 994 1439 701 
Q 1688 409 2113 409 
Q 2538 409 2786 701 
Q 3034 994 3034 1497 
Q 3034 2003 2786 2293 
Q 2538 2584 2113 2584 
z
M 3366 4563 
L 3366 3988 
Q 3128 4100 2886 4159 
Q 2644 4219 2406 4219 
Q 1781 4219 1451 3797 
Q 1122 3375 1075 2522 
Q 1259 2794 1537 2939 
Q 1816 3084 2150 3084 
Q 2853 3084 3261 2657 
Q 3669 2231 3669 1497 
Q 3669 778 3244 343 
Q 2819 -91 2113 -91 
Q 1303 -91 875 529 
Q 447 1150 447 2328 
Q 447 3434 972 4092 
Q 1497 4750 2381 4750 
Q 2619 4750 2861 4703 
Q 3103 4656 3366 4563 
z
" transform="scale(0.015625)"/>
       </defs>
       <use xlink:href="#DejaVuSans-32"/>
       <use xlink:href="#DejaVuSans-36" x="63.623047"/>
      </g>
     </g>
    </g>
    <g id="ytick_4">
     <g id="line2d_8">
      <g>
       <use xlink:href="#m715a2eab03" x="49.84524" y="204.766257" style="stroke: #000000; stroke-width: 0.8"/>
      </g>
     </g>
     <g id="text_9">
      <!-- 28 -->
      <g transform="translate(22.48524 210.845007)scale(0.16 -0.16)">
       <use xlink:href="#DejaVuSans-32"/>
       <use xlink:href="#DejaVuSans-38" x="63.623047"/>
      </g>
     </g>
    </g>
    <g id="ytick_5">
     <g id="line2d_9">
      <g>
       <use xlink:href="#m715a2eab03" x="49.84524" y="171.182888" style="stroke: #000000; stroke-width: 0.8"/>
      </g>
     </g>
     <g id="text_10">
      <!-- 30 -->
      <g transform="translate(22.48524 177.261638)scale(0.16 -0.16)">
       <defs>
        <path id="DejaVuSans-33" d="M 2597 2516 
Q 3050 2419 3304 2112 
Q 3559 1806 3559 1356 
Q 3559 666 3084 287 
Q 2609 -91 1734 -91 
Q 1441 -91 1130 -33 
Q 819 25 488 141 
L 488 750 
Q 750 597 1062 519 
Q 1375 441 1716 441 
Q 2309 441 2620 675 
Q 2931 909 2931 1356 
Q 2931 1769 2642 2001 
Q 2353 2234 1838 2234 
L 1294 2234 
L 1294 2753 
L 1863 2753 
Q 2328 2753 2575 2939 
Q 2822 3125 2822 3475 
Q 2822 3834 2567 4026 
Q 2313 4219 1838 4219 
Q 1578 4219 1281 4162 
Q 984 4106 628 3988 
L 628 4550 
Q 988 4650 1302 4700 
Q 1616 4750 1894 4750 
Q 2613 4750 3031 4423 
Q 3450 4097 3450 3541 
Q 3450 3153 3228 2886 
Q 3006 2619 2597 2516 
z
" transform="scale(0.015625)"/>
       </defs>
       <use xlink:href="#DejaVuSans-33"/>
       <use xlink:href="#DejaVuSans-30" x="63.623047"/>
      </g>
     </g>
    </g>
    <g id="ytick_6">
     <g id="line2d_10">
      <g>
       <use xlink:href="#m715a2eab03" x="49.84524" y="137.59952" style="stroke: #000000; stroke-width: 0.8"/>
      </g>
     </g>
     <g id="text_11">
      <!-- 32 -->
      <g transform="translate(22.48524 143.67827)scale(0.16 -0.16)">
       <use xlink:href="#DejaVuSans-33"/>
       <use xlink:href="#DejaVuSans-32" x="63.623047"/>
      </g>
     </g>
    </g>
    <g id="ytick_7">
     <g id="line2d_11">
      <g>
       <use xlink:href="#m715a2eab03" x="49.84524" y="104.016152" style="stroke: #000000; stroke-width: 0.8"/>
      </g>
     </g>
     <g id="text_12">
      <!-- 34 -->
      <g transform="translate(22.48524 110.094902)scale(0.16 -0.16)">
       <use xlink:href="#DejaVuSans-33"/>
       <use xlink:href="#DejaVuSans-34" x="63.623047"/>
      </g>
     </g>
    </g>
    <g id="ytick_8">
     <g id="line2d_12">
      <g>
       <use xlink:href="#m715a2eab03" x="49.84524" y="70.432784" style="stroke: #000000; stroke-width: 0.8"/>
      </g>
     </g>
     <g id="text_13">
      <!-- 36 -->
      <g transform="translate(22.48524 76.511534)scale(0.16 -0.16)">
       <use xlink:href="#DejaVuSans-33"/>
       <use xlink:href="#DejaVuSans-36" x="63.623047"/>
      </g>
     </g>
    </g>
    <g id="text_14">
     <!-- $G$ band Shift -->
     <g transform="translate(15.15774 229.790709)rotate(-90)scale(0.16 -0.16)">
      <defs>
       <path id="DejaVuSans-53" d="M 3425 4513 
L 3425 3897 
Q 3066 4069 2747 4153 
Q 2428 4238 2131 4238 
Q 1616 4238 1336 4038 
Q 1056 3838 1056 3469 
Q 1056 3159 1242 3001 
Q 1428 2844 1947 2747 
L 2328 2669 
Q 3034 2534 3370 2195 
Q 3706 1856 3706 1288 
Q 3706 609 3251 259 
Q 2797 -91 1919 -91 
Q 1588 -91 1214 -16 
Q 841 59 441 206 
L 441 856 
Q 825 641 1194 531 
Q 1563 422 1919 422 
Q 2459 422 2753 634 
Q 3047 847 3047 1241 
Q 3047 1584 2836 1778 
Q 2625 1972 2144 2069 
L 1759 2144 
Q 1053 2284 737 2584 
Q 422 2884 422 3419 
Q 422 4038 858 4394 
Q 1294 4750 2059 4750 
Q 2388 4750 2728 4690 
Q 3069 4631 3425 4513 
z
" transform="scale(0.015625)"/>
       <path id="DejaVuSans-68" d="M 3513 2113 
L 3513 0 
L 2938 0 
L 2938 2094 
Q 2938 2591 2744 2837 
Q 2550 3084 2163 3084 
Q 1697 3084 1428 2787 
Q 1159 2491 1159 1978 
L 1159 0 
L 581 0 
L 581 4863 
L 1159 4863 
L 1159 2956 
Q 1366 3272 1645 3428 
Q 1925 3584 2291 3584 
Q 2894 3584 3203 3211 
Q 3513 2838 3513 2113 
z
" transform="scale(0.015625)"/>
       <path id="DejaVuSans-69" d="M 603 3500 
L 1178 3500 
L 1178 0 
L 603 0 
L 603 3500 
z
M 603 4863 
L 1178 4863 
L 1178 4134 
L 603 4134 
L 603 4863 
z
" transform="scale(0.015625)"/>
       <path id="DejaVuSans-66" d="M 2375 4863 
L 2375 4384 
L 1825 4384 
Q 1516 4384 1395 4259 
Q 1275 4134 1275 3809 
L 1275 3500 
L 2222 3500 
L 2222 3053 
L 1275 3053 
L 1275 0 
L 697 0 
L 697 3053 
L 147 3053 
L 147 3500 
L 697 3500 
L 697 3744 
Q 697 4328 969 4595 
Q 1241 4863 1831 4863 
L 2375 4863 
z
" transform="scale(0.015625)"/>
       <path id="DejaVuSans-74" d="M 1172 4494 
L 1172 3500 
L 2356 3500 
L 2356 3053 
L 1172 3053 
L 1172 1153 
Q 1172 725 1289 603 
Q 1406 481 1766 481 
L 2356 481 
L 2356 0 
L 1766 0 
Q 1100 0 847 248 
Q 594 497 594 1153 
L 594 3053 
L 172 3053 
L 172 3500 
L 594 3500 
L 594 4494 
L 1172 4494 
z
" transform="scale(0.015625)"/>
      </defs>
      <use xlink:href="#DejaVuSans-Oblique-47" transform="translate(0 0.015625)"/>
      <use xlink:href="#DejaVuSans-20" transform="translate(77.490234 0.015625)"/>
      <use xlink:href="#DejaVuSans-62" transform="translate(109.277344 0.015625)"/>
      <use xlink:href="#DejaVuSans-61" transform="translate(172.753906 0.015625)"/>
      <use xlink:href="#DejaVuSans-6e" transform="translate(234.033203 0.015625)"/>
      <use xlink:href="#DejaVuSans-64" transform="translate(297.412109 0.015625)"/>
      <use xlink:href="#DejaVuSans-20" transform="translate(360.888672 0.015625)"/>
      <use xlink:href="#DejaVuSans-53" transform="translate(392.675781 0.015625)"/>
      <use xlink:href="#DejaVuSans-68" transform="translate(456.152344 0.015625)"/>
      <use xlink:href="#DejaVuSans-69" transform="translate(519.53125 0.015625)"/>
      <use xlink:href="#DejaVuSans-66" transform="translate(547.314453 0.015625)"/>
      <use xlink:href="#DejaVuSans-74" transform="translate(582.519531 0.015625)"/>
     </g>
    </g>
   </g>
   <g id="line2d_13">
    <defs>
     <path id="m17b1a78ddb" d="M 0 3 
C 0.795609 3 1.55874 2.683901 2.12132 2.12132 
C 2.683901 1.55874 3 0.795609 3 0 
C 3 -0.795609 2.683901 -1.55874 2.12132 -2.12132 
C 1.55874 -2.683901 0.795609 -3 0 -3 
C -0.795609 -3 -1.55874 -2.683901 -2.12132 -2.12132 
C -2.683901 -1.55874 -3 -0.795609 -3 0 
C -3 0.795609 -2.683901 1.55874 -2.12132 2.12132 
C -1.55874 2.683901 -0.795609 3 0 3 
z
" style="stroke: #6f6f6f"/>
    </defs>
    <g clip-path="url(#p061012214d)">
     <use xlink:href="#m17b1a78ddb" x="69.029947" y="84.702349" style="fill: #6f6f6f; stroke: #6f6f6f"/>
     <use xlink:href="#m17b1a78ddb" x="128.447313" y="99.996594" style="fill: #6f6f6f; stroke: #6f6f6f"/>
     <use xlink:href="#m17b1a78ddb" x="86.542587" y="120.836717" style="fill: #6f6f6f; stroke: #6f6f6f"/>
     <use xlink:href="#m17b1a78ddb" x="88.492462" y="107.385096" style="fill: #6f6f6f; stroke: #6f6f6f"/>
     <use xlink:href="#m17b1a78ddb" x="76.33105" y="91.022485" style="fill: #6f6f6f; stroke: #6f6f6f"/>
     <use xlink:href="#m17b1a78ddb" x="87.864472" y="81.510541" style="fill: #6f6f6f; stroke: #6f6f6f"/>
     <use xlink:href="#m17b1a78ddb" x="88.297424" y="97.909891" style="fill: #6f6f6f; stroke: #6f6f6f"/>
     <use xlink:href="#m17b1a78ddb" x="63.447585" y="57.77248" style="fill: #6f6f6f; stroke: #6f6f6f"/>
     <use xlink:href="#m17b1a78ddb" x="181.412167" y="142.494587" style="fill: #6f6f6f; stroke: #6f6f6f"/>
     <use xlink:href="#m17b1a78ddb" x="335.494476" y="302.288937" style="fill: #6f6f6f; stroke: #6f6f6f"/>
     <use xlink:href="#m17b1a78ddb" x="97.118579" y="127.124145" style="fill: #6f6f6f; stroke: #6f6f6f"/>
     <use xlink:href="#m17b1a78ddb" x="81.416899" y="97.928625" style="fill: #6f6f6f; stroke: #6f6f6f"/>
     <use xlink:href="#m17b1a78ddb" x="150.883261" y="163.93788" style="fill: #6f6f6f; stroke: #6f6f6f"/>
     <use xlink:href="#m17b1a78ddb" x="180.627771" y="195.10953" style="fill: #6f6f6f; stroke: #6f6f6f"/>
     <use xlink:href="#m17b1a78ddb" x="98.543018" y="132.625497" style="fill: #6f6f6f; stroke: #6f6f6f"/>
     <use xlink:href="#m17b1a78ddb" x="122.049411" y="113.924678" style="fill: #6f6f6f; stroke: #6f6f6f"/>
     <use xlink:href="#m17b1a78ddb" x="137.557718" y="99.361728" style="fill: #6f6f6f; stroke: #6f6f6f"/>
     <use xlink:href="#m17b1a78ddb" x="161.467243" y="95.387364" style="fill: #6f6f6f; stroke: #6f6f6f"/>
     <use xlink:href="#m17b1a78ddb" x="148.937419" y="105.608429" style="fill: #6f6f6f; stroke: #6f6f6f"/>
    </g>
   </g>
   <g id="line2d_14">
    <path d="M 63.447585 75.384599 
L 66.195533 77.447373 
L 68.943481 79.510148 
L 71.69143 81.572923 
L 74.439378 83.635697 
L 77.187327 85.698472 
L 79.935275 87.761247 
L 82.683223 89.824021 
L 85.431172 91.886796 
L 88.17912 93.949571 
L 90.927069 96.012345 
L 93.675017 98.07512 
L 96.422965 100.137895 
L 99.170914 102.200669 
L 101.918862 104.263444 
L 104.666811 106.326218 
L 107.414759 108.388993 
L 110.162707 110.451768 
L 112.910656 112.514542 
L 115.658604 114.577317 
L 118.406553 116.640092 
L 121.154501 118.702866 
L 123.902449 120.765641 
L 126.650398 122.828416 
L 129.398346 124.89119 
L 132.146295 126.953965 
L 134.894243 129.01674 
L 137.642191 131.079514 
L 140.39014 133.142289 
L 143.138088 135.205064 
L 145.886037 137.267838 
L 148.633985 139.330613 
L 151.381933 141.393387 
L 154.129882 143.456162 
L 156.87783 145.518937 
L 159.625779 147.581711 
L 162.373727 149.644486 
L 165.121675 151.707261 
L 167.869624 153.770035 
L 170.617572 155.83281 
L 173.365521 157.895585 
L 176.113469 159.958359 
L 178.861417 162.021134 
L 181.609366 164.083909 
L 184.357314 166.146683 
L 187.105263 168.209458 
L 189.853211 170.272232 
L 192.601159 172.335007 
L 195.349108 174.397782 
L 198.097056 176.460556 
L 200.845005 178.523331 
L 203.592953 180.586106 
L 206.340901 182.64888 
L 209.08885 184.711655 
L 211.836798 186.77443 
L 214.584747 188.837204 
L 217.332695 190.899979 
L 220.080643 192.962754 
L 222.828592 195.025528 
L 225.57654 197.088303 
L 228.324489 199.151078 
L 231.072437 201.213852 
L 233.820385 203.276627 
L 236.568334 205.339401 
L 239.316282 207.402176 
L 242.064231 209.464951 
L 244.812179 211.527725 
L 247.560127 213.5905 
L 250.308076 215.653275 
L 253.056024 217.716049 
L 255.803973 219.778824 
L 258.551921 221.841599 
L 261.299869 223.904373 
L 264.047818 225.967148 
L 266.795766 228.029923 
L 269.543715 230.092697 
L 272.291663 232.155472 
L 275.039612 234.218246 
L 277.78756 236.281021 
L 280.535508 238.343796 
L 283.283457 240.40657 
L 286.031405 242.469345 
L 288.779354 244.53212 
L 291.527302 246.594894 
L 294.27525 248.657669 
L 297.023199 250.720444 
L 299.771147 252.783218 
L 302.519096 254.845993 
L 305.267044 256.908768 
L 308.014992 258.971542 
L 310.762941 261.034317 
L 313.510889 263.097092 
L 316.258838 265.159866 
L 319.006786 267.222641 
L 321.754734 269.285415 
L 324.502683 271.34819 
L 327.250631 273.410965 
L 329.99858 275.473739 
L 332.746528 277.536514 
L 335.494476 279.599289 
" clip-path="url(#p061012214d)" style="fill: none; stroke: #aaaaaa; stroke-width: 2; stroke-linecap: square"/>
   </g>
   <g id="line2d_15">
    <defs>
     <path id="mcb1b7b6ca0" d="M 0 3 
C 0.795609 3 1.55874 2.683901 2.12132 2.12132 
C 2.683901 1.55874 3 0.795609 3 0 
C 3 -0.795609 2.683901 -1.55874 2.12132 -2.12132 
C 1.55874 -2.683901 0.795609 -3 0 -3 
C -0.795609 -3 -1.55874 -2.683901 -2.12132 -2.12132 
C -2.683901 -1.55874 -3 -0.795609 -3 0 
C -3 0.795609 -2.683901 1.55874 -2.12132 2.12132 
C -1.55874 2.683901 -0.795609 3 0 3 
z
" style="stroke: #008aba"/>
    </defs>
    <g clip-path="url(#p061012214d)">
     <use xlink:href="#mcb1b7b6ca0" x="254.509312" y="220.134172" style="fill: #008aba; stroke: #008aba"/>
     <use xlink:href="#mcb1b7b6ca0" x="118.350737" y="115.611604" style="fill: #008aba; stroke: #008aba"/>
     <use xlink:href="#mcb1b7b6ca0" x="191.554299" y="231.777015" style="fill: #008aba; stroke: #008aba"/>
     <use xlink:href="#mcb1b7b6ca0" x="240.709615" y="224.443083" style="fill: #008aba; stroke: #008aba"/>
     <use xlink:href="#mcb1b7b6ca0" x="205.729484" y="188.479612" style="fill: #008aba; stroke: #008aba"/>
     <use xlink:href="#mcb1b7b6ca0" x="170.310382" y="226.274998" style="fill: #008aba; stroke: #008aba"/>
     <use xlink:href="#mcb1b7b6ca0" x="211.517693" y="223.886658" style="fill: #008aba; stroke: #008aba"/>
     <use xlink:href="#mcb1b7b6ca0" x="213.70033" y="224.819075" style="fill: #008aba; stroke: #008aba"/>
     <use xlink:href="#mcb1b7b6ca0" x="217.252712" y="205.668066" style="fill: #008aba; stroke: #008aba"/>
     <use xlink:href="#mcb1b7b6ca0" x="163.690208" y="225.586666" style="fill: #008aba; stroke: #008aba"/>
     <use xlink:href="#mcb1b7b6ca0" x="194.748561" y="235.301946" style="fill: #008aba; stroke: #008aba"/>
     <use xlink:href="#mcb1b7b6ca0" x="205.0305" y="192.646277" style="fill: #008aba; stroke: #008aba"/>
     <use xlink:href="#mcb1b7b6ca0" x="230.097942" y="233.682832" style="fill: #008aba; stroke: #008aba"/>
     <use xlink:href="#mcb1b7b6ca0" x="169.628837" y="174.564745" style="fill: #008aba; stroke: #008aba"/>
     <use xlink:href="#mcb1b7b6ca0" x="178.57099" y="178.523117" style="fill: #008aba; stroke: #008aba"/>
     <use xlink:href="#mcb1b7b6ca0" x="81.02587" y="101.265764" style="fill: #008aba; stroke: #008aba"/>
     <use xlink:href="#mcb1b7b6ca0" x="305.383675" y="207.951656" style="fill: #008aba; stroke: #008aba"/>
     <use xlink:href="#mcb1b7b6ca0" x="221.280974" y="128.954842" style="fill: #008aba; stroke: #008aba"/>
     <use xlink:href="#mcb1b7b6ca0" x="229.146293" y="223.857225" style="fill: #008aba; stroke: #008aba"/>
     <use xlink:href="#mcb1b7b6ca0" x="252.801915" y="279.680082" style="fill: #008aba; stroke: #008aba"/>
    </g>
   </g>
   <g id="line2d_16">
    <path d="M 81.02587 134.230241 
L 83.29211 135.494841 
L 85.558351 136.759441 
L 87.824591 138.024041 
L 90.090832 139.288641 
L 92.357072 140.553242 
L 94.623313 141.817842 
L 96.889553 143.082442 
L 99.155794 144.347042 
L 101.422034 145.611642 
L 103.688274 146.876242 
L 105.954515 148.140843 
L 108.220755 149.405443 
L 110.486996 150.670043 
L 112.753236 151.934643 
L 115.019477 153.199243 
L 117.285717 154.463844 
L 119.551958 155.728444 
L 121.818198 156.993044 
L 124.084439 158.257644 
L 126.350679 159.522244 
L 128.616919 160.786844 
L 130.88316 162.051445 
L 133.1494 163.316045 
L 135.415641 164.580645 
L 137.681881 165.845245 
L 139.948122 167.109845 
L 142.214362 168.374446 
L 144.480603 169.639046 
L 146.746843 170.903646 
L 149.013084 172.168246 
L 151.279324 173.432846 
L 153.545564 174.697446 
L 155.811805 175.962047 
L 158.078045 177.226647 
L 160.344286 178.491247 
L 162.610526 179.755847 
L 164.876767 181.020447 
L 167.143007 182.285047 
L 169.409248 183.549648 
L 171.675488 184.814248 
L 173.941729 186.078848 
L 176.207969 187.343448 
L 178.474209 188.608048 
L 180.74045 189.872649 
L 183.00669 191.137249 
L 185.272931 192.401849 
L 187.539171 193.666449 
L 189.805412 194.931049 
L 192.071652 196.195649 
L 194.337893 197.46025 
L 196.604133 198.72485 
L 198.870374 199.98945 
L 201.136614 201.25405 
L 203.402855 202.51865 
L 205.669095 203.783251 
L 207.935335 205.047851 
L 210.201576 206.312451 
L 212.467816 207.577051 
L 214.734057 208.841651 
L 217.000297 210.106251 
L 219.266538 211.370852 
L 221.532778 212.635452 
L 223.799019 213.900052 
L 226.065259 215.164652 
L 228.3315 216.429252 
L 230.59774 217.693852 
L 232.86398 218.958453 
L 235.130221 220.223053 
L 237.396461 221.487653 
L 239.662702 222.752253 
L 241.928942 224.016853 
L 244.195183 225.281454 
L 246.461423 226.546054 
L 248.727664 227.810654 
L 250.993904 229.075254 
L 253.260145 230.339854 
L 255.526385 231.604454 
L 257.792625 232.869055 
L 260.058866 234.133655 
L 262.325106 235.398255 
L 264.591347 236.662855 
L 266.857587 237.927455 
L 269.123828 239.192056 
L 271.390068 240.456656 
L 273.656309 241.721256 
L 275.922549 242.985856 
L 278.18879 244.250456 
L 280.45503 245.515056 
L 282.72127 246.779657 
L 284.987511 248.044257 
L 287.253751 249.308857 
L 289.519992 250.573457 
L 291.786232 251.838057 
L 294.052473 253.102657 
L 296.318713 254.367258 
L 298.584954 255.631858 
L 300.851194 256.896458 
L 303.117435 258.161058 
L 305.383675 259.425658 
" clip-path="url(#p061012214d)" style="fill: none; stroke: #0060cf; stroke-width: 2; stroke-linecap: square"/>
   </g>
   <g id="patch_3">
    <path d="M 49.84524 314.51476 
L 49.84524 45.546658 
" style="fill: none; stroke: #000000; stroke-width: 0.8; stroke-linejoin: miter; stroke-linecap: square"/>
   </g>
   <g id="patch_4">
    <path d="M 349.096821 314.51476 
L 349.096821 45.546658 
" style="fill: none; stroke: #000000; stroke-width: 0.8; stroke-linejoin: miter; stroke-linecap: square"/>
   </g>
   <g id="patch_5">
    <path d="M 49.84524 314.51476 
L 349.096821 314.51476 
" style="fill: none; stroke: #000000; stroke-width: 0.8; stroke-linejoin: miter; stroke-linecap: square"/>
   </g>
   <g id="patch_6">
    <path d="M 49.84524 45.546658 
L 349.096821 45.546658 
" style="fill: none; stroke: #000000; stroke-width: 0.8; stroke-linejoin: miter; stroke-linecap: square"/>
   </g>
   <g id="text_15">
    <!-- $G$ band FWHM vs. Shift -->
    <g transform="translate(107.71103 39.546658)scale(0.16 -0.16)">
     <defs>
      <path id="DejaVuSans-76" d="M 191 3500 
L 800 3500 
L 1894 563 
L 2988 3500 
L 3597 3500 
L 2284 0 
L 1503 0 
L 191 3500 
z
" transform="scale(0.015625)"/>
      <path id="DejaVuSans-73" d="M 2834 3397 
L 2834 2853 
Q 2591 2978 2328 3040 
Q 2066 3103 1784 3103 
Q 1356 3103 1142 2972 
Q 928 2841 928 2578 
Q 928 2378 1081 2264 
Q 1234 2150 1697 2047 
L 1894 2003 
Q 2506 1872 2764 1633 
Q 3022 1394 3022 966 
Q 3022 478 2636 193 
Q 2250 -91 1575 -91 
Q 1294 -91 989 -36 
Q 684 19 347 128 
L 347 722 
Q 666 556 975 473 
Q 1284 391 1588 391 
Q 1994 391 2212 530 
Q 2431 669 2431 922 
Q 2431 1156 2273 1281 
Q 2116 1406 1581 1522 
L 1381 1569 
Q 847 1681 609 1914 
Q 372 2147 372 2553 
Q 372 3047 722 3315 
Q 1072 3584 1716 3584 
Q 2034 3584 2315 3537 
Q 2597 3491 2834 3397 
z
" transform="scale(0.015625)"/>
      <path id="DejaVuSans-2e" d="M 684 794 
L 1344 794 
L 1344 0 
L 684 0 
L 684 794 
z
" transform="scale(0.015625)"/>
     </defs>
     <use xlink:href="#DejaVuSans-Oblique-47" transform="translate(0 0.015625)"/>
     <use xlink:href="#DejaVuSans-20" transform="translate(77.490234 0.015625)"/>
     <use xlink:href="#DejaVuSans-62" transform="translate(109.277344 0.015625)"/>
     <use xlink:href="#DejaVuSans-61" transform="translate(172.753906 0.015625)"/>
     <use xlink:href="#DejaVuSans-6e" transform="translate(234.033203 0.015625)"/>
     <use xlink:href="#DejaVuSans-64" transform="translate(297.412109 0.015625)"/>
     <use xlink:href="#DejaVuSans-20" transform="translate(360.888672 0.015625)"/>
     <use xlink:href="#DejaVuSans-46" transform="translate(392.675781 0.015625)"/>
     <use xlink:href="#DejaVuSans-57" transform="translate(450.195312 0.015625)"/>
     <use xlink:href="#DejaVuSans-48" transform="translate(549.072266 0.015625)"/>
     <use xlink:href="#DejaVuSans-4d" transform="translate(624.267578 0.015625)"/>
     <use xlink:href="#DejaVuSans-20" transform="translate(710.546875 0.015625)"/>
     <use xlink:href="#DejaVuSans-76" transform="translate(742.333984 0.015625)"/>
     <use xlink:href="#DejaVuSans-73" transform="translate(801.513672 0.015625)"/>
     <use xlink:href="#DejaVuSans-2e" transform="translate(853.613281 0.015625)"/>
     <use xlink:href="#DejaVuSans-20" transform="translate(885.400391 0.015625)"/>
     <use xlink:href="#DejaVuSans-53" transform="translate(917.1875 0.015625)"/>
     <use xlink:href="#DejaVuSans-68" transform="translate(980.664062 0.015625)"/>
     <use xlink:href="#DejaVuSans-69" transform="translate(1044.042969 0.015625)"/>
     <use xlink:href="#DejaVuSans-66" transform="translate(1071.826172 0.015625)"/>
     <use xlink:href="#DejaVuSans-74" transform="translate(1107.03125 0.015625)"/>
    </g>
   </g>
   <g id="legend_1">
    <g id="patch_7">
     <path d="M 152.709477 94.109783 
L 339.996821 94.109783 
Q 342.596821 94.109783 342.596821 91.509783 
L 342.596821 54.646658 
Q 342.596821 52.046658 339.996821 52.046658 
L 152.709477 52.046658 
Q 150.109477 52.046658 150.109477 54.646658 
L 150.109477 91.509783 
Q 150.109477 94.109783 152.709477 94.109783 
z
" style="fill: #ffffff; opacity: 0.8; stroke: #cccccc; stroke-linejoin: miter"/>
    </g>
    <g id="line2d_17">
     <g>
      <use xlink:href="#m17b1a78ddb" x="168.309477" y="62.574626" style="fill: #6f6f6f; stroke: #6f6f6f"/>
     </g>
    </g>
    <g id="text_16">
     <!-- SWNT, slope=-0.711 -->
     <g transform="translate(191.709477 67.124626)scale(0.13 -0.13)">
      <defs>
       <path id="DejaVuSans-4e" d="M 628 4666 
L 1478 4666 
L 3547 763 
L 3547 4666 
L 4159 4666 
L 4159 0 
L 3309 0 
L 1241 3903 
L 1241 0 
L 628 0 
L 628 4666 
z
" transform="scale(0.015625)"/>
       <path id="DejaVuSans-54" d="M -19 4666 
L 3928 4666 
L 3928 4134 
L 2272 4134 
L 2272 0 
L 1638 0 
L 1638 4134 
L -19 4134 
L -19 4666 
z
" transform="scale(0.015625)"/>
       <path id="DejaVuSans-2c" d="M 750 794 
L 1409 794 
L 1409 256 
L 897 -744 
L 494 -744 
L 750 256 
L 750 794 
z
" transform="scale(0.015625)"/>
       <path id="DejaVuSans-6c" d="M 603 4863 
L 1178 4863 
L 1178 0 
L 603 0 
L 603 4863 
z
" transform="scale(0.015625)"/>
       <path id="DejaVuSans-6f" d="M 1959 3097 
Q 1497 3097 1228 2736 
Q 959 2375 959 1747 
Q 959 1119 1226 758 
Q 1494 397 1959 397 
Q 2419 397 2687 759 
Q 2956 1122 2956 1747 
Q 2956 2369 2687 2733 
Q 2419 3097 1959 3097 
z
M 1959 3584 
Q 2709 3584 3137 3096 
Q 3566 2609 3566 1747 
Q 3566 888 3137 398 
Q 2709 -91 1959 -91 
Q 1206 -91 779 398 
Q 353 888 353 1747 
Q 353 2609 779 3096 
Q 1206 3584 1959 3584 
z
" transform="scale(0.015625)"/>
       <path id="DejaVuSans-70" d="M 1159 525 
L 1159 -1331 
L 581 -1331 
L 581 3500 
L 1159 3500 
L 1159 2969 
Q 1341 3281 1617 3432 
Q 1894 3584 2278 3584 
Q 2916 3584 3314 3078 
Q 3713 2572 3713 1747 
Q 3713 922 3314 415 
Q 2916 -91 2278 -91 
Q 1894 -91 1617 61 
Q 1341 213 1159 525 
z
M 3116 1747 
Q 3116 2381 2855 2742 
Q 2594 3103 2138 3103 
Q 1681 3103 1420 2742 
Q 1159 2381 1159 1747 
Q 1159 1113 1420 752 
Q 1681 391 2138 391 
Q 2594 391 2855 752 
Q 3116 1113 3116 1747 
z
" transform="scale(0.015625)"/>
       <path id="DejaVuSans-65" d="M 3597 1894 
L 3597 1613 
L 953 1613 
Q 991 1019 1311 708 
Q 1631 397 2203 397 
Q 2534 397 2845 478 
Q 3156 559 3463 722 
L 3463 178 
Q 3153 47 2828 -22 
Q 2503 -91 2169 -91 
Q 1331 -91 842 396 
Q 353 884 353 1716 
Q 353 2575 817 3079 
Q 1281 3584 2069 3584 
Q 2775 3584 3186 3129 
Q 3597 2675 3597 1894 
z
M 3022 2063 
Q 3016 2534 2758 2815 
Q 2500 3097 2075 3097 
Q 1594 3097 1305 2825 
Q 1016 2553 972 2059 
L 3022 2063 
z
" transform="scale(0.015625)"/>
       <path id="DejaVuSans-3d" d="M 678 2906 
L 4684 2906 
L 4684 2381 
L 678 2381 
L 678 2906 
z
M 678 1631 
L 4684 1631 
L 4684 1100 
L 678 1100 
L 678 1631 
z
" transform="scale(0.015625)"/>
       <path id="DejaVuSans-2d" d="M 313 2009 
L 1997 2009 
L 1997 1497 
L 313 1497 
L 313 2009 
z
" transform="scale(0.015625)"/>
      </defs>
      <use xlink:href="#DejaVuSans-53"/>
      <use xlink:href="#DejaVuSans-57" x="63.476562"/>
      <use xlink:href="#DejaVuSans-4e" x="162.353516"/>
      <use xlink:href="#DejaVuSans-54" x="237.158203"/>
      <use xlink:href="#DejaVuSans-2c" x="298.242188"/>
      <use xlink:href="#DejaVuSans-20" x="330.029297"/>
      <use xlink:href="#DejaVuSans-73" x="361.816406"/>
      <use xlink:href="#DejaVuSans-6c" x="413.916016"/>
      <use xlink:href="#DejaVuSans-6f" x="441.699219"/>
      <use xlink:href="#DejaVuSans-70" x="502.880859"/>
      <use xlink:href="#DejaVuSans-65" x="566.357422"/>
      <use xlink:href="#DejaVuSans-3d" x="627.880859"/>
      <use xlink:href="#DejaVuSans-2d" x="711.669922"/>
      <use xlink:href="#DejaVuSans-30" x="747.753906"/>
      <use xlink:href="#DejaVuSans-2e" x="811.376953"/>
      <use xlink:href="#DejaVuSans-37" x="843.164062"/>
      <use xlink:href="#DejaVuSans-31" x="906.787109"/>
      <use xlink:href="#DejaVuSans-31" x="970.410156"/>
     </g>
    </g>
    <g id="line2d_18">
     <g>
      <use xlink:href="#mcb1b7b6ca0" x="168.309477" y="81.656189" style="fill: #008aba; stroke: #008aba"/>
     </g>
    </g>
    <g id="text_17">
     <!-- CuMINT, slope=-0.528 -->
     <g transform="translate(191.709477 86.206189)scale(0.13 -0.13)">
      <defs>
       <path id="DejaVuSans-43" d="M 4122 4306 
L 4122 3641 
Q 3803 3938 3442 4084 
Q 3081 4231 2675 4231 
Q 1875 4231 1450 3742 
Q 1025 3253 1025 2328 
Q 1025 1406 1450 917 
Q 1875 428 2675 428 
Q 3081 428 3442 575 
Q 3803 722 4122 1019 
L 4122 359 
Q 3791 134 3420 21 
Q 3050 -91 2638 -91 
Q 1578 -91 968 557 
Q 359 1206 359 2328 
Q 359 3453 968 4101 
Q 1578 4750 2638 4750 
Q 3056 4750 3426 4639 
Q 3797 4528 4122 4306 
z
" transform="scale(0.015625)"/>
       <path id="DejaVuSans-75" d="M 544 1381 
L 544 3500 
L 1119 3500 
L 1119 1403 
Q 1119 906 1312 657 
Q 1506 409 1894 409 
Q 2359 409 2629 706 
Q 2900 1003 2900 1516 
L 2900 3500 
L 3475 3500 
L 3475 0 
L 2900 0 
L 2900 538 
Q 2691 219 2414 64 
Q 2138 -91 1772 -91 
Q 1169 -91 856 284 
Q 544 659 544 1381 
z
M 1991 3584 
L 1991 3584 
z
" transform="scale(0.015625)"/>
       <path id="DejaVuSans-49" d="M 628 4666 
L 1259 4666 
L 1259 0 
L 628 0 
L 628 4666 
z
" transform="scale(0.015625)"/>
      </defs>
      <use xlink:href="#DejaVuSans-43"/>
      <use xlink:href="#DejaVuSans-75" x="69.824219"/>
      <use xlink:href="#DejaVuSans-4d" x="133.203125"/>
      <use xlink:href="#DejaVuSans-49" x="219.482422"/>
      <use xlink:href="#DejaVuSans-4e" x="248.974609"/>
      <use xlink:href="#DejaVuSans-54" x="323.779297"/>
      <use xlink:href="#DejaVuSans-2c" x="384.863281"/>
      <use xlink:href="#DejaVuSans-20" x="416.650391"/>
      <use xlink:href="#DejaVuSans-73" x="448.4375"/>
      <use xlink:href="#DejaVuSans-6c" x="500.537109"/>
      <use xlink:href="#DejaVuSans-6f" x="528.320312"/>
      <use xlink:href="#DejaVuSans-70" x="589.501953"/>
      <use xlink:href="#DejaVuSans-65" x="652.978516"/>
      <use xlink:href="#DejaVuSans-3d" x="714.501953"/>
      <use xlink:href="#DejaVuSans-2d" x="798.291016"/>
      <use xlink:href="#DejaVuSans-30" x="834.375"/>
      <use xlink:href="#DejaVuSans-2e" x="897.998047"/>
      <use xlink:href="#DejaVuSans-35" x="929.785156"/>
      <use xlink:href="#DejaVuSans-32" x="993.408203"/>
      <use xlink:href="#DejaVuSans-38" x="1057.03125"/>
     </g>
    </g>
   </g>
  </g>
  <g id="axes_2">
   <g id="patch_8">
    <path d="M 403.141821 314.51476 
L 702.393402 314.51476 
L 702.393402 45.546658 
L 403.141821 45.546658 
z
" style="fill: #ffffff"/>
   </g>
   <g id="matplotlib.axis_3">
    <g id="xtick_5">
     <g id="line2d_19">
      <g>
       <use xlink:href="#m30255dd88c" x="430.373499" y="314.51476" style="stroke: #000000; stroke-width: 0.8"/>
      </g>
     </g>
     <g id="text_18">
      <!-- 1295.0 -->
      <g transform="translate(402.380999 333.67226)scale(0.16 -0.16)">
       <use xlink:href="#DejaVuSans-31"/>
       <use xlink:href="#DejaVuSans-32" x="63.623047"/>
       <use xlink:href="#DejaVuSans-39" x="127.246094"/>
       <use xlink:href="#DejaVuSans-35" x="190.869141"/>
       <use xlink:href="#DejaVuSans-2e" x="254.492188"/>
       <use xlink:href="#DejaVuSans-30" x="286.279297"/>
      </g>
     </g>
    </g>
    <g id="xtick_6">
     <g id="line2d_20">
      <g>
       <use xlink:href="#m30255dd88c" x="481.446233" y="314.51476" style="stroke: #000000; stroke-width: 0.8"/>
      </g>
     </g>
     <g id="text_19">
      <!-- 1297.5 -->
      <g transform="translate(453.453733 333.67226)scale(0.16 -0.16)">
       <use xlink:href="#DejaVuSans-31"/>
       <use xlink:href="#DejaVuSans-32" x="63.623047"/>
       <use xlink:href="#DejaVuSans-39" x="127.246094"/>
       <use xlink:href="#DejaVuSans-37" x="190.869141"/>
       <use xlink:href="#DejaVuSans-2e" x="254.492188"/>
       <use xlink:href="#DejaVuSans-35" x="286.279297"/>
      </g>
     </g>
    </g>
    <g id="xtick_7">
     <g id="line2d_21">
      <g>
       <use xlink:href="#m30255dd88c" x="532.518968" y="314.51476" style="stroke: #000000; stroke-width: 0.8"/>
      </g>
     </g>
     <g id="text_20">
      <!-- 1300.0 -->
      <g transform="translate(504.526468 333.67226)scale(0.16 -0.16)">
       <use xlink:href="#DejaVuSans-31"/>
       <use xlink:href="#DejaVuSans-33" x="63.623047"/>
       <use xlink:href="#DejaVuSans-30" x="127.246094"/>
       <use xlink:href="#DejaVuSans-30" x="190.869141"/>
       <use xlink:href="#DejaVuSans-2e" x="254.492188"/>
       <use xlink:href="#DejaVuSans-30" x="286.279297"/>
      </g>
     </g>
    </g>
    <g id="xtick_8">
     <g id="line2d_22">
      <g>
       <use xlink:href="#m30255dd88c" x="583.591703" y="314.51476" style="stroke: #000000; stroke-width: 0.8"/>
      </g>
     </g>
     <g id="text_21">
      <!-- 1302.5 -->
      <g transform="translate(555.599203 333.67226)scale(0.16 -0.16)">
       <use xlink:href="#DejaVuSans-31"/>
       <use xlink:href="#DejaVuSans-33" x="63.623047"/>
       <use xlink:href="#DejaVuSans-30" x="127.246094"/>
       <use xlink:href="#DejaVuSans-32" x="190.869141"/>
       <use xlink:href="#DejaVuSans-2e" x="254.492188"/>
       <use xlink:href="#DejaVuSans-35" x="286.279297"/>
      </g>
     </g>
    </g>
    <g id="xtick_9">
     <g id="line2d_23">
      <g>
       <use xlink:href="#m30255dd88c" x="634.664437" y="314.51476" style="stroke: #000000; stroke-width: 0.8"/>
      </g>
     </g>
     <g id="text_22">
      <!-- 1305.0 -->
      <g transform="translate(606.671937 333.67226)scale(0.16 -0.16)">
       <use xlink:href="#DejaVuSans-31"/>
       <use xlink:href="#DejaVuSans-33" x="63.623047"/>
       <use xlink:href="#DejaVuSans-30" x="127.246094"/>
       <use xlink:href="#DejaVuSans-35" x="190.869141"/>
       <use xlink:href="#DejaVuSans-2e" x="254.492188"/>
       <use xlink:href="#DejaVuSans-30" x="286.279297"/>
      </g>
     </g>
    </g>
    <g id="xtick_10">
     <g id="line2d_24">
      <g>
       <use xlink:href="#m30255dd88c" x="685.737172" y="314.51476" style="stroke: #000000; stroke-width: 0.8"/>
      </g>
     </g>
     <g id="text_23">
      <!-- 1307.5 -->
      <g transform="translate(657.744672 333.67226)scale(0.16 -0.16)">
       <use xlink:href="#DejaVuSans-31"/>
       <use xlink:href="#DejaVuSans-33" x="63.623047"/>
       <use xlink:href="#DejaVuSans-30" x="127.246094"/>
       <use xlink:href="#DejaVuSans-37" x="190.869141"/>
       <use xlink:href="#DejaVuSans-2e" x="254.492188"/>
       <use xlink:href="#DejaVuSans-35" x="286.279297"/>
      </g>
     </g>
    </g>
    <g id="text_24">
     <!-- $D$ band FWHM / $cm^{-1}$ -->
     <g transform="translate(467.087611 353.67226)scale(0.16 -0.16)">
      <defs>
       <path id="DejaVuSans-Oblique-44" d="M 1081 4666 
L 2438 4666 
Q 3519 4666 4070 4208 
Q 4622 3750 4622 2847 
Q 4622 2250 4412 1698 
Q 4203 1147 3834 769 
Q 3463 381 2891 190 
Q 2319 0 1538 0 
L 172 0 
L 1081 4666 
z
M 1613 4147 
L 909 519 
L 1734 519 
Q 2794 519 3375 1128 
Q 3956 1738 3956 2847 
Q 3956 3519 3581 3833 
Q 3206 4147 2406 4147 
L 1613 4147 
z
" transform="scale(0.015625)"/>
      </defs>
      <use xlink:href="#DejaVuSans-Oblique-44" transform="translate(0 0.684375)"/>
      <use xlink:href="#DejaVuSans-20" transform="translate(77.001953 0.684375)"/>
      <use xlink:href="#DejaVuSans-62" transform="translate(108.789062 0.684375)"/>
      <use xlink:href="#DejaVuSans-61" transform="translate(172.265625 0.684375)"/>
      <use xlink:href="#DejaVuSans-6e" transform="translate(233.544922 0.684375)"/>
      <use xlink:href="#DejaVuSans-64" transform="translate(296.923828 0.684375)"/>
      <use xlink:href="#DejaVuSans-20" transform="translate(360.400391 0.684375)"/>
      <use xlink:href="#DejaVuSans-46" transform="translate(392.1875 0.684375)"/>
      <use xlink:href="#DejaVuSans-57" transform="translate(449.707031 0.684375)"/>
      <use xlink:href="#DejaVuSans-48" transform="translate(548.583984 0.684375)"/>
      <use xlink:href="#DejaVuSans-4d" transform="translate(623.779297 0.684375)"/>
      <use xlink:href="#DejaVuSans-20" transform="translate(710.058594 0.684375)"/>
      <use xlink:href="#DejaVuSans-2f" transform="translate(741.845703 0.684375)"/>
      <use xlink:href="#DejaVuSans-20" transform="translate(775.537109 0.684375)"/>
      <use xlink:href="#DejaVuSans-Oblique-63" transform="translate(807.324219 0.684375)"/>
      <use xlink:href="#DejaVuSans-Oblique-6d" transform="translate(862.304688 0.684375)"/>
      <use xlink:href="#DejaVuSans-2212" transform="translate(964.366693 38.965625)scale(0.7)"/>
      <use xlink:href="#DejaVuSans-31" transform="translate(1023.019036 38.965625)scale(0.7)"/>
     </g>
    </g>
   </g>
   <g id="matplotlib.axis_4">
    <g id="ytick_9">
     <g id="line2d_25">
      <g>
       <use xlink:href="#m715a2eab03" x="403.141821" y="288.384759" style="stroke: #000000; stroke-width: 0.8"/>
      </g>
     </g>
     <g id="text_25">
      <!-- 40 -->
      <g transform="translate(375.781821 294.463509)scale(0.16 -0.16)">
       <use xlink:href="#DejaVuSans-34"/>
       <use xlink:href="#DejaVuSans-30" x="63.623047"/>
      </g>
     </g>
    </g>
    <g id="ytick_10">
     <g id="line2d_26">
      <g>
       <use xlink:href="#m715a2eab03" x="403.141821" y="256.856707" style="stroke: #000000; stroke-width: 0.8"/>
      </g>
     </g>
     <g id="text_26">
      <!-- 45 -->
      <g transform="translate(375.781821 262.935457)scale(0.16 -0.16)">
       <use xlink:href="#DejaVuSans-34"/>
       <use xlink:href="#DejaVuSans-35" x="63.623047"/>
      </g>
     </g>
    </g>
    <g id="ytick_11">
     <g id="line2d_27">
      <g>
       <use xlink:href="#m715a2eab03" x="403.141821" y="225.328655" style="stroke: #000000; stroke-width: 0.8"/>
      </g>
     </g>
     <g id="text_27">
      <!-- 50 -->
      <g transform="translate(375.781821 231.407405)scale(0.16 -0.16)">
       <use xlink:href="#DejaVuSans-35"/>
       <use xlink:href="#DejaVuSans-30" x="63.623047"/>
      </g>
     </g>
    </g>
    <g id="ytick_12">
     <g id="line2d_28">
      <g>
       <use xlink:href="#m715a2eab03" x="403.141821" y="193.800603" style="stroke: #000000; stroke-width: 0.8"/>
      </g>
     </g>
     <g id="text_28">
      <!-- 55 -->
      <g transform="translate(375.781821 199.879353)scale(0.16 -0.16)">
       <use xlink:href="#DejaVuSans-35"/>
       <use xlink:href="#DejaVuSans-35" x="63.623047"/>
      </g>
     </g>
    </g>
    <g id="ytick_13">
     <g id="line2d_29">
      <g>
       <use xlink:href="#m715a2eab03" x="403.141821" y="162.272551" style="stroke: #000000; stroke-width: 0.8"/>
      </g>
     </g>
     <g id="text_29">
      <!-- 60 -->
      <g transform="translate(375.781821 168.351301)scale(0.16 -0.16)">
       <use xlink:href="#DejaVuSans-36"/>
       <use xlink:href="#DejaVuSans-30" x="63.623047"/>
      </g>
     </g>
    </g>
    <g id="ytick_14">
     <g id="line2d_30">
      <g>
       <use xlink:href="#m715a2eab03" x="403.141821" y="130.744499" style="stroke: #000000; stroke-width: 0.8"/>
      </g>
     </g>
     <g id="text_30">
      <!-- 65 -->
      <g transform="translate(375.781821 136.823249)scale(0.16 -0.16)">
       <use xlink:href="#DejaVuSans-36"/>
       <use xlink:href="#DejaVuSans-35" x="63.623047"/>
      </g>
     </g>
    </g>
    <g id="ytick_15">
     <g id="line2d_31">
      <g>
       <use xlink:href="#m715a2eab03" x="403.141821" y="99.216447" style="stroke: #000000; stroke-width: 0.8"/>
      </g>
     </g>
     <g id="text_31">
      <!-- 70 -->
      <g transform="translate(375.781821 105.295197)scale(0.16 -0.16)">
       <use xlink:href="#DejaVuSans-37"/>
       <use xlink:href="#DejaVuSans-30" x="63.623047"/>
      </g>
     </g>
    </g>
    <g id="ytick_16">
     <g id="line2d_32">
      <g>
       <use xlink:href="#m715a2eab03" x="403.141821" y="67.688395" style="stroke: #000000; stroke-width: 0.8"/>
      </g>
     </g>
     <g id="text_32">
      <!-- 75 -->
      <g transform="translate(375.781821 73.767145)scale(0.16 -0.16)">
       <use xlink:href="#DejaVuSans-37"/>
       <use xlink:href="#DejaVuSans-35" x="63.623047"/>
      </g>
     </g>
    </g>
    <g id="text_33">
     <!-- $D$ band Shift -->
     <g transform="translate(368.454321 229.790709)rotate(-90)scale(0.16 -0.16)">
      <use xlink:href="#DejaVuSans-Oblique-44" transform="translate(0 0.015625)"/>
      <use xlink:href="#DejaVuSans-20" transform="translate(77.001953 0.015625)"/>
      <use xlink:href="#DejaVuSans-62" transform="translate(108.789062 0.015625)"/>
      <use xlink:href="#DejaVuSans-61" transform="translate(172.265625 0.015625)"/>
      <use xlink:href="#DejaVuSans-6e" transform="translate(233.544922 0.015625)"/>
      <use xlink:href="#DejaVuSans-64" transform="translate(296.923828 0.015625)"/>
      <use xlink:href="#DejaVuSans-20" transform="translate(360.400391 0.015625)"/>
      <use xlink:href="#DejaVuSans-53" transform="translate(392.1875 0.015625)"/>
      <use xlink:href="#DejaVuSans-68" transform="translate(455.664062 0.015625)"/>
      <use xlink:href="#DejaVuSans-69" transform="translate(519.042969 0.015625)"/>
      <use xlink:href="#DejaVuSans-66" transform="translate(546.826172 0.015625)"/>
      <use xlink:href="#DejaVuSans-74" transform="translate(582.03125 0.015625)"/>
     </g>
    </g>
   </g>
   <g id="line2d_33">
    <g clip-path="url(#pf15f271515)">
     <use xlink:href="#m17b1a78ddb" x="585.865413" y="176.653012" style="fill: #6f6f6f; stroke: #6f6f6f"/>
     <use xlink:href="#m17b1a78ddb" x="478.780654" y="258.441967" style="fill: #6f6f6f; stroke: #6f6f6f"/>
     <use xlink:href="#m17b1a78ddb" x="453.740366" y="250.383034" style="fill: #6f6f6f; stroke: #6f6f6f"/>
     <use xlink:href="#m17b1a78ddb" x="475.053525" y="228.034462" style="fill: #6f6f6f; stroke: #6f6f6f"/>
     <use xlink:href="#m17b1a78ddb" x="570.194455" y="173.60066" style="fill: #6f6f6f; stroke: #6f6f6f"/>
     <use xlink:href="#m17b1a78ddb" x="552.191941" y="176.226291" style="fill: #6f6f6f; stroke: #6f6f6f"/>
     <use xlink:href="#m17b1a78ddb" x="508.211886" y="208.708836" style="fill: #6f6f6f; stroke: #6f6f6f"/>
     <use xlink:href="#m17b1a78ddb" x="536.505688" y="166.196357" style="fill: #6f6f6f; stroke: #6f6f6f"/>
     <use xlink:href="#m17b1a78ddb" x="503.074413" y="271.195848" style="fill: #6f6f6f; stroke: #6f6f6f"/>
     <use xlink:href="#m17b1a78ddb" x="688.791057" y="226.650141" style="fill: #6f6f6f; stroke: #6f6f6f"/>
     <use xlink:href="#m17b1a78ddb" x="449.444214" y="271.266444" style="fill: #6f6f6f; stroke: #6f6f6f"/>
     <use xlink:href="#m17b1a78ddb" x="416.744166" y="290.142495" style="fill: #6f6f6f; stroke: #6f6f6f"/>
     <use xlink:href="#m17b1a78ddb" x="545.792993" y="217.312118" style="fill: #6f6f6f; stroke: #6f6f6f"/>
     <use xlink:href="#m17b1a78ddb" x="572.048736" y="184.100927" style="fill: #6f6f6f; stroke: #6f6f6f"/>
     <use xlink:href="#m17b1a78ddb" x="430.292626" y="273.333636" style="fill: #6f6f6f; stroke: #6f6f6f"/>
     <use xlink:href="#m17b1a78ddb" x="467.03721" y="276.19986" style="fill: #6f6f6f; stroke: #6f6f6f"/>
     <use xlink:href="#m17b1a78ddb" x="490.620984" y="254.023012" style="fill: #6f6f6f; stroke: #6f6f6f"/>
     <use xlink:href="#m17b1a78ddb" x="499.620331" y="276.405618" style="fill: #6f6f6f; stroke: #6f6f6f"/>
     <use xlink:href="#m17b1a78ddb" x="480.622667" y="302.288937" style="fill: #6f6f6f; stroke: #6f6f6f"/>
    </g>
   </g>
   <g id="line2d_34">
    <path d="M 416.744166 278.036958 
L 419.492114 276.804048 
L 422.240062 275.571138 
L 424.988011 274.338228 
L 427.735959 273.105318 
L 430.483908 271.872408 
L 433.231856 270.639498 
L 435.979804 269.406588 
L 438.727753 268.173678 
L 441.475701 266.940768 
L 444.22365 265.707858 
L 446.971598 264.474948 
L 449.719546 263.242038 
L 452.467495 262.009128 
L 455.215443 260.776218 
L 457.963392 259.543308 
L 460.71134 258.310398 
L 463.459288 257.077488 
L 466.207237 255.844578 
L 468.955185 254.611668 
L 471.703134 253.378758 
L 474.451082 252.145848 
L 477.19903 250.912938 
L 479.946979 249.680028 
L 482.694927 248.447118 
L 485.442876 247.214208 
L 488.190824 245.981298 
L 490.938772 244.748388 
L 493.686721 243.515478 
L 496.434669 242.282568 
L 499.182618 241.049658 
L 501.930566 239.816748 
L 504.678514 238.583837 
L 507.426463 237.350927 
L 510.174411 236.118017 
L 512.92236 234.885107 
L 515.670308 233.652197 
L 518.418256 232.419287 
L 521.166205 231.186377 
L 523.914153 229.953467 
L 526.662102 228.720557 
L 529.41005 227.487647 
L 532.157998 226.254737 
L 534.905947 225.021827 
L 537.653895 223.788917 
L 540.401844 222.556007 
L 543.149792 221.323097 
L 545.89774 220.090187 
L 548.645689 218.857277 
L 551.393637 217.624367 
L 554.141586 216.391457 
L 556.889534 215.158547 
L 559.637482 213.925637 
L 562.385431 212.692727 
L 565.133379 211.459817 
L 567.881328 210.226907 
L 570.629276 208.993997 
L 573.377224 207.761087 
L 576.125173 206.528177 
L 578.873121 205.295267 
L 581.62107 204.062357 
L 584.369018 202.829447 
L 587.116966 201.596537 
L 589.864915 200.363627 
L 592.612863 199.130717 
L 595.360812 197.897807 
L 598.10876 196.664897 
L 600.856708 195.431987 
L 603.604657 194.199077 
L 606.352605 192.966167 
L 609.100554 191.733257 
L 611.848502 190.500347 
L 614.59645 189.267437 
L 617.344399 188.034527 
L 620.092347 186.801617 
L 622.840296 185.568707 
L 625.588244 184.335797 
L 628.336192 183.102887 
L 631.084141 181.869977 
L 633.832089 180.637067 
L 636.580038 179.404157 
L 639.327986 178.171247 
L 642.075934 176.938337 
L 644.823883 175.705427 
L 647.571831 174.472517 
L 650.31978 173.239607 
L 653.067728 172.006697 
L 655.815676 170.773787 
L 658.563625 169.540877 
L 661.311573 168.307967 
L 664.059522 167.075057 
L 666.80747 165.842147 
L 669.555418 164.609236 
L 672.303367 163.376326 
L 675.051315 162.143416 
L 677.799264 160.910506 
L 680.547212 159.677596 
L 683.29516 158.444686 
L 686.043109 157.211776 
L 688.791057 155.978866 
" clip-path="url(#pf15f271515)" style="fill: none; stroke: #aaaaaa; stroke-width: 2; stroke-linecap: square"/>
   </g>
   <g id="line2d_35">
    <g clip-path="url(#pf15f271515)">
     <use xlink:href="#mcb1b7b6ca0" x="556.78463" y="242.645405" style="fill: #008aba; stroke: #008aba"/>
     <use xlink:href="#mcb1b7b6ca0" x="544.034519" y="220.626702" style="fill: #008aba; stroke: #008aba"/>
     <use xlink:href="#mcb1b7b6ca0" x="515.605104" y="211.648554" style="fill: #008aba; stroke: #008aba"/>
     <use xlink:href="#mcb1b7b6ca0" x="528.305414" y="218.379896" style="fill: #008aba; stroke: #008aba"/>
     <use xlink:href="#mcb1b7b6ca0" x="526.467677" y="223.223219" style="fill: #008aba; stroke: #008aba"/>
     <use xlink:href="#mcb1b7b6ca0" x="501.021252" y="238.722613" style="fill: #008aba; stroke: #008aba"/>
     <use xlink:href="#mcb1b7b6ca0" x="512.007419" y="230.341819" style="fill: #008aba; stroke: #008aba"/>
     <use xlink:href="#mcb1b7b6ca0" x="519.642762" y="208.627892" style="fill: #008aba; stroke: #008aba"/>
     <use xlink:href="#mcb1b7b6ca0" x="522.865753" y="219.129935" style="fill: #008aba; stroke: #008aba"/>
     <use xlink:href="#mcb1b7b6ca0" x="486.429557" y="243.769881" style="fill: #008aba; stroke: #008aba"/>
     <use xlink:href="#mcb1b7b6ca0" x="505.208834" y="236.797454" style="fill: #008aba; stroke: #008aba"/>
     <use xlink:href="#mcb1b7b6ca0" x="502.912214" y="209.59032" style="fill: #008aba; stroke: #008aba"/>
     <use xlink:href="#mcb1b7b6ca0" x="522.453025" y="239.536671" style="fill: #008aba; stroke: #008aba"/>
     <use xlink:href="#mcb1b7b6ca0" x="498.470185" y="217.074676" style="fill: #008aba; stroke: #008aba"/>
     <use xlink:href="#mcb1b7b6ca0" x="521.930775" y="220.115008" style="fill: #008aba; stroke: #008aba"/>
     <use xlink:href="#mcb1b7b6ca0" x="621.271003" y="57.77248" style="fill: #008aba; stroke: #008aba"/>
     <use xlink:href="#mcb1b7b6ca0" x="624.380851" y="151.916957" style="fill: #008aba; stroke: #008aba"/>
     <use xlink:href="#mcb1b7b6ca0" x="555.319159" y="164.635003" style="fill: #008aba; stroke: #008aba"/>
     <use xlink:href="#mcb1b7b6ca0" x="582.056807" y="183.666151" style="fill: #008aba; stroke: #008aba"/>
     <use xlink:href="#mcb1b7b6ca0" x="551.488976" y="260.3975" style="fill: #008aba; stroke: #008aba"/>
    </g>
   </g>
   <g id="line2d_36">
    <path d="M 486.429557 252.02686 
L 487.823004 250.817488 
L 489.216452 249.608115 
L 490.609899 248.398742 
L 492.003347 247.189369 
L 493.396794 245.979996 
L 494.790241 244.770624 
L 496.183689 243.561251 
L 497.577136 242.351878 
L 498.970584 241.142505 
L 500.364031 239.933132 
L 501.757478 238.72376 
L 503.150926 237.514387 
L 504.544373 236.305014 
L 505.937821 235.095641 
L 507.331268 233.886268 
L 508.724715 232.676896 
L 510.118163 231.467523 
L 511.51161 230.25815 
L 512.905058 229.048777 
L 514.298505 227.839404 
L 515.691953 226.630032 
L 517.0854 225.420659 
L 518.478847 224.211286 
L 519.872295 223.001913 
L 521.265742 221.79254 
L 522.65919 220.583168 
L 524.052637 219.373795 
L 525.446084 218.164422 
L 526.839532 216.955049 
L 528.232979 215.745676 
L 529.626427 214.536304 
L 531.019874 213.326931 
L 532.413321 212.117558 
L 533.806769 210.908185 
L 535.200216 209.698812 
L 536.593664 208.48944 
L 537.987111 207.280067 
L 539.380559 206.070694 
L 540.774006 204.861321 
L 542.167453 203.651948 
L 543.560901 202.442576 
L 544.954348 201.233203 
L 546.347796 200.02383 
L 547.741243 198.814457 
L 549.13469 197.605084 
L 550.528138 196.395712 
L 551.921585 195.186339 
L 553.315033 193.976966 
L 554.70848 192.767593 
L 556.101928 191.55822 
L 557.495375 190.348848 
L 558.888822 189.139475 
L 560.28227 187.930102 
L 561.675717 186.720729 
L 563.069165 185.511356 
L 564.462612 184.301984 
L 565.856059 183.092611 
L 567.249507 181.883238 
L 568.642954 180.673865 
L 570.036402 179.464492 
L 571.429849 178.255119 
L 572.823296 177.045747 
L 574.216744 175.836374 
L 575.610191 174.627001 
L 577.003639 173.417628 
L 578.397086 172.208255 
L 579.790534 170.998883 
L 581.183981 169.78951 
L 582.577428 168.580137 
L 583.970876 167.370764 
L 585.364323 166.161391 
L 586.757771 164.952019 
L 588.151218 163.742646 
L 589.544665 162.533273 
L 590.938113 161.3239 
L 592.33156 160.114527 
L 593.725008 158.905155 
L 595.118455 157.695782 
L 596.511902 156.486409 
L 597.90535 155.277036 
L 599.298797 154.067663 
L 600.692245 152.858291 
L 602.085692 151.648918 
L 603.47914 150.439545 
L 604.872587 149.230172 
L 606.266034 148.020799 
L 607.659482 146.811427 
L 609.052929 145.602054 
L 610.446377 144.392681 
L 611.839824 143.183308 
L 613.233271 141.973935 
L 614.626719 140.764563 
L 616.020166 139.55519 
L 617.413614 138.345817 
L 618.807061 137.136444 
L 620.200509 135.927071 
L 621.593956 134.717699 
L 622.987403 133.508326 
L 624.380851 132.298953 
" clip-path="url(#pf15f271515)" style="fill: none; stroke: #0060cf; stroke-width: 2; stroke-linecap: square"/>
   </g>
   <g id="patch_9">
    <path d="M 403.141821 314.51476 
L 403.141821 45.546657 
" style="fill: none; stroke: #000000; stroke-width: 0.8; stroke-linejoin: miter; stroke-linecap: square"/>
   </g>
   <g id="patch_10">
    <path d="M 702.393402 314.51476 
L 702.393402 45.546657 
" style="fill: none; stroke: #000000; stroke-width: 0.8; stroke-linejoin: miter; stroke-linecap: square"/>
   </g>
   <g id="patch_11">
    <path d="M 403.141821 314.51476 
L 702.393402 314.51476 
" style="fill: none; stroke: #000000; stroke-width: 0.8; stroke-linejoin: miter; stroke-linecap: square"/>
   </g>
   <g id="patch_12">
    <path d="M 403.141821 45.546658 
L 702.393402 45.546658 
" style="fill: none; stroke: #000000; stroke-width: 0.8; stroke-linejoin: miter; stroke-linecap: square"/>
   </g>
   <g id="text_34">
    <!-- $D$ band FWHM vs. Shift -->
    <g transform="translate(461.087611 39.546658)scale(0.16 -0.16)">
     <use xlink:href="#DejaVuSans-Oblique-44" transform="translate(0 0.015625)"/>
     <use xlink:href="#DejaVuSans-20" transform="translate(77.001953 0.015625)"/>
     <use xlink:href="#DejaVuSans-62" transform="translate(108.789062 0.015625)"/>
     <use xlink:href="#DejaVuSans-61" transform="translate(172.265625 0.015625)"/>
     <use xlink:href="#DejaVuSans-6e" transform="translate(233.544922 0.015625)"/>
     <use xlink:href="#DejaVuSans-64" transform="translate(296.923828 0.015625)"/>
     <use xlink:href="#DejaVuSans-20" transform="translate(360.400391 0.015625)"/>
     <use xlink:href="#DejaVuSans-46" transform="translate(392.1875 0.015625)"/>
     <use xlink:href="#DejaVuSans-57" transform="translate(449.707031 0.015625)"/>
     <use xlink:href="#DejaVuSans-48" transform="translate(548.583984 0.015625)"/>
     <use xlink:href="#DejaVuSans-4d" transform="translate(623.779297 0.015625)"/>
     <use xlink:href="#DejaVuSans-20" transform="translate(710.058594 0.015625)"/>
     <use xlink:href="#DejaVuSans-76" transform="translate(741.845703 0.015625)"/>
     <use xlink:href="#DejaVuSans-73" transform="translate(801.025391 0.015625)"/>
     <use xlink:href="#DejaVuSans-2e" transform="translate(853.125 0.015625)"/>
     <use xlink:href="#DejaVuSans-20" transform="translate(884.912109 0.015625)"/>
     <use xlink:href="#DejaVuSans-53" transform="translate(916.699219 0.015625)"/>
     <use xlink:href="#DejaVuSans-68" transform="translate(980.175781 0.015625)"/>
     <use xlink:href="#DejaVuSans-69" transform="translate(1043.554688 0.015625)"/>
     <use xlink:href="#DejaVuSans-66" transform="translate(1071.337891 0.015625)"/>
     <use xlink:href="#DejaVuSans-74" transform="translate(1106.542969 0.015625)"/>
    </g>
   </g>
   <g id="legend_2">
    <g id="patch_13">
     <path d="M 412.241821 94.109783 
L 594.839008 94.109783 
Q 597.439008 94.109783 597.439008 91.509783 
L 597.439008 54.646658 
Q 597.439008 52.046658 594.839008 52.046658 
L 412.241821 52.046658 
Q 409.641821 52.046658 409.641821 54.646658 
L 409.641821 91.509783 
Q 409.641821 94.109783 412.241821 94.109783 
z
" style="fill: #ffffff; opacity: 0.8; stroke: #cccccc; stroke-linejoin: miter"/>
    </g>
    <g id="line2d_37">
     <g>
      <use xlink:href="#m17b1a78ddb" x="427.841821" y="62.574626" style="fill: #6f6f6f; stroke: #6f6f6f"/>
     </g>
    </g>
    <g id="text_35">
     <!-- SWNT, slope=1.454 -->
     <g transform="translate(451.241821 67.124626)scale(0.13 -0.13)">
      <use xlink:href="#DejaVuSans-53"/>
      <use xlink:href="#DejaVuSans-57" x="63.476562"/>
      <use xlink:href="#DejaVuSans-4e" x="162.353516"/>
      <use xlink:href="#DejaVuSans-54" x="237.158203"/>
      <use xlink:href="#DejaVuSans-2c" x="298.242188"/>
      <use xlink:href="#DejaVuSans-20" x="330.029297"/>
      <use xlink:href="#DejaVuSans-73" x="361.816406"/>
      <use xlink:href="#DejaVuSans-6c" x="413.916016"/>
      <use xlink:href="#DejaVuSans-6f" x="441.699219"/>
      <use xlink:href="#DejaVuSans-70" x="502.880859"/>
      <use xlink:href="#DejaVuSans-65" x="566.357422"/>
      <use xlink:href="#DejaVuSans-3d" x="627.880859"/>
      <use xlink:href="#DejaVuSans-31" x="711.669922"/>
      <use xlink:href="#DejaVuSans-2e" x="775.292969"/>
      <use xlink:href="#DejaVuSans-34" x="807.080078"/>
      <use xlink:href="#DejaVuSans-35" x="870.703125"/>
      <use xlink:href="#DejaVuSans-34" x="934.326172"/>
     </g>
    </g>
    <g id="line2d_38">
     <g>
      <use xlink:href="#mcb1b7b6ca0" x="427.841821" y="81.656189" style="fill: #008aba; stroke: #008aba"/>
     </g>
    </g>
    <g id="text_36">
     <!-- CuMINT, slope=2.812 -->
     <g transform="translate(451.241821 86.206189)scale(0.13 -0.13)">
      <use xlink:href="#DejaVuSans-43"/>
      <use xlink:href="#DejaVuSans-75" x="69.824219"/>
      <use xlink:href="#DejaVuSans-4d" x="133.203125"/>
      <use xlink:href="#DejaVuSans-49" x="219.482422"/>
      <use xlink:href="#DejaVuSans-4e" x="248.974609"/>
      <use xlink:href="#DejaVuSans-54" x="323.779297"/>
      <use xlink:href="#DejaVuSans-2c" x="384.863281"/>
      <use xlink:href="#DejaVuSans-20" x="416.650391"/>
      <use xlink:href="#DejaVuSans-73" x="448.4375"/>
      <use xlink:href="#DejaVuSans-6c" x="500.537109"/>
      <use xlink:href="#DejaVuSans-6f" x="528.320312"/>
      <use xlink:href="#DejaVuSans-70" x="589.501953"/>
      <use xlink:href="#DejaVuSans-65" x="652.978516"/>
      <use xlink:href="#DejaVuSans-3d" x="714.501953"/>
      <use xlink:href="#DejaVuSans-32" x="798.291016"/>
      <use xlink:href="#DejaVuSans-2e" x="861.914062"/>
      <use xlink:href="#DejaVuSans-38" x="893.701172"/>
      <use xlink:href="#DejaVuSans-31" x="957.324219"/>
      <use xlink:href="#DejaVuSans-32" x="1020.947266"/>
     </g>
    </g>
   </g>
  </g>
  <g id="axes_3">
   <g id="patch_14">
    <path d="M 777.748179 314.51476 
L 1076.99976 314.51476 
L 1076.99976 45.546658 
L 777.748179 45.546658 
z
" style="fill: #ffffff"/>
   </g>
   <g id="matplotlib.axis_5">
    <g id="xtick_11">
     <g id="line2d_39">
      <g>
       <use xlink:href="#m30255dd88c" x="789.09255" y="314.51476" style="stroke: #000000; stroke-width: 0.8"/>
      </g>
     </g>
     <g id="text_37">
      <!-- 2570 -->
      <g transform="translate(768.73255 333.67226)scale(0.16 -0.16)">
       <use xlink:href="#DejaVuSans-32"/>
       <use xlink:href="#DejaVuSans-35" x="63.623047"/>
       <use xlink:href="#DejaVuSans-37" x="127.246094"/>
       <use xlink:href="#DejaVuSans-30" x="190.869141"/>
      </g>
     </g>
    </g>
    <g id="xtick_12">
     <g id="line2d_40">
      <g>
       <use xlink:href="#m30255dd88c" x="840.574884" y="314.51476" style="stroke: #000000; stroke-width: 0.8"/>
      </g>
     </g>
     <g id="text_38">
      <!-- 2575 -->
      <g transform="translate(820.214884 333.67226)scale(0.16 -0.16)">
       <use xlink:href="#DejaVuSans-32"/>
       <use xlink:href="#DejaVuSans-35" x="63.623047"/>
       <use xlink:href="#DejaVuSans-37" x="127.246094"/>
       <use xlink:href="#DejaVuSans-35" x="190.869141"/>
      </g>
     </g>
    </g>
    <g id="xtick_13">
     <g id="line2d_41">
      <g>
       <use xlink:href="#m30255dd88c" x="892.057218" y="314.51476" style="stroke: #000000; stroke-width: 0.8"/>
      </g>
     </g>
     <g id="text_39">
      <!-- 2580 -->
      <g transform="translate(871.697218 333.67226)scale(0.16 -0.16)">
       <use xlink:href="#DejaVuSans-32"/>
       <use xlink:href="#DejaVuSans-35" x="63.623047"/>
       <use xlink:href="#DejaVuSans-38" x="127.246094"/>
       <use xlink:href="#DejaVuSans-30" x="190.869141"/>
      </g>
     </g>
    </g>
    <g id="xtick_14">
     <g id="line2d_42">
      <g>
       <use xlink:href="#m30255dd88c" x="943.539552" y="314.51476" style="stroke: #000000; stroke-width: 0.8"/>
      </g>
     </g>
     <g id="text_40">
      <!-- 2585 -->
      <g transform="translate(923.179552 333.67226)scale(0.16 -0.16)">
       <use xlink:href="#DejaVuSans-32"/>
       <use xlink:href="#DejaVuSans-35" x="63.623047"/>
       <use xlink:href="#DejaVuSans-38" x="127.246094"/>
       <use xlink:href="#DejaVuSans-35" x="190.869141"/>
      </g>
     </g>
    </g>
    <g id="xtick_15">
     <g id="line2d_43">
      <g>
       <use xlink:href="#m30255dd88c" x="995.021885" y="314.51476" style="stroke: #000000; stroke-width: 0.8"/>
      </g>
     </g>
     <g id="text_41">
      <!-- 2590 -->
      <g transform="translate(974.661885 333.67226)scale(0.16 -0.16)">
       <use xlink:href="#DejaVuSans-32"/>
       <use xlink:href="#DejaVuSans-35" x="63.623047"/>
       <use xlink:href="#DejaVuSans-39" x="127.246094"/>
       <use xlink:href="#DejaVuSans-30" x="190.869141"/>
      </g>
     </g>
    </g>
    <g id="xtick_16">
     <g id="line2d_44">
      <g>
       <use xlink:href="#m30255dd88c" x="1046.504219" y="314.51476" style="stroke: #000000; stroke-width: 0.8"/>
      </g>
     </g>
     <g id="text_42">
      <!-- 2595 -->
      <g transform="translate(1026.144219 333.67226)scale(0.16 -0.16)">
       <use xlink:href="#DejaVuSans-32"/>
       <use xlink:href="#DejaVuSans-35" x="63.623047"/>
       <use xlink:href="#DejaVuSans-39" x="127.246094"/>
       <use xlink:href="#DejaVuSans-35" x="190.869141"/>
      </g>
     </g>
    </g>
    <g id="text_43">
     <!-- $2D$ band FWHM / $cm^{-1}$ -->
     <g transform="translate(836.65397 353.67226)scale(0.16 -0.16)">
      <use xlink:href="#DejaVuSans-32" transform="translate(0 0.684375)"/>
      <use xlink:href="#DejaVuSans-Oblique-44" transform="translate(63.623047 0.684375)"/>
      <use xlink:href="#DejaVuSans-20" transform="translate(140.625 0.684375)"/>
      <use xlink:href="#DejaVuSans-62" transform="translate(172.412109 0.684375)"/>
      <use xlink:href="#DejaVuSans-61" transform="translate(235.888672 0.684375)"/>
      <use xlink:href="#DejaVuSans-6e" transform="translate(297.167969 0.684375)"/>
      <use xlink:href="#DejaVuSans-64" transform="translate(360.546875 0.684375)"/>
      <use xlink:href="#DejaVuSans-20" transform="translate(424.023438 0.684375)"/>
      <use xlink:href="#DejaVuSans-46" transform="translate(455.810547 0.684375)"/>
      <use xlink:href="#DejaVuSans-57" transform="translate(513.330078 0.684375)"/>
      <use xlink:href="#DejaVuSans-48" transform="translate(612.207031 0.684375)"/>
      <use xlink:href="#DejaVuSans-4d" transform="translate(687.402344 0.684375)"/>
      <use xlink:href="#DejaVuSans-20" transform="translate(773.681641 0.684375)"/>
      <use xlink:href="#DejaVuSans-2f" transform="translate(805.46875 0.684375)"/>
      <use xlink:href="#DejaVuSans-20" transform="translate(839.160156 0.684375)"/>
      <use xlink:href="#DejaVuSans-Oblique-63" transform="translate(870.947266 0.684375)"/>
      <use xlink:href="#DejaVuSans-Oblique-6d" transform="translate(925.927734 0.684375)"/>
      <use xlink:href="#DejaVuSans-2212" transform="translate(1027.98974 38.965625)scale(0.7)"/>
      <use xlink:href="#DejaVuSans-31" transform="translate(1086.642083 38.965625)scale(0.7)"/>
     </g>
    </g>
   </g>
   <g id="matplotlib.axis_6">
    <g id="ytick_17">
     <g id="line2d_45">
      <g>
       <use xlink:href="#m715a2eab03" x="777.748179" y="313.521455" style="stroke: #000000; stroke-width: 0.8"/>
      </g>
     </g>
     <g id="text_44">
      <!-- 65 -->
      <g transform="translate(750.388179 319.600205)scale(0.16 -0.16)">
       <use xlink:href="#DejaVuSans-36"/>
       <use xlink:href="#DejaVuSans-35" x="63.623047"/>
      </g>
     </g>
    </g>
    <g id="ytick_18">
     <g id="line2d_46">
      <g>
       <use xlink:href="#m715a2eab03" x="777.748179" y="284.461232" style="stroke: #000000; stroke-width: 0.8"/>
      </g>
     </g>
     <g id="text_45">
      <!-- 70 -->
      <g transform="translate(750.388179 290.539982)scale(0.16 -0.16)">
       <use xlink:href="#DejaVuSans-37"/>
       <use xlink:href="#DejaVuSans-30" x="63.623047"/>
      </g>
     </g>
    </g>
    <g id="ytick_19">
     <g id="line2d_47">
      <g>
       <use xlink:href="#m715a2eab03" x="777.748179" y="255.40101" style="stroke: #000000; stroke-width: 0.8"/>
      </g>
     </g>
     <g id="text_46">
      <!-- 75 -->
      <g transform="translate(750.388179 261.47976)scale(0.16 -0.16)">
       <use xlink:href="#DejaVuSans-37"/>
       <use xlink:href="#DejaVuSans-35" x="63.623047"/>
      </g>
     </g>
    </g>
    <g id="ytick_20">
     <g id="line2d_48">
      <g>
       <use xlink:href="#m715a2eab03" x="777.748179" y="226.340787" style="stroke: #000000; stroke-width: 0.8"/>
      </g>
     </g>
     <g id="text_47">
      <!-- 80 -->
      <g transform="translate(750.388179 232.419537)scale(0.16 -0.16)">
       <use xlink:href="#DejaVuSans-38"/>
       <use xlink:href="#DejaVuSans-30" x="63.623047"/>
      </g>
     </g>
    </g>
    <g id="ytick_21">
     <g id="line2d_49">
      <g>
       <use xlink:href="#m715a2eab03" x="777.748179" y="197.280565" style="stroke: #000000; stroke-width: 0.8"/>
      </g>
     </g>
     <g id="text_48">
      <!-- 85 -->
      <g transform="translate(750.388179 203.359315)scale(0.16 -0.16)">
       <use xlink:href="#DejaVuSans-38"/>
       <use xlink:href="#DejaVuSans-35" x="63.623047"/>
      </g>
     </g>
    </g>
    <g id="ytick_22">
     <g id="line2d_50">
      <g>
       <use xlink:href="#m715a2eab03" x="777.748179" y="168.220342" style="stroke: #000000; stroke-width: 0.8"/>
      </g>
     </g>
     <g id="text_49">
      <!-- 90 -->
      <g transform="translate(750.388179 174.299092)scale(0.16 -0.16)">
       <use xlink:href="#DejaVuSans-39"/>
       <use xlink:href="#DejaVuSans-30" x="63.623047"/>
      </g>
     </g>
    </g>
    <g id="ytick_23">
     <g id="line2d_51">
      <g>
       <use xlink:href="#m715a2eab03" x="777.748179" y="139.16012" style="stroke: #000000; stroke-width: 0.8"/>
      </g>
     </g>
     <g id="text_50">
      <!-- 95 -->
      <g transform="translate(750.388179 145.23887)scale(0.16 -0.16)">
       <use xlink:href="#DejaVuSans-39"/>
       <use xlink:href="#DejaVuSans-35" x="63.623047"/>
      </g>
     </g>
    </g>
    <g id="ytick_24">
     <g id="line2d_52">
      <g>
       <use xlink:href="#m715a2eab03" x="777.748179" y="110.099897" style="stroke: #000000; stroke-width: 0.8"/>
      </g>
     </g>
     <g id="text_51">
      <!-- 100 -->
      <g transform="translate(740.208179 116.178647)scale(0.16 -0.16)">
       <use xlink:href="#DejaVuSans-31"/>
       <use xlink:href="#DejaVuSans-30" x="63.623047"/>
       <use xlink:href="#DejaVuSans-30" x="127.246094"/>
      </g>
     </g>
    </g>
    <g id="ytick_25">
     <g id="line2d_53">
      <g>
       <use xlink:href="#m715a2eab03" x="777.748179" y="81.039674" style="stroke: #000000; stroke-width: 0.8"/>
      </g>
     </g>
     <g id="text_52">
      <!-- 105 -->
      <g transform="translate(740.208179 87.118424)scale(0.16 -0.16)">
       <use xlink:href="#DejaVuSans-31"/>
       <use xlink:href="#DejaVuSans-30" x="63.623047"/>
       <use xlink:href="#DejaVuSans-35" x="127.246094"/>
      </g>
     </g>
    </g>
    <g id="ytick_26">
     <g id="line2d_54">
      <g>
       <use xlink:href="#m715a2eab03" x="777.748179" y="51.979452" style="stroke: #000000; stroke-width: 0.8"/>
      </g>
     </g>
     <g id="text_53">
      <!-- 110 -->
      <g transform="translate(740.208179 58.058202)scale(0.16 -0.16)">
       <use xlink:href="#DejaVuSans-31"/>
       <use xlink:href="#DejaVuSans-31" x="63.623047"/>
       <use xlink:href="#DejaVuSans-30" x="127.246094"/>
      </g>
     </g>
    </g>
    <g id="text_54">
     <!-- $2D$ band Shift -->
     <g transform="translate(732.880679 234.830709)rotate(-90)scale(0.16 -0.16)">
      <use xlink:href="#DejaVuSans-32" transform="translate(0 0.015625)"/>
      <use xlink:href="#DejaVuSans-Oblique-44" transform="translate(63.623047 0.015625)"/>
      <use xlink:href="#DejaVuSans-20" transform="translate(140.625 0.015625)"/>
      <use xlink:href="#DejaVuSans-62" transform="translate(172.412109 0.015625)"/>
      <use xlink:href="#DejaVuSans-61" transform="translate(235.888672 0.015625)"/>
      <use xlink:href="#DejaVuSans-6e" transform="translate(297.167969 0.015625)"/>
      <use xlink:href="#DejaVuSans-64" transform="translate(360.546875 0.015625)"/>
      <use xlink:href="#DejaVuSans-20" transform="translate(424.023438 0.015625)"/>
      <use xlink:href="#DejaVuSans-53" transform="translate(455.810547 0.015625)"/>
      <use xlink:href="#DejaVuSans-68" transform="translate(519.287109 0.015625)"/>
      <use xlink:href="#DejaVuSans-69" transform="translate(582.666016 0.015625)"/>
      <use xlink:href="#DejaVuSans-66" transform="translate(610.449219 0.015625)"/>
      <use xlink:href="#DejaVuSans-74" transform="translate(645.654297 0.015625)"/>
     </g>
    </g>
   </g>
   <g id="line2d_55">
    <g clip-path="url(#p5f76e19c4c)">
     <use xlink:href="#m17b1a78ddb" x="824.973882" y="118.386704" style="fill: #6f6f6f; stroke: #6f6f6f"/>
     <use xlink:href="#m17b1a78ddb" x="844.57591" y="147.652387" style="fill: #6f6f6f; stroke: #6f6f6f"/>
     <use xlink:href="#m17b1a78ddb" x="807.327925" y="109.593219" style="fill: #6f6f6f; stroke: #6f6f6f"/>
     <use xlink:href="#m17b1a78ddb" x="831.201558" y="134.110452" style="fill: #6f6f6f; stroke: #6f6f6f"/>
     <use xlink:href="#m17b1a78ddb" x="826.083618" y="121.853374" style="fill: #6f6f6f; stroke: #6f6f6f"/>
     <use xlink:href="#m17b1a78ddb" x="815.446427" y="92.490597" style="fill: #6f6f6f; stroke: #6f6f6f"/>
     <use xlink:href="#m17b1a78ddb" x="814.390529" y="104.018695" style="fill: #6f6f6f; stroke: #6f6f6f"/>
     <use xlink:href="#m17b1a78ddb" x="791.350524" y="57.77248" style="fill: #6f6f6f; stroke: #6f6f6f"/>
     <use xlink:href="#m17b1a78ddb" x="898.623936" y="185.351008" style="fill: #6f6f6f; stroke: #6f6f6f"/>
     <use xlink:href="#m17b1a78ddb" x="1063.397415" y="286.820782" style="fill: #6f6f6f; stroke: #6f6f6f"/>
     <use xlink:href="#m17b1a78ddb" x="840.818692" y="158.290553" style="fill: #6f6f6f; stroke: #6f6f6f"/>
     <use xlink:href="#m17b1a78ddb" x="823.035802" y="141.509697" style="fill: #6f6f6f; stroke: #6f6f6f"/>
     <use xlink:href="#m17b1a78ddb" x="880.552796" y="166.168051" style="fill: #6f6f6f; stroke: #6f6f6f"/>
     <use xlink:href="#m17b1a78ddb" x="914.380498" y="193.815585" style="fill: #6f6f6f; stroke: #6f6f6f"/>
     <use xlink:href="#m17b1a78ddb" x="826.792369" y="142.603893" style="fill: #6f6f6f; stroke: #6f6f6f"/>
     <use xlink:href="#m17b1a78ddb" x="840.778051" y="149.692198" style="fill: #6f6f6f; stroke: #6f6f6f"/>
     <use xlink:href="#m17b1a78ddb" x="857.035926" y="144.846138" style="fill: #6f6f6f; stroke: #6f6f6f"/>
     <use xlink:href="#m17b1a78ddb" x="870.651788" y="155.250571" style="fill: #6f6f6f; stroke: #6f6f6f"/>
     <use xlink:href="#m17b1a78ddb" x="886.677783" y="179.618665" style="fill: #6f6f6f; stroke: #6f6f6f"/>
    </g>
   </g>
   <g id="line2d_56">
    <path d="M 791.350524 98.680944 
L 794.098472 100.737591 
L 796.84642 102.794237 
L 799.594369 104.850883 
L 802.342317 106.90753 
L 805.090266 108.964176 
L 807.838214 111.020823 
L 810.586162 113.077469 
L 813.334111 115.134115 
L 816.082059 117.190762 
L 818.830008 119.247408 
L 821.577956 121.304055 
L 824.325904 123.360701 
L 827.073853 125.417347 
L 829.821801 127.473994 
L 832.56975 129.53064 
L 835.317698 131.587287 
L 838.065646 133.643933 
L 840.813595 135.700579 
L 843.561543 137.757226 
L 846.309492 139.813872 
L 849.05744 141.870518 
L 851.805388 143.927165 
L 854.553337 145.983811 
L 857.301285 148.040458 
L 860.049234 150.097104 
L 862.797182 152.15375 
L 865.545131 154.210397 
L 868.293079 156.267043 
L 871.041027 158.32369 
L 873.788976 160.380336 
L 876.536924 162.436982 
L 879.284873 164.493629 
L 882.032821 166.550275 
L 884.780769 168.606922 
L 887.528718 170.663568 
L 890.276666 172.720214 
L 893.024615 174.776861 
L 895.772563 176.833507 
L 898.520511 178.890154 
L 901.26846 180.9468 
L 904.016408 183.003446 
L 906.764357 185.060093 
L 909.512305 187.116739 
L 912.260253 189.173386 
L 915.008202 191.230032 
L 917.75615 193.286678 
L 920.504099 195.343325 
L 923.252047 197.399971 
L 925.999995 199.456618 
L 928.747944 201.513264 
L 931.495892 203.56991 
L 934.243841 205.626557 
L 936.991789 207.683203 
L 939.739737 209.739849 
L 942.487686 211.796496 
L 945.235634 213.853142 
L 947.983583 215.909789 
L 950.731531 217.966435 
L 953.479479 220.023081 
L 956.227428 222.079728 
L 958.975376 224.136374 
L 961.723325 226.193021 
L 964.471273 228.249667 
L 967.219221 230.306313 
L 969.96717 232.36296 
L 972.715118 234.419606 
L 975.463067 236.476253 
L 978.211015 238.532899 
L 980.958963 240.589545 
L 983.706912 242.646192 
L 986.45486 244.702838 
L 989.202809 246.759485 
L 991.950757 248.816131 
L 994.698705 250.872777 
L 997.446654 252.929424 
L 1000.194602 254.98607 
L 1002.942551 257.042717 
L 1005.690499 259.099363 
L 1008.438447 261.156009 
L 1011.186396 263.212656 
L 1013.934344 265.269302 
L 1016.682293 267.325948 
L 1019.430241 269.382595 
L 1022.178189 271.439241 
L 1024.926138 273.495888 
L 1027.674086 275.552534 
L 1030.422035 277.60918 
L 1033.169983 279.665827 
L 1035.917931 281.722473 
L 1038.66588 283.77912 
L 1041.413828 285.835766 
L 1044.161777 287.892412 
L 1046.909725 289.949059 
L 1049.657673 292.005705 
L 1052.405622 294.062352 
L 1055.15357 296.118998 
L 1057.901519 298.175644 
L 1060.649467 300.232291 
L 1063.397415 302.288937 
" clip-path="url(#p5f76e19c4c)" style="fill: none; stroke: #aaaaaa; stroke-width: 2; stroke-linecap: square"/>
   </g>
   <g id="line2d_57">
    <g clip-path="url(#p5f76e19c4c)">
     <use xlink:href="#mcb1b7b6ca0" x="969.212288" y="229.457601" style="fill: #008aba; stroke: #008aba"/>
     <use xlink:href="#mcb1b7b6ca0" x="846.788366" y="116.754339" style="fill: #008aba; stroke: #008aba"/>
     <use xlink:href="#mcb1b7b6ca0" x="930.686937" y="212.951916" style="fill: #008aba; stroke: #008aba"/>
     <use xlink:href="#mcb1b7b6ca0" x="948.49572" y="208.94678" style="fill: #008aba; stroke: #008aba"/>
     <use xlink:href="#mcb1b7b6ca0" x="926.711873" y="183.962825" style="fill: #008aba; stroke: #008aba"/>
     <use xlink:href="#mcb1b7b6ca0" x="927.261501" y="227.109196" style="fill: #008aba; stroke: #008aba"/>
     <use xlink:href="#mcb1b7b6ca0" x="938.006151" y="219.03093" style="fill: #008aba; stroke: #008aba"/>
     <use xlink:href="#mcb1b7b6ca0" x="943.181635" y="216.968472" style="fill: #008aba; stroke: #008aba"/>
     <use xlink:href="#mcb1b7b6ca0" x="940.520191" y="200.10325" style="fill: #008aba; stroke: #008aba"/>
     <use xlink:href="#mcb1b7b6ca0" x="916.056245" y="219.350787" style="fill: #008aba; stroke: #008aba"/>
     <use xlink:href="#mcb1b7b6ca0" x="937.628467" y="232.064287" style="fill: #008aba; stroke: #008aba"/>
     <use xlink:href="#mcb1b7b6ca0" x="923.139246" y="190.600054" style="fill: #008aba; stroke: #008aba"/>
     <use xlink:href="#mcb1b7b6ca0" x="949.093043" y="213.685795" style="fill: #008aba; stroke: #008aba"/>
     <use xlink:href="#mcb1b7b6ca0" x="886.959319" y="149.506054" style="fill: #008aba; stroke: #008aba"/>
     <use xlink:href="#mcb1b7b6ca0" x="905.407965" y="166.855775" style="fill: #008aba; stroke: #008aba"/>
     <use xlink:href="#mcb1b7b6ca0" x="848.870469" y="108.441625" style="fill: #008aba; stroke: #008aba"/>
     <use xlink:href="#mcb1b7b6ca0" x="996.729893" y="210.883745" style="fill: #008aba; stroke: #008aba"/>
     <use xlink:href="#mcb1b7b6ca0" x="891.071482" y="104.22112" style="fill: #008aba; stroke: #008aba"/>
     <use xlink:href="#mcb1b7b6ca0" x="958.816705" y="200.506679" style="fill: #008aba; stroke: #008aba"/>
     <use xlink:href="#mcb1b7b6ca0" x="989.99368" y="265.237786" style="fill: #008aba; stroke: #008aba"/>
    </g>
   </g>
   <g id="line2d_58">
    <path d="M 846.788366 116.609507 
L 848.302927 118.036814 
L 849.817488 119.464121 
L 851.332049 120.891428 
L 852.84661 122.318735 
L 854.361171 123.746042 
L 855.875731 125.173349 
L 857.390292 126.600656 
L 858.904853 128.027963 
L 860.419414 129.45527 
L 861.933975 130.882577 
L 863.448536 132.309884 
L 864.963097 133.737191 
L 866.477658 135.164498 
L 867.992219 136.591805 
L 869.506779 138.019112 
L 871.02134 139.446419 
L 872.535901 140.873726 
L 874.050462 142.301033 
L 875.565023 143.72834 
L 877.079584 145.155647 
L 878.594145 146.582954 
L 880.108706 148.010261 
L 881.623266 149.437568 
L 883.137827 150.864875 
L 884.652388 152.292182 
L 886.166949 153.719489 
L 887.68151 155.146796 
L 889.196071 156.574103 
L 890.710632 158.00141 
L 892.225193 159.428717 
L 893.739753 160.856024 
L 895.254314 162.283331 
L 896.768875 163.710638 
L 898.283436 165.137945 
L 899.797997 166.565252 
L 901.312558 167.992559 
L 902.827119 169.419866 
L 904.34168 170.847173 
L 905.85624 172.27448 
L 907.370801 173.701787 
L 908.885362 175.129094 
L 910.399923 176.556401 
L 911.914484 177.983708 
L 913.429045 179.411015 
L 914.943606 180.838322 
L 916.458167 182.265629 
L 917.972728 183.692936 
L 919.487288 185.120243 
L 921.001849 186.54755 
L 922.51641 187.974857 
L 924.030971 189.402164 
L 925.545532 190.829471 
L 927.060093 192.256778 
L 928.574654 193.684085 
L 930.089215 195.111392 
L 931.603775 196.538699 
L 933.118336 197.966006 
L 934.632897 199.393313 
L 936.147458 200.82062 
L 937.662019 202.247927 
L 939.17658 203.675234 
L 940.691141 205.102541 
L 942.205702 206.529848 
L 943.720262 207.957155 
L 945.234823 209.384462 
L 946.749384 210.811769 
L 948.263945 212.239076 
L 949.778506 213.666383 
L 951.293067 215.09369 
L 952.807628 216.520997 
L 954.322189 217.948304 
L 955.83675 219.375611 
L 957.35131 220.802918 
L 958.865871 222.230225 
L 960.380432 223.657532 
L 961.894993 225.084839 
L 963.409554 226.512146 
L 964.924115 227.939453 
L 966.438676 229.36676 
L 967.953237 230.794067 
L 969.467797 232.221374 
L 970.982358 233.648681 
L 972.496919 235.075988 
L 974.01148 236.503295 
L 975.526041 237.930602 
L 977.040602 239.357909 
L 978.555163 240.785216 
L 980.069724 242.212523 
L 981.584284 243.63983 
L 983.098845 245.067137 
L 984.613406 246.494444 
L 986.127967 247.921751 
L 987.642528 249.349058 
L 989.157089 250.776365 
L 990.67165 252.203672 
L 992.186211 253.630979 
L 993.700772 255.058286 
L 995.215332 256.485593 
L 996.729893 257.9129 
" clip-path="url(#p5f76e19c4c)" style="fill: none; stroke: #0060cf; stroke-width: 2; stroke-linecap: square"/>
   </g>
   <g id="patch_15">
    <path d="M 777.748179 314.51476 
L 777.748179 45.546657 
" style="fill: none; stroke: #000000; stroke-width: 0.8; stroke-linejoin: miter; stroke-linecap: square"/>
   </g>
   <g id="patch_16">
    <path d="M 1076.99976 314.51476 
L 1076.99976 45.546657 
" style="fill: none; stroke: #000000; stroke-width: 0.8; stroke-linejoin: miter; stroke-linecap: square"/>
   </g>
   <g id="patch_17">
    <path d="M 777.748179 314.51476 
L 1076.99976 314.51476 
" style="fill: none; stroke: #000000; stroke-width: 0.8; stroke-linejoin: miter; stroke-linecap: square"/>
   </g>
   <g id="patch_18">
    <path d="M 777.748179 45.546658 
L 1076.99976 45.546658 
" style="fill: none; stroke: #000000; stroke-width: 0.8; stroke-linejoin: miter; stroke-linecap: square"/>
   </g>
   <g id="text_55">
    <!-- $2D$ band FWHM vs. Shift -->
    <g transform="translate(830.57397 39.546658)scale(0.16 -0.16)">
     <use xlink:href="#DejaVuSans-32" transform="translate(0 0.015625)"/>
     <use xlink:href="#DejaVuSans-Oblique-44" transform="translate(63.623047 0.015625)"/>
     <use xlink:href="#DejaVuSans-20" transform="translate(140.625 0.015625)"/>
     <use xlink:href="#DejaVuSans-62" transform="translate(172.412109 0.015625)"/>
     <use xlink:href="#DejaVuSans-61" transform="translate(235.888672 0.015625)"/>
     <use xlink:href="#DejaVuSans-6e" transform="translate(297.167969 0.015625)"/>
     <use xlink:href="#DejaVuSans-64" transform="translate(360.546875 0.015625)"/>
     <use xlink:href="#DejaVuSans-20" transform="translate(424.023438 0.015625)"/>
     <use xlink:href="#DejaVuSans-46" transform="translate(455.810547 0.015625)"/>
     <use xlink:href="#DejaVuSans-57" transform="translate(513.330078 0.015625)"/>
     <use xlink:href="#DejaVuSans-48" transform="translate(612.207031 0.015625)"/>
     <use xlink:href="#DejaVuSans-4d" transform="translate(687.402344 0.015625)"/>
     <use xlink:href="#DejaVuSans-20" transform="translate(773.681641 0.015625)"/>
     <use xlink:href="#DejaVuSans-76" transform="translate(805.46875 0.015625)"/>
     <use xlink:href="#DejaVuSans-73" transform="translate(864.648438 0.015625)"/>
     <use xlink:href="#DejaVuSans-2e" transform="translate(916.748047 0.015625)"/>
     <use xlink:href="#DejaVuSans-20" transform="translate(948.535156 0.015625)"/>
     <use xlink:href="#DejaVuSans-53" transform="translate(980.322266 0.015625)"/>
     <use xlink:href="#DejaVuSans-68" transform="translate(1043.798828 0.015625)"/>
     <use xlink:href="#DejaVuSans-69" transform="translate(1107.177734 0.015625)"/>
     <use xlink:href="#DejaVuSans-66" transform="translate(1134.960938 0.015625)"/>
     <use xlink:href="#DejaVuSans-74" transform="translate(1170.166016 0.015625)"/>
    </g>
   </g>
   <g id="legend_3">
    <g id="patch_19">
     <path d="M 888.883666 94.109783 
L 1067.89976 94.109783 
Q 1070.49976 94.109783 1070.49976 91.509783 
L 1070.49976 54.646658 
Q 1070.49976 52.046658 1067.89976 52.046658 
L 888.883666 52.046658 
Q 886.283666 52.046658 886.283666 54.646658 
L 886.283666 91.509783 
Q 886.283666 94.109783 888.883666 94.109783 
z
" style="fill: #ffffff; opacity: 0.8; stroke: #cccccc; stroke-linejoin: miter"/>
    </g>
    <g id="line2d_59">
     <g>
      <use xlink:href="#m17b1a78ddb" x="904.483666" y="62.574626" style="fill: #6f6f6f; stroke: #6f6f6f"/>
     </g>
    </g>
    <g id="text_56">
     <!-- SWNT, slope=-1.326 -->
     <g transform="translate(927.883666 67.124626)scale(0.13 -0.13)">
      <use xlink:href="#DejaVuSans-53"/>
      <use xlink:href="#DejaVuSans-57" x="63.476562"/>
      <use xlink:href="#DejaVuSans-4e" x="162.353516"/>
      <use xlink:href="#DejaVuSans-54" x="237.158203"/>
      <use xlink:href="#DejaVuSans-2c" x="298.242188"/>
      <use xlink:href="#DejaVuSans-20" x="330.029297"/>
      <use xlink:href="#DejaVuSans-73" x="361.816406"/>
      <use xlink:href="#DejaVuSans-6c" x="413.916016"/>
      <use xlink:href="#DejaVuSans-6f" x="441.699219"/>
      <use xlink:href="#DejaVuSans-70" x="502.880859"/>
      <use xlink:href="#DejaVuSans-65" x="566.357422"/>
      <use xlink:href="#DejaVuSans-3d" x="627.880859"/>
      <use xlink:href="#DejaVuSans-2d" x="711.669922"/>
      <use xlink:href="#DejaVuSans-31" x="747.753906"/>
      <use xlink:href="#DejaVuSans-2e" x="811.376953"/>
      <use xlink:href="#DejaVuSans-33" x="843.164062"/>
      <use xlink:href="#DejaVuSans-32" x="906.787109"/>
      <use xlink:href="#DejaVuSans-36" x="970.410156"/>
     </g>
    </g>
    <g id="line2d_60">
     <g>
      <use xlink:href="#mcb1b7b6ca0" x="904.483666" y="81.656189" style="fill: #008aba; stroke: #008aba"/>
     </g>
    </g>
    <g id="text_57">
     <!-- CuMINT, slope=-1.67 -->
     <g transform="translate(927.883666 86.206189)scale(0.13 -0.13)">
      <use xlink:href="#DejaVuSans-43"/>
      <use xlink:href="#DejaVuSans-75" x="69.824219"/>
      <use xlink:href="#DejaVuSans-4d" x="133.203125"/>
      <use xlink:href="#DejaVuSans-49" x="219.482422"/>
      <use xlink:href="#DejaVuSans-4e" x="248.974609"/>
      <use xlink:href="#DejaVuSans-54" x="323.779297"/>
      <use xlink:href="#DejaVuSans-2c" x="384.863281"/>
      <use xlink:href="#DejaVuSans-20" x="416.650391"/>
      <use xlink:href="#DejaVuSans-73" x="448.4375"/>
      <use xlink:href="#DejaVuSans-6c" x="500.537109"/>
      <use xlink:href="#DejaVuSans-6f" x="528.320312"/>
      <use xlink:href="#DejaVuSans-70" x="589.501953"/>
      <use xlink:href="#DejaVuSans-65" x="652.978516"/>
      <use xlink:href="#DejaVuSans-3d" x="714.501953"/>
      <use xlink:href="#DejaVuSans-2d" x="798.291016"/>
      <use xlink:href="#DejaVuSans-31" x="834.375"/>
      <use xlink:href="#DejaVuSans-2e" x="897.998047"/>
      <use xlink:href="#DejaVuSans-36" x="929.785156"/>
      <use xlink:href="#DejaVuSans-37" x="993.408203"/>
     </g>
    </g>
   </g>
  </g>
  <g id="text_58">
   <!-- FWHM vs. Position of Each Band -->
   <g transform="translate(387.516094 17.437271)scale(0.19 -0.19)">
    <defs>
     <path id="DejaVuSans-50" d="M 1259 4147 
L 1259 2394 
L 2053 2394 
Q 2494 2394 2734 2622 
Q 2975 2850 2975 3272 
Q 2975 3691 2734 3919 
Q 2494 4147 2053 4147 
L 1259 4147 
z
M 628 4666 
L 2053 4666 
Q 2838 4666 3239 4311 
Q 3641 3956 3641 3272 
Q 3641 2581 3239 2228 
Q 2838 1875 2053 1875 
L 1259 1875 
L 1259 0 
L 628 0 
L 628 4666 
z
" transform="scale(0.015625)"/>
     <path id="DejaVuSans-45" d="M 628 4666 
L 3578 4666 
L 3578 4134 
L 1259 4134 
L 1259 2753 
L 3481 2753 
L 3481 2222 
L 1259 2222 
L 1259 531 
L 3634 531 
L 3634 0 
L 628 0 
L 628 4666 
z
" transform="scale(0.015625)"/>
     <path id="DejaVuSans-63" d="M 3122 3366 
L 3122 2828 
Q 2878 2963 2633 3030 
Q 2388 3097 2138 3097 
Q 1578 3097 1268 2742 
Q 959 2388 959 1747 
Q 959 1106 1268 751 
Q 1578 397 2138 397 
Q 2388 397 2633 464 
Q 2878 531 3122 666 
L 3122 134 
Q 2881 22 2623 -34 
Q 2366 -91 2075 -91 
Q 1284 -91 818 406 
Q 353 903 353 1747 
Q 353 2603 823 3093 
Q 1294 3584 2113 3584 
Q 2378 3584 2631 3529 
Q 2884 3475 3122 3366 
z
" transform="scale(0.015625)"/>
     <path id="DejaVuSans-42" d="M 1259 2228 
L 1259 519 
L 2272 519 
Q 2781 519 3026 730 
Q 3272 941 3272 1375 
Q 3272 1813 3026 2020 
Q 2781 2228 2272 2228 
L 1259 2228 
z
M 1259 4147 
L 1259 2741 
L 2194 2741 
Q 2656 2741 2882 2914 
Q 3109 3088 3109 3444 
Q 3109 3797 2882 3972 
Q 2656 4147 2194 4147 
L 1259 4147 
z
M 628 4666 
L 2241 4666 
Q 2963 4666 3353 4366 
Q 3744 4066 3744 3513 
Q 3744 3084 3544 2831 
Q 3344 2578 2956 2516 
Q 3422 2416 3680 2098 
Q 3938 1781 3938 1306 
Q 3938 681 3513 340 
Q 3088 0 2303 0 
L 628 0 
L 628 4666 
z
" transform="scale(0.015625)"/>
    </defs>
    <use xlink:href="#DejaVuSans-46"/>
    <use xlink:href="#DejaVuSans-57" x="57.519531"/>
    <use xlink:href="#DejaVuSans-48" x="156.396484"/>
    <use xlink:href="#DejaVuSans-4d" x="231.591797"/>
    <use xlink:href="#DejaVuSans-20" x="317.871094"/>
    <use xlink:href="#DejaVuSans-76" x="349.658203"/>
    <use xlink:href="#DejaVuSans-73" x="408.837891"/>
    <use xlink:href="#DejaVuSans-2e" x="460.9375"/>
    <use xlink:href="#DejaVuSans-20" x="492.724609"/>
    <use xlink:href="#DejaVuSans-50" x="524.511719"/>
    <use xlink:href="#DejaVuSans-6f" x="581.189453"/>
    <use xlink:href="#DejaVuSans-73" x="642.371094"/>
    <use xlink:href="#DejaVuSans-69" x="694.470703"/>
    <use xlink:href="#DejaVuSans-74" x="722.253906"/>
    <use xlink:href="#DejaVuSans-69" x="761.462891"/>
    <use xlink:href="#DejaVuSans-6f" x="789.246094"/>
    <use xlink:href="#DejaVuSans-6e" x="850.427734"/>
    <use xlink:href="#DejaVuSans-20" x="913.806641"/>
    <use xlink:href="#DejaVuSans-6f" x="945.59375"/>
    <use xlink:href="#DejaVuSans-66" x="1006.775391"/>
    <use xlink:href="#DejaVuSans-20" x="1041.980469"/>
    <use xlink:href="#DejaVuSans-45" x="1073.767578"/>
    <use xlink:href="#DejaVuSans-61" x="1136.951172"/>
    <use xlink:href="#DejaVuSans-63" x="1198.230469"/>
    <use xlink:href="#DejaVuSans-68" x="1253.210938"/>
    <use xlink:href="#DejaVuSans-20" x="1316.589844"/>
    <use xlink:href="#DejaVuSans-42" x="1348.376953"/>
    <use xlink:href="#DejaVuSans-61" x="1416.980469"/>
    <use xlink:href="#DejaVuSans-6e" x="1478.259766"/>
    <use xlink:href="#DejaVuSans-64" x="1541.638672"/>
   </g>
  </g>
 </g>
 <defs>
  <clipPath id="p061012214d">
   <rect x="49.84524" y="45.546658" width="299.251581" height="268.968102"/>
  </clipPath>
  <clipPath id="pf15f271515">
   <rect x="403.141821" y="45.546658" width="299.251581" height="268.968102"/>
  </clipPath>
  <clipPath id="p5f76e19c4c">
   <rect x="777.748179" y="45.546658" width="299.251581" height="268.968102"/>
  </clipPath>
 </defs>
</svg>
