<?xml version="1.0" encoding="utf-8" standalone="no"?>
<!DOCTYPE svg PUBLIC "-//W3C//DTD SVG 1.1//EN"
  "http://www.w3.org/Graphics/SVG/1.1/DTD/svg11.dtd">
<svg xmlns:xlink="http://www.w3.org/1999/xlink" width="432pt" height="432pt" viewBox="0 0 432 432" xmlns="http://www.w3.org/2000/svg" version="1.1">
 <metadata>
  <rdf:RDF xmlns:dc="http://purl.org/dc/elements/1.1/" xmlns:cc="http://creativecommons.org/ns#" xmlns:rdf="http://www.w3.org/1999/02/22-rdf-syntax-ns#">
   <cc:Work>
    <dc:type rdf:resource="http://purl.org/dc/dcmitype/StillImage"/>
    <dc:date>2023-07-19T18:22:49.881684</dc:date>
    <dc:format>image/svg+xml</dc:format>
    <dc:creator>
     <cc:Agent>
      <dc:title>Matplotlib v3.5.2, https://matplotlib.org/</dc:title>
     </cc:Agent>
    </dc:creator>
   </cc:Work>
  </rdf:RDF>
 </metadata>
 <defs>
  <style type="text/css">*{stroke-linejoin: round; stroke-linecap: butt}</style>
 </defs>
 <g id="figure_1">
  <g id="patch_1">
   <path d="M 0 432 
L 432 432 
L 432 0 
L 0 0 
z
" style="fill: #ffffff"/>
  </g>
  <g id="axes_1">
   <g id="patch_2">
    <path d="M 54.93024 386.51476 
L 428.99976 386.51476 
L 428.99976 18.118365 
L 54.93024 18.118365 
z
" style="fill: #ffffff"/>
   </g>
   <g id="matplotlib.axis_1">
    <g id="xtick_1">
     <g id="line2d_1">
      <defs>
       <path id="m7ad6c5c715" d="M 0 0 
L 0 3.5 
" style="stroke: #000000; stroke-width: 0.8"/>
      </defs>
      <g>
       <use xlink:href="#m7ad6c5c715" x="64.084156" y="386.51476" style="stroke: #000000; stroke-width: 0.8"/>
      </g>
     </g>
     <g id="text_1">
      <!-- 0 -->
      <g transform="translate(58.994156 405.67226)scale(0.16 -0.16)">
       <defs>
        <path id="DejaVuSans-30" d="M 2034 4250 
Q 1547 4250 1301 3770 
Q 1056 3291 1056 2328 
Q 1056 1369 1301 889 
Q 1547 409 2034 409 
Q 2525 409 2770 889 
Q 3016 1369 3016 2328 
Q 3016 3291 2770 3770 
Q 2525 4250 2034 4250 
z
M 2034 4750 
Q 2819 4750 3233 4129 
Q 3647 3509 3647 2328 
Q 3647 1150 3233 529 
Q 2819 -91 2034 -91 
Q 1250 -91 836 529 
Q 422 1150 422 2328 
Q 422 3509 836 4129 
Q 1250 4750 2034 4750 
z
" transform="scale(0.015625)"/>
       </defs>
       <use xlink:href="#DejaVuSans-30"/>
      </g>
     </g>
    </g>
    <g id="xtick_2">
     <g id="line2d_2">
      <g>
       <use xlink:href="#m7ad6c5c715" x="170.155023" y="386.51476" style="stroke: #000000; stroke-width: 0.8"/>
      </g>
     </g>
     <g id="text_2">
      <!-- 1000 -->
      <g transform="translate(149.795023 405.67226)scale(0.16 -0.16)">
       <defs>
        <path id="DejaVuSans-31" d="M 794 531 
L 1825 531 
L 1825 4091 
L 703 3866 
L 703 4441 
L 1819 4666 
L 2450 4666 
L 2450 531 
L 3481 531 
L 3481 0 
L 794 0 
L 794 531 
z
" transform="scale(0.015625)"/>
       </defs>
       <use xlink:href="#DejaVuSans-31"/>
       <use xlink:href="#DejaVuSans-30" x="63.623047"/>
       <use xlink:href="#DejaVuSans-30" x="127.246094"/>
       <use xlink:href="#DejaVuSans-30" x="190.869141"/>
      </g>
     </g>
    </g>
    <g id="xtick_3">
     <g id="line2d_3">
      <g>
       <use xlink:href="#m7ad6c5c715" x="276.22589" y="386.51476" style="stroke: #000000; stroke-width: 0.8"/>
      </g>
     </g>
     <g id="text_3">
      <!-- 2000 -->
      <g transform="translate(255.86589 405.67226)scale(0.16 -0.16)">
       <defs>
        <path id="DejaVuSans-32" d="M 1228 531 
L 3431 531 
L 3431 0 
L 469 0 
L 469 531 
Q 828 903 1448 1529 
Q 2069 2156 2228 2338 
Q 2531 2678 2651 2914 
Q 2772 3150 2772 3378 
Q 2772 3750 2511 3984 
Q 2250 4219 1831 4219 
Q 1534 4219 1204 4116 
Q 875 4013 500 3803 
L 500 4441 
Q 881 4594 1212 4672 
Q 1544 4750 1819 4750 
Q 2544 4750 2975 4387 
Q 3406 4025 3406 3419 
Q 3406 3131 3298 2873 
Q 3191 2616 2906 2266 
Q 2828 2175 2409 1742 
Q 1991 1309 1228 531 
z
" transform="scale(0.015625)"/>
       </defs>
       <use xlink:href="#DejaVuSans-32"/>
       <use xlink:href="#DejaVuSans-30" x="63.623047"/>
       <use xlink:href="#DejaVuSans-30" x="127.246094"/>
       <use xlink:href="#DejaVuSans-30" x="190.869141"/>
      </g>
     </g>
    </g>
    <g id="xtick_4">
     <g id="line2d_4">
      <g>
       <use xlink:href="#m7ad6c5c715" x="382.296757" y="386.51476" style="stroke: #000000; stroke-width: 0.8"/>
      </g>
     </g>
     <g id="text_4">
      <!-- 3000 -->
      <g transform="translate(361.936757 405.67226)scale(0.16 -0.16)">
       <defs>
        <path id="DejaVuSans-33" d="M 2597 2516 
Q 3050 2419 3304 2112 
Q 3559 1806 3559 1356 
Q 3559 666 3084 287 
Q 2609 -91 1734 -91 
Q 1441 -91 1130 -33 
Q 819 25 488 141 
L 488 750 
Q 750 597 1062 519 
Q 1375 441 1716 441 
Q 2309 441 2620 675 
Q 2931 909 2931 1356 
Q 2931 1769 2642 2001 
Q 2353 2234 1838 2234 
L 1294 2234 
L 1294 2753 
L 1863 2753 
Q 2328 2753 2575 2939 
Q 2822 3125 2822 3475 
Q 2822 3834 2567 4026 
Q 2313 4219 1838 4219 
Q 1578 4219 1281 4162 
Q 984 4106 628 3988 
L 628 4550 
Q 988 4650 1302 4700 
Q 1616 4750 1894 4750 
Q 2613 4750 3031 4423 
Q 3450 4097 3450 3541 
Q 3450 3153 3228 2886 
Q 3006 2619 2597 2516 
z
" transform="scale(0.015625)"/>
       </defs>
       <use xlink:href="#DejaVuSans-33"/>
       <use xlink:href="#DejaVuSans-30" x="63.623047"/>
       <use xlink:href="#DejaVuSans-30" x="127.246094"/>
       <use xlink:href="#DejaVuSans-30" x="190.869141"/>
      </g>
     </g>
    </g>
    <g id="text_5">
     <!-- Raman shift / $cm^{-1}$ -->
     <g transform="translate(164.925 425.67226)scale(0.16 -0.16)">
      <defs>
       <path id="DejaVuSans-52" d="M 2841 2188 
Q 3044 2119 3236 1894 
Q 3428 1669 3622 1275 
L 4263 0 
L 3584 0 
L 2988 1197 
Q 2756 1666 2539 1819 
Q 2322 1972 1947 1972 
L 1259 1972 
L 1259 0 
L 628 0 
L 628 4666 
L 2053 4666 
Q 2853 4666 3247 4331 
Q 3641 3997 3641 3322 
Q 3641 2881 3436 2590 
Q 3231 2300 2841 2188 
z
M 1259 4147 
L 1259 2491 
L 2053 2491 
Q 2509 2491 2742 2702 
Q 2975 2913 2975 3322 
Q 2975 3731 2742 3939 
Q 2509 4147 2053 4147 
L 1259 4147 
z
" transform="scale(0.015625)"/>
       <path id="DejaVuSans-61" d="M 2194 1759 
Q 1497 1759 1228 1600 
Q 959 1441 959 1056 
Q 959 750 1161 570 
Q 1363 391 1709 391 
Q 2188 391 2477 730 
Q 2766 1069 2766 1631 
L 2766 1759 
L 2194 1759 
z
M 3341 1997 
L 3341 0 
L 2766 0 
L 2766 531 
Q 2569 213 2275 61 
Q 1981 -91 1556 -91 
Q 1019 -91 701 211 
Q 384 513 384 1019 
Q 384 1609 779 1909 
Q 1175 2209 1959 2209 
L 2766 2209 
L 2766 2266 
Q 2766 2663 2505 2880 
Q 2244 3097 1772 3097 
Q 1472 3097 1187 3025 
Q 903 2953 641 2809 
L 641 3341 
Q 956 3463 1253 3523 
Q 1550 3584 1831 3584 
Q 2591 3584 2966 3190 
Q 3341 2797 3341 1997 
z
" transform="scale(0.015625)"/>
       <path id="DejaVuSans-6d" d="M 3328 2828 
Q 3544 3216 3844 3400 
Q 4144 3584 4550 3584 
Q 5097 3584 5394 3201 
Q 5691 2819 5691 2113 
L 5691 0 
L 5113 0 
L 5113 2094 
Q 5113 2597 4934 2840 
Q 4756 3084 4391 3084 
Q 3944 3084 3684 2787 
Q 3425 2491 3425 1978 
L 3425 0 
L 2847 0 
L 2847 2094 
Q 2847 2600 2669 2842 
Q 2491 3084 2119 3084 
Q 1678 3084 1418 2786 
Q 1159 2488 1159 1978 
L 1159 0 
L 581 0 
L 581 3500 
L 1159 3500 
L 1159 2956 
Q 1356 3278 1631 3431 
Q 1906 3584 2284 3584 
Q 2666 3584 2933 3390 
Q 3200 3197 3328 2828 
z
" transform="scale(0.015625)"/>
       <path id="DejaVuSans-6e" d="M 3513 2113 
L 3513 0 
L 2938 0 
L 2938 2094 
Q 2938 2591 2744 2837 
Q 2550 3084 2163 3084 
Q 1697 3084 1428 2787 
Q 1159 2491 1159 1978 
L 1159 0 
L 581 0 
L 581 3500 
L 1159 3500 
L 1159 2956 
Q 1366 3272 1645 3428 
Q 1925 3584 2291 3584 
Q 2894 3584 3203 3211 
Q 3513 2838 3513 2113 
z
" transform="scale(0.015625)"/>
       <path id="DejaVuSans-20" transform="scale(0.015625)"/>
       <path id="DejaVuSans-73" d="M 2834 3397 
L 2834 2853 
Q 2591 2978 2328 3040 
Q 2066 3103 1784 3103 
Q 1356 3103 1142 2972 
Q 928 2841 928 2578 
Q 928 2378 1081 2264 
Q 1234 2150 1697 2047 
L 1894 2003 
Q 2506 1872 2764 1633 
Q 3022 1394 3022 966 
Q 3022 478 2636 193 
Q 2250 -91 1575 -91 
Q 1294 -91 989 -36 
Q 684 19 347 128 
L 347 722 
Q 666 556 975 473 
Q 1284 391 1588 391 
Q 1994 391 2212 530 
Q 2431 669 2431 922 
Q 2431 1156 2273 1281 
Q 2116 1406 1581 1522 
L 1381 1569 
Q 847 1681 609 1914 
Q 372 2147 372 2553 
Q 372 3047 722 3315 
Q 1072 3584 1716 3584 
Q 2034 3584 2315 3537 
Q 2597 3491 2834 3397 
z
" transform="scale(0.015625)"/>
       <path id="DejaVuSans-68" d="M 3513 2113 
L 3513 0 
L 2938 0 
L 2938 2094 
Q 2938 2591 2744 2837 
Q 2550 3084 2163 3084 
Q 1697 3084 1428 2787 
Q 1159 2491 1159 1978 
L 1159 0 
L 581 0 
L 581 4863 
L 1159 4863 
L 1159 2956 
Q 1366 3272 1645 3428 
Q 1925 3584 2291 3584 
Q 2894 3584 3203 3211 
Q 3513 2838 3513 2113 
z
" transform="scale(0.015625)"/>
       <path id="DejaVuSans-69" d="M 603 3500 
L 1178 3500 
L 1178 0 
L 603 0 
L 603 3500 
z
M 603 4863 
L 1178 4863 
L 1178 4134 
L 603 4134 
L 603 4863 
z
" transform="scale(0.015625)"/>
       <path id="DejaVuSans-66" d="M 2375 4863 
L 2375 4384 
L 1825 4384 
Q 1516 4384 1395 4259 
Q 1275 4134 1275 3809 
L 1275 3500 
L 2222 3500 
L 2222 3053 
L 1275 3053 
L 1275 0 
L 697 0 
L 697 3053 
L 147 3053 
L 147 3500 
L 697 3500 
L 697 3744 
Q 697 4328 969 4595 
Q 1241 4863 1831 4863 
L 2375 4863 
z
" transform="scale(0.015625)"/>
       <path id="DejaVuSans-74" d="M 1172 4494 
L 1172 3500 
L 2356 3500 
L 2356 3053 
L 1172 3053 
L 1172 1153 
Q 1172 725 1289 603 
Q 1406 481 1766 481 
L 2356 481 
L 2356 0 
L 1766 0 
Q 1100 0 847 248 
Q 594 497 594 1153 
L 594 3053 
L 172 3053 
L 172 3500 
L 594 3500 
L 594 4494 
L 1172 4494 
z
" transform="scale(0.015625)"/>
       <path id="DejaVuSans-2f" d="M 1625 4666 
L 2156 4666 
L 531 -594 
L 0 -594 
L 1625 4666 
z
" transform="scale(0.015625)"/>
       <path id="DejaVuSans-Oblique-63" d="M 3431 3366 
L 3316 2797 
Q 3109 2947 2876 3022 
Q 2644 3097 2394 3097 
Q 2119 3097 1870 3000 
Q 1622 2903 1453 2725 
Q 1184 2453 1037 2087 
Q 891 1722 891 1331 
Q 891 859 1127 628 
Q 1363 397 1844 397 
Q 2081 397 2348 469 
Q 2616 541 2906 684 
L 2797 116 
Q 2547 13 2283 -39 
Q 2019 -91 1741 -91 
Q 1044 -91 669 257 
Q 294 606 294 1253 
Q 294 1797 489 2255 
Q 684 2713 1069 3078 
Q 1331 3328 1684 3456 
Q 2038 3584 2456 3584 
Q 2700 3584 2940 3529 
Q 3181 3475 3431 3366 
z
" transform="scale(0.015625)"/>
       <path id="DejaVuSans-Oblique-6d" d="M 5747 2113 
L 5338 0 
L 4763 0 
L 5166 2094 
Q 5191 2228 5203 2325 
Q 5216 2422 5216 2491 
Q 5216 2772 5059 2928 
Q 4903 3084 4622 3084 
Q 4203 3084 3875 2770 
Q 3547 2456 3450 1953 
L 3066 0 
L 2491 0 
L 2900 2094 
Q 2925 2209 2937 2307 
Q 2950 2406 2950 2484 
Q 2950 2769 2794 2926 
Q 2638 3084 2363 3084 
Q 1938 3084 1609 2770 
Q 1281 2456 1184 1953 
L 800 0 
L 225 0 
L 909 3500 
L 1484 3500 
L 1375 2956 
Q 1609 3263 1923 3423 
Q 2238 3584 2597 3584 
Q 2978 3584 3223 3384 
Q 3469 3184 3519 2828 
Q 3781 3197 4126 3390 
Q 4472 3584 4856 3584 
Q 5306 3584 5551 3325 
Q 5797 3066 5797 2591 
Q 5797 2488 5784 2364 
Q 5772 2241 5747 2113 
z
" transform="scale(0.015625)"/>
       <path id="DejaVuSans-2212" d="M 678 2272 
L 4684 2272 
L 4684 1741 
L 678 1741 
L 678 2272 
z
" transform="scale(0.015625)"/>
      </defs>
      <use xlink:href="#DejaVuSans-52" transform="translate(0 0.684375)"/>
      <use xlink:href="#DejaVuSans-61" transform="translate(69.482422 0.684375)"/>
      <use xlink:href="#DejaVuSans-6d" transform="translate(130.761719 0.684375)"/>
      <use xlink:href="#DejaVuSans-61" transform="translate(228.173828 0.684375)"/>
      <use xlink:href="#DejaVuSans-6e" transform="translate(289.453125 0.684375)"/>
      <use xlink:href="#DejaVuSans-20" transform="translate(352.832031 0.684375)"/>
      <use xlink:href="#DejaVuSans-73" transform="translate(384.619141 0.684375)"/>
      <use xlink:href="#DejaVuSans-68" transform="translate(436.71875 0.684375)"/>
      <use xlink:href="#DejaVuSans-69" transform="translate(500.097656 0.684375)"/>
      <use xlink:href="#DejaVuSans-66" transform="translate(527.880859 0.684375)"/>
      <use xlink:href="#DejaVuSans-74" transform="translate(563.085938 0.684375)"/>
      <use xlink:href="#DejaVuSans-20" transform="translate(602.294922 0.684375)"/>
      <use xlink:href="#DejaVuSans-2f" transform="translate(634.082031 0.684375)"/>
      <use xlink:href="#DejaVuSans-20" transform="translate(667.773438 0.684375)"/>
      <use xlink:href="#DejaVuSans-Oblique-63" transform="translate(699.560547 0.684375)"/>
      <use xlink:href="#DejaVuSans-Oblique-6d" transform="translate(754.541016 0.684375)"/>
      <use xlink:href="#DejaVuSans-2212" transform="translate(856.603021 38.965625)scale(0.7)"/>
      <use xlink:href="#DejaVuSans-31" transform="translate(915.255365 38.965625)scale(0.7)"/>
     </g>
    </g>
   </g>
   <g id="matplotlib.axis_2">
    <g id="ytick_1">
     <g id="line2d_5">
      <defs>
       <path id="mea4fc6c430" d="M 0 0 
L -3.5 0 
" style="stroke: #000000; stroke-width: 0.8"/>
      </defs>
      <g>
       <use xlink:href="#mea4fc6c430" x="54.93024" y="370.349312" style="stroke: #000000; stroke-width: 0.8"/>
      </g>
     </g>
     <g id="text_6">
      <!-- 0.0 -->
      <g transform="translate(22.48524 376.428062)scale(0.16 -0.16)">
       <defs>
        <path id="DejaVuSans-2e" d="M 684 794 
L 1344 794 
L 1344 0 
L 684 0 
L 684 794 
z
" transform="scale(0.015625)"/>
       </defs>
       <use xlink:href="#DejaVuSans-30"/>
       <use xlink:href="#DejaVuSans-2e" x="63.623047"/>
       <use xlink:href="#DejaVuSans-30" x="95.410156"/>
      </g>
     </g>
    </g>
    <g id="ytick_2">
     <g id="line2d_6">
      <g>
       <use xlink:href="#mea4fc6c430" x="54.93024" y="301.321408" style="stroke: #000000; stroke-width: 0.8"/>
      </g>
     </g>
     <g id="text_7">
      <!-- 0.2 -->
      <g transform="translate(22.48524 307.400158)scale(0.16 -0.16)">
       <use xlink:href="#DejaVuSans-30"/>
       <use xlink:href="#DejaVuSans-2e" x="63.623047"/>
       <use xlink:href="#DejaVuSans-32" x="95.410156"/>
      </g>
     </g>
    </g>
    <g id="ytick_3">
     <g id="line2d_7">
      <g>
       <use xlink:href="#mea4fc6c430" x="54.93024" y="232.293504" style="stroke: #000000; stroke-width: 0.8"/>
      </g>
     </g>
     <g id="text_8">
      <!-- 0.4 -->
      <g transform="translate(22.48524 238.372254)scale(0.16 -0.16)">
       <defs>
        <path id="DejaVuSans-34" d="M 2419 4116 
L 825 1625 
L 2419 1625 
L 2419 4116 
z
M 2253 4666 
L 3047 4666 
L 3047 1625 
L 3713 1625 
L 3713 1100 
L 3047 1100 
L 3047 0 
L 2419 0 
L 2419 1100 
L 313 1100 
L 313 1709 
L 2253 4666 
z
" transform="scale(0.015625)"/>
       </defs>
       <use xlink:href="#DejaVuSans-30"/>
       <use xlink:href="#DejaVuSans-2e" x="63.623047"/>
       <use xlink:href="#DejaVuSans-34" x="95.410156"/>
      </g>
     </g>
    </g>
    <g id="ytick_4">
     <g id="line2d_8">
      <g>
       <use xlink:href="#mea4fc6c430" x="54.93024" y="163.265599" style="stroke: #000000; stroke-width: 0.8"/>
      </g>
     </g>
     <g id="text_9">
      <!-- 0.6 -->
      <g transform="translate(22.48524 169.344349)scale(0.16 -0.16)">
       <defs>
        <path id="DejaVuSans-36" d="M 2113 2584 
Q 1688 2584 1439 2293 
Q 1191 2003 1191 1497 
Q 1191 994 1439 701 
Q 1688 409 2113 409 
Q 2538 409 2786 701 
Q 3034 994 3034 1497 
Q 3034 2003 2786 2293 
Q 2538 2584 2113 2584 
z
M 3366 4563 
L 3366 3988 
Q 3128 4100 2886 4159 
Q 2644 4219 2406 4219 
Q 1781 4219 1451 3797 
Q 1122 3375 1075 2522 
Q 1259 2794 1537 2939 
Q 1816 3084 2150 3084 
Q 2853 3084 3261 2657 
Q 3669 2231 3669 1497 
Q 3669 778 3244 343 
Q 2819 -91 2113 -91 
Q 1303 -91 875 529 
Q 447 1150 447 2328 
Q 447 3434 972 4092 
Q 1497 4750 2381 4750 
Q 2619 4750 2861 4703 
Q 3103 4656 3366 4563 
z
" transform="scale(0.015625)"/>
       </defs>
       <use xlink:href="#DejaVuSans-30"/>
       <use xlink:href="#DejaVuSans-2e" x="63.623047"/>
       <use xlink:href="#DejaVuSans-36" x="95.410156"/>
      </g>
     </g>
    </g>
    <g id="ytick_5">
     <g id="line2d_9">
      <g>
       <use xlink:href="#mea4fc6c430" x="54.93024" y="94.237695" style="stroke: #000000; stroke-width: 0.8"/>
      </g>
     </g>
     <g id="text_10">
      <!-- 0.8 -->
      <g transform="translate(22.48524 100.316445)scale(0.16 -0.16)">
       <defs>
        <path id="DejaVuSans-38" d="M 2034 2216 
Q 1584 2216 1326 1975 
Q 1069 1734 1069 1313 
Q 1069 891 1326 650 
Q 1584 409 2034 409 
Q 2484 409 2743 651 
Q 3003 894 3003 1313 
Q 3003 1734 2745 1975 
Q 2488 2216 2034 2216 
z
M 1403 2484 
Q 997 2584 770 2862 
Q 544 3141 544 3541 
Q 544 4100 942 4425 
Q 1341 4750 2034 4750 
Q 2731 4750 3128 4425 
Q 3525 4100 3525 3541 
Q 3525 3141 3298 2862 
Q 3072 2584 2669 2484 
Q 3125 2378 3379 2068 
Q 3634 1759 3634 1313 
Q 3634 634 3220 271 
Q 2806 -91 2034 -91 
Q 1263 -91 848 271 
Q 434 634 434 1313 
Q 434 1759 690 2068 
Q 947 2378 1403 2484 
z
M 1172 3481 
Q 1172 3119 1398 2916 
Q 1625 2713 2034 2713 
Q 2441 2713 2670 2916 
Q 2900 3119 2900 3481 
Q 2900 3844 2670 4047 
Q 2441 4250 2034 4250 
Q 1625 4250 1398 4047 
Q 1172 3844 1172 3481 
z
" transform="scale(0.015625)"/>
       </defs>
       <use xlink:href="#DejaVuSans-30"/>
       <use xlink:href="#DejaVuSans-2e" x="63.623047"/>
       <use xlink:href="#DejaVuSans-38" x="95.410156"/>
      </g>
     </g>
    </g>
    <g id="ytick_6">
     <g id="line2d_10">
      <g>
       <use xlink:href="#mea4fc6c430" x="54.93024" y="25.209791" style="stroke: #000000; stroke-width: 0.8"/>
      </g>
     </g>
     <g id="text_11">
      <!-- 1.0 -->
      <g transform="translate(22.48524 31.288541)scale(0.16 -0.16)">
       <use xlink:href="#DejaVuSans-31"/>
       <use xlink:href="#DejaVuSans-2e" x="63.623047"/>
       <use xlink:href="#DejaVuSans-30" x="95.410156"/>
      </g>
     </g>
    </g>
    <g id="text_12">
     <!-- Intensity / a.u -->
     <g transform="translate(15.15774 257.431562)rotate(-90)scale(0.16 -0.16)">
      <defs>
       <path id="DejaVuSans-49" d="M 628 4666 
L 1259 4666 
L 1259 0 
L 628 0 
L 628 4666 
z
" transform="scale(0.015625)"/>
       <path id="DejaVuSans-65" d="M 3597 1894 
L 3597 1613 
L 953 1613 
Q 991 1019 1311 708 
Q 1631 397 2203 397 
Q 2534 397 2845 478 
Q 3156 559 3463 722 
L 3463 178 
Q 3153 47 2828 -22 
Q 2503 -91 2169 -91 
Q 1331 -91 842 396 
Q 353 884 353 1716 
Q 353 2575 817 3079 
Q 1281 3584 2069 3584 
Q 2775 3584 3186 3129 
Q 3597 2675 3597 1894 
z
M 3022 2063 
Q 3016 2534 2758 2815 
Q 2500 3097 2075 3097 
Q 1594 3097 1305 2825 
Q 1016 2553 972 2059 
L 3022 2063 
z
" transform="scale(0.015625)"/>
       <path id="DejaVuSans-79" d="M 2059 -325 
Q 1816 -950 1584 -1140 
Q 1353 -1331 966 -1331 
L 506 -1331 
L 506 -850 
L 844 -850 
Q 1081 -850 1212 -737 
Q 1344 -625 1503 -206 
L 1606 56 
L 191 3500 
L 800 3500 
L 1894 763 
L 2988 3500 
L 3597 3500 
L 2059 -325 
z
" transform="scale(0.015625)"/>
       <path id="DejaVuSans-75" d="M 544 1381 
L 544 3500 
L 1119 3500 
L 1119 1403 
Q 1119 906 1312 657 
Q 1506 409 1894 409 
Q 2359 409 2629 706 
Q 2900 1003 2900 1516 
L 2900 3500 
L 3475 3500 
L 3475 0 
L 2900 0 
L 2900 538 
Q 2691 219 2414 64 
Q 2138 -91 1772 -91 
Q 1169 -91 856 284 
Q 544 659 544 1381 
z
M 1991 3584 
L 1991 3584 
z
" transform="scale(0.015625)"/>
      </defs>
      <use xlink:href="#DejaVuSans-49"/>
      <use xlink:href="#DejaVuSans-6e" x="29.492188"/>
      <use xlink:href="#DejaVuSans-74" x="92.871094"/>
      <use xlink:href="#DejaVuSans-65" x="132.080078"/>
      <use xlink:href="#DejaVuSans-6e" x="193.603516"/>
      <use xlink:href="#DejaVuSans-73" x="256.982422"/>
      <use xlink:href="#DejaVuSans-69" x="309.082031"/>
      <use xlink:href="#DejaVuSans-74" x="336.865234"/>
      <use xlink:href="#DejaVuSans-79" x="376.074219"/>
      <use xlink:href="#DejaVuSans-20" x="435.253906"/>
      <use xlink:href="#DejaVuSans-2f" x="467.041016"/>
      <use xlink:href="#DejaVuSans-20" x="500.732422"/>
      <use xlink:href="#DejaVuSans-61" x="532.519531"/>
      <use xlink:href="#DejaVuSans-2e" x="593.798828"/>
      <use xlink:href="#DejaVuSans-75" x="625.585938"/>
     </g>
    </g>
   </g>
   <g id="line2d_11">
    <path d="M 71.9334 358.890735 
L 72.463754 353.151118 
L 72.888038 350.61501 
L 73.10018 350.125714 
L 73.312321 350.146781 
L 73.524463 350.575679 
L 74.797313 354.031316 
L 75.433739 354.573445 
L 75.964093 355.937678 
L 76.81266 357.921584 
L 77.236943 358.398085 
L 77.873369 358.803628 
L 79.146219 359.271814 
L 79.782644 359.995371 
L 80.312999 360.162409 
L 80.737282 360.455217 
L 81.585849 360.356808 
L 81.797991 360.188517 
L 82.434416 359.293011 
L 82.646558 359.501711 
L 83.176912 360.333481 
L 83.389054 360.288964 
L 84.025479 359.665294 
L 84.237621 359.886605 
L 84.980117 361.132983 
L 85.298329 361.219713 
L 85.510471 361.057528 
L 85.934754 360.249084 
L 86.57118 359.017104 
L 86.677251 358.97167 
L 86.889392 359.261709 
L 87.207605 360.498827 
L 87.631888 362.210925 
L 87.950101 362.812321 
L 88.268314 363.027864 
L 88.480455 362.857175 
L 88.798668 361.905694 
L 89.541164 359.123648 
L 90.28366 357.793724 
L 90.707943 356.578337 
L 90.814014 356.554543 
L 90.920085 356.685076 
L 91.132227 357.442046 
L 91.874723 360.57196 
L 92.086865 360.764028 
L 92.299006 360.60106 
L 92.511148 360.020477 
L 92.829361 358.343565 
L 93.677928 352.394224 
L 93.890069 352.230871 
L 94.102211 352.83464 
L 94.950778 356.705843 
L 95.16292 356.789921 
L 95.375062 356.578729 
L 95.587203 355.903233 
L 95.905416 353.612094 
L 96.223629 351.180915 
L 96.329699 350.904104 
L 96.43577 351.105087 
L 96.647912 352.890392 
L 97.496479 363.122871 
L 97.814692 364.304571 
L 98.132904 364.631719 
L 98.238975 364.542687 
L 98.451117 363.882367 
L 98.663259 362.412318 
L 99.193613 357.948309 
L 99.299684 357.912555 
L 99.405755 358.288082 
L 99.723967 361.408697 
L 100.148251 365.247482 
L 100.466463 366.1861 
L 100.784676 366.30681 
L 101.421101 366.331115 
L 102.693951 366.510447 
L 103.860731 366.271895 
L 104.285014 366.369571 
L 104.709298 366.164457 
L 105.027511 366.08617 
L 106.618574 366.29657 
L 106.936786 366.06263 
L 107.254999 365.465865 
L 108.315707 362.902995 
L 108.527849 363.158677 
L 108.952133 364.404225 
L 109.482487 365.805478 
L 110.224983 366.892735 
L 110.755337 367.396746 
L 110.967479 367.402918 
L 111.391763 367.086245 
L 111.816046 366.843672 
L 112.134259 366.943385 
L 112.982826 367.617365 
L 113.51318 367.568849 
L 114.043534 367.619735 
L 114.467818 367.650605 
L 115.210314 368.042056 
L 115.634597 368.139141 
L 116.164952 368.33237 
L 117.22566 368.313723 
L 118.922794 368.505983 
L 119.66529 368.169977 
L 119.983503 368.470102 
L 120.301715 368.724355 
L 120.619928 368.577003 
L 121.044211 368.317736 
L 121.998849 368.166133 
L 122.529204 368.084254 
L 123.908125 367.648715 
L 124.438479 367.92261 
L 124.756692 367.978938 
L 125.074904 367.787142 
L 126.241684 366.900698 
L 126.559897 366.787358 
L 127.196322 366.311265 
L 127.938818 366.21234 
L 128.575243 365.805361 
L 129.317739 364.914361 
L 129.848093 364.839559 
L 130.69666 364.019229 
L 131.014873 363.90001 
L 131.333086 363.460453 
L 131.969511 362.309142 
L 132.393794 361.952747 
L 133.560574 359.718583 
L 133.984857 358.797633 
L 134.515212 358.057987 
L 134.939495 357.357775 
L 135.257708 357.304782 
L 135.681991 357.230472 
L 136.000204 357.224826 
L 136.318416 357.543054 
L 137.379125 359.266581 
L 137.909479 360.230385 
L 138.121621 360.313579 
L 138.864117 360.2104 
L 140.45518 361.071032 
L 141.62196 362.801693 
L 141.940172 363.033049 
L 143.425164 363.355443 
L 143.849448 363.56484 
L 144.273731 363.466451 
L 145.122298 363.189898 
L 145.546582 363.429429 
L 145.864794 363.537548 
L 147.137645 363.414893 
L 147.667999 363.23969 
L 148.622637 363.110676 
L 148.94085 362.75461 
L 149.577275 361.98996 
L 150.107629 361.547337 
L 150.531913 360.91501 
L 151.592621 358.623893 
L 152.229046 356.956576 
L 153.077613 355.617709 
L 153.289755 355.68975 
L 154.138322 356.47307 
L 155.941527 355.801344 
L 156.259739 355.765323 
L 156.790094 355.603674 
L 157.850802 355.889607 
L 158.381157 356.545565 
L 158.699369 356.806773 
L 159.017582 356.683454 
L 159.229724 356.649791 
L 159.441865 356.874955 
L 160.184361 358.041778 
L 160.608645 358.464707 
L 161.563283 360.280152 
L 162.093637 361.141595 
L 162.730062 361.941725 
L 163.896842 363.801829 
L 164.321125 363.949059 
L 164.639338 364.112126 
L 165.381834 364.71638 
L 165.700047 364.90593 
L 166.230401 365.366805 
L 166.654684 365.280613 
L 167.078968 365.298876 
L 167.39718 365.544744 
L 167.821464 365.971872 
L 168.033606 365.944843 
L 168.56396 365.681006 
L 169.094314 365.837831 
L 169.730739 365.496587 
L 170.261094 365.709069 
L 170.579306 365.427462 
L 173.125007 362.074563 
L 173.973574 360.656784 
L 174.185716 360.584925 
L 174.503929 360.817338 
L 174.928212 361.38809 
L 175.88285 363.126802 
L 176.201062 363.755462 
L 176.625346 364.65518 
L 176.837488 364.679287 
L 177.1557 364.556598 
L 177.367842 364.728897 
L 178.004267 365.553924 
L 178.32248 365.57845 
L 178.958905 365.531273 
L 180.019614 365.954258 
L 180.337826 366.145641 
L 180.656039 366.046939 
L 181.186393 365.671608 
L 181.504606 365.729652 
L 182.777456 366.223173 
L 183.095669 366.21048 
L 183.519952 366.103527 
L 184.792803 366.472019 
L 185.429228 366.35156 
L 185.853511 366.489383 
L 186.91422 366.196659 
L 187.232433 366.347917 
L 187.444574 366.15927 
L 187.868858 365.542699 
L 188.505283 365.458747 
L 189.035637 364.992667 
L 189.565992 364.796664 
L 190.308488 364.137239 
L 190.838842 364.354446 
L 191.157055 363.999579 
L 191.581338 363.476655 
L 191.899551 363.431549 
L 192.217763 363.436228 
L 193.702755 362.679968 
L 194.339181 361.892884 
L 194.975606 361.693815 
L 196.990952 359.087465 
L 197.521307 357.985147 
L 198.051661 357.266083 
L 199.11237 354.030327 
L 201.339858 345.003844 
L 201.65807 344.647532 
L 201.870212 344.631622 
L 202.082354 344.909467 
L 202.400567 345.867303 
L 203.461275 349.683265 
L 203.99163 351.099119 
L 205.900905 355.983611 
L 206.325189 356.462203 
L 206.749472 357.022757 
L 207.067685 357.327299 
L 207.491968 357.301408 
L 207.70411 357.573327 
L 208.234464 358.472632 
L 210.249811 360.093795 
L 210.780165 359.820473 
L 211.522661 359.918423 
L 211.946945 359.74882 
L 212.265157 359.95088 
L 212.58337 360.132124 
L 213.644078 360.017125 
L 214.174433 359.785817 
L 214.810858 359.2011 
L 215.129071 359.236405 
L 215.341212 359.017578 
L 216.083708 357.829583 
L 216.507992 357.381702 
L 217.356559 356.035672 
L 217.992984 354.326272 
L 218.417267 353.326169 
L 219.90226 348.521173 
L 220.538685 344.807226 
L 221.599394 336.95481 
L 222.44796 329.190533 
L 222.978315 322.664372 
L 224.251165 302.679784 
L 224.78152 291.434005 
L 226.266512 254.228123 
L 226.584724 251.863415 
L 226.796866 251.53935 
L 226.902937 251.67718 
L 227.115079 252.617442 
L 227.751504 256.6402 
L 227.857575 256.603933 
L 228.069716 255.415656 
L 228.281858 252.524849 
L 228.600071 244.811709 
L 229.024354 227.329888 
L 229.448638 198.809525 
L 230.085063 135.479118 
L 230.827559 62.427602 
L 231.145772 46.171743 
L 231.357913 42.48615 
L 231.463984 42.797701 
L 231.676126 47.545004 
L 231.994338 62.866533 
L 232.418622 95.264883 
L 234.221827 254.247132 
L 234.858252 284.810797 
L 235.494677 305.250516 
L 236.131102 318.632213 
L 236.661457 326.219826 
L 237.403953 332.795634 
L 237.828236 334.642056 
L 238.464661 336.604663 
L 238.888945 337.121346 
L 239.101087 337.127702 
L 239.52537 336.784011 
L 239.949654 336.172894 
L 240.373937 335.611456 
L 240.586079 335.66124 
L 241.010362 335.832248 
L 241.328575 335.954029 
L 242.283213 337.135645 
L 242.707496 338.117188 
L 243.449992 338.76751 
L 243.768205 339.156368 
L 244.616772 340.931276 
L 245.465339 343.092136 
L 245.783551 343.917904 
L 246.950331 347.410411 
L 248.223181 350.765878 
L 248.647465 351.487418 
L 248.965677 352.151428 
L 249.389961 353.056008 
L 249.814244 353.398249 
L 250.55674 354.988629 
L 250.874953 355.429884 
L 251.511378 356.396749 
L 252.147803 357.559877 
L 252.784228 358.835754 
L 253.208512 358.89451 
L 253.632795 359.571596 
L 254.905646 361.221972 
L 255.117788 361.299518 
L 255.648142 361.061246 
L 256.072425 361.604344 
L 256.390638 361.848689 
L 256.920992 362.015611 
L 257.451347 362.428654 
L 258.193843 362.026058 
L 258.618126 362.249963 
L 258.830268 362.070823 
L 259.254551 361.588017 
L 259.572764 361.727168 
L 259.784906 361.746392 
L 260.209189 361.334016 
L 260.845614 360.876354 
L 261.48204 360.624363 
L 262.542748 358.995512 
L 263.073103 358.259604 
L 266.149158 352.588487 
L 266.785583 351.789428 
L 266.997725 351.816635 
L 267.315937 352.303867 
L 269.225213 356.730666 
L 269.967709 358.875465 
L 270.816276 360.883281 
L 271.134488 361.238183 
L 271.452701 361.519748 
L 272.195197 362.549333 
L 272.51341 362.857101 
L 273.043764 363.552915 
L 273.680189 363.560388 
L 274.95304 364.942985 
L 275.271252 365.387129 
L 276.544103 365.818656 
L 276.862315 365.948362 
L 277.710882 366.726388 
L 278.029095 366.728965 
L 278.66552 367.059952 
L 278.983733 367.07964 
L 279.301945 367.265348 
L 279.620158 367.045961 
L 279.8323 367.003445 
L 280.362654 367.303937 
L 280.786937 366.995777 
L 281.10515 367.289097 
L 281.635504 367.737769 
L 281.847646 367.744669 
L 282.378 367.207072 
L 282.908355 367.675553 
L 283.438709 367.232014 
L 283.862993 367.270914 
L 284.393347 367.121772 
L 285.029772 367.352858 
L 285.347985 367.387228 
L 286.090481 367.311235 
L 286.514764 367.438977 
L 286.832977 367.189417 
L 287.045119 367.058782 
L 287.363331 367.187735 
L 287.681544 367.283816 
L 289.590819 366.993848 
L 289.909032 366.911383 
L 290.545457 367.023664 
L 290.969741 366.764893 
L 291.394024 366.550766 
L 291.818308 366.269411 
L 292.13652 366.263385 
L 292.879016 366.526933 
L 293.621512 365.681435 
L 293.939725 365.781425 
L 294.257937 365.881084 
L 294.788292 365.552711 
L 295.212575 365.587711 
L 295.424717 365.602454 
L 295.74293 365.73035 
L 295.955071 365.515675 
L 296.273284 365.254191 
L 296.803638 365.568341 
L 297.227922 365.475964 
L 297.652205 365.474318 
L 298.500772 365.317063 
L 298.818985 365.325888 
L 299.45541 365.082564 
L 300.197906 365.47757 
L 300.940402 364.993492 
L 301.576827 364.837842 
L 301.89504 364.605991 
L 302.107182 364.729748 
L 302.425394 364.914768 
L 302.743607 364.499137 
L 303.061819 364.266752 
L 303.380032 364.146718 
L 303.804316 363.919217 
L 304.228599 363.782119 
L 305.395379 363.183785 
L 305.713591 363.230926 
L 305.925733 363.237004 
L 306.243945 362.837593 
L 306.456087 362.65989 
L 306.668229 362.767105 
L 306.986442 362.902471 
L 307.304654 362.540207 
L 307.622867 362.324288 
L 309.21393 362.470153 
L 309.956426 361.971016 
L 310.380709 361.95597 
L 310.804993 361.963185 
L 311.441418 361.56418 
L 311.865701 361.706009 
L 312.714268 360.914637 
L 313.032481 360.644384 
L 313.350694 360.420898 
L 313.668906 360.364789 
L 314.305331 359.738676 
L 314.941757 358.806168 
L 315.153898 358.744071 
L 315.896394 357.810593 
L 316.53282 357.117469 
L 317.911741 355.996657 
L 318.123883 355.958804 
L 318.866379 355.385309 
L 319.290662 355.422794 
L 319.821016 355.242562 
L 320.457442 354.492101 
L 320.987796 354.748524 
L 321.412079 354.430404 
L 322.154576 353.816671 
L 322.578859 353.561459 
L 323.109213 353.453397 
L 323.533497 353.144966 
L 323.851709 352.61762 
L 324.275993 351.915842 
L 324.700276 351.731193 
L 325.336702 350.818305 
L 325.760985 349.989852 
L 326.185268 349.821629 
L 327.352048 347.98626 
L 327.882402 347.064684 
L 328.306686 346.288874 
L 328.943111 345.08163 
L 329.685607 343.901254 
L 330.852387 341.09527 
L 331.807024 337.912861 
L 332.337379 335.224299 
L 333.610229 328.219834 
L 334.458796 321.845969 
L 336.049859 308.909407 
L 336.580213 306.051902 
L 337.32271 303.737084 
L 337.534851 303.744241 
L 337.959135 304.059432 
L 338.171276 304.66857 
L 339.231985 310.135904 
L 340.716977 321.586853 
L 341.247332 325.706808 
L 341.883757 329.727324 
L 342.520182 334.013684 
L 344.641599 345.425858 
L 345.278025 348.245958 
L 346.126592 351.165196 
L 346.656946 352.609454 
L 347.293371 353.864928 
L 348.141938 355.590411 
L 348.672292 356.037478 
L 350.263355 358.218761 
L 350.899781 358.682155 
L 351.430135 359.38945 
L 351.960489 359.852998 
L 352.384773 360.358929 
L 353.021198 360.36479 
L 354.081907 361.137195 
L 354.294048 361.260307 
L 354.612261 361.170994 
L 354.824403 361.428105 
L 355.142615 361.795571 
L 355.67297 361.971289 
L 355.991182 362.179193 
L 356.415466 362.581191 
L 356.839749 362.242343 
L 357.794387 362.726196 
L 358.324741 362.41228 
L 358.642954 362.550991 
L 359.915804 362.331972 
L 360.234017 362.400436 
L 360.446159 362.401321 
L 360.764371 362.734945 
L 360.976513 362.84194 
L 361.506867 362.627917 
L 361.719009 362.64953 
L 362.143292 362.476521 
L 362.567576 362.715643 
L 362.885789 362.574684 
L 363.416143 362.281756 
L 364.370781 362.449694 
L 365.219348 361.968135 
L 365.53756 361.659068 
L 366.386127 361.85645 
L 367.765048 362.246782 
L 368.189332 362.050387 
L 369.037899 362.169391 
L 369.356111 362.135912 
L 369.674324 362.33778 
L 370.310749 362.898863 
L 370.628962 362.70519 
L 370.947174 362.983122 
L 371.371458 363.210705 
L 371.68967 363.203233 
L 372.220025 362.685023 
L 373.280733 363.630926 
L 373.705017 363.624713 
L 374.235371 363.313231 
L 374.765726 363.804766 
L 375.29608 363.227403 
L 375.826434 363.67417 
L 376.144647 363.486733 
L 376.675001 363.955936 
L 377.205356 363.825561 
L 377.523568 363.944971 
L 377.947852 364.166761 
L 378.584277 364.214962 
L 379.220702 364.125502 
L 380.069269 364.418744 
L 380.387482 364.672542 
L 380.705694 364.482623 
L 381.129978 364.057066 
L 381.342119 364.155599 
L 381.660332 364.407707 
L 381.978545 364.301436 
L 382.296757 364.251682 
L 382.827112 364.250249 
L 383.145324 364.236119 
L 383.675678 364.494122 
L 384.312104 363.922438 
L 384.630316 364.144172 
L 384.842458 364.043477 
L 385.266741 363.767848 
L 385.691025 363.701992 
L 386.115308 363.477269 
L 386.32745 363.654204 
L 386.645663 363.930264 
L 387.176017 363.752714 
L 387.812442 362.999624 
L 388.130655 363.18944 
L 388.76708 363.109716 
L 389.085293 363.328433 
L 389.297434 363.114784 
L 389.615647 362.764431 
L 390.146001 363.095578 
L 390.464214 363.072077 
L 390.676356 363.069448 
L 391.418852 362.349628 
L 391.737064 362.204543 
L 392.47956 361.755898 
L 392.903844 361.670232 
L 393.222057 361.533762 
L 393.540269 361.722495 
L 394.070623 361.324221 
L 394.388836 361.53734 
L 394.707049 361.15138 
L 395.449545 360.461469 
L 396.192041 360.325059 
L 396.616324 360.027509 
L 396.934537 360.012311 
L 397.464891 360.315503 
L 397.995246 359.91828 
L 398.843812 359.977781 
L 399.055954 359.995072 
L 399.480238 360.197208 
L 399.79845 360.184064 
L 400.116663 360.492176 
L 400.434875 360.737631 
L 401.389513 360.80385 
L 401.601655 360.852892 
L 402.132009 361.54369 
L 402.344151 361.457908 
L 402.556293 361.653966 
L 402.874505 362.024968 
L 403.298789 361.980421 
L 403.723072 362.324594 
L 404.253427 362.013766 
L 404.571639 361.830153 
L 405.101994 362.263328 
L 405.314135 362.261328 
L 405.738419 362.409265 
L 405.950561 362.529166 
L 406.268773 362.783486 
L 406.480915 362.507434 
L 406.799128 362.043587 
L 407.011269 361.981949 
L 407.329482 362.182786 
L 407.647694 362.444067 
L 407.859836 362.333616 
L 408.178049 362.017018 
L 409.026616 362.188213 
L 409.450899 361.949327 
L 409.875183 362.193836 
L 410.299466 362.394867 
L 410.617679 362.594961 
L 410.935891 362.935208 
L 411.148033 362.800749 
L 411.466246 362.50642 
L 411.890529 362.779252 
L 411.9966 362.760902 
L 411.9966 362.760902 
" clip-path="url(#p86798ce902)" style="fill: none; stroke: #6f6f6f; stroke-width: 1.5; stroke-linecap: square"/>
   </g>
   <g id="line2d_12">
    <path d="M 71.9334 355.831783 
L 72.463754 352.213696 
L 72.888038 350.591878 
L 73.10018 350.28747 
L 73.312321 350.379732 
L 73.630534 351.06955 
L 74.691243 353.677653 
L 75.115526 354.293548 
L 75.539809 354.686226 
L 76.600518 356.318812 
L 77.555156 356.947705 
L 78.08551 357.15585 
L 79.782644 358.153324 
L 80.843353 357.953386 
L 81.161565 357.913495 
L 81.904062 358.125359 
L 82.540487 357.312378 
L 82.858699 357.583572 
L 83.070841 357.721641 
L 83.282983 357.611072 
L 83.707266 356.731408 
L 84.13155 356.006289 
L 84.343691 356.026635 
L 84.555833 356.29918 
L 85.192258 357.364442 
L 85.4044 357.377254 
L 85.722613 356.964441 
L 86.465109 355.228332 
L 86.783321 354.679683 
L 86.995463 354.751862 
L 87.207605 355.342635 
L 88.268314 359.544592 
L 88.480455 359.677801 
L 88.692597 359.592896 
L 89.01081 359.17468 
L 89.541164 357.995313 
L 90.28366 356.014792 
L 91.026156 353.122282 
L 91.132227 353.146608 
L 91.344369 353.654541 
L 92.299006 357.565539 
L 92.511148 357.494636 
L 92.72329 356.932781 
L 93.041503 354.944888 
L 93.890069 347.271534 
L 93.99614 347.263671 
L 94.208282 348.262407 
L 94.950778 353.68786 
L 95.16292 354.035633 
L 95.375062 354.066032 
L 95.587203 353.880409 
L 95.799345 353.318626 
L 96.43577 350.220773 
L 96.541841 350.279297 
L 96.753983 351.310866 
L 97.814692 360.156709 
L 98.026833 360.425565 
L 98.238975 360.354815 
L 98.451117 359.879258 
L 98.663259 358.786962 
L 99.405755 353.45105 
L 99.511825 353.685522 
L 99.723967 355.201249 
L 100.360392 360.677175 
L 100.678605 361.642996 
L 100.996818 362.01488 
L 101.31503 362.068464 
L 102.057526 361.782679 
L 103.648589 361.04301 
L 104.178944 360.549709 
L 104.497156 360.553235 
L 105.133581 360.965555 
L 105.663936 361.23036 
L 106.406432 361.246022 
L 106.936786 360.990156 
L 107.254999 360.561622 
L 107.573211 359.691059 
L 108.315707 357.408819 
L 108.527849 357.316709 
L 108.739991 357.642197 
L 109.270345 359.358414 
L 109.90677 361.103936 
L 110.331054 361.606042 
L 110.967479 361.966619 
L 111.497833 361.92636 
L 112.028188 361.851817 
L 115.210314 362.847814 
L 115.634597 363.025516 
L 116.377093 363.10068 
L 117.013519 363.661037 
L 117.756015 363.48197 
L 118.39244 363.808426 
L 118.922794 363.84193 
L 119.453148 363.998382 
L 121.150282 363.832931 
L 121.574566 363.78995 
L 122.741345 363.455902 
L 123.377771 363.266745 
L 124.014196 362.96406 
L 124.756692 362.9897 
L 126.241684 362.306352 
L 126.878109 362.334336 
L 128.469172 361.405316 
L 128.893456 361.341393 
L 129.317739 361.27122 
L 130.166306 360.796025 
L 130.484519 360.591258 
L 131.227015 359.906795 
L 131.651298 359.794515 
L 132.075582 359.686791 
L 132.499865 359.122753 
L 132.924149 358.685693 
L 133.454503 358.27889 
L 133.984857 357.504535 
L 134.939495 355.900868 
L 135.469849 355.937065 
L 136.318416 355.970888 
L 136.7427 356.316941 
L 137.591267 357.222528 
L 138.545905 357.851143 
L 139.18233 358.008749 
L 140.879464 358.81011 
L 141.62196 359.443387 
L 142.682668 359.91146 
L 143.106952 359.938992 
L 143.743377 360.137601 
L 144.379802 360.143501 
L 144.698015 360.13957 
L 145.228369 360.034518 
L 145.758724 360.321119 
L 146.076936 360.073997 
L 146.395149 359.867338 
L 146.819432 359.972476 
L 147.243716 359.992982 
L 147.561928 359.817202 
L 148.092283 359.428806 
L 148.728708 359.414175 
L 150.531913 357.566357 
L 151.592621 355.693695 
L 152.335117 353.229032 
L 152.759401 351.961777 
L 152.971542 351.841611 
L 153.183684 352.182105 
L 153.820109 353.4645 
L 154.138322 353.68648 
L 154.456535 353.628999 
L 154.986889 353.509834 
L 156.577952 353.524716 
L 157.214377 353.20336 
L 157.850802 353.481671 
L 158.911511 353.593141 
L 160.078291 354.883594 
L 160.714716 355.751247 
L 161.24507 356.540995 
L 162.199708 358.262581 
L 162.730062 359.028128 
L 163.260417 359.726352 
L 163.896842 360.496089 
L 164.427196 360.913089 
L 164.95755 361.216602 
L 165.700047 361.639077 
L 166.12433 361.703607 
L 166.548613 361.729201 
L 167.39718 362.179728 
L 167.821464 362.339291 
L 168.245747 362.437571 
L 168.670031 362.417514 
L 169.094314 362.446058 
L 169.730739 362.161075 
L 170.367165 362.176255 
L 170.897519 361.920769 
L 171.427873 361.538505 
L 171.852157 360.785316 
L 172.27644 360.057911 
L 172.700724 359.813088 
L 173.018936 359.525759 
L 173.655362 358.235145 
L 174.503929 356.657767 
L 174.71607 356.774428 
L 175.034283 357.335164 
L 176.094992 359.590319 
L 176.519275 360.054515 
L 177.049629 360.530995 
L 177.686055 361.035911 
L 178.216409 361.280978 
L 178.746763 361.406456 
L 179.171047 361.601755 
L 179.59533 361.461289 
L 180.019614 361.399814 
L 180.974251 361.57019 
L 181.292464 361.598228 
L 182.141031 361.978542 
L 182.777456 361.615373 
L 183.732094 361.732507 
L 184.47459 361.792176 
L 184.792803 362.042957 
L 185.111015 361.964584 
L 185.429228 361.934918 
L 185.959582 362.000082 
L 188.18707 360.93131 
L 188.505283 360.734684 
L 189.141708 360.791103 
L 189.884204 360.153501 
L 190.202417 359.952417 
L 190.838842 359.409045 
L 191.263126 358.956816 
L 191.581338 358.649995 
L 191.899551 358.661173 
L 192.429905 358.787169 
L 192.748118 358.512402 
L 193.172401 358.203205 
L 193.596685 358.113442 
L 193.914897 357.729848 
L 194.551322 356.907778 
L 195.187748 356.408195 
L 195.50596 356.164005 
L 196.248456 354.860301 
L 197.097023 353.482718 
L 197.309165 353.248479 
L 197.627378 352.490798 
L 198.794157 348.945914 
L 199.536653 345.260264 
L 201.233787 335.704804 
L 201.65807 334.791235 
L 201.870212 334.626537 
L 202.082354 334.808307 
L 202.400567 335.814478 
L 203.249133 339.773065 
L 203.99163 343.584236 
L 204.840197 346.773149 
L 205.476622 348.543056 
L 206.643401 350.926079 
L 207.598039 352.542837 
L 208.446606 354.020603 
L 209.295173 355.237259 
L 210.037669 355.952135 
L 211.840874 357.137646 
L 212.159086 357.173562 
L 212.58337 357.210872 
L 213.007653 357.303317 
L 213.431937 357.377395 
L 213.85622 357.486902 
L 214.492645 357.496337 
L 214.810858 357.404871 
L 215.235141 357.19422 
L 215.765496 357.225654 
L 216.189779 356.714306 
L 217.356559 355.462332 
L 217.674771 355.400854 
L 217.886913 355.025643 
L 218.523338 353.583684 
L 218.947622 353.018432 
L 219.477976 351.562546 
L 220.008331 350.430082 
L 220.326543 349.571799 
L 221.493323 344.851104 
L 222.34189 339.276892 
L 223.190457 332.63222 
L 223.932953 324.442861 
L 224.993661 307.453702 
L 225.630086 293.647367 
L 226.796866 264.280011 
L 227.115079 261.487496 
L 227.32722 261.121821 
L 227.539362 262.052196 
L 227.857575 265.382375 
L 228.387929 271.415242 
L 228.600071 272.290989 
L 228.706142 272.032277 
L 228.918283 269.878605 
L 229.236496 262.066132 
L 229.660779 243.471233 
L 230.191134 206.556762 
L 230.721488 152.424866 
L 231.676126 46.082877 
L 231.888268 36.34656 
L 231.994338 34.863656 
L 232.100409 35.884156 
L 232.312551 44.558659 
L 232.630764 73.024494 
L 234.221827 246.182075 
L 234.858252 282.609546 
L 235.494677 305.18469 
L 236.131102 320.030262 
L 236.767528 329.312587 
L 237.297882 334.184358 
L 237.934307 337.748803 
L 238.464661 339.431846 
L 238.782874 339.833533 
L 238.995016 339.72742 
L 239.843583 338.477084 
L 240.161795 337.538645 
L 240.904291 335.062563 
L 241.116433 334.821554 
L 241.328575 334.842359 
L 241.646787 335.258561 
L 242.071071 336.542397 
L 242.495354 337.557508 
L 242.919638 338.388346 
L 243.449992 339.511867 
L 245.041055 341.085296 
L 245.571409 342.172964 
L 246.950331 346.145991 
L 247.480685 347.972295 
L 248.435323 349.937805 
L 249.071748 351.650275 
L 249.496032 352.313558 
L 250.026386 353.178928 
L 250.450669 353.877965 
L 251.193165 355.221178 
L 251.617449 355.71934 
L 252.147803 356.710345 
L 252.572087 357.164629 
L 253.420654 358.527129 
L 254.269221 359.743788 
L 255.011717 360.288083 
L 255.436 360.826077 
L 255.754213 360.882278 
L 256.178496 360.794563 
L 256.496709 361.127603 
L 256.708851 361.30426 
L 256.920992 361.25205 
L 257.345276 361.054391 
L 257.663488 361.187268 
L 258.087772 361.426809 
L 259.14848 361.424887 
L 259.678835 361.274321 
L 260.209189 361.032692 
L 260.527402 360.87255 
L 260.951685 360.651348 
L 261.48204 360.823788 
L 261.800252 360.48036 
L 262.648819 359.293648 
L 262.967032 359.141949 
L 263.285244 358.63049 
L 263.709528 357.989506 
L 264.239882 357.276275 
L 265.19452 355.499287 
L 266.46737 352.752613 
L 266.997725 352.147368 
L 267.422008 351.897951 
L 267.63415 352.026056 
L 268.376646 353.249394 
L 268.694859 354.258462 
L 269.225213 356.005302 
L 269.649496 357.344819 
L 270.179851 358.985699 
L 270.922347 360.384123 
L 271.34663 361.290376 
L 271.664843 361.499338 
L 272.195197 361.686659 
L 272.51341 362.065837 
L 272.937693 362.564339 
L 273.361977 362.669918 
L 273.892331 363.181444 
L 274.210544 363.16802 
L 274.528756 363.583387 
L 274.846969 363.866569 
L 275.271252 363.95947 
L 276.013748 364.635707 
L 276.331961 364.889765 
L 276.756244 365.269438 
L 277.074457 365.457696 
L 277.49874 365.84296 
L 277.923024 365.971765 
L 278.347307 366.268783 
L 278.983733 366.405804 
L 279.301945 366.462721 
L 279.726229 366.346264 
L 280.044441 366.668309 
L 280.256583 366.777285 
L 280.468725 366.558966 
L 280.786937 366.301545 
L 281.741575 366.788983 
L 282.165859 366.967772 
L 283.862993 366.891683 
L 284.711559 367.086483 
L 285.241914 367.128131 
L 286.408693 367.098375 
L 287.25726 367.166353 
L 287.893685 366.920072 
L 288.317969 366.894811 
L 288.954394 367.030401 
L 289.378678 366.979441 
L 289.802961 367.075065 
L 290.757599 366.872589 
L 291.287953 366.94859 
L 291.712237 366.710312 
L 292.030449 366.757489 
L 292.348662 366.48383 
L 292.772945 366.176795 
L 293.091158 366.193484 
L 293.621512 366.445768 
L 295.000434 366.099414 
L 295.318646 366.29176 
L 296.061142 366.188791 
L 296.273284 366.249998 
L 296.909709 366.08885 
L 297.333993 366.195642 
L 298.076489 365.862752 
L 298.500772 365.75168 
L 300.197906 366.238004 
L 300.72826 366.063445 
L 301.152544 366.048389 
L 302.107182 365.740637 
L 302.637536 365.675134 
L 303.061819 365.41787 
L 304.758953 365.567305 
L 305.395379 365.106929 
L 305.925733 364.943092 
L 306.243945 364.917638 
L 306.562158 365.000535 
L 307.410725 364.777894 
L 307.941079 364.943233 
L 308.365363 364.572201 
L 308.895717 364.555226 
L 309.21393 364.533614 
L 309.532142 364.567373 
L 310.804993 364.282453 
L 311.65356 364.221391 
L 312.396056 363.751479 
L 312.92641 363.794489 
L 313.138552 363.6481 
L 313.668906 362.967034 
L 314.09319 363.104921 
L 315.259969 361.646862 
L 315.684253 361.035537 
L 316.214607 360.967279 
L 317.381387 359.884419 
L 317.911741 359.546019 
L 318.229953 359.423871 
L 318.654237 359.544851 
L 319.07852 359.151335 
L 319.608875 359.223899 
L 320.139229 358.737706 
L 320.457442 358.793312 
L 320.881725 358.896049 
L 322.578859 358.384843 
L 323.215284 357.930426 
L 323.533497 357.824933 
L 324.806347 357.103284 
L 325.018489 356.927795 
L 325.867056 355.718643 
L 326.185268 355.654084 
L 326.503481 355.125215 
L 326.927765 354.448443 
L 327.245977 354.223707 
L 327.56419 354.038117 
L 328.306686 352.934812 
L 329.049182 352.084808 
L 329.367395 351.864457 
L 329.791678 351.240112 
L 330.109891 350.756217 
L 330.640245 350.363373 
L 332.44345 345.99454 
L 333.185946 343.063875 
L 334.564867 335.213826 
L 337.32271 314.266952 
L 337.746993 312.714252 
L 337.959135 312.385257 
L 338.171276 312.406381 
L 338.807702 313.260853 
L 339.019843 313.923473 
L 339.550198 316.939369 
L 340.398765 322.980842 
L 341.353402 329.729527 
L 342.944466 340.187272 
L 344.853741 349.829083 
L 345.278025 351.688196 
L 346.444804 356.051372 
L 347.1873 357.585754 
L 347.929796 359.264147 
L 349.520859 361.368846 
L 349.945143 361.405979 
L 351.854418 363.714279 
L 352.384773 363.992234 
L 352.809056 364.376765 
L 353.23334 364.543468 
L 353.657623 364.798391 
L 353.869765 364.90083 
L 354.294048 365.337585 
L 354.824403 365.361561 
L 355.354757 365.654505 
L 355.885111 365.886132 
L 356.309395 365.90509 
L 356.627607 366.080534 
L 357.264033 366.052978 
L 357.900458 366.354317 
L 358.324741 366.303642 
L 358.961166 366.539494 
L 359.597592 366.466446 
L 361.506867 366.728872 
L 362.143292 366.453239 
L 363.204001 366.473352 
L 363.522214 366.470211 
L 363.840426 366.437626 
L 364.476852 366.346676 
L 365.007206 366.348418 
L 365.325418 366.338433 
L 365.643631 366.353698 
L 366.280056 366.08165 
L 367.128623 366.129818 
L 367.658978 365.933894 
L 367.97719 366.075497 
L 368.401474 366.305843 
L 368.931828 366.16503 
L 369.462182 366.48359 
L 369.992537 366.62008 
L 370.522891 366.424604 
L 371.053245 366.6258 
L 372.113954 367.490132 
L 372.432167 367.36937 
L 372.644308 367.357758 
L 373.492875 367.885418 
L 374.02323 367.788767 
L 374.447513 368.123941 
L 374.977867 367.877703 
L 376.250718 368.368578 
L 376.56893 368.241628 
L 377.099285 368.565192 
L 377.73571 368.591291 
L 378.053923 368.759222 
L 378.266064 368.849649 
L 378.690348 368.836937 
L 379.114631 369.087554 
L 380.069269 368.813647 
L 380.599623 369.31162 
L 380.917836 369.202439 
L 381.44819 369.480611 
L 383.145324 369.127842 
L 383.675678 369.468427 
L 384.099962 369.238041 
L 384.418175 369.355821 
L 384.736387 369.432211 
L 384.948529 369.413901 
L 385.372812 369.769469 
L 385.903167 369.004728 
L 386.433521 369.377136 
L 387.49423 369.221182 
L 388.024584 369.21683 
L 388.342797 369.38391 
L 388.873151 369.117423 
L 389.297434 369.27847 
L 389.615647 369.113059 
L 389.93386 368.855605 
L 390.464214 369.032763 
L 390.676356 368.941842 
L 390.994568 369.013713 
L 391.737064 368.572823 
L 392.161348 368.366075 
L 392.797773 368.703958 
L 393.115986 368.420379 
L 393.540269 368.372611 
L 393.858482 368.133395 
L 394.282765 368.122575 
L 394.81312 367.509723 
L 395.343474 367.547372 
L 396.08597 367.163393 
L 396.404183 367.167396 
L 396.828466 366.913922 
L 397.146679 366.907691 
L 397.464891 366.852333 
L 397.677033 366.858809 
L 398.207387 366.465051 
L 398.5256 366.683574 
L 398.949883 366.498916 
L 399.480238 366.30951 
L 400.753088 366.722944 
L 401.177372 367.132641 
L 401.495584 367.098608 
L 401.919868 367.295102 
L 402.132009 367.432438 
L 402.556293 368.031215 
L 403.086647 367.839206 
L 403.40486 368.300341 
L 403.723072 368.642338 
L 403.935214 368.657784 
L 404.359498 368.490709 
L 404.995923 368.993995 
L 405.420206 368.899158 
L 406.374844 368.868713 
L 406.693057 369.025166 
L 407.859836 369.140112 
L 408.390191 369.267828 
L 409.026616 369.088727 
L 409.344828 369.341135 
L 409.55697 369.421085 
L 410.087324 369.358185 
L 411.041962 369.398108 
L 411.572317 369.52848 
L 411.890529 369.561663 
L 411.9966 369.648368 
L 411.9966 369.648368 
" clip-path="url(#p86798ce902)" style="fill: none; stroke: #008aba; stroke-width: 1.5; stroke-linecap: square"/>
   </g>
   <g id="patch_3">
    <path d="M 54.93024 386.51476 
L 54.93024 18.118365 
" style="fill: none; stroke: #000000; stroke-width: 0.8; stroke-linejoin: miter; stroke-linecap: square"/>
   </g>
   <g id="patch_4">
    <path d="M 428.99976 386.51476 
L 428.99976 18.118365 
" style="fill: none; stroke: #000000; stroke-width: 0.8; stroke-linejoin: miter; stroke-linecap: square"/>
   </g>
   <g id="patch_5">
    <path d="M 54.93024 386.51476 
L 428.99976 386.51476 
" style="fill: none; stroke: #000000; stroke-width: 0.8; stroke-linejoin: miter; stroke-linecap: square"/>
   </g>
   <g id="patch_6">
    <path d="M 54.93024 18.118365 
L 428.99976 18.118365 
" style="fill: none; stroke: #000000; stroke-width: 0.8; stroke-linejoin: miter; stroke-linecap: square"/>
   </g>
   <g id="text_13">
    <!-- Average spectra -->
    <g transform="translate(192.9975 12.118365)scale(0.12 -0.12)">
     <defs>
      <path id="DejaVuSans-41" d="M 2188 4044 
L 1331 1722 
L 3047 1722 
L 2188 4044 
z
M 1831 4666 
L 2547 4666 
L 4325 0 
L 3669 0 
L 3244 1197 
L 1141 1197 
L 716 0 
L 50 0 
L 1831 4666 
z
" transform="scale(0.015625)"/>
      <path id="DejaVuSans-76" d="M 191 3500 
L 800 3500 
L 1894 563 
L 2988 3500 
L 3597 3500 
L 2284 0 
L 1503 0 
L 191 3500 
z
" transform="scale(0.015625)"/>
      <path id="DejaVuSans-72" d="M 2631 2963 
Q 2534 3019 2420 3045 
Q 2306 3072 2169 3072 
Q 1681 3072 1420 2755 
Q 1159 2438 1159 1844 
L 1159 0 
L 581 0 
L 581 3500 
L 1159 3500 
L 1159 2956 
Q 1341 3275 1631 3429 
Q 1922 3584 2338 3584 
Q 2397 3584 2469 3576 
Q 2541 3569 2628 3553 
L 2631 2963 
z
" transform="scale(0.015625)"/>
      <path id="DejaVuSans-67" d="M 2906 1791 
Q 2906 2416 2648 2759 
Q 2391 3103 1925 3103 
Q 1463 3103 1205 2759 
Q 947 2416 947 1791 
Q 947 1169 1205 825 
Q 1463 481 1925 481 
Q 2391 481 2648 825 
Q 2906 1169 2906 1791 
z
M 3481 434 
Q 3481 -459 3084 -895 
Q 2688 -1331 1869 -1331 
Q 1566 -1331 1297 -1286 
Q 1028 -1241 775 -1147 
L 775 -588 
Q 1028 -725 1275 -790 
Q 1522 -856 1778 -856 
Q 2344 -856 2625 -561 
Q 2906 -266 2906 331 
L 2906 616 
Q 2728 306 2450 153 
Q 2172 0 1784 0 
Q 1141 0 747 490 
Q 353 981 353 1791 
Q 353 2603 747 3093 
Q 1141 3584 1784 3584 
Q 2172 3584 2450 3431 
Q 2728 3278 2906 2969 
L 2906 3500 
L 3481 3500 
L 3481 434 
z
" transform="scale(0.015625)"/>
      <path id="DejaVuSans-70" d="M 1159 525 
L 1159 -1331 
L 581 -1331 
L 581 3500 
L 1159 3500 
L 1159 2969 
Q 1341 3281 1617 3432 
Q 1894 3584 2278 3584 
Q 2916 3584 3314 3078 
Q 3713 2572 3713 1747 
Q 3713 922 3314 415 
Q 2916 -91 2278 -91 
Q 1894 -91 1617 61 
Q 1341 213 1159 525 
z
M 3116 1747 
Q 3116 2381 2855 2742 
Q 2594 3103 2138 3103 
Q 1681 3103 1420 2742 
Q 1159 2381 1159 1747 
Q 1159 1113 1420 752 
Q 1681 391 2138 391 
Q 2594 391 2855 752 
Q 3116 1113 3116 1747 
z
" transform="scale(0.015625)"/>
      <path id="DejaVuSans-63" d="M 3122 3366 
L 3122 2828 
Q 2878 2963 2633 3030 
Q 2388 3097 2138 3097 
Q 1578 3097 1268 2742 
Q 959 2388 959 1747 
Q 959 1106 1268 751 
Q 1578 397 2138 397 
Q 2388 397 2633 464 
Q 2878 531 3122 666 
L 3122 134 
Q 2881 22 2623 -34 
Q 2366 -91 2075 -91 
Q 1284 -91 818 406 
Q 353 903 353 1747 
Q 353 2603 823 3093 
Q 1294 3584 2113 3584 
Q 2378 3584 2631 3529 
Q 2884 3475 3122 3366 
z
" transform="scale(0.015625)"/>
     </defs>
     <use xlink:href="#DejaVuSans-41"/>
     <use xlink:href="#DejaVuSans-76" x="62.533203"/>
     <use xlink:href="#DejaVuSans-65" x="121.712891"/>
     <use xlink:href="#DejaVuSans-72" x="183.236328"/>
     <use xlink:href="#DejaVuSans-61" x="224.349609"/>
     <use xlink:href="#DejaVuSans-67" x="285.628906"/>
     <use xlink:href="#DejaVuSans-65" x="349.105469"/>
     <use xlink:href="#DejaVuSans-20" x="410.628906"/>
     <use xlink:href="#DejaVuSans-73" x="442.416016"/>
     <use xlink:href="#DejaVuSans-70" x="494.515625"/>
     <use xlink:href="#DejaVuSans-65" x="557.992188"/>
     <use xlink:href="#DejaVuSans-63" x="619.515625"/>
     <use xlink:href="#DejaVuSans-74" x="674.496094"/>
     <use xlink:href="#DejaVuSans-72" x="713.705078"/>
     <use xlink:href="#DejaVuSans-61" x="754.818359"/>
    </g>
   </g>
   <g id="legend_1">
    <g id="patch_7">
     <path d="M 305.01976 77.888365 
L 417.79976 77.888365 
Q 420.99976 77.888365 420.99976 74.688365 
L 420.99976 29.318365 
Q 420.99976 26.118365 417.79976 26.118365 
L 305.01976 26.118365 
Q 301.81976 26.118365 301.81976 29.318365 
L 301.81976 74.688365 
Q 301.81976 77.888365 305.01976 77.888365 
z
" style="fill: #ffffff; opacity: 0.8; stroke: #cccccc; stroke-linejoin: miter"/>
    </g>
    <g id="line2d_13">
     <path d="M 308.21976 39.075865 
L 324.21976 39.075865 
L 340.21976 39.075865 
" style="fill: none; stroke: #6f6f6f; stroke-width: 1.5; stroke-linecap: square"/>
    </g>
    <g id="text_14">
     <!-- SWNT -->
     <g transform="translate(353.01976 44.675865)scale(0.16 -0.16)">
      <defs>
       <path id="DejaVuSans-53" d="M 3425 4513 
L 3425 3897 
Q 3066 4069 2747 4153 
Q 2428 4238 2131 4238 
Q 1616 4238 1336 4038 
Q 1056 3838 1056 3469 
Q 1056 3159 1242 3001 
Q 1428 2844 1947 2747 
L 2328 2669 
Q 3034 2534 3370 2195 
Q 3706 1856 3706 1288 
Q 3706 609 3251 259 
Q 2797 -91 1919 -91 
Q 1588 -91 1214 -16 
Q 841 59 441 206 
L 441 856 
Q 825 641 1194 531 
Q 1563 422 1919 422 
Q 2459 422 2753 634 
Q 3047 847 3047 1241 
Q 3047 1584 2836 1778 
Q 2625 1972 2144 2069 
L 1759 2144 
Q 1053 2284 737 2584 
Q 422 2884 422 3419 
Q 422 4038 858 4394 
Q 1294 4750 2059 4750 
Q 2388 4750 2728 4690 
Q 3069 4631 3425 4513 
z
" transform="scale(0.015625)"/>
       <path id="DejaVuSans-57" d="M 213 4666 
L 850 4666 
L 1831 722 
L 2809 4666 
L 3519 4666 
L 4500 722 
L 5478 4666 
L 6119 4666 
L 4947 0 
L 4153 0 
L 3169 4050 
L 2175 0 
L 1381 0 
L 213 4666 
z
" transform="scale(0.015625)"/>
       <path id="DejaVuSans-4e" d="M 628 4666 
L 1478 4666 
L 3547 763 
L 3547 4666 
L 4159 4666 
L 4159 0 
L 3309 0 
L 1241 3903 
L 1241 0 
L 628 0 
L 628 4666 
z
" transform="scale(0.015625)"/>
       <path id="DejaVuSans-54" d="M -19 4666 
L 3928 4666 
L 3928 4134 
L 2272 4134 
L 2272 0 
L 1638 0 
L 1638 4134 
L -19 4134 
L -19 4666 
z
" transform="scale(0.015625)"/>
      </defs>
      <use xlink:href="#DejaVuSans-53"/>
      <use xlink:href="#DejaVuSans-57" x="63.476562"/>
      <use xlink:href="#DejaVuSans-4e" x="162.353516"/>
      <use xlink:href="#DejaVuSans-54" x="237.158203"/>
     </g>
    </g>
    <g id="line2d_14">
     <path d="M 308.21976 62.560865 
L 324.21976 62.560865 
L 340.21976 62.560865 
" style="fill: none; stroke: #008aba; stroke-width: 1.5; stroke-linecap: square"/>
    </g>
    <g id="text_15">
     <!-- CuMINT -->
     <g transform="translate(353.01976 68.160865)scale(0.16 -0.16)">
      <defs>
       <path id="DejaVuSans-43" d="M 4122 4306 
L 4122 3641 
Q 3803 3938 3442 4084 
Q 3081 4231 2675 4231 
Q 1875 4231 1450 3742 
Q 1025 3253 1025 2328 
Q 1025 1406 1450 917 
Q 1875 428 2675 428 
Q 3081 428 3442 575 
Q 3803 722 4122 1019 
L 4122 359 
Q 3791 134 3420 21 
Q 3050 -91 2638 -91 
Q 1578 -91 968 557 
Q 359 1206 359 2328 
Q 359 3453 968 4101 
Q 1578 4750 2638 4750 
Q 3056 4750 3426 4639 
Q 3797 4528 4122 4306 
z
" transform="scale(0.015625)"/>
       <path id="DejaVuSans-4d" d="M 628 4666 
L 1569 4666 
L 2759 1491 
L 3956 4666 
L 4897 4666 
L 4897 0 
L 4281 0 
L 4281 4097 
L 3078 897 
L 2444 897 
L 1241 4097 
L 1241 0 
L 628 0 
L 628 4666 
z
" transform="scale(0.015625)"/>
      </defs>
      <use xlink:href="#DejaVuSans-43"/>
      <use xlink:href="#DejaVuSans-75" x="69.824219"/>
      <use xlink:href="#DejaVuSans-4d" x="133.203125"/>
      <use xlink:href="#DejaVuSans-49" x="219.482422"/>
      <use xlink:href="#DejaVuSans-4e" x="248.974609"/>
      <use xlink:href="#DejaVuSans-54" x="323.779297"/>
     </g>
    </g>
   </g>
  </g>
 </g>
 <defs>
  <clipPath id="p86798ce902">
   <rect x="54.93024" y="18.118365" width="374.06952" height="368.396395"/>
  </clipPath>
 </defs>
</svg>
