<?xml version="1.0" encoding="utf-8" standalone="no"?>
<!DOCTYPE svg PUBLIC "-//W3C//DTD SVG 1.1//EN"
  "http://www.w3.org/Graphics/SVG/1.1/DTD/svg11.dtd">
<svg xmlns:xlink="http://www.w3.org/1999/xlink" width="576pt" height="432pt" viewBox="0 0 576 432" xmlns="http://www.w3.org/2000/svg" version="1.1">
 <metadata>
  <rdf:RDF xmlns:dc="http://purl.org/dc/elements/1.1/" xmlns:cc="http://creativecommons.org/ns#" xmlns:rdf="http://www.w3.org/1999/02/22-rdf-syntax-ns#">
   <cc:Work>
    <dc:type rdf:resource="http://purl.org/dc/dcmitype/StillImage"/>
    <dc:date>2023-07-19T18:22:52.930657</dc:date>
    <dc:format>image/svg+xml</dc:format>
    <dc:creator>
     <cc:Agent>
      <dc:title>Matplotlib v3.5.2, https://matplotlib.org/</dc:title>
     </cc:Agent>
    </dc:creator>
   </cc:Work>
  </rdf:RDF>
 </metadata>
 <defs>
  <style type="text/css">*{stroke-linejoin: round; stroke-linecap: butt}</style>
 </defs>
 <g id="figure_1">
  <g id="patch_1">
   <path d="M 0 432 
L 576 432 
L 576 0 
L 0 0 
z
" style="fill: #ffffff"/>
  </g>
  <g id="axes_1">
   <g id="patch_2">
    <path d="M 70.72024 387.02976 
L 572.99976 387.02976 
L 572.99976 21.15774 
L 70.72024 21.15774 
z
" style="fill: #ffffff"/>
   </g>
   <g id="matplotlib.axis_1">
    <g id="xtick_1">
     <g id="line2d_1">
      <defs>
       <path id="m22c0b9d7fc" d="M 0 0 
L 0 3.5 
" style="stroke: #000000; stroke-width: 0.8"/>
      </defs>
      <g>
       <use xlink:href="#m22c0b9d7fc" x="126.167039" y="387.02976" style="stroke: #000000; stroke-width: 0.8"/>
      </g>
     </g>
     <g id="text_1">
      <!-- 0.04 -->
      <g transform="translate(108.354539 406.18726)scale(0.16 -0.16)">
       <defs>
        <path id="DejaVuSans-30" d="M 2034 4250 
Q 1547 4250 1301 3770 
Q 1056 3291 1056 2328 
Q 1056 1369 1301 889 
Q 1547 409 2034 409 
Q 2525 409 2770 889 
Q 3016 1369 3016 2328 
Q 3016 3291 2770 3770 
Q 2525 4250 2034 4250 
z
M 2034 4750 
Q 2819 4750 3233 4129 
Q 3647 3509 3647 2328 
Q 3647 1150 3233 529 
Q 2819 -91 2034 -91 
Q 1250 -91 836 529 
Q 422 1150 422 2328 
Q 422 3509 836 4129 
Q 1250 4750 2034 4750 
z
" transform="scale(0.015625)"/>
        <path id="DejaVuSans-2e" d="M 684 794 
L 1344 794 
L 1344 0 
L 684 0 
L 684 794 
z
" transform="scale(0.015625)"/>
        <path id="DejaVuSans-34" d="M 2419 4116 
L 825 1625 
L 2419 1625 
L 2419 4116 
z
M 2253 4666 
L 3047 4666 
L 3047 1625 
L 3713 1625 
L 3713 1100 
L 3047 1100 
L 3047 0 
L 2419 0 
L 2419 1100 
L 313 1100 
L 313 1709 
L 2253 4666 
z
" transform="scale(0.015625)"/>
       </defs>
       <use xlink:href="#DejaVuSans-30"/>
       <use xlink:href="#DejaVuSans-2e" x="63.623047"/>
       <use xlink:href="#DejaVuSans-30" x="95.410156"/>
       <use xlink:href="#DejaVuSans-34" x="159.033203"/>
      </g>
     </g>
    </g>
    <g id="xtick_2">
     <g id="line2d_2">
      <g>
       <use xlink:href="#m22c0b9d7fc" x="190.674906" y="387.02976" style="stroke: #000000; stroke-width: 0.8"/>
      </g>
     </g>
     <g id="text_2">
      <!-- 0.05 -->
      <g transform="translate(172.862406 406.18726)scale(0.16 -0.16)">
       <defs>
        <path id="DejaVuSans-35" d="M 691 4666 
L 3169 4666 
L 3169 4134 
L 1269 4134 
L 1269 2991 
Q 1406 3038 1543 3061 
Q 1681 3084 1819 3084 
Q 2600 3084 3056 2656 
Q 3513 2228 3513 1497 
Q 3513 744 3044 326 
Q 2575 -91 1722 -91 
Q 1428 -91 1123 -41 
Q 819 9 494 109 
L 494 744 
Q 775 591 1075 516 
Q 1375 441 1709 441 
Q 2250 441 2565 725 
Q 2881 1009 2881 1497 
Q 2881 1984 2565 2268 
Q 2250 2553 1709 2553 
Q 1456 2553 1204 2497 
Q 953 2441 691 2322 
L 691 4666 
z
" transform="scale(0.015625)"/>
       </defs>
       <use xlink:href="#DejaVuSans-30"/>
       <use xlink:href="#DejaVuSans-2e" x="63.623047"/>
       <use xlink:href="#DejaVuSans-30" x="95.410156"/>
       <use xlink:href="#DejaVuSans-35" x="159.033203"/>
      </g>
     </g>
    </g>
    <g id="xtick_3">
     <g id="line2d_3">
      <g>
       <use xlink:href="#m22c0b9d7fc" x="255.182773" y="387.02976" style="stroke: #000000; stroke-width: 0.8"/>
      </g>
     </g>
     <g id="text_3">
      <!-- 0.06 -->
      <g transform="translate(237.370273 406.18726)scale(0.16 -0.16)">
       <defs>
        <path id="DejaVuSans-36" d="M 2113 2584 
Q 1688 2584 1439 2293 
Q 1191 2003 1191 1497 
Q 1191 994 1439 701 
Q 1688 409 2113 409 
Q 2538 409 2786 701 
Q 3034 994 3034 1497 
Q 3034 2003 2786 2293 
Q 2538 2584 2113 2584 
z
M 3366 4563 
L 3366 3988 
Q 3128 4100 2886 4159 
Q 2644 4219 2406 4219 
Q 1781 4219 1451 3797 
Q 1122 3375 1075 2522 
Q 1259 2794 1537 2939 
Q 1816 3084 2150 3084 
Q 2853 3084 3261 2657 
Q 3669 2231 3669 1497 
Q 3669 778 3244 343 
Q 2819 -91 2113 -91 
Q 1303 -91 875 529 
Q 447 1150 447 2328 
Q 447 3434 972 4092 
Q 1497 4750 2381 4750 
Q 2619 4750 2861 4703 
Q 3103 4656 3366 4563 
z
" transform="scale(0.015625)"/>
       </defs>
       <use xlink:href="#DejaVuSans-30"/>
       <use xlink:href="#DejaVuSans-2e" x="63.623047"/>
       <use xlink:href="#DejaVuSans-30" x="95.410156"/>
       <use xlink:href="#DejaVuSans-36" x="159.033203"/>
      </g>
     </g>
    </g>
    <g id="xtick_4">
     <g id="line2d_4">
      <g>
       <use xlink:href="#m22c0b9d7fc" x="319.69064" y="387.02976" style="stroke: #000000; stroke-width: 0.8"/>
      </g>
     </g>
     <g id="text_4">
      <!-- 0.07 -->
      <g transform="translate(301.87814 406.18726)scale(0.16 -0.16)">
       <defs>
        <path id="DejaVuSans-37" d="M 525 4666 
L 3525 4666 
L 3525 4397 
L 1831 0 
L 1172 0 
L 2766 4134 
L 525 4134 
L 525 4666 
z
" transform="scale(0.015625)"/>
       </defs>
       <use xlink:href="#DejaVuSans-30"/>
       <use xlink:href="#DejaVuSans-2e" x="63.623047"/>
       <use xlink:href="#DejaVuSans-30" x="95.410156"/>
       <use xlink:href="#DejaVuSans-37" x="159.033203"/>
      </g>
     </g>
    </g>
    <g id="xtick_5">
     <g id="line2d_5">
      <g>
       <use xlink:href="#m22c0b9d7fc" x="384.198507" y="387.02976" style="stroke: #000000; stroke-width: 0.8"/>
      </g>
     </g>
     <g id="text_5">
      <!-- 0.08 -->
      <g transform="translate(366.386007 406.18726)scale(0.16 -0.16)">
       <defs>
        <path id="DejaVuSans-38" d="M 2034 2216 
Q 1584 2216 1326 1975 
Q 1069 1734 1069 1313 
Q 1069 891 1326 650 
Q 1584 409 2034 409 
Q 2484 409 2743 651 
Q 3003 894 3003 1313 
Q 3003 1734 2745 1975 
Q 2488 2216 2034 2216 
z
M 1403 2484 
Q 997 2584 770 2862 
Q 544 3141 544 3541 
Q 544 4100 942 4425 
Q 1341 4750 2034 4750 
Q 2731 4750 3128 4425 
Q 3525 4100 3525 3541 
Q 3525 3141 3298 2862 
Q 3072 2584 2669 2484 
Q 3125 2378 3379 2068 
Q 3634 1759 3634 1313 
Q 3634 634 3220 271 
Q 2806 -91 2034 -91 
Q 1263 -91 848 271 
Q 434 634 434 1313 
Q 434 1759 690 2068 
Q 947 2378 1403 2484 
z
M 1172 3481 
Q 1172 3119 1398 2916 
Q 1625 2713 2034 2713 
Q 2441 2713 2670 2916 
Q 2900 3119 2900 3481 
Q 2900 3844 2670 4047 
Q 2441 4250 2034 4250 
Q 1625 4250 1398 4047 
Q 1172 3844 1172 3481 
z
" transform="scale(0.015625)"/>
       </defs>
       <use xlink:href="#DejaVuSans-30"/>
       <use xlink:href="#DejaVuSans-2e" x="63.623047"/>
       <use xlink:href="#DejaVuSans-30" x="95.410156"/>
       <use xlink:href="#DejaVuSans-38" x="159.033203"/>
      </g>
     </g>
    </g>
    <g id="xtick_6">
     <g id="line2d_6">
      <g>
       <use xlink:href="#m22c0b9d7fc" x="448.706374" y="387.02976" style="stroke: #000000; stroke-width: 0.8"/>
      </g>
     </g>
     <g id="text_6">
      <!-- 0.09 -->
      <g transform="translate(430.893874 406.18726)scale(0.16 -0.16)">
       <defs>
        <path id="DejaVuSans-39" d="M 703 97 
L 703 672 
Q 941 559 1184 500 
Q 1428 441 1663 441 
Q 2288 441 2617 861 
Q 2947 1281 2994 2138 
Q 2813 1869 2534 1725 
Q 2256 1581 1919 1581 
Q 1219 1581 811 2004 
Q 403 2428 403 3163 
Q 403 3881 828 4315 
Q 1253 4750 1959 4750 
Q 2769 4750 3195 4129 
Q 3622 3509 3622 2328 
Q 3622 1225 3098 567 
Q 2575 -91 1691 -91 
Q 1453 -91 1209 -44 
Q 966 3 703 97 
z
M 1959 2075 
Q 2384 2075 2632 2365 
Q 2881 2656 2881 3163 
Q 2881 3666 2632 3958 
Q 2384 4250 1959 4250 
Q 1534 4250 1286 3958 
Q 1038 3666 1038 3163 
Q 1038 2656 1286 2365 
Q 1534 2075 1959 2075 
z
" transform="scale(0.015625)"/>
       </defs>
       <use xlink:href="#DejaVuSans-30"/>
       <use xlink:href="#DejaVuSans-2e" x="63.623047"/>
       <use xlink:href="#DejaVuSans-30" x="95.410156"/>
       <use xlink:href="#DejaVuSans-39" x="159.033203"/>
      </g>
     </g>
    </g>
    <g id="xtick_7">
     <g id="line2d_7">
      <g>
       <use xlink:href="#m22c0b9d7fc" x="513.214241" y="387.02976" style="stroke: #000000; stroke-width: 0.8"/>
      </g>
     </g>
     <g id="text_7">
      <!-- 0.10 -->
      <g transform="translate(495.401741 406.18726)scale(0.16 -0.16)">
       <defs>
        <path id="DejaVuSans-31" d="M 794 531 
L 1825 531 
L 1825 4091 
L 703 3866 
L 703 4441 
L 1819 4666 
L 2450 4666 
L 2450 531 
L 3481 531 
L 3481 0 
L 794 0 
L 794 531 
z
" transform="scale(0.015625)"/>
       </defs>
       <use xlink:href="#DejaVuSans-30"/>
       <use xlink:href="#DejaVuSans-2e" x="63.623047"/>
       <use xlink:href="#DejaVuSans-31" x="95.410156"/>
       <use xlink:href="#DejaVuSans-30" x="159.033203"/>
      </g>
     </g>
    </g>
    <g id="text_8">
     <!-- $I_{D}/I_{G}$ -->
     <g transform="translate(305.3 425.67226)scale(0.16 -0.16)">
      <defs>
       <path id="DejaVuSans-Oblique-49" d="M 1081 4666 
L 1716 4666 
L 806 0 
L 172 0 
L 1081 4666 
z
" transform="scale(0.015625)"/>
       <path id="DejaVuSans-Oblique-44" d="M 1081 4666 
L 2438 4666 
Q 3519 4666 4070 4208 
Q 4622 3750 4622 2847 
Q 4622 2250 4412 1698 
Q 4203 1147 3834 769 
Q 3463 381 2891 190 
Q 2319 0 1538 0 
L 172 0 
L 1081 4666 
z
M 1613 4147 
L 909 519 
L 1734 519 
Q 2794 519 3375 1128 
Q 3956 1738 3956 2847 
Q 3956 3519 3581 3833 
Q 3206 4147 2406 4147 
L 1613 4147 
z
" transform="scale(0.015625)"/>
       <path id="DejaVuSans-2f" d="M 1625 4666 
L 2156 4666 
L 531 -594 
L 0 -594 
L 1625 4666 
z
" transform="scale(0.015625)"/>
       <path id="DejaVuSans-Oblique-47" d="M 3494 697 
L 3738 1919 
L 2700 1919 
L 2797 2438 
L 4453 2438 
L 4050 384 
Q 3634 156 3143 32 
Q 2653 -91 2156 -91 
Q 1278 -91 783 396 
Q 288 884 288 1753 
Q 288 2475 589 3126 
Q 891 3778 1422 4213 
Q 1756 4484 2153 4617 
Q 2550 4750 3034 4750 
Q 3472 4750 3873 4639 
Q 4275 4528 4641 4306 
L 4513 3634 
Q 4231 3928 3853 4083 
Q 3475 4238 3047 4238 
Q 2550 4238 2172 4048 
Q 1794 3859 1497 3463 
Q 1244 3125 1098 2667 
Q 953 2209 953 1734 
Q 953 1081 1287 751 
Q 1622 422 2284 422 
Q 2616 422 2925 492 
Q 3234 563 3494 697 
z
" transform="scale(0.015625)"/>
      </defs>
      <use xlink:href="#DejaVuSans-Oblique-49" transform="translate(0 0.09375)"/>
      <use xlink:href="#DejaVuSans-Oblique-44" transform="translate(29.492188 -16.3125)scale(0.7)"/>
      <use xlink:href="#DejaVuSans-2f" transform="translate(86.12793 0.09375)"/>
      <use xlink:href="#DejaVuSans-Oblique-49" transform="translate(119.819336 0.09375)"/>
      <use xlink:href="#DejaVuSans-Oblique-47" transform="translate(149.311523 -16.3125)scale(0.7)"/>
     </g>
    </g>
   </g>
   <g id="matplotlib.axis_2">
    <g id="ytick_1">
     <g id="line2d_8">
      <defs>
       <path id="m9f840b9269" d="M 0 0 
L -3.5 0 
" style="stroke: #000000; stroke-width: 0.8"/>
      </defs>
      <g>
       <use xlink:href="#m9f840b9269" x="70.72024" y="378.712761" style="stroke: #000000; stroke-width: 0.8"/>
      </g>
     </g>
     <g id="text_9">
      <!-- 1294 -->
      <g transform="translate(23.00024 384.791511)scale(0.16 -0.16)">
       <defs>
        <path id="DejaVuSans-32" d="M 1228 531 
L 3431 531 
L 3431 0 
L 469 0 
L 469 531 
Q 828 903 1448 1529 
Q 2069 2156 2228 2338 
Q 2531 2678 2651 2914 
Q 2772 3150 2772 3378 
Q 2772 3750 2511 3984 
Q 2250 4219 1831 4219 
Q 1534 4219 1204 4116 
Q 875 4013 500 3803 
L 500 4441 
Q 881 4594 1212 4672 
Q 1544 4750 1819 4750 
Q 2544 4750 2975 4387 
Q 3406 4025 3406 3419 
Q 3406 3131 3298 2873 
Q 3191 2616 2906 2266 
Q 2828 2175 2409 1742 
Q 1991 1309 1228 531 
z
" transform="scale(0.015625)"/>
       </defs>
       <use xlink:href="#DejaVuSans-31"/>
       <use xlink:href="#DejaVuSans-32" x="63.623047"/>
       <use xlink:href="#DejaVuSans-39" x="127.246094"/>
       <use xlink:href="#DejaVuSans-34" x="190.869141"/>
      </g>
     </g>
    </g>
    <g id="ytick_2">
     <g id="line2d_9">
      <g>
       <use xlink:href="#m9f840b9269" x="70.72024" y="328.75858" style="stroke: #000000; stroke-width: 0.8"/>
      </g>
     </g>
     <g id="text_10">
      <!-- 1296 -->
      <g transform="translate(23.00024 334.83733)scale(0.16 -0.16)">
       <use xlink:href="#DejaVuSans-31"/>
       <use xlink:href="#DejaVuSans-32" x="63.623047"/>
       <use xlink:href="#DejaVuSans-39" x="127.246094"/>
       <use xlink:href="#DejaVuSans-36" x="190.869141"/>
      </g>
     </g>
    </g>
    <g id="ytick_3">
     <g id="line2d_10">
      <g>
       <use xlink:href="#m9f840b9269" x="70.72024" y="278.804399" style="stroke: #000000; stroke-width: 0.8"/>
      </g>
     </g>
     <g id="text_11">
      <!-- 1298 -->
      <g transform="translate(23.00024 284.883149)scale(0.16 -0.16)">
       <use xlink:href="#DejaVuSans-31"/>
       <use xlink:href="#DejaVuSans-32" x="63.623047"/>
       <use xlink:href="#DejaVuSans-39" x="127.246094"/>
       <use xlink:href="#DejaVuSans-38" x="190.869141"/>
      </g>
     </g>
    </g>
    <g id="ytick_4">
     <g id="line2d_11">
      <g>
       <use xlink:href="#m9f840b9269" x="70.72024" y="228.850217" style="stroke: #000000; stroke-width: 0.8"/>
      </g>
     </g>
     <g id="text_12">
      <!-- 1300 -->
      <g transform="translate(23.00024 234.928967)scale(0.16 -0.16)">
       <defs>
        <path id="DejaVuSans-33" d="M 2597 2516 
Q 3050 2419 3304 2112 
Q 3559 1806 3559 1356 
Q 3559 666 3084 287 
Q 2609 -91 1734 -91 
Q 1441 -91 1130 -33 
Q 819 25 488 141 
L 488 750 
Q 750 597 1062 519 
Q 1375 441 1716 441 
Q 2309 441 2620 675 
Q 2931 909 2931 1356 
Q 2931 1769 2642 2001 
Q 2353 2234 1838 2234 
L 1294 2234 
L 1294 2753 
L 1863 2753 
Q 2328 2753 2575 2939 
Q 2822 3125 2822 3475 
Q 2822 3834 2567 4026 
Q 2313 4219 1838 4219 
Q 1578 4219 1281 4162 
Q 984 4106 628 3988 
L 628 4550 
Q 988 4650 1302 4700 
Q 1616 4750 1894 4750 
Q 2613 4750 3031 4423 
Q 3450 4097 3450 3541 
Q 3450 3153 3228 2886 
Q 3006 2619 2597 2516 
z
" transform="scale(0.015625)"/>
       </defs>
       <use xlink:href="#DejaVuSans-31"/>
       <use xlink:href="#DejaVuSans-33" x="63.623047"/>
       <use xlink:href="#DejaVuSans-30" x="127.246094"/>
       <use xlink:href="#DejaVuSans-30" x="190.869141"/>
      </g>
     </g>
    </g>
    <g id="ytick_5">
     <g id="line2d_12">
      <g>
       <use xlink:href="#m9f840b9269" x="70.72024" y="178.896036" style="stroke: #000000; stroke-width: 0.8"/>
      </g>
     </g>
     <g id="text_13">
      <!-- 1302 -->
      <g transform="translate(23.00024 184.974786)scale(0.16 -0.16)">
       <use xlink:href="#DejaVuSans-31"/>
       <use xlink:href="#DejaVuSans-33" x="63.623047"/>
       <use xlink:href="#DejaVuSans-30" x="127.246094"/>
       <use xlink:href="#DejaVuSans-32" x="190.869141"/>
      </g>
     </g>
    </g>
    <g id="ytick_6">
     <g id="line2d_13">
      <g>
       <use xlink:href="#m9f840b9269" x="70.72024" y="128.941855" style="stroke: #000000; stroke-width: 0.8"/>
      </g>
     </g>
     <g id="text_14">
      <!-- 1304 -->
      <g transform="translate(23.00024 135.020605)scale(0.16 -0.16)">
       <use xlink:href="#DejaVuSans-31"/>
       <use xlink:href="#DejaVuSans-33" x="63.623047"/>
       <use xlink:href="#DejaVuSans-30" x="127.246094"/>
       <use xlink:href="#DejaVuSans-34" x="190.869141"/>
      </g>
     </g>
    </g>
    <g id="ytick_7">
     <g id="line2d_14">
      <g>
       <use xlink:href="#m9f840b9269" x="70.72024" y="78.987674" style="stroke: #000000; stroke-width: 0.8"/>
      </g>
     </g>
     <g id="text_15">
      <!-- 1306 -->
      <g transform="translate(23.00024 85.066424)scale(0.16 -0.16)">
       <use xlink:href="#DejaVuSans-31"/>
       <use xlink:href="#DejaVuSans-33" x="63.623047"/>
       <use xlink:href="#DejaVuSans-30" x="127.246094"/>
       <use xlink:href="#DejaVuSans-36" x="190.869141"/>
      </g>
     </g>
    </g>
    <g id="ytick_8">
     <g id="line2d_15">
      <g>
       <use xlink:href="#m9f840b9269" x="70.72024" y="29.033493" style="stroke: #000000; stroke-width: 0.8"/>
      </g>
     </g>
     <g id="text_16">
      <!-- 1308 -->
      <g transform="translate(23.00024 35.112243)scale(0.16 -0.16)">
       <use xlink:href="#DejaVuSans-31"/>
       <use xlink:href="#DejaVuSans-33" x="63.623047"/>
       <use xlink:href="#DejaVuSans-30" x="127.246094"/>
       <use xlink:href="#DejaVuSans-38" x="190.869141"/>
      </g>
     </g>
    </g>
    <g id="text_17">
     <!-- $D$ band Shift / $cm^{-1}$ -->
     <g transform="translate(15.67274 282.65375)rotate(-90)scale(0.16 -0.16)">
      <defs>
       <path id="DejaVuSans-20" transform="scale(0.015625)"/>
       <path id="DejaVuSans-62" d="M 3116 1747 
Q 3116 2381 2855 2742 
Q 2594 3103 2138 3103 
Q 1681 3103 1420 2742 
Q 1159 2381 1159 1747 
Q 1159 1113 1420 752 
Q 1681 391 2138 391 
Q 2594 391 2855 752 
Q 3116 1113 3116 1747 
z
M 1159 2969 
Q 1341 3281 1617 3432 
Q 1894 3584 2278 3584 
Q 2916 3584 3314 3078 
Q 3713 2572 3713 1747 
Q 3713 922 3314 415 
Q 2916 -91 2278 -91 
Q 1894 -91 1617 61 
Q 1341 213 1159 525 
L 1159 0 
L 581 0 
L 581 4863 
L 1159 4863 
L 1159 2969 
z
" transform="scale(0.015625)"/>
       <path id="DejaVuSans-61" d="M 2194 1759 
Q 1497 1759 1228 1600 
Q 959 1441 959 1056 
Q 959 750 1161 570 
Q 1363 391 1709 391 
Q 2188 391 2477 730 
Q 2766 1069 2766 1631 
L 2766 1759 
L 2194 1759 
z
M 3341 1997 
L 3341 0 
L 2766 0 
L 2766 531 
Q 2569 213 2275 61 
Q 1981 -91 1556 -91 
Q 1019 -91 701 211 
Q 384 513 384 1019 
Q 384 1609 779 1909 
Q 1175 2209 1959 2209 
L 2766 2209 
L 2766 2266 
Q 2766 2663 2505 2880 
Q 2244 3097 1772 3097 
Q 1472 3097 1187 3025 
Q 903 2953 641 2809 
L 641 3341 
Q 956 3463 1253 3523 
Q 1550 3584 1831 3584 
Q 2591 3584 2966 3190 
Q 3341 2797 3341 1997 
z
" transform="scale(0.015625)"/>
       <path id="DejaVuSans-6e" d="M 3513 2113 
L 3513 0 
L 2938 0 
L 2938 2094 
Q 2938 2591 2744 2837 
Q 2550 3084 2163 3084 
Q 1697 3084 1428 2787 
Q 1159 2491 1159 1978 
L 1159 0 
L 581 0 
L 581 3500 
L 1159 3500 
L 1159 2956 
Q 1366 3272 1645 3428 
Q 1925 3584 2291 3584 
Q 2894 3584 3203 3211 
Q 3513 2838 3513 2113 
z
" transform="scale(0.015625)"/>
       <path id="DejaVuSans-64" d="M 2906 2969 
L 2906 4863 
L 3481 4863 
L 3481 0 
L 2906 0 
L 2906 525 
Q 2725 213 2448 61 
Q 2172 -91 1784 -91 
Q 1150 -91 751 415 
Q 353 922 353 1747 
Q 353 2572 751 3078 
Q 1150 3584 1784 3584 
Q 2172 3584 2448 3432 
Q 2725 3281 2906 2969 
z
M 947 1747 
Q 947 1113 1208 752 
Q 1469 391 1925 391 
Q 2381 391 2643 752 
Q 2906 1113 2906 1747 
Q 2906 2381 2643 2742 
Q 2381 3103 1925 3103 
Q 1469 3103 1208 2742 
Q 947 2381 947 1747 
z
" transform="scale(0.015625)"/>
       <path id="DejaVuSans-53" d="M 3425 4513 
L 3425 3897 
Q 3066 4069 2747 4153 
Q 2428 4238 2131 4238 
Q 1616 4238 1336 4038 
Q 1056 3838 1056 3469 
Q 1056 3159 1242 3001 
Q 1428 2844 1947 2747 
L 2328 2669 
Q 3034 2534 3370 2195 
Q 3706 1856 3706 1288 
Q 3706 609 3251 259 
Q 2797 -91 1919 -91 
Q 1588 -91 1214 -16 
Q 841 59 441 206 
L 441 856 
Q 825 641 1194 531 
Q 1563 422 1919 422 
Q 2459 422 2753 634 
Q 3047 847 3047 1241 
Q 3047 1584 2836 1778 
Q 2625 1972 2144 2069 
L 1759 2144 
Q 1053 2284 737 2584 
Q 422 2884 422 3419 
Q 422 4038 858 4394 
Q 1294 4750 2059 4750 
Q 2388 4750 2728 4690 
Q 3069 4631 3425 4513 
z
" transform="scale(0.015625)"/>
       <path id="DejaVuSans-68" d="M 3513 2113 
L 3513 0 
L 2938 0 
L 2938 2094 
Q 2938 2591 2744 2837 
Q 2550 3084 2163 3084 
Q 1697 3084 1428 2787 
Q 1159 2491 1159 1978 
L 1159 0 
L 581 0 
L 581 4863 
L 1159 4863 
L 1159 2956 
Q 1366 3272 1645 3428 
Q 1925 3584 2291 3584 
Q 2894 3584 3203 3211 
Q 3513 2838 3513 2113 
z
" transform="scale(0.015625)"/>
       <path id="DejaVuSans-69" d="M 603 3500 
L 1178 3500 
L 1178 0 
L 603 0 
L 603 3500 
z
M 603 4863 
L 1178 4863 
L 1178 4134 
L 603 4134 
L 603 4863 
z
" transform="scale(0.015625)"/>
       <path id="DejaVuSans-66" d="M 2375 4863 
L 2375 4384 
L 1825 4384 
Q 1516 4384 1395 4259 
Q 1275 4134 1275 3809 
L 1275 3500 
L 2222 3500 
L 2222 3053 
L 1275 3053 
L 1275 0 
L 697 0 
L 697 3053 
L 147 3053 
L 147 3500 
L 697 3500 
L 697 3744 
Q 697 4328 969 4595 
Q 1241 4863 1831 4863 
L 2375 4863 
z
" transform="scale(0.015625)"/>
       <path id="DejaVuSans-74" d="M 1172 4494 
L 1172 3500 
L 2356 3500 
L 2356 3053 
L 1172 3053 
L 1172 1153 
Q 1172 725 1289 603 
Q 1406 481 1766 481 
L 2356 481 
L 2356 0 
L 1766 0 
Q 1100 0 847 248 
Q 594 497 594 1153 
L 594 3053 
L 172 3053 
L 172 3500 
L 594 3500 
L 594 4494 
L 1172 4494 
z
" transform="scale(0.015625)"/>
       <path id="DejaVuSans-Oblique-63" d="M 3431 3366 
L 3316 2797 
Q 3109 2947 2876 3022 
Q 2644 3097 2394 3097 
Q 2119 3097 1870 3000 
Q 1622 2903 1453 2725 
Q 1184 2453 1037 2087 
Q 891 1722 891 1331 
Q 891 859 1127 628 
Q 1363 397 1844 397 
Q 2081 397 2348 469 
Q 2616 541 2906 684 
L 2797 116 
Q 2547 13 2283 -39 
Q 2019 -91 1741 -91 
Q 1044 -91 669 257 
Q 294 606 294 1253 
Q 294 1797 489 2255 
Q 684 2713 1069 3078 
Q 1331 3328 1684 3456 
Q 2038 3584 2456 3584 
Q 2700 3584 2940 3529 
Q 3181 3475 3431 3366 
z
" transform="scale(0.015625)"/>
       <path id="DejaVuSans-Oblique-6d" d="M 5747 2113 
L 5338 0 
L 4763 0 
L 5166 2094 
Q 5191 2228 5203 2325 
Q 5216 2422 5216 2491 
Q 5216 2772 5059 2928 
Q 4903 3084 4622 3084 
Q 4203 3084 3875 2770 
Q 3547 2456 3450 1953 
L 3066 0 
L 2491 0 
L 2900 2094 
Q 2925 2209 2937 2307 
Q 2950 2406 2950 2484 
Q 2950 2769 2794 2926 
Q 2638 3084 2363 3084 
Q 1938 3084 1609 2770 
Q 1281 2456 1184 1953 
L 800 0 
L 225 0 
L 909 3500 
L 1484 3500 
L 1375 2956 
Q 1609 3263 1923 3423 
Q 2238 3584 2597 3584 
Q 2978 3584 3223 3384 
Q 3469 3184 3519 2828 
Q 3781 3197 4126 3390 
Q 4472 3584 4856 3584 
Q 5306 3584 5551 3325 
Q 5797 3066 5797 2591 
Q 5797 2488 5784 2364 
Q 5772 2241 5747 2113 
z
" transform="scale(0.015625)"/>
       <path id="DejaVuSans-2212" d="M 678 2272 
L 4684 2272 
L 4684 1741 
L 678 1741 
L 678 2272 
z
" transform="scale(0.015625)"/>
      </defs>
      <use xlink:href="#DejaVuSans-Oblique-44" transform="translate(0 0.684375)"/>
      <use xlink:href="#DejaVuSans-20" transform="translate(77.001953 0.684375)"/>
      <use xlink:href="#DejaVuSans-62" transform="translate(108.789062 0.684375)"/>
      <use xlink:href="#DejaVuSans-61" transform="translate(172.265625 0.684375)"/>
      <use xlink:href="#DejaVuSans-6e" transform="translate(233.544922 0.684375)"/>
      <use xlink:href="#DejaVuSans-64" transform="translate(296.923828 0.684375)"/>
      <use xlink:href="#DejaVuSans-20" transform="translate(360.400391 0.684375)"/>
      <use xlink:href="#DejaVuSans-53" transform="translate(392.1875 0.684375)"/>
      <use xlink:href="#DejaVuSans-68" transform="translate(455.664062 0.684375)"/>
      <use xlink:href="#DejaVuSans-69" transform="translate(519.042969 0.684375)"/>
      <use xlink:href="#DejaVuSans-66" transform="translate(546.826172 0.684375)"/>
      <use xlink:href="#DejaVuSans-74" transform="translate(582.03125 0.684375)"/>
      <use xlink:href="#DejaVuSans-20" transform="translate(621.240234 0.684375)"/>
      <use xlink:href="#DejaVuSans-2f" transform="translate(653.027344 0.684375)"/>
      <use xlink:href="#DejaVuSans-20" transform="translate(686.71875 0.684375)"/>
      <use xlink:href="#DejaVuSans-Oblique-63" transform="translate(718.505859 0.684375)"/>
      <use xlink:href="#DejaVuSans-Oblique-6d" transform="translate(773.486328 0.684375)"/>
      <use xlink:href="#DejaVuSans-2212" transform="translate(875.548333 38.965625)scale(0.7)"/>
      <use xlink:href="#DejaVuSans-31" transform="translate(934.200677 38.965625)scale(0.7)"/>
     </g>
    </g>
   </g>
   <g id="line2d_16">
    <defs>
     <path id="m83424ea8c3" d="M 0 3 
C 0.795609 3 1.55874 2.683901 2.12132 2.12132 
C 2.683901 1.55874 3 0.795609 3 0 
C 3 -0.795609 2.683901 -1.55874 2.12132 -2.12132 
C 1.55874 -2.683901 0.795609 -3 0 -3 
C -0.795609 -3 -1.55874 -2.683901 -2.12132 -2.12132 
C -2.683901 -1.55874 -3 -0.795609 -3 0 
C -3 0.795609 -2.683901 1.55874 -2.12132 2.12132 
C -1.55874 2.683901 -0.795609 3 0 3 
z
" style="stroke: #6f6f6f"/>
    </defs>
    <g clip-path="url(#pfdfd540cc1)">
     <use xlink:href="#m83424ea8c3" x="156.310154" y="163.6276" style="fill: #6f6f6f; stroke: #6f6f6f"/>
     <use xlink:href="#m83424ea8c3" x="161.681703" y="294.551944" style="fill: #6f6f6f; stroke: #6f6f6f"/>
     <use xlink:href="#m83424ea8c3" x="114.867496" y="325.166789" style="fill: #6f6f6f; stroke: #6f6f6f"/>
     <use xlink:href="#m83424ea8c3" x="119.263169" y="299.10882" style="fill: #6f6f6f; stroke: #6f6f6f"/>
     <use xlink:href="#m83424ea8c3" x="173.291574" y="182.787281" style="fill: #6f6f6f; stroke: #6f6f6f"/>
     <use xlink:href="#m83424ea8c3" x="213.14483" y="204.797579" style="fill: #6f6f6f; stroke: #6f6f6f"/>
     <use xlink:href="#m83424ea8c3" x="187.118008" y="258.568628" style="fill: #6f6f6f; stroke: #6f6f6f"/>
     <use xlink:href="#m83424ea8c3" x="228.189311" y="223.97596" style="fill: #6f6f6f; stroke: #6f6f6f"/>
     <use xlink:href="#m83424ea8c3" x="283.939231" y="264.849823" style="fill: #6f6f6f; stroke: #6f6f6f"/>
     <use xlink:href="#m83424ea8c3" x="419.113838" y="37.788286" style="fill: #6f6f6f; stroke: #6f6f6f"/>
     <use xlink:href="#m83424ea8c3" x="198.389563" y="330.419365" style="fill: #6f6f6f; stroke: #6f6f6f"/>
     <use xlink:href="#m83424ea8c3" x="93.551127" y="370.399214" style="fill: #6f6f6f; stroke: #6f6f6f"/>
     <use xlink:href="#m83424ea8c3" x="235.222243" y="212.621083" style="fill: #6f6f6f; stroke: #6f6f6f"/>
     <use xlink:href="#m83424ea8c3" x="321.473554" y="180.520194" style="fill: #6f6f6f; stroke: #6f6f6f"/>
     <use xlink:href="#m83424ea8c3" x="109.48272" y="353.834547" style="fill: #6f6f6f; stroke: #6f6f6f"/>
     <use xlink:href="#m83424ea8c3" x="164.703981" y="308.909755" style="fill: #6f6f6f; stroke: #6f6f6f"/>
     <use xlink:href="#m83424ea8c3" x="195.3664" y="280.075678" style="fill: #6f6f6f; stroke: #6f6f6f"/>
     <use xlink:href="#m83424ea8c3" x="187.068398" y="269.072865" style="fill: #6f6f6f; stroke: #6f6f6f"/>
     <use xlink:href="#m83424ea8c3" x="187.118381" y="292.299856" style="fill: #6f6f6f; stroke: #6f6f6f"/>
    </g>
   </g>
   <g id="line2d_17">
    <path d="M 93.551127 337.717144 
L 96.83964 335.110032 
L 100.128152 332.502919 
L 103.416664 329.895806 
L 106.705176 327.288693 
L 109.993688 324.68158 
L 113.282201 322.074468 
L 116.570713 319.467355 
L 119.859225 316.860242 
L 123.147737 314.253129 
L 126.43625 311.646016 
L 129.724762 309.038903 
L 133.013274 306.431791 
L 136.301786 303.824678 
L 139.590298 301.217565 
L 142.878811 298.610452 
L 146.167323 296.003339 
L 149.455835 293.396227 
L 152.744347 290.789114 
L 156.03286 288.182001 
L 159.321372 285.574888 
L 162.609884 282.967775 
L 165.898396 280.360662 
L 169.186909 277.75355 
L 172.475421 275.146437 
L 175.763933 272.539324 
L 179.052445 269.932211 
L 182.340957 267.325098 
L 185.62947 264.717986 
L 188.917982 262.110873 
L 192.206494 259.50376 
L 195.495006 256.896647 
L 198.783519 254.289534 
L 202.072031 251.682421 
L 205.360543 249.075309 
L 208.649055 246.468196 
L 211.937568 243.861083 
L 215.22608 241.25397 
L 218.514592 238.646857 
L 221.803104 236.039745 
L 225.091616 233.432632 
L 228.380129 230.825519 
L 231.668641 228.218406 
L 234.957153 225.611293 
L 238.245665 223.00418 
L 241.534178 220.397068 
L 244.82269 217.789955 
L 248.111202 215.182842 
L 251.399714 212.575729 
L 254.688227 209.968616 
L 257.976739 207.361504 
L 261.265251 204.754391 
L 264.553763 202.147278 
L 267.842275 199.540165 
L 271.130788 196.933052 
L 274.4193 194.325939 
L 277.707812 191.718827 
L 280.996324 189.111714 
L 284.284837 186.504601 
L 287.573349 183.897488 
L 290.861861 181.290375 
L 294.150373 178.683262 
L 297.438886 176.07615 
L 300.727398 173.469037 
L 304.01591 170.861924 
L 307.304422 168.254811 
L 310.592934 165.647698 
L 313.881447 163.040586 
L 317.169959 160.433473 
L 320.458471 157.82636 
L 323.746983 155.219247 
L 327.035496 152.612134 
L 330.324008 150.005021 
L 333.61252 147.397909 
L 336.901032 144.790796 
L 340.189544 142.183683 
L 343.478057 139.57657 
L 346.766569 136.969457 
L 350.055081 134.362345 
L 353.343593 131.755232 
L 356.632106 129.148119 
L 359.920618 126.541006 
L 363.20913 123.933893 
L 366.497642 121.32678 
L 369.786155 118.719668 
L 373.074667 116.112555 
L 376.363179 113.505442 
L 379.651691 110.898329 
L 382.940203 108.291216 
L 386.228716 105.684104 
L 389.517228 103.076991 
L 392.80574 100.469878 
L 396.094252 97.862765 
L 399.382765 95.255652 
L 402.671277 92.648539 
L 405.959789 90.041427 
L 409.248301 87.434314 
L 412.536814 84.827201 
L 415.825326 82.220088 
L 419.113838 79.612975 
" clip-path="url(#pfdfd540cc1)" style="fill: none; stroke: #aaaaaa; stroke-width: 2; stroke-linecap: square"/>
   </g>
   <g id="line2d_18">
    <defs>
     <path id="m978c5c8d78" d="M 0 3 
C 0.795609 3 1.55874 2.683901 2.12132 2.12132 
C 2.683901 1.55874 3 0.795609 3 0 
C 3 -0.795609 2.683901 -1.55874 2.12132 -2.12132 
C 1.55874 -2.683901 0.795609 -3 0 -3 
C -0.795609 -3 -1.55874 -2.683901 -2.12132 -2.12132 
C -2.683901 -1.55874 -3 -0.795609 -3 0 
C -3 0.795609 -2.683901 1.55874 -2.12132 2.12132 
C -1.55874 2.683901 -0.795609 3 0 3 
z
" style="stroke: #008aba"/>
    </defs>
    <g clip-path="url(#pfdfd540cc1)">
     <use xlink:href="#m978c5c8d78" x="359.175981" y="199.182448" style="fill: #008aba; stroke: #008aba"/>
     <use xlink:href="#m978c5c8d78" x="197.587512" y="214.771035" style="fill: #008aba; stroke: #008aba"/>
     <use xlink:href="#m978c5c8d78" x="299.807983" y="249.529506" style="fill: #008aba; stroke: #008aba"/>
     <use xlink:href="#m978c5c8d78" x="375.616017" y="234.001808" style="fill: #008aba; stroke: #008aba"/>
     <use xlink:href="#m978c5c8d78" x="387.898076" y="236.248668" style="fill: #008aba; stroke: #008aba"/>
     <use xlink:href="#m978c5c8d78" x="248.800333" y="267.360066" style="fill: #008aba; stroke: #008aba"/>
     <use xlink:href="#m978c5c8d78" x="328.138972" y="253.92812" style="fill: #008aba; stroke: #008aba"/>
     <use xlink:href="#m978c5c8d78" x="316.592271" y="244.59297" style="fill: #008aba; stroke: #008aba"/>
     <use xlink:href="#m978c5c8d78" x="396.559645" y="240.652466" style="fill: #008aba; stroke: #008aba"/>
     <use xlink:href="#m978c5c8d78" x="237.558008" y="285.200215" style="fill: #008aba; stroke: #008aba"/>
     <use xlink:href="#m978c5c8d78" x="278.299856" y="262.24023" style="fill: #008aba; stroke: #008aba"/>
     <use xlink:href="#m978c5c8d78" x="349.759517" y="265.048131" style="fill: #008aba; stroke: #008aba"/>
     <use xlink:href="#m978c5c8d78" x="309.521037" y="241.157076" style="fill: #008aba; stroke: #008aba"/>
     <use xlink:href="#m978c5c8d78" x="327.019321" y="270.479061" style="fill: #008aba; stroke: #008aba"/>
     <use xlink:href="#m978c5c8d78" x="222.942314" y="241.795592" style="fill: #008aba; stroke: #008aba"/>
     <use xlink:href="#m978c5c8d78" x="246.970071" y="120.339893" style="fill: #008aba; stroke: #008aba"/>
     <use xlink:href="#m978c5c8d78" x="470.280027" y="116.53772" style="fill: #008aba; stroke: #008aba"/>
     <use xlink:href="#m978c5c8d78" x="550.168873" y="200.974168" style="fill: #008aba; stroke: #008aba"/>
     <use xlink:href="#m978c5c8d78" x="430.442201" y="168.284091" style="fill: #008aba; stroke: #008aba"/>
     <use xlink:href="#m978c5c8d78" x="276.267113" y="205.65704" style="fill: #008aba; stroke: #008aba"/>
    </g>
   </g>
   <g id="line2d_19">
    <path d="M 197.587512 250.44392 
L 201.148939 249.786085 
L 204.710367 249.12825 
L 208.271795 248.470415 
L 211.833223 247.81258 
L 215.394651 247.154745 
L 218.956079 246.49691 
L 222.517507 245.839075 
L 226.078935 245.18124 
L 229.640363 244.523405 
L 233.20179 243.865571 
L 236.763218 243.207736 
L 240.324646 242.549901 
L 243.886074 241.892066 
L 247.447502 241.234231 
L 251.00893 240.576396 
L 254.570358 239.918561 
L 258.131786 239.260726 
L 261.693214 238.602891 
L 265.254641 237.945056 
L 268.816069 237.287222 
L 272.377497 236.629387 
L 275.938925 235.971552 
L 279.500353 235.313717 
L 283.061781 234.655882 
L 286.623209 233.998047 
L 290.184637 233.340212 
L 293.746065 232.682377 
L 297.307492 232.024542 
L 300.86892 231.366707 
L 304.430348 230.708873 
L 307.991776 230.051038 
L 311.553204 229.393203 
L 315.114632 228.735368 
L 318.67606 228.077533 
L 322.237488 227.419698 
L 325.798916 226.761863 
L 329.360344 226.104028 
L 332.921771 225.446193 
L 336.483199 224.788358 
L 340.044627 224.130524 
L 343.606055 223.472689 
L 347.167483 222.814854 
L 350.728911 222.157019 
L 354.290339 221.499184 
L 357.851767 220.841349 
L 361.413195 220.183514 
L 364.974622 219.525679 
L 368.53605 218.867844 
L 372.097478 218.210009 
L 375.658906 217.552175 
L 379.220334 216.89434 
L 382.781762 216.236505 
L 386.34319 215.57867 
L 389.904618 214.920835 
L 393.466046 214.263 
L 397.027473 213.605165 
L 400.588901 212.94733 
L 404.150329 212.289495 
L 407.711757 211.63166 
L 411.273185 210.973826 
L 414.834613 210.315991 
L 418.396041 209.658156 
L 421.957469 209.000321 
L 425.518897 208.342486 
L 429.080324 207.684651 
L 432.641752 207.026816 
L 436.20318 206.368981 
L 439.764608 205.711146 
L 443.326036 205.053312 
L 446.887464 204.395477 
L 450.448892 203.737642 
L 454.01032 203.079807 
L 457.571748 202.421972 
L 461.133175 201.764137 
L 464.694603 201.106302 
L 468.256031 200.448467 
L 471.817459 199.790632 
L 475.378887 199.132797 
L 478.940315 198.474963 
L 482.501743 197.817128 
L 486.063171 197.159293 
L 489.624599 196.501458 
L 493.186026 195.843623 
L 496.747454 195.185788 
L 500.308882 194.527953 
L 503.87031 193.870118 
L 507.431738 193.212283 
L 510.993166 192.554448 
L 514.554594 191.896614 
L 518.116022 191.238779 
L 521.67745 190.580944 
L 525.238877 189.923109 
L 528.800305 189.265274 
L 532.361733 188.607439 
L 535.923161 187.949604 
L 539.484589 187.291769 
L 543.046017 186.633934 
L 546.607445 185.976099 
L 550.168873 185.318265 
" clip-path="url(#pfdfd540cc1)" style="fill: none; stroke: #0060cf; stroke-width: 2; stroke-linecap: square"/>
   </g>
   <g id="patch_3">
    <path d="M 70.72024 387.02976 
L 70.72024 21.15774 
" style="fill: none; stroke: #000000; stroke-width: 0.8; stroke-linejoin: miter; stroke-linecap: square"/>
   </g>
   <g id="patch_4">
    <path d="M 572.99976 387.02976 
L 572.99976 21.15774 
" style="fill: none; stroke: #000000; stroke-width: 0.8; stroke-linejoin: miter; stroke-linecap: square"/>
   </g>
   <g id="patch_5">
    <path d="M 70.72024 387.02976 
L 572.99976 387.02976 
" style="fill: none; stroke: #000000; stroke-width: 0.8; stroke-linejoin: miter; stroke-linecap: square"/>
   </g>
   <g id="patch_6">
    <path d="M 70.72024 21.15774 
L 572.99976 21.15774 
" style="fill: none; stroke: #000000; stroke-width: 0.8; stroke-linejoin: miter; stroke-linecap: square"/>
   </g>
   <g id="text_18">
    <!-- $D$ band Shift vs. $I_{D}/I_{G}$ -->
    <g transform="translate(239.06 15.15774)scale(0.16 -0.16)">
     <defs>
      <path id="DejaVuSans-76" d="M 191 3500 
L 800 3500 
L 1894 563 
L 2988 3500 
L 3597 3500 
L 2284 0 
L 1503 0 
L 191 3500 
z
" transform="scale(0.015625)"/>
      <path id="DejaVuSans-73" d="M 2834 3397 
L 2834 2853 
Q 2591 2978 2328 3040 
Q 2066 3103 1784 3103 
Q 1356 3103 1142 2972 
Q 928 2841 928 2578 
Q 928 2378 1081 2264 
Q 1234 2150 1697 2047 
L 1894 2003 
Q 2506 1872 2764 1633 
Q 3022 1394 3022 966 
Q 3022 478 2636 193 
Q 2250 -91 1575 -91 
Q 1294 -91 989 -36 
Q 684 19 347 128 
L 347 722 
Q 666 556 975 473 
Q 1284 391 1588 391 
Q 1994 391 2212 530 
Q 2431 669 2431 922 
Q 2431 1156 2273 1281 
Q 2116 1406 1581 1522 
L 1381 1569 
Q 847 1681 609 1914 
Q 372 2147 372 2553 
Q 372 3047 722 3315 
Q 1072 3584 1716 3584 
Q 2034 3584 2315 3537 
Q 2597 3491 2834 3397 
z
" transform="scale(0.015625)"/>
     </defs>
     <use xlink:href="#DejaVuSans-Oblique-44" transform="translate(0 0.015625)"/>
     <use xlink:href="#DejaVuSans-20" transform="translate(77.001953 0.015625)"/>
     <use xlink:href="#DejaVuSans-62" transform="translate(108.789062 0.015625)"/>
     <use xlink:href="#DejaVuSans-61" transform="translate(172.265625 0.015625)"/>
     <use xlink:href="#DejaVuSans-6e" transform="translate(233.544922 0.015625)"/>
     <use xlink:href="#DejaVuSans-64" transform="translate(296.923828 0.015625)"/>
     <use xlink:href="#DejaVuSans-20" transform="translate(360.400391 0.015625)"/>
     <use xlink:href="#DejaVuSans-53" transform="translate(392.1875 0.015625)"/>
     <use xlink:href="#DejaVuSans-68" transform="translate(455.664062 0.015625)"/>
     <use xlink:href="#DejaVuSans-69" transform="translate(519.042969 0.015625)"/>
     <use xlink:href="#DejaVuSans-66" transform="translate(546.826172 0.015625)"/>
     <use xlink:href="#DejaVuSans-74" transform="translate(582.03125 0.015625)"/>
     <use xlink:href="#DejaVuSans-20" transform="translate(621.240234 0.015625)"/>
     <use xlink:href="#DejaVuSans-76" transform="translate(653.027344 0.015625)"/>
     <use xlink:href="#DejaVuSans-73" transform="translate(712.207031 0.015625)"/>
     <use xlink:href="#DejaVuSans-2e" transform="translate(764.306641 0.015625)"/>
     <use xlink:href="#DejaVuSans-20" transform="translate(796.09375 0.015625)"/>
     <use xlink:href="#DejaVuSans-Oblique-49" transform="translate(827.880859 0.015625)"/>
     <use xlink:href="#DejaVuSans-Oblique-44" transform="translate(857.373047 -16.390625)scale(0.7)"/>
     <use xlink:href="#DejaVuSans-2f" transform="translate(914.008789 0.015625)"/>
     <use xlink:href="#DejaVuSans-Oblique-49" transform="translate(947.700195 0.015625)"/>
     <use xlink:href="#DejaVuSans-Oblique-47" transform="translate(977.192383 -16.390625)scale(0.7)"/>
    </g>
   </g>
   <g id="legend_1">
    <g id="patch_7">
     <path d="M 79.82024 69.720865 
L 270.688677 69.720865 
Q 273.288678 69.720865 273.288678 67.120865 
L 273.288678 30.25774 
Q 273.288678 27.65774 270.688677 27.65774 
L 79.82024 27.65774 
Q 77.22024 27.65774 77.22024 30.25774 
L 77.22024 67.120865 
Q 77.22024 69.720865 79.82024 69.720865 
z
" style="fill: #ffffff; opacity: 0.8; stroke: #cccccc; stroke-linejoin: miter"/>
    </g>
    <g id="line2d_20">
     <g>
      <use xlink:href="#m83424ea8c3" x="95.42024" y="38.185709" style="fill: #6f6f6f; stroke: #6f6f6f"/>
     </g>
    </g>
    <g id="text_19">
     <!-- SWNT, slope=204.753 -->
     <g transform="translate(118.82024 42.735709)scale(0.13 -0.13)">
      <defs>
       <path id="DejaVuSans-57" d="M 213 4666 
L 850 4666 
L 1831 722 
L 2809 4666 
L 3519 4666 
L 4500 722 
L 5478 4666 
L 6119 4666 
L 4947 0 
L 4153 0 
L 3169 4050 
L 2175 0 
L 1381 0 
L 213 4666 
z
" transform="scale(0.015625)"/>
       <path id="DejaVuSans-4e" d="M 628 4666 
L 1478 4666 
L 3547 763 
L 3547 4666 
L 4159 4666 
L 4159 0 
L 3309 0 
L 1241 3903 
L 1241 0 
L 628 0 
L 628 4666 
z
" transform="scale(0.015625)"/>
       <path id="DejaVuSans-54" d="M -19 4666 
L 3928 4666 
L 3928 4134 
L 2272 4134 
L 2272 0 
L 1638 0 
L 1638 4134 
L -19 4134 
L -19 4666 
z
" transform="scale(0.015625)"/>
       <path id="DejaVuSans-2c" d="M 750 794 
L 1409 794 
L 1409 256 
L 897 -744 
L 494 -744 
L 750 256 
L 750 794 
z
" transform="scale(0.015625)"/>
       <path id="DejaVuSans-6c" d="M 603 4863 
L 1178 4863 
L 1178 0 
L 603 0 
L 603 4863 
z
" transform="scale(0.015625)"/>
       <path id="DejaVuSans-6f" d="M 1959 3097 
Q 1497 3097 1228 2736 
Q 959 2375 959 1747 
Q 959 1119 1226 758 
Q 1494 397 1959 397 
Q 2419 397 2687 759 
Q 2956 1122 2956 1747 
Q 2956 2369 2687 2733 
Q 2419 3097 1959 3097 
z
M 1959 3584 
Q 2709 3584 3137 3096 
Q 3566 2609 3566 1747 
Q 3566 888 3137 398 
Q 2709 -91 1959 -91 
Q 1206 -91 779 398 
Q 353 888 353 1747 
Q 353 2609 779 3096 
Q 1206 3584 1959 3584 
z
" transform="scale(0.015625)"/>
       <path id="DejaVuSans-70" d="M 1159 525 
L 1159 -1331 
L 581 -1331 
L 581 3500 
L 1159 3500 
L 1159 2969 
Q 1341 3281 1617 3432 
Q 1894 3584 2278 3584 
Q 2916 3584 3314 3078 
Q 3713 2572 3713 1747 
Q 3713 922 3314 415 
Q 2916 -91 2278 -91 
Q 1894 -91 1617 61 
Q 1341 213 1159 525 
z
M 3116 1747 
Q 3116 2381 2855 2742 
Q 2594 3103 2138 3103 
Q 1681 3103 1420 2742 
Q 1159 2381 1159 1747 
Q 1159 1113 1420 752 
Q 1681 391 2138 391 
Q 2594 391 2855 752 
Q 3116 1113 3116 1747 
z
" transform="scale(0.015625)"/>
       <path id="DejaVuSans-65" d="M 3597 1894 
L 3597 1613 
L 953 1613 
Q 991 1019 1311 708 
Q 1631 397 2203 397 
Q 2534 397 2845 478 
Q 3156 559 3463 722 
L 3463 178 
Q 3153 47 2828 -22 
Q 2503 -91 2169 -91 
Q 1331 -91 842 396 
Q 353 884 353 1716 
Q 353 2575 817 3079 
Q 1281 3584 2069 3584 
Q 2775 3584 3186 3129 
Q 3597 2675 3597 1894 
z
M 3022 2063 
Q 3016 2534 2758 2815 
Q 2500 3097 2075 3097 
Q 1594 3097 1305 2825 
Q 1016 2553 972 2059 
L 3022 2063 
z
" transform="scale(0.015625)"/>
       <path id="DejaVuSans-3d" d="M 678 2906 
L 4684 2906 
L 4684 2381 
L 678 2381 
L 678 2906 
z
M 678 1631 
L 4684 1631 
L 4684 1100 
L 678 1100 
L 678 1631 
z
" transform="scale(0.015625)"/>
      </defs>
      <use xlink:href="#DejaVuSans-53"/>
      <use xlink:href="#DejaVuSans-57" x="63.476562"/>
      <use xlink:href="#DejaVuSans-4e" x="162.353516"/>
      <use xlink:href="#DejaVuSans-54" x="237.158203"/>
      <use xlink:href="#DejaVuSans-2c" x="298.242188"/>
      <use xlink:href="#DejaVuSans-20" x="330.029297"/>
      <use xlink:href="#DejaVuSans-73" x="361.816406"/>
      <use xlink:href="#DejaVuSans-6c" x="413.916016"/>
      <use xlink:href="#DejaVuSans-6f" x="441.699219"/>
      <use xlink:href="#DejaVuSans-70" x="502.880859"/>
      <use xlink:href="#DejaVuSans-65" x="566.357422"/>
      <use xlink:href="#DejaVuSans-3d" x="627.880859"/>
      <use xlink:href="#DejaVuSans-32" x="711.669922"/>
      <use xlink:href="#DejaVuSans-30" x="775.292969"/>
      <use xlink:href="#DejaVuSans-34" x="838.916016"/>
      <use xlink:href="#DejaVuSans-2e" x="902.539062"/>
      <use xlink:href="#DejaVuSans-37" x="934.326172"/>
      <use xlink:href="#DejaVuSans-35" x="997.949219"/>
      <use xlink:href="#DejaVuSans-33" x="1061.572266"/>
     </g>
    </g>
    <g id="line2d_21">
     <g>
      <use xlink:href="#m978c5c8d78" x="95.42024" y="57.267271" style="fill: #008aba; stroke: #008aba"/>
     </g>
    </g>
    <g id="text_20">
     <!-- CuMINT, slope=47.705 -->
     <g transform="translate(118.82024 61.817271)scale(0.13 -0.13)">
      <defs>
       <path id="DejaVuSans-43" d="M 4122 4306 
L 4122 3641 
Q 3803 3938 3442 4084 
Q 3081 4231 2675 4231 
Q 1875 4231 1450 3742 
Q 1025 3253 1025 2328 
Q 1025 1406 1450 917 
Q 1875 428 2675 428 
Q 3081 428 3442 575 
Q 3803 722 4122 1019 
L 4122 359 
Q 3791 134 3420 21 
Q 3050 -91 2638 -91 
Q 1578 -91 968 557 
Q 359 1206 359 2328 
Q 359 3453 968 4101 
Q 1578 4750 2638 4750 
Q 3056 4750 3426 4639 
Q 3797 4528 4122 4306 
z
" transform="scale(0.015625)"/>
       <path id="DejaVuSans-75" d="M 544 1381 
L 544 3500 
L 1119 3500 
L 1119 1403 
Q 1119 906 1312 657 
Q 1506 409 1894 409 
Q 2359 409 2629 706 
Q 2900 1003 2900 1516 
L 2900 3500 
L 3475 3500 
L 3475 0 
L 2900 0 
L 2900 538 
Q 2691 219 2414 64 
Q 2138 -91 1772 -91 
Q 1169 -91 856 284 
Q 544 659 544 1381 
z
M 1991 3584 
L 1991 3584 
z
" transform="scale(0.015625)"/>
       <path id="DejaVuSans-4d" d="M 628 4666 
L 1569 4666 
L 2759 1491 
L 3956 4666 
L 4897 4666 
L 4897 0 
L 4281 0 
L 4281 4097 
L 3078 897 
L 2444 897 
L 1241 4097 
L 1241 0 
L 628 0 
L 628 4666 
z
" transform="scale(0.015625)"/>
       <path id="DejaVuSans-49" d="M 628 4666 
L 1259 4666 
L 1259 0 
L 628 0 
L 628 4666 
z
" transform="scale(0.015625)"/>
      </defs>
      <use xlink:href="#DejaVuSans-43"/>
      <use xlink:href="#DejaVuSans-75" x="69.824219"/>
      <use xlink:href="#DejaVuSans-4d" x="133.203125"/>
      <use xlink:href="#DejaVuSans-49" x="219.482422"/>
      <use xlink:href="#DejaVuSans-4e" x="248.974609"/>
      <use xlink:href="#DejaVuSans-54" x="323.779297"/>
      <use xlink:href="#DejaVuSans-2c" x="384.863281"/>
      <use xlink:href="#DejaVuSans-20" x="416.650391"/>
      <use xlink:href="#DejaVuSans-73" x="448.4375"/>
      <use xlink:href="#DejaVuSans-6c" x="500.537109"/>
      <use xlink:href="#DejaVuSans-6f" x="528.320312"/>
      <use xlink:href="#DejaVuSans-70" x="589.501953"/>
      <use xlink:href="#DejaVuSans-65" x="652.978516"/>
      <use xlink:href="#DejaVuSans-3d" x="714.501953"/>
      <use xlink:href="#DejaVuSans-34" x="798.291016"/>
      <use xlink:href="#DejaVuSans-37" x="861.914062"/>
      <use xlink:href="#DejaVuSans-2e" x="925.537109"/>
      <use xlink:href="#DejaVuSans-37" x="957.324219"/>
      <use xlink:href="#DejaVuSans-30" x="1020.947266"/>
      <use xlink:href="#DejaVuSans-35" x="1084.570312"/>
     </g>
    </g>
   </g>
  </g>
 </g>
 <defs>
  <clipPath id="pfdfd540cc1">
   <rect x="70.72024" y="21.15774" width="502.27952" height="365.87202"/>
  </clipPath>
 </defs>
</svg>
