<?xml version="1.0" encoding="utf-8" standalone="no"?>
<!DOCTYPE svg PUBLIC "-//W3C//DTD SVG 1.1//EN"
  "http://www.w3.org/Graphics/SVG/1.1/DTD/svg11.dtd">
<svg xmlns:xlink="http://www.w3.org/1999/xlink" width="576pt" height="432pt" viewBox="0 0 576 432" xmlns="http://www.w3.org/2000/svg" version="1.1">
 <metadata>
  <rdf:RDF xmlns:dc="http://purl.org/dc/elements/1.1/" xmlns:cc="http://creativecommons.org/ns#" xmlns:rdf="http://www.w3.org/1999/02/22-rdf-syntax-ns#">
   <cc:Work>
    <dc:type rdf:resource="http://purl.org/dc/dcmitype/StillImage"/>
    <dc:date>2023-07-12T12:53:21.590123</dc:date>
    <dc:format>image/svg+xml</dc:format>
    <dc:creator>
     <cc:Agent>
      <dc:title>Matplotlib v3.5.2, https://matplotlib.org/</dc:title>
     </cc:Agent>
    </dc:creator>
   </cc:Work>
  </rdf:RDF>
 </metadata>
 <defs>
  <style type="text/css">*{stroke-linejoin: round; stroke-linecap: butt}</style>
 </defs>
 <g id="figure_1">
  <g id="patch_1">
   <path d="M 0 432 
L 576 432 
L 576 0 
L 0 0 
z
" style="fill: #ffffff"/>
  </g>
  <g id="axes_1">
   <g id="patch_2">
    <path d="M 65.11024 386.51476 
L 572.99976 386.51476 
L 572.99976 22.677427 
L 65.11024 22.677427 
z
" style="fill: #ffffff"/>
   </g>
   <g id="patch_3">
    <path d="M 231.108763 386.51476 
L 242.102042 386.51476 
L 242.102042 386.51476 
L 231.108763 386.51476 
z
" clip-path="url(#p18b74b099c)" style="fill: #727272; opacity: 0.5; stroke: #000000; stroke-linejoin: miter"/>
   </g>
   <g id="patch_4">
    <path d="M 242.102042 386.51476 
L 253.095322 386.51476 
L 253.095322 190.376036 
L 242.102042 190.376036 
z
" clip-path="url(#p18b74b099c)" style="fill: #727272; opacity: 0.5; stroke: #000000; stroke-linejoin: miter"/>
   </g>
   <g id="patch_5">
    <path d="M 253.095322 386.51476 
L 264.088602 386.51476 
L 264.088602 386.51476 
L 253.095322 386.51476 
z
" clip-path="url(#p18b74b099c)" style="fill: #727272; opacity: 0.5; stroke: #000000; stroke-linejoin: miter"/>
   </g>
   <g id="patch_6">
    <path d="M 264.088602 386.51476 
L 275.081881 386.51476 
L 275.081881 386.51476 
L 264.088602 386.51476 
z
" clip-path="url(#p18b74b099c)" style="fill: #727272; opacity: 0.5; stroke: #000000; stroke-linejoin: miter"/>
   </g>
   <g id="patch_7">
    <path d="M 275.081881 386.51476 
L 286.075161 386.51476 
L 286.075161 386.51476 
L 275.081881 386.51476 
z
" clip-path="url(#p18b74b099c)" style="fill: #727272; opacity: 0.5; stroke: #000000; stroke-linejoin: miter"/>
   </g>
   <g id="patch_8">
    <path d="M 286.075161 386.51476 
L 297.068441 386.51476 
L 297.068441 386.51476 
L 286.075161 386.51476 
z
" clip-path="url(#p18b74b099c)" style="fill: #727272; opacity: 0.5; stroke: #000000; stroke-linejoin: miter"/>
   </g>
   <g id="patch_9">
    <path d="M 297.068441 386.51476 
L 308.06172 386.51476 
L 308.06172 386.51476 
L 297.068441 386.51476 
z
" clip-path="url(#p18b74b099c)" style="fill: #727272; opacity: 0.5; stroke: #000000; stroke-linejoin: miter"/>
   </g>
   <g id="patch_10">
    <path d="M 308.06172 386.51476 
L 319.055 386.51476 
L 319.055 386.51476 
L 308.06172 386.51476 
z
" clip-path="url(#p18b74b099c)" style="fill: #727272; opacity: 0.5; stroke: #000000; stroke-linejoin: miter"/>
   </g>
   <g id="patch_11">
    <path d="M 319.055 386.51476 
L 330.04828 386.51476 
L 330.04828 386.51476 
L 319.055 386.51476 
z
" clip-path="url(#p18b74b099c)" style="fill: #727272; opacity: 0.5; stroke: #000000; stroke-linejoin: miter"/>
   </g>
   <g id="patch_12">
    <path d="M 330.04828 386.51476 
L 341.041559 386.51476 
L 341.041559 386.51476 
L 330.04828 386.51476 
z
" clip-path="url(#p18b74b099c)" style="fill: #727272; opacity: 0.5; stroke: #000000; stroke-linejoin: miter"/>
   </g>
   <g id="patch_13">
    <path d="M 341.041559 386.51476 
L 352.034839 386.51476 
L 352.034839 131.534419 
L 341.041559 131.534419 
z
" clip-path="url(#p18b74b099c)" style="fill: #727272; opacity: 0.5; stroke: #000000; stroke-linejoin: miter"/>
   </g>
   <g id="patch_14">
    <path d="M 352.034839 386.51476 
L 363.028119 386.51476 
L 363.028119 288.445398 
L 352.034839 288.445398 
z
" clip-path="url(#p18b74b099c)" style="fill: #727272; opacity: 0.5; stroke: #000000; stroke-linejoin: miter"/>
   </g>
   <g id="patch_15">
    <path d="M 363.028119 386.51476 
L 374.021398 386.51476 
L 374.021398 386.51476 
L 363.028119 386.51476 
z
" clip-path="url(#p18b74b099c)" style="fill: #727272; opacity: 0.5; stroke: #000000; stroke-linejoin: miter"/>
   </g>
   <g id="patch_16">
    <path d="M 374.021398 386.51476 
L 385.014678 386.51476 
L 385.014678 386.51476 
L 374.021398 386.51476 
z
" clip-path="url(#p18b74b099c)" style="fill: #727272; opacity: 0.5; stroke: #000000; stroke-linejoin: miter"/>
   </g>
   <g id="patch_17">
    <path d="M 385.014678 386.51476 
L 396.007958 386.51476 
L 396.007958 386.51476 
L 385.014678 386.51476 
z
" clip-path="url(#p18b74b099c)" style="fill: #727272; opacity: 0.5; stroke: #000000; stroke-linejoin: miter"/>
   </g>
   <g id="patch_18">
    <path d="M 396.007958 386.51476 
L 407.001237 386.51476 
L 407.001237 366.900888 
L 396.007958 366.900888 
z
" clip-path="url(#p18b74b099c)" style="fill: #727272; opacity: 0.5; stroke: #000000; stroke-linejoin: miter"/>
   </g>
   <g id="patch_19">
    <path d="M 407.001237 386.51476 
L 417.994517 386.51476 
L 417.994517 386.51476 
L 407.001237 386.51476 
z
" clip-path="url(#p18b74b099c)" style="fill: #727272; opacity: 0.5; stroke: #000000; stroke-linejoin: miter"/>
   </g>
   <g id="patch_20">
    <path d="M 417.994517 386.51476 
L 428.987797 386.51476 
L 428.987797 386.51476 
L 417.994517 386.51476 
z
" clip-path="url(#p18b74b099c)" style="fill: #727272; opacity: 0.5; stroke: #000000; stroke-linejoin: miter"/>
   </g>
   <g id="patch_21">
    <path d="M 428.987797 386.51476 
L 439.981076 386.51476 
L 439.981076 72.692802 
L 428.987797 72.692802 
z
" clip-path="url(#p18b74b099c)" style="fill: #727272; opacity: 0.5; stroke: #000000; stroke-linejoin: miter"/>
   </g>
   <g id="patch_22">
    <path d="M 439.981076 386.51476 
L 450.974356 386.51476 
L 450.974356 347.287015 
L 439.981076 347.287015 
z
" clip-path="url(#p18b74b099c)" style="fill: #727272; opacity: 0.5; stroke: #000000; stroke-linejoin: miter"/>
   </g>
   <g id="patch_23">
    <path d="M 450.974356 386.51476 
L 461.967635 386.51476 
L 461.967635 386.51476 
L 450.974356 386.51476 
z
" clip-path="url(#p18b74b099c)" style="fill: #727272; opacity: 0.5; stroke: #000000; stroke-linejoin: miter"/>
   </g>
   <g id="patch_24">
    <path d="M 461.967635 386.51476 
L 472.960915 386.51476 
L 472.960915 386.51476 
L 461.967635 386.51476 
z
" clip-path="url(#p18b74b099c)" style="fill: #727272; opacity: 0.5; stroke: #000000; stroke-linejoin: miter"/>
   </g>
   <g id="patch_25">
    <path d="M 472.960915 386.51476 
L 483.954195 386.51476 
L 483.954195 386.51476 
L 472.960915 386.51476 
z
" clip-path="url(#p18b74b099c)" style="fill: #727272; opacity: 0.5; stroke: #000000; stroke-linejoin: miter"/>
   </g>
   <g id="patch_26">
    <path d="M 483.954195 386.51476 
L 494.947474 386.51476 
L 494.947474 386.51476 
L 483.954195 386.51476 
z
" clip-path="url(#p18b74b099c)" style="fill: #727272; opacity: 0.5; stroke: #000000; stroke-linejoin: miter"/>
   </g>
   <g id="patch_27">
    <path d="M 494.947474 386.51476 
L 505.940754 386.51476 
L 505.940754 386.51476 
L 494.947474 386.51476 
z
" clip-path="url(#p18b74b099c)" style="fill: #727272; opacity: 0.5; stroke: #000000; stroke-linejoin: miter"/>
   </g>
   <g id="patch_28">
    <path d="M 505.940754 386.51476 
L 516.934034 386.51476 
L 516.934034 386.51476 
L 505.940754 386.51476 
z
" clip-path="url(#p18b74b099c)" style="fill: #727272; opacity: 0.5; stroke: #000000; stroke-linejoin: miter"/>
   </g>
   <g id="patch_29">
    <path d="M 516.934034 386.51476 
L 527.927313 386.51476 
L 527.927313 386.51476 
L 516.934034 386.51476 
z
" clip-path="url(#p18b74b099c)" style="fill: #727272; opacity: 0.5; stroke: #000000; stroke-linejoin: miter"/>
   </g>
   <g id="patch_30">
    <path d="M 527.927313 386.51476 
L 538.920593 386.51476 
L 538.920593 268.831526 
L 527.927313 268.831526 
z
" clip-path="url(#p18b74b099c)" style="fill: #727272; opacity: 0.5; stroke: #000000; stroke-linejoin: miter"/>
   </g>
   <g id="patch_31">
    <path d="M 88.196127 386.51476 
L 99.189407 386.51476 
L 99.189407 386.51476 
L 88.196127 386.51476 
z
" clip-path="url(#p18b74b099c)" style="fill: #008aba; opacity: 0.5; stroke: #000000; stroke-linejoin: miter"/>
   </g>
   <g id="patch_32">
    <path d="M 99.189407 386.51476 
L 110.182687 386.51476 
L 110.182687 350.039839 
L 99.189407 350.039839 
z
" clip-path="url(#p18b74b099c)" style="fill: #008aba; opacity: 0.5; stroke: #000000; stroke-linejoin: miter"/>
   </g>
   <g id="patch_33">
    <path d="M 110.182687 386.51476 
L 121.175966 386.51476 
L 121.175966 386.51476 
L 110.182687 386.51476 
z
" clip-path="url(#p18b74b099c)" style="fill: #008aba; opacity: 0.5; stroke: #000000; stroke-linejoin: miter"/>
   </g>
   <g id="patch_34">
    <path d="M 121.175966 386.51476 
L 132.169246 386.51476 
L 132.169246 386.51476 
L 121.175966 386.51476 
z
" clip-path="url(#p18b74b099c)" style="fill: #008aba; opacity: 0.5; stroke: #000000; stroke-linejoin: miter"/>
   </g>
   <g id="patch_35">
    <path d="M 132.169246 386.51476 
L 143.162526 386.51476 
L 143.162526 386.51476 
L 132.169246 386.51476 
z
" clip-path="url(#p18b74b099c)" style="fill: #008aba; opacity: 0.5; stroke: #000000; stroke-linejoin: miter"/>
   </g>
   <g id="patch_36">
    <path d="M 143.162526 386.51476 
L 154.155805 386.51476 
L 154.155805 386.51476 
L 143.162526 386.51476 
z
" clip-path="url(#p18b74b099c)" style="fill: #008aba; opacity: 0.5; stroke: #000000; stroke-linejoin: miter"/>
   </g>
   <g id="patch_37">
    <path d="M 154.155805 386.51476 
L 165.149085 386.51476 
L 165.149085 386.51476 
L 154.155805 386.51476 
z
" clip-path="url(#p18b74b099c)" style="fill: #008aba; opacity: 0.5; stroke: #000000; stroke-linejoin: miter"/>
   </g>
   <g id="patch_38">
    <path d="M 165.149085 386.51476 
L 176.142365 386.51476 
L 176.142365 386.51476 
L 165.149085 386.51476 
z
" clip-path="url(#p18b74b099c)" style="fill: #008aba; opacity: 0.5; stroke: #000000; stroke-linejoin: miter"/>
   </g>
   <g id="patch_39">
    <path d="M 176.142365 386.51476 
L 187.135644 386.51476 
L 187.135644 386.51476 
L 176.142365 386.51476 
z
" clip-path="url(#p18b74b099c)" style="fill: #008aba; opacity: 0.5; stroke: #000000; stroke-linejoin: miter"/>
   </g>
   <g id="patch_40">
    <path d="M 187.135644 386.51476 
L 198.128924 386.51476 
L 198.128924 386.51476 
L 187.135644 386.51476 
z
" clip-path="url(#p18b74b099c)" style="fill: #008aba; opacity: 0.5; stroke: #000000; stroke-linejoin: miter"/>
   </g>
   <g id="patch_41">
    <path d="M 198.128924 386.51476 
L 209.122203 386.51476 
L 209.122203 386.51476 
L 198.128924 386.51476 
z
" clip-path="url(#p18b74b099c)" style="fill: #008aba; opacity: 0.5; stroke: #000000; stroke-linejoin: miter"/>
   </g>
   <g id="patch_42">
    <path d="M 209.122203 386.51476 
L 220.115483 386.51476 
L 220.115483 386.51476 
L 209.122203 386.51476 
z
" clip-path="url(#p18b74b099c)" style="fill: #008aba; opacity: 0.5; stroke: #000000; stroke-linejoin: miter"/>
   </g>
   <g id="patch_43">
    <path d="M 220.115483 386.51476 
L 231.108763 386.51476 
L 231.108763 386.51476 
L 220.115483 386.51476 
z
" clip-path="url(#p18b74b099c)" style="fill: #008aba; opacity: 0.5; stroke: #000000; stroke-linejoin: miter"/>
   </g>
   <g id="patch_44">
    <path d="M 231.108763 386.51476 
L 242.102042 386.51476 
L 242.102042 386.51476 
L 231.108763 386.51476 
z
" clip-path="url(#p18b74b099c)" style="fill: #008aba; opacity: 0.5; stroke: #000000; stroke-linejoin: miter"/>
   </g>
   <g id="patch_45">
    <path d="M 242.102042 386.51476 
L 253.095322 386.51476 
L 253.095322 350.039839 
L 242.102042 350.039839 
z
" clip-path="url(#p18b74b099c)" style="fill: #008aba; opacity: 0.5; stroke: #000000; stroke-linejoin: miter"/>
   </g>
   <g id="patch_46">
    <path d="M 253.095322 386.51476 
L 264.088602 386.51476 
L 264.088602 277.089998 
L 253.095322 277.089998 
z
" clip-path="url(#p18b74b099c)" style="fill: #008aba; opacity: 0.5; stroke: #000000; stroke-linejoin: miter"/>
   </g>
   <g id="patch_47">
    <path d="M 264.088602 386.51476 
L 275.081881 386.51476 
L 275.081881 386.51476 
L 264.088602 386.51476 
z
" clip-path="url(#p18b74b099c)" style="fill: #008aba; opacity: 0.5; stroke: #000000; stroke-linejoin: miter"/>
   </g>
   <g id="patch_48">
    <path d="M 275.081881 386.51476 
L 286.075161 386.51476 
L 286.075161 386.51476 
L 275.081881 386.51476 
z
" clip-path="url(#p18b74b099c)" style="fill: #008aba; opacity: 0.5; stroke: #000000; stroke-linejoin: miter"/>
   </g>
   <g id="patch_49">
    <path d="M 286.075161 386.51476 
L 297.068441 386.51476 
L 297.068441 386.51476 
L 286.075161 386.51476 
z
" clip-path="url(#p18b74b099c)" style="fill: #008aba; opacity: 0.5; stroke: #000000; stroke-linejoin: miter"/>
   </g>
   <g id="patch_50">
    <path d="M 297.068441 386.51476 
L 308.06172 386.51476 
L 308.06172 386.51476 
L 297.068441 386.51476 
z
" clip-path="url(#p18b74b099c)" style="fill: #008aba; opacity: 0.5; stroke: #000000; stroke-linejoin: miter"/>
   </g>
   <g id="patch_51">
    <path d="M 308.06172 386.51476 
L 319.055 386.51476 
L 319.055 386.51476 
L 308.06172 386.51476 
z
" clip-path="url(#p18b74b099c)" style="fill: #008aba; opacity: 0.5; stroke: #000000; stroke-linejoin: miter"/>
   </g>
   <g id="patch_52">
    <path d="M 319.055 386.51476 
L 330.04828 386.51476 
L 330.04828 386.51476 
L 319.055 386.51476 
z
" clip-path="url(#p18b74b099c)" style="fill: #008aba; opacity: 0.5; stroke: #000000; stroke-linejoin: miter"/>
   </g>
   <g id="patch_53">
    <path d="M 330.04828 386.51476 
L 341.041559 386.51476 
L 341.041559 386.51476 
L 330.04828 386.51476 
z
" clip-path="url(#p18b74b099c)" style="fill: #008aba; opacity: 0.5; stroke: #000000; stroke-linejoin: miter"/>
   </g>
   <g id="patch_54">
    <path d="M 341.041559 386.51476 
L 352.034839 386.51476 
L 352.034839 368.2773 
L 341.041559 368.2773 
z
" clip-path="url(#p18b74b099c)" style="fill: #008aba; opacity: 0.5; stroke: #000000; stroke-linejoin: miter"/>
   </g>
   <g id="patch_55">
    <path d="M 352.034839 386.51476 
L 363.028119 386.51476 
L 363.028119 40.003015 
L 352.034839 40.003015 
z
" clip-path="url(#p18b74b099c)" style="fill: #008aba; opacity: 0.5; stroke: #000000; stroke-linejoin: miter"/>
   </g>
   <g id="patch_56">
    <path d="M 363.028119 386.51476 
L 374.021398 386.51476 
L 374.021398 386.51476 
L 363.028119 386.51476 
z
" clip-path="url(#p18b74b099c)" style="fill: #008aba; opacity: 0.5; stroke: #000000; stroke-linejoin: miter"/>
   </g>
   <g id="patch_57">
    <path d="M 374.021398 386.51476 
L 385.014678 386.51476 
L 385.014678 386.51476 
L 374.021398 386.51476 
z
" clip-path="url(#p18b74b099c)" style="fill: #008aba; opacity: 0.5; stroke: #000000; stroke-linejoin: miter"/>
   </g>
   <g id="patch_58">
    <path d="M 385.014678 386.51476 
L 396.007958 386.51476 
L 396.007958 386.51476 
L 385.014678 386.51476 
z
" clip-path="url(#p18b74b099c)" style="fill: #008aba; opacity: 0.5; stroke: #000000; stroke-linejoin: miter"/>
   </g>
   <g id="patch_59">
    <path d="M 396.007958 386.51476 
L 407.001237 386.51476 
L 407.001237 386.51476 
L 396.007958 386.51476 
z
" clip-path="url(#p18b74b099c)" style="fill: #008aba; opacity: 0.5; stroke: #000000; stroke-linejoin: miter"/>
   </g>
   <g id="patch_60">
    <path d="M 407.001237 386.51476 
L 417.994517 386.51476 
L 417.994517 386.51476 
L 407.001237 386.51476 
z
" clip-path="url(#p18b74b099c)" style="fill: #008aba; opacity: 0.5; stroke: #000000; stroke-linejoin: miter"/>
   </g>
   <g id="patch_61">
    <path d="M 417.994517 386.51476 
L 428.987797 386.51476 
L 428.987797 386.51476 
L 417.994517 386.51476 
z
" clip-path="url(#p18b74b099c)" style="fill: #008aba; opacity: 0.5; stroke: #000000; stroke-linejoin: miter"/>
   </g>
   <g id="patch_62">
    <path d="M 428.987797 386.51476 
L 439.981076 386.51476 
L 439.981076 331.802379 
L 428.987797 331.802379 
z
" clip-path="url(#p18b74b099c)" style="fill: #008aba; opacity: 0.5; stroke: #000000; stroke-linejoin: miter"/>
   </g>
   <g id="patch_63">
    <path d="M 439.981076 386.51476 
L 450.974356 386.51476 
L 450.974356 94.715396 
L 439.981076 94.715396 
z
" clip-path="url(#p18b74b099c)" style="fill: #008aba; opacity: 0.5; stroke: #000000; stroke-linejoin: miter"/>
   </g>
   <g id="patch_64">
    <path d="M 450.974356 386.51476 
L 461.967635 386.51476 
L 461.967635 368.2773 
L 450.974356 368.2773 
z
" clip-path="url(#p18b74b099c)" style="fill: #008aba; opacity: 0.5; stroke: #000000; stroke-linejoin: miter"/>
   </g>
   <g id="patch_65">
    <path d="M 461.967635 386.51476 
L 472.960915 386.51476 
L 472.960915 386.51476 
L 461.967635 386.51476 
z
" clip-path="url(#p18b74b099c)" style="fill: #008aba; opacity: 0.5; stroke: #000000; stroke-linejoin: miter"/>
   </g>
   <g id="patch_66">
    <path d="M 472.960915 386.51476 
L 483.954195 386.51476 
L 483.954195 386.51476 
L 472.960915 386.51476 
z
" clip-path="url(#p18b74b099c)" style="fill: #008aba; opacity: 0.5; stroke: #000000; stroke-linejoin: miter"/>
   </g>
   <g id="patch_67">
    <path d="M 483.954195 386.51476 
L 494.947474 386.51476 
L 494.947474 386.51476 
L 483.954195 386.51476 
z
" clip-path="url(#p18b74b099c)" style="fill: #008aba; opacity: 0.5; stroke: #000000; stroke-linejoin: miter"/>
   </g>
   <g id="patch_68">
    <path d="M 494.947474 386.51476 
L 505.940754 386.51476 
L 505.940754 386.51476 
L 494.947474 386.51476 
z
" clip-path="url(#p18b74b099c)" style="fill: #008aba; opacity: 0.5; stroke: #000000; stroke-linejoin: miter"/>
   </g>
   <g id="patch_69">
    <path d="M 505.940754 386.51476 
L 516.934034 386.51476 
L 516.934034 386.51476 
L 505.940754 386.51476 
z
" clip-path="url(#p18b74b099c)" style="fill: #008aba; opacity: 0.5; stroke: #000000; stroke-linejoin: miter"/>
   </g>
   <g id="patch_70">
    <path d="M 516.934034 386.51476 
L 527.927313 386.51476 
L 527.927313 386.51476 
L 516.934034 386.51476 
z
" clip-path="url(#p18b74b099c)" style="fill: #008aba; opacity: 0.5; stroke: #000000; stroke-linejoin: miter"/>
   </g>
   <g id="patch_71">
    <path d="M 527.927313 386.51476 
L 538.920593 386.51476 
L 538.920593 386.51476 
L 527.927313 386.51476 
z
" clip-path="url(#p18b74b099c)" style="fill: #008aba; opacity: 0.5; stroke: #000000; stroke-linejoin: miter"/>
   </g>
   <g id="patch_72">
    <path d="M 538.920593 386.51476 
L 549.913873 386.51476 
L 549.913873 258.852538 
L 538.920593 258.852538 
z
" clip-path="url(#p18b74b099c)" style="fill: #008aba; opacity: 0.5; stroke: #000000; stroke-linejoin: miter"/>
   </g>
   <g id="matplotlib.axis_1">
    <g id="xtick_1">
     <g id="line2d_1">
      <defs>
       <path id="m75f2918291" d="M 0 0 
L 0 3.5 
" style="stroke: #000000; stroke-width: 0.8"/>
      </defs>
      <g>
       <use xlink:href="#m75f2918291" x="97.357194" y="386.51476" style="stroke: #000000; stroke-width: 0.8"/>
      </g>
     </g>
     <g id="text_1">
      <!-- 210 -->
      <g transform="translate(82.087194 405.67226)scale(0.16 -0.16)">
       <defs>
        <path id="DejaVuSans-32" d="M 1228 531 
L 3431 531 
L 3431 0 
L 469 0 
L 469 531 
Q 828 903 1448 1529 
Q 2069 2156 2228 2338 
Q 2531 2678 2651 2914 
Q 2772 3150 2772 3378 
Q 2772 3750 2511 3984 
Q 2250 4219 1831 4219 
Q 1534 4219 1204 4116 
Q 875 4013 500 3803 
L 500 4441 
Q 881 4594 1212 4672 
Q 1544 4750 1819 4750 
Q 2544 4750 2975 4387 
Q 3406 4025 3406 3419 
Q 3406 3131 3298 2873 
Q 3191 2616 2906 2266 
Q 2828 2175 2409 1742 
Q 1991 1309 1228 531 
z
" transform="scale(0.015625)"/>
        <path id="DejaVuSans-31" d="M 794 531 
L 1825 531 
L 1825 4091 
L 703 3866 
L 703 4441 
L 1819 4666 
L 2450 4666 
L 2450 531 
L 3481 531 
L 3481 0 
L 794 0 
L 794 531 
z
" transform="scale(0.015625)"/>
        <path id="DejaVuSans-30" d="M 2034 4250 
Q 1547 4250 1301 3770 
Q 1056 3291 1056 2328 
Q 1056 1369 1301 889 
Q 1547 409 2034 409 
Q 2525 409 2770 889 
Q 3016 1369 3016 2328 
Q 3016 3291 2770 3770 
Q 2525 4250 2034 4250 
z
M 2034 4750 
Q 2819 4750 3233 4129 
Q 3647 3509 3647 2328 
Q 3647 1150 3233 529 
Q 2819 -91 2034 -91 
Q 1250 -91 836 529 
Q 422 1150 422 2328 
Q 422 3509 836 4129 
Q 1250 4750 2034 4750 
z
" transform="scale(0.015625)"/>
       </defs>
       <use xlink:href="#DejaVuSans-32"/>
       <use xlink:href="#DejaVuSans-31" x="63.623047"/>
       <use xlink:href="#DejaVuSans-30" x="127.246094"/>
      </g>
     </g>
    </g>
    <g id="xtick_2">
     <g id="line2d_2">
      <g>
       <use xlink:href="#m75f2918291" x="152.323592" y="386.51476" style="stroke: #000000; stroke-width: 0.8"/>
      </g>
     </g>
     <g id="text_2">
      <!-- 225 -->
      <g transform="translate(137.053592 405.67226)scale(0.16 -0.16)">
       <defs>
        <path id="DejaVuSans-35" d="M 691 4666 
L 3169 4666 
L 3169 4134 
L 1269 4134 
L 1269 2991 
Q 1406 3038 1543 3061 
Q 1681 3084 1819 3084 
Q 2600 3084 3056 2656 
Q 3513 2228 3513 1497 
Q 3513 744 3044 326 
Q 2575 -91 1722 -91 
Q 1428 -91 1123 -41 
Q 819 9 494 109 
L 494 744 
Q 775 591 1075 516 
Q 1375 441 1709 441 
Q 2250 441 2565 725 
Q 2881 1009 2881 1497 
Q 2881 1984 2565 2268 
Q 2250 2553 1709 2553 
Q 1456 2553 1204 2497 
Q 953 2441 691 2322 
L 691 4666 
z
" transform="scale(0.015625)"/>
       </defs>
       <use xlink:href="#DejaVuSans-32"/>
       <use xlink:href="#DejaVuSans-32" x="63.623047"/>
       <use xlink:href="#DejaVuSans-35" x="127.246094"/>
      </g>
     </g>
    </g>
    <g id="xtick_3">
     <g id="line2d_3">
      <g>
       <use xlink:href="#m75f2918291" x="207.28999" y="386.51476" style="stroke: #000000; stroke-width: 0.8"/>
      </g>
     </g>
     <g id="text_3">
      <!-- 240 -->
      <g transform="translate(192.01999 405.67226)scale(0.16 -0.16)">
       <defs>
        <path id="DejaVuSans-34" d="M 2419 4116 
L 825 1625 
L 2419 1625 
L 2419 4116 
z
M 2253 4666 
L 3047 4666 
L 3047 1625 
L 3713 1625 
L 3713 1100 
L 3047 1100 
L 3047 0 
L 2419 0 
L 2419 1100 
L 313 1100 
L 313 1709 
L 2253 4666 
z
" transform="scale(0.015625)"/>
       </defs>
       <use xlink:href="#DejaVuSans-32"/>
       <use xlink:href="#DejaVuSans-34" x="63.623047"/>
       <use xlink:href="#DejaVuSans-30" x="127.246094"/>
      </g>
     </g>
    </g>
    <g id="xtick_4">
     <g id="line2d_4">
      <g>
       <use xlink:href="#m75f2918291" x="262.256388" y="386.51476" style="stroke: #000000; stroke-width: 0.8"/>
      </g>
     </g>
     <g id="text_4">
      <!-- 255 -->
      <g transform="translate(246.986388 405.67226)scale(0.16 -0.16)">
       <use xlink:href="#DejaVuSans-32"/>
       <use xlink:href="#DejaVuSans-35" x="63.623047"/>
       <use xlink:href="#DejaVuSans-35" x="127.246094"/>
      </g>
     </g>
    </g>
    <g id="xtick_5">
     <g id="line2d_5">
      <g>
       <use xlink:href="#m75f2918291" x="317.222787" y="386.51476" style="stroke: #000000; stroke-width: 0.8"/>
      </g>
     </g>
     <g id="text_5">
      <!-- 270 -->
      <g transform="translate(301.952787 405.67226)scale(0.16 -0.16)">
       <defs>
        <path id="DejaVuSans-37" d="M 525 4666 
L 3525 4666 
L 3525 4397 
L 1831 0 
L 1172 0 
L 2766 4134 
L 525 4134 
L 525 4666 
z
" transform="scale(0.015625)"/>
       </defs>
       <use xlink:href="#DejaVuSans-32"/>
       <use xlink:href="#DejaVuSans-37" x="63.623047"/>
       <use xlink:href="#DejaVuSans-30" x="127.246094"/>
      </g>
     </g>
    </g>
    <g id="xtick_6">
     <g id="line2d_6">
      <g>
       <use xlink:href="#m75f2918291" x="372.189185" y="386.51476" style="stroke: #000000; stroke-width: 0.8"/>
      </g>
     </g>
     <g id="text_6">
      <!-- 285 -->
      <g transform="translate(356.919185 405.67226)scale(0.16 -0.16)">
       <defs>
        <path id="DejaVuSans-38" d="M 2034 2216 
Q 1584 2216 1326 1975 
Q 1069 1734 1069 1313 
Q 1069 891 1326 650 
Q 1584 409 2034 409 
Q 2484 409 2743 651 
Q 3003 894 3003 1313 
Q 3003 1734 2745 1975 
Q 2488 2216 2034 2216 
z
M 1403 2484 
Q 997 2584 770 2862 
Q 544 3141 544 3541 
Q 544 4100 942 4425 
Q 1341 4750 2034 4750 
Q 2731 4750 3128 4425 
Q 3525 4100 3525 3541 
Q 3525 3141 3298 2862 
Q 3072 2584 2669 2484 
Q 3125 2378 3379 2068 
Q 3634 1759 3634 1313 
Q 3634 634 3220 271 
Q 2806 -91 2034 -91 
Q 1263 -91 848 271 
Q 434 634 434 1313 
Q 434 1759 690 2068 
Q 947 2378 1403 2484 
z
M 1172 3481 
Q 1172 3119 1398 2916 
Q 1625 2713 2034 2713 
Q 2441 2713 2670 2916 
Q 2900 3119 2900 3481 
Q 2900 3844 2670 4047 
Q 2441 4250 2034 4250 
Q 1625 4250 1398 4047 
Q 1172 3844 1172 3481 
z
" transform="scale(0.015625)"/>
       </defs>
       <use xlink:href="#DejaVuSans-32"/>
       <use xlink:href="#DejaVuSans-38" x="63.623047"/>
       <use xlink:href="#DejaVuSans-35" x="127.246094"/>
      </g>
     </g>
    </g>
    <g id="xtick_7">
     <g id="line2d_7">
      <g>
       <use xlink:href="#m75f2918291" x="427.155583" y="386.51476" style="stroke: #000000; stroke-width: 0.8"/>
      </g>
     </g>
     <g id="text_7">
      <!-- 300 -->
      <g transform="translate(411.885583 405.67226)scale(0.16 -0.16)">
       <defs>
        <path id="DejaVuSans-33" d="M 2597 2516 
Q 3050 2419 3304 2112 
Q 3559 1806 3559 1356 
Q 3559 666 3084 287 
Q 2609 -91 1734 -91 
Q 1441 -91 1130 -33 
Q 819 25 488 141 
L 488 750 
Q 750 597 1062 519 
Q 1375 441 1716 441 
Q 2309 441 2620 675 
Q 2931 909 2931 1356 
Q 2931 1769 2642 2001 
Q 2353 2234 1838 2234 
L 1294 2234 
L 1294 2753 
L 1863 2753 
Q 2328 2753 2575 2939 
Q 2822 3125 2822 3475 
Q 2822 3834 2567 4026 
Q 2313 4219 1838 4219 
Q 1578 4219 1281 4162 
Q 984 4106 628 3988 
L 628 4550 
Q 988 4650 1302 4700 
Q 1616 4750 1894 4750 
Q 2613 4750 3031 4423 
Q 3450 4097 3450 3541 
Q 3450 3153 3228 2886 
Q 3006 2619 2597 2516 
z
" transform="scale(0.015625)"/>
       </defs>
       <use xlink:href="#DejaVuSans-33"/>
       <use xlink:href="#DejaVuSans-30" x="63.623047"/>
       <use xlink:href="#DejaVuSans-30" x="127.246094"/>
      </g>
     </g>
    </g>
    <g id="xtick_8">
     <g id="line2d_8">
      <g>
       <use xlink:href="#m75f2918291" x="482.121982" y="386.51476" style="stroke: #000000; stroke-width: 0.8"/>
      </g>
     </g>
     <g id="text_8">
      <!-- 315 -->
      <g transform="translate(466.851982 405.67226)scale(0.16 -0.16)">
       <use xlink:href="#DejaVuSans-33"/>
       <use xlink:href="#DejaVuSans-31" x="63.623047"/>
       <use xlink:href="#DejaVuSans-35" x="127.246094"/>
      </g>
     </g>
    </g>
    <g id="xtick_9">
     <g id="line2d_9">
      <g>
       <use xlink:href="#m75f2918291" x="537.08838" y="386.51476" style="stroke: #000000; stroke-width: 0.8"/>
      </g>
     </g>
     <g id="text_9">
      <!-- 330 -->
      <g transform="translate(521.81838 405.67226)scale(0.16 -0.16)">
       <use xlink:href="#DejaVuSans-33"/>
       <use xlink:href="#DejaVuSans-33" x="63.623047"/>
       <use xlink:href="#DejaVuSans-30" x="127.246094"/>
      </g>
     </g>
    </g>
    <g id="text_10">
     <!-- Raman shift / $cm^{-1}$ -->
     <g transform="translate(242.015 425.67226)scale(0.16 -0.16)">
      <defs>
       <path id="DejaVuSans-52" d="M 2841 2188 
Q 3044 2119 3236 1894 
Q 3428 1669 3622 1275 
L 4263 0 
L 3584 0 
L 2988 1197 
Q 2756 1666 2539 1819 
Q 2322 1972 1947 1972 
L 1259 1972 
L 1259 0 
L 628 0 
L 628 4666 
L 2053 4666 
Q 2853 4666 3247 4331 
Q 3641 3997 3641 3322 
Q 3641 2881 3436 2590 
Q 3231 2300 2841 2188 
z
M 1259 4147 
L 1259 2491 
L 2053 2491 
Q 2509 2491 2742 2702 
Q 2975 2913 2975 3322 
Q 2975 3731 2742 3939 
Q 2509 4147 2053 4147 
L 1259 4147 
z
" transform="scale(0.015625)"/>
       <path id="DejaVuSans-61" d="M 2194 1759 
Q 1497 1759 1228 1600 
Q 959 1441 959 1056 
Q 959 750 1161 570 
Q 1363 391 1709 391 
Q 2188 391 2477 730 
Q 2766 1069 2766 1631 
L 2766 1759 
L 2194 1759 
z
M 3341 1997 
L 3341 0 
L 2766 0 
L 2766 531 
Q 2569 213 2275 61 
Q 1981 -91 1556 -91 
Q 1019 -91 701 211 
Q 384 513 384 1019 
Q 384 1609 779 1909 
Q 1175 2209 1959 2209 
L 2766 2209 
L 2766 2266 
Q 2766 2663 2505 2880 
Q 2244 3097 1772 3097 
Q 1472 3097 1187 3025 
Q 903 2953 641 2809 
L 641 3341 
Q 956 3463 1253 3523 
Q 1550 3584 1831 3584 
Q 2591 3584 2966 3190 
Q 3341 2797 3341 1997 
z
" transform="scale(0.015625)"/>
       <path id="DejaVuSans-6d" d="M 3328 2828 
Q 3544 3216 3844 3400 
Q 4144 3584 4550 3584 
Q 5097 3584 5394 3201 
Q 5691 2819 5691 2113 
L 5691 0 
L 5113 0 
L 5113 2094 
Q 5113 2597 4934 2840 
Q 4756 3084 4391 3084 
Q 3944 3084 3684 2787 
Q 3425 2491 3425 1978 
L 3425 0 
L 2847 0 
L 2847 2094 
Q 2847 2600 2669 2842 
Q 2491 3084 2119 3084 
Q 1678 3084 1418 2786 
Q 1159 2488 1159 1978 
L 1159 0 
L 581 0 
L 581 3500 
L 1159 3500 
L 1159 2956 
Q 1356 3278 1631 3431 
Q 1906 3584 2284 3584 
Q 2666 3584 2933 3390 
Q 3200 3197 3328 2828 
z
" transform="scale(0.015625)"/>
       <path id="DejaVuSans-6e" d="M 3513 2113 
L 3513 0 
L 2938 0 
L 2938 2094 
Q 2938 2591 2744 2837 
Q 2550 3084 2163 3084 
Q 1697 3084 1428 2787 
Q 1159 2491 1159 1978 
L 1159 0 
L 581 0 
L 581 3500 
L 1159 3500 
L 1159 2956 
Q 1366 3272 1645 3428 
Q 1925 3584 2291 3584 
Q 2894 3584 3203 3211 
Q 3513 2838 3513 2113 
z
" transform="scale(0.015625)"/>
       <path id="DejaVuSans-20" transform="scale(0.015625)"/>
       <path id="DejaVuSans-73" d="M 2834 3397 
L 2834 2853 
Q 2591 2978 2328 3040 
Q 2066 3103 1784 3103 
Q 1356 3103 1142 2972 
Q 928 2841 928 2578 
Q 928 2378 1081 2264 
Q 1234 2150 1697 2047 
L 1894 2003 
Q 2506 1872 2764 1633 
Q 3022 1394 3022 966 
Q 3022 478 2636 193 
Q 2250 -91 1575 -91 
Q 1294 -91 989 -36 
Q 684 19 347 128 
L 347 722 
Q 666 556 975 473 
Q 1284 391 1588 391 
Q 1994 391 2212 530 
Q 2431 669 2431 922 
Q 2431 1156 2273 1281 
Q 2116 1406 1581 1522 
L 1381 1569 
Q 847 1681 609 1914 
Q 372 2147 372 2553 
Q 372 3047 722 3315 
Q 1072 3584 1716 3584 
Q 2034 3584 2315 3537 
Q 2597 3491 2834 3397 
z
" transform="scale(0.015625)"/>
       <path id="DejaVuSans-68" d="M 3513 2113 
L 3513 0 
L 2938 0 
L 2938 2094 
Q 2938 2591 2744 2837 
Q 2550 3084 2163 3084 
Q 1697 3084 1428 2787 
Q 1159 2491 1159 1978 
L 1159 0 
L 581 0 
L 581 4863 
L 1159 4863 
L 1159 2956 
Q 1366 3272 1645 3428 
Q 1925 3584 2291 3584 
Q 2894 3584 3203 3211 
Q 3513 2838 3513 2113 
z
" transform="scale(0.015625)"/>
       <path id="DejaVuSans-69" d="M 603 3500 
L 1178 3500 
L 1178 0 
L 603 0 
L 603 3500 
z
M 603 4863 
L 1178 4863 
L 1178 4134 
L 603 4134 
L 603 4863 
z
" transform="scale(0.015625)"/>
       <path id="DejaVuSans-66" d="M 2375 4863 
L 2375 4384 
L 1825 4384 
Q 1516 4384 1395 4259 
Q 1275 4134 1275 3809 
L 1275 3500 
L 2222 3500 
L 2222 3053 
L 1275 3053 
L 1275 0 
L 697 0 
L 697 3053 
L 147 3053 
L 147 3500 
L 697 3500 
L 697 3744 
Q 697 4328 969 4595 
Q 1241 4863 1831 4863 
L 2375 4863 
z
" transform="scale(0.015625)"/>
       <path id="DejaVuSans-74" d="M 1172 4494 
L 1172 3500 
L 2356 3500 
L 2356 3053 
L 1172 3053 
L 1172 1153 
Q 1172 725 1289 603 
Q 1406 481 1766 481 
L 2356 481 
L 2356 0 
L 1766 0 
Q 1100 0 847 248 
Q 594 497 594 1153 
L 594 3053 
L 172 3053 
L 172 3500 
L 594 3500 
L 594 4494 
L 1172 4494 
z
" transform="scale(0.015625)"/>
       <path id="DejaVuSans-2f" d="M 1625 4666 
L 2156 4666 
L 531 -594 
L 0 -594 
L 1625 4666 
z
" transform="scale(0.015625)"/>
       <path id="DejaVuSans-Oblique-63" d="M 3431 3366 
L 3316 2797 
Q 3109 2947 2876 3022 
Q 2644 3097 2394 3097 
Q 2119 3097 1870 3000 
Q 1622 2903 1453 2725 
Q 1184 2453 1037 2087 
Q 891 1722 891 1331 
Q 891 859 1127 628 
Q 1363 397 1844 397 
Q 2081 397 2348 469 
Q 2616 541 2906 684 
L 2797 116 
Q 2547 13 2283 -39 
Q 2019 -91 1741 -91 
Q 1044 -91 669 257 
Q 294 606 294 1253 
Q 294 1797 489 2255 
Q 684 2713 1069 3078 
Q 1331 3328 1684 3456 
Q 2038 3584 2456 3584 
Q 2700 3584 2940 3529 
Q 3181 3475 3431 3366 
z
" transform="scale(0.015625)"/>
       <path id="DejaVuSans-Oblique-6d" d="M 5747 2113 
L 5338 0 
L 4763 0 
L 5166 2094 
Q 5191 2228 5203 2325 
Q 5216 2422 5216 2491 
Q 5216 2772 5059 2928 
Q 4903 3084 4622 3084 
Q 4203 3084 3875 2770 
Q 3547 2456 3450 1953 
L 3066 0 
L 2491 0 
L 2900 2094 
Q 2925 2209 2937 2307 
Q 2950 2406 2950 2484 
Q 2950 2769 2794 2926 
Q 2638 3084 2363 3084 
Q 1938 3084 1609 2770 
Q 1281 2456 1184 1953 
L 800 0 
L 225 0 
L 909 3500 
L 1484 3500 
L 1375 2956 
Q 1609 3263 1923 3423 
Q 2238 3584 2597 3584 
Q 2978 3584 3223 3384 
Q 3469 3184 3519 2828 
Q 3781 3197 4126 3390 
Q 4472 3584 4856 3584 
Q 5306 3584 5551 3325 
Q 5797 3066 5797 2591 
Q 5797 2488 5784 2364 
Q 5772 2241 5747 2113 
z
" transform="scale(0.015625)"/>
       <path id="DejaVuSans-2212" d="M 678 2272 
L 4684 2272 
L 4684 1741 
L 678 1741 
L 678 2272 
z
" transform="scale(0.015625)"/>
      </defs>
      <use xlink:href="#DejaVuSans-52" transform="translate(0 0.684375)"/>
      <use xlink:href="#DejaVuSans-61" transform="translate(69.482422 0.684375)"/>
      <use xlink:href="#DejaVuSans-6d" transform="translate(130.761719 0.684375)"/>
      <use xlink:href="#DejaVuSans-61" transform="translate(228.173828 0.684375)"/>
      <use xlink:href="#DejaVuSans-6e" transform="translate(289.453125 0.684375)"/>
      <use xlink:href="#DejaVuSans-20" transform="translate(352.832031 0.684375)"/>
      <use xlink:href="#DejaVuSans-73" transform="translate(384.619141 0.684375)"/>
      <use xlink:href="#DejaVuSans-68" transform="translate(436.71875 0.684375)"/>
      <use xlink:href="#DejaVuSans-69" transform="translate(500.097656 0.684375)"/>
      <use xlink:href="#DejaVuSans-66" transform="translate(527.880859 0.684375)"/>
      <use xlink:href="#DejaVuSans-74" transform="translate(563.085938 0.684375)"/>
      <use xlink:href="#DejaVuSans-20" transform="translate(602.294922 0.684375)"/>
      <use xlink:href="#DejaVuSans-2f" transform="translate(634.082031 0.684375)"/>
      <use xlink:href="#DejaVuSans-20" transform="translate(667.773438 0.684375)"/>
      <use xlink:href="#DejaVuSans-Oblique-63" transform="translate(699.560547 0.684375)"/>
      <use xlink:href="#DejaVuSans-Oblique-6d" transform="translate(754.541016 0.684375)"/>
      <use xlink:href="#DejaVuSans-2212" transform="translate(856.603021 38.965625)scale(0.7)"/>
      <use xlink:href="#DejaVuSans-31" transform="translate(915.255365 38.965625)scale(0.7)"/>
     </g>
    </g>
   </g>
   <g id="matplotlib.axis_2">
    <g id="ytick_1">
     <g id="line2d_10">
      <defs>
       <path id="mbdb24bbdc7" d="M 0 0 
L -3.5 0 
" style="stroke: #000000; stroke-width: 0.8"/>
      </defs>
      <g>
       <use xlink:href="#mbdb24bbdc7" x="65.11024" y="386.51476" style="stroke: #000000; stroke-width: 0.8"/>
      </g>
     </g>
     <g id="text_11">
      <!-- 0.00 -->
      <g transform="translate(22.48524 392.59351)scale(0.16 -0.16)">
       <defs>
        <path id="DejaVuSans-2e" d="M 684 794 
L 1344 794 
L 1344 0 
L 684 0 
L 684 794 
z
" transform="scale(0.015625)"/>
       </defs>
       <use xlink:href="#DejaVuSans-30"/>
       <use xlink:href="#DejaVuSans-2e" x="63.623047"/>
       <use xlink:href="#DejaVuSans-30" x="95.410156"/>
       <use xlink:href="#DejaVuSans-30" x="159.033203"/>
      </g>
     </g>
    </g>
    <g id="ytick_2">
     <g id="line2d_11">
      <g>
       <use xlink:href="#mbdb24bbdc7" x="65.11024" y="324.142646" style="stroke: #000000; stroke-width: 0.8"/>
      </g>
     </g>
     <g id="text_12">
      <!-- 0.02 -->
      <g transform="translate(22.48524 330.221396)scale(0.16 -0.16)">
       <use xlink:href="#DejaVuSans-30"/>
       <use xlink:href="#DejaVuSans-2e" x="63.623047"/>
       <use xlink:href="#DejaVuSans-30" x="95.410156"/>
       <use xlink:href="#DejaVuSans-32" x="159.033203"/>
      </g>
     </g>
    </g>
    <g id="ytick_3">
     <g id="line2d_12">
      <g>
       <use xlink:href="#mbdb24bbdc7" x="65.11024" y="261.770532" style="stroke: #000000; stroke-width: 0.8"/>
      </g>
     </g>
     <g id="text_13">
      <!-- 0.04 -->
      <g transform="translate(22.48524 267.849282)scale(0.16 -0.16)">
       <use xlink:href="#DejaVuSans-30"/>
       <use xlink:href="#DejaVuSans-2e" x="63.623047"/>
       <use xlink:href="#DejaVuSans-30" x="95.410156"/>
       <use xlink:href="#DejaVuSans-34" x="159.033203"/>
      </g>
     </g>
    </g>
    <g id="ytick_4">
     <g id="line2d_13">
      <g>
       <use xlink:href="#mbdb24bbdc7" x="65.11024" y="199.398418" style="stroke: #000000; stroke-width: 0.8"/>
      </g>
     </g>
     <g id="text_14">
      <!-- 0.06 -->
      <g transform="translate(22.48524 205.477168)scale(0.16 -0.16)">
       <defs>
        <path id="DejaVuSans-36" d="M 2113 2584 
Q 1688 2584 1439 2293 
Q 1191 2003 1191 1497 
Q 1191 994 1439 701 
Q 1688 409 2113 409 
Q 2538 409 2786 701 
Q 3034 994 3034 1497 
Q 3034 2003 2786 2293 
Q 2538 2584 2113 2584 
z
M 3366 4563 
L 3366 3988 
Q 3128 4100 2886 4159 
Q 2644 4219 2406 4219 
Q 1781 4219 1451 3797 
Q 1122 3375 1075 2522 
Q 1259 2794 1537 2939 
Q 1816 3084 2150 3084 
Q 2853 3084 3261 2657 
Q 3669 2231 3669 1497 
Q 3669 778 3244 343 
Q 2819 -91 2113 -91 
Q 1303 -91 875 529 
Q 447 1150 447 2328 
Q 447 3434 972 4092 
Q 1497 4750 2381 4750 
Q 2619 4750 2861 4703 
Q 3103 4656 3366 4563 
z
" transform="scale(0.015625)"/>
       </defs>
       <use xlink:href="#DejaVuSans-30"/>
       <use xlink:href="#DejaVuSans-2e" x="63.623047"/>
       <use xlink:href="#DejaVuSans-30" x="95.410156"/>
       <use xlink:href="#DejaVuSans-36" x="159.033203"/>
      </g>
     </g>
    </g>
    <g id="ytick_5">
     <g id="line2d_14">
      <g>
       <use xlink:href="#mbdb24bbdc7" x="65.11024" y="137.026303" style="stroke: #000000; stroke-width: 0.8"/>
      </g>
     </g>
     <g id="text_15">
      <!-- 0.08 -->
      <g transform="translate(22.48524 143.105053)scale(0.16 -0.16)">
       <use xlink:href="#DejaVuSans-30"/>
       <use xlink:href="#DejaVuSans-2e" x="63.623047"/>
       <use xlink:href="#DejaVuSans-30" x="95.410156"/>
       <use xlink:href="#DejaVuSans-38" x="159.033203"/>
      </g>
     </g>
    </g>
    <g id="ytick_6">
     <g id="line2d_15">
      <g>
       <use xlink:href="#mbdb24bbdc7" x="65.11024" y="74.654189" style="stroke: #000000; stroke-width: 0.8"/>
      </g>
     </g>
     <g id="text_16">
      <!-- 0.10 -->
      <g transform="translate(22.48524 80.732939)scale(0.16 -0.16)">
       <use xlink:href="#DejaVuSans-30"/>
       <use xlink:href="#DejaVuSans-2e" x="63.623047"/>
       <use xlink:href="#DejaVuSans-31" x="95.410156"/>
       <use xlink:href="#DejaVuSans-30" x="159.033203"/>
      </g>
     </g>
    </g>
    <g id="text_17">
     <!-- counts -->
     <g transform="translate(15.15774 231.333594)rotate(-90)scale(0.16 -0.16)">
      <defs>
       <path id="DejaVuSans-63" d="M 3122 3366 
L 3122 2828 
Q 2878 2963 2633 3030 
Q 2388 3097 2138 3097 
Q 1578 3097 1268 2742 
Q 959 2388 959 1747 
Q 959 1106 1268 751 
Q 1578 397 2138 397 
Q 2388 397 2633 464 
Q 2878 531 3122 666 
L 3122 134 
Q 2881 22 2623 -34 
Q 2366 -91 2075 -91 
Q 1284 -91 818 406 
Q 353 903 353 1747 
Q 353 2603 823 3093 
Q 1294 3584 2113 3584 
Q 2378 3584 2631 3529 
Q 2884 3475 3122 3366 
z
" transform="scale(0.015625)"/>
       <path id="DejaVuSans-6f" d="M 1959 3097 
Q 1497 3097 1228 2736 
Q 959 2375 959 1747 
Q 959 1119 1226 758 
Q 1494 397 1959 397 
Q 2419 397 2687 759 
Q 2956 1122 2956 1747 
Q 2956 2369 2687 2733 
Q 2419 3097 1959 3097 
z
M 1959 3584 
Q 2709 3584 3137 3096 
Q 3566 2609 3566 1747 
Q 3566 888 3137 398 
Q 2709 -91 1959 -91 
Q 1206 -91 779 398 
Q 353 888 353 1747 
Q 353 2609 779 3096 
Q 1206 3584 1959 3584 
z
" transform="scale(0.015625)"/>
       <path id="DejaVuSans-75" d="M 544 1381 
L 544 3500 
L 1119 3500 
L 1119 1403 
Q 1119 906 1312 657 
Q 1506 409 1894 409 
Q 2359 409 2629 706 
Q 2900 1003 2900 1516 
L 2900 3500 
L 3475 3500 
L 3475 0 
L 2900 0 
L 2900 538 
Q 2691 219 2414 64 
Q 2138 -91 1772 -91 
Q 1169 -91 856 284 
Q 544 659 544 1381 
z
M 1991 3584 
L 1991 3584 
z
" transform="scale(0.015625)"/>
      </defs>
      <use xlink:href="#DejaVuSans-63"/>
      <use xlink:href="#DejaVuSans-6f" x="54.980469"/>
      <use xlink:href="#DejaVuSans-75" x="116.162109"/>
      <use xlink:href="#DejaVuSans-6e" x="179.541016"/>
      <use xlink:href="#DejaVuSans-74" x="242.919922"/>
      <use xlink:href="#DejaVuSans-73" x="282.128906"/>
     </g>
    </g>
   </g>
   <g id="patch_73">
    <path d="M 65.11024 386.51476 
L 65.11024 22.677427 
" style="fill: none; stroke: #000000; stroke-width: 0.8; stroke-linejoin: miter; stroke-linecap: square"/>
   </g>
   <g id="patch_74">
    <path d="M 572.99976 386.51476 
L 572.99976 22.677427 
" style="fill: none; stroke: #000000; stroke-width: 0.8; stroke-linejoin: miter; stroke-linecap: square"/>
   </g>
   <g id="patch_75">
    <path d="M 65.11024 386.51476 
L 572.99976 386.51476 
" style="fill: none; stroke: #000000; stroke-width: 0.8; stroke-linejoin: miter; stroke-linecap: square"/>
   </g>
   <g id="patch_76">
    <path d="M 65.11024 22.677427 
L 572.99976 22.677427 
" style="fill: none; stroke: #000000; stroke-width: 0.8; stroke-linejoin: miter; stroke-linecap: square"/>
   </g>
   <g id="text_18">
    <!-- Raman shift $RBM$ modes -->
    <g transform="translate(208.715 16.677427)scale(0.18 -0.18)">
     <defs>
      <path id="DejaVuSans-Oblique-52" d="M 1613 4147 
L 1294 2491 
L 2106 2491 
Q 2584 2491 2879 2755 
Q 3175 3019 3175 3444 
Q 3175 3784 2976 3965 
Q 2778 4147 2406 4147 
L 1613 4147 
z
M 2772 2241 
Q 2972 2194 3105 2009 
Q 3238 1825 3413 1275 
L 3809 0 
L 3144 0 
L 2778 1197 
Q 2638 1659 2453 1815 
Q 2269 1972 1888 1972 
L 1191 1972 
L 806 0 
L 172 0 
L 1081 4666 
L 2503 4666 
Q 3150 4666 3495 4373 
Q 3841 4081 3841 3531 
Q 3841 3044 3547 2687 
Q 3253 2331 2772 2241 
z
" transform="scale(0.015625)"/>
      <path id="DejaVuSans-Oblique-42" d="M 1081 4666 
L 2694 4666 
Q 3350 4666 3675 4422 
Q 4000 4178 4000 3688 
Q 4000 3238 3720 2911 
Q 3441 2584 2988 2516 
Q 3375 2428 3569 2181 
Q 3763 1934 3763 1522 
Q 3763 819 3242 409 
Q 2722 0 1819 0 
L 172 0 
L 1081 4666 
z
M 1234 2228 
L 903 519 
L 1919 519 
Q 2491 519 2800 781 
Q 3109 1044 3109 1522 
Q 3109 1891 2904 2059 
Q 2700 2228 2247 2228 
L 1234 2228 
z
M 1606 4147 
L 1331 2741 
L 2272 2741 
Q 2775 2741 3058 2959 
Q 3341 3178 3341 3566 
Q 3341 3869 3150 4008 
Q 2959 4147 2541 4147 
L 1606 4147 
z
" transform="scale(0.015625)"/>
      <path id="DejaVuSans-Oblique-4d" d="M 1081 4666 
L 2028 4666 
L 2572 1522 
L 4378 4666 
L 5350 4666 
L 4441 0 
L 3828 0 
L 4622 4091 
L 2791 897 
L 2175 897 
L 1581 4103 
L 788 0 
L 172 0 
L 1081 4666 
z
" transform="scale(0.015625)"/>
      <path id="DejaVuSans-64" d="M 2906 2969 
L 2906 4863 
L 3481 4863 
L 3481 0 
L 2906 0 
L 2906 525 
Q 2725 213 2448 61 
Q 2172 -91 1784 -91 
Q 1150 -91 751 415 
Q 353 922 353 1747 
Q 353 2572 751 3078 
Q 1150 3584 1784 3584 
Q 2172 3584 2448 3432 
Q 2725 3281 2906 2969 
z
M 947 1747 
Q 947 1113 1208 752 
Q 1469 391 1925 391 
Q 2381 391 2643 752 
Q 2906 1113 2906 1747 
Q 2906 2381 2643 2742 
Q 2381 3103 1925 3103 
Q 1469 3103 1208 2742 
Q 947 2381 947 1747 
z
" transform="scale(0.015625)"/>
      <path id="DejaVuSans-65" d="M 3597 1894 
L 3597 1613 
L 953 1613 
Q 991 1019 1311 708 
Q 1631 397 2203 397 
Q 2534 397 2845 478 
Q 3156 559 3463 722 
L 3463 178 
Q 3153 47 2828 -22 
Q 2503 -91 2169 -91 
Q 1331 -91 842 396 
Q 353 884 353 1716 
Q 353 2575 817 3079 
Q 1281 3584 2069 3584 
Q 2775 3584 3186 3129 
Q 3597 2675 3597 1894 
z
M 3022 2063 
Q 3016 2534 2758 2815 
Q 2500 3097 2075 3097 
Q 1594 3097 1305 2825 
Q 1016 2553 972 2059 
L 3022 2063 
z
" transform="scale(0.015625)"/>
     </defs>
     <use xlink:href="#DejaVuSans-52" transform="translate(0 0.015625)"/>
     <use xlink:href="#DejaVuSans-61" transform="translate(69.482422 0.015625)"/>
     <use xlink:href="#DejaVuSans-6d" transform="translate(130.761719 0.015625)"/>
     <use xlink:href="#DejaVuSans-61" transform="translate(228.173828 0.015625)"/>
     <use xlink:href="#DejaVuSans-6e" transform="translate(289.453125 0.015625)"/>
     <use xlink:href="#DejaVuSans-20" transform="translate(352.832031 0.015625)"/>
     <use xlink:href="#DejaVuSans-73" transform="translate(384.619141 0.015625)"/>
     <use xlink:href="#DejaVuSans-68" transform="translate(436.71875 0.015625)"/>
     <use xlink:href="#DejaVuSans-69" transform="translate(500.097656 0.015625)"/>
     <use xlink:href="#DejaVuSans-66" transform="translate(527.880859 0.015625)"/>
     <use xlink:href="#DejaVuSans-74" transform="translate(563.085938 0.015625)"/>
     <use xlink:href="#DejaVuSans-20" transform="translate(602.294922 0.015625)"/>
     <use xlink:href="#DejaVuSans-Oblique-52" transform="translate(634.082031 0.015625)"/>
     <use xlink:href="#DejaVuSans-Oblique-42" transform="translate(703.564453 0.015625)"/>
     <use xlink:href="#DejaVuSans-Oblique-4d" transform="translate(772.167969 0.015625)"/>
     <use xlink:href="#DejaVuSans-20" transform="translate(858.447266 0.015625)"/>
     <use xlink:href="#DejaVuSans-6d" transform="translate(890.234375 0.015625)"/>
     <use xlink:href="#DejaVuSans-6f" transform="translate(987.646484 0.015625)"/>
     <use xlink:href="#DejaVuSans-64" transform="translate(1048.828125 0.015625)"/>
     <use xlink:href="#DejaVuSans-65" transform="translate(1112.304688 0.015625)"/>
     <use xlink:href="#DejaVuSans-73" transform="translate(1173.828125 0.015625)"/>
    </g>
   </g>
   <g id="legend_1">
    <g id="patch_77">
     <path d="M 102.73976 76.437427 
L 563.19976 76.437427 
Q 565.99976 76.437427 565.99976 73.637427 
L 565.99976 32.477427 
Q 565.99976 29.677427 563.19976 29.677427 
L 102.73976 29.677427 
Q 99.93976 29.677427 99.93976 32.477427 
L 99.93976 73.637427 
Q 99.93976 76.437427 102.73976 76.437427 
z
" style="fill: #ffffff; opacity: 0.8; stroke: #cccccc; stroke-linejoin: miter"/>
    </g>
    <g id="patch_78">
     <path d="M 105.53976 46.645865 
L 133.53976 46.645865 
L 133.53976 36.845865 
L 105.53976 36.845865 
z
" style="fill: #727272; opacity: 0.5; stroke: #000000; stroke-linejoin: miter"/>
    </g>
    <g id="text_19">
     <!-- 6,5 SWNT: 252.0 $\pm$ 0.45, 297.51 $\pm$ 17.5 $cm^{-1}$ -->
     <g transform="translate(144.73976 46.645865)scale(0.14 -0.14)">
      <defs>
       <path id="DejaVuSans-2c" d="M 750 794 
L 1409 794 
L 1409 256 
L 897 -744 
L 494 -744 
L 750 256 
L 750 794 
z
" transform="scale(0.015625)"/>
       <path id="DejaVuSans-53" d="M 3425 4513 
L 3425 3897 
Q 3066 4069 2747 4153 
Q 2428 4238 2131 4238 
Q 1616 4238 1336 4038 
Q 1056 3838 1056 3469 
Q 1056 3159 1242 3001 
Q 1428 2844 1947 2747 
L 2328 2669 
Q 3034 2534 3370 2195 
Q 3706 1856 3706 1288 
Q 3706 609 3251 259 
Q 2797 -91 1919 -91 
Q 1588 -91 1214 -16 
Q 841 59 441 206 
L 441 856 
Q 825 641 1194 531 
Q 1563 422 1919 422 
Q 2459 422 2753 634 
Q 3047 847 3047 1241 
Q 3047 1584 2836 1778 
Q 2625 1972 2144 2069 
L 1759 2144 
Q 1053 2284 737 2584 
Q 422 2884 422 3419 
Q 422 4038 858 4394 
Q 1294 4750 2059 4750 
Q 2388 4750 2728 4690 
Q 3069 4631 3425 4513 
z
" transform="scale(0.015625)"/>
       <path id="DejaVuSans-57" d="M 213 4666 
L 850 4666 
L 1831 722 
L 2809 4666 
L 3519 4666 
L 4500 722 
L 5478 4666 
L 6119 4666 
L 4947 0 
L 4153 0 
L 3169 4050 
L 2175 0 
L 1381 0 
L 213 4666 
z
" transform="scale(0.015625)"/>
       <path id="DejaVuSans-4e" d="M 628 4666 
L 1478 4666 
L 3547 763 
L 3547 4666 
L 4159 4666 
L 4159 0 
L 3309 0 
L 1241 3903 
L 1241 0 
L 628 0 
L 628 4666 
z
" transform="scale(0.015625)"/>
       <path id="DejaVuSans-54" d="M -19 4666 
L 3928 4666 
L 3928 4134 
L 2272 4134 
L 2272 0 
L 1638 0 
L 1638 4134 
L -19 4134 
L -19 4666 
z
" transform="scale(0.015625)"/>
       <path id="DejaVuSans-3a" d="M 750 794 
L 1409 794 
L 1409 0 
L 750 0 
L 750 794 
z
M 750 3309 
L 1409 3309 
L 1409 2516 
L 750 2516 
L 750 3309 
z
" transform="scale(0.015625)"/>
       <path id="DejaVuSans-b1" d="M 2944 4013 
L 2944 2803 
L 4684 2803 
L 4684 2272 
L 2944 2272 
L 2944 1063 
L 2419 1063 
L 2419 2272 
L 678 2272 
L 678 2803 
L 2419 2803 
L 2419 4013 
L 2944 4013 
z
M 678 531 
L 4684 531 
L 4684 0 
L 678 0 
L 678 531 
z
" transform="scale(0.015625)"/>
       <path id="DejaVuSans-39" d="M 703 97 
L 703 672 
Q 941 559 1184 500 
Q 1428 441 1663 441 
Q 2288 441 2617 861 
Q 2947 1281 2994 2138 
Q 2813 1869 2534 1725 
Q 2256 1581 1919 1581 
Q 1219 1581 811 2004 
Q 403 2428 403 3163 
Q 403 3881 828 4315 
Q 1253 4750 1959 4750 
Q 2769 4750 3195 4129 
Q 3622 3509 3622 2328 
Q 3622 1225 3098 567 
Q 2575 -91 1691 -91 
Q 1453 -91 1209 -44 
Q 966 3 703 97 
z
M 1959 2075 
Q 2384 2075 2632 2365 
Q 2881 2656 2881 3163 
Q 2881 3666 2632 3958 
Q 2384 4250 1959 4250 
Q 1534 4250 1286 3958 
Q 1038 3666 1038 3163 
Q 1038 2656 1286 2365 
Q 1534 2075 1959 2075 
z
" transform="scale(0.015625)"/>
      </defs>
      <use xlink:href="#DejaVuSans-36" transform="translate(0 0.684375)"/>
      <use xlink:href="#DejaVuSans-2c" transform="translate(63.623047 0.684375)"/>
      <use xlink:href="#DejaVuSans-35" transform="translate(95.410156 0.684375)"/>
      <use xlink:href="#DejaVuSans-20" transform="translate(159.033203 0.684375)"/>
      <use xlink:href="#DejaVuSans-53" transform="translate(190.820312 0.684375)"/>
      <use xlink:href="#DejaVuSans-57" transform="translate(254.296875 0.684375)"/>
      <use xlink:href="#DejaVuSans-4e" transform="translate(353.173828 0.684375)"/>
      <use xlink:href="#DejaVuSans-54" transform="translate(427.978516 0.684375)"/>
      <use xlink:href="#DejaVuSans-3a" transform="translate(489.0625 0.684375)"/>
      <use xlink:href="#DejaVuSans-20" transform="translate(522.753906 0.684375)"/>
      <use xlink:href="#DejaVuSans-32" transform="translate(554.541016 0.684375)"/>
      <use xlink:href="#DejaVuSans-35" transform="translate(618.164062 0.684375)"/>
      <use xlink:href="#DejaVuSans-32" transform="translate(681.787109 0.684375)"/>
      <use xlink:href="#DejaVuSans-2e" transform="translate(745.410156 0.684375)"/>
      <use xlink:href="#DejaVuSans-30" transform="translate(777.197266 0.684375)"/>
      <use xlink:href="#DejaVuSans-20" transform="translate(840.820312 0.684375)"/>
      <use xlink:href="#DejaVuSans-b1" transform="translate(872.607422 0.684375)"/>
      <use xlink:href="#DejaVuSans-20" transform="translate(956.396484 0.684375)"/>
      <use xlink:href="#DejaVuSans-30" transform="translate(988.183594 0.684375)"/>
      <use xlink:href="#DejaVuSans-2e" transform="translate(1051.806641 0.684375)"/>
      <use xlink:href="#DejaVuSans-34" transform="translate(1083.59375 0.684375)"/>
      <use xlink:href="#DejaVuSans-35" transform="translate(1147.216797 0.684375)"/>
      <use xlink:href="#DejaVuSans-2c" transform="translate(1210.839844 0.684375)"/>
      <use xlink:href="#DejaVuSans-20" transform="translate(1242.626953 0.684375)"/>
      <use xlink:href="#DejaVuSans-32" transform="translate(1274.414062 0.684375)"/>
      <use xlink:href="#DejaVuSans-39" transform="translate(1336.287109 0.684375)"/>
      <use xlink:href="#DejaVuSans-37" transform="translate(1399.910156 0.684375)"/>
      <use xlink:href="#DejaVuSans-2e" transform="translate(1463.533203 0.684375)"/>
      <use xlink:href="#DejaVuSans-35" transform="translate(1495.320312 0.684375)"/>
      <use xlink:href="#DejaVuSans-31" transform="translate(1558.943359 0.684375)"/>
      <use xlink:href="#DejaVuSans-20" transform="translate(1622.566406 0.684375)"/>
      <use xlink:href="#DejaVuSans-b1" transform="translate(1654.353516 0.684375)"/>
      <use xlink:href="#DejaVuSans-20" transform="translate(1738.142578 0.684375)"/>
      <use xlink:href="#DejaVuSans-31" transform="translate(1769.929688 0.684375)"/>
      <use xlink:href="#DejaVuSans-37" transform="translate(1833.552734 0.684375)"/>
      <use xlink:href="#DejaVuSans-2e" transform="translate(1897.175781 0.684375)"/>
      <use xlink:href="#DejaVuSans-35" transform="translate(1928.962891 0.684375)"/>
      <use xlink:href="#DejaVuSans-20" transform="translate(1992.585938 0.684375)"/>
      <use xlink:href="#DejaVuSans-Oblique-63" transform="translate(2024.373047 0.684375)"/>
      <use xlink:href="#DejaVuSans-Oblique-6d" transform="translate(2079.353516 0.684375)"/>
      <use xlink:href="#DejaVuSans-2212" transform="translate(2181.415521 38.965625)scale(0.7)"/>
      <use xlink:href="#DejaVuSans-31" transform="translate(2240.067865 38.965625)scale(0.7)"/>
     </g>
    </g>
    <g id="patch_79">
     <path d="M 105.53976 67.925865 
L 133.53976 67.925865 
L 133.53976 58.125865 
L 105.53976 58.125865 
z
" style="fill: #008aba; opacity: 0.5; stroke: #000000; stroke-linejoin: miter"/>
    </g>
    <g id="text_20">
     <!-- CuMINT: 212.5 $\pm$ 0.5, 285.64 $\pm$ 18.09, 325.1 $\pm$ 11.64 $cm^{-1}$ -->
     <g transform="translate(144.73976 67.925865)scale(0.14 -0.14)">
      <defs>
       <path id="DejaVuSans-43" d="M 4122 4306 
L 4122 3641 
Q 3803 3938 3442 4084 
Q 3081 4231 2675 4231 
Q 1875 4231 1450 3742 
Q 1025 3253 1025 2328 
Q 1025 1406 1450 917 
Q 1875 428 2675 428 
Q 3081 428 3442 575 
Q 3803 722 4122 1019 
L 4122 359 
Q 3791 134 3420 21 
Q 3050 -91 2638 -91 
Q 1578 -91 968 557 
Q 359 1206 359 2328 
Q 359 3453 968 4101 
Q 1578 4750 2638 4750 
Q 3056 4750 3426 4639 
Q 3797 4528 4122 4306 
z
" transform="scale(0.015625)"/>
       <path id="DejaVuSans-4d" d="M 628 4666 
L 1569 4666 
L 2759 1491 
L 3956 4666 
L 4897 4666 
L 4897 0 
L 4281 0 
L 4281 4097 
L 3078 897 
L 2444 897 
L 1241 4097 
L 1241 0 
L 628 0 
L 628 4666 
z
" transform="scale(0.015625)"/>
       <path id="DejaVuSans-49" d="M 628 4666 
L 1259 4666 
L 1259 0 
L 628 0 
L 628 4666 
z
" transform="scale(0.015625)"/>
      </defs>
      <use xlink:href="#DejaVuSans-43" transform="translate(0 0.684375)"/>
      <use xlink:href="#DejaVuSans-75" transform="translate(69.824219 0.684375)"/>
      <use xlink:href="#DejaVuSans-4d" transform="translate(133.203125 0.684375)"/>
      <use xlink:href="#DejaVuSans-49" transform="translate(219.482422 0.684375)"/>
      <use xlink:href="#DejaVuSans-4e" transform="translate(248.974609 0.684375)"/>
      <use xlink:href="#DejaVuSans-54" transform="translate(323.779297 0.684375)"/>
      <use xlink:href="#DejaVuSans-3a" transform="translate(384.863281 0.684375)"/>
      <use xlink:href="#DejaVuSans-20" transform="translate(418.554688 0.684375)"/>
      <use xlink:href="#DejaVuSans-32" transform="translate(450.341797 0.684375)"/>
      <use xlink:href="#DejaVuSans-31" transform="translate(513.964844 0.684375)"/>
      <use xlink:href="#DejaVuSans-32" transform="translate(577.587891 0.684375)"/>
      <use xlink:href="#DejaVuSans-2e" transform="translate(641.210938 0.684375)"/>
      <use xlink:href="#DejaVuSans-35" transform="translate(672.998047 0.684375)"/>
      <use xlink:href="#DejaVuSans-20" transform="translate(736.621094 0.684375)"/>
      <use xlink:href="#DejaVuSans-b1" transform="translate(768.408203 0.684375)"/>
      <use xlink:href="#DejaVuSans-20" transform="translate(852.197266 0.684375)"/>
      <use xlink:href="#DejaVuSans-30" transform="translate(883.984375 0.684375)"/>
      <use xlink:href="#DejaVuSans-2e" transform="translate(947.607422 0.684375)"/>
      <use xlink:href="#DejaVuSans-35" transform="translate(979.394531 0.684375)"/>
      <use xlink:href="#DejaVuSans-2c" transform="translate(1043.017578 0.684375)"/>
      <use xlink:href="#DejaVuSans-20" transform="translate(1074.804688 0.684375)"/>
      <use xlink:href="#DejaVuSans-32" transform="translate(1106.591797 0.684375)"/>
      <use xlink:href="#DejaVuSans-38" transform="translate(1170.214844 0.684375)"/>
      <use xlink:href="#DejaVuSans-35" transform="translate(1233.837891 0.684375)"/>
      <use xlink:href="#DejaVuSans-2e" transform="translate(1297.460938 0.684375)"/>
      <use xlink:href="#DejaVuSans-36" transform="translate(1329.248047 0.684375)"/>
      <use xlink:href="#DejaVuSans-34" transform="translate(1392.871094 0.684375)"/>
      <use xlink:href="#DejaVuSans-20" transform="translate(1456.494141 0.684375)"/>
      <use xlink:href="#DejaVuSans-b1" transform="translate(1488.28125 0.684375)"/>
      <use xlink:href="#DejaVuSans-20" transform="translate(1572.070312 0.684375)"/>
      <use xlink:href="#DejaVuSans-31" transform="translate(1603.857422 0.684375)"/>
      <use xlink:href="#DejaVuSans-38" transform="translate(1667.480469 0.684375)"/>
      <use xlink:href="#DejaVuSans-2e" transform="translate(1731.103516 0.684375)"/>
      <use xlink:href="#DejaVuSans-30" transform="translate(1762.890625 0.684375)"/>
      <use xlink:href="#DejaVuSans-39" transform="translate(1826.513672 0.684375)"/>
      <use xlink:href="#DejaVuSans-2c" transform="translate(1890.136719 0.684375)"/>
      <use xlink:href="#DejaVuSans-20" transform="translate(1921.923828 0.684375)"/>
      <use xlink:href="#DejaVuSans-33" transform="translate(1953.710938 0.684375)"/>
      <use xlink:href="#DejaVuSans-32" transform="translate(2017.333984 0.684375)"/>
      <use xlink:href="#DejaVuSans-35" transform="translate(2080.957031 0.684375)"/>
      <use xlink:href="#DejaVuSans-2e" transform="translate(2144.580078 0.684375)"/>
      <use xlink:href="#DejaVuSans-31" transform="translate(2176.367188 0.684375)"/>
      <use xlink:href="#DejaVuSans-20" transform="translate(2239.990234 0.684375)"/>
      <use xlink:href="#DejaVuSans-b1" transform="translate(2271.777344 0.684375)"/>
      <use xlink:href="#DejaVuSans-20" transform="translate(2355.566406 0.684375)"/>
      <use xlink:href="#DejaVuSans-31" transform="translate(2387.353516 0.684375)"/>
      <use xlink:href="#DejaVuSans-31" transform="translate(2450.976562 0.684375)"/>
      <use xlink:href="#DejaVuSans-2e" transform="translate(2514.599609 0.684375)"/>
      <use xlink:href="#DejaVuSans-36" transform="translate(2546.386719 0.684375)"/>
      <use xlink:href="#DejaVuSans-34" transform="translate(2610.009766 0.684375)"/>
      <use xlink:href="#DejaVuSans-20" transform="translate(2673.632812 0.684375)"/>
      <use xlink:href="#DejaVuSans-Oblique-63" transform="translate(2705.419922 0.684375)"/>
      <use xlink:href="#DejaVuSans-Oblique-6d" transform="translate(2760.400391 0.684375)"/>
      <use xlink:href="#DejaVuSans-2212" transform="translate(2862.462396 38.965625)scale(0.7)"/>
      <use xlink:href="#DejaVuSans-31" transform="translate(2921.11474 38.965625)scale(0.7)"/>
     </g>
    </g>
   </g>
  </g>
 </g>
 <defs>
  <clipPath id="p18b74b099c">
   <rect x="65.11024" y="22.677427" width="507.88952" height="363.837333"/>
  </clipPath>
 </defs>
</svg>
