<?xml version="1.0" encoding="utf-8" standalone="no"?>
<!DOCTYPE svg PUBLIC "-//W3C//DTD SVG 1.1//EN"
  "http://www.w3.org/Graphics/SVG/1.1/DTD/svg11.dtd">
<svg xmlns:xlink="http://www.w3.org/1999/xlink" width="576pt" height="432pt" viewBox="0 0 576 432" xmlns="http://www.w3.org/2000/svg" version="1.1">
 <metadata>
  <rdf:RDF xmlns:dc="http://purl.org/dc/elements/1.1/" xmlns:cc="http://creativecommons.org/ns#" xmlns:rdf="http://www.w3.org/1999/02/22-rdf-syntax-ns#">
   <cc:Work>
    <dc:type rdf:resource="http://purl.org/dc/dcmitype/StillImage"/>
    <dc:date>2023-07-13T11:22:37.411871</dc:date>
    <dc:format>image/svg+xml</dc:format>
    <dc:creator>
     <cc:Agent>
      <dc:title>Matplotlib v3.5.2, https://matplotlib.org/</dc:title>
     </cc:Agent>
    </dc:creator>
   </cc:Work>
  </rdf:RDF>
 </metadata>
 <defs>
  <style type="text/css">*{stroke-linejoin: round; stroke-linecap: butt}</style>
 </defs>
 <g id="figure_1">
  <g id="patch_1">
   <path d="M 0 432 
L 576 432 
L 576 0 
L 0 0 
z
" style="fill: #ffffff"/>
  </g>
  <g id="axes_1">
   <g id="patch_2">
    <path d="M 70.72024 387.02976 
L 572.99976 387.02976 
L 572.99976 21.15774 
L 70.72024 21.15774 
z
" style="fill: #ffffff"/>
   </g>
   <g id="matplotlib.axis_1">
    <g id="xtick_1">
     <g id="line2d_1">
      <defs>
       <path id="ma686847b0e" d="M 0 0 
L 0 3.5 
" style="stroke: #000000; stroke-width: 0.8"/>
      </defs>
      <g>
       <use xlink:href="#ma686847b0e" x="90.291838" y="387.02976" style="stroke: #000000; stroke-width: 0.8"/>
      </g>
     </g>
     <g id="text_1">
      <!-- 0.04 -->
      <g transform="translate(72.479338 406.18726)scale(0.16 -0.16)">
       <defs>
        <path id="DejaVuSans-30" d="M 2034 4250 
Q 1547 4250 1301 3770 
Q 1056 3291 1056 2328 
Q 1056 1369 1301 889 
Q 1547 409 2034 409 
Q 2525 409 2770 889 
Q 3016 1369 3016 2328 
Q 3016 3291 2770 3770 
Q 2525 4250 2034 4250 
z
M 2034 4750 
Q 2819 4750 3233 4129 
Q 3647 3509 3647 2328 
Q 3647 1150 3233 529 
Q 2819 -91 2034 -91 
Q 1250 -91 836 529 
Q 422 1150 422 2328 
Q 422 3509 836 4129 
Q 1250 4750 2034 4750 
z
" transform="scale(0.015625)"/>
        <path id="DejaVuSans-2e" d="M 684 794 
L 1344 794 
L 1344 0 
L 684 0 
L 684 794 
z
" transform="scale(0.015625)"/>
        <path id="DejaVuSans-34" d="M 2419 4116 
L 825 1625 
L 2419 1625 
L 2419 4116 
z
M 2253 4666 
L 3047 4666 
L 3047 1625 
L 3713 1625 
L 3713 1100 
L 3047 1100 
L 3047 0 
L 2419 0 
L 2419 1100 
L 313 1100 
L 313 1709 
L 2253 4666 
z
" transform="scale(0.015625)"/>
       </defs>
       <use xlink:href="#DejaVuSans-30"/>
       <use xlink:href="#DejaVuSans-2e" x="63.623047"/>
       <use xlink:href="#DejaVuSans-30" x="95.410156"/>
       <use xlink:href="#DejaVuSans-34" x="159.033203"/>
      </g>
     </g>
    </g>
    <g id="xtick_2">
     <g id="line2d_2">
      <g>
       <use xlink:href="#ma686847b0e" x="155.068814" y="387.02976" style="stroke: #000000; stroke-width: 0.8"/>
      </g>
     </g>
     <g id="text_2">
      <!-- 0.05 -->
      <g transform="translate(137.256314 406.18726)scale(0.16 -0.16)">
       <defs>
        <path id="DejaVuSans-35" d="M 691 4666 
L 3169 4666 
L 3169 4134 
L 1269 4134 
L 1269 2991 
Q 1406 3038 1543 3061 
Q 1681 3084 1819 3084 
Q 2600 3084 3056 2656 
Q 3513 2228 3513 1497 
Q 3513 744 3044 326 
Q 2575 -91 1722 -91 
Q 1428 -91 1123 -41 
Q 819 9 494 109 
L 494 744 
Q 775 591 1075 516 
Q 1375 441 1709 441 
Q 2250 441 2565 725 
Q 2881 1009 2881 1497 
Q 2881 1984 2565 2268 
Q 2250 2553 1709 2553 
Q 1456 2553 1204 2497 
Q 953 2441 691 2322 
L 691 4666 
z
" transform="scale(0.015625)"/>
       </defs>
       <use xlink:href="#DejaVuSans-30"/>
       <use xlink:href="#DejaVuSans-2e" x="63.623047"/>
       <use xlink:href="#DejaVuSans-30" x="95.410156"/>
       <use xlink:href="#DejaVuSans-35" x="159.033203"/>
      </g>
     </g>
    </g>
    <g id="xtick_3">
     <g id="line2d_3">
      <g>
       <use xlink:href="#ma686847b0e" x="219.845789" y="387.02976" style="stroke: #000000; stroke-width: 0.8"/>
      </g>
     </g>
     <g id="text_3">
      <!-- 0.06 -->
      <g transform="translate(202.033289 406.18726)scale(0.16 -0.16)">
       <defs>
        <path id="DejaVuSans-36" d="M 2113 2584 
Q 1688 2584 1439 2293 
Q 1191 2003 1191 1497 
Q 1191 994 1439 701 
Q 1688 409 2113 409 
Q 2538 409 2786 701 
Q 3034 994 3034 1497 
Q 3034 2003 2786 2293 
Q 2538 2584 2113 2584 
z
M 3366 4563 
L 3366 3988 
Q 3128 4100 2886 4159 
Q 2644 4219 2406 4219 
Q 1781 4219 1451 3797 
Q 1122 3375 1075 2522 
Q 1259 2794 1537 2939 
Q 1816 3084 2150 3084 
Q 2853 3084 3261 2657 
Q 3669 2231 3669 1497 
Q 3669 778 3244 343 
Q 2819 -91 2113 -91 
Q 1303 -91 875 529 
Q 447 1150 447 2328 
Q 447 3434 972 4092 
Q 1497 4750 2381 4750 
Q 2619 4750 2861 4703 
Q 3103 4656 3366 4563 
z
" transform="scale(0.015625)"/>
       </defs>
       <use xlink:href="#DejaVuSans-30"/>
       <use xlink:href="#DejaVuSans-2e" x="63.623047"/>
       <use xlink:href="#DejaVuSans-30" x="95.410156"/>
       <use xlink:href="#DejaVuSans-36" x="159.033203"/>
      </g>
     </g>
    </g>
    <g id="xtick_4">
     <g id="line2d_4">
      <g>
       <use xlink:href="#ma686847b0e" x="284.622765" y="387.02976" style="stroke: #000000; stroke-width: 0.8"/>
      </g>
     </g>
     <g id="text_4">
      <!-- 0.07 -->
      <g transform="translate(266.810265 406.18726)scale(0.16 -0.16)">
       <defs>
        <path id="DejaVuSans-37" d="M 525 4666 
L 3525 4666 
L 3525 4397 
L 1831 0 
L 1172 0 
L 2766 4134 
L 525 4134 
L 525 4666 
z
" transform="scale(0.015625)"/>
       </defs>
       <use xlink:href="#DejaVuSans-30"/>
       <use xlink:href="#DejaVuSans-2e" x="63.623047"/>
       <use xlink:href="#DejaVuSans-30" x="95.410156"/>
       <use xlink:href="#DejaVuSans-37" x="159.033203"/>
      </g>
     </g>
    </g>
    <g id="xtick_5">
     <g id="line2d_5">
      <g>
       <use xlink:href="#ma686847b0e" x="349.399741" y="387.02976" style="stroke: #000000; stroke-width: 0.8"/>
      </g>
     </g>
     <g id="text_5">
      <!-- 0.08 -->
      <g transform="translate(331.587241 406.18726)scale(0.16 -0.16)">
       <defs>
        <path id="DejaVuSans-38" d="M 2034 2216 
Q 1584 2216 1326 1975 
Q 1069 1734 1069 1313 
Q 1069 891 1326 650 
Q 1584 409 2034 409 
Q 2484 409 2743 651 
Q 3003 894 3003 1313 
Q 3003 1734 2745 1975 
Q 2488 2216 2034 2216 
z
M 1403 2484 
Q 997 2584 770 2862 
Q 544 3141 544 3541 
Q 544 4100 942 4425 
Q 1341 4750 2034 4750 
Q 2731 4750 3128 4425 
Q 3525 4100 3525 3541 
Q 3525 3141 3298 2862 
Q 3072 2584 2669 2484 
Q 3125 2378 3379 2068 
Q 3634 1759 3634 1313 
Q 3634 634 3220 271 
Q 2806 -91 2034 -91 
Q 1263 -91 848 271 
Q 434 634 434 1313 
Q 434 1759 690 2068 
Q 947 2378 1403 2484 
z
M 1172 3481 
Q 1172 3119 1398 2916 
Q 1625 2713 2034 2713 
Q 2441 2713 2670 2916 
Q 2900 3119 2900 3481 
Q 2900 3844 2670 4047 
Q 2441 4250 2034 4250 
Q 1625 4250 1398 4047 
Q 1172 3844 1172 3481 
z
" transform="scale(0.015625)"/>
       </defs>
       <use xlink:href="#DejaVuSans-30"/>
       <use xlink:href="#DejaVuSans-2e" x="63.623047"/>
       <use xlink:href="#DejaVuSans-30" x="95.410156"/>
       <use xlink:href="#DejaVuSans-38" x="159.033203"/>
      </g>
     </g>
    </g>
    <g id="xtick_6">
     <g id="line2d_6">
      <g>
       <use xlink:href="#ma686847b0e" x="414.176716" y="387.02976" style="stroke: #000000; stroke-width: 0.8"/>
      </g>
     </g>
     <g id="text_6">
      <!-- 0.09 -->
      <g transform="translate(396.364216 406.18726)scale(0.16 -0.16)">
       <defs>
        <path id="DejaVuSans-39" d="M 703 97 
L 703 672 
Q 941 559 1184 500 
Q 1428 441 1663 441 
Q 2288 441 2617 861 
Q 2947 1281 2994 2138 
Q 2813 1869 2534 1725 
Q 2256 1581 1919 1581 
Q 1219 1581 811 2004 
Q 403 2428 403 3163 
Q 403 3881 828 4315 
Q 1253 4750 1959 4750 
Q 2769 4750 3195 4129 
Q 3622 3509 3622 2328 
Q 3622 1225 3098 567 
Q 2575 -91 1691 -91 
Q 1453 -91 1209 -44 
Q 966 3 703 97 
z
M 1959 2075 
Q 2384 2075 2632 2365 
Q 2881 2656 2881 3163 
Q 2881 3666 2632 3958 
Q 2384 4250 1959 4250 
Q 1534 4250 1286 3958 
Q 1038 3666 1038 3163 
Q 1038 2656 1286 2365 
Q 1534 2075 1959 2075 
z
" transform="scale(0.015625)"/>
       </defs>
       <use xlink:href="#DejaVuSans-30"/>
       <use xlink:href="#DejaVuSans-2e" x="63.623047"/>
       <use xlink:href="#DejaVuSans-30" x="95.410156"/>
       <use xlink:href="#DejaVuSans-39" x="159.033203"/>
      </g>
     </g>
    </g>
    <g id="xtick_7">
     <g id="line2d_7">
      <g>
       <use xlink:href="#ma686847b0e" x="478.953692" y="387.02976" style="stroke: #000000; stroke-width: 0.8"/>
      </g>
     </g>
     <g id="text_7">
      <!-- 0.10 -->
      <g transform="translate(461.141192 406.18726)scale(0.16 -0.16)">
       <defs>
        <path id="DejaVuSans-31" d="M 794 531 
L 1825 531 
L 1825 4091 
L 703 3866 
L 703 4441 
L 1819 4666 
L 2450 4666 
L 2450 531 
L 3481 531 
L 3481 0 
L 794 0 
L 794 531 
z
" transform="scale(0.015625)"/>
       </defs>
       <use xlink:href="#DejaVuSans-30"/>
       <use xlink:href="#DejaVuSans-2e" x="63.623047"/>
       <use xlink:href="#DejaVuSans-31" x="95.410156"/>
       <use xlink:href="#DejaVuSans-30" x="159.033203"/>
      </g>
     </g>
    </g>
    <g id="xtick_8">
     <g id="line2d_8">
      <g>
       <use xlink:href="#ma686847b0e" x="543.730667" y="387.02976" style="stroke: #000000; stroke-width: 0.8"/>
      </g>
     </g>
     <g id="text_8">
      <!-- 0.11 -->
      <g transform="translate(525.918167 406.18726)scale(0.16 -0.16)">
       <use xlink:href="#DejaVuSans-30"/>
       <use xlink:href="#DejaVuSans-2e" x="63.623047"/>
       <use xlink:href="#DejaVuSans-31" x="95.410156"/>
       <use xlink:href="#DejaVuSans-31" x="159.033203"/>
      </g>
     </g>
    </g>
    <g id="text_9">
     <!-- $I_{D}/I_{G}$ -->
     <g transform="translate(305.3 425.67226)scale(0.16 -0.16)">
      <defs>
       <path id="DejaVuSans-Oblique-49" d="M 1081 4666 
L 1716 4666 
L 806 0 
L 172 0 
L 1081 4666 
z
" transform="scale(0.015625)"/>
       <path id="DejaVuSans-Oblique-44" d="M 1081 4666 
L 2438 4666 
Q 3519 4666 4070 4208 
Q 4622 3750 4622 2847 
Q 4622 2250 4412 1698 
Q 4203 1147 3834 769 
Q 3463 381 2891 190 
Q 2319 0 1538 0 
L 172 0 
L 1081 4666 
z
M 1613 4147 
L 909 519 
L 1734 519 
Q 2794 519 3375 1128 
Q 3956 1738 3956 2847 
Q 3956 3519 3581 3833 
Q 3206 4147 2406 4147 
L 1613 4147 
z
" transform="scale(0.015625)"/>
       <path id="DejaVuSans-2f" d="M 1625 4666 
L 2156 4666 
L 531 -594 
L 0 -594 
L 1625 4666 
z
" transform="scale(0.015625)"/>
       <path id="DejaVuSans-Oblique-47" d="M 3494 697 
L 3738 1919 
L 2700 1919 
L 2797 2438 
L 4453 2438 
L 4050 384 
Q 3634 156 3143 32 
Q 2653 -91 2156 -91 
Q 1278 -91 783 396 
Q 288 884 288 1753 
Q 288 2475 589 3126 
Q 891 3778 1422 4213 
Q 1756 4484 2153 4617 
Q 2550 4750 3034 4750 
Q 3472 4750 3873 4639 
Q 4275 4528 4641 4306 
L 4513 3634 
Q 4231 3928 3853 4083 
Q 3475 4238 3047 4238 
Q 2550 4238 2172 4048 
Q 1794 3859 1497 3463 
Q 1244 3125 1098 2667 
Q 953 2209 953 1734 
Q 953 1081 1287 751 
Q 1622 422 2284 422 
Q 2616 422 2925 492 
Q 3234 563 3494 697 
z
" transform="scale(0.015625)"/>
      </defs>
      <use xlink:href="#DejaVuSans-Oblique-49" transform="translate(0 0.09375)"/>
      <use xlink:href="#DejaVuSans-Oblique-44" transform="translate(29.492188 -16.3125)scale(0.7)"/>
      <use xlink:href="#DejaVuSans-2f" transform="translate(86.12793 0.09375)"/>
      <use xlink:href="#DejaVuSans-Oblique-49" transform="translate(119.819336 0.09375)"/>
      <use xlink:href="#DejaVuSans-Oblique-47" transform="translate(149.311523 -16.3125)scale(0.7)"/>
     </g>
    </g>
   </g>
   <g id="matplotlib.axis_2">
    <g id="ytick_1">
     <g id="line2d_9">
      <defs>
       <path id="m4fc5bab4ed" d="M 0 0 
L -3.5 0 
" style="stroke: #000000; stroke-width: 0.8"/>
      </defs>
      <g>
       <use xlink:href="#m4fc5bab4ed" x="70.72024" y="365.834114" style="stroke: #000000; stroke-width: 0.8"/>
      </g>
     </g>
     <g id="text_10">
      <!-- 2571 -->
      <g transform="translate(23.00024 371.912864)scale(0.16 -0.16)">
       <defs>
        <path id="DejaVuSans-32" d="M 1228 531 
L 3431 531 
L 3431 0 
L 469 0 
L 469 531 
Q 828 903 1448 1529 
Q 2069 2156 2228 2338 
Q 2531 2678 2651 2914 
Q 2772 3150 2772 3378 
Q 2772 3750 2511 3984 
Q 2250 4219 1831 4219 
Q 1534 4219 1204 4116 
Q 875 4013 500 3803 
L 500 4441 
Q 881 4594 1212 4672 
Q 1544 4750 1819 4750 
Q 2544 4750 2975 4387 
Q 3406 4025 3406 3419 
Q 3406 3131 3298 2873 
Q 3191 2616 2906 2266 
Q 2828 2175 2409 1742 
Q 1991 1309 1228 531 
z
" transform="scale(0.015625)"/>
       </defs>
       <use xlink:href="#DejaVuSans-32"/>
       <use xlink:href="#DejaVuSans-35" x="63.623047"/>
       <use xlink:href="#DejaVuSans-37" x="127.246094"/>
       <use xlink:href="#DejaVuSans-31" x="190.869141"/>
      </g>
     </g>
    </g>
    <g id="ytick_2">
     <g id="line2d_10">
      <g>
       <use xlink:href="#m4fc5bab4ed" x="70.72024" y="327.519315" style="stroke: #000000; stroke-width: 0.8"/>
      </g>
     </g>
     <g id="text_11">
      <!-- 2574 -->
      <g transform="translate(23.00024 333.598065)scale(0.16 -0.16)">
       <use xlink:href="#DejaVuSans-32"/>
       <use xlink:href="#DejaVuSans-35" x="63.623047"/>
       <use xlink:href="#DejaVuSans-37" x="127.246094"/>
       <use xlink:href="#DejaVuSans-34" x="190.869141"/>
      </g>
     </g>
    </g>
    <g id="ytick_3">
     <g id="line2d_11">
      <g>
       <use xlink:href="#m4fc5bab4ed" x="70.72024" y="289.204516" style="stroke: #000000; stroke-width: 0.8"/>
      </g>
     </g>
     <g id="text_12">
      <!-- 2577 -->
      <g transform="translate(23.00024 295.283266)scale(0.16 -0.16)">
       <use xlink:href="#DejaVuSans-32"/>
       <use xlink:href="#DejaVuSans-35" x="63.623047"/>
       <use xlink:href="#DejaVuSans-37" x="127.246094"/>
       <use xlink:href="#DejaVuSans-37" x="190.869141"/>
      </g>
     </g>
    </g>
    <g id="ytick_4">
     <g id="line2d_12">
      <g>
       <use xlink:href="#m4fc5bab4ed" x="70.72024" y="250.889717" style="stroke: #000000; stroke-width: 0.8"/>
      </g>
     </g>
     <g id="text_13">
      <!-- 2580 -->
      <g transform="translate(23.00024 256.968467)scale(0.16 -0.16)">
       <use xlink:href="#DejaVuSans-32"/>
       <use xlink:href="#DejaVuSans-35" x="63.623047"/>
       <use xlink:href="#DejaVuSans-38" x="127.246094"/>
       <use xlink:href="#DejaVuSans-30" x="190.869141"/>
      </g>
     </g>
    </g>
    <g id="ytick_5">
     <g id="line2d_13">
      <g>
       <use xlink:href="#m4fc5bab4ed" x="70.72024" y="212.574918" style="stroke: #000000; stroke-width: 0.8"/>
      </g>
     </g>
     <g id="text_14">
      <!-- 2583 -->
      <g transform="translate(23.00024 218.653668)scale(0.16 -0.16)">
       <defs>
        <path id="DejaVuSans-33" d="M 2597 2516 
Q 3050 2419 3304 2112 
Q 3559 1806 3559 1356 
Q 3559 666 3084 287 
Q 2609 -91 1734 -91 
Q 1441 -91 1130 -33 
Q 819 25 488 141 
L 488 750 
Q 750 597 1062 519 
Q 1375 441 1716 441 
Q 2309 441 2620 675 
Q 2931 909 2931 1356 
Q 2931 1769 2642 2001 
Q 2353 2234 1838 2234 
L 1294 2234 
L 1294 2753 
L 1863 2753 
Q 2328 2753 2575 2939 
Q 2822 3125 2822 3475 
Q 2822 3834 2567 4026 
Q 2313 4219 1838 4219 
Q 1578 4219 1281 4162 
Q 984 4106 628 3988 
L 628 4550 
Q 988 4650 1302 4700 
Q 1616 4750 1894 4750 
Q 2613 4750 3031 4423 
Q 3450 4097 3450 3541 
Q 3450 3153 3228 2886 
Q 3006 2619 2597 2516 
z
" transform="scale(0.015625)"/>
       </defs>
       <use xlink:href="#DejaVuSans-32"/>
       <use xlink:href="#DejaVuSans-35" x="63.623047"/>
       <use xlink:href="#DejaVuSans-38" x="127.246094"/>
       <use xlink:href="#DejaVuSans-33" x="190.869141"/>
      </g>
     </g>
    </g>
    <g id="ytick_6">
     <g id="line2d_14">
      <g>
       <use xlink:href="#m4fc5bab4ed" x="70.72024" y="174.26012" style="stroke: #000000; stroke-width: 0.8"/>
      </g>
     </g>
     <g id="text_15">
      <!-- 2586 -->
      <g transform="translate(23.00024 180.33887)scale(0.16 -0.16)">
       <use xlink:href="#DejaVuSans-32"/>
       <use xlink:href="#DejaVuSans-35" x="63.623047"/>
       <use xlink:href="#DejaVuSans-38" x="127.246094"/>
       <use xlink:href="#DejaVuSans-36" x="190.869141"/>
      </g>
     </g>
    </g>
    <g id="ytick_7">
     <g id="line2d_15">
      <g>
       <use xlink:href="#m4fc5bab4ed" x="70.72024" y="135.945321" style="stroke: #000000; stroke-width: 0.8"/>
      </g>
     </g>
     <g id="text_16">
      <!-- 2589 -->
      <g transform="translate(23.00024 142.024071)scale(0.16 -0.16)">
       <use xlink:href="#DejaVuSans-32"/>
       <use xlink:href="#DejaVuSans-35" x="63.623047"/>
       <use xlink:href="#DejaVuSans-38" x="127.246094"/>
       <use xlink:href="#DejaVuSans-39" x="190.869141"/>
      </g>
     </g>
    </g>
    <g id="ytick_8">
     <g id="line2d_16">
      <g>
       <use xlink:href="#m4fc5bab4ed" x="70.72024" y="97.630522" style="stroke: #000000; stroke-width: 0.8"/>
      </g>
     </g>
     <g id="text_17">
      <!-- 2592 -->
      <g transform="translate(23.00024 103.709272)scale(0.16 -0.16)">
       <use xlink:href="#DejaVuSans-32"/>
       <use xlink:href="#DejaVuSans-35" x="63.623047"/>
       <use xlink:href="#DejaVuSans-39" x="127.246094"/>
       <use xlink:href="#DejaVuSans-32" x="190.869141"/>
      </g>
     </g>
    </g>
    <g id="ytick_9">
     <g id="line2d_17">
      <g>
       <use xlink:href="#m4fc5bab4ed" x="70.72024" y="59.315723" style="stroke: #000000; stroke-width: 0.8"/>
      </g>
     </g>
     <g id="text_18">
      <!-- 2595 -->
      <g transform="translate(23.00024 65.394473)scale(0.16 -0.16)">
       <use xlink:href="#DejaVuSans-32"/>
       <use xlink:href="#DejaVuSans-35" x="63.623047"/>
       <use xlink:href="#DejaVuSans-39" x="127.246094"/>
       <use xlink:href="#DejaVuSans-35" x="190.869141"/>
      </g>
     </g>
    </g>
    <g id="text_19">
     <!-- $2D$ band Shift / $cm^{-1}$ -->
     <g transform="translate(15.67274 287.77375)rotate(-90)scale(0.16 -0.16)">
      <defs>
       <path id="DejaVuSans-20" transform="scale(0.015625)"/>
       <path id="DejaVuSans-62" d="M 3116 1747 
Q 3116 2381 2855 2742 
Q 2594 3103 2138 3103 
Q 1681 3103 1420 2742 
Q 1159 2381 1159 1747 
Q 1159 1113 1420 752 
Q 1681 391 2138 391 
Q 2594 391 2855 752 
Q 3116 1113 3116 1747 
z
M 1159 2969 
Q 1341 3281 1617 3432 
Q 1894 3584 2278 3584 
Q 2916 3584 3314 3078 
Q 3713 2572 3713 1747 
Q 3713 922 3314 415 
Q 2916 -91 2278 -91 
Q 1894 -91 1617 61 
Q 1341 213 1159 525 
L 1159 0 
L 581 0 
L 581 4863 
L 1159 4863 
L 1159 2969 
z
" transform="scale(0.015625)"/>
       <path id="DejaVuSans-61" d="M 2194 1759 
Q 1497 1759 1228 1600 
Q 959 1441 959 1056 
Q 959 750 1161 570 
Q 1363 391 1709 391 
Q 2188 391 2477 730 
Q 2766 1069 2766 1631 
L 2766 1759 
L 2194 1759 
z
M 3341 1997 
L 3341 0 
L 2766 0 
L 2766 531 
Q 2569 213 2275 61 
Q 1981 -91 1556 -91 
Q 1019 -91 701 211 
Q 384 513 384 1019 
Q 384 1609 779 1909 
Q 1175 2209 1959 2209 
L 2766 2209 
L 2766 2266 
Q 2766 2663 2505 2880 
Q 2244 3097 1772 3097 
Q 1472 3097 1187 3025 
Q 903 2953 641 2809 
L 641 3341 
Q 956 3463 1253 3523 
Q 1550 3584 1831 3584 
Q 2591 3584 2966 3190 
Q 3341 2797 3341 1997 
z
" transform="scale(0.015625)"/>
       <path id="DejaVuSans-6e" d="M 3513 2113 
L 3513 0 
L 2938 0 
L 2938 2094 
Q 2938 2591 2744 2837 
Q 2550 3084 2163 3084 
Q 1697 3084 1428 2787 
Q 1159 2491 1159 1978 
L 1159 0 
L 581 0 
L 581 3500 
L 1159 3500 
L 1159 2956 
Q 1366 3272 1645 3428 
Q 1925 3584 2291 3584 
Q 2894 3584 3203 3211 
Q 3513 2838 3513 2113 
z
" transform="scale(0.015625)"/>
       <path id="DejaVuSans-64" d="M 2906 2969 
L 2906 4863 
L 3481 4863 
L 3481 0 
L 2906 0 
L 2906 525 
Q 2725 213 2448 61 
Q 2172 -91 1784 -91 
Q 1150 -91 751 415 
Q 353 922 353 1747 
Q 353 2572 751 3078 
Q 1150 3584 1784 3584 
Q 2172 3584 2448 3432 
Q 2725 3281 2906 2969 
z
M 947 1747 
Q 947 1113 1208 752 
Q 1469 391 1925 391 
Q 2381 391 2643 752 
Q 2906 1113 2906 1747 
Q 2906 2381 2643 2742 
Q 2381 3103 1925 3103 
Q 1469 3103 1208 2742 
Q 947 2381 947 1747 
z
" transform="scale(0.015625)"/>
       <path id="DejaVuSans-53" d="M 3425 4513 
L 3425 3897 
Q 3066 4069 2747 4153 
Q 2428 4238 2131 4238 
Q 1616 4238 1336 4038 
Q 1056 3838 1056 3469 
Q 1056 3159 1242 3001 
Q 1428 2844 1947 2747 
L 2328 2669 
Q 3034 2534 3370 2195 
Q 3706 1856 3706 1288 
Q 3706 609 3251 259 
Q 2797 -91 1919 -91 
Q 1588 -91 1214 -16 
Q 841 59 441 206 
L 441 856 
Q 825 641 1194 531 
Q 1563 422 1919 422 
Q 2459 422 2753 634 
Q 3047 847 3047 1241 
Q 3047 1584 2836 1778 
Q 2625 1972 2144 2069 
L 1759 2144 
Q 1053 2284 737 2584 
Q 422 2884 422 3419 
Q 422 4038 858 4394 
Q 1294 4750 2059 4750 
Q 2388 4750 2728 4690 
Q 3069 4631 3425 4513 
z
" transform="scale(0.015625)"/>
       <path id="DejaVuSans-68" d="M 3513 2113 
L 3513 0 
L 2938 0 
L 2938 2094 
Q 2938 2591 2744 2837 
Q 2550 3084 2163 3084 
Q 1697 3084 1428 2787 
Q 1159 2491 1159 1978 
L 1159 0 
L 581 0 
L 581 4863 
L 1159 4863 
L 1159 2956 
Q 1366 3272 1645 3428 
Q 1925 3584 2291 3584 
Q 2894 3584 3203 3211 
Q 3513 2838 3513 2113 
z
" transform="scale(0.015625)"/>
       <path id="DejaVuSans-69" d="M 603 3500 
L 1178 3500 
L 1178 0 
L 603 0 
L 603 3500 
z
M 603 4863 
L 1178 4863 
L 1178 4134 
L 603 4134 
L 603 4863 
z
" transform="scale(0.015625)"/>
       <path id="DejaVuSans-66" d="M 2375 4863 
L 2375 4384 
L 1825 4384 
Q 1516 4384 1395 4259 
Q 1275 4134 1275 3809 
L 1275 3500 
L 2222 3500 
L 2222 3053 
L 1275 3053 
L 1275 0 
L 697 0 
L 697 3053 
L 147 3053 
L 147 3500 
L 697 3500 
L 697 3744 
Q 697 4328 969 4595 
Q 1241 4863 1831 4863 
L 2375 4863 
z
" transform="scale(0.015625)"/>
       <path id="DejaVuSans-74" d="M 1172 4494 
L 1172 3500 
L 2356 3500 
L 2356 3053 
L 1172 3053 
L 1172 1153 
Q 1172 725 1289 603 
Q 1406 481 1766 481 
L 2356 481 
L 2356 0 
L 1766 0 
Q 1100 0 847 248 
Q 594 497 594 1153 
L 594 3053 
L 172 3053 
L 172 3500 
L 594 3500 
L 594 4494 
L 1172 4494 
z
" transform="scale(0.015625)"/>
       <path id="DejaVuSans-Oblique-63" d="M 3431 3366 
L 3316 2797 
Q 3109 2947 2876 3022 
Q 2644 3097 2394 3097 
Q 2119 3097 1870 3000 
Q 1622 2903 1453 2725 
Q 1184 2453 1037 2087 
Q 891 1722 891 1331 
Q 891 859 1127 628 
Q 1363 397 1844 397 
Q 2081 397 2348 469 
Q 2616 541 2906 684 
L 2797 116 
Q 2547 13 2283 -39 
Q 2019 -91 1741 -91 
Q 1044 -91 669 257 
Q 294 606 294 1253 
Q 294 1797 489 2255 
Q 684 2713 1069 3078 
Q 1331 3328 1684 3456 
Q 2038 3584 2456 3584 
Q 2700 3584 2940 3529 
Q 3181 3475 3431 3366 
z
" transform="scale(0.015625)"/>
       <path id="DejaVuSans-Oblique-6d" d="M 5747 2113 
L 5338 0 
L 4763 0 
L 5166 2094 
Q 5191 2228 5203 2325 
Q 5216 2422 5216 2491 
Q 5216 2772 5059 2928 
Q 4903 3084 4622 3084 
Q 4203 3084 3875 2770 
Q 3547 2456 3450 1953 
L 3066 0 
L 2491 0 
L 2900 2094 
Q 2925 2209 2937 2307 
Q 2950 2406 2950 2484 
Q 2950 2769 2794 2926 
Q 2638 3084 2363 3084 
Q 1938 3084 1609 2770 
Q 1281 2456 1184 1953 
L 800 0 
L 225 0 
L 909 3500 
L 1484 3500 
L 1375 2956 
Q 1609 3263 1923 3423 
Q 2238 3584 2597 3584 
Q 2978 3584 3223 3384 
Q 3469 3184 3519 2828 
Q 3781 3197 4126 3390 
Q 4472 3584 4856 3584 
Q 5306 3584 5551 3325 
Q 5797 3066 5797 2591 
Q 5797 2488 5784 2364 
Q 5772 2241 5747 2113 
z
" transform="scale(0.015625)"/>
       <path id="DejaVuSans-2212" d="M 678 2272 
L 4684 2272 
L 4684 1741 
L 678 1741 
L 678 2272 
z
" transform="scale(0.015625)"/>
      </defs>
      <use xlink:href="#DejaVuSans-32" transform="translate(0 0.684375)"/>
      <use xlink:href="#DejaVuSans-Oblique-44" transform="translate(63.623047 0.684375)"/>
      <use xlink:href="#DejaVuSans-20" transform="translate(140.625 0.684375)"/>
      <use xlink:href="#DejaVuSans-62" transform="translate(172.412109 0.684375)"/>
      <use xlink:href="#DejaVuSans-61" transform="translate(235.888672 0.684375)"/>
      <use xlink:href="#DejaVuSans-6e" transform="translate(297.167969 0.684375)"/>
      <use xlink:href="#DejaVuSans-64" transform="translate(360.546875 0.684375)"/>
      <use xlink:href="#DejaVuSans-20" transform="translate(424.023438 0.684375)"/>
      <use xlink:href="#DejaVuSans-53" transform="translate(455.810547 0.684375)"/>
      <use xlink:href="#DejaVuSans-68" transform="translate(519.287109 0.684375)"/>
      <use xlink:href="#DejaVuSans-69" transform="translate(582.666016 0.684375)"/>
      <use xlink:href="#DejaVuSans-66" transform="translate(610.449219 0.684375)"/>
      <use xlink:href="#DejaVuSans-74" transform="translate(645.654297 0.684375)"/>
      <use xlink:href="#DejaVuSans-20" transform="translate(684.863281 0.684375)"/>
      <use xlink:href="#DejaVuSans-2f" transform="translate(716.650391 0.684375)"/>
      <use xlink:href="#DejaVuSans-20" transform="translate(750.341797 0.684375)"/>
      <use xlink:href="#DejaVuSans-Oblique-63" transform="translate(782.128906 0.684375)"/>
      <use xlink:href="#DejaVuSans-Oblique-6d" transform="translate(837.109375 0.684375)"/>
      <use xlink:href="#DejaVuSans-2212" transform="translate(939.17138 38.965625)scale(0.7)"/>
      <use xlink:href="#DejaVuSans-31" transform="translate(997.823724 38.965625)scale(0.7)"/>
     </g>
    </g>
   </g>
   <g id="line2d_18">
    <defs>
     <path id="ma4e1f7d8a8" d="M 0 3 
C 0.795609 3 1.55874 2.683901 2.12132 2.12132 
C 2.683901 1.55874 3 0.795609 3 0 
C 3 -0.795609 2.683901 -1.55874 2.12132 -2.12132 
C 1.55874 -2.683901 0.795609 -3 0 -3 
C -0.795609 -3 -1.55874 -2.683901 -2.12132 -2.12132 
C -2.683901 -1.55874 -3 -0.795609 -3 0 
C -3 0.795609 -2.683901 1.55874 -2.12132 2.12132 
C -1.55874 2.683901 -0.795609 3 0 3 
z
" style="stroke: #6f6f6f"/>
    </defs>
    <g clip-path="url(#pac3d3ee156)">
     <use xlink:href="#ma4e1f7d8a8" x="203.422391" y="333.024528" style="fill: #6f6f6f; stroke: #6f6f6f"/>
     <use xlink:href="#ma4e1f7d8a8" x="156.89546" y="307.578181" style="fill: #6f6f6f; stroke: #6f6f6f"/>
     <use xlink:href="#ma4e1f7d8a8" x="110.593324" y="351.955697" style="fill: #6f6f6f; stroke: #6f6f6f"/>
     <use xlink:href="#ma4e1f7d8a8" x="116.426142" y="323.239345" style="fill: #6f6f6f; stroke: #6f6f6f"/>
     <use xlink:href="#ma4e1f7d8a8" x="181.397514" y="329.807563" style="fill: #6f6f6f; stroke: #6f6f6f"/>
     <use xlink:href="#ma4e1f7d8a8" x="236.311896" y="342.276287" style="fill: #6f6f6f; stroke: #6f6f6f"/>
     <use xlink:href="#ma4e1f7d8a8" x="192.676626" y="343.398098" style="fill: #6f6f6f; stroke: #6f6f6f"/>
     <use xlink:href="#ma4e1f7d8a8" x="256.548226" y="370.399214" style="fill: #6f6f6f; stroke: #6f6f6f"/>
     <use xlink:href="#ma4e1f7d8a8" x="269.023454" y="241.316373" style="fill: #6f6f6f; stroke: #6f6f6f"/>
     <use xlink:href="#ma4e1f7d8a8" x="411.143982" y="37.788286" style="fill: #6f6f6f; stroke: #6f6f6f"/>
     <use xlink:href="#ma4e1f7d8a8" x="188.516942" y="312.293628" style="fill: #6f6f6f; stroke: #6f6f6f"/>
     <use xlink:href="#ma4e1f7d8a8" x="93.551127" y="334.044184" style="fill: #6f6f6f; stroke: #6f6f6f"/>
     <use xlink:href="#ma4e1f7d8a8" x="232.048131" y="262.852784" style="fill: #6f6f6f; stroke: #6f6f6f"/>
     <use xlink:href="#ma4e1f7d8a8" x="318.235121" y="221.418559" style="fill: #6f6f6f; stroke: #6f6f6f"/>
     <use xlink:href="#ma4e1f7d8a8" x="94.995102" y="328.627379" style="fill: #6f6f6f; stroke: #6f6f6f"/>
     <use xlink:href="#ma4e1f7d8a8" x="150.908648" y="311.901127" style="fill: #6f6f6f; stroke: #6f6f6f"/>
     <use xlink:href="#ma4e1f7d8a8" x="188.258332" y="291.814661" style="fill: #6f6f6f; stroke: #6f6f6f"/>
     <use xlink:href="#ma4e1f7d8a8" x="174.842762" y="275.480169" style="fill: #6f6f6f; stroke: #6f6f6f"/>
     <use xlink:href="#ma4e1f7d8a8" x="168.278554" y="256.206997" style="fill: #6f6f6f; stroke: #6f6f6f"/>
    </g>
   </g>
   <g id="line2d_19">
    <path d="M 93.551127 364.825646 
L 96.759136 362.613248 
L 99.967145 360.40085 
L 103.175153 358.188452 
L 106.383162 355.976053 
L 109.59117 353.763655 
L 112.799179 351.551257 
L 116.007188 349.338859 
L 119.215196 347.126461 
L 122.423205 344.914063 
L 125.631214 342.701665 
L 128.839222 340.489266 
L 132.047231 338.276868 
L 135.25524 336.06447 
L 138.463248 333.852072 
L 141.671257 331.639674 
L 144.879265 329.427276 
L 148.087274 327.214878 
L 151.295283 325.002479 
L 154.503291 322.790081 
L 157.7113 320.577683 
L 160.919309 318.365285 
L 164.127317 316.152887 
L 167.335326 313.940489 
L 170.543335 311.728091 
L 173.751343 309.515692 
L 176.959352 307.303294 
L 180.167361 305.090896 
L 183.375369 302.878498 
L 186.583378 300.6661 
L 189.791386 298.453702 
L 192.999395 296.241304 
L 196.207404 294.028905 
L 199.415412 291.816507 
L 202.623421 289.604109 
L 205.83143 287.391711 
L 209.039438 285.179313 
L 212.247447 282.966915 
L 215.455456 280.754517 
L 218.663464 278.542118 
L 221.871473 276.32972 
L 225.079481 274.117322 
L 228.28749 271.904924 
L 231.495499 269.692526 
L 234.703507 267.480128 
L 237.911516 265.26773 
L 241.119525 263.055331 
L 244.327533 260.842933 
L 247.535542 258.630535 
L 250.743551 256.418137 
L 253.951559 254.205739 
L 257.159568 251.993341 
L 260.367576 249.780943 
L 263.575585 247.568545 
L 266.783594 245.356146 
L 269.991602 243.143748 
L 273.199611 240.93135 
L 276.40762 238.718952 
L 279.615628 236.506554 
L 282.823637 234.294156 
L 286.031646 232.081758 
L 289.239654 229.869359 
L 292.447663 227.656961 
L 295.655672 225.444563 
L 298.86368 223.232165 
L 302.071689 221.019767 
L 305.279697 218.807369 
L 308.487706 216.594971 
L 311.695715 214.382572 
L 314.903723 212.170174 
L 318.111732 209.957776 
L 321.319741 207.745378 
L 324.527749 205.53298 
L 327.735758 203.320582 
L 330.943767 201.108184 
L 334.151775 198.895785 
L 337.359784 196.683387 
L 340.567792 194.470989 
L 343.775801 192.258591 
L 346.98381 190.046193 
L 350.191818 187.833795 
L 353.399827 185.621397 
L 356.607836 183.408998 
L 359.815844 181.1966 
L 363.023853 178.984202 
L 366.231862 176.771804 
L 369.43987 174.559406 
L 372.647879 172.347008 
L 375.855887 170.13461 
L 379.063896 167.922211 
L 382.271905 165.709813 
L 385.479913 163.497415 
L 388.687922 161.285017 
L 391.895931 159.072619 
L 395.103939 156.860221 
L 398.311948 154.647823 
L 401.519957 152.435424 
L 404.727965 150.223026 
L 407.935974 148.010628 
L 411.143982 145.79823 
" clip-path="url(#pac3d3ee156)" style="fill: none; stroke: #aaaaaa; stroke-width: 2; stroke-linecap: square"/>
   </g>
   <g id="line2d_20">
    <defs>
     <path id="mbbb5cf4c49" d="M 0 3 
C 0.795609 3 1.55874 2.683901 2.12132 2.12132 
C 2.683901 1.55874 3 0.795609 3 0 
C 3 -0.795609 2.683901 -1.55874 2.12132 -2.12132 
C 1.55874 -2.683901 0.795609 -3 0 -3 
C -0.795609 -3 -1.55874 -2.683901 -2.12132 -2.12132 
C -2.683901 -1.55874 -3 -0.795609 -3 0 
C -3 0.795609 -2.683901 1.55874 -2.12132 2.12132 
C -1.55874 2.683901 -0.795609 3 0 3 
z
" style="stroke: #008aba"/>
    </defs>
    <g clip-path="url(#pac3d3ee156)">
     <use xlink:href="#mbbb5cf4c49" x="346.253238" y="154.548796" style="fill: #008aba; stroke: #008aba"/>
     <use xlink:href="#mbbb5cf4c49" x="194.957916" y="303.021238" style="fill: #008aba; stroke: #008aba"/>
     <use xlink:href="#mbbb5cf4c49" x="281.589009" y="201.651427" style="fill: #008aba; stroke: #008aba"/>
     <use xlink:href="#mbbb5cf4c49" x="356.39443" y="180.182894" style="fill: #008aba; stroke: #008aba"/>
     <use xlink:href="#mbbb5cf4c49" x="378.180632" y="206.731081" style="fill: #008aba; stroke: #008aba"/>
     <use xlink:href="#mbbb5cf4c49" x="232.094834" y="206.203112" style="fill: #008aba; stroke: #008aba"/>
     <use xlink:href="#mbbb5cf4c49" x="313.502557" y="193.076492" style="fill: #008aba; stroke: #008aba"/>
     <use xlink:href="#mbbb5cf4c49" x="303.708754" y="186.569684" style="fill: #008aba; stroke: #008aba"/>
     <use xlink:href="#mbbb5cf4c49" x="384.697029" y="189.728495" style="fill: #008aba; stroke: #008aba"/>
     <use xlink:href="#mbbb5cf4c49" x="220.299029" y="220.099096" style="fill: #008aba; stroke: #008aba"/>
     <use xlink:href="#mbbb5cf4c49" x="260.749061" y="193.452186" style="fill: #008aba; stroke: #008aba"/>
     <use xlink:href="#mbbb5cf4c49" x="342.875057" y="211.318138" style="fill: #008aba; stroke: #008aba"/>
     <use xlink:href="#mbbb5cf4c49" x="295.258738" y="179.299929" style="fill: #008aba; stroke: #008aba"/>
     <use xlink:href="#mbbb5cf4c49" x="312.777259" y="255.060206" style="fill: #008aba; stroke: #008aba"/>
     <use xlink:href="#mbbb5cf4c49" x="202.536141" y="232.272535" style="fill: #008aba; stroke: #008aba"/>
     <use xlink:href="#mbbb5cf4c49" x="253.121722" y="300.835768" style="fill: #008aba; stroke: #008aba"/>
     <use xlink:href="#mbbb5cf4c49" x="461.843723" y="120.314617" style="fill: #008aba; stroke: #008aba"/>
     <use xlink:href="#mbbb5cf4c49" x="550.168873" y="249.680107" style="fill: #008aba; stroke: #008aba"/>
     <use xlink:href="#mbbb5cf4c49" x="431.181502" y="167.073802" style="fill: #008aba; stroke: #008aba"/>
     <use xlink:href="#mbbb5cf4c49" x="253.180344" y="128.536386" style="fill: #008aba; stroke: #008aba"/>
    </g>
   </g>
   <g id="line2d_21">
    <path d="M 194.957916 224.296931 
L 198.545906 223.708234 
L 202.133895 223.119538 
L 205.721885 222.530841 
L 209.309874 221.942144 
L 212.897864 221.353447 
L 216.485853 220.76475 
L 220.073843 220.176054 
L 223.661832 219.587357 
L 227.249822 218.99866 
L 230.837811 218.409963 
L 234.425801 217.821266 
L 238.01379 217.23257 
L 241.601779 216.643873 
L 245.189769 216.055176 
L 248.777758 215.466479 
L 252.365748 214.877782 
L 255.953737 214.289085 
L 259.541727 213.700389 
L 263.129716 213.111692 
L 266.717706 212.522995 
L 270.305695 211.934298 
L 273.893685 211.345601 
L 277.481674 210.756905 
L 281.069663 210.168208 
L 284.657653 209.579511 
L 288.245642 208.990814 
L 291.833632 208.402117 
L 295.421621 207.813421 
L 299.009611 207.224724 
L 302.5976 206.636027 
L 306.18559 206.04733 
L 309.773579 205.458633 
L 313.361569 204.869937 
L 316.949558 204.28124 
L 320.537547 203.692543 
L 324.125537 203.103846 
L 327.713526 202.515149 
L 331.301516 201.926453 
L 334.889505 201.337756 
L 338.477495 200.749059 
L 342.065484 200.160362 
L 345.653474 199.571665 
L 349.241463 198.982969 
L 352.829453 198.394272 
L 356.417442 197.805575 
L 360.005432 197.216878 
L 363.593421 196.628181 
L 367.18141 196.039485 
L 370.7694 195.450788 
L 374.357389 194.862091 
L 377.945379 194.273394 
L 381.533368 193.684697 
L 385.121358 193.096001 
L 388.709347 192.507304 
L 392.297337 191.918607 
L 395.885326 191.32991 
L 399.473316 190.741213 
L 403.061305 190.152516 
L 406.649294 189.56382 
L 410.237284 188.975123 
L 413.825273 188.386426 
L 417.413263 187.797729 
L 421.001252 187.209032 
L 424.589242 186.620336 
L 428.177231 186.031639 
L 431.765221 185.442942 
L 435.35321 184.854245 
L 438.9412 184.265548 
L 442.529189 183.676852 
L 446.117178 183.088155 
L 449.705168 182.499458 
L 453.293157 181.910761 
L 456.881147 181.322064 
L 460.469136 180.733368 
L 464.057126 180.144671 
L 467.645115 179.555974 
L 471.233105 178.967277 
L 474.821094 178.37858 
L 478.409084 177.789884 
L 481.997073 177.201187 
L 485.585062 176.61249 
L 489.173052 176.023793 
L 492.761041 175.435096 
L 496.349031 174.8464 
L 499.93702 174.257703 
L 503.52501 173.669006 
L 507.112999 173.080309 
L 510.700989 172.491612 
L 514.288978 171.902916 
L 517.876968 171.314219 
L 521.464957 170.725522 
L 525.052947 170.136825 
L 528.640936 169.548128 
L 532.228925 168.959432 
L 535.816915 168.370735 
L 539.404904 167.782038 
L 542.992894 167.193341 
L 546.580883 166.604644 
L 550.168873 166.015947 
" clip-path="url(#pac3d3ee156)" style="fill: none; stroke: #0060cf; stroke-width: 2; stroke-linecap: square"/>
   </g>
   <g id="patch_3">
    <path d="M 70.72024 387.02976 
L 70.72024 21.15774 
" style="fill: none; stroke: #000000; stroke-width: 0.8; stroke-linejoin: miter; stroke-linecap: square"/>
   </g>
   <g id="patch_4">
    <path d="M 572.99976 387.02976 
L 572.99976 21.15774 
" style="fill: none; stroke: #000000; stroke-width: 0.8; stroke-linejoin: miter; stroke-linecap: square"/>
   </g>
   <g id="patch_5">
    <path d="M 70.72024 387.02976 
L 572.99976 387.02976 
" style="fill: none; stroke: #000000; stroke-width: 0.8; stroke-linejoin: miter; stroke-linecap: square"/>
   </g>
   <g id="patch_6">
    <path d="M 70.72024 21.15774 
L 572.99976 21.15774 
" style="fill: none; stroke: #000000; stroke-width: 0.8; stroke-linejoin: miter; stroke-linecap: square"/>
   </g>
   <g id="text_20">
    <!-- $2D$ band Shift vs. $I_{D}/I_{G}$ -->
    <g transform="translate(234.02 15.15774)scale(0.16 -0.16)">
     <defs>
      <path id="DejaVuSans-76" d="M 191 3500 
L 800 3500 
L 1894 563 
L 2988 3500 
L 3597 3500 
L 2284 0 
L 1503 0 
L 191 3500 
z
" transform="scale(0.015625)"/>
      <path id="DejaVuSans-73" d="M 2834 3397 
L 2834 2853 
Q 2591 2978 2328 3040 
Q 2066 3103 1784 3103 
Q 1356 3103 1142 2972 
Q 928 2841 928 2578 
Q 928 2378 1081 2264 
Q 1234 2150 1697 2047 
L 1894 2003 
Q 2506 1872 2764 1633 
Q 3022 1394 3022 966 
Q 3022 478 2636 193 
Q 2250 -91 1575 -91 
Q 1294 -91 989 -36 
Q 684 19 347 128 
L 347 722 
Q 666 556 975 473 
Q 1284 391 1588 391 
Q 1994 391 2212 530 
Q 2431 669 2431 922 
Q 2431 1156 2273 1281 
Q 2116 1406 1581 1522 
L 1381 1569 
Q 847 1681 609 1914 
Q 372 2147 372 2553 
Q 372 3047 722 3315 
Q 1072 3584 1716 3584 
Q 2034 3584 2315 3537 
Q 2597 3491 2834 3397 
z
" transform="scale(0.015625)"/>
     </defs>
     <use xlink:href="#DejaVuSans-32" transform="translate(0 0.015625)"/>
     <use xlink:href="#DejaVuSans-Oblique-44" transform="translate(63.623047 0.015625)"/>
     <use xlink:href="#DejaVuSans-20" transform="translate(140.625 0.015625)"/>
     <use xlink:href="#DejaVuSans-62" transform="translate(172.412109 0.015625)"/>
     <use xlink:href="#DejaVuSans-61" transform="translate(235.888672 0.015625)"/>
     <use xlink:href="#DejaVuSans-6e" transform="translate(297.167969 0.015625)"/>
     <use xlink:href="#DejaVuSans-64" transform="translate(360.546875 0.015625)"/>
     <use xlink:href="#DejaVuSans-20" transform="translate(424.023438 0.015625)"/>
     <use xlink:href="#DejaVuSans-53" transform="translate(455.810547 0.015625)"/>
     <use xlink:href="#DejaVuSans-68" transform="translate(519.287109 0.015625)"/>
     <use xlink:href="#DejaVuSans-69" transform="translate(582.666016 0.015625)"/>
     <use xlink:href="#DejaVuSans-66" transform="translate(610.449219 0.015625)"/>
     <use xlink:href="#DejaVuSans-74" transform="translate(645.654297 0.015625)"/>
     <use xlink:href="#DejaVuSans-20" transform="translate(684.863281 0.015625)"/>
     <use xlink:href="#DejaVuSans-76" transform="translate(716.650391 0.015625)"/>
     <use xlink:href="#DejaVuSans-73" transform="translate(775.830078 0.015625)"/>
     <use xlink:href="#DejaVuSans-2e" transform="translate(827.929688 0.015625)"/>
     <use xlink:href="#DejaVuSans-20" transform="translate(859.716797 0.015625)"/>
     <use xlink:href="#DejaVuSans-Oblique-49" transform="translate(891.503906 0.015625)"/>
     <use xlink:href="#DejaVuSans-Oblique-44" transform="translate(920.996094 -16.390625)scale(0.7)"/>
     <use xlink:href="#DejaVuSans-2f" transform="translate(977.631836 0.015625)"/>
     <use xlink:href="#DejaVuSans-Oblique-49" transform="translate(1011.323242 0.015625)"/>
     <use xlink:href="#DejaVuSans-Oblique-47" transform="translate(1040.81543 -16.390625)scale(0.7)"/>
    </g>
   </g>
   <g id="legend_1">
    <g id="patch_7">
     <path d="M 79.82024 69.720865 
L 322.615552 69.720865 
Q 325.215553 69.720865 325.215553 67.120865 
L 325.215553 30.25774 
Q 325.215553 27.65774 322.615552 27.65774 
L 79.82024 27.65774 
Q 77.22024 27.65774 77.22024 30.25774 
L 77.22024 67.120865 
Q 77.22024 69.720865 79.82024 69.720865 
z
" style="fill: #ffffff; opacity: 0.8; stroke: #cccccc; stroke-linejoin: miter"/>
    </g>
    <g id="line2d_22">
     <g>
      <use xlink:href="#ma4e1f7d8a8" x="95.42024" y="38.185709" style="fill: #6f6f6f; stroke: #6f6f6f"/>
     </g>
    </g>
    <g id="text_21">
     <!-- 6,5-SWCNT.txt, slope=349.787 -->
     <g transform="translate(118.82024 42.735709)scale(0.13 -0.13)">
      <defs>
       <path id="DejaVuSans-2c" d="M 750 794 
L 1409 794 
L 1409 256 
L 897 -744 
L 494 -744 
L 750 256 
L 750 794 
z
" transform="scale(0.015625)"/>
       <path id="DejaVuSans-2d" d="M 313 2009 
L 1997 2009 
L 1997 1497 
L 313 1497 
L 313 2009 
z
" transform="scale(0.015625)"/>
       <path id="DejaVuSans-57" d="M 213 4666 
L 850 4666 
L 1831 722 
L 2809 4666 
L 3519 4666 
L 4500 722 
L 5478 4666 
L 6119 4666 
L 4947 0 
L 4153 0 
L 3169 4050 
L 2175 0 
L 1381 0 
L 213 4666 
z
" transform="scale(0.015625)"/>
       <path id="DejaVuSans-43" d="M 4122 4306 
L 4122 3641 
Q 3803 3938 3442 4084 
Q 3081 4231 2675 4231 
Q 1875 4231 1450 3742 
Q 1025 3253 1025 2328 
Q 1025 1406 1450 917 
Q 1875 428 2675 428 
Q 3081 428 3442 575 
Q 3803 722 4122 1019 
L 4122 359 
Q 3791 134 3420 21 
Q 3050 -91 2638 -91 
Q 1578 -91 968 557 
Q 359 1206 359 2328 
Q 359 3453 968 4101 
Q 1578 4750 2638 4750 
Q 3056 4750 3426 4639 
Q 3797 4528 4122 4306 
z
" transform="scale(0.015625)"/>
       <path id="DejaVuSans-4e" d="M 628 4666 
L 1478 4666 
L 3547 763 
L 3547 4666 
L 4159 4666 
L 4159 0 
L 3309 0 
L 1241 3903 
L 1241 0 
L 628 0 
L 628 4666 
z
" transform="scale(0.015625)"/>
       <path id="DejaVuSans-54" d="M -19 4666 
L 3928 4666 
L 3928 4134 
L 2272 4134 
L 2272 0 
L 1638 0 
L 1638 4134 
L -19 4134 
L -19 4666 
z
" transform="scale(0.015625)"/>
       <path id="DejaVuSans-78" d="M 3513 3500 
L 2247 1797 
L 3578 0 
L 2900 0 
L 1881 1375 
L 863 0 
L 184 0 
L 1544 1831 
L 300 3500 
L 978 3500 
L 1906 2253 
L 2834 3500 
L 3513 3500 
z
" transform="scale(0.015625)"/>
       <path id="DejaVuSans-6c" d="M 603 4863 
L 1178 4863 
L 1178 0 
L 603 0 
L 603 4863 
z
" transform="scale(0.015625)"/>
       <path id="DejaVuSans-6f" d="M 1959 3097 
Q 1497 3097 1228 2736 
Q 959 2375 959 1747 
Q 959 1119 1226 758 
Q 1494 397 1959 397 
Q 2419 397 2687 759 
Q 2956 1122 2956 1747 
Q 2956 2369 2687 2733 
Q 2419 3097 1959 3097 
z
M 1959 3584 
Q 2709 3584 3137 3096 
Q 3566 2609 3566 1747 
Q 3566 888 3137 398 
Q 2709 -91 1959 -91 
Q 1206 -91 779 398 
Q 353 888 353 1747 
Q 353 2609 779 3096 
Q 1206 3584 1959 3584 
z
" transform="scale(0.015625)"/>
       <path id="DejaVuSans-70" d="M 1159 525 
L 1159 -1331 
L 581 -1331 
L 581 3500 
L 1159 3500 
L 1159 2969 
Q 1341 3281 1617 3432 
Q 1894 3584 2278 3584 
Q 2916 3584 3314 3078 
Q 3713 2572 3713 1747 
Q 3713 922 3314 415 
Q 2916 -91 2278 -91 
Q 1894 -91 1617 61 
Q 1341 213 1159 525 
z
M 3116 1747 
Q 3116 2381 2855 2742 
Q 2594 3103 2138 3103 
Q 1681 3103 1420 2742 
Q 1159 2381 1159 1747 
Q 1159 1113 1420 752 
Q 1681 391 2138 391 
Q 2594 391 2855 752 
Q 3116 1113 3116 1747 
z
" transform="scale(0.015625)"/>
       <path id="DejaVuSans-65" d="M 3597 1894 
L 3597 1613 
L 953 1613 
Q 991 1019 1311 708 
Q 1631 397 2203 397 
Q 2534 397 2845 478 
Q 3156 559 3463 722 
L 3463 178 
Q 3153 47 2828 -22 
Q 2503 -91 2169 -91 
Q 1331 -91 842 396 
Q 353 884 353 1716 
Q 353 2575 817 3079 
Q 1281 3584 2069 3584 
Q 2775 3584 3186 3129 
Q 3597 2675 3597 1894 
z
M 3022 2063 
Q 3016 2534 2758 2815 
Q 2500 3097 2075 3097 
Q 1594 3097 1305 2825 
Q 1016 2553 972 2059 
L 3022 2063 
z
" transform="scale(0.015625)"/>
       <path id="DejaVuSans-3d" d="M 678 2906 
L 4684 2906 
L 4684 2381 
L 678 2381 
L 678 2906 
z
M 678 1631 
L 4684 1631 
L 4684 1100 
L 678 1100 
L 678 1631 
z
" transform="scale(0.015625)"/>
      </defs>
      <use xlink:href="#DejaVuSans-36"/>
      <use xlink:href="#DejaVuSans-2c" x="63.623047"/>
      <use xlink:href="#DejaVuSans-35" x="95.410156"/>
      <use xlink:href="#DejaVuSans-2d" x="159.033203"/>
      <use xlink:href="#DejaVuSans-53" x="195.117188"/>
      <use xlink:href="#DejaVuSans-57" x="258.59375"/>
      <use xlink:href="#DejaVuSans-43" x="357.470703"/>
      <use xlink:href="#DejaVuSans-4e" x="427.294922"/>
      <use xlink:href="#DejaVuSans-54" x="502.099609"/>
      <use xlink:href="#DejaVuSans-2e" x="551.308594"/>
      <use xlink:href="#DejaVuSans-74" x="583.095703"/>
      <use xlink:href="#DejaVuSans-78" x="622.304688"/>
      <use xlink:href="#DejaVuSans-74" x="681.484375"/>
      <use xlink:href="#DejaVuSans-2c" x="720.693359"/>
      <use xlink:href="#DejaVuSans-20" x="752.480469"/>
      <use xlink:href="#DejaVuSans-73" x="784.267578"/>
      <use xlink:href="#DejaVuSans-6c" x="836.367188"/>
      <use xlink:href="#DejaVuSans-6f" x="864.150391"/>
      <use xlink:href="#DejaVuSans-70" x="925.332031"/>
      <use xlink:href="#DejaVuSans-65" x="988.808594"/>
      <use xlink:href="#DejaVuSans-3d" x="1050.332031"/>
      <use xlink:href="#DejaVuSans-33" x="1134.121094"/>
      <use xlink:href="#DejaVuSans-34" x="1197.744141"/>
      <use xlink:href="#DejaVuSans-39" x="1261.367188"/>
      <use xlink:href="#DejaVuSans-2e" x="1324.990234"/>
      <use xlink:href="#DejaVuSans-37" x="1356.777344"/>
      <use xlink:href="#DejaVuSans-38" x="1420.400391"/>
      <use xlink:href="#DejaVuSans-37" x="1484.023438"/>
     </g>
    </g>
    <g id="line2d_23">
     <g>
      <use xlink:href="#mbbb5cf4c49" x="95.42024" y="57.267271" style="fill: #008aba; stroke: #008aba"/>
     </g>
    </g>
    <g id="text_22">
     <!-- CuMINT.txt, slope=83.218 -->
     <g transform="translate(118.82024 61.817271)scale(0.13 -0.13)">
      <defs>
       <path id="DejaVuSans-75" d="M 544 1381 
L 544 3500 
L 1119 3500 
L 1119 1403 
Q 1119 906 1312 657 
Q 1506 409 1894 409 
Q 2359 409 2629 706 
Q 2900 1003 2900 1516 
L 2900 3500 
L 3475 3500 
L 3475 0 
L 2900 0 
L 2900 538 
Q 2691 219 2414 64 
Q 2138 -91 1772 -91 
Q 1169 -91 856 284 
Q 544 659 544 1381 
z
M 1991 3584 
L 1991 3584 
z
" transform="scale(0.015625)"/>
       <path id="DejaVuSans-4d" d="M 628 4666 
L 1569 4666 
L 2759 1491 
L 3956 4666 
L 4897 4666 
L 4897 0 
L 4281 0 
L 4281 4097 
L 3078 897 
L 2444 897 
L 1241 4097 
L 1241 0 
L 628 0 
L 628 4666 
z
" transform="scale(0.015625)"/>
       <path id="DejaVuSans-49" d="M 628 4666 
L 1259 4666 
L 1259 0 
L 628 0 
L 628 4666 
z
" transform="scale(0.015625)"/>
      </defs>
      <use xlink:href="#DejaVuSans-43"/>
      <use xlink:href="#DejaVuSans-75" x="69.824219"/>
      <use xlink:href="#DejaVuSans-4d" x="133.203125"/>
      <use xlink:href="#DejaVuSans-49" x="219.482422"/>
      <use xlink:href="#DejaVuSans-4e" x="248.974609"/>
      <use xlink:href="#DejaVuSans-54" x="323.779297"/>
      <use xlink:href="#DejaVuSans-2e" x="372.988281"/>
      <use xlink:href="#DejaVuSans-74" x="404.775391"/>
      <use xlink:href="#DejaVuSans-78" x="443.984375"/>
      <use xlink:href="#DejaVuSans-74" x="503.164062"/>
      <use xlink:href="#DejaVuSans-2c" x="542.373047"/>
      <use xlink:href="#DejaVuSans-20" x="574.160156"/>
      <use xlink:href="#DejaVuSans-73" x="605.947266"/>
      <use xlink:href="#DejaVuSans-6c" x="658.046875"/>
      <use xlink:href="#DejaVuSans-6f" x="685.830078"/>
      <use xlink:href="#DejaVuSans-70" x="747.011719"/>
      <use xlink:href="#DejaVuSans-65" x="810.488281"/>
      <use xlink:href="#DejaVuSans-3d" x="872.011719"/>
      <use xlink:href="#DejaVuSans-38" x="955.800781"/>
      <use xlink:href="#DejaVuSans-33" x="1019.423828"/>
      <use xlink:href="#DejaVuSans-2e" x="1083.046875"/>
      <use xlink:href="#DejaVuSans-32" x="1114.833984"/>
      <use xlink:href="#DejaVuSans-31" x="1178.457031"/>
      <use xlink:href="#DejaVuSans-38" x="1242.080078"/>
     </g>
    </g>
   </g>
  </g>
 </g>
 <defs>
  <clipPath id="pac3d3ee156">
   <rect x="70.72024" y="21.15774" width="502.27952" height="365.87202"/>
  </clipPath>
 </defs>
</svg>
