<?xml version="1.0" encoding="utf-8" standalone="no"?>
<!DOCTYPE svg PUBLIC "-//W3C//DTD SVG 1.1//EN"
  "http://www.w3.org/Graphics/SVG/1.1/DTD/svg11.dtd">
<svg xmlns:xlink="http://www.w3.org/1999/xlink" width="576pt" height="432pt" viewBox="0 0 576 432" xmlns="http://www.w3.org/2000/svg" version="1.1">
 <metadata>
  <rdf:RDF xmlns:dc="http://purl.org/dc/elements/1.1/" xmlns:cc="http://creativecommons.org/ns#" xmlns:rdf="http://www.w3.org/1999/02/22-rdf-syntax-ns#">
   <cc:Work>
    <dc:type rdf:resource="http://purl.org/dc/dcmitype/StillImage"/>
    <dc:date>2023-07-13T11:22:38.967007</dc:date>
    <dc:format>image/svg+xml</dc:format>
    <dc:creator>
     <cc:Agent>
      <dc:title>Matplotlib v3.5.2, https://matplotlib.org/</dc:title>
     </cc:Agent>
    </dc:creator>
   </cc:Work>
  </rdf:RDF>
 </metadata>
 <defs>
  <style type="text/css">*{stroke-linejoin: round; stroke-linecap: butt}</style>
 </defs>
 <g id="figure_1">
  <g id="patch_1">
   <path d="M 0 432 
L 576 432 
L 576 0 
L 0 0 
z
" style="fill: #ffffff"/>
  </g>
  <g id="axes_1">
   <g id="patch_2">
    <path d="M 65.11024 387.02976 
L 572.99976 387.02976 
L 572.99976 22.677427 
L 65.11024 22.677427 
z
" style="fill: #ffffff"/>
   </g>
   <g id="patch_3">
    <path d="M 165.763112 387.02976 
L 168.342541 387.02976 
L 168.342541 213.528649 
L 165.763112 213.528649 
z
" clip-path="url(#pd62f31418c)" style="fill: #6f6f6f; opacity: 0.5; stroke: #000000; stroke-linejoin: miter"/>
   </g>
   <g id="patch_4">
    <path d="M 168.342541 387.02976 
L 170.921969 387.02976 
L 170.921969 387.02976 
L 168.342541 387.02976 
z
" clip-path="url(#pd62f31418c)" style="fill: #6f6f6f; opacity: 0.5; stroke: #000000; stroke-linejoin: miter"/>
   </g>
   <g id="patch_5">
    <path d="M 170.921969 387.02976 
L 173.501398 387.02976 
L 173.501398 387.02976 
L 170.921969 387.02976 
z
" clip-path="url(#pd62f31418c)" style="fill: #6f6f6f; opacity: 0.5; stroke: #000000; stroke-linejoin: miter"/>
   </g>
   <g id="patch_6">
    <path d="M 173.501398 387.02976 
L 176.080827 387.02976 
L 176.080827 387.02976 
L 173.501398 387.02976 
z
" clip-path="url(#pd62f31418c)" style="fill: #6f6f6f; opacity: 0.5; stroke: #000000; stroke-linejoin: miter"/>
   </g>
   <g id="patch_7">
    <path d="M 176.080827 387.02976 
L 178.660256 387.02976 
L 178.660256 387.02976 
L 176.080827 387.02976 
z
" clip-path="url(#pd62f31418c)" style="fill: #6f6f6f; opacity: 0.5; stroke: #000000; stroke-linejoin: miter"/>
   </g>
   <g id="patch_8">
    <path d="M 178.660256 387.02976 
L 181.239684 387.02976 
L 181.239684 387.02976 
L 178.660256 387.02976 
z
" clip-path="url(#pd62f31418c)" style="fill: #6f6f6f; opacity: 0.5; stroke: #000000; stroke-linejoin: miter"/>
   </g>
   <g id="patch_9">
    <path d="M 181.239684 387.02976 
L 183.819113 387.02976 
L 183.819113 387.02976 
L 181.239684 387.02976 
z
" clip-path="url(#pd62f31418c)" style="fill: #6f6f6f; opacity: 0.5; stroke: #000000; stroke-linejoin: miter"/>
   </g>
   <g id="patch_10">
    <path d="M 183.819113 387.02976 
L 186.398542 387.02976 
L 186.398542 387.02976 
L 183.819113 387.02976 
z
" clip-path="url(#pd62f31418c)" style="fill: #6f6f6f; opacity: 0.5; stroke: #000000; stroke-linejoin: miter"/>
   </g>
   <g id="patch_11">
    <path d="M 186.398542 387.02976 
L 188.977971 387.02976 
L 188.977971 213.528649 
L 186.398542 213.528649 
z
" clip-path="url(#pd62f31418c)" style="fill: #6f6f6f; opacity: 0.5; stroke: #000000; stroke-linejoin: miter"/>
   </g>
   <g id="patch_12">
    <path d="M 188.977971 387.02976 
L 191.557399 387.02976 
L 191.557399 387.02976 
L 188.977971 387.02976 
z
" clip-path="url(#pd62f31418c)" style="fill: #6f6f6f; opacity: 0.5; stroke: #000000; stroke-linejoin: miter"/>
   </g>
   <g id="patch_13">
    <path d="M 191.557399 387.02976 
L 194.136828 387.02976 
L 194.136828 387.02976 
L 191.557399 387.02976 
z
" clip-path="url(#pd62f31418c)" style="fill: #6f6f6f; opacity: 0.5; stroke: #000000; stroke-linejoin: miter"/>
   </g>
   <g id="patch_14">
    <path d="M 194.136828 387.02976 
L 196.716257 387.02976 
L 196.716257 387.02976 
L 194.136828 387.02976 
z
" clip-path="url(#pd62f31418c)" style="fill: #6f6f6f; opacity: 0.5; stroke: #000000; stroke-linejoin: miter"/>
   </g>
   <g id="patch_15">
    <path d="M 196.716257 387.02976 
L 199.295686 387.02976 
L 199.295686 213.528649 
L 196.716257 213.528649 
z
" clip-path="url(#pd62f31418c)" style="fill: #6f6f6f; opacity: 0.5; stroke: #000000; stroke-linejoin: miter"/>
   </g>
   <g id="patch_16">
    <path d="M 199.295686 387.02976 
L 201.875114 387.02976 
L 201.875114 387.02976 
L 199.295686 387.02976 
z
" clip-path="url(#pd62f31418c)" style="fill: #6f6f6f; opacity: 0.5; stroke: #000000; stroke-linejoin: miter"/>
   </g>
   <g id="patch_17">
    <path d="M 201.875114 387.02976 
L 204.454543 387.02976 
L 204.454543 40.027539 
L 201.875114 40.027539 
z
" clip-path="url(#pd62f31418c)" style="fill: #6f6f6f; opacity: 0.5; stroke: #000000; stroke-linejoin: miter"/>
   </g>
   <g id="patch_18">
    <path d="M 204.454543 387.02976 
L 207.033972 387.02976 
L 207.033972 387.02976 
L 204.454543 387.02976 
z
" clip-path="url(#pd62f31418c)" style="fill: #6f6f6f; opacity: 0.5; stroke: #000000; stroke-linejoin: miter"/>
   </g>
   <g id="patch_19">
    <path d="M 207.033972 387.02976 
L 209.613401 387.02976 
L 209.613401 213.528649 
L 207.033972 213.528649 
z
" clip-path="url(#pd62f31418c)" style="fill: #6f6f6f; opacity: 0.5; stroke: #000000; stroke-linejoin: miter"/>
   </g>
   <g id="patch_20">
    <path d="M 209.613401 387.02976 
L 212.192829 387.02976 
L 212.192829 387.02976 
L 209.613401 387.02976 
z
" clip-path="url(#pd62f31418c)" style="fill: #6f6f6f; opacity: 0.5; stroke: #000000; stroke-linejoin: miter"/>
   </g>
   <g id="patch_21">
    <path d="M 212.192829 387.02976 
L 214.772258 387.02976 
L 214.772258 40.027539 
L 212.192829 40.027539 
z
" clip-path="url(#pd62f31418c)" style="fill: #6f6f6f; opacity: 0.5; stroke: #000000; stroke-linejoin: miter"/>
   </g>
   <g id="patch_22">
    <path d="M 214.772258 387.02976 
L 217.351687 387.02976 
L 217.351687 387.02976 
L 214.772258 387.02976 
z
" clip-path="url(#pd62f31418c)" style="fill: #6f6f6f; opacity: 0.5; stroke: #000000; stroke-linejoin: miter"/>
   </g>
   <g id="patch_23">
    <path d="M 217.351687 387.02976 
L 219.931116 387.02976 
L 219.931116 213.528649 
L 217.351687 213.528649 
z
" clip-path="url(#pd62f31418c)" style="fill: #6f6f6f; opacity: 0.5; stroke: #000000; stroke-linejoin: miter"/>
   </g>
   <g id="patch_24">
    <path d="M 219.931116 387.02976 
L 222.510544 387.02976 
L 222.510544 387.02976 
L 219.931116 387.02976 
z
" clip-path="url(#pd62f31418c)" style="fill: #6f6f6f; opacity: 0.5; stroke: #000000; stroke-linejoin: miter"/>
   </g>
   <g id="patch_25">
    <path d="M 222.510544 387.02976 
L 225.089973 387.02976 
L 225.089973 387.02976 
L 222.510544 387.02976 
z
" clip-path="url(#pd62f31418c)" style="fill: #6f6f6f; opacity: 0.5; stroke: #000000; stroke-linejoin: miter"/>
   </g>
   <g id="patch_26">
    <path d="M 225.089973 387.02976 
L 227.669402 387.02976 
L 227.669402 387.02976 
L 225.089973 387.02976 
z
" clip-path="url(#pd62f31418c)" style="fill: #6f6f6f; opacity: 0.5; stroke: #000000; stroke-linejoin: miter"/>
   </g>
   <g id="patch_27">
    <path d="M 227.669402 387.02976 
L 230.248831 387.02976 
L 230.248831 387.02976 
L 227.669402 387.02976 
z
" clip-path="url(#pd62f31418c)" style="fill: #6f6f6f; opacity: 0.5; stroke: #000000; stroke-linejoin: miter"/>
   </g>
   <g id="patch_28">
    <path d="M 230.248831 387.02976 
L 232.828259 387.02976 
L 232.828259 387.02976 
L 230.248831 387.02976 
z
" clip-path="url(#pd62f31418c)" style="fill: #6f6f6f; opacity: 0.5; stroke: #000000; stroke-linejoin: miter"/>
   </g>
   <g id="patch_29">
    <path d="M 232.828259 387.02976 
L 235.407688 387.02976 
L 235.407688 387.02976 
L 232.828259 387.02976 
z
" clip-path="url(#pd62f31418c)" style="fill: #6f6f6f; opacity: 0.5; stroke: #000000; stroke-linejoin: miter"/>
   </g>
   <g id="patch_30">
    <path d="M 235.407688 387.02976 
L 237.987117 387.02976 
L 237.987117 387.02976 
L 235.407688 387.02976 
z
" clip-path="url(#pd62f31418c)" style="fill: #6f6f6f; opacity: 0.5; stroke: #000000; stroke-linejoin: miter"/>
   </g>
   <g id="patch_31">
    <path d="M 237.987117 387.02976 
L 240.566546 387.02976 
L 240.566546 387.02976 
L 237.987117 387.02976 
z
" clip-path="url(#pd62f31418c)" style="fill: #6f6f6f; opacity: 0.5; stroke: #000000; stroke-linejoin: miter"/>
   </g>
   <g id="patch_32">
    <path d="M 240.566546 387.02976 
L 243.145974 387.02976 
L 243.145974 387.02976 
L 240.566546 387.02976 
z
" clip-path="url(#pd62f31418c)" style="fill: #6f6f6f; opacity: 0.5; stroke: #000000; stroke-linejoin: miter"/>
   </g>
   <g id="patch_33">
    <path d="M 243.145974 387.02976 
L 245.725403 387.02976 
L 245.725403 387.02976 
L 243.145974 387.02976 
z
" clip-path="url(#pd62f31418c)" style="fill: #6f6f6f; opacity: 0.5; stroke: #000000; stroke-linejoin: miter"/>
   </g>
   <g id="patch_34">
    <path d="M 245.725403 387.02976 
L 248.304832 387.02976 
L 248.304832 213.528649 
L 245.725403 213.528649 
z
" clip-path="url(#pd62f31418c)" style="fill: #6f6f6f; opacity: 0.5; stroke: #000000; stroke-linejoin: miter"/>
   </g>
   <g id="patch_35">
    <path d="M 248.304832 387.02976 
L 250.884261 387.02976 
L 250.884261 387.02976 
L 248.304832 387.02976 
z
" clip-path="url(#pd62f31418c)" style="fill: #6f6f6f; opacity: 0.5; stroke: #000000; stroke-linejoin: miter"/>
   </g>
   <g id="patch_36">
    <path d="M 250.884261 387.02976 
L 253.463689 387.02976 
L 253.463689 387.02976 
L 250.884261 387.02976 
z
" clip-path="url(#pd62f31418c)" style="fill: #6f6f6f; opacity: 0.5; stroke: #000000; stroke-linejoin: miter"/>
   </g>
   <g id="patch_37">
    <path d="M 253.463689 387.02976 
L 256.043118 387.02976 
L 256.043118 387.02976 
L 253.463689 387.02976 
z
" clip-path="url(#pd62f31418c)" style="fill: #6f6f6f; opacity: 0.5; stroke: #000000; stroke-linejoin: miter"/>
   </g>
   <g id="patch_38">
    <path d="M 256.043118 387.02976 
L 258.622547 387.02976 
L 258.622547 213.528649 
L 256.043118 213.528649 
z
" clip-path="url(#pd62f31418c)" style="fill: #6f6f6f; opacity: 0.5; stroke: #000000; stroke-linejoin: miter"/>
   </g>
   <g id="patch_39">
    <path d="M 258.622547 387.02976 
L 261.201975 387.02976 
L 261.201975 387.02976 
L 258.622547 387.02976 
z
" clip-path="url(#pd62f31418c)" style="fill: #6f6f6f; opacity: 0.5; stroke: #000000; stroke-linejoin: miter"/>
   </g>
   <g id="patch_40">
    <path d="M 261.201975 387.02976 
L 263.781404 387.02976 
L 263.781404 387.02976 
L 261.201975 387.02976 
z
" clip-path="url(#pd62f31418c)" style="fill: #6f6f6f; opacity: 0.5; stroke: #000000; stroke-linejoin: miter"/>
   </g>
   <g id="patch_41">
    <path d="M 263.781404 387.02976 
L 266.360833 387.02976 
L 266.360833 387.02976 
L 263.781404 387.02976 
z
" clip-path="url(#pd62f31418c)" style="fill: #6f6f6f; opacity: 0.5; stroke: #000000; stroke-linejoin: miter"/>
   </g>
   <g id="patch_42">
    <path d="M 266.360833 387.02976 
L 268.940262 387.02976 
L 268.940262 387.02976 
L 266.360833 387.02976 
z
" clip-path="url(#pd62f31418c)" style="fill: #6f6f6f; opacity: 0.5; stroke: #000000; stroke-linejoin: miter"/>
   </g>
   <g id="patch_43">
    <path d="M 268.940262 387.02976 
L 271.51969 387.02976 
L 271.51969 213.528649 
L 268.940262 213.528649 
z
" clip-path="url(#pd62f31418c)" style="fill: #6f6f6f; opacity: 0.5; stroke: #000000; stroke-linejoin: miter"/>
   </g>
   <g id="patch_44">
    <path d="M 271.51969 387.02976 
L 274.099119 387.02976 
L 274.099119 387.02976 
L 271.51969 387.02976 
z
" clip-path="url(#pd62f31418c)" style="fill: #6f6f6f; opacity: 0.5; stroke: #000000; stroke-linejoin: miter"/>
   </g>
   <g id="patch_45">
    <path d="M 274.099119 387.02976 
L 276.678548 387.02976 
L 276.678548 387.02976 
L 274.099119 387.02976 
z
" clip-path="url(#pd62f31418c)" style="fill: #6f6f6f; opacity: 0.5; stroke: #000000; stroke-linejoin: miter"/>
   </g>
   <g id="patch_46">
    <path d="M 276.678548 387.02976 
L 279.257977 387.02976 
L 279.257977 387.02976 
L 276.678548 387.02976 
z
" clip-path="url(#pd62f31418c)" style="fill: #6f6f6f; opacity: 0.5; stroke: #000000; stroke-linejoin: miter"/>
   </g>
   <g id="patch_47">
    <path d="M 279.257977 387.02976 
L 281.837405 387.02976 
L 281.837405 387.02976 
L 279.257977 387.02976 
z
" clip-path="url(#pd62f31418c)" style="fill: #6f6f6f; opacity: 0.5; stroke: #000000; stroke-linejoin: miter"/>
   </g>
   <g id="patch_48">
    <path d="M 281.837405 387.02976 
L 284.416834 387.02976 
L 284.416834 387.02976 
L 281.837405 387.02976 
z
" clip-path="url(#pd62f31418c)" style="fill: #6f6f6f; opacity: 0.5; stroke: #000000; stroke-linejoin: miter"/>
   </g>
   <g id="patch_49">
    <path d="M 284.416834 387.02976 
L 286.996263 387.02976 
L 286.996263 213.528649 
L 284.416834 213.528649 
z
" clip-path="url(#pd62f31418c)" style="fill: #6f6f6f; opacity: 0.5; stroke: #000000; stroke-linejoin: miter"/>
   </g>
   <g id="patch_50">
    <path d="M 286.996263 387.02976 
L 289.575692 387.02976 
L 289.575692 213.528649 
L 286.996263 213.528649 
z
" clip-path="url(#pd62f31418c)" style="fill: #6f6f6f; opacity: 0.5; stroke: #000000; stroke-linejoin: miter"/>
   </g>
   <g id="patch_51">
    <path d="M 289.575692 387.02976 
L 292.15512 387.02976 
L 292.15512 387.02976 
L 289.575692 387.02976 
z
" clip-path="url(#pd62f31418c)" style="fill: #6f6f6f; opacity: 0.5; stroke: #000000; stroke-linejoin: miter"/>
   </g>
   <g id="patch_52">
    <path d="M 292.15512 387.02976 
L 294.734549 387.02976 
L 294.734549 387.02976 
L 292.15512 387.02976 
z
" clip-path="url(#pd62f31418c)" style="fill: #6f6f6f; opacity: 0.5; stroke: #000000; stroke-linejoin: miter"/>
   </g>
   <g id="patch_53">
    <path d="M 294.734549 387.02976 
L 297.313978 387.02976 
L 297.313978 387.02976 
L 294.734549 387.02976 
z
" clip-path="url(#pd62f31418c)" style="fill: #6f6f6f; opacity: 0.5; stroke: #000000; stroke-linejoin: miter"/>
   </g>
   <g id="patch_54">
    <path d="M 297.313978 387.02976 
L 299.893407 387.02976 
L 299.893407 387.02976 
L 297.313978 387.02976 
z
" clip-path="url(#pd62f31418c)" style="fill: #6f6f6f; opacity: 0.5; stroke: #000000; stroke-linejoin: miter"/>
   </g>
   <g id="patch_55">
    <path d="M 299.893407 387.02976 
L 302.472835 387.02976 
L 302.472835 213.528649 
L 299.893407 213.528649 
z
" clip-path="url(#pd62f31418c)" style="fill: #6f6f6f; opacity: 0.5; stroke: #000000; stroke-linejoin: miter"/>
   </g>
   <g id="patch_56">
    <path d="M 302.472835 387.02976 
L 305.052264 387.02976 
L 305.052264 387.02976 
L 302.472835 387.02976 
z
" clip-path="url(#pd62f31418c)" style="fill: #6f6f6f; opacity: 0.5; stroke: #000000; stroke-linejoin: miter"/>
   </g>
   <g id="patch_57">
    <path d="M 305.052264 387.02976 
L 307.631693 387.02976 
L 307.631693 213.528649 
L 305.052264 213.528649 
z
" clip-path="url(#pd62f31418c)" style="fill: #6f6f6f; opacity: 0.5; stroke: #000000; stroke-linejoin: miter"/>
   </g>
   <g id="patch_58">
    <path d="M 307.631693 387.02976 
L 310.211122 387.02976 
L 310.211122 387.02976 
L 307.631693 387.02976 
z
" clip-path="url(#pd62f31418c)" style="fill: #6f6f6f; opacity: 0.5; stroke: #000000; stroke-linejoin: miter"/>
   </g>
   <g id="patch_59">
    <path d="M 310.211122 387.02976 
L 312.79055 387.02976 
L 312.79055 213.528649 
L 310.211122 213.528649 
z
" clip-path="url(#pd62f31418c)" style="fill: #6f6f6f; opacity: 0.5; stroke: #000000; stroke-linejoin: miter"/>
   </g>
   <g id="patch_60">
    <path d="M 312.79055 387.02976 
L 315.369979 387.02976 
L 315.369979 213.528649 
L 312.79055 213.528649 
z
" clip-path="url(#pd62f31418c)" style="fill: #6f6f6f; opacity: 0.5; stroke: #000000; stroke-linejoin: miter"/>
   </g>
   <g id="patch_61">
    <path d="M 315.369979 387.02976 
L 317.949408 387.02976 
L 317.949408 387.02976 
L 315.369979 387.02976 
z
" clip-path="url(#pd62f31418c)" style="fill: #6f6f6f; opacity: 0.5; stroke: #000000; stroke-linejoin: miter"/>
   </g>
   <g id="patch_62">
    <path d="M 317.949408 387.02976 
L 320.528837 387.02976 
L 320.528837 387.02976 
L 317.949408 387.02976 
z
" clip-path="url(#pd62f31418c)" style="fill: #6f6f6f; opacity: 0.5; stroke: #000000; stroke-linejoin: miter"/>
   </g>
   <g id="patch_63">
    <path d="M 320.528837 387.02976 
L 323.108265 387.02976 
L 323.108265 387.02976 
L 320.528837 387.02976 
z
" clip-path="url(#pd62f31418c)" style="fill: #6f6f6f; opacity: 0.5; stroke: #000000; stroke-linejoin: miter"/>
   </g>
   <g id="patch_64">
    <path d="M 323.108265 387.02976 
L 325.687694 387.02976 
L 325.687694 387.02976 
L 323.108265 387.02976 
z
" clip-path="url(#pd62f31418c)" style="fill: #6f6f6f; opacity: 0.5; stroke: #000000; stroke-linejoin: miter"/>
   </g>
   <g id="patch_65">
    <path d="M 325.687694 387.02976 
L 328.267123 387.02976 
L 328.267123 387.02976 
L 325.687694 387.02976 
z
" clip-path="url(#pd62f31418c)" style="fill: #6f6f6f; opacity: 0.5; stroke: #000000; stroke-linejoin: miter"/>
   </g>
   <g id="patch_66">
    <path d="M 88.196127 387.02976 
L 90.775556 387.02976 
L 90.775556 213.528649 
L 88.196127 213.528649 
z
" clip-path="url(#pd62f31418c)" style="fill: #008aba; opacity: 0.5; stroke: #000000; stroke-linejoin: miter"/>
   </g>
   <g id="patch_67">
    <path d="M 90.775556 387.02976 
L 93.354985 387.02976 
L 93.354985 387.02976 
L 90.775556 387.02976 
z
" clip-path="url(#pd62f31418c)" style="fill: #008aba; opacity: 0.5; stroke: #000000; stroke-linejoin: miter"/>
   </g>
   <g id="patch_68">
    <path d="M 93.354985 387.02976 
L 95.934414 387.02976 
L 95.934414 387.02976 
L 93.354985 387.02976 
z
" clip-path="url(#pd62f31418c)" style="fill: #008aba; opacity: 0.5; stroke: #000000; stroke-linejoin: miter"/>
   </g>
   <g id="patch_69">
    <path d="M 95.934414 387.02976 
L 98.513842 387.02976 
L 98.513842 387.02976 
L 95.934414 387.02976 
z
" clip-path="url(#pd62f31418c)" style="fill: #008aba; opacity: 0.5; stroke: #000000; stroke-linejoin: miter"/>
   </g>
   <g id="patch_70">
    <path d="M 98.513842 387.02976 
L 101.093271 387.02976 
L 101.093271 387.02976 
L 98.513842 387.02976 
z
" clip-path="url(#pd62f31418c)" style="fill: #008aba; opacity: 0.5; stroke: #000000; stroke-linejoin: miter"/>
   </g>
   <g id="patch_71">
    <path d="M 101.093271 387.02976 
L 103.6727 387.02976 
L 103.6727 213.528649 
L 101.093271 213.528649 
z
" clip-path="url(#pd62f31418c)" style="fill: #008aba; opacity: 0.5; stroke: #000000; stroke-linejoin: miter"/>
   </g>
   <g id="patch_72">
    <path d="M 103.6727 387.02976 
L 106.252128 387.02976 
L 106.252128 387.02976 
L 103.6727 387.02976 
z
" clip-path="url(#pd62f31418c)" style="fill: #008aba; opacity: 0.5; stroke: #000000; stroke-linejoin: miter"/>
   </g>
   <g id="patch_73">
    <path d="M 106.252128 387.02976 
L 108.831557 387.02976 
L 108.831557 387.02976 
L 106.252128 387.02976 
z
" clip-path="url(#pd62f31418c)" style="fill: #008aba; opacity: 0.5; stroke: #000000; stroke-linejoin: miter"/>
   </g>
   <g id="patch_74">
    <path d="M 108.831557 387.02976 
L 111.410986 387.02976 
L 111.410986 387.02976 
L 108.831557 387.02976 
z
" clip-path="url(#pd62f31418c)" style="fill: #008aba; opacity: 0.5; stroke: #000000; stroke-linejoin: miter"/>
   </g>
   <g id="patch_75">
    <path d="M 111.410986 387.02976 
L 113.990415 387.02976 
L 113.990415 387.02976 
L 111.410986 387.02976 
z
" clip-path="url(#pd62f31418c)" style="fill: #008aba; opacity: 0.5; stroke: #000000; stroke-linejoin: miter"/>
   </g>
   <g id="patch_76">
    <path d="M 113.990415 387.02976 
L 116.569843 387.02976 
L 116.569843 387.02976 
L 113.990415 387.02976 
z
" clip-path="url(#pd62f31418c)" style="fill: #008aba; opacity: 0.5; stroke: #000000; stroke-linejoin: miter"/>
   </g>
   <g id="patch_77">
    <path d="M 116.569843 387.02976 
L 119.149272 387.02976 
L 119.149272 387.02976 
L 116.569843 387.02976 
z
" clip-path="url(#pd62f31418c)" style="fill: #008aba; opacity: 0.5; stroke: #000000; stroke-linejoin: miter"/>
   </g>
   <g id="patch_78">
    <path d="M 119.149272 387.02976 
L 121.728701 387.02976 
L 121.728701 387.02976 
L 119.149272 387.02976 
z
" clip-path="url(#pd62f31418c)" style="fill: #008aba; opacity: 0.5; stroke: #000000; stroke-linejoin: miter"/>
   </g>
   <g id="patch_79">
    <path d="M 121.728701 387.02976 
L 124.30813 387.02976 
L 124.30813 387.02976 
L 121.728701 387.02976 
z
" clip-path="url(#pd62f31418c)" style="fill: #008aba; opacity: 0.5; stroke: #000000; stroke-linejoin: miter"/>
   </g>
   <g id="patch_80">
    <path d="M 124.30813 387.02976 
L 126.887558 387.02976 
L 126.887558 387.02976 
L 124.30813 387.02976 
z
" clip-path="url(#pd62f31418c)" style="fill: #008aba; opacity: 0.5; stroke: #000000; stroke-linejoin: miter"/>
   </g>
   <g id="patch_81">
    <path d="M 126.887558 387.02976 
L 129.466987 387.02976 
L 129.466987 387.02976 
L 126.887558 387.02976 
z
" clip-path="url(#pd62f31418c)" style="fill: #008aba; opacity: 0.5; stroke: #000000; stroke-linejoin: miter"/>
   </g>
   <g id="patch_82">
    <path d="M 129.466987 387.02976 
L 132.046416 387.02976 
L 132.046416 387.02976 
L 129.466987 387.02976 
z
" clip-path="url(#pd62f31418c)" style="fill: #008aba; opacity: 0.5; stroke: #000000; stroke-linejoin: miter"/>
   </g>
   <g id="patch_83">
    <path d="M 132.046416 387.02976 
L 134.625845 387.02976 
L 134.625845 387.02976 
L 132.046416 387.02976 
z
" clip-path="url(#pd62f31418c)" style="fill: #008aba; opacity: 0.5; stroke: #000000; stroke-linejoin: miter"/>
   </g>
   <g id="patch_84">
    <path d="M 134.625845 387.02976 
L 137.205273 387.02976 
L 137.205273 387.02976 
L 134.625845 387.02976 
z
" clip-path="url(#pd62f31418c)" style="fill: #008aba; opacity: 0.5; stroke: #000000; stroke-linejoin: miter"/>
   </g>
   <g id="patch_85">
    <path d="M 137.205273 387.02976 
L 139.784702 387.02976 
L 139.784702 387.02976 
L 137.205273 387.02976 
z
" clip-path="url(#pd62f31418c)" style="fill: #008aba; opacity: 0.5; stroke: #000000; stroke-linejoin: miter"/>
   </g>
   <g id="patch_86">
    <path d="M 139.784702 387.02976 
L 142.364131 387.02976 
L 142.364131 387.02976 
L 139.784702 387.02976 
z
" clip-path="url(#pd62f31418c)" style="fill: #008aba; opacity: 0.5; stroke: #000000; stroke-linejoin: miter"/>
   </g>
   <g id="patch_87">
    <path d="M 142.364131 387.02976 
L 144.94356 387.02976 
L 144.94356 387.02976 
L 142.364131 387.02976 
z
" clip-path="url(#pd62f31418c)" style="fill: #008aba; opacity: 0.5; stroke: #000000; stroke-linejoin: miter"/>
   </g>
   <g id="patch_88">
    <path d="M 144.94356 387.02976 
L 147.522988 387.02976 
L 147.522988 387.02976 
L 144.94356 387.02976 
z
" clip-path="url(#pd62f31418c)" style="fill: #008aba; opacity: 0.5; stroke: #000000; stroke-linejoin: miter"/>
   </g>
   <g id="patch_89">
    <path d="M 147.522988 387.02976 
L 150.102417 387.02976 
L 150.102417 387.02976 
L 147.522988 387.02976 
z
" clip-path="url(#pd62f31418c)" style="fill: #008aba; opacity: 0.5; stroke: #000000; stroke-linejoin: miter"/>
   </g>
   <g id="patch_90">
    <path d="M 150.102417 387.02976 
L 152.681846 387.02976 
L 152.681846 387.02976 
L 150.102417 387.02976 
z
" clip-path="url(#pd62f31418c)" style="fill: #008aba; opacity: 0.5; stroke: #000000; stroke-linejoin: miter"/>
   </g>
   <g id="patch_91">
    <path d="M 152.681846 387.02976 
L 155.261275 387.02976 
L 155.261275 387.02976 
L 152.681846 387.02976 
z
" clip-path="url(#pd62f31418c)" style="fill: #008aba; opacity: 0.5; stroke: #000000; stroke-linejoin: miter"/>
   </g>
   <g id="patch_92">
    <path d="M 155.261275 387.02976 
L 157.840703 387.02976 
L 157.840703 387.02976 
L 155.261275 387.02976 
z
" clip-path="url(#pd62f31418c)" style="fill: #008aba; opacity: 0.5; stroke: #000000; stroke-linejoin: miter"/>
   </g>
   <g id="patch_93">
    <path d="M 157.840703 387.02976 
L 160.420132 387.02976 
L 160.420132 387.02976 
L 157.840703 387.02976 
z
" clip-path="url(#pd62f31418c)" style="fill: #008aba; opacity: 0.5; stroke: #000000; stroke-linejoin: miter"/>
   </g>
   <g id="patch_94">
    <path d="M 160.420132 387.02976 
L 162.999561 387.02976 
L 162.999561 387.02976 
L 160.420132 387.02976 
z
" clip-path="url(#pd62f31418c)" style="fill: #008aba; opacity: 0.5; stroke: #000000; stroke-linejoin: miter"/>
   </g>
   <g id="patch_95">
    <path d="M 162.999561 387.02976 
L 165.57899 387.02976 
L 165.57899 387.02976 
L 162.999561 387.02976 
z
" clip-path="url(#pd62f31418c)" style="fill: #008aba; opacity: 0.5; stroke: #000000; stroke-linejoin: miter"/>
   </g>
   <g id="patch_96">
    <path d="M 165.57899 387.02976 
L 168.158418 387.02976 
L 168.158418 387.02976 
L 165.57899 387.02976 
z
" clip-path="url(#pd62f31418c)" style="fill: #008aba; opacity: 0.5; stroke: #000000; stroke-linejoin: miter"/>
   </g>
   <g id="patch_97">
    <path d="M 168.158418 387.02976 
L 170.737847 387.02976 
L 170.737847 387.02976 
L 168.158418 387.02976 
z
" clip-path="url(#pd62f31418c)" style="fill: #008aba; opacity: 0.5; stroke: #000000; stroke-linejoin: miter"/>
   </g>
   <g id="patch_98">
    <path d="M 170.737847 387.02976 
L 173.317276 387.02976 
L 173.317276 387.02976 
L 170.737847 387.02976 
z
" clip-path="url(#pd62f31418c)" style="fill: #008aba; opacity: 0.5; stroke: #000000; stroke-linejoin: miter"/>
   </g>
   <g id="patch_99">
    <path d="M 173.317276 387.02976 
L 175.896705 387.02976 
L 175.896705 387.02976 
L 173.317276 387.02976 
z
" clip-path="url(#pd62f31418c)" style="fill: #008aba; opacity: 0.5; stroke: #000000; stroke-linejoin: miter"/>
   </g>
   <g id="patch_100">
    <path d="M 175.896705 387.02976 
L 178.476133 387.02976 
L 178.476133 387.02976 
L 175.896705 387.02976 
z
" clip-path="url(#pd62f31418c)" style="fill: #008aba; opacity: 0.5; stroke: #000000; stroke-linejoin: miter"/>
   </g>
   <g id="patch_101">
    <path d="M 178.476133 387.02976 
L 181.055562 387.02976 
L 181.055562 387.02976 
L 178.476133 387.02976 
z
" clip-path="url(#pd62f31418c)" style="fill: #008aba; opacity: 0.5; stroke: #000000; stroke-linejoin: miter"/>
   </g>
   <g id="patch_102">
    <path d="M 181.055562 387.02976 
L 183.634991 387.02976 
L 183.634991 213.528649 
L 181.055562 213.528649 
z
" clip-path="url(#pd62f31418c)" style="fill: #008aba; opacity: 0.5; stroke: #000000; stroke-linejoin: miter"/>
   </g>
   <g id="patch_103">
    <path d="M 183.634991 387.02976 
L 186.21442 387.02976 
L 186.21442 387.02976 
L 183.634991 387.02976 
z
" clip-path="url(#pd62f31418c)" style="fill: #008aba; opacity: 0.5; stroke: #000000; stroke-linejoin: miter"/>
   </g>
   <g id="patch_104">
    <path d="M 186.21442 387.02976 
L 188.793848 387.02976 
L 188.793848 387.02976 
L 186.21442 387.02976 
z
" clip-path="url(#pd62f31418c)" style="fill: #008aba; opacity: 0.5; stroke: #000000; stroke-linejoin: miter"/>
   </g>
   <g id="patch_105">
    <path d="M 188.793848 387.02976 
L 191.373277 387.02976 
L 191.373277 387.02976 
L 188.793848 387.02976 
z
" clip-path="url(#pd62f31418c)" style="fill: #008aba; opacity: 0.5; stroke: #000000; stroke-linejoin: miter"/>
   </g>
   <g id="patch_106">
    <path d="M 191.373277 387.02976 
L 193.952706 387.02976 
L 193.952706 387.02976 
L 191.373277 387.02976 
z
" clip-path="url(#pd62f31418c)" style="fill: #008aba; opacity: 0.5; stroke: #000000; stroke-linejoin: miter"/>
   </g>
   <g id="patch_107">
    <path d="M 193.952706 387.02976 
L 196.532135 387.02976 
L 196.532135 387.02976 
L 193.952706 387.02976 
z
" clip-path="url(#pd62f31418c)" style="fill: #008aba; opacity: 0.5; stroke: #000000; stroke-linejoin: miter"/>
   </g>
   <g id="patch_108">
    <path d="M 196.532135 387.02976 
L 199.111563 387.02976 
L 199.111563 387.02976 
L 196.532135 387.02976 
z
" clip-path="url(#pd62f31418c)" style="fill: #008aba; opacity: 0.5; stroke: #000000; stroke-linejoin: miter"/>
   </g>
   <g id="patch_109">
    <path d="M 199.111563 387.02976 
L 201.690992 387.02976 
L 201.690992 387.02976 
L 199.111563 387.02976 
z
" clip-path="url(#pd62f31418c)" style="fill: #008aba; opacity: 0.5; stroke: #000000; stroke-linejoin: miter"/>
   </g>
   <g id="patch_110">
    <path d="M 201.690992 387.02976 
L 204.270421 387.02976 
L 204.270421 387.02976 
L 201.690992 387.02976 
z
" clip-path="url(#pd62f31418c)" style="fill: #008aba; opacity: 0.5; stroke: #000000; stroke-linejoin: miter"/>
   </g>
   <g id="patch_111">
    <path d="M 204.270421 387.02976 
L 206.84985 387.02976 
L 206.84985 387.02976 
L 204.270421 387.02976 
z
" clip-path="url(#pd62f31418c)" style="fill: #008aba; opacity: 0.5; stroke: #000000; stroke-linejoin: miter"/>
   </g>
   <g id="patch_112">
    <path d="M 206.84985 387.02976 
L 209.429278 387.02976 
L 209.429278 387.02976 
L 206.84985 387.02976 
z
" clip-path="url(#pd62f31418c)" style="fill: #008aba; opacity: 0.5; stroke: #000000; stroke-linejoin: miter"/>
   </g>
   <g id="patch_113">
    <path d="M 209.429278 387.02976 
L 212.008707 387.02976 
L 212.008707 387.02976 
L 209.429278 387.02976 
z
" clip-path="url(#pd62f31418c)" style="fill: #008aba; opacity: 0.5; stroke: #000000; stroke-linejoin: miter"/>
   </g>
   <g id="patch_114">
    <path d="M 212.008707 387.02976 
L 214.588136 387.02976 
L 214.588136 387.02976 
L 212.008707 387.02976 
z
" clip-path="url(#pd62f31418c)" style="fill: #008aba; opacity: 0.5; stroke: #000000; stroke-linejoin: miter"/>
   </g>
   <g id="patch_115">
    <path d="M 214.588136 387.02976 
L 217.167565 387.02976 
L 217.167565 387.02976 
L 214.588136 387.02976 
z
" clip-path="url(#pd62f31418c)" style="fill: #008aba; opacity: 0.5; stroke: #000000; stroke-linejoin: miter"/>
   </g>
   <g id="patch_116">
    <path d="M 217.167565 387.02976 
L 219.746993 387.02976 
L 219.746993 387.02976 
L 217.167565 387.02976 
z
" clip-path="url(#pd62f31418c)" style="fill: #008aba; opacity: 0.5; stroke: #000000; stroke-linejoin: miter"/>
   </g>
   <g id="patch_117">
    <path d="M 219.746993 387.02976 
L 222.326422 387.02976 
L 222.326422 387.02976 
L 219.746993 387.02976 
z
" clip-path="url(#pd62f31418c)" style="fill: #008aba; opacity: 0.5; stroke: #000000; stroke-linejoin: miter"/>
   </g>
   <g id="patch_118">
    <path d="M 222.326422 387.02976 
L 224.905851 387.02976 
L 224.905851 387.02976 
L 222.326422 387.02976 
z
" clip-path="url(#pd62f31418c)" style="fill: #008aba; opacity: 0.5; stroke: #000000; stroke-linejoin: miter"/>
   </g>
   <g id="patch_119">
    <path d="M 224.905851 387.02976 
L 227.48528 387.02976 
L 227.48528 387.02976 
L 224.905851 387.02976 
z
" clip-path="url(#pd62f31418c)" style="fill: #008aba; opacity: 0.5; stroke: #000000; stroke-linejoin: miter"/>
   </g>
   <g id="patch_120">
    <path d="M 227.48528 387.02976 
L 230.064708 387.02976 
L 230.064708 387.02976 
L 227.48528 387.02976 
z
" clip-path="url(#pd62f31418c)" style="fill: #008aba; opacity: 0.5; stroke: #000000; stroke-linejoin: miter"/>
   </g>
   <g id="patch_121">
    <path d="M 230.064708 387.02976 
L 232.644137 387.02976 
L 232.644137 387.02976 
L 230.064708 387.02976 
z
" clip-path="url(#pd62f31418c)" style="fill: #008aba; opacity: 0.5; stroke: #000000; stroke-linejoin: miter"/>
   </g>
   <g id="patch_122">
    <path d="M 232.644137 387.02976 
L 235.223566 387.02976 
L 235.223566 387.02976 
L 232.644137 387.02976 
z
" clip-path="url(#pd62f31418c)" style="fill: #008aba; opacity: 0.5; stroke: #000000; stroke-linejoin: miter"/>
   </g>
   <g id="patch_123">
    <path d="M 235.223566 387.02976 
L 237.802995 387.02976 
L 237.802995 387.02976 
L 235.223566 387.02976 
z
" clip-path="url(#pd62f31418c)" style="fill: #008aba; opacity: 0.5; stroke: #000000; stroke-linejoin: miter"/>
   </g>
   <g id="patch_124">
    <path d="M 237.802995 387.02976 
L 240.382423 387.02976 
L 240.382423 387.02976 
L 237.802995 387.02976 
z
" clip-path="url(#pd62f31418c)" style="fill: #008aba; opacity: 0.5; stroke: #000000; stroke-linejoin: miter"/>
   </g>
   <g id="patch_125">
    <path d="M 240.382423 387.02976 
L 242.961852 387.02976 
L 242.961852 387.02976 
L 240.382423 387.02976 
z
" clip-path="url(#pd62f31418c)" style="fill: #008aba; opacity: 0.5; stroke: #000000; stroke-linejoin: miter"/>
   </g>
   <g id="patch_126">
    <path d="M 242.961852 387.02976 
L 245.541281 387.02976 
L 245.541281 213.528649 
L 242.961852 213.528649 
z
" clip-path="url(#pd62f31418c)" style="fill: #008aba; opacity: 0.5; stroke: #000000; stroke-linejoin: miter"/>
   </g>
   <g id="patch_127">
    <path d="M 245.541281 387.02976 
L 248.120709 387.02976 
L 248.120709 387.02976 
L 245.541281 387.02976 
z
" clip-path="url(#pd62f31418c)" style="fill: #008aba; opacity: 0.5; stroke: #000000; stroke-linejoin: miter"/>
   </g>
   <g id="patch_128">
    <path d="M 248.120709 387.02976 
L 250.700138 387.02976 
L 250.700138 387.02976 
L 248.120709 387.02976 
z
" clip-path="url(#pd62f31418c)" style="fill: #008aba; opacity: 0.5; stroke: #000000; stroke-linejoin: miter"/>
   </g>
   <g id="patch_129">
    <path d="M 250.700138 387.02976 
L 253.279567 387.02976 
L 253.279567 387.02976 
L 250.700138 387.02976 
z
" clip-path="url(#pd62f31418c)" style="fill: #008aba; opacity: 0.5; stroke: #000000; stroke-linejoin: miter"/>
   </g>
   <g id="patch_130">
    <path d="M 253.279567 387.02976 
L 255.858996 387.02976 
L 255.858996 40.027539 
L 253.279567 40.027539 
z
" clip-path="url(#pd62f31418c)" style="fill: #008aba; opacity: 0.5; stroke: #000000; stroke-linejoin: miter"/>
   </g>
   <g id="patch_131">
    <path d="M 255.858996 387.02976 
L 258.438424 387.02976 
L 258.438424 213.528649 
L 255.858996 213.528649 
z
" clip-path="url(#pd62f31418c)" style="fill: #008aba; opacity: 0.5; stroke: #000000; stroke-linejoin: miter"/>
   </g>
   <g id="patch_132">
    <path d="M 258.438424 387.02976 
L 261.017853 387.02976 
L 261.017853 387.02976 
L 258.438424 387.02976 
z
" clip-path="url(#pd62f31418c)" style="fill: #008aba; opacity: 0.5; stroke: #000000; stroke-linejoin: miter"/>
   </g>
   <g id="patch_133">
    <path d="M 261.017853 387.02976 
L 263.597282 387.02976 
L 263.597282 387.02976 
L 261.017853 387.02976 
z
" clip-path="url(#pd62f31418c)" style="fill: #008aba; opacity: 0.5; stroke: #000000; stroke-linejoin: miter"/>
   </g>
   <g id="patch_134">
    <path d="M 263.597282 387.02976 
L 266.176711 387.02976 
L 266.176711 387.02976 
L 263.597282 387.02976 
z
" clip-path="url(#pd62f31418c)" style="fill: #008aba; opacity: 0.5; stroke: #000000; stroke-linejoin: miter"/>
   </g>
   <g id="patch_135">
    <path d="M 266.176711 387.02976 
L 268.756139 387.02976 
L 268.756139 387.02976 
L 266.176711 387.02976 
z
" clip-path="url(#pd62f31418c)" style="fill: #008aba; opacity: 0.5; stroke: #000000; stroke-linejoin: miter"/>
   </g>
   <g id="patch_136">
    <path d="M 268.756139 387.02976 
L 271.335568 387.02976 
L 271.335568 213.528649 
L 268.756139 213.528649 
z
" clip-path="url(#pd62f31418c)" style="fill: #008aba; opacity: 0.5; stroke: #000000; stroke-linejoin: miter"/>
   </g>
   <g id="patch_137">
    <path d="M 271.335568 387.02976 
L 273.914997 387.02976 
L 273.914997 387.02976 
L 271.335568 387.02976 
z
" clip-path="url(#pd62f31418c)" style="fill: #008aba; opacity: 0.5; stroke: #000000; stroke-linejoin: miter"/>
   </g>
   <g id="patch_138">
    <path d="M 273.914997 387.02976 
L 276.494426 387.02976 
L 276.494426 387.02976 
L 273.914997 387.02976 
z
" clip-path="url(#pd62f31418c)" style="fill: #008aba; opacity: 0.5; stroke: #000000; stroke-linejoin: miter"/>
   </g>
   <g id="patch_139">
    <path d="M 276.494426 387.02976 
L 279.073854 387.02976 
L 279.073854 387.02976 
L 276.494426 387.02976 
z
" clip-path="url(#pd62f31418c)" style="fill: #008aba; opacity: 0.5; stroke: #000000; stroke-linejoin: miter"/>
   </g>
   <g id="patch_140">
    <path d="M 279.073854 387.02976 
L 281.653283 387.02976 
L 281.653283 387.02976 
L 279.073854 387.02976 
z
" clip-path="url(#pd62f31418c)" style="fill: #008aba; opacity: 0.5; stroke: #000000; stroke-linejoin: miter"/>
   </g>
   <g id="patch_141">
    <path d="M 281.653283 387.02976 
L 284.232712 387.02976 
L 284.232712 213.528649 
L 281.653283 213.528649 
z
" clip-path="url(#pd62f31418c)" style="fill: #008aba; opacity: 0.5; stroke: #000000; stroke-linejoin: miter"/>
   </g>
   <g id="patch_142">
    <path d="M 284.232712 387.02976 
L 286.812141 387.02976 
L 286.812141 387.02976 
L 284.232712 387.02976 
z
" clip-path="url(#pd62f31418c)" style="fill: #008aba; opacity: 0.5; stroke: #000000; stroke-linejoin: miter"/>
   </g>
   <g id="patch_143">
    <path d="M 286.812141 387.02976 
L 289.391569 387.02976 
L 289.391569 213.528649 
L 286.812141 213.528649 
z
" clip-path="url(#pd62f31418c)" style="fill: #008aba; opacity: 0.5; stroke: #000000; stroke-linejoin: miter"/>
   </g>
   <g id="patch_144">
    <path d="M 289.391569 387.02976 
L 291.970998 387.02976 
L 291.970998 387.02976 
L 289.391569 387.02976 
z
" clip-path="url(#pd62f31418c)" style="fill: #008aba; opacity: 0.5; stroke: #000000; stroke-linejoin: miter"/>
   </g>
   <g id="patch_145">
    <path d="M 291.970998 387.02976 
L 294.550427 387.02976 
L 294.550427 387.02976 
L 291.970998 387.02976 
z
" clip-path="url(#pd62f31418c)" style="fill: #008aba; opacity: 0.5; stroke: #000000; stroke-linejoin: miter"/>
   </g>
   <g id="patch_146">
    <path d="M 294.550427 387.02976 
L 297.129856 387.02976 
L 297.129856 387.02976 
L 294.550427 387.02976 
z
" clip-path="url(#pd62f31418c)" style="fill: #008aba; opacity: 0.5; stroke: #000000; stroke-linejoin: miter"/>
   </g>
   <g id="patch_147">
    <path d="M 297.129856 387.02976 
L 299.709284 387.02976 
L 299.709284 387.02976 
L 297.129856 387.02976 
z
" clip-path="url(#pd62f31418c)" style="fill: #008aba; opacity: 0.5; stroke: #000000; stroke-linejoin: miter"/>
   </g>
   <g id="patch_148">
    <path d="M 299.709284 387.02976 
L 302.288713 387.02976 
L 302.288713 387.02976 
L 299.709284 387.02976 
z
" clip-path="url(#pd62f31418c)" style="fill: #008aba; opacity: 0.5; stroke: #000000; stroke-linejoin: miter"/>
   </g>
   <g id="patch_149">
    <path d="M 302.288713 387.02976 
L 304.868142 387.02976 
L 304.868142 387.02976 
L 302.288713 387.02976 
z
" clip-path="url(#pd62f31418c)" style="fill: #008aba; opacity: 0.5; stroke: #000000; stroke-linejoin: miter"/>
   </g>
   <g id="patch_150">
    <path d="M 304.868142 387.02976 
L 307.447571 387.02976 
L 307.447571 387.02976 
L 304.868142 387.02976 
z
" clip-path="url(#pd62f31418c)" style="fill: #008aba; opacity: 0.5; stroke: #000000; stroke-linejoin: miter"/>
   </g>
   <g id="patch_151">
    <path d="M 307.447571 387.02976 
L 310.026999 387.02976 
L 310.026999 387.02976 
L 307.447571 387.02976 
z
" clip-path="url(#pd62f31418c)" style="fill: #008aba; opacity: 0.5; stroke: #000000; stroke-linejoin: miter"/>
   </g>
   <g id="patch_152">
    <path d="M 310.026999 387.02976 
L 312.606428 387.02976 
L 312.606428 213.528649 
L 310.026999 213.528649 
z
" clip-path="url(#pd62f31418c)" style="fill: #008aba; opacity: 0.5; stroke: #000000; stroke-linejoin: miter"/>
   </g>
   <g id="patch_153">
    <path d="M 312.606428 387.02976 
L 315.185857 387.02976 
L 315.185857 213.528649 
L 312.606428 213.528649 
z
" clip-path="url(#pd62f31418c)" style="fill: #008aba; opacity: 0.5; stroke: #000000; stroke-linejoin: miter"/>
   </g>
   <g id="patch_154">
    <path d="M 315.185857 387.02976 
L 317.765286 387.02976 
L 317.765286 387.02976 
L 315.185857 387.02976 
z
" clip-path="url(#pd62f31418c)" style="fill: #008aba; opacity: 0.5; stroke: #000000; stroke-linejoin: miter"/>
   </g>
   <g id="patch_155">
    <path d="M 317.765286 387.02976 
L 320.344714 387.02976 
L 320.344714 387.02976 
L 317.765286 387.02976 
z
" clip-path="url(#pd62f31418c)" style="fill: #008aba; opacity: 0.5; stroke: #000000; stroke-linejoin: miter"/>
   </g>
   <g id="patch_156">
    <path d="M 320.344714 387.02976 
L 322.924143 387.02976 
L 322.924143 387.02976 
L 320.344714 387.02976 
z
" clip-path="url(#pd62f31418c)" style="fill: #008aba; opacity: 0.5; stroke: #000000; stroke-linejoin: miter"/>
   </g>
   <g id="patch_157">
    <path d="M 322.924143 387.02976 
L 325.503572 387.02976 
L 325.503572 387.02976 
L 322.924143 387.02976 
z
" clip-path="url(#pd62f31418c)" style="fill: #008aba; opacity: 0.5; stroke: #000000; stroke-linejoin: miter"/>
   </g>
   <g id="patch_158">
    <path d="M 325.503572 387.02976 
L 328.083001 387.02976 
L 328.083001 387.02976 
L 325.503572 387.02976 
z
" clip-path="url(#pd62f31418c)" style="fill: #008aba; opacity: 0.5; stroke: #000000; stroke-linejoin: miter"/>
   </g>
   <g id="patch_159">
    <path d="M 328.083001 387.02976 
L 330.662429 387.02976 
L 330.662429 387.02976 
L 328.083001 387.02976 
z
" clip-path="url(#pd62f31418c)" style="fill: #008aba; opacity: 0.5; stroke: #000000; stroke-linejoin: miter"/>
   </g>
   <g id="patch_160">
    <path d="M 330.662429 387.02976 
L 333.241858 387.02976 
L 333.241858 387.02976 
L 330.662429 387.02976 
z
" clip-path="url(#pd62f31418c)" style="fill: #008aba; opacity: 0.5; stroke: #000000; stroke-linejoin: miter"/>
   </g>
   <g id="patch_161">
    <path d="M 333.241858 387.02976 
L 335.821287 387.02976 
L 335.821287 213.528649 
L 333.241858 213.528649 
z
" clip-path="url(#pd62f31418c)" style="fill: #008aba; opacity: 0.5; stroke: #000000; stroke-linejoin: miter"/>
   </g>
   <g id="patch_162">
    <path d="M 335.821287 387.02976 
L 338.400716 387.02976 
L 338.400716 387.02976 
L 335.821287 387.02976 
z
" clip-path="url(#pd62f31418c)" style="fill: #008aba; opacity: 0.5; stroke: #000000; stroke-linejoin: miter"/>
   </g>
   <g id="patch_163">
    <path d="M 338.400716 387.02976 
L 340.980144 387.02976 
L 340.980144 387.02976 
L 338.400716 387.02976 
z
" clip-path="url(#pd62f31418c)" style="fill: #008aba; opacity: 0.5; stroke: #000000; stroke-linejoin: miter"/>
   </g>
   <g id="patch_164">
    <path d="M 340.980144 387.02976 
L 343.559573 387.02976 
L 343.559573 387.02976 
L 340.980144 387.02976 
z
" clip-path="url(#pd62f31418c)" style="fill: #008aba; opacity: 0.5; stroke: #000000; stroke-linejoin: miter"/>
   </g>
   <g id="patch_165">
    <path d="M 343.559573 387.02976 
L 346.139002 387.02976 
L 346.139002 387.02976 
L 343.559573 387.02976 
z
" clip-path="url(#pd62f31418c)" style="fill: #008aba; opacity: 0.5; stroke: #000000; stroke-linejoin: miter"/>
   </g>
   <g id="patch_166">
    <path d="M 346.139002 387.02976 
L 348.718431 387.02976 
L 348.718431 387.02976 
L 346.139002 387.02976 
z
" clip-path="url(#pd62f31418c)" style="fill: #008aba; opacity: 0.5; stroke: #000000; stroke-linejoin: miter"/>
   </g>
   <g id="patch_167">
    <path d="M 348.718431 387.02976 
L 351.297859 387.02976 
L 351.297859 387.02976 
L 348.718431 387.02976 
z
" clip-path="url(#pd62f31418c)" style="fill: #008aba; opacity: 0.5; stroke: #000000; stroke-linejoin: miter"/>
   </g>
   <g id="patch_168">
    <path d="M 351.297859 387.02976 
L 353.877288 387.02976 
L 353.877288 387.02976 
L 351.297859 387.02976 
z
" clip-path="url(#pd62f31418c)" style="fill: #008aba; opacity: 0.5; stroke: #000000; stroke-linejoin: miter"/>
   </g>
   <g id="patch_169">
    <path d="M 353.877288 387.02976 
L 356.456717 387.02976 
L 356.456717 387.02976 
L 353.877288 387.02976 
z
" clip-path="url(#pd62f31418c)" style="fill: #008aba; opacity: 0.5; stroke: #000000; stroke-linejoin: miter"/>
   </g>
   <g id="patch_170">
    <path d="M 356.456717 387.02976 
L 359.036146 387.02976 
L 359.036146 387.02976 
L 356.456717 387.02976 
z
" clip-path="url(#pd62f31418c)" style="fill: #008aba; opacity: 0.5; stroke: #000000; stroke-linejoin: miter"/>
   </g>
   <g id="patch_171">
    <path d="M 359.036146 387.02976 
L 361.615574 387.02976 
L 361.615574 387.02976 
L 359.036146 387.02976 
z
" clip-path="url(#pd62f31418c)" style="fill: #008aba; opacity: 0.5; stroke: #000000; stroke-linejoin: miter"/>
   </g>
   <g id="patch_172">
    <path d="M 361.615574 387.02976 
L 364.195003 387.02976 
L 364.195003 387.02976 
L 361.615574 387.02976 
z
" clip-path="url(#pd62f31418c)" style="fill: #008aba; opacity: 0.5; stroke: #000000; stroke-linejoin: miter"/>
   </g>
   <g id="patch_173">
    <path d="M 364.195003 387.02976 
L 366.774432 387.02976 
L 366.774432 387.02976 
L 364.195003 387.02976 
z
" clip-path="url(#pd62f31418c)" style="fill: #008aba; opacity: 0.5; stroke: #000000; stroke-linejoin: miter"/>
   </g>
   <g id="patch_174">
    <path d="M 366.774432 387.02976 
L 369.353861 387.02976 
L 369.353861 387.02976 
L 366.774432 387.02976 
z
" clip-path="url(#pd62f31418c)" style="fill: #008aba; opacity: 0.5; stroke: #000000; stroke-linejoin: miter"/>
   </g>
   <g id="patch_175">
    <path d="M 369.353861 387.02976 
L 371.933289 387.02976 
L 371.933289 387.02976 
L 369.353861 387.02976 
z
" clip-path="url(#pd62f31418c)" style="fill: #008aba; opacity: 0.5; stroke: #000000; stroke-linejoin: miter"/>
   </g>
   <g id="patch_176">
    <path d="M 371.933289 387.02976 
L 374.512718 387.02976 
L 374.512718 387.02976 
L 371.933289 387.02976 
z
" clip-path="url(#pd62f31418c)" style="fill: #008aba; opacity: 0.5; stroke: #000000; stroke-linejoin: miter"/>
   </g>
   <g id="patch_177">
    <path d="M 374.512718 387.02976 
L 377.092147 387.02976 
L 377.092147 387.02976 
L 374.512718 387.02976 
z
" clip-path="url(#pd62f31418c)" style="fill: #008aba; opacity: 0.5; stroke: #000000; stroke-linejoin: miter"/>
   </g>
   <g id="patch_178">
    <path d="M 377.092147 387.02976 
L 379.671576 387.02976 
L 379.671576 387.02976 
L 377.092147 387.02976 
z
" clip-path="url(#pd62f31418c)" style="fill: #008aba; opacity: 0.5; stroke: #000000; stroke-linejoin: miter"/>
   </g>
   <g id="patch_179">
    <path d="M 379.671576 387.02976 
L 382.251004 387.02976 
L 382.251004 387.02976 
L 379.671576 387.02976 
z
" clip-path="url(#pd62f31418c)" style="fill: #008aba; opacity: 0.5; stroke: #000000; stroke-linejoin: miter"/>
   </g>
   <g id="patch_180">
    <path d="M 382.251004 387.02976 
L 384.830433 387.02976 
L 384.830433 213.528649 
L 382.251004 213.528649 
z
" clip-path="url(#pd62f31418c)" style="fill: #008aba; opacity: 0.5; stroke: #000000; stroke-linejoin: miter"/>
   </g>
   <g id="patch_181">
    <path d="M 384.830433 387.02976 
L 387.409862 387.02976 
L 387.409862 387.02976 
L 384.830433 387.02976 
z
" clip-path="url(#pd62f31418c)" style="fill: #008aba; opacity: 0.5; stroke: #000000; stroke-linejoin: miter"/>
   </g>
   <g id="patch_182">
    <path d="M 387.409862 387.02976 
L 389.989291 387.02976 
L 389.989291 387.02976 
L 387.409862 387.02976 
z
" clip-path="url(#pd62f31418c)" style="fill: #008aba; opacity: 0.5; stroke: #000000; stroke-linejoin: miter"/>
   </g>
   <g id="patch_183">
    <path d="M 389.989291 387.02976 
L 392.568719 387.02976 
L 392.568719 387.02976 
L 389.989291 387.02976 
z
" clip-path="url(#pd62f31418c)" style="fill: #008aba; opacity: 0.5; stroke: #000000; stroke-linejoin: miter"/>
   </g>
   <g id="patch_184">
    <path d="M 392.568719 387.02976 
L 395.148148 387.02976 
L 395.148148 387.02976 
L 392.568719 387.02976 
z
" clip-path="url(#pd62f31418c)" style="fill: #008aba; opacity: 0.5; stroke: #000000; stroke-linejoin: miter"/>
   </g>
   <g id="patch_185">
    <path d="M 395.148148 387.02976 
L 397.727577 387.02976 
L 397.727577 387.02976 
L 395.148148 387.02976 
z
" clip-path="url(#pd62f31418c)" style="fill: #008aba; opacity: 0.5; stroke: #000000; stroke-linejoin: miter"/>
   </g>
   <g id="patch_186">
    <path d="M 397.727577 387.02976 
L 400.307005 387.02976 
L 400.307005 387.02976 
L 397.727577 387.02976 
z
" clip-path="url(#pd62f31418c)" style="fill: #008aba; opacity: 0.5; stroke: #000000; stroke-linejoin: miter"/>
   </g>
   <g id="patch_187">
    <path d="M 400.307005 387.02976 
L 402.886434 387.02976 
L 402.886434 213.528649 
L 400.307005 213.528649 
z
" clip-path="url(#pd62f31418c)" style="fill: #008aba; opacity: 0.5; stroke: #000000; stroke-linejoin: miter"/>
   </g>
   <g id="patch_188">
    <path d="M 402.886434 387.02976 
L 405.465863 387.02976 
L 405.465863 387.02976 
L 402.886434 387.02976 
z
" clip-path="url(#pd62f31418c)" style="fill: #008aba; opacity: 0.5; stroke: #000000; stroke-linejoin: miter"/>
   </g>
   <g id="patch_189">
    <path d="M 405.465863 387.02976 
L 408.045292 387.02976 
L 408.045292 387.02976 
L 405.465863 387.02976 
z
" clip-path="url(#pd62f31418c)" style="fill: #008aba; opacity: 0.5; stroke: #000000; stroke-linejoin: miter"/>
   </g>
   <g id="patch_190">
    <path d="M 408.045292 387.02976 
L 410.62472 387.02976 
L 410.62472 387.02976 
L 408.045292 387.02976 
z
" clip-path="url(#pd62f31418c)" style="fill: #008aba; opacity: 0.5; stroke: #000000; stroke-linejoin: miter"/>
   </g>
   <g id="patch_191">
    <path d="M 410.62472 387.02976 
L 413.204149 387.02976 
L 413.204149 387.02976 
L 410.62472 387.02976 
z
" clip-path="url(#pd62f31418c)" style="fill: #008aba; opacity: 0.5; stroke: #000000; stroke-linejoin: miter"/>
   </g>
   <g id="patch_192">
    <path d="M 413.204149 387.02976 
L 415.783578 387.02976 
L 415.783578 387.02976 
L 413.204149 387.02976 
z
" clip-path="url(#pd62f31418c)" style="fill: #008aba; opacity: 0.5; stroke: #000000; stroke-linejoin: miter"/>
   </g>
   <g id="patch_193">
    <path d="M 415.783578 387.02976 
L 418.363007 387.02976 
L 418.363007 387.02976 
L 415.783578 387.02976 
z
" clip-path="url(#pd62f31418c)" style="fill: #008aba; opacity: 0.5; stroke: #000000; stroke-linejoin: miter"/>
   </g>
   <g id="patch_194">
    <path d="M 418.363007 387.02976 
L 420.942435 387.02976 
L 420.942435 387.02976 
L 418.363007 387.02976 
z
" clip-path="url(#pd62f31418c)" style="fill: #008aba; opacity: 0.5; stroke: #000000; stroke-linejoin: miter"/>
   </g>
   <g id="patch_195">
    <path d="M 420.942435 387.02976 
L 423.521864 387.02976 
L 423.521864 387.02976 
L 420.942435 387.02976 
z
" clip-path="url(#pd62f31418c)" style="fill: #008aba; opacity: 0.5; stroke: #000000; stroke-linejoin: miter"/>
   </g>
   <g id="patch_196">
    <path d="M 423.521864 387.02976 
L 426.101293 387.02976 
L 426.101293 387.02976 
L 423.521864 387.02976 
z
" clip-path="url(#pd62f31418c)" style="fill: #008aba; opacity: 0.5; stroke: #000000; stroke-linejoin: miter"/>
   </g>
   <g id="patch_197">
    <path d="M 426.101293 387.02976 
L 428.680722 387.02976 
L 428.680722 387.02976 
L 426.101293 387.02976 
z
" clip-path="url(#pd62f31418c)" style="fill: #008aba; opacity: 0.5; stroke: #000000; stroke-linejoin: miter"/>
   </g>
   <g id="patch_198">
    <path d="M 428.680722 387.02976 
L 431.26015 387.02976 
L 431.26015 213.528649 
L 428.680722 213.528649 
z
" clip-path="url(#pd62f31418c)" style="fill: #008aba; opacity: 0.5; stroke: #000000; stroke-linejoin: miter"/>
   </g>
   <g id="patch_199">
    <path d="M 431.26015 387.02976 
L 433.839579 387.02976 
L 433.839579 387.02976 
L 431.26015 387.02976 
z
" clip-path="url(#pd62f31418c)" style="fill: #008aba; opacity: 0.5; stroke: #000000; stroke-linejoin: miter"/>
   </g>
   <g id="patch_200">
    <path d="M 433.839579 387.02976 
L 436.419008 387.02976 
L 436.419008 387.02976 
L 433.839579 387.02976 
z
" clip-path="url(#pd62f31418c)" style="fill: #008aba; opacity: 0.5; stroke: #000000; stroke-linejoin: miter"/>
   </g>
   <g id="patch_201">
    <path d="M 436.419008 387.02976 
L 438.998437 387.02976 
L 438.998437 213.528649 
L 436.419008 213.528649 
z
" clip-path="url(#pd62f31418c)" style="fill: #008aba; opacity: 0.5; stroke: #000000; stroke-linejoin: miter"/>
   </g>
   <g id="patch_202">
    <path d="M 438.998437 387.02976 
L 441.577865 387.02976 
L 441.577865 387.02976 
L 438.998437 387.02976 
z
" clip-path="url(#pd62f31418c)" style="fill: #008aba; opacity: 0.5; stroke: #000000; stroke-linejoin: miter"/>
   </g>
   <g id="patch_203">
    <path d="M 441.577865 387.02976 
L 444.157294 387.02976 
L 444.157294 387.02976 
L 441.577865 387.02976 
z
" clip-path="url(#pd62f31418c)" style="fill: #008aba; opacity: 0.5; stroke: #000000; stroke-linejoin: miter"/>
   </g>
   <g id="patch_204">
    <path d="M 444.157294 387.02976 
L 446.736723 387.02976 
L 446.736723 213.528649 
L 444.157294 213.528649 
z
" clip-path="url(#pd62f31418c)" style="fill: #008aba; opacity: 0.5; stroke: #000000; stroke-linejoin: miter"/>
   </g>
   <g id="patch_205">
    <path d="M 446.736723 387.02976 
L 449.316152 387.02976 
L 449.316152 387.02976 
L 446.736723 387.02976 
z
" clip-path="url(#pd62f31418c)" style="fill: #008aba; opacity: 0.5; stroke: #000000; stroke-linejoin: miter"/>
   </g>
   <g id="patch_206">
    <path d="M 449.316152 387.02976 
L 451.89558 387.02976 
L 451.89558 387.02976 
L 449.316152 387.02976 
z
" clip-path="url(#pd62f31418c)" style="fill: #008aba; opacity: 0.5; stroke: #000000; stroke-linejoin: miter"/>
   </g>
   <g id="patch_207">
    <path d="M 451.89558 387.02976 
L 454.475009 387.02976 
L 454.475009 387.02976 
L 451.89558 387.02976 
z
" clip-path="url(#pd62f31418c)" style="fill: #008aba; opacity: 0.5; stroke: #000000; stroke-linejoin: miter"/>
   </g>
   <g id="patch_208">
    <path d="M 454.475009 387.02976 
L 457.054438 387.02976 
L 457.054438 387.02976 
L 454.475009 387.02976 
z
" clip-path="url(#pd62f31418c)" style="fill: #008aba; opacity: 0.5; stroke: #000000; stroke-linejoin: miter"/>
   </g>
   <g id="patch_209">
    <path d="M 457.054438 387.02976 
L 459.633867 387.02976 
L 459.633867 387.02976 
L 457.054438 387.02976 
z
" clip-path="url(#pd62f31418c)" style="fill: #008aba; opacity: 0.5; stroke: #000000; stroke-linejoin: miter"/>
   </g>
   <g id="patch_210">
    <path d="M 459.633867 387.02976 
L 462.213295 387.02976 
L 462.213295 387.02976 
L 459.633867 387.02976 
z
" clip-path="url(#pd62f31418c)" style="fill: #008aba; opacity: 0.5; stroke: #000000; stroke-linejoin: miter"/>
   </g>
   <g id="patch_211">
    <path d="M 462.213295 387.02976 
L 464.792724 387.02976 
L 464.792724 387.02976 
L 462.213295 387.02976 
z
" clip-path="url(#pd62f31418c)" style="fill: #008aba; opacity: 0.5; stroke: #000000; stroke-linejoin: miter"/>
   </g>
   <g id="patch_212">
    <path d="M 464.792724 387.02976 
L 467.372153 387.02976 
L 467.372153 387.02976 
L 464.792724 387.02976 
z
" clip-path="url(#pd62f31418c)" style="fill: #008aba; opacity: 0.5; stroke: #000000; stroke-linejoin: miter"/>
   </g>
   <g id="patch_213">
    <path d="M 467.372153 387.02976 
L 469.951582 387.02976 
L 469.951582 387.02976 
L 467.372153 387.02976 
z
" clip-path="url(#pd62f31418c)" style="fill: #008aba; opacity: 0.5; stroke: #000000; stroke-linejoin: miter"/>
   </g>
   <g id="patch_214">
    <path d="M 469.951582 387.02976 
L 472.53101 387.02976 
L 472.53101 387.02976 
L 469.951582 387.02976 
z
" clip-path="url(#pd62f31418c)" style="fill: #008aba; opacity: 0.5; stroke: #000000; stroke-linejoin: miter"/>
   </g>
   <g id="patch_215">
    <path d="M 472.53101 387.02976 
L 475.110439 387.02976 
L 475.110439 387.02976 
L 472.53101 387.02976 
z
" clip-path="url(#pd62f31418c)" style="fill: #008aba; opacity: 0.5; stroke: #000000; stroke-linejoin: miter"/>
   </g>
   <g id="patch_216">
    <path d="M 475.110439 387.02976 
L 477.689868 387.02976 
L 477.689868 387.02976 
L 475.110439 387.02976 
z
" clip-path="url(#pd62f31418c)" style="fill: #008aba; opacity: 0.5; stroke: #000000; stroke-linejoin: miter"/>
   </g>
   <g id="patch_217">
    <path d="M 477.689868 387.02976 
L 480.269297 387.02976 
L 480.269297 387.02976 
L 477.689868 387.02976 
z
" clip-path="url(#pd62f31418c)" style="fill: #008aba; opacity: 0.5; stroke: #000000; stroke-linejoin: miter"/>
   </g>
   <g id="patch_218">
    <path d="M 480.269297 387.02976 
L 482.848725 387.02976 
L 482.848725 387.02976 
L 480.269297 387.02976 
z
" clip-path="url(#pd62f31418c)" style="fill: #008aba; opacity: 0.5; stroke: #000000; stroke-linejoin: miter"/>
   </g>
   <g id="patch_219">
    <path d="M 482.848725 387.02976 
L 485.428154 387.02976 
L 485.428154 387.02976 
L 482.848725 387.02976 
z
" clip-path="url(#pd62f31418c)" style="fill: #008aba; opacity: 0.5; stroke: #000000; stroke-linejoin: miter"/>
   </g>
   <g id="patch_220">
    <path d="M 485.428154 387.02976 
L 488.007583 387.02976 
L 488.007583 387.02976 
L 485.428154 387.02976 
z
" clip-path="url(#pd62f31418c)" style="fill: #008aba; opacity: 0.5; stroke: #000000; stroke-linejoin: miter"/>
   </g>
   <g id="patch_221">
    <path d="M 488.007583 387.02976 
L 490.587012 387.02976 
L 490.587012 387.02976 
L 488.007583 387.02976 
z
" clip-path="url(#pd62f31418c)" style="fill: #008aba; opacity: 0.5; stroke: #000000; stroke-linejoin: miter"/>
   </g>
   <g id="patch_222">
    <path d="M 490.587012 387.02976 
L 493.16644 387.02976 
L 493.16644 387.02976 
L 490.587012 387.02976 
z
" clip-path="url(#pd62f31418c)" style="fill: #008aba; opacity: 0.5; stroke: #000000; stroke-linejoin: miter"/>
   </g>
   <g id="patch_223">
    <path d="M 493.16644 387.02976 
L 495.745869 387.02976 
L 495.745869 387.02976 
L 493.16644 387.02976 
z
" clip-path="url(#pd62f31418c)" style="fill: #008aba; opacity: 0.5; stroke: #000000; stroke-linejoin: miter"/>
   </g>
   <g id="patch_224">
    <path d="M 495.745869 387.02976 
L 498.325298 387.02976 
L 498.325298 387.02976 
L 495.745869 387.02976 
z
" clip-path="url(#pd62f31418c)" style="fill: #008aba; opacity: 0.5; stroke: #000000; stroke-linejoin: miter"/>
   </g>
   <g id="patch_225">
    <path d="M 498.325298 387.02976 
L 500.904727 387.02976 
L 500.904727 213.528649 
L 498.325298 213.528649 
z
" clip-path="url(#pd62f31418c)" style="fill: #008aba; opacity: 0.5; stroke: #000000; stroke-linejoin: miter"/>
   </g>
   <g id="patch_226">
    <path d="M 500.904727 387.02976 
L 503.484155 387.02976 
L 503.484155 387.02976 
L 500.904727 387.02976 
z
" clip-path="url(#pd62f31418c)" style="fill: #008aba; opacity: 0.5; stroke: #000000; stroke-linejoin: miter"/>
   </g>
   <g id="patch_227">
    <path d="M 503.484155 387.02976 
L 506.063584 387.02976 
L 506.063584 387.02976 
L 503.484155 387.02976 
z
" clip-path="url(#pd62f31418c)" style="fill: #008aba; opacity: 0.5; stroke: #000000; stroke-linejoin: miter"/>
   </g>
   <g id="patch_228">
    <path d="M 506.063584 387.02976 
L 508.643013 387.02976 
L 508.643013 387.02976 
L 506.063584 387.02976 
z
" clip-path="url(#pd62f31418c)" style="fill: #008aba; opacity: 0.5; stroke: #000000; stroke-linejoin: miter"/>
   </g>
   <g id="patch_229">
    <path d="M 508.643013 387.02976 
L 511.222442 387.02976 
L 511.222442 387.02976 
L 508.643013 387.02976 
z
" clip-path="url(#pd62f31418c)" style="fill: #008aba; opacity: 0.5; stroke: #000000; stroke-linejoin: miter"/>
   </g>
   <g id="patch_230">
    <path d="M 511.222442 387.02976 
L 513.80187 387.02976 
L 513.80187 387.02976 
L 511.222442 387.02976 
z
" clip-path="url(#pd62f31418c)" style="fill: #008aba; opacity: 0.5; stroke: #000000; stroke-linejoin: miter"/>
   </g>
   <g id="patch_231">
    <path d="M 513.80187 387.02976 
L 516.381299 387.02976 
L 516.381299 387.02976 
L 513.80187 387.02976 
z
" clip-path="url(#pd62f31418c)" style="fill: #008aba; opacity: 0.5; stroke: #000000; stroke-linejoin: miter"/>
   </g>
   <g id="patch_232">
    <path d="M 516.381299 387.02976 
L 518.960728 387.02976 
L 518.960728 387.02976 
L 516.381299 387.02976 
z
" clip-path="url(#pd62f31418c)" style="fill: #008aba; opacity: 0.5; stroke: #000000; stroke-linejoin: miter"/>
   </g>
   <g id="patch_233">
    <path d="M 518.960728 387.02976 
L 521.540157 387.02976 
L 521.540157 387.02976 
L 518.960728 387.02976 
z
" clip-path="url(#pd62f31418c)" style="fill: #008aba; opacity: 0.5; stroke: #000000; stroke-linejoin: miter"/>
   </g>
   <g id="patch_234">
    <path d="M 521.540157 387.02976 
L 524.119585 387.02976 
L 524.119585 387.02976 
L 521.540157 387.02976 
z
" clip-path="url(#pd62f31418c)" style="fill: #008aba; opacity: 0.5; stroke: #000000; stroke-linejoin: miter"/>
   </g>
   <g id="patch_235">
    <path d="M 524.119585 387.02976 
L 526.699014 387.02976 
L 526.699014 387.02976 
L 524.119585 387.02976 
z
" clip-path="url(#pd62f31418c)" style="fill: #008aba; opacity: 0.5; stroke: #000000; stroke-linejoin: miter"/>
   </g>
   <g id="patch_236">
    <path d="M 526.699014 387.02976 
L 529.278443 387.02976 
L 529.278443 387.02976 
L 526.699014 387.02976 
z
" clip-path="url(#pd62f31418c)" style="fill: #008aba; opacity: 0.5; stroke: #000000; stroke-linejoin: miter"/>
   </g>
   <g id="patch_237">
    <path d="M 529.278443 387.02976 
L 531.857872 387.02976 
L 531.857872 387.02976 
L 529.278443 387.02976 
z
" clip-path="url(#pd62f31418c)" style="fill: #008aba; opacity: 0.5; stroke: #000000; stroke-linejoin: miter"/>
   </g>
   <g id="patch_238">
    <path d="M 531.857872 387.02976 
L 534.4373 387.02976 
L 534.4373 387.02976 
L 531.857872 387.02976 
z
" clip-path="url(#pd62f31418c)" style="fill: #008aba; opacity: 0.5; stroke: #000000; stroke-linejoin: miter"/>
   </g>
   <g id="patch_239">
    <path d="M 534.4373 387.02976 
L 537.016729 387.02976 
L 537.016729 387.02976 
L 534.4373 387.02976 
z
" clip-path="url(#pd62f31418c)" style="fill: #008aba; opacity: 0.5; stroke: #000000; stroke-linejoin: miter"/>
   </g>
   <g id="patch_240">
    <path d="M 537.016729 387.02976 
L 539.596158 387.02976 
L 539.596158 387.02976 
L 537.016729 387.02976 
z
" clip-path="url(#pd62f31418c)" style="fill: #008aba; opacity: 0.5; stroke: #000000; stroke-linejoin: miter"/>
   </g>
   <g id="patch_241">
    <path d="M 539.596158 387.02976 
L 542.175586 387.02976 
L 542.175586 387.02976 
L 539.596158 387.02976 
z
" clip-path="url(#pd62f31418c)" style="fill: #008aba; opacity: 0.5; stroke: #000000; stroke-linejoin: miter"/>
   </g>
   <g id="patch_242">
    <path d="M 542.175586 387.02976 
L 544.755015 387.02976 
L 544.755015 387.02976 
L 542.175586 387.02976 
z
" clip-path="url(#pd62f31418c)" style="fill: #008aba; opacity: 0.5; stroke: #000000; stroke-linejoin: miter"/>
   </g>
   <g id="patch_243">
    <path d="M 544.755015 387.02976 
L 547.334444 387.02976 
L 547.334444 387.02976 
L 544.755015 387.02976 
z
" clip-path="url(#pd62f31418c)" style="fill: #008aba; opacity: 0.5; stroke: #000000; stroke-linejoin: miter"/>
   </g>
   <g id="patch_244">
    <path d="M 547.334444 387.02976 
L 549.913873 387.02976 
L 549.913873 213.528649 
L 547.334444 213.528649 
z
" clip-path="url(#pd62f31418c)" style="fill: #008aba; opacity: 0.5; stroke: #000000; stroke-linejoin: miter"/>
   </g>
   <g id="matplotlib.axis_1">
    <g id="xtick_1">
     <g id="line2d_1">
      <defs>
       <path id="m99b085cb55" d="M 0 0 
L 0 3.5 
" style="stroke: #000000; stroke-width: 0.8"/>
      </defs>
      <g>
       <use xlink:href="#m99b085cb55" x="88.885985" y="387.02976" style="stroke: #000000; stroke-width: 0.8"/>
      </g>
     </g>
     <g id="text_1">
      <!-- 4.00 -->
      <g transform="translate(71.073485 406.18726)scale(0.16 -0.16)">
       <defs>
        <path id="DejaVuSans-34" d="M 2419 4116 
L 825 1625 
L 2419 1625 
L 2419 4116 
z
M 2253 4666 
L 3047 4666 
L 3047 1625 
L 3713 1625 
L 3713 1100 
L 3047 1100 
L 3047 0 
L 2419 0 
L 2419 1100 
L 313 1100 
L 313 1709 
L 2253 4666 
z
" transform="scale(0.015625)"/>
        <path id="DejaVuSans-2e" d="M 684 794 
L 1344 794 
L 1344 0 
L 684 0 
L 684 794 
z
" transform="scale(0.015625)"/>
        <path id="DejaVuSans-30" d="M 2034 4250 
Q 1547 4250 1301 3770 
Q 1056 3291 1056 2328 
Q 1056 1369 1301 889 
Q 1547 409 2034 409 
Q 2525 409 2770 889 
Q 3016 1369 3016 2328 
Q 3016 3291 2770 3770 
Q 2525 4250 2034 4250 
z
M 2034 4750 
Q 2819 4750 3233 4129 
Q 3647 3509 3647 2328 
Q 3647 1150 3233 529 
Q 2819 -91 2034 -91 
Q 1250 -91 836 529 
Q 422 1150 422 2328 
Q 422 3509 836 4129 
Q 1250 4750 2034 4750 
z
" transform="scale(0.015625)"/>
       </defs>
       <use xlink:href="#DejaVuSans-34"/>
       <use xlink:href="#DejaVuSans-2e" x="63.623047"/>
       <use xlink:href="#DejaVuSans-30" x="95.410156"/>
       <use xlink:href="#DejaVuSans-30" x="159.033203"/>
      </g>
     </g>
    </g>
    <g id="xtick_2">
     <g id="line2d_2">
      <g>
       <use xlink:href="#m99b085cb55" x="153.371703" y="387.02976" style="stroke: #000000; stroke-width: 0.8"/>
      </g>
     </g>
     <g id="text_2">
      <!-- 4.25 -->
      <g transform="translate(135.559203 406.18726)scale(0.16 -0.16)">
       <defs>
        <path id="DejaVuSans-32" d="M 1228 531 
L 3431 531 
L 3431 0 
L 469 0 
L 469 531 
Q 828 903 1448 1529 
Q 2069 2156 2228 2338 
Q 2531 2678 2651 2914 
Q 2772 3150 2772 3378 
Q 2772 3750 2511 3984 
Q 2250 4219 1831 4219 
Q 1534 4219 1204 4116 
Q 875 4013 500 3803 
L 500 4441 
Q 881 4594 1212 4672 
Q 1544 4750 1819 4750 
Q 2544 4750 2975 4387 
Q 3406 4025 3406 3419 
Q 3406 3131 3298 2873 
Q 3191 2616 2906 2266 
Q 2828 2175 2409 1742 
Q 1991 1309 1228 531 
z
" transform="scale(0.015625)"/>
        <path id="DejaVuSans-35" d="M 691 4666 
L 3169 4666 
L 3169 4134 
L 1269 4134 
L 1269 2991 
Q 1406 3038 1543 3061 
Q 1681 3084 1819 3084 
Q 2600 3084 3056 2656 
Q 3513 2228 3513 1497 
Q 3513 744 3044 326 
Q 2575 -91 1722 -91 
Q 1428 -91 1123 -41 
Q 819 9 494 109 
L 494 744 
Q 775 591 1075 516 
Q 1375 441 1709 441 
Q 2250 441 2565 725 
Q 2881 1009 2881 1497 
Q 2881 1984 2565 2268 
Q 2250 2553 1709 2553 
Q 1456 2553 1204 2497 
Q 953 2441 691 2322 
L 691 4666 
z
" transform="scale(0.015625)"/>
       </defs>
       <use xlink:href="#DejaVuSans-34"/>
       <use xlink:href="#DejaVuSans-2e" x="63.623047"/>
       <use xlink:href="#DejaVuSans-32" x="95.410156"/>
       <use xlink:href="#DejaVuSans-35" x="159.033203"/>
      </g>
     </g>
    </g>
    <g id="xtick_3">
     <g id="line2d_3">
      <g>
       <use xlink:href="#m99b085cb55" x="217.857422" y="387.02976" style="stroke: #000000; stroke-width: 0.8"/>
      </g>
     </g>
     <g id="text_3">
      <!-- 4.50 -->
      <g transform="translate(200.044922 406.18726)scale(0.16 -0.16)">
       <use xlink:href="#DejaVuSans-34"/>
       <use xlink:href="#DejaVuSans-2e" x="63.623047"/>
       <use xlink:href="#DejaVuSans-35" x="95.410156"/>
       <use xlink:href="#DejaVuSans-30" x="159.033203"/>
      </g>
     </g>
    </g>
    <g id="xtick_4">
     <g id="line2d_4">
      <g>
       <use xlink:href="#m99b085cb55" x="282.343141" y="387.02976" style="stroke: #000000; stroke-width: 0.8"/>
      </g>
     </g>
     <g id="text_4">
      <!-- 4.75 -->
      <g transform="translate(264.530641 406.18726)scale(0.16 -0.16)">
       <defs>
        <path id="DejaVuSans-37" d="M 525 4666 
L 3525 4666 
L 3525 4397 
L 1831 0 
L 1172 0 
L 2766 4134 
L 525 4134 
L 525 4666 
z
" transform="scale(0.015625)"/>
       </defs>
       <use xlink:href="#DejaVuSans-34"/>
       <use xlink:href="#DejaVuSans-2e" x="63.623047"/>
       <use xlink:href="#DejaVuSans-37" x="95.410156"/>
       <use xlink:href="#DejaVuSans-35" x="159.033203"/>
      </g>
     </g>
    </g>
    <g id="xtick_5">
     <g id="line2d_5">
      <g>
       <use xlink:href="#m99b085cb55" x="346.828859" y="387.02976" style="stroke: #000000; stroke-width: 0.8"/>
      </g>
     </g>
     <g id="text_5">
      <!-- 5.00 -->
      <g transform="translate(329.016359 406.18726)scale(0.16 -0.16)">
       <use xlink:href="#DejaVuSans-35"/>
       <use xlink:href="#DejaVuSans-2e" x="63.623047"/>
       <use xlink:href="#DejaVuSans-30" x="95.410156"/>
       <use xlink:href="#DejaVuSans-30" x="159.033203"/>
      </g>
     </g>
    </g>
    <g id="xtick_6">
     <g id="line2d_6">
      <g>
       <use xlink:href="#m99b085cb55" x="411.314578" y="387.02976" style="stroke: #000000; stroke-width: 0.8"/>
      </g>
     </g>
     <g id="text_6">
      <!-- 5.25 -->
      <g transform="translate(393.502078 406.18726)scale(0.16 -0.16)">
       <use xlink:href="#DejaVuSans-35"/>
       <use xlink:href="#DejaVuSans-2e" x="63.623047"/>
       <use xlink:href="#DejaVuSans-32" x="95.410156"/>
       <use xlink:href="#DejaVuSans-35" x="159.033203"/>
      </g>
     </g>
    </g>
    <g id="xtick_7">
     <g id="line2d_7">
      <g>
       <use xlink:href="#m99b085cb55" x="475.800297" y="387.02976" style="stroke: #000000; stroke-width: 0.8"/>
      </g>
     </g>
     <g id="text_7">
      <!-- 5.50 -->
      <g transform="translate(457.987797 406.18726)scale(0.16 -0.16)">
       <use xlink:href="#DejaVuSans-35"/>
       <use xlink:href="#DejaVuSans-2e" x="63.623047"/>
       <use xlink:href="#DejaVuSans-35" x="95.410156"/>
       <use xlink:href="#DejaVuSans-30" x="159.033203"/>
      </g>
     </g>
    </g>
    <g id="xtick_8">
     <g id="line2d_8">
      <g>
       <use xlink:href="#m99b085cb55" x="540.286015" y="387.02976" style="stroke: #000000; stroke-width: 0.8"/>
      </g>
     </g>
     <g id="text_8">
      <!-- 5.75 -->
      <g transform="translate(522.473515 406.18726)scale(0.16 -0.16)">
       <use xlink:href="#DejaVuSans-35"/>
       <use xlink:href="#DejaVuSans-2e" x="63.623047"/>
       <use xlink:href="#DejaVuSans-37" x="95.410156"/>
       <use xlink:href="#DejaVuSans-35" x="159.033203"/>
      </g>
     </g>
    </g>
    <g id="text_9">
     <!-- $I_{G^{+}}/I_{G^{-}}$ -->
     <g transform="translate(294.815 425.67226)scale(0.16 -0.16)">
      <defs>
       <path id="DejaVuSans-Oblique-49" d="M 1081 4666 
L 1716 4666 
L 806 0 
L 172 0 
L 1081 4666 
z
" transform="scale(0.015625)"/>
       <path id="DejaVuSans-Oblique-47" d="M 3494 697 
L 3738 1919 
L 2700 1919 
L 2797 2438 
L 4453 2438 
L 4050 384 
Q 3634 156 3143 32 
Q 2653 -91 2156 -91 
Q 1278 -91 783 396 
Q 288 884 288 1753 
Q 288 2475 589 3126 
Q 891 3778 1422 4213 
Q 1756 4484 2153 4617 
Q 2550 4750 3034 4750 
Q 3472 4750 3873 4639 
Q 4275 4528 4641 4306 
L 4513 3634 
Q 4231 3928 3853 4083 
Q 3475 4238 3047 4238 
Q 2550 4238 2172 4048 
Q 1794 3859 1497 3463 
Q 1244 3125 1098 2667 
Q 953 2209 953 1734 
Q 953 1081 1287 751 
Q 1622 422 2284 422 
Q 2616 422 2925 492 
Q 3234 563 3494 697 
z
" transform="scale(0.015625)"/>
       <path id="DejaVuSans-2b" d="M 2944 4013 
L 2944 2272 
L 4684 2272 
L 4684 1741 
L 2944 1741 
L 2944 0 
L 2419 0 
L 2419 1741 
L 678 1741 
L 678 2272 
L 2419 2272 
L 2419 4013 
L 2944 4013 
z
" transform="scale(0.015625)"/>
       <path id="DejaVuSans-2f" d="M 1625 4666 
L 2156 4666 
L 531 -594 
L 0 -594 
L 1625 4666 
z
" transform="scale(0.015625)"/>
       <path id="DejaVuSans-2212" d="M 678 2272 
L 4684 2272 
L 4684 1741 
L 678 1741 
L 678 2272 
z
" transform="scale(0.015625)"/>
      </defs>
      <use xlink:href="#DejaVuSans-Oblique-49" transform="translate(0 0.09375)"/>
      <use xlink:href="#DejaVuSans-Oblique-47" transform="translate(29.492188 -16.3125)scale(0.7)"/>
      <use xlink:href="#DejaVuSans-2b" transform="translate(88.775716 10.484375)scale(0.49)"/>
      <use xlink:href="#DejaVuSans-2f" transform="translate(134.480794 0.09375)"/>
      <use xlink:href="#DejaVuSans-Oblique-49" transform="translate(168.172201 0.09375)"/>
      <use xlink:href="#DejaVuSans-Oblique-47" transform="translate(197.664388 -16.3125)scale(0.7)"/>
      <use xlink:href="#DejaVuSans-2212" transform="translate(256.947917 10.484375)scale(0.49)"/>
     </g>
    </g>
   </g>
   <g id="matplotlib.axis_2">
    <g id="ytick_1">
     <g id="line2d_9">
      <defs>
       <path id="m0a8004bc2f" d="M 0 0 
L -3.5 0 
" style="stroke: #000000; stroke-width: 0.8"/>
      </defs>
      <g>
       <use xlink:href="#m0a8004bc2f" x="65.11024" y="387.02976" style="stroke: #000000; stroke-width: 0.8"/>
      </g>
     </g>
     <g id="text_10">
      <!-- 0.00 -->
      <g transform="translate(22.48524 393.10851)scale(0.16 -0.16)">
       <use xlink:href="#DejaVuSans-30"/>
       <use xlink:href="#DejaVuSans-2e" x="63.623047"/>
       <use xlink:href="#DejaVuSans-30" x="95.410156"/>
       <use xlink:href="#DejaVuSans-30" x="159.033203"/>
      </g>
     </g>
    </g>
    <g id="ytick_2">
     <g id="line2d_10">
      <g>
       <use xlink:href="#m0a8004bc2f" x="65.11024" y="343.654482" style="stroke: #000000; stroke-width: 0.8"/>
      </g>
     </g>
     <g id="text_11">
      <!-- 0.25 -->
      <g transform="translate(22.48524 349.733232)scale(0.16 -0.16)">
       <use xlink:href="#DejaVuSans-30"/>
       <use xlink:href="#DejaVuSans-2e" x="63.623047"/>
       <use xlink:href="#DejaVuSans-32" x="95.410156"/>
       <use xlink:href="#DejaVuSans-35" x="159.033203"/>
      </g>
     </g>
    </g>
    <g id="ytick_3">
     <g id="line2d_11">
      <g>
       <use xlink:href="#m0a8004bc2f" x="65.11024" y="300.279205" style="stroke: #000000; stroke-width: 0.8"/>
      </g>
     </g>
     <g id="text_12">
      <!-- 0.50 -->
      <g transform="translate(22.48524 306.357955)scale(0.16 -0.16)">
       <use xlink:href="#DejaVuSans-30"/>
       <use xlink:href="#DejaVuSans-2e" x="63.623047"/>
       <use xlink:href="#DejaVuSans-35" x="95.410156"/>
       <use xlink:href="#DejaVuSans-30" x="159.033203"/>
      </g>
     </g>
    </g>
    <g id="ytick_4">
     <g id="line2d_12">
      <g>
       <use xlink:href="#m0a8004bc2f" x="65.11024" y="256.903927" style="stroke: #000000; stroke-width: 0.8"/>
      </g>
     </g>
     <g id="text_13">
      <!-- 0.75 -->
      <g transform="translate(22.48524 262.982677)scale(0.16 -0.16)">
       <use xlink:href="#DejaVuSans-30"/>
       <use xlink:href="#DejaVuSans-2e" x="63.623047"/>
       <use xlink:href="#DejaVuSans-37" x="95.410156"/>
       <use xlink:href="#DejaVuSans-35" x="159.033203"/>
      </g>
     </g>
    </g>
    <g id="ytick_5">
     <g id="line2d_13">
      <g>
       <use xlink:href="#m0a8004bc2f" x="65.11024" y="213.528649" style="stroke: #000000; stroke-width: 0.8"/>
      </g>
     </g>
     <g id="text_14">
      <!-- 1.00 -->
      <g transform="translate(22.48524 219.607399)scale(0.16 -0.16)">
       <defs>
        <path id="DejaVuSans-31" d="M 794 531 
L 1825 531 
L 1825 4091 
L 703 3866 
L 703 4441 
L 1819 4666 
L 2450 4666 
L 2450 531 
L 3481 531 
L 3481 0 
L 794 0 
L 794 531 
z
" transform="scale(0.015625)"/>
       </defs>
       <use xlink:href="#DejaVuSans-31"/>
       <use xlink:href="#DejaVuSans-2e" x="63.623047"/>
       <use xlink:href="#DejaVuSans-30" x="95.410156"/>
       <use xlink:href="#DejaVuSans-30" x="159.033203"/>
      </g>
     </g>
    </g>
    <g id="ytick_6">
     <g id="line2d_14">
      <g>
       <use xlink:href="#m0a8004bc2f" x="65.11024" y="170.153372" style="stroke: #000000; stroke-width: 0.8"/>
      </g>
     </g>
     <g id="text_15">
      <!-- 1.25 -->
      <g transform="translate(22.48524 176.232122)scale(0.16 -0.16)">
       <use xlink:href="#DejaVuSans-31"/>
       <use xlink:href="#DejaVuSans-2e" x="63.623047"/>
       <use xlink:href="#DejaVuSans-32" x="95.410156"/>
       <use xlink:href="#DejaVuSans-35" x="159.033203"/>
      </g>
     </g>
    </g>
    <g id="ytick_7">
     <g id="line2d_15">
      <g>
       <use xlink:href="#m0a8004bc2f" x="65.11024" y="126.778094" style="stroke: #000000; stroke-width: 0.8"/>
      </g>
     </g>
     <g id="text_16">
      <!-- 1.50 -->
      <g transform="translate(22.48524 132.856844)scale(0.16 -0.16)">
       <use xlink:href="#DejaVuSans-31"/>
       <use xlink:href="#DejaVuSans-2e" x="63.623047"/>
       <use xlink:href="#DejaVuSans-35" x="95.410156"/>
       <use xlink:href="#DejaVuSans-30" x="159.033203"/>
      </g>
     </g>
    </g>
    <g id="ytick_8">
     <g id="line2d_16">
      <g>
       <use xlink:href="#m0a8004bc2f" x="65.11024" y="83.402816" style="stroke: #000000; stroke-width: 0.8"/>
      </g>
     </g>
     <g id="text_17">
      <!-- 1.75 -->
      <g transform="translate(22.48524 89.481566)scale(0.16 -0.16)">
       <use xlink:href="#DejaVuSans-31"/>
       <use xlink:href="#DejaVuSans-2e" x="63.623047"/>
       <use xlink:href="#DejaVuSans-37" x="95.410156"/>
       <use xlink:href="#DejaVuSans-35" x="159.033203"/>
      </g>
     </g>
    </g>
    <g id="ytick_9">
     <g id="line2d_17">
      <g>
       <use xlink:href="#m0a8004bc2f" x="65.11024" y="40.027539" style="stroke: #000000; stroke-width: 0.8"/>
      </g>
     </g>
     <g id="text_18">
      <!-- 2.00 -->
      <g transform="translate(22.48524 46.106289)scale(0.16 -0.16)">
       <use xlink:href="#DejaVuSans-32"/>
       <use xlink:href="#DejaVuSans-2e" x="63.623047"/>
       <use xlink:href="#DejaVuSans-30" x="95.410156"/>
       <use xlink:href="#DejaVuSans-30" x="159.033203"/>
      </g>
     </g>
    </g>
    <g id="text_19">
     <!-- counts -->
     <g transform="translate(15.15774 231.591094)rotate(-90)scale(0.16 -0.16)">
      <defs>
       <path id="DejaVuSans-63" d="M 3122 3366 
L 3122 2828 
Q 2878 2963 2633 3030 
Q 2388 3097 2138 3097 
Q 1578 3097 1268 2742 
Q 959 2388 959 1747 
Q 959 1106 1268 751 
Q 1578 397 2138 397 
Q 2388 397 2633 464 
Q 2878 531 3122 666 
L 3122 134 
Q 2881 22 2623 -34 
Q 2366 -91 2075 -91 
Q 1284 -91 818 406 
Q 353 903 353 1747 
Q 353 2603 823 3093 
Q 1294 3584 2113 3584 
Q 2378 3584 2631 3529 
Q 2884 3475 3122 3366 
z
" transform="scale(0.015625)"/>
       <path id="DejaVuSans-6f" d="M 1959 3097 
Q 1497 3097 1228 2736 
Q 959 2375 959 1747 
Q 959 1119 1226 758 
Q 1494 397 1959 397 
Q 2419 397 2687 759 
Q 2956 1122 2956 1747 
Q 2956 2369 2687 2733 
Q 2419 3097 1959 3097 
z
M 1959 3584 
Q 2709 3584 3137 3096 
Q 3566 2609 3566 1747 
Q 3566 888 3137 398 
Q 2709 -91 1959 -91 
Q 1206 -91 779 398 
Q 353 888 353 1747 
Q 353 2609 779 3096 
Q 1206 3584 1959 3584 
z
" transform="scale(0.015625)"/>
       <path id="DejaVuSans-75" d="M 544 1381 
L 544 3500 
L 1119 3500 
L 1119 1403 
Q 1119 906 1312 657 
Q 1506 409 1894 409 
Q 2359 409 2629 706 
Q 2900 1003 2900 1516 
L 2900 3500 
L 3475 3500 
L 3475 0 
L 2900 0 
L 2900 538 
Q 2691 219 2414 64 
Q 2138 -91 1772 -91 
Q 1169 -91 856 284 
Q 544 659 544 1381 
z
M 1991 3584 
L 1991 3584 
z
" transform="scale(0.015625)"/>
       <path id="DejaVuSans-6e" d="M 3513 2113 
L 3513 0 
L 2938 0 
L 2938 2094 
Q 2938 2591 2744 2837 
Q 2550 3084 2163 3084 
Q 1697 3084 1428 2787 
Q 1159 2491 1159 1978 
L 1159 0 
L 581 0 
L 581 3500 
L 1159 3500 
L 1159 2956 
Q 1366 3272 1645 3428 
Q 1925 3584 2291 3584 
Q 2894 3584 3203 3211 
Q 3513 2838 3513 2113 
z
" transform="scale(0.015625)"/>
       <path id="DejaVuSans-74" d="M 1172 4494 
L 1172 3500 
L 2356 3500 
L 2356 3053 
L 1172 3053 
L 1172 1153 
Q 1172 725 1289 603 
Q 1406 481 1766 481 
L 2356 481 
L 2356 0 
L 1766 0 
Q 1100 0 847 248 
Q 594 497 594 1153 
L 594 3053 
L 172 3053 
L 172 3500 
L 594 3500 
L 594 4494 
L 1172 4494 
z
" transform="scale(0.015625)"/>
       <path id="DejaVuSans-73" d="M 2834 3397 
L 2834 2853 
Q 2591 2978 2328 3040 
Q 2066 3103 1784 3103 
Q 1356 3103 1142 2972 
Q 928 2841 928 2578 
Q 928 2378 1081 2264 
Q 1234 2150 1697 2047 
L 1894 2003 
Q 2506 1872 2764 1633 
Q 3022 1394 3022 966 
Q 3022 478 2636 193 
Q 2250 -91 1575 -91 
Q 1294 -91 989 -36 
Q 684 19 347 128 
L 347 722 
Q 666 556 975 473 
Q 1284 391 1588 391 
Q 1994 391 2212 530 
Q 2431 669 2431 922 
Q 2431 1156 2273 1281 
Q 2116 1406 1581 1522 
L 1381 1569 
Q 847 1681 609 1914 
Q 372 2147 372 2553 
Q 372 3047 722 3315 
Q 1072 3584 1716 3584 
Q 2034 3584 2315 3537 
Q 2597 3491 2834 3397 
z
" transform="scale(0.015625)"/>
      </defs>
      <use xlink:href="#DejaVuSans-63"/>
      <use xlink:href="#DejaVuSans-6f" x="54.980469"/>
      <use xlink:href="#DejaVuSans-75" x="116.162109"/>
      <use xlink:href="#DejaVuSans-6e" x="179.541016"/>
      <use xlink:href="#DejaVuSans-74" x="242.919922"/>
      <use xlink:href="#DejaVuSans-73" x="282.128906"/>
     </g>
    </g>
   </g>
   <g id="patch_245">
    <path d="M 65.11024 387.02976 
L 65.11024 22.677427 
" style="fill: none; stroke: #000000; stroke-width: 0.8; stroke-linejoin: miter; stroke-linecap: square"/>
   </g>
   <g id="patch_246">
    <path d="M 572.99976 387.02976 
L 572.99976 22.677427 
" style="fill: none; stroke: #000000; stroke-width: 0.8; stroke-linejoin: miter; stroke-linecap: square"/>
   </g>
   <g id="patch_247">
    <path d="M 65.11024 387.02976 
L 572.99976 387.02976 
" style="fill: none; stroke: #000000; stroke-width: 0.8; stroke-linejoin: miter; stroke-linecap: square"/>
   </g>
   <g id="patch_248">
    <path d="M 65.11024 22.677427 
L 572.99976 22.677427 
" style="fill: none; stroke: #000000; stroke-width: 0.8; stroke-linejoin: miter; stroke-linecap: square"/>
   </g>
   <g id="text_20">
    <!-- Intensity ratio G modes -->
    <g transform="translate(213.364063 16.677427)scale(0.18 -0.18)">
     <defs>
      <path id="DejaVuSans-49" d="M 628 4666 
L 1259 4666 
L 1259 0 
L 628 0 
L 628 4666 
z
" transform="scale(0.015625)"/>
      <path id="DejaVuSans-65" d="M 3597 1894 
L 3597 1613 
L 953 1613 
Q 991 1019 1311 708 
Q 1631 397 2203 397 
Q 2534 397 2845 478 
Q 3156 559 3463 722 
L 3463 178 
Q 3153 47 2828 -22 
Q 2503 -91 2169 -91 
Q 1331 -91 842 396 
Q 353 884 353 1716 
Q 353 2575 817 3079 
Q 1281 3584 2069 3584 
Q 2775 3584 3186 3129 
Q 3597 2675 3597 1894 
z
M 3022 2063 
Q 3016 2534 2758 2815 
Q 2500 3097 2075 3097 
Q 1594 3097 1305 2825 
Q 1016 2553 972 2059 
L 3022 2063 
z
" transform="scale(0.015625)"/>
      <path id="DejaVuSans-69" d="M 603 3500 
L 1178 3500 
L 1178 0 
L 603 0 
L 603 3500 
z
M 603 4863 
L 1178 4863 
L 1178 4134 
L 603 4134 
L 603 4863 
z
" transform="scale(0.015625)"/>
      <path id="DejaVuSans-79" d="M 2059 -325 
Q 1816 -950 1584 -1140 
Q 1353 -1331 966 -1331 
L 506 -1331 
L 506 -850 
L 844 -850 
Q 1081 -850 1212 -737 
Q 1344 -625 1503 -206 
L 1606 56 
L 191 3500 
L 800 3500 
L 1894 763 
L 2988 3500 
L 3597 3500 
L 2059 -325 
z
" transform="scale(0.015625)"/>
      <path id="DejaVuSans-20" transform="scale(0.015625)"/>
      <path id="DejaVuSans-72" d="M 2631 2963 
Q 2534 3019 2420 3045 
Q 2306 3072 2169 3072 
Q 1681 3072 1420 2755 
Q 1159 2438 1159 1844 
L 1159 0 
L 581 0 
L 581 3500 
L 1159 3500 
L 1159 2956 
Q 1341 3275 1631 3429 
Q 1922 3584 2338 3584 
Q 2397 3584 2469 3576 
Q 2541 3569 2628 3553 
L 2631 2963 
z
" transform="scale(0.015625)"/>
      <path id="DejaVuSans-61" d="M 2194 1759 
Q 1497 1759 1228 1600 
Q 959 1441 959 1056 
Q 959 750 1161 570 
Q 1363 391 1709 391 
Q 2188 391 2477 730 
Q 2766 1069 2766 1631 
L 2766 1759 
L 2194 1759 
z
M 3341 1997 
L 3341 0 
L 2766 0 
L 2766 531 
Q 2569 213 2275 61 
Q 1981 -91 1556 -91 
Q 1019 -91 701 211 
Q 384 513 384 1019 
Q 384 1609 779 1909 
Q 1175 2209 1959 2209 
L 2766 2209 
L 2766 2266 
Q 2766 2663 2505 2880 
Q 2244 3097 1772 3097 
Q 1472 3097 1187 3025 
Q 903 2953 641 2809 
L 641 3341 
Q 956 3463 1253 3523 
Q 1550 3584 1831 3584 
Q 2591 3584 2966 3190 
Q 3341 2797 3341 1997 
z
" transform="scale(0.015625)"/>
      <path id="DejaVuSans-47" d="M 3809 666 
L 3809 1919 
L 2778 1919 
L 2778 2438 
L 4434 2438 
L 4434 434 
Q 4069 175 3628 42 
Q 3188 -91 2688 -91 
Q 1594 -91 976 548 
Q 359 1188 359 2328 
Q 359 3472 976 4111 
Q 1594 4750 2688 4750 
Q 3144 4750 3555 4637 
Q 3966 4525 4313 4306 
L 4313 3634 
Q 3963 3931 3569 4081 
Q 3175 4231 2741 4231 
Q 1884 4231 1454 3753 
Q 1025 3275 1025 2328 
Q 1025 1384 1454 906 
Q 1884 428 2741 428 
Q 3075 428 3337 486 
Q 3600 544 3809 666 
z
" transform="scale(0.015625)"/>
      <path id="DejaVuSans-6d" d="M 3328 2828 
Q 3544 3216 3844 3400 
Q 4144 3584 4550 3584 
Q 5097 3584 5394 3201 
Q 5691 2819 5691 2113 
L 5691 0 
L 5113 0 
L 5113 2094 
Q 5113 2597 4934 2840 
Q 4756 3084 4391 3084 
Q 3944 3084 3684 2787 
Q 3425 2491 3425 1978 
L 3425 0 
L 2847 0 
L 2847 2094 
Q 2847 2600 2669 2842 
Q 2491 3084 2119 3084 
Q 1678 3084 1418 2786 
Q 1159 2488 1159 1978 
L 1159 0 
L 581 0 
L 581 3500 
L 1159 3500 
L 1159 2956 
Q 1356 3278 1631 3431 
Q 1906 3584 2284 3584 
Q 2666 3584 2933 3390 
Q 3200 3197 3328 2828 
z
" transform="scale(0.015625)"/>
      <path id="DejaVuSans-64" d="M 2906 2969 
L 2906 4863 
L 3481 4863 
L 3481 0 
L 2906 0 
L 2906 525 
Q 2725 213 2448 61 
Q 2172 -91 1784 -91 
Q 1150 -91 751 415 
Q 353 922 353 1747 
Q 353 2572 751 3078 
Q 1150 3584 1784 3584 
Q 2172 3584 2448 3432 
Q 2725 3281 2906 2969 
z
M 947 1747 
Q 947 1113 1208 752 
Q 1469 391 1925 391 
Q 2381 391 2643 752 
Q 2906 1113 2906 1747 
Q 2906 2381 2643 2742 
Q 2381 3103 1925 3103 
Q 1469 3103 1208 2742 
Q 947 2381 947 1747 
z
" transform="scale(0.015625)"/>
     </defs>
     <use xlink:href="#DejaVuSans-49"/>
     <use xlink:href="#DejaVuSans-6e" x="29.492188"/>
     <use xlink:href="#DejaVuSans-74" x="92.871094"/>
     <use xlink:href="#DejaVuSans-65" x="132.080078"/>
     <use xlink:href="#DejaVuSans-6e" x="193.603516"/>
     <use xlink:href="#DejaVuSans-73" x="256.982422"/>
     <use xlink:href="#DejaVuSans-69" x="309.082031"/>
     <use xlink:href="#DejaVuSans-74" x="336.865234"/>
     <use xlink:href="#DejaVuSans-79" x="376.074219"/>
     <use xlink:href="#DejaVuSans-20" x="435.253906"/>
     <use xlink:href="#DejaVuSans-72" x="467.041016"/>
     <use xlink:href="#DejaVuSans-61" x="508.154297"/>
     <use xlink:href="#DejaVuSans-74" x="569.433594"/>
     <use xlink:href="#DejaVuSans-69" x="608.642578"/>
     <use xlink:href="#DejaVuSans-6f" x="636.425781"/>
     <use xlink:href="#DejaVuSans-20" x="697.607422"/>
     <use xlink:href="#DejaVuSans-47" x="729.394531"/>
     <use xlink:href="#DejaVuSans-20" x="806.884766"/>
     <use xlink:href="#DejaVuSans-6d" x="838.671875"/>
     <use xlink:href="#DejaVuSans-6f" x="936.083984"/>
     <use xlink:href="#DejaVuSans-64" x="997.265625"/>
     <use xlink:href="#DejaVuSans-65" x="1060.742188"/>
     <use xlink:href="#DejaVuSans-73" x="1122.265625"/>
    </g>
   </g>
   <g id="legend_1">
    <g id="patch_249">
     <path d="M 273.95976 74.976177 
L 563.19976 74.976177 
Q 565.99976 74.976177 565.99976 72.176177 
L 565.99976 32.477427 
Q 565.99976 29.677427 563.19976 29.677427 
L 273.95976 29.677427 
Q 271.15976 29.677427 271.15976 32.477427 
L 271.15976 72.176177 
Q 271.15976 74.976177 273.95976 74.976177 
z
" style="fill: #ffffff; opacity: 0.8; stroke: #cccccc; stroke-linejoin: miter"/>
    </g>
    <g id="patch_250">
     <path d="M 276.75976 45.91524 
L 304.75976 45.91524 
L 304.75976 36.11524 
L 276.75976 36.11524 
z
" style="fill: #6f6f6f; opacity: 0.5; stroke: #000000; stroke-linejoin: miter"/>
    </g>
    <g id="text_21">
     <!-- 6,5-SWCNT.txt: $I_{G^{+}}/I_{G^{-}}$ =4.62$\pm$0.19 -->
     <g transform="translate(315.95976 45.91524)scale(0.14 -0.14)">
      <defs>
       <path id="DejaVuSans-36" d="M 2113 2584 
Q 1688 2584 1439 2293 
Q 1191 2003 1191 1497 
Q 1191 994 1439 701 
Q 1688 409 2113 409 
Q 2538 409 2786 701 
Q 3034 994 3034 1497 
Q 3034 2003 2786 2293 
Q 2538 2584 2113 2584 
z
M 3366 4563 
L 3366 3988 
Q 3128 4100 2886 4159 
Q 2644 4219 2406 4219 
Q 1781 4219 1451 3797 
Q 1122 3375 1075 2522 
Q 1259 2794 1537 2939 
Q 1816 3084 2150 3084 
Q 2853 3084 3261 2657 
Q 3669 2231 3669 1497 
Q 3669 778 3244 343 
Q 2819 -91 2113 -91 
Q 1303 -91 875 529 
Q 447 1150 447 2328 
Q 447 3434 972 4092 
Q 1497 4750 2381 4750 
Q 2619 4750 2861 4703 
Q 3103 4656 3366 4563 
z
" transform="scale(0.015625)"/>
       <path id="DejaVuSans-2c" d="M 750 794 
L 1409 794 
L 1409 256 
L 897 -744 
L 494 -744 
L 750 256 
L 750 794 
z
" transform="scale(0.015625)"/>
       <path id="DejaVuSans-2d" d="M 313 2009 
L 1997 2009 
L 1997 1497 
L 313 1497 
L 313 2009 
z
" transform="scale(0.015625)"/>
       <path id="DejaVuSans-53" d="M 3425 4513 
L 3425 3897 
Q 3066 4069 2747 4153 
Q 2428 4238 2131 4238 
Q 1616 4238 1336 4038 
Q 1056 3838 1056 3469 
Q 1056 3159 1242 3001 
Q 1428 2844 1947 2747 
L 2328 2669 
Q 3034 2534 3370 2195 
Q 3706 1856 3706 1288 
Q 3706 609 3251 259 
Q 2797 -91 1919 -91 
Q 1588 -91 1214 -16 
Q 841 59 441 206 
L 441 856 
Q 825 641 1194 531 
Q 1563 422 1919 422 
Q 2459 422 2753 634 
Q 3047 847 3047 1241 
Q 3047 1584 2836 1778 
Q 2625 1972 2144 2069 
L 1759 2144 
Q 1053 2284 737 2584 
Q 422 2884 422 3419 
Q 422 4038 858 4394 
Q 1294 4750 2059 4750 
Q 2388 4750 2728 4690 
Q 3069 4631 3425 4513 
z
" transform="scale(0.015625)"/>
       <path id="DejaVuSans-57" d="M 213 4666 
L 850 4666 
L 1831 722 
L 2809 4666 
L 3519 4666 
L 4500 722 
L 5478 4666 
L 6119 4666 
L 4947 0 
L 4153 0 
L 3169 4050 
L 2175 0 
L 1381 0 
L 213 4666 
z
" transform="scale(0.015625)"/>
       <path id="DejaVuSans-43" d="M 4122 4306 
L 4122 3641 
Q 3803 3938 3442 4084 
Q 3081 4231 2675 4231 
Q 1875 4231 1450 3742 
Q 1025 3253 1025 2328 
Q 1025 1406 1450 917 
Q 1875 428 2675 428 
Q 3081 428 3442 575 
Q 3803 722 4122 1019 
L 4122 359 
Q 3791 134 3420 21 
Q 3050 -91 2638 -91 
Q 1578 -91 968 557 
Q 359 1206 359 2328 
Q 359 3453 968 4101 
Q 1578 4750 2638 4750 
Q 3056 4750 3426 4639 
Q 3797 4528 4122 4306 
z
" transform="scale(0.015625)"/>
       <path id="DejaVuSans-4e" d="M 628 4666 
L 1478 4666 
L 3547 763 
L 3547 4666 
L 4159 4666 
L 4159 0 
L 3309 0 
L 1241 3903 
L 1241 0 
L 628 0 
L 628 4666 
z
" transform="scale(0.015625)"/>
       <path id="DejaVuSans-54" d="M -19 4666 
L 3928 4666 
L 3928 4134 
L 2272 4134 
L 2272 0 
L 1638 0 
L 1638 4134 
L -19 4134 
L -19 4666 
z
" transform="scale(0.015625)"/>
       <path id="DejaVuSans-78" d="M 3513 3500 
L 2247 1797 
L 3578 0 
L 2900 0 
L 1881 1375 
L 863 0 
L 184 0 
L 1544 1831 
L 300 3500 
L 978 3500 
L 1906 2253 
L 2834 3500 
L 3513 3500 
z
" transform="scale(0.015625)"/>
       <path id="DejaVuSans-3a" d="M 750 794 
L 1409 794 
L 1409 0 
L 750 0 
L 750 794 
z
M 750 3309 
L 1409 3309 
L 1409 2516 
L 750 2516 
L 750 3309 
z
" transform="scale(0.015625)"/>
       <path id="DejaVuSans-3d" d="M 678 2906 
L 4684 2906 
L 4684 2381 
L 678 2381 
L 678 2906 
z
M 678 1631 
L 4684 1631 
L 4684 1100 
L 678 1100 
L 678 1631 
z
" transform="scale(0.015625)"/>
       <path id="DejaVuSans-b1" d="M 2944 4013 
L 2944 2803 
L 4684 2803 
L 4684 2272 
L 2944 2272 
L 2944 1063 
L 2419 1063 
L 2419 2272 
L 678 2272 
L 678 2803 
L 2419 2803 
L 2419 4013 
L 2944 4013 
z
M 678 531 
L 4684 531 
L 4684 0 
L 678 0 
L 678 531 
z
" transform="scale(0.015625)"/>
       <path id="DejaVuSans-39" d="M 703 97 
L 703 672 
Q 941 559 1184 500 
Q 1428 441 1663 441 
Q 2288 441 2617 861 
Q 2947 1281 2994 2138 
Q 2813 1869 2534 1725 
Q 2256 1581 1919 1581 
Q 1219 1581 811 2004 
Q 403 2428 403 3163 
Q 403 3881 828 4315 
Q 1253 4750 1959 4750 
Q 2769 4750 3195 4129 
Q 3622 3509 3622 2328 
Q 3622 1225 3098 567 
Q 2575 -91 1691 -91 
Q 1453 -91 1209 -44 
Q 966 3 703 97 
z
M 1959 2075 
Q 2384 2075 2632 2365 
Q 2881 2656 2881 3163 
Q 2881 3666 2632 3958 
Q 2384 4250 1959 4250 
Q 1534 4250 1286 3958 
Q 1038 3666 1038 3163 
Q 1038 2656 1286 2365 
Q 1534 2075 1959 2075 
z
" transform="scale(0.015625)"/>
      </defs>
      <use xlink:href="#DejaVuSans-36" transform="translate(0 0.78125)"/>
      <use xlink:href="#DejaVuSans-2c" transform="translate(63.623047 0.78125)"/>
      <use xlink:href="#DejaVuSans-35" transform="translate(95.410156 0.78125)"/>
      <use xlink:href="#DejaVuSans-2d" transform="translate(159.033203 0.78125)"/>
      <use xlink:href="#DejaVuSans-53" transform="translate(195.117188 0.78125)"/>
      <use xlink:href="#DejaVuSans-57" transform="translate(258.59375 0.78125)"/>
      <use xlink:href="#DejaVuSans-43" transform="translate(357.470703 0.78125)"/>
      <use xlink:href="#DejaVuSans-4e" transform="translate(427.294922 0.78125)"/>
      <use xlink:href="#DejaVuSans-54" transform="translate(502.099609 0.78125)"/>
      <use xlink:href="#DejaVuSans-2e" transform="translate(563.183594 0.78125)"/>
      <use xlink:href="#DejaVuSans-74" transform="translate(594.970703 0.78125)"/>
      <use xlink:href="#DejaVuSans-78" transform="translate(634.179688 0.78125)"/>
      <use xlink:href="#DejaVuSans-74" transform="translate(693.359375 0.78125)"/>
      <use xlink:href="#DejaVuSans-3a" transform="translate(732.568359 0.78125)"/>
      <use xlink:href="#DejaVuSans-20" transform="translate(766.259766 0.78125)"/>
      <use xlink:href="#DejaVuSans-Oblique-49" transform="translate(798.046875 0.78125)"/>
      <use xlink:href="#DejaVuSans-Oblique-47" transform="translate(827.539062 -15.625)scale(0.7)"/>
      <use xlink:href="#DejaVuSans-2b" transform="translate(886.822591 11.171875)scale(0.49)"/>
      <use xlink:href="#DejaVuSans-2f" transform="translate(932.527669 0.78125)"/>
      <use xlink:href="#DejaVuSans-Oblique-49" transform="translate(966.219076 0.78125)"/>
      <use xlink:href="#DejaVuSans-Oblique-47" transform="translate(995.711263 -15.625)scale(0.7)"/>
      <use xlink:href="#DejaVuSans-2212" transform="translate(1054.994792 11.171875)scale(0.49)"/>
      <use xlink:href="#DejaVuSans-20" transform="translate(1100.69987 0.78125)"/>
      <use xlink:href="#DejaVuSans-3d" transform="translate(1132.486979 0.78125)"/>
      <use xlink:href="#DejaVuSans-34" transform="translate(1216.276042 0.78125)"/>
      <use xlink:href="#DejaVuSans-2e" transform="translate(1279.899089 0.78125)"/>
      <use xlink:href="#DejaVuSans-36" transform="translate(1311.686198 0.78125)"/>
      <use xlink:href="#DejaVuSans-32" transform="translate(1375.309245 0.78125)"/>
      <use xlink:href="#DejaVuSans-b1" transform="translate(1438.932292 0.78125)"/>
      <use xlink:href="#DejaVuSans-30" transform="translate(1522.721354 0.78125)"/>
      <use xlink:href="#DejaVuSans-2e" transform="translate(1586.344401 0.78125)"/>
      <use xlink:href="#DejaVuSans-31" transform="translate(1618.13151 0.78125)"/>
      <use xlink:href="#DejaVuSans-39" transform="translate(1681.754557 0.78125)"/>
     </g>
    </g>
    <g id="patch_251">
     <path d="M 276.75976 66.464615 
L 304.75976 66.464615 
L 304.75976 56.664615 
L 276.75976 56.664615 
z
" style="fill: #008aba; opacity: 0.5; stroke: #000000; stroke-linejoin: miter"/>
    </g>
    <g id="text_22">
     <!-- CuMINT.txt: $I_{G^{+}}/I_{G^{-}}$ =4.89$\pm$0.46 -->
     <g transform="translate(315.95976 66.464615)scale(0.14 -0.14)">
      <defs>
       <path id="DejaVuSans-4d" d="M 628 4666 
L 1569 4666 
L 2759 1491 
L 3956 4666 
L 4897 4666 
L 4897 0 
L 4281 0 
L 4281 4097 
L 3078 897 
L 2444 897 
L 1241 4097 
L 1241 0 
L 628 0 
L 628 4666 
z
" transform="scale(0.015625)"/>
       <path id="DejaVuSans-38" d="M 2034 2216 
Q 1584 2216 1326 1975 
Q 1069 1734 1069 1313 
Q 1069 891 1326 650 
Q 1584 409 2034 409 
Q 2484 409 2743 651 
Q 3003 894 3003 1313 
Q 3003 1734 2745 1975 
Q 2488 2216 2034 2216 
z
M 1403 2484 
Q 997 2584 770 2862 
Q 544 3141 544 3541 
Q 544 4100 942 4425 
Q 1341 4750 2034 4750 
Q 2731 4750 3128 4425 
Q 3525 4100 3525 3541 
Q 3525 3141 3298 2862 
Q 3072 2584 2669 2484 
Q 3125 2378 3379 2068 
Q 3634 1759 3634 1313 
Q 3634 634 3220 271 
Q 2806 -91 2034 -91 
Q 1263 -91 848 271 
Q 434 634 434 1313 
Q 434 1759 690 2068 
Q 947 2378 1403 2484 
z
M 1172 3481 
Q 1172 3119 1398 2916 
Q 1625 2713 2034 2713 
Q 2441 2713 2670 2916 
Q 2900 3119 2900 3481 
Q 2900 3844 2670 4047 
Q 2441 4250 2034 4250 
Q 1625 4250 1398 4047 
Q 1172 3844 1172 3481 
z
" transform="scale(0.015625)"/>
      </defs>
      <use xlink:href="#DejaVuSans-43" transform="translate(0 0.78125)"/>
      <use xlink:href="#DejaVuSans-75" transform="translate(69.824219 0.78125)"/>
      <use xlink:href="#DejaVuSans-4d" transform="translate(133.203125 0.78125)"/>
      <use xlink:href="#DejaVuSans-49" transform="translate(219.482422 0.78125)"/>
      <use xlink:href="#DejaVuSans-4e" transform="translate(248.974609 0.78125)"/>
      <use xlink:href="#DejaVuSans-54" transform="translate(323.779297 0.78125)"/>
      <use xlink:href="#DejaVuSans-2e" transform="translate(384.863281 0.78125)"/>
      <use xlink:href="#DejaVuSans-74" transform="translate(416.650391 0.78125)"/>
      <use xlink:href="#DejaVuSans-78" transform="translate(455.859375 0.78125)"/>
      <use xlink:href="#DejaVuSans-74" transform="translate(515.039062 0.78125)"/>
      <use xlink:href="#DejaVuSans-3a" transform="translate(554.248047 0.78125)"/>
      <use xlink:href="#DejaVuSans-20" transform="translate(587.939453 0.78125)"/>
      <use xlink:href="#DejaVuSans-Oblique-49" transform="translate(619.726562 0.78125)"/>
      <use xlink:href="#DejaVuSans-Oblique-47" transform="translate(649.21875 -15.625)scale(0.7)"/>
      <use xlink:href="#DejaVuSans-2b" transform="translate(708.502279 11.171875)scale(0.49)"/>
      <use xlink:href="#DejaVuSans-2f" transform="translate(754.207357 0.78125)"/>
      <use xlink:href="#DejaVuSans-Oblique-49" transform="translate(787.898763 0.78125)"/>
      <use xlink:href="#DejaVuSans-Oblique-47" transform="translate(817.390951 -15.625)scale(0.7)"/>
      <use xlink:href="#DejaVuSans-2212" transform="translate(876.674479 11.171875)scale(0.49)"/>
      <use xlink:href="#DejaVuSans-20" transform="translate(922.379557 0.78125)"/>
      <use xlink:href="#DejaVuSans-3d" transform="translate(954.166667 0.78125)"/>
      <use xlink:href="#DejaVuSans-34" transform="translate(1037.955729 0.78125)"/>
      <use xlink:href="#DejaVuSans-2e" transform="translate(1101.578776 0.78125)"/>
      <use xlink:href="#DejaVuSans-38" transform="translate(1130.740885 0.78125)"/>
      <use xlink:href="#DejaVuSans-39" transform="translate(1194.363932 0.78125)"/>
      <use xlink:href="#DejaVuSans-b1" transform="translate(1257.986979 0.78125)"/>
      <use xlink:href="#DejaVuSans-30" transform="translate(1341.776042 0.78125)"/>
      <use xlink:href="#DejaVuSans-2e" transform="translate(1405.399089 0.78125)"/>
      <use xlink:href="#DejaVuSans-34" transform="translate(1437.186198 0.78125)"/>
      <use xlink:href="#DejaVuSans-36" transform="translate(1500.809245 0.78125)"/>
     </g>
    </g>
   </g>
  </g>
 </g>
 <defs>
  <clipPath id="pd62f31418c">
   <rect x="65.11024" y="22.677427" width="507.88952" height="364.352333"/>
  </clipPath>
 </defs>
</svg>
